<?xml version="1.0" encoding="UTF-8" standalone="no"?>
<!-- Created with Inkscape (http://www.inkscape.org/) -->

<svg
   xmlns:dc="http://purl.org/dc/elements/1.1/"
   xmlns:cc="http://creativecommons.org/ns#"
   xmlns:rdf="http://www.w3.org/1999/02/22-rdf-syntax-ns#"
   xmlns:svg="http://www.w3.org/2000/svg"
   xmlns="http://www.w3.org/2000/svg"
   xmlns:sodipodi="http://sodipodi.sourceforge.net/DTD/sodipodi-0.dtd"
   xmlns:inkscape="http://www.inkscape.org/namespaces/inkscape"
   width="744.09448819"
   height="1052.3622047"
   id="svg2"
   version="1.1"
   inkscape:version="0.48.2 r9819"
   sodipodi:docname="Nowy dokument 1">
  <defs
     id="defs4" />
  <sodipodi:namedview
     id="base"
     pagecolor="#ffffff"
     bordercolor="#666666"
     borderopacity="1.0"
     inkscape:pageopacity="0.0"
     inkscape:pageshadow="2"
     inkscape:zoom="0.35"
     inkscape:cx="406.42857"
     inkscape:cy="260"
     inkscape:document-units="px"
     inkscape:current-layer="layer1"
     showgrid="false"
     inkscape:window-width="1280"
     inkscape:window-height="750"
     inkscape:window-x="-8"
     inkscape:window-y="-8"
     inkscape:window-maximized="1" />
  <metadata
     id="metadata7">
    <rdf:RDF>
      <cc:Work
         rdf:about="">
        <dc:format>image/svg+xml</dc:format>
        <dc:type
           rdf:resource="http://purl.org/dc/dcmitype/StillImage" />
        <dc:title></dc:title>
      </cc:Work>
    </rdf:RDF>
  </metadata>
  <g
     inkscape:label="Layer 1"
     inkscape:groupmode="layer"
     id="layer1">
    <g
       id="g3337"
       transform="translate(25.714286,65.714286)">
      <path
         sodipodi:nodetypes="ccccc"
         inkscape:connector-curvature="0"
         id="rect3151"
         d="M 302.85714,338.0765 611.42857,483.79079 588.57143,512.36221 302.85714,366.64792 z"
         style="fill:#666666;fill-opacity:1;stroke:none" />
      <path
         sodipodi:nodetypes="ccccc"
         inkscape:connector-curvature="0"
         id="rect3151-1"
         d="M 382.85714,333.79075 74.285715,479.50504 97.142855,508.07646 382.85714,362.36217 z"
         style="fill:#666666;fill-opacity:1;stroke:none" />
      <path
         sodipodi:nodetypes="ccccc"
         inkscape:connector-curvature="0"
         id="rect3151-2"
         d="M 405.71428,619.50503 428.57143,819.50504 400,833.79074 374.28571,622.36217 z"
         style="fill:#666666;fill-opacity:1;stroke:none" />
      <path
         sodipodi:nodetypes="ccccc"
         inkscape:connector-curvature="0"
         id="rect3151-2-7"
         d="m 281.42857,616.6479 -22.85715,200.00001 28.57143,14.2857 25.71429,-211.42857 z"
         style="fill:#666666;fill-opacity:1;stroke:none" />
      <rect
         ry="28.57143"
         rx="22.857143"
         y="326.64789"
         x="228.57143"
         height="337.14285"
         width="217.14285"
         id="rect3109"
         style="fill:#999999;fill-opacity:1;stroke:none" />
      <rect
         ry="0"
         rx="0"
         y="38.076469"
         x="248.57143"
         height="114.28571"
         width="17.142857"
         id="rect3111"
         style="fill:#999999;fill-opacity:1;stroke:none" />
      <rect
         ry="0"
         rx="0"
         y="40.933617"
         x="402.85715"
         height="114.28571"
         width="17.142857"
         id="rect3111-5"
         style="fill:#999999;fill-opacity:1;stroke:none" />
      <rect
         rx="37.142857"
         ry="65.714287"
         y="126.64791"
         x="179.99997"
         height="237.14285"
         width="317.14285"
         id="rect2987"
         style="fill:#808080;fill-opacity:1;stroke:none" />
      <g
         id="g3221">
        <path
           transform="translate(141.42858,5.7142828)"
           sodipodi:type="arc"
           style="fill:#ffffff;fill-opacity:1;stroke:none"
           id="path2989-4"
           sodipodi:cx="281.42856"
           sodipodi:cy="206.6479"
           sodipodi:rx="41.42857"
           sodipodi:ry="40"
           d="m 322.85713,206.6479 c 0,22.09139 -18.5482,40 -41.42857,40 -22.88037,0 -41.42857,-17.90861 -41.42857,-40 0,-22.09139 18.5482,-40 41.42857,-40 22.88037,0 41.42857,17.90861 41.42857,40 z" />
        <path
           transform="translate(247.14286,-318.57143)"
           sodipodi:type="arc"
           style="fill:#000000;fill-opacity:1;stroke:none"
           id="path3052-4"
           sodipodi:cx="178.57143"
           sodipodi:cy="528.07648"
           sodipodi:rx="18.571428"
           sodipodi:ry="18.571428"
           d="m 197.14285,528.07648 c 0,10.25671 -8.31471,18.57143 -18.57142,18.57143 -10.25672,0 -18.57143,-8.31472 -18.57143,-18.57143 0,-10.25672 8.31471,-18.57143 18.57143,-18.57143 10.25671,0 18.57142,8.31471 18.57142,18.57143 z" />
      </g>
      <g
         id="g3225">
        <path
           transform="matrix(-1,0,0,1,544.2857,2.142852)"
           sodipodi:type="arc"
           style="fill:#ffffff;fill-opacity:1;stroke:none"
           id="path2989-4-8"
           sodipodi:cx="281.42856"
           sodipodi:cy="206.6479"
           sodipodi:rx="41.42857"
           sodipodi:ry="40"
           d="m 322.85713,206.6479 c 0,22.09139 -18.5482,40 -41.42857,40 -22.88037,0 -41.42857,-17.90861 -41.42857,-40 0,-22.09139 18.5482,-40 41.42857,-40 22.88037,0 41.42857,17.90861 41.42857,40 z" />
        <path
           transform="matrix(-1,0,0,1,438.57142,-322.14287)"
           sodipodi:type="arc"
           style="fill:#000000;fill-opacity:1;stroke:none"
           id="path3052-4-4"
           sodipodi:cx="178.57143"
           sodipodi:cy="528.07648"
           sodipodi:rx="18.571428"
           sodipodi:ry="18.571428"
           d="m 197.14285,528.07648 c 0,10.25671 -8.31471,18.57143 -18.57142,18.57143 -10.25672,0 -18.57143,-8.31472 -18.57143,-18.57143 0,-10.25672 8.31471,-18.57143 18.57143,-18.57143 10.25671,0 18.57142,8.31471 18.57142,18.57143 z" />
      </g>
      <path
         sodipodi:nodetypes="sssss"
         inkscape:connector-curvature="0"
         id="path3104"
         d="m 405.7143,288.0765 c 0,35.50401 -30.06088,64.28571 -67.14286,64.28571 -37.08198,0 -67.14286,-28.7817 -67.14286,-64.28571 0,-35.50402 30.06089,30 67.14287,30 37.08198,0 67.14285,-65.50402 67.14285,-30 z"
         style="fill:#000000;fill-opacity:1;stroke:none" />
      <path
         transform="translate(82.857143,-720)"
         d="m 197.14286,763.79077 c 0,12.62365 -10.23349,22.85714 -22.85714,22.85714 -12.62365,0 -22.85714,-10.23349 -22.85714,-22.85714 0,-12.62365 10.23349,-22.85714 22.85714,-22.85714 12.62365,0 22.85714,10.23349 22.85714,22.85714 z"
         sodipodi:ry="22.857143"
         sodipodi:rx="22.857143"
         sodipodi:cy="763.79077"
         sodipodi:cx="174.28572"
         id="path3131"
         style="fill:#999999;fill-opacity:1;stroke:none"
         sodipodi:type="arc" />
      <path
         d="m 197.14286,763.79077 c 0,12.62365 -10.23349,22.85714 -22.85714,22.85714 -12.62365,0 -22.85714,-10.23349 -22.85714,-22.85714 0,-12.62365 10.23349,-22.85714 22.85714,-22.85714 12.62365,0 22.85714,10.23349 22.85714,22.85714 z"
         sodipodi:ry="22.857143"
         sodipodi:rx="22.857143"
         sodipodi:cy="763.79077"
         sodipodi:cx="174.28572"
         id="path3131-5"
         style="fill:#999999;fill-opacity:1;stroke:none"
         sodipodi:type="arc"
         transform="translate(234.28571,-717.14288)" />
      <g
         transform="matrix(0.55555557,0,0,0.55223885,345.07936,-357.74831)"
         id="g3215">
        <path
           style="fill:#7f2aff;fill-opacity:1;stroke:none"
           d="m 300,918.07645 c 0,36.293 -30.06088,65.71429 -67.14286,65.71429 -37.08197,0 -67.14286,-29.42129 -67.14286,-65.71429 0,-36.29299 30.06089,-65.71428 67.14286,-65.71428 37.08198,0 67.14286,29.42129 67.14286,65.71428 z"
           id="path3180"
           inkscape:connector-curvature="0" />
        <path
           inkscape:connector-curvature="0"
           style="fill:#7f2aff;fill-opacity:1;stroke:none"
           d="m 358.57143,906.64789 c 0,36.293 -30.06088,65.71429 -67.14286,65.71429 -37.08197,0 -67.14286,-29.42129 -67.14286,-65.71429 0,-36.29299 30.06089,-65.71428 67.14286,-65.71428 37.08198,0 67.14286,29.42129 67.14286,65.71428 z"
           id="path3180-7" />
        <path
           inkscape:connector-curvature="0"
           style="fill:#7f2aff;fill-opacity:1;stroke:none"
           d="m 335.71429,966.64789 c 0,36.29301 -30.06088,65.71431 -67.14286,65.71431 -37.08197,0 -67.14286,-29.4213 -67.14286,-65.71431 0,-36.29299 30.06089,-65.71428 67.14286,-65.71428 37.08198,0 67.14286,29.42129 67.14286,65.71428 z"
           id="path3180-1" />
        <path
           inkscape:connector-curvature="0"
           style="fill:#ffff00;fill-opacity:1;stroke:none"
           d="m 304.28572,928.07646 c 0,21.30242 -16.62943,38.57144 -37.14286,38.57144 C 246.62943,966.6479 230,949.37888 230,928.07646 c 0,-21.3024 16.62943,-38.57142 37.14286,-38.57142 20.51343,0 37.14286,17.26902 37.14286,38.57142 z"
           id="path3180-15" />
      </g>
      <path
         transform="translate(11.428571,-197.14286)"
         d="m 111.42857,693.79077 c 0,22.88037 -16.629424,41.42857 -37.142857,41.42857 -20.513433,0 -37.142856,-18.5482 -37.142856,-41.42857 0,-22.88037 16.629423,-41.42857 37.142856,-41.42857 20.513433,0 37.142857,18.5482 37.142857,41.42857 z"
         sodipodi:ry="41.42857"
         sodipodi:rx="37.142857"
         sodipodi:cy="693.79077"
         sodipodi:cx="74.285713"
         id="path3267"
         style="fill:#333333;fill-opacity:1;stroke:none"
         sodipodi:type="arc" />
      <path
         d="m 111.42857,693.79077 c 0,22.88037 -16.629424,41.42857 -37.142857,41.42857 -20.513433,0 -37.142856,-18.5482 -37.142856,-41.42857 0,-22.88037 16.629423,-41.42857 37.142856,-41.42857 20.513433,0 37.142857,18.5482 37.142857,41.42857 z"
         sodipodi:ry="41.42857"
         sodipodi:rx="37.142857"
         sodipodi:cy="693.79077"
         sodipodi:cx="74.285713"
         id="path3267-6"
         style="fill:#333333;fill-opacity:1;stroke:none"
         sodipodi:type="arc"
         transform="translate(517.14286,-195.7143)" />
      <path
         d="m 111.42857,693.79077 c 0,22.88037 -16.629424,41.42857 -37.142857,41.42857 -20.513433,0 -37.142856,-18.5482 -37.142856,-41.42857 0,-22.88037 16.629423,-41.42857 37.142856,-41.42857 20.513433,0 37.142857,18.5482 37.142857,41.42857 z"
         sodipodi:ry="41.42857"
         sodipodi:rx="37.142857"
         sodipodi:cy="693.79077"
         sodipodi:cx="74.285713"
         id="path3267-1"
         style="fill:#333333;fill-opacity:1;stroke:none"
         sodipodi:type="arc"
         transform="matrix(1.4615385,0,0,1,334.28571,112.85713)" />
      <path
         d="m 111.42857,693.79077 c 0,22.88037 -16.629424,41.42857 -37.142857,41.42857 -20.513433,0 -37.142856,-18.5482 -37.142856,-41.42857 0,-22.88037 16.629423,-41.42857 37.142856,-41.42857 20.513433,0 37.142857,18.5482 37.142857,41.42857 z"
         sodipodi:ry="41.42857"
         sodipodi:rx="37.142857"
         sodipodi:cy="693.79077"
         sodipodi:cx="74.285713"
         id="path3267-1-2"
         style="fill:#333333;fill-opacity:1;stroke:none"
         sodipodi:type="arc"
         transform="matrix(1.4615385,0,0,1,142.85714,109.99998)" />
    </g>
  </g>
</svg>
