<?xml version="1.0" encoding="UTF-8" standalone="no"?>
<!-- Created with Inkscape (http://www.inkscape.org/) -->
<svg
   xmlns:dc="http://purl.org/dc/elements/1.1/"
   xmlns:cc="http://creativecommons.org/ns#"
   xmlns:rdf="http://www.w3.org/1999/02/22-rdf-syntax-ns#"
   xmlns:svg="http://www.w3.org/2000/svg"
   xmlns="http://www.w3.org/2000/svg"
   xmlns:xlink="http://www.w3.org/1999/xlink"
   xmlns:sodipodi="http://sodipodi.sourceforge.net/DTD/sodipodi-0.dtd"
   xmlns:inkscape="http://www.inkscape.org/namespaces/inkscape"
   inkscape:export-ydpi="72.000000"
   inkscape:export-xdpi="72.000000"
   inkscape:export-filename="/datas/Projs/Cliparts Stocker/tree.png"
   sodipodi:docbase="/datas/Projs/Cliparts Stocker"
   sodipodi:docname="tree.svg"
   height="974"
   width="284"
   inkscape:version="0.46"
   sodipodi:version="0.32"
   id="svg1"
   inkscape:output_extension="org.inkscape.output.svg.inkscape"
   version="1.0">
  <defs
     id="defs3">
    <linearGradient
       id="linearGradient5302">
      <stop
         id="stop5303"
         offset="0.0000000"
         style="stop-color:#002f00;stop-opacity:1.0000000;" />
      <stop
         id="stop5304"
         offset="1.0000000"
         style="stop-color:#009300;stop-opacity:1.0000000;" />
    </linearGradient>
    <linearGradient
       id="linearGradient3433">
      <stop
         id="stop3434"
         offset="0.00000000"
         style="stop-color:#6c2f07;stop-opacity:1.0000000;" />
      <stop
         id="stop3435"
         offset="1.0000000"
         style="stop-color:#7e4932;stop-opacity:1.0000000;" />
    </linearGradient>
    <linearGradient
       id="linearGradient2186">
      <stop
         id="stop2187"
         offset="0.00000000"
         style="stop-color:#002f00;stop-opacity:1.0000000;" />
      <stop
         id="stop2188"
         offset="1.0000000"
         style="stop-color:#009300;stop-opacity:1.0000000;" />
    </linearGradient>
    <linearGradient
       y2="296.99844"
       x2="360.68933"
       y1="293.79697"
       x1="511.66559"
       gradientTransform="scale(0.532739,1.877092)"
       gradientUnits="userSpaceOnUse"
       id="linearGradient8177"
       xlink:href="#linearGradient3433"
       inkscape:collect="always" />
    <linearGradient
       y2="184.01027"
       x2="202.51546"
       y1="342.50113"
       x1="451.49008"
       gradientTransform="scale(0.613076,1.631119)"
       gradientUnits="userSpaceOnUse"
       id="linearGradient8180"
       xlink:href="#linearGradient5302"
       inkscape:collect="always" />
    <linearGradient
       y2="457.76712"
       x2="377.71988"
       y1="32.723629"
       x1="377.71988"
       gradientTransform="matrix(0.613076,0,0,1.631119,-178.8451,-7.53032)"
       gradientUnits="userSpaceOnUse"
       id="linearGradient8183"
       xlink:href="#linearGradient2186"
       inkscape:collect="always" />
    <linearGradient
       inkscape:collect="always"
       xlink:href="#linearGradient3433"
       id="linearGradient2405"
       gradientUnits="userSpaceOnUse"
       gradientTransform="matrix(0.532739,0,0,1.877092,-78.264271,-23.093822)"
       x1="511.66559"
       y1="293.79697"
       x2="360.68933"
       y2="296.99844" />
    <linearGradient
       inkscape:collect="always"
       xlink:href="#linearGradient5302"
       id="linearGradient2408"
       gradientUnits="userSpaceOnUse"
       gradientTransform="matrix(0.613076,0,0,1.631119,-78.264271,-23.093822)"
       x1="451.49008"
       y1="342.50113"
       x2="202.51546"
       y2="184.01027" />
    <linearGradient
       inkscape:collect="always"
       xlink:href="#linearGradient2186"
       id="linearGradient2411"
       gradientUnits="userSpaceOnUse"
       gradientTransform="matrix(0.613076,0,0,1.631119,-257.10937,-30.624142)"
       x1="377.71988"
       y1="32.723629"
       x2="377.71988"
       y2="457.76712" />
  </defs>
  <sodipodi:namedview
     inkscape:current-layer="svg1"
     inkscape:window-y="-4"
     inkscape:window-x="-4"
     inkscape:window-height="1003"
     inkscape:window-width="1680"
     inkscape:cy="487"
     inkscape:cx="307.95415"
     inkscape:zoom="0.82854209"
     inkscape:pageshadow="2"
     inkscape:pageopacity="0.0"
     borderopacity="1.0"
     bordercolor="#666666"
     pagecolor="#ffffff"
     id="base"
     showgrid="false" />
  <metadata
     id="metadata4">
    <rdf:RDF>
      <cc:Work
         rdf:about="">
        <dc:format>image/svg+xml</dc:format>
        <dc:type
           rdf:resource="http://purl.org/dc/dcmitype/StillImage" />
        <dc:title>Tree</dc:title>
        <dc:date>2004-08-12</dc:date>
        <dc:creator>
          <cc:Agent>
            <dc:title>Jean-Victor Balin</dc:title>
          </cc:Agent>
        </dc:creator>
        <dc:description>jean.victor.balin@gmail.com</dc:description>
        <cc:license
           rdf:resource="http://creativecommons.org/licenses/publicdomain/" />
        <dc:language>fr-FR</dc:language>
        <dc:subject>
          <rdf:Bag>
            <rdf:li>tree</rdf:li>
            <rdf:li>forest</rdf:li>
            <rdf:li>garden</rdf:li>
          </rdf:Bag>
        </dc:subject>
      </cc:Work>
      <cc:License
         rdf:about="http://creativecommons.org/licenses/publicdomain/">
        <cc:permits
           rdf:resource="http://creativecommons.org/ns#Reproduction" />
        <cc:permits
           rdf:resource="http://creativecommons.org/ns#Distribution" />
        <cc:permits
           rdf:resource="http://creativecommons.org/ns#DerivativeWorks" />
      </cc:License>
    </rdf:RDF>
  </metadata>
  <g
     id="g2413">
    <path
       sodipodi:nodetypes="ccccccccccccc"
       id="path909"
       d="M 141.92188,0.907108 C 133.82942,1.478405 69.257549,107.62291 54.765629,177.46961 C 33.237879,302.88543 22.939759,462.66377 3.828129,588.43836 C -1.842881,617.53776 0.530379,653.29693 7.640629,670.78211 C 14.871229,694.48022 35.411229,719.27121 59.984379,733.59461 C 89.977059,753.02107 112.49982,752.49585 141.73438,752.87586 C 141.88781,752.97048 142.08855,752.99413 142.26563,752.87586 C 172.88379,752.84152 195.75194,751.63788 224.01563,733.59461 C 248.58878,719.27121 269.12876,694.48022 276.35938,670.78211 C 283.46963,653.29693 285.84287,617.53776 280.17188,588.43836 C 261.06025,462.66377 250.76214,302.88542 229.23438,177.46961 C 214.74246,107.6229 150.1706,1.478407 142.07813,0.907108 C 142.05065,0.905168 141.96056,0.904377 141.92188,0.907108 z"
       style="fill:url(#linearGradient2411);fill-opacity:0.75;fill-rule:evenodd;stroke:none;stroke-width:1pt;stroke-linecap:butt;stroke-linejoin:miter;stroke-opacity:1" />
    <path
       sodipodi:nodetypes="ccccccccccccc"
       id="path4679"
       d="M 141.92187,0.907107 C 133.82941,1.478404 69.257539,107.62291 54.765619,177.46961 C 33.237869,302.88543 22.939749,462.66377 3.828119,588.43836 C -1.842891,617.53776 0.530369,653.29693 7.640619,670.78211 C 14.871219,694.48022 35.411219,719.27121 59.984369,733.59461 C 89.977049,753.02107 112.49981,752.49585 141.73437,752.87586 C 141.8878,752.97048 142.08854,752.99413 142.26562,752.87586 C 172.88378,752.84152 195.75193,751.63788 224.01562,733.59461 C 248.5888,719.27121 269.1288,694.48022 276.3594,670.78211 C 283.4696,653.29693 285.8429,617.53776 280.1719,588.43836 C 261.0602,462.66377 250.7621,302.88542 229.23437,177.46961 C 214.74245,107.6229 150.17059,1.478406 142.07812,0.907107 C 142.05064,0.905167 141.96055,0.904376 141.92187,0.907107 z"
       style="fill:url(#linearGradient2408);fill-opacity:1;fill-rule:evenodd;stroke:none;stroke-width:1pt;stroke-linecap:butt;stroke-linejoin:miter;stroke-opacity:1" />
    <path
       id="path1545"
       d="M 136.20313,203.87586 L 131.85938,303.40711 L 103.54688,279.65711 L 130.79688,327.62586 L 128.04688,390.25086 L 86.796879,355.59461 L 126.48438,425.46961 L 123.67188,490.21961 L 61.390629,437.90711 L 121.32813,543.43836 L 117.89063,621.81336 L 39.203129,555.68836 L 114.95313,689.06336 L 102.51563,973.09466 C 187.41356,973.09466 187.39063,973.09466 187.39063,973.09466 L 170.79688,723.96961 L 257.51563,571.28211 L 165.76563,648.31336 L 161.32813,581.65711 L 232.95313,455.56336 L 157.17188,519.21961 L 153.60938,465.31336 L 208.95313,367.81336 L 150.39063,417.03211 L 146.20313,354.25086 L 179.39063,295.81336 L 144.29688,325.31336 L 136.20313,203.87586 z"
       style="fill:url(#linearGradient2405);fill-opacity:1;fill-rule:evenodd;stroke:none;stroke-width:1.10437775pt;stroke-linecap:butt;stroke-linejoin:miter;stroke-opacity:0.46363639" />
  </g>
</svg>
