<?xml version="1.0" encoding="UTF-8" standalone="no"?>
<!-- Created with Inkscape (http://www.inkscape.org/) -->

<svg
   xmlns:dc="http://purl.org/dc/elements/1.1/"
   xmlns:cc="http://creativecommons.org/ns#"
   xmlns:rdf="http://www.w3.org/1999/02/22-rdf-syntax-ns#"
   xmlns:svg="http://www.w3.org/2000/svg"
   xmlns="http://www.w3.org/2000/svg"
   xmlns:sodipodi="http://sodipodi.sourceforge.net/DTD/sodipodi-0.dtd"
   xmlns:inkscape="http://www.inkscape.org/namespaces/inkscape"
   width="640.5"
   height="162.01282"
   id="svg2"
   version="1.1"
   inkscape:version="0.48.1 "
   sodipodi:docname="submodular_sum.svg">
  <defs
     id="defs4" />
  <sodipodi:namedview
     id="base"
     pagecolor="#ffffff"
     bordercolor="#666666"
     borderopacity="1.0"
     inkscape:pageopacity="0.0"
     inkscape:pageshadow="2"
     inkscape:zoom="0.35"
     inkscape:cx="49.785714"
     inkscape:cy="419.42456"
     inkscape:document-units="px"
     inkscape:current-layer="layer1"
     showgrid="true"
     inkscape:window-width="1600"
     inkscape:window-height="838"
     inkscape:window-x="-8"
     inkscape:window-y="-8"
     inkscape:window-maximized="1"
     fit-margin-top="0"
     fit-margin-left="0"
     fit-margin-right="0"
     fit-margin-bottom="0">
    <inkscape:grid
       type="xygrid"
       id="grid2985"
       empspacing="5"
       visible="true"
       enabled="true"
       snapvisiblegridlinesonly="true" />
  </sodipodi:namedview>
  <metadata
     id="metadata7">
    <rdf:RDF>
      <cc:Work
         rdf:about="">
        <dc:format>image/svg+xml</dc:format>
        <dc:type
           rdf:resource="http://purl.org/dc/dcmitype/StillImage" />
        <dc:title></dc:title>
      </cc:Work>
    </rdf:RDF>
  </metadata>
  <g
     inkscape:label="Layer 1"
     inkscape:groupmode="layer"
     id="layer1"
     transform="translate(120.5,-491.875)">
    <path
       sodipodi:type="arc"
       style="opacity:0.8;fill:#00ff00;fill-opacity:1;stroke:#000000;stroke-opacity:1"
       id="path3773"
       sodipodi:cx="-360"
       sodipodi:cy="132.36218"
       sodipodi:rx="80"
       sodipodi:ry="80"
       d="m -280,132.36218 c 0,44.18278 -35.81722,80 -80,80 -44.18278,0 -80,-35.81722 -80,-80 0,-44.182777 35.81722,-79.999997 80,-79.999997 44.18278,0 80,35.81722 80,79.999997 z"
       transform="translate(320,440)" />
    <path
       transform="translate(559.5,441.01281)"
       sodipodi:type="arc"
       style="opacity:0.8;fill:#00ff00;fill-opacity:1;stroke:#000000;stroke-opacity:1"
       id="path3773-5"
       sodipodi:cx="-360"
       sodipodi:cy="132.36218"
       sodipodi:rx="80"
       sodipodi:ry="80"
       d="m -280,132.36218 c 0,44.18278 -35.81722,80 -80,80 -44.18278,0 -80,-35.81722 -80,-80 0,-44.182777 35.81722,-79.999997 80,-79.999997 44.18278,0 80,35.81722 80,79.999997 z" />
    <path
       transform="translate(799.5,441.01281)"
       sodipodi:type="arc"
       style="opacity:0.8;fill:#00ff00;fill-opacity:1;stroke:#000000;stroke-opacity:1"
       id="path3773-0"
       sodipodi:cx="-360"
       sodipodi:cy="132.36218"
       sodipodi:rx="80"
       sodipodi:ry="80"
       d="m -280,132.36218 c 0,44.18278 -35.81722,80 -80,80 -44.18278,0 -80,-35.81722 -80,-80 0,-44.182777 35.81722,-79.999997 80,-79.999997 44.18278,0 80,35.81722 80,79.999997 z" />
  </g>
</svg>
