<?xml version="1.0" encoding="UTF-8" standalone="no"?>
<!-- Created with Inkscape (http://www.inkscape.org/) -->

<svg
   xmlns:dc="http://purl.org/dc/elements/1.1/"
   xmlns:cc="http://creativecommons.org/ns#"
   xmlns:rdf="http://www.w3.org/1999/02/22-rdf-syntax-ns#"
   xmlns:svg="http://www.w3.org/2000/svg"
   xmlns="http://www.w3.org/2000/svg"
   xmlns:sodipodi="http://sodipodi.sourceforge.net/DTD/sodipodi-0.dtd"
   xmlns:inkscape="http://www.inkscape.org/namespaces/inkscape"
   id="svg3119"
   version="1.1"
   inkscape:version="0.48.1 "
   width="1051.6863"
   height="684.12549"
   xml:space="preserve"
   sodipodi:docname="two_sets_split.pdf"><metadata
     id="metadata3125"><rdf:RDF><cc:Work
         rdf:about=""><dc:format>image/svg+xml</dc:format><dc:type
           rdf:resource="http://purl.org/dc/dcmitype/StillImage" /><dc:title></dc:title></cc:Work></rdf:RDF></metadata><defs
     id="defs3123" /><sodipodi:namedview
     pagecolor="#ffffff"
     bordercolor="#666666"
     borderopacity="1"
     objecttolerance="10"
     gridtolerance="10"
     guidetolerance="10"
     inkscape:pageopacity="0"
     inkscape:pageshadow="2"
     inkscape:window-width="1280"
     inkscape:window-height="962"
     id="namedview3121"
     showgrid="false"
     fit-margin-top="0"
     fit-margin-left="0"
     fit-margin-right="0"
     fit-margin-bottom="0"
     inkscape:zoom="0.38151025"
     inkscape:cx="282.81445"
     inkscape:cy="342.06263"
     inkscape:window-x="-8"
     inkscape:window-y="-8"
     inkscape:window-maximized="1"
     inkscape:current-layer="g3127" /><g
     id="g3127"
     inkscape:groupmode="layer"
     inkscape:label="two_sets_split"
     transform="matrix(1.25,0,0,-1.25,0.00125006,684.1244)"><g
       id="g3129"><g
         id="g3131"
         transform="matrix(0.719538,0,0,-1,0,547.29852)"><path
           d="m 451.087,446.199 c 0,55.235 -83.153,100.008 -185.726,100.008 -102.572,0 -185.725,-44.773 -185.725,-100.008 0,-55.23 83.153,-100.008 185.725,-100.008 102.573,0 185.726,44.778 185.726,100.008 z"
           style="fill:#fffe00;fill-opacity:1;fill-rule:nonzero;stroke:#000000;stroke-width:2.57556295;stroke-linecap:butt;stroke-linejoin:miter;stroke-miterlimit:4;stroke-opacity:1;stroke-dasharray:none"
           id="path3133"
           inkscape:connector-curvature="0" /></g><g
         id="g3135"
         transform="matrix(1,0,0,-1,0,547.29852)"><path
           d="m 1.199,309.621 384,0"
           style="fill:none;stroke:#000000;stroke-width:2.4000001;stroke-linecap:butt;stroke-linejoin:miter;stroke-miterlimit:4;stroke-opacity:1;stroke-dasharray:none"
           id="path3137"
           inkscape:connector-curvature="0" /></g><g
         id="g3139"
         transform="matrix(1,0,0,-1,0,547.29852)"><path
           d="m 396.277,309.621 -16.605,9.602 0,-19.2 16.605,9.598 z"
           style="fill:#000000;fill-opacity:1;fill-rule:evenodd;stroke:#000000;stroke-width:2.4000001;stroke-linecap:butt;stroke-linejoin:miter;stroke-miterlimit:4;stroke-opacity:1;stroke-dasharray:none"
           id="path3141"
           inkscape:connector-curvature="0" /></g><g
         id="g3143"
         transform="matrix(1,0,0,-1,0,547.29852)"><path
           d="m 27.754,332.277 0,-320"
           style="fill:none;stroke:#000000;stroke-width:2.4000001;stroke-linecap:butt;stroke-linejoin:miter;stroke-miterlimit:4;stroke-opacity:1;stroke-dasharray:none"
           id="path3145"
           inkscape:connector-curvature="0" /></g><g
         id="g3147"
         transform="matrix(0,1,1,0,0,547.29852)"><path
           d="m -1.199,27.754 -16.61,9.601 0,-19.203 16.61,9.602 z"
           style="fill:#000000;fill-opacity:1;fill-rule:evenodd;stroke:#000000;stroke-width:2.4000001;stroke-linecap:butt;stroke-linejoin:miter;stroke-miterlimit:4;stroke-opacity:1;stroke-dasharray:none"
           id="path3149"
           inkscape:connector-curvature="0" /></g><g
         id="g3151"
         transform="matrix(1,0,0,-1,0,547.29852)"><path
           d="m 65.199,341.621 c 0,0 128,-480 192,-224 64,256 64,224 64,224"
           style="fill:none;stroke:#000000;stroke-width:2.4000001;stroke-linecap:butt;stroke-linejoin:miter;stroke-miterlimit:4;stroke-opacity:1;stroke-dasharray:none"
           id="path3153"
           inkscape:connector-curvature="0" /></g><g
         id="g3155"
         transform="matrix(1,0,0,-1,0,547.29852)"><path
           d="m 1.199,117.621 320,0"
           style="fill:none;stroke:#00b600;stroke-width:2.4000001;stroke-linecap:butt;stroke-linejoin:miter;stroke-miterlimit:4;stroke-opacity:1;stroke-dasharray:9.6, 9.6;stroke-dashoffset:0"
           id="path3157"
           inkscape:connector-curvature="0" /></g><g
         id="g3159"
         transform="matrix(0.778746,0,0,-1,0,547.29852)"><path
           d="m 330.274,428.984 c 0,24.266 -32.785,43.938 -73.225,43.938 -40.44,0 -73.225,-19.672 -73.225,-43.938 0,-24.265 32.785,-43.933 73.225,-43.933 40.44,0 73.225,19.668 73.225,43.933 z"
           style="fill:#ff9f00;fill-opacity:1;fill-rule:nonzero;stroke:#000000;stroke-width:2.19675708;stroke-linecap:butt;stroke-linejoin:miter;stroke-miterlimit:4;stroke-opacity:1;stroke-dasharray:none"
           id="path3161"
           inkscape:connector-curvature="0" /></g><g
         id="g3163"
         transform="matrix(1,0,0,-1,0,547.29852)"><path
           d="m 145.199,133.43 0,291.035"
           style="fill:none;stroke:#000000;stroke-width:2.4000001;stroke-linecap:butt;stroke-linejoin:miter;stroke-miterlimit:4;stroke-opacity:1;stroke-dasharray:14.4, 14.4;stroke-dashoffset:0"
           id="path3165"
           inkscape:connector-curvature="0" /></g><g
         id="g3167"
         transform="matrix(1,0,0,-1,0,547.29852)"><path
           d="m 257.199,129.82 0,291.032"
           style="fill:none;stroke:#000000;stroke-width:2.4000001;stroke-linecap:butt;stroke-linejoin:miter;stroke-miterlimit:4;stroke-opacity:1;stroke-dasharray:14.4, 14.4;stroke-dashoffset:0"
           id="path3169"
           inkscape:connector-curvature="0" /></g><text
         transform="matrix(1,0,0,-1,177.2,102.81978)"
         id="text3171"><tspan
           style="font-size:64px;font-variant:normal;font-weight:normal;writing-mode:lr-tb;fill:#000000;fill-opacity:1;fill-rule:nonzero;stroke:none;font-family:Arial;-inkscape-font-specification:Arial"
           x="0"
           y="0"
           id="tspan3173">A</tspan><tspan
           style="font-size:64px;font-variant:normal;font-weight:normal;writing-mode:lr-tb;fill:#000000;fill-opacity:1;fill-rule:nonzero;stroke:none;font-family:Arial;-inkscape-font-specification:Arial"
           x="-75.428612"
           y="57.142849"
           id="tspan3175">B</tspan></text>
<text
         transform="matrix(1,0,0,-1,299.40962,388.57141)"
         id="text3177"><tspan
           style="font-size:32px;font-variant:normal;font-weight:normal;writing-mode:lr-tb;fill:#00b600;fill-opacity:1;fill-rule:nonzero;stroke:none;font-family:Arial;-inkscape-font-specification:Arial"
           x="0 21.344 39.136002 49.824001 65.823997 83.648003 101.44 119.264"
           y="0"
           sodipodi:role="line"
           id="tspan3179">Personal</tspan></text>
<g
         id="g3181"
         transform="matrix(1,0,0,-1,0,547.29852)"><path
           d="m 301.879,158.727 0,-22.907 8.641,0 c 1.519,0.004 2.679,0.075 3.484,0.219 1.121,0.188 2.062,0.547 2.828,1.07 0.758,0.532 1.371,1.266 1.836,2.211 0.461,0.95 0.691,1.993 0.695,3.125 -0.004,1.95 -0.621,3.598 -1.859,4.946 -1.242,1.351 -3.484,2.027 -6.719,2.023 l -5.875,0 0,9.313 -3.031,0 z m 3.031,-12.016 5.922,0 c 1.953,0.004 3.344,-0.359 4.172,-1.094 0.82,-0.726 1.234,-1.754 1.234,-3.078 0,-0.957 -0.242,-1.777 -0.726,-2.461 -0.485,-0.68 -1.125,-1.129 -1.914,-1.351 -0.516,-0.133 -1.457,-0.204 -2.828,-0.204 l -5.86,0 0,8.188 z m 29.344,6.672 2.906,0.359 c -0.461,1.699 -1.308,3.016 -2.547,3.953 -1.242,0.938 -2.828,1.407 -4.75,1.407 -2.429,0 -4.351,-0.747 -5.773,-2.243 -1.422,-1.492 -2.133,-3.589 -2.133,-6.289 0,-2.789 0.719,-4.953 2.156,-6.5 1.438,-1.539 3.301,-2.312 5.594,-2.312 2.215,0 4.027,0.758 5.438,2.265 1.402,1.516 2.105,3.641 2.109,6.375 -0.004,0.172 -0.008,0.422 -0.016,0.75 l -12.375,0 c 0.102,1.829 0.617,3.223 1.547,4.188 0.926,0.973 2.082,1.457 3.469,1.453 1.031,0.004 1.91,-0.266 2.641,-0.812 0.726,-0.539 1.304,-1.407 1.734,-2.594 z m -9.234,-4.547 9.265,0 c -0.125,-1.395 -0.48,-2.441 -1.062,-3.141 -0.899,-1.082 -2.059,-1.621 -3.485,-1.625 -1.293,0.004 -2.379,0.434 -3.258,1.297 -0.882,0.867 -1.371,2.024 -1.46,3.469 z m 15.656,9.891 0,-16.594 2.531,0 0,2.515 c 0.645,-1.175 1.242,-1.953 1.789,-2.328 0.547,-0.375 1.149,-0.562 1.805,-0.562 0.945,0 1.906,0.305 2.89,0.906 l -0.968,2.609 c -0.688,-0.406 -1.375,-0.609 -2.063,-0.609 -0.617,0 -1.172,0.188 -1.656,0.555 -0.492,0.375 -0.84,0.886 -1.047,1.539 -0.316,1.004 -0.473,2.097 -0.469,3.281 l 0,8.688 -2.812,0 z m 9.594,-4.954 2.781,-0.437 c 0.152,1.117 0.586,1.973 1.304,2.562 0.711,0.598 1.711,0.895 2.993,0.891 1.289,0.004 2.246,-0.258 2.875,-0.789 0.621,-0.523 0.933,-1.141 0.937,-1.852 -0.004,-0.632 -0.281,-1.132 -0.828,-1.5 -0.391,-0.246 -1.348,-0.566 -2.875,-0.953 -2.066,-0.519 -3.496,-0.968 -4.289,-1.351 -0.801,-0.379 -1.406,-0.906 -1.813,-1.578 -0.414,-0.672 -0.617,-1.414 -0.617,-2.227 0,-0.738 0.168,-1.422 0.508,-2.055 0.336,-0.629 0.797,-1.152 1.383,-1.57 0.434,-0.32 1.031,-0.594 1.789,-0.82 0.754,-0.223 1.562,-0.336 2.43,-0.336 1.3,0 2.445,0.187 3.429,0.562 0.985,0.375 1.711,0.883 2.18,1.524 0.469,0.64 0.789,1.5 0.969,2.57 l -2.75,0.375 c -0.125,-0.851 -0.488,-1.519 -1.086,-2 -0.602,-0.476 -1.449,-0.715 -2.539,-0.719 -1.297,0.004 -2.219,0.215 -2.766,0.641 -0.555,0.43 -0.828,0.93 -0.828,1.5 0,0.367 0.113,0.695 0.344,0.984 0.226,0.305 0.586,0.555 1.078,0.75 0.277,0.106 1.105,0.348 2.484,0.719 1.989,0.535 3.375,0.969 4.164,1.305 0.782,0.34 1.399,0.832 1.852,1.476 0.445,0.649 0.672,1.45 0.672,2.407 0,0.937 -0.274,1.82 -0.821,2.648 -0.546,0.828 -1.335,1.469 -2.367,1.922 -1.031,0.453 -2.199,0.68 -3.5,0.68 -2.16,0 -3.804,-0.446 -4.929,-1.344 -1.133,-0.891 -1.852,-2.219 -2.164,-3.985 z m 16.078,-3.343 c -0.004,-3.071 0.851,-5.344 2.562,-6.828 1.426,-1.227 3.164,-1.844 5.219,-1.844 2.277,0 4.144,0.75 5.594,2.242 1.445,1.5 2.168,3.563 2.172,6.195 -0.004,2.137 -0.325,3.817 -0.961,5.039 -0.645,1.227 -1.579,2.18 -2.797,2.852 -1.227,0.68 -2.563,1.016 -4.008,1.016 -2.328,0 -4.203,-0.743 -5.633,-2.235 -1.433,-1.484 -2.152,-3.633 -2.148,-6.437 z m 2.89,0 c -0.004,2.125 0.461,3.718 1.391,4.773 0.926,1.063 2.09,1.59 3.5,1.586 1.391,0.004 2.555,-0.527 3.484,-1.594 0.926,-1.058 1.387,-2.679 1.391,-4.859 -0.004,-2.051 -0.469,-3.606 -1.399,-4.664 -0.933,-1.055 -2.093,-1.582 -3.476,-1.586 -1.41,0.004 -2.574,0.531 -3.5,1.578 -0.93,1.055 -1.395,2.641 -1.391,4.766 z m 15.969,8.297 0,-16.594 2.531,0 0,2.359 c 1.219,-1.82 2.977,-2.734 5.282,-2.734 0.996,0 1.918,0.18 2.757,0.539 0.836,0.359 1.461,0.832 1.883,1.414 0.414,0.586 0.707,1.277 0.875,2.078 0.102,0.524 0.153,1.438 0.156,2.734 l 0,10.204 -2.812,0 0,-10.094 c -0.004,-1.145 -0.113,-2 -0.328,-2.57 -0.223,-0.563 -0.61,-1.016 -1.164,-1.36 -0.559,-0.336 -1.211,-0.508 -1.961,-0.508 -1.199,0 -2.235,0.383 -3.102,1.141 -0.871,0.766 -1.304,2.207 -1.304,4.328 l 0,9.063 -2.813,0 z m 28.641,-2.047 c -1.043,0.89 -2.047,1.515 -3.008,1.875 -0.965,0.367 -2,0.547 -3.102,0.547 -1.828,0 -3.226,-0.446 -4.203,-1.336 -0.98,-0.891 -1.472,-2.028 -1.469,-3.414 -0.003,-0.809 0.184,-1.551 0.555,-2.227 0.367,-0.668 0.852,-1.207 1.453,-1.617 0.598,-0.403 1.27,-0.711 2.024,-0.922 0.547,-0.145 1.382,-0.285 2.5,-0.422 2.269,-0.269 3.941,-0.59 5.015,-0.969 0.008,-0.382 0.012,-0.629 0.016,-0.734 -0.004,-1.145 -0.27,-1.953 -0.797,-2.422 -0.723,-0.633 -1.789,-0.949 -3.203,-0.953 -1.324,0.004 -2.301,0.234 -2.93,0.695 -0.633,0.465 -1.101,1.285 -1.398,2.461 l -2.75,-0.375 c 0.25,-1.176 0.66,-2.125 1.234,-2.851 0.57,-0.723 1.399,-1.282 2.485,-1.672 1.082,-0.391 2.335,-0.586 3.765,-0.586 1.414,0 2.567,0.168 3.453,0.5 0.883,0.336 1.535,0.754 1.953,1.258 0.414,0.507 0.704,1.148 0.875,1.914 0.09,0.484 0.137,1.347 0.141,2.593 l 0,3.75 c -0.004,2.618 0.059,4.27 0.18,4.961 0.117,0.696 0.351,1.36 0.711,1.993 l -2.938,0 c -0.293,-0.582 -0.48,-1.262 -0.562,-2.047 z m -0.235,-6.282 c -1.023,0.422 -2.554,0.774 -4.593,1.063 -1.157,0.168 -1.977,0.355 -2.454,0.562 -0.484,0.211 -0.851,0.516 -1.109,0.915 -0.262,0.402 -0.394,0.847 -0.391,1.335 -0.003,0.75 0.282,1.375 0.852,1.875 0.566,0.5 1.398,0.75 2.492,0.75 1.082,0 2.043,-0.234 2.891,-0.71 0.84,-0.469 1.461,-1.118 1.859,-1.946 0.301,-0.633 0.453,-1.57 0.453,-2.812 l 0,-1.032 z m 7.157,8.329 0,-22.907 2.812,0 0,22.907 -2.812,0 z"
           style="fill:none;stroke:#00b600;stroke-width:0.80000001;stroke-linecap:butt;stroke-linejoin:miter;stroke-miterlimit:4;stroke-opacity:1;stroke-dasharray:none"
           id="path3183"
           inkscape:connector-curvature="0" /></g><text
         transform="matrix(1,0,0,-1,332.37837,348.57141)"
         id="text3185"><tspan
           style="font-size:32px;font-variant:normal;font-weight:normal;writing-mode:lr-tb;fill:#00b600;fill-opacity:1;fill-rule:nonzero;stroke:none;font-family:Arial;-inkscape-font-specification:Arial"
           x="0 17.792 35.584 51.584"
           y="0"
           sodipodi:role="line"
           id="tspan3187">best</tspan></text>
<g
         id="g3189"
         transform="matrix(1,0,0,-1,0,547.29852)"><path
           d="m 337.082,198.727 -2.609,0 0,-22.907 2.812,0 0,8.172 c 1.184,-1.488 2.699,-2.234 4.547,-2.234 1.016,0 1.984,0.207 2.898,0.617 0.911,0.414 1.661,0.992 2.25,1.734 0.586,0.746 1.047,1.645 1.383,2.696 0.332,1.054 0.496,2.179 0.5,3.375 -0.004,2.847 -0.707,5.047 -2.109,6.593 -1.41,1.555 -3.098,2.329 -5.063,2.329 -1.961,0 -3.496,-0.817 -4.609,-2.454 l 0,2.079 z m -0.031,-8.422 c -0.004,1.992 0.269,3.429 0.812,4.312 0.883,1.453 2.078,2.176 3.594,2.172 1.227,0.004 2.289,-0.531 3.188,-1.601 0.89,-1.067 1.339,-2.657 1.343,-4.774 -0.004,-2.164 -0.433,-3.762 -1.289,-4.797 -0.863,-1.027 -1.902,-1.543 -3.117,-1.547 -1.23,0.004 -2.293,0.535 -3.187,1.602 -0.899,1.07 -1.348,2.617 -1.344,4.633 z m 26.609,3.078 2.906,0.359 c -0.461,1.699 -1.308,3.016 -2.546,3.953 -1.243,0.938 -2.829,1.407 -4.75,1.407 -2.43,0 -4.352,-0.747 -5.774,-2.243 -1.422,-1.492 -2.133,-3.589 -2.133,-6.289 0,-2.789 0.719,-4.953 2.157,-6.5 1.437,-1.539 3.3,-2.312 5.593,-2.312 2.215,0 4.028,0.758 5.438,2.265 1.402,1.516 2.105,3.641 2.109,6.375 -0.004,0.172 -0.008,0.422 -0.015,0.75 l -12.375,0 c 0.101,1.829 0.617,3.223 1.546,4.188 0.926,0.973 2.082,1.457 3.469,1.453 1.031,0.004 1.91,-0.266 2.641,-0.812 0.726,-0.539 1.304,-1.407 1.734,-2.594 z m -9.234,-4.547 9.265,0 c -0.125,-1.395 -0.48,-2.441 -1.062,-3.141 -0.899,-1.082 -2.059,-1.621 -3.484,-1.625 -1.293,0.004 -2.379,0.434 -3.258,1.297 -0.883,0.867 -1.371,2.024 -1.461,3.469 z m 14.562,4.937 2.782,-0.437 c 0.152,1.117 0.585,1.973 1.304,2.562 0.711,0.598 1.711,0.895 2.992,0.891 1.289,0.004 2.247,-0.258 2.875,-0.789 0.622,-0.523 0.934,-1.141 0.938,-1.852 -0.004,-0.632 -0.281,-1.132 -0.828,-1.5 -0.391,-0.246 -1.348,-0.566 -2.875,-0.953 -2.067,-0.519 -3.496,-0.968 -4.289,-1.351 -0.801,-0.379 -1.407,-0.906 -1.813,-1.578 -0.414,-0.672 -0.617,-1.414 -0.617,-2.227 0,-0.738 0.168,-1.422 0.508,-2.055 0.336,-0.629 0.797,-1.152 1.383,-1.57 0.433,-0.32 1.031,-0.594 1.789,-0.82 0.754,-0.223 1.562,-0.336 2.429,-0.336 1.301,0 2.446,0.187 3.43,0.562 0.984,0.375 1.711,0.883 2.18,1.524 0.469,0.64 0.789,1.5 0.969,2.57 l -2.75,0.375 c -0.125,-0.851 -0.489,-1.519 -1.086,-2 -0.602,-0.476 -1.45,-0.715 -2.539,-0.719 -1.297,0.004 -2.219,0.215 -2.766,0.641 -0.555,0.43 -0.828,0.93 -0.828,1.5 0,0.367 0.113,0.695 0.344,0.984 0.226,0.305 0.585,0.555 1.078,0.75 0.277,0.106 1.105,0.348 2.484,0.719 1.988,0.535 3.375,0.969 4.164,1.305 0.781,0.34 1.399,0.832 1.852,1.476 0.445,0.649 0.672,1.45 0.672,2.407 0,0.937 -0.274,1.82 -0.821,2.648 -0.547,0.828 -1.336,1.469 -2.367,1.922 -1.031,0.453 -2.199,0.68 -3.5,0.68 -2.16,0 -3.805,-0.446 -4.93,-1.344 -1.132,-0.891 -1.851,-2.219 -2.164,-3.985 z m 23.266,2.438 0.406,2.484 c -0.797,0.168 -1.504,0.246 -2.125,0.25 -1.023,-0.004 -1.816,-0.16 -2.375,-0.484 -0.566,-0.32 -0.961,-0.746 -1.187,-1.273 -0.231,-0.524 -0.344,-1.629 -0.344,-3.321 l 0,-9.547 -2.063,0 0,-2.187 2.063,0 0,-4.11 2.797,-1.687 0,5.797 2.828,0 0,2.187 -2.828,0 0,9.703 c -0.004,0.805 0.047,1.321 0.148,1.547 0.098,0.231 0.258,0.414 0.485,0.547 0.218,0.141 0.539,0.207 0.961,0.203 0.308,0.004 0.722,-0.031 1.234,-0.109 z"
           style="fill:none;stroke:#00b600;stroke-width:0.80000001;stroke-linecap:butt;stroke-linejoin:miter;stroke-miterlimit:4;stroke-opacity:1;stroke-dasharray:none"
           id="path3191"
           inkscape:connector-curvature="0" /></g><text
         transform="matrix(1,0,0,-1,56.033484,523.42855)"
         id="text3193"><tspan
           style="font-size:32px;font-variant:normal;font-weight:normal;writing-mode:lr-tb;fill:#000000;fill-opacity:1;fill-rule:nonzero;stroke:none;font-family:Arial;-inkscape-font-specification:Arial"
           x="0 19.52 26.656 35.487999 53.312 71.103996 87.103996"
           y="0"
           sodipodi:role="line"
           id="tspan3195">Fitness</tspan><tspan
           style="font-size:32px;font-variant:normal;font-weight:normal;writing-mode:lr-tb;fill:#000000;fill-opacity:1;fill-rule:nonzero;stroke:none;font-family:Arial;-inkscape-font-specification:Arial"
           x="8.8750076 24.875008 42.667007 60.459007 76.459007"
           y="40"
           sodipodi:role="line"
           id="tspan3197">space</tspan><tspan
           style="font-size:32px;font-variant:normal;font-weight:normal;writing-mode:lr-tb;fill:#000000;fill-opacity:1;fill-rule:nonzero;stroke:none;font-family:Arial;-inkscape-font-specification:Arial"
           x="282.93637 304.2804 322.07239 329.20837 347.0004 355.86438 362.96838 380.79239"
           y="333.71429"
           sodipodi:role="line"
           id="tspan3199">Solution</tspan><tspan
           style="font-size:32px;font-variant:normal;font-weight:normal;writing-mode:lr-tb;fill:#000000;fill-opacity:1;fill-rule:nonzero;stroke:none;font-family:Arial;-inkscape-font-specification:Arial"
           x="298.09265 314.09265 331.88464 349.67664 365.67664"
           y="373.71429"
           sodipodi:role="line"
           id="tspan3201">space</tspan></text>
<g
         id="g3203"
         transform="matrix(1,0,0,-1,0,547.29852)"><path
           d="m 2.773,42.156 320,0"
           style="fill:none;stroke:#0000ff;stroke-width:2.4000001;stroke-linecap:butt;stroke-linejoin:miter;stroke-miterlimit:4;stroke-opacity:1;stroke-dasharray:9.6, 9.6;stroke-dashoffset:0"
           id="path3205"
           inkscape:connector-curvature="0" /></g><text
         transform="matrix(1,0,0,-1,335.65254,506.45535)"
         id="text3207"><tspan
           style="font-size:32px;font-variant:normal;font-weight:normal;writing-mode:lr-tb;fill:#0000ff;fill-opacity:1;fill-rule:nonzero;stroke:none;font-family:Arial;-inkscape-font-specification:Arial"
           x="0 24.864 31.968 49.759998 67.584 85.375999"
           y="0"
           sodipodi:role="line"
           id="tspan3209">Global</tspan></text>
<g
         id="g3211"
         transform="matrix(1,0,0,-1,0,547.29852)"><path
           d="m 348.84,31.859 0,-2.687 9.703,-0.016 0,8.5 c -1.492,1.188 -3.027,2.082 -4.609,2.68 -1.586,0.598 -3.211,0.894 -4.875,0.898 -2.25,-0.004 -4.297,-0.484 -6.133,-1.445 -1.844,-0.961 -3.231,-2.351 -4.164,-4.18 -0.942,-1.82 -1.41,-3.859 -1.407,-6.109 -0.003,-2.227 0.461,-4.305 1.399,-6.242 0.93,-1.93 2.273,-3.367 4.023,-4.305 1.75,-0.937 3.766,-1.406 6.047,-1.406 1.656,0 3.153,0.269 4.492,0.805 1.336,0.539 2.387,1.285 3.149,2.242 0.758,0.961 1.336,2.211 1.734,3.75 l -2.734,0.75 c -0.348,-1.164 -0.774,-2.078 -1.281,-2.75 -0.512,-0.664 -1.243,-1.199 -2.188,-1.602 -0.953,-0.398 -2.004,-0.597 -3.156,-0.601 -1.387,0.004 -2.586,0.214 -3.594,0.632 -1.016,0.426 -1.828,0.981 -2.445,1.665 -0.621,0.691 -1.106,1.445 -1.446,2.265 -0.585,1.418 -0.875,2.953 -0.875,4.61 0,2.042 0.352,3.753 1.055,5.125 0.703,1.378 1.727,2.398 3.07,3.062 1.344,0.668 2.77,1 4.282,1 1.308,0 2.59,-0.25 3.843,-0.758 1.247,-0.5 2.196,-1.039 2.844,-1.617 l 0,-4.266 -6.734,0 z m 13.734,8.985 0,-22.906 2.813,0 0,22.906 -2.813,0 z m 6.141,-8.297 c -0.004,-3.07 0.851,-5.344 2.562,-6.828 1.426,-1.227 3.164,-1.844 5.219,-1.844 2.277,0 4.145,0.75 5.594,2.242 1.445,1.5 2.168,3.563 2.172,6.196 -0.004,2.136 -0.324,3.816 -0.961,5.039 -0.645,1.226 -1.578,2.179 -2.797,2.851 -1.227,0.68 -2.563,1.016 -4.008,1.016 -2.328,0 -4.203,-0.742 -5.633,-2.235 -1.433,-1.484 -2.152,-3.632 -2.148,-6.437 z m 2.89,0 c -0.003,2.125 0.461,3.719 1.391,4.773 0.926,1.063 2.09,1.59 3.5,1.586 1.391,0.004 2.555,-0.527 3.484,-1.593 0.926,-1.059 1.387,-2.68 1.391,-4.86 -0.004,-2.051 -0.469,-3.605 -1.398,-4.664 -0.934,-1.055 -2.094,-1.582 -3.477,-1.586 -1.41,0.004 -2.574,0.531 -3.5,1.578 -0.93,1.055 -1.394,2.641 -1.391,4.766 z m 18.563,8.297 -2.609,0 0,-22.906 2.812,0 0,8.171 c 1.184,-1.488 2.699,-2.234 4.547,-2.234 1.016,0 1.984,0.207 2.898,0.617 0.911,0.414 1.661,0.992 2.25,1.735 0.586,0.746 1.047,1.644 1.383,2.695 0.332,1.055 0.496,2.18 0.5,3.375 -0.004,2.848 -0.707,5.047 -2.109,6.594 -1.41,1.554 -3.098,2.328 -5.063,2.328 -1.961,0 -3.496,-0.817 -4.609,-2.453 l 0,2.078 z m -0.031,-8.422 c -0.004,1.992 0.269,3.43 0.812,4.312 0.883,1.454 2.078,2.176 3.594,2.172 1.227,0.004 2.289,-0.531 3.187,-1.601 0.891,-1.067 1.34,-2.657 1.344,-4.774 -0.004,-2.164 -0.433,-3.761 -1.289,-4.797 -0.863,-1.027 -1.902,-1.543 -3.117,-1.546 -1.23,0.003 -2.293,0.535 -3.188,1.601 -0.898,1.07 -1.347,2.617 -1.343,4.633 z m 26.078,6.375 c -1.043,0.891 -2.047,1.516 -3.008,1.875 -0.965,0.367 -2,0.547 -3.102,0.547 -1.828,0 -3.226,-0.446 -4.203,-1.336 -0.98,-0.891 -1.472,-2.028 -1.468,-3.414 -0.004,-0.809 0.183,-1.551 0.554,-2.227 0.367,-0.668 0.852,-1.207 1.453,-1.617 0.598,-0.402 1.27,-0.711 2.024,-0.922 0.547,-0.144 1.383,-0.285 2.5,-0.422 2.269,-0.269 3.941,-0.59 5.015,-0.968 0.008,-0.383 0.012,-0.629 0.016,-0.735 -0.004,-1.144 -0.269,-1.953 -0.797,-2.422 -0.722,-0.633 -1.789,-0.949 -3.203,-0.953 -1.324,0.004 -2.301,0.235 -2.93,0.695 -0.632,0.465 -1.101,1.286 -1.398,2.461 l -2.75,-0.375 c 0.25,-1.175 0.66,-2.125 1.234,-2.851 0.571,-0.723 1.399,-1.281 2.485,-1.672 1.082,-0.391 2.336,-0.586 3.765,-0.586 1.414,0 2.567,0.168 3.453,0.5 0.883,0.336 1.536,0.754 1.954,1.258 0.414,0.508 0.703,1.148 0.875,1.914 0.089,0.484 0.136,1.348 0.14,2.594 l 0,3.75 c -0.004,2.617 0.059,4.269 0.18,4.961 0.117,0.695 0.351,1.359 0.711,1.992 l -2.938,0 c -0.293,-0.582 -0.48,-1.262 -0.562,-2.047 z m -0.235,-6.281 c -1.023,0.422 -2.554,0.773 -4.593,1.062 -1.157,0.168 -1.977,0.356 -2.453,0.563 -0.485,0.211 -0.852,0.515 -1.11,0.914 -0.261,0.402 -0.394,0.847 -0.39,1.336 -0.004,0.75 0.281,1.375 0.851,1.875 0.567,0.5 1.399,0.75 2.492,0.75 1.082,0 2.043,-0.235 2.891,-0.711 0.84,-0.469 1.461,-1.117 1.859,-1.946 0.301,-0.632 0.453,-1.57 0.453,-2.812 l 0,-1.031 z m 7.157,8.328 0,-22.906 2.812,0 0,22.906 -2.812,0 z"
           style="fill:none;stroke:#0000ff;stroke-width:0.80000001;stroke-linecap:butt;stroke-linejoin:miter;stroke-miterlimit:4;stroke-opacity:1;stroke-dasharray:none"
           id="path3213"
           inkscape:connector-curvature="0" /></g><text
         transform="matrix(1,0,0,-1,351.68379,466.45535)"
         id="text3215"><tspan
           style="font-size:32px;font-variant:normal;font-weight:normal;writing-mode:lr-tb;fill:#0000ff;fill-opacity:1;fill-rule:nonzero;stroke:none;font-family:Arial;-inkscape-font-specification:Arial"
           x="0 17.792 35.584 51.584"
           y="0"
           sodipodi:role="line"
           id="tspan3217">best</tspan></text>
<g
         id="g3219"
         transform="matrix(1,0,0,-1,0,547.29852)"><path
           d="m 356.387,80.844 -2.61,0 0,-22.906 2.813,0 0,8.171 c 1.183,-1.488 2.699,-2.234 4.547,-2.234 1.015,0 1.984,0.207 2.898,0.617 0.91,0.414 1.66,0.992 2.25,1.735 0.586,0.746 1.047,1.644 1.383,2.695 0.332,1.055 0.496,2.18 0.5,3.375 -0.004,2.848 -0.707,5.047 -2.109,6.594 -1.411,1.554 -3.098,2.328 -5.063,2.328 -1.961,0 -3.496,-0.817 -4.609,-2.453 l 0,2.078 z m -0.032,-8.422 c -0.003,1.992 0.27,3.43 0.813,4.312 0.883,1.454 2.078,2.176 3.594,2.172 1.226,0.004 2.289,-0.531 3.187,-1.601 0.891,-1.067 1.34,-2.657 1.344,-4.774 -0.004,-2.164 -0.434,-3.761 -1.289,-4.797 -0.863,-1.027 -1.902,-1.543 -3.117,-1.546 -1.231,0.003 -2.293,0.535 -3.188,1.601 -0.898,1.07 -1.347,2.617 -1.344,4.633 z m 26.61,3.078 2.906,0.359 c -0.461,1.7 -1.308,3.016 -2.547,3.954 -1.242,0.937 -2.828,1.406 -4.75,1.406 -2.429,0 -4.351,-0.746 -5.773,-2.242 -1.422,-1.493 -2.133,-3.59 -2.133,-6.289 0,-2.79 0.719,-4.954 2.156,-6.5 1.438,-1.54 3.301,-2.313 5.594,-2.313 2.215,0 4.027,0.758 5.437,2.266 1.403,1.515 2.106,3.64 2.11,6.375 -0.004,0.172 -0.008,0.422 -0.016,0.75 l -12.375,0 c 0.102,1.828 0.617,3.222 1.547,4.187 0.926,0.973 2.082,1.457 3.469,1.453 1.031,0.004 1.91,-0.265 2.64,-0.812 0.727,-0.539 1.305,-1.406 1.735,-2.594 z m -9.235,-4.547 9.266,0 c -0.125,-1.394 -0.48,-2.441 -1.062,-3.14 -0.899,-1.083 -2.059,-1.622 -3.485,-1.625 -1.293,0.003 -2.379,0.433 -3.258,1.296 -0.882,0.868 -1.371,2.024 -1.461,3.469 z m 14.563,4.938 2.781,-0.438 c 0.153,1.117 0.586,1.973 1.305,2.563 0.711,0.597 1.711,0.894 2.992,0.89 1.289,0.004 2.246,-0.258 2.875,-0.789 0.621,-0.523 0.934,-1.14 0.938,-1.851 -0.004,-0.633 -0.282,-1.133 -0.829,-1.5 -0.39,-0.246 -1.347,-0.567 -2.875,-0.953 -2.066,-0.52 -3.496,-0.969 -4.289,-1.352 -0.8,-0.379 -1.406,-0.906 -1.812,-1.578 -0.414,-0.672 -0.617,-1.414 -0.617,-2.227 0,-0.738 0.168,-1.422 0.508,-2.054 0.335,-0.629 0.796,-1.153 1.382,-1.571 0.434,-0.32 1.032,-0.593 1.789,-0.82 0.754,-0.223 1.563,-0.336 2.43,-0.336 1.301,0 2.445,0.188 3.43,0.563 0.984,0.375 1.711,0.882 2.179,1.523 0.469,0.641 0.79,1.5 0.969,2.57 l -2.75,0.375 c -0.125,-0.851 -0.488,-1.519 -1.086,-2 -0.601,-0.476 -1.449,-0.715 -2.539,-0.718 -1.297,0.003 -2.219,0.214 -2.765,0.64 -0.555,0.43 -0.829,0.93 -0.829,1.5 0,0.367 0.114,0.695 0.344,0.985 0.227,0.304 0.586,0.554 1.078,0.75 0.278,0.105 1.106,0.347 2.485,0.718 1.988,0.535 3.375,0.969 4.164,1.305 0.781,0.34 1.398,0.832 1.851,1.477 0.446,0.648 0.672,1.449 0.672,2.406 0,0.937 -0.273,1.82 -0.82,2.648 -0.547,0.828 -1.336,1.469 -2.367,1.922 -1.032,0.453 -2.199,0.68 -3.5,0.68 -2.16,0 -3.805,-0.446 -4.93,-1.344 -1.133,-0.891 -1.852,-2.219 -2.164,-3.984 z m 23.266,2.437 0.406,2.485 c -0.797,0.167 -1.504,0.246 -2.125,0.25 -1.024,-0.004 -1.817,-0.161 -2.375,-0.485 -0.567,-0.32 -0.961,-0.746 -1.188,-1.273 -0.23,-0.524 -0.343,-1.629 -0.343,-3.321 l 0,-9.546 -2.063,0 0,-2.188 2.063,0 0,-4.109 2.796,-1.688 0,5.797 2.829,0 0,2.188 -2.829,0 0,9.703 c -0.003,0.804 0.047,1.32 0.149,1.547 0.098,0.23 0.258,0.414 0.484,0.546 0.219,0.141 0.539,0.207 0.961,0.204 0.309,0.003 0.723,-0.032 1.235,-0.11 z"
           style="fill:none;stroke:#0000ff;stroke-width:0.80000001;stroke-linecap:butt;stroke-linejoin:miter;stroke-miterlimit:4;stroke-opacity:1;stroke-dasharray:none"
           id="path3221"
           inkscape:connector-curvature="0" /></g><path
         d="m 440.844,344.353 145.973,0 0,-32 -145.973,0 0,32 z"
         style="fill:#ff9f00;fill-opacity:1;fill-rule:evenodd;stroke:none"
         id="path3223"
         inkscape:connector-curvature="0" /><path
         d="m 438.813,283.424 145.973,0 0,-32 -145.973,0 0,32 z"
         style="fill:#fffe00;fill-opacity:1;fill-rule:evenodd;stroke:none"
         id="path3225"
         inkscape:connector-curvature="0" /><path
         d="m 623.074,279.447 3.442,0 c 0.8,0 1.199,0 1.199,0.762 0,0.437 -0.399,0.437 -1.078,0.437 l -3.321,0 0.84,4.563 c 0.16,0.84 0.719,3.679 0.957,4.117 0.364,0.762 1.043,1.359 1.883,1.359 0.16,0 1.199,0 1.961,-0.719 -1.762,-0.16 -2.16,-1.558 -2.16,-2.121 0,-0.918 0.719,-1.398 1.476,-1.398 1.043,0 2.161,0.879 2.161,2.398 0,1.801 -1.797,2.723 -3.438,2.723 -1.359,0 -3.883,-0.723 -5.082,-4.641 -0.238,-0.839 -0.359,-1.242 -1.32,-6.281 l -2.719,0 c -0.762,0 -1.199,0 -1.199,-0.758 0,-0.441 0.32,-0.441 1.078,-0.441 l 2.641,0 -2.961,-15.762 c -0.758,-3.84 -1.399,-7.476 -3.477,-7.476 -0.16,0 -1.16,0 -1.922,0.718 1.84,0.122 2.199,1.559 2.199,2.161 0,0.918 -0.718,1.398 -1.48,1.398 -1.039,0 -2.199,-0.879 -2.199,-2.398 0,-1.801 1.761,-2.719 3.402,-2.719 2.199,0 3.797,2.316 4.477,3.84 1.281,2.519 2.203,7.316 2.242,7.597 l 2.398,12.641 z"
         style="fill:#000000;fill-opacity:1;fill-rule:nonzero;stroke:none"
         id="path3227"
         inkscape:connector-curvature="0" /><path
         d="m 645.434,253.966 0,0 0,0.04 0,0 0,0 0,0.043 0,0 0,0 0,0.039 0,0 -0.039,0 0,0.039 0,0 -0.04,0.039 0,0 0,0.043 -0.039,0.039 0,0 -0.043,0.039 0,0 -0.039,0.039 0,0 0,0.043 -0.039,0 0,0 -0.039,0.039 0,0 0,0.039 -0.043,0 0,0.039 -0.039,0 0,0.039 -0.039,0.043 -0.039,0 0,0.039 -0.039,0 0,0.039 -0.043,0.039 -0.039,0.043 -0.039,0 0,0.039 -0.039,0.039 -0.043,0.039 c -4.957,5 -6.238,12.524 -6.238,18.602 0,6.922 1.519,13.879 6.398,18.84 0.52,0.48 0.52,0.558 0.52,0.679 0,0.282 -0.161,0.403 -0.399,0.403 -0.398,0 -3.961,-2.723 -6.32,-7.762 -2.039,-4.398 -2.52,-8.801 -2.52,-12.16 0,-3.078 0.442,-7.922 2.641,-12.398 2.398,-4.922 5.801,-7.481 6.199,-7.481 0.238,0 0.399,0.117 0.399,0.398 z"
         style="fill:#000000;fill-opacity:1;fill-rule:nonzero;stroke:none"
         id="path3229"
         inkscape:connector-curvature="0" /><path
         d="m 661.074,275.525 0,0.121 0.039,0.121 0.043,0.121 0.039,0.161 0.039,0.117 0.039,0.203 0.043,0.156 0.079,0.16 0.039,0.203 0.082,0.2 0.078,0.199 0.082,0.199 0.078,0.199 0.121,0.203 0.082,0.2 0.117,0.16 0.121,0.199 0.121,0.199 0.118,0.199 0.16,0.161 0.16,0.16 0.16,0.16 0.16,0.16 0.16,0.16 0.2,0.121 0.203,0.121 0.078,0.039 0.121,0.039 0.078,0.083 0.121,0.039 0.121,0 0.117,0.039 0.122,0.039 0.121,0 0.121,0.043 0.117,0 0.121,0 0.121,0 c 0.199,0 1.16,0 2,-0.481 -1.121,-0.203 -1.922,-1.203 -1.922,-2.16 0,-0.641 0.442,-1.402 1.52,-1.402 0.883,0 2.16,0.722 2.16,2.32 0,2.082 -2.359,2.602 -3.719,2.602 -2.32,0 -3.719,-2.082 -4.16,-3 -1,2.597 -3.16,3 -4.32,3 -4.16,0 -6.442,-5.122 -6.442,-6.122 0,-0.398 0.403,-0.398 0.481,-0.398 0.32,0 0.441,0.078 0.519,0.438 1.364,4.242 4,5.203 5.364,5.203 0.757,0 2.16,-0.321 2.16,-2.641 0,-1.242 -0.68,-3.922 -2.16,-9.48 -0.641,-2.481 -2.043,-4.161 -3.801,-4.161 -0.242,0 -1.16,0 -2,0.52 1,0.199 1.879,1.039 1.879,2.16 0,1.078 -0.879,1.399 -1.481,1.399 -1.199,0 -2.199,-1.04 -2.199,-2.321 0,-1.797 2,-2.597 3.762,-2.597 2.636,0 4.078,2.757 4.199,3 0.48,-1.481 1.918,-3 4.277,-3 4.121,0 6.403,5.121 6.403,6.121 0,0.398 -0.36,0.398 -0.481,0.398 -0.359,0 -0.441,-0.16 -0.519,-0.441 -1.321,-4.278 -4.039,-5.239 -5.282,-5.239 -1.558,0 -2.199,1.282 -2.199,2.641 0,0.879 0.238,1.758 0.68,3.52 l 1.359,5.437 z"
         style="fill:#000000;fill-opacity:1;fill-rule:nonzero;stroke:none"
         id="path3231"
         inkscape:connector-curvature="0" /><path
         d="m 682.035,273.447 0,0.32 0,0.282 0,0.32 0,0.316 -0.039,0.684 -0.039,0.719 -0.082,0.718 -0.078,0.762 -0.121,0.801 -0.121,0.758 -0.16,0.839 -0.2,0.84 -0.199,0.84 -0.242,0.84 -0.277,0.84 -0.321,0.84 -0.16,0.441 -0.199,0.442 -0.203,0.398 -0.199,0.441 c -2.399,4.879 -5.801,7.481 -6.2,7.481 -0.238,0 -0.398,-0.16 -0.398,-0.403 0,-0.121 0,-0.199 0.758,-0.917 3.879,-3.922 6.16,-10.282 6.16,-18.602 0,-6.801 -1.481,-13.801 -6.399,-18.801 -0.519,-0.48 -0.519,-0.558 -0.519,-0.68 0,-0.238 0.16,-0.398 0.398,-0.398 0.399,0 4,2.68 6.321,7.758 2.039,4.359 2.519,8.801 2.519,12.121 z"
         style="fill:#000000;fill-opacity:1;fill-rule:nonzero;stroke:none"
         id="path3233"
         inkscape:connector-curvature="0" /><path
         d="m 723.996,283.326 0.039,0.043 0.039,0 0.039,0.039 0.043,0 0.039,0.039 0.039,0 0.039,0.039 0.043,0.039 0.039,0 0.04,0.043 0.039,0 0,0.039 0.043,0 0.039,0.039 0,0.039 0.039,0 0.039,0.043 0,0.039 0.043,0 0,0.039 0.039,0.039 0,0 0,0.043 0.039,0.039 0,0.039 0,0 0,0.04 0.039,0.043 0,0.039 0,0.039 0,0.039 0,0.043 c 0,0.437 -0.359,0.797 -0.797,0.797 -0.121,0 -0.203,0 -0.723,-0.278 l -22.078,-10.402 c -0.441,-0.199 -0.761,-0.399 -0.761,-0.879 0,-0.481 0.32,-0.68 0.761,-0.879 l 22.078,-10.359 c 0.52,-0.282 0.602,-0.282 0.723,-0.282 0.438,0 0.797,0.36 0.797,0.801 0,0.399 -0.277,0.641 -0.758,0.879 l -20.922,9.84 20.922,9.879 z"
         style="fill:#000000;fill-opacity:1;fill-rule:nonzero;stroke:none"
         id="path3235"
         inkscape:connector-curvature="0" /><path
         d="m 753.797,279.447 3.437,0 c 0.801,0 1.161,0 1.161,0.762 0,0.437 -0.36,0.437 -1.04,0.437 l -3.32,0 0.84,4.563 c 0.16,0.84 0.719,3.679 0.961,4.117 0.359,0.762 1.039,1.359 1.879,1.359 0.16,0 1.199,0 1.922,-0.719 -1.723,-0.16 -2.121,-1.558 -2.121,-2.121 0,-0.918 0.718,-1.398 1.48,-1.398 1,0 2.16,0.879 2.16,2.398 0,1.801 -1.84,2.723 -3.441,2.723 -1.36,0 -3.879,-0.723 -5.078,-4.641 -0.242,-0.839 -0.364,-1.242 -1.321,-6.281 l -2.761,0 c -0.758,0 -1.2,0 -1.2,-0.758 0,-0.441 0.36,-0.441 1.122,-0.441 l 2.636,0 -3,-15.762 c -0.718,-3.84 -1.398,-7.476 -3.437,-7.476 -0.16,0 -1.16,0 -1.922,0.718 1.84,0.122 2.203,1.559 2.203,2.161 0,0.918 -0.723,1.398 -1.48,1.398 -1.043,0 -2.204,-0.879 -2.204,-2.398 0,-1.801 1.762,-2.719 3.403,-2.719 2.16,0 3.758,2.316 4.48,3.84 1.278,2.519 2.199,7.316 2.239,7.597 l 2.402,12.641 z"
         style="fill:#000000;fill-opacity:1;fill-rule:nonzero;stroke:none"
         id="path3237"
         inkscape:connector-curvature="0" /><path
         d="m 776.156,253.966 0,0 0,0.04 0,0 0,0 0,0.043 0,0 -0.043,0 0,0.039 0,0 0,0 0,0.039 -0.039,0 0,0.039 0,0 -0.039,0.043 0,0.039 -0.039,0 0,0.039 -0.039,0 0,0.039 0,0 -0.043,0.043 0,0 -0.039,0 0,0.039 0,0 -0.039,0.039 0,0 -0.039,0.039 0,0 -0.043,0.039 0,0.043 -0.039,0 -0.039,0.039 0,0 -0.039,0.039 -0.043,0.039 0,0.043 -0.039,0 -0.039,0.039 0,0.039 -0.039,0.039 c -5,5 -6.282,12.524 -6.282,18.602 0,6.922 1.52,13.879 6.442,18.84 0.519,0.48 0.519,0.558 0.519,0.679 0,0.282 -0.16,0.403 -0.402,0.403 -0.399,0 -4,-2.723 -6.359,-7.762 -2.04,-4.398 -2.481,-8.801 -2.481,-12.16 0,-3.078 0.402,-7.922 2.602,-12.398 2.398,-4.922 5.839,-7.481 6.238,-7.481 0.242,0 0.402,0.117 0.402,0.398 z"
         style="fill:#000000;fill-opacity:1;fill-rule:nonzero;stroke:none"
         id="path3239"
         inkscape:connector-curvature="0" /><path
         d="m 791.754,275.525 0.043,0.121 0,0.121 0.039,0.121 0.039,0.161 0.039,0.117 0.043,0.203 0.078,0.156 0.039,0.16 0.082,0.203 0.078,0.2 0.039,0.199 0.122,0.199 0.082,0.199 0.078,0.203 0.121,0.2 0.121,0.16 0.078,0.199 0.16,0.199 0.121,0.199 0.117,0.161 0.161,0.16 0.16,0.16 0.16,0.16 0.203,0.16 0.156,0.121 0.203,0.121 0.118,0.039 0.082,0.039 0.121,0.083 0.117,0.039 0.121,0 0.082,0.039 0.117,0.039 0.121,0 0.121,0.043 0.118,0 0.16,0 0.121,0 c 0.199,0 1.16,0 2,-0.481 -1.121,-0.203 -1.918,-1.203 -1.918,-2.16 0,-0.641 0.437,-1.402 1.519,-1.402 0.879,0 2.118,0.722 2.118,2.32 0,2.082 -2.321,2.602 -3.68,2.602 -2.32,0 -3.719,-2.082 -4.199,-3 -1,2.597 -3.16,3 -4.282,3 -4.16,0 -6.437,-5.122 -6.437,-6.122 0,-0.398 0.398,-0.398 0.48,-0.398 0.321,0 0.438,0.078 0.52,0.438 1.359,4.242 4,5.203 5.32,5.203 0.758,0 2.16,-0.321 2.16,-2.641 0,-1.242 -0.679,-3.922 -2.16,-9.48 -0.601,-2.481 -2,-4.161 -3.761,-4.161 -0.239,0 -1.161,0 -2,0.52 1,0.199 1.878,1.039 1.878,2.16 0,1.078 -0.878,1.399 -1.476,1.399 -1.203,0 -2.203,-1.04 -2.203,-2.321 0,-1.797 2,-2.597 3.761,-2.597 2.641,0 4.04,2.757 4.161,3 0.48,-1.481 1.918,-3 4.32,-3 4.121,0 6.398,5.121 6.398,6.121 0,0.398 -0.359,0.398 -0.48,0.398 -0.359,0 -0.438,-0.16 -0.52,-0.441 -1.32,-4.278 -4.039,-5.239 -5.32,-5.239 -1.559,0 -2.199,1.282 -2.199,2.641 0,0.879 0.242,1.758 0.68,3.52 l 1.359,5.437 z"
         style="fill:#000000;fill-opacity:1;fill-rule:nonzero;stroke:none"
         id="path3241"
         inkscape:connector-curvature="0" /><path
         d="m 810.715,286.607 0.121,0.879 1.879,7.52 c 0.242,0.882 0.281,0.96 1.441,0.96 l 3.239,0 c 2.601,0 4.199,-0.8 4.199,-2.757 0,-0.84 -0.321,-3.043 -1.719,-4.321 -1,-0.882 -2.602,-1.402 -4.602,-1.402 l -4.437,0 -0.121,-0.879 5.039,0 c 4.723,0 8.68,3 8.68,6 0,2.359 -2.278,4.359 -6.079,4.359 l -9.761,0 c -0.559,0 -0.879,0 -0.879,-0.597 0,-0.403 0.32,-0.403 0.922,-0.403 0.437,0 0.558,0 1.039,-0.078 0.558,-0.043 0.64,-0.082 0.64,-0.363 0,-0.078 0,-0.199 -0.121,-0.637 l -3.679,-14.64 c -0.282,-1.082 -0.321,-1.282 -2.481,-1.282 -0.519,0 -0.84,0 -0.84,-0.597 0,-0.043 0,-0.403 0.442,-0.403 0.797,0 2.797,0.122 3.636,0.122 0.481,0 1.442,0 1.922,-0.039 0.559,-0.043 1.239,-0.083 1.762,-0.083 0.199,0 0.598,0 0.598,0.602 0,0.398 -0.321,0.398 -0.879,0.398 -0.039,0 -0.563,0 -1.082,0.04 -0.637,0.082 -0.637,0.16 -0.637,0.441 0,0 0,0.199 0.117,0.602 l 1.641,6.558 z"
         style="fill:#000000;fill-opacity:1;fill-rule:nonzero;stroke:none"
         id="path3243"
         inkscape:connector-curvature="0" /><path
         d="m 839.316,273.447 0,0.32 0,0.282 0,0.32 -0.043,0.316 0,0.684 -0.078,0.719 -0.039,0.718 -0.082,0.762 -0.117,0.801 -0.121,0.758 -0.16,0.839 -0.199,0.84 -0.204,0.84 -0.238,0.84 -0.281,0.84 -0.32,0.84 -0.2,0.441 -0.16,0.442 -0.199,0.398 -0.199,0.441 c -2.403,4.879 -5.801,7.481 -6.199,7.481 -0.243,0 -0.403,-0.16 -0.403,-0.403 0,-0.121 0,-0.199 0.762,-0.917 3.879,-3.922 6.16,-10.282 6.16,-18.602 0,-6.801 -1.48,-13.801 -6.402,-18.801 -0.52,-0.48 -0.52,-0.558 -0.52,-0.68 0,-0.238 0.16,-0.398 0.403,-0.398 0.398,0 3.957,2.68 6.32,7.758 2.039,4.359 2.519,8.801 2.519,12.121 z"
         style="fill:#000000;fill-opacity:1;fill-rule:nonzero;stroke:none"
         id="path3245"
         inkscape:connector-curvature="0" /><path
         d="m 625.105,332.252 3.442,0 c 0.801,0 1.199,0 1.199,0.761 0,0.442 -0.398,0.442 -1.078,0.442 l -3.32,0 0.84,4.558 c 0.16,0.84 0.718,3.68 0.957,4.121 0.363,0.758 1.043,1.36 1.882,1.36 0.161,0 1.2,0 1.957,-0.719 -1.757,-0.16 -2.156,-1.562 -2.156,-2.121 0,-0.922 0.719,-1.402 1.477,-1.402 1.043,0 2.16,0.882 2.16,2.402 0,1.801 -1.797,2.719 -3.438,2.719 -1.359,0 -3.882,-0.719 -5.082,-4.641 -0.238,-0.84 -0.359,-1.238 -1.32,-6.277 l -2.719,0 c -0.761,0 -1.199,0 -1.199,-0.762 0,-0.441 0.32,-0.441 1.078,-0.441 l 2.641,0 -2.961,-15.758 c -0.758,-3.84 -1.399,-7.481 -3.481,-7.481 -0.156,0 -1.156,0 -1.918,0.719 1.84,0.121 2.2,1.563 2.2,2.16 0,0.922 -0.719,1.403 -1.481,1.403 -1.039,0 -2.199,-0.883 -2.199,-2.403 0,-1.801 1.762,-2.718 3.398,-2.718 2.204,0 3.801,2.32 4.481,3.839 1.281,2.52 2.203,7.321 2.242,7.602 l 2.398,12.637 z"
         style="fill:#000000;fill-opacity:1;fill-rule:nonzero;stroke:none"
         id="path3247"
         inkscape:connector-curvature="0" /><path
         d="m 647.465,306.775 0,0 0,0.039 0,0 0,0 0,0.039 0,0 0,0 0,0.039 0,0 -0.039,0 0,0.039 0,0 -0.039,0.043 0,0 0,0.039 -0.039,0.039 0,0 -0.043,0.039 0,0 -0.039,0.043 0,0 0,0.04 -0.039,0 0,0 -0.039,0.039 0,0 0,0.039 -0.043,0 0,0.043 -0.04,0 0,0.039 -0.039,0.039 -0.039,0 0,0.039 -0.043,0 0,0.043 -0.039,0.039 -0.039,0.039 -0.039,0 0,0.039 -0.039,0.043 -0.043,0.039 c -4.957,5 -6.238,12.52 -6.238,18.598 0,6.922 1.519,13.882 6.398,18.839 0.52,0.481 0.52,0.563 0.52,0.684 0,0.277 -0.16,0.399 -0.399,0.399 -0.398,0 -3.961,-2.719 -6.32,-7.762 -2.039,-4.399 -2.519,-8.797 -2.519,-12.16 0,-3.078 0.441,-7.918 2.64,-12.399 2.399,-4.922 5.801,-7.48 6.199,-7.48 0.239,0 0.399,0.121 0.399,0.402 z"
         style="fill:#000000;fill-opacity:1;fill-rule:nonzero;stroke:none"
         id="path3249"
         inkscape:connector-curvature="0" /><path
         d="m 663.105,328.334 0,0.121 0.04,0.117 0.043,0.121 0.039,0.16 0.039,0.121 0.039,0.2 0.043,0.16 0.078,0.16 0.039,0.199 0.082,0.199 0.078,0.199 0.082,0.204 0.078,0.199 0.121,0.199 0.078,0.199 0.121,0.16 0.122,0.2 0.121,0.203 0.117,0.199 0.16,0.16 0.16,0.16 0.16,0.16 0.16,0.161 0.161,0.16 0.199,0.117 0.203,0.121 0.078,0.039 0.121,0.043 0.078,0.078 0.121,0.039 0.122,0 0.117,0.039 0.121,0.043 0.121,0 0.121,0.039 0.117,0 0.121,0 0.121,0 c 0.2,0 1.161,0 2,-0.48 -1.121,-0.199 -1.922,-1.199 -1.922,-2.16 0,-0.641 0.442,-1.399 1.52,-1.399 0.883,0 2.16,0.719 2.16,2.321 0,2.078 -2.359,2.597 -3.719,2.597 -2.32,0 -3.718,-2.078 -4.16,-3 -1,2.602 -3.16,3 -4.32,3 -4.16,0 -6.441,-5.117 -6.441,-6.117 0,-0.402 0.402,-0.402 0.48,-0.402 0.32,0 0.441,0.082 0.52,0.441 1.363,4.238 4,5.199 5.363,5.199 0.758,0 2.16,-0.32 2.16,-2.64 0,-1.239 -0.684,-3.918 -2.16,-9.481 -0.641,-2.48 -2.043,-4.16 -3.801,-4.16 -0.242,0 -1.16,0 -2,0.52 1,0.203 1.879,1.043 1.879,2.16 0,1.082 -0.879,1.402 -1.481,1.402 -1.199,0 -2.199,-1.039 -2.199,-2.32 0,-1.801 2,-2.602 3.762,-2.602 2.637,0 4.078,2.762 4.199,3 0.481,-1.48 1.918,-3 4.278,-3 4.121,0 6.402,5.121 6.402,6.121 0,0.399 -0.359,0.399 -0.481,0.399 -0.359,0 -0.441,-0.16 -0.519,-0.438 -1.32,-4.281 -4.039,-5.242 -5.281,-5.242 -1.559,0 -2.2,1.281 -2.2,2.641 0,0.879 0.239,1.761 0.68,3.519 l 1.359,5.442 z"
         style="fill:#000000;fill-opacity:1;fill-rule:nonzero;stroke:none"
         id="path3251"
         inkscape:connector-curvature="0" /><path
         d="m 684.066,326.252 0,0.32 0,0.281 0,0.321 0,0.32 -0.039,0.68 -0.043,0.718 -0.078,0.723 -0.078,0.758 -0.121,0.801 -0.121,0.757 -0.16,0.844 -0.199,0.84 -0.2,0.84 -0.242,0.84 -0.277,0.839 -0.32,0.84 -0.161,0.438 -0.199,0.441 -0.203,0.399 -0.199,0.441 c -2.399,4.879 -5.801,7.481 -6.199,7.481 -0.243,0 -0.399,-0.161 -0.399,-0.399 0,-0.121 0,-0.203 0.758,-0.922 3.879,-3.922 6.16,-10.281 6.16,-18.601 0,-6.797 -1.48,-13.797 -6.398,-18.797 -0.52,-0.481 -0.52,-0.563 -0.52,-0.68 0,-0.242 0.156,-0.402 0.399,-0.402 0.398,0 4,2.679 6.32,7.761 2.039,4.36 2.519,8.797 2.519,12.118 z"
         style="fill:#000000;fill-opacity:1;fill-rule:nonzero;stroke:none"
         id="path3253"
         inkscape:connector-curvature="0" /><path
         d="m 726.027,325.373 0.078,0.039 0.083,0.043 0.039,0.039 0.039,0 0.039,0.039 0.043,0 0,0.039 0.039,0 0.039,0.043 0.039,0 0.043,0.039 0,0.039 0.039,0 0.039,0.039 0,0 0.039,0.043 0,0.039 0.043,0 0,0.039 0.039,0.039 0,0.039 0.039,0.043 0,0 0,0.039 0,0.039 0.039,0.039 0,0.043 0,0.04 0,0.039 0,0.039 c 0,0.48 -0.32,0.679 -0.758,0.882 l -22.082,10.399 c -0.519,0.281 -0.597,0.281 -0.718,0.281 -0.442,0 -0.801,-0.359 -0.801,-0.801 0,-0.359 0.199,-0.601 0.762,-0.879 l 20.917,-9.882 -20.917,-9.84 c -0.563,-0.278 -0.762,-0.52 -0.762,-0.879 0,-0.442 0.359,-0.801 0.801,-0.801 0.121,0 0.199,0 0.718,0.281 l 22.082,10.36 z"
         style="fill:#000000;fill-opacity:1;fill-rule:nonzero;stroke:none"
         id="path3255"
         inkscape:connector-curvature="0" /><path
         d="m 755.828,332.252 3.438,0 c 0.8,0 1.16,0 1.16,0.761 0,0.442 -0.36,0.442 -1.039,0.442 l -3.321,0 0.84,4.558 c 0.16,0.84 0.719,3.68 0.961,4.121 0.36,0.758 1.039,1.36 1.879,1.36 0.16,0 1.199,0 1.922,-0.719 -1.723,-0.16 -2.121,-1.562 -2.121,-2.121 0,-0.922 0.719,-1.402 1.48,-1.402 1,0 2.161,0.882 2.161,2.402 0,1.801 -1.84,2.719 -3.442,2.719 -1.359,0 -3.879,-0.719 -5.078,-4.641 -0.242,-0.84 -0.363,-1.238 -1.32,-6.277 l -2.762,0 c -0.758,0 -1.199,0 -1.199,-0.762 0,-0.441 0.359,-0.441 1.121,-0.441 l 2.637,0 -3,-15.758 c -0.719,-3.84 -1.399,-7.481 -3.438,-7.481 -0.16,0 -1.16,0 -1.922,0.719 1.84,0.121 2.199,1.563 2.199,2.16 0,0.922 -0.718,1.403 -1.476,1.403 -1.043,0 -2.203,-0.883 -2.203,-2.403 0,-1.801 1.761,-2.718 3.402,-2.718 2.16,0 3.758,2.32 4.481,3.839 1.277,2.52 2.199,7.321 2.238,7.602 l 2.402,12.637 z"
         style="fill:#000000;fill-opacity:1;fill-rule:nonzero;stroke:none"
         id="path3257"
         inkscape:connector-curvature="0" /><path
         d="m 778.188,306.775 0,0 0,0.039 0,0 0,0 0,0.039 0,0 -0.043,0 0,0.039 0,0 0,0 0,0.039 -0.04,0 0,0.043 0,0 -0.039,0.039 0,0.039 -0.039,0 0,0.039 -0.043,0 0,0.043 0,0 -0.039,0.04 0,0 -0.039,0 0,0.039 0,0 -0.039,0.039 0,0 -0.039,0.043 0,0 -0.043,0.039 0,0.039 -0.039,0 -0.039,0.039 0,0 -0.039,0.043 -0.043,0.039 0,0.039 -0.039,0 -0.039,0.039 0,0.043 -0.039,0.039 c -5,5 -6.281,12.52 -6.281,18.598 0,6.922 1.519,13.882 6.441,18.839 0.52,0.481 0.52,0.563 0.52,0.684 0,0.277 -0.161,0.399 -0.403,0.399 -0.398,0 -4,-2.719 -6.359,-7.762 -2.039,-4.399 -2.481,-8.797 -2.481,-12.16 0,-3.078 0.403,-7.918 2.602,-12.399 2.398,-4.922 5.84,-7.48 6.238,-7.48 0.242,0 0.403,0.121 0.403,0.402 z"
         style="fill:#000000;fill-opacity:1;fill-rule:nonzero;stroke:none"
         id="path3259"
         inkscape:connector-curvature="0" /><path
         d="m 793.785,328.334 0.043,0.121 0,0.117 0.039,0.121 0.039,0.16 0.039,0.121 0.039,0.2 0.082,0.16 0.039,0.16 0.083,0.199 0.078,0.199 0.039,0.199 0.121,0.204 0.082,0.199 0.078,0.199 0.121,0.199 0.121,0.16 0.078,0.2 0.16,0.203 0.122,0.199 0.117,0.16 0.16,0.16 0.16,0.16 0.16,0.161 0.199,0.16 0.161,0.117 0.203,0.121 0.117,0.039 0.082,0.043 0.121,0.078 0.117,0.039 0.121,0 0.078,0.039 0.121,0.043 0.122,0 0.121,0.039 0.117,0 0.16,0 0.121,0 c 0.199,0 1.16,0 2,-0.48 -1.121,-0.199 -1.918,-1.199 -1.918,-2.16 0,-0.641 0.438,-1.399 1.52,-1.399 0.879,0 2.117,0.719 2.117,2.321 0,2.078 -2.32,2.597 -3.68,2.597 -2.32,0 -3.719,-2.078 -4.199,-3 -1,2.602 -3.16,3 -4.281,3 -4.16,0 -6.438,-5.117 -6.438,-6.117 0,-0.402 0.399,-0.402 0.481,-0.402 0.32,0 0.437,0.082 0.519,0.441 1.36,4.238 4,5.199 5.321,5.199 0.757,0 2.16,-0.32 2.16,-2.64 0,-1.239 -0.68,-3.918 -2.16,-9.481 -0.602,-2.48 -2,-4.16 -3.762,-4.16 -0.238,0 -1.16,0 -2,0.52 1,0.203 1.879,1.043 1.879,2.16 0,1.082 -0.879,1.402 -1.477,1.402 -1.203,0 -2.203,-1.039 -2.203,-2.32 0,-1.801 2,-2.602 3.762,-2.602 2.64,0 4.039,2.762 4.16,3 0.48,-1.48 1.918,-3 4.32,-3 4.117,0 6.399,5.121 6.399,6.121 0,0.399 -0.36,0.399 -0.481,0.399 -0.359,0 -0.437,-0.16 -0.519,-0.438 -1.321,-4.281 -4.039,-5.242 -5.321,-5.242 -1.558,0 -2.199,1.281 -2.199,2.641 0,0.879 0.238,1.761 0.68,3.519 l 1.359,5.442 z"
         style="fill:#000000;fill-opacity:1;fill-rule:nonzero;stroke:none"
         id="path3261"
         inkscape:connector-curvature="0" /><path
         d="m 812.746,339.412 0.121,0.883 1.879,7.519 c 0.238,0.879 0.281,0.961 1.442,0.961 l 3.238,0 c 2.601,0 4.199,-0.801 4.199,-2.762 0,-0.839 -0.32,-3.039 -1.719,-4.32 -1,-0.879 -2.601,-1.398 -4.601,-1.398 l -4.438,0 -0.121,-0.883 5.039,0 c 4.723,0 8.68,3 8.68,6 0,2.363 -2.277,4.363 -6.078,4.363 l -9.762,0 c -0.559,0 -0.879,0 -0.879,-0.601 0,-0.399 0.32,-0.399 0.922,-0.399 0.437,0 0.559,0 1.039,-0.082 0.559,-0.039 0.641,-0.078 0.641,-0.359 0,-0.082 0,-0.2 -0.121,-0.641 l -3.68,-14.641 c -0.281,-1.078 -0.32,-1.277 -2.481,-1.277 -0.519,0 -0.839,0 -0.839,-0.601 0,-0.04 0,-0.399 0.441,-0.399 0.797,0 2.797,0.117 3.637,0.117 0.48,0 1.441,0 1.922,-0.039 0.558,-0.039 1.238,-0.078 1.757,-0.078 0.204,0 0.602,0 0.602,0.598 0,0.402 -0.32,0.402 -0.879,0.402 -0.039,0 -0.562,0 -1.082,0.039 -0.641,0.078 -0.641,0.16 -0.641,0.438 0,0 0,0.203 0.121,0.601 l 1.641,6.559 z"
         style="fill:#000000;fill-opacity:1;fill-rule:nonzero;stroke:none"
         id="path3263"
         inkscape:connector-curvature="0" /><path
         d="m 841.348,326.252 0,0.32 0,0.281 0,0.321 -0.043,0.32 0,0.68 -0.078,0.718 -0.039,0.723 -0.083,0.758 -0.121,0.801 -0.117,0.757 -0.16,0.844 -0.199,0.84 -0.203,0.84 -0.239,0.84 -0.281,0.839 -0.32,0.84 -0.199,0.438 -0.161,0.441 -0.199,0.399 -0.199,0.441 c -2.402,4.879 -5.801,7.481 -6.199,7.481 -0.242,0 -0.403,-0.161 -0.403,-0.399 0,-0.121 0,-0.203 0.762,-0.922 3.879,-3.922 6.16,-10.281 6.16,-18.601 0,-6.797 -1.48,-13.797 -6.402,-18.797 -0.52,-0.481 -0.52,-0.563 -0.52,-0.68 0,-0.242 0.161,-0.402 0.403,-0.402 0.398,0 3.957,2.679 6.32,7.761 2.039,4.36 2.52,8.797 2.52,12.118 z"
         style="fill:#000000;fill-opacity:1;fill-rule:nonzero;stroke:none"
         id="path3265"
         inkscape:connector-curvature="0" /></g></g></svg>