<?xml version="1.0" encoding="UTF-8" standalone="no"?>
<!-- Created with Inkscape (http://www.inkscape.org/) -->

<svg
   xmlns:ns0="http://www.iki.fi/pav/software/textext/"
   xmlns:dc="http://purl.org/dc/elements/1.1/"
   xmlns:cc="http://creativecommons.org/ns#"
   xmlns:rdf="http://www.w3.org/1999/02/22-rdf-syntax-ns#"
   xmlns:svg="http://www.w3.org/2000/svg"
   xmlns="http://www.w3.org/2000/svg"
   xmlns:sodipodi="http://sodipodi.sourceforge.net/DTD/sodipodi-0.dtd"
   xmlns:inkscape="http://www.inkscape.org/namespaces/inkscape"
   width="598.79565"
   height="194.35364"
   id="svg2"
   version="1.1"
   inkscape:version="0.48.1 "
   sodipodi:docname="cascade.pdf">
  <sodipodi:namedview
     id="base"
     pagecolor="#ffffff"
     bordercolor="#666666"
     borderopacity="1.0"
     inkscape:pageopacity="0.0"
     inkscape:pageshadow="2"
     inkscape:zoom="2.5893106"
     inkscape:cx="182.17266"
     inkscape:cy="97.18323"
     inkscape:document-units="px"
     inkscape:current-layer="layer1"
     showgrid="true"
     inkscape:window-width="1680"
     inkscape:window-height="988"
     inkscape:window-x="-8"
     inkscape:window-y="-8"
     inkscape:window-maximized="1"
     fit-margin-top="0"
     fit-margin-left="0"
     fit-margin-right="0"
     fit-margin-bottom="0">
    <inkscape:grid
       type="xygrid"
       id="grid2987"
       empspacing="5"
       visible="true"
       enabled="true"
       snapvisiblegridlinesonly="true" />
  </sodipodi:namedview>
  <defs
     id="defs4">
    <marker
       inkscape:stockid="TriangleOutM"
       orient="auto"
       refY="0"
       refX="0"
       id="TriangleOutM"
       style="overflow:visible">
      <path
         id="path3932"
         d="m 5.77,0 -8.65,5 0,-10 8.65,5 z"
         style="fill-rule:evenodd;stroke:#000000;stroke-width:1pt;marker-start:none"
         transform="scale(0.4,0.4)"
         inkscape:connector-curvature="0" />
    </marker>
    <marker
       inkscape:stockid="TriangleOutL"
       orient="auto"
       refY="0"
       refX="0"
       id="TriangleOutL"
       style="overflow:visible">
      <path
         id="path3929"
         d="m 5.77,0 -8.65,5 0,-10 8.65,5 z"
         style="fill-rule:evenodd;stroke:#000000;stroke-width:1pt;marker-start:none"
         transform="scale(0.8,0.8)"
         inkscape:connector-curvature="0" />
    </marker>
    <inkscape:path-effect
       effect="spiro"
       id="path-effect3781"
       is_visible="true" />
    <inkscape:path-effect
       effect="spiro"
       id="path-effect3771"
       is_visible="true" />
    <inkscape:path-effect
       effect="spiro"
       id="path-effect3767"
       is_visible="true" />
    <inkscape:path-effect
       effect="spiro"
       id="path-effect3763"
       is_visible="true" />
    <inkscape:path-effect
       effect="spiro"
       id="path-effect3759"
       is_visible="true" />
    <marker
       inkscape:stockid="TriangleOutM"
       orient="auto"
       refY="0"
       refX="0"
       id="TriangleOutM-9"
       style="overflow:visible">
      <path
         inkscape:connector-curvature="0"
         id="path3932-3"
         d="m 5.77,0 -8.65,5 0,-10 8.65,5 z"
         style="fill-rule:evenodd;stroke:#000000;stroke-width:1pt;marker-start:none"
         transform="scale(0.4,0.4)" />
    </marker>
    <inkscape:path-effect
       effect="spiro"
       id="path-effect3781-5"
       is_visible="true" />
    <marker
       inkscape:stockid="TriangleOutM"
       orient="auto"
       refY="0"
       refX="0"
       id="TriangleOutM-4"
       style="overflow:visible">
      <path
         inkscape:connector-curvature="0"
         id="path3932-6"
         d="m 5.77,0 -8.65,5 0,-10 8.65,5 z"
         style="fill-rule:evenodd;stroke:#000000;stroke-width:1pt;marker-start:none"
         transform="scale(0.4,0.4)" />
    </marker>
    <inkscape:path-effect
       effect="spiro"
       id="path-effect3781-6"
       is_visible="true" />
  </defs>
  <metadata
     id="metadata7">
    <rdf:RDF>
      <cc:Work
         rdf:about="">
        <dc:format>image/svg+xml</dc:format>
        <dc:type
           rdf:resource="http://purl.org/dc/dcmitype/StillImage" />
        <dc:title></dc:title>
      </cc:Work>
    </rdf:RDF>
  </metadata>
  <g
     inkscape:label="Layer 1"
     inkscape:groupmode="layer"
     id="layer1"
     transform="translate(-2.3583984,-410.52136)">
    <rect
       style="fill:none;stroke:#000000;stroke-width:5;stroke-linecap:butt;stroke-linejoin:miter;stroke-miterlimit:4;stroke-opacity:1;stroke-dasharray:none"
       id="rect2985"
       width="170"
       height="150"
       x="20"
       y="452.36218" />
    <path
       style="fill:none;stroke:#000000;stroke-width:5;stroke-linecap:butt;stroke-linejoin:miter;stroke-miterlimit:4;stroke-opacity:1;stroke-dasharray:none"
       d="m 20,482.36218 170,0"
       id="path3757"
       inkscape:path-effect="#path-effect3759"
       inkscape:original-d="m 20,482.36218 170,0"
       inkscape:connector-curvature="0" />
    <path
       style="fill:none;stroke:#000000;stroke-width:5;stroke-linecap:butt;stroke-linejoin:miter;stroke-miterlimit:4;stroke-opacity:1;stroke-dasharray:none"
       d="m 20,512.36218 170,0"
       id="path3761"
       inkscape:path-effect="#path-effect3763"
       inkscape:original-d="m 20,512.36218 170,0"
       inkscape:connector-curvature="0" />
    <path
       style="fill:none;stroke:#000000;stroke-width:5;stroke-linecap:butt;stroke-linejoin:miter;stroke-miterlimit:4;stroke-opacity:1;stroke-dasharray:none"
       d="m 20,542.36218 170,0"
       id="path3765"
       inkscape:path-effect="#path-effect3767"
       inkscape:original-d="m 20,542.36218 170,0"
       inkscape:connector-curvature="0" />
    <path
       style="fill:none;stroke:#000000;stroke-width:5;stroke-linecap:butt;stroke-linejoin:miter;stroke-miterlimit:4;stroke-opacity:1;stroke-dasharray:none"
       d="m 20,572.36218 170,0"
       id="path3769"
       inkscape:path-effect="#path-effect3771"
       inkscape:original-d="m 20,572.36218 170,0"
       inkscape:connector-curvature="0" />
    <text
       xml:space="preserve"
       style="font-size:40px;font-style:normal;font-weight:normal;line-height:125%;letter-spacing:0px;word-spacing:0px;fill:#000000;fill-opacity:1;stroke:none;font-family:Sans"
       x="0"
       y="432.36218"
       id="text3773"
       sodipodi:linespacing="125%"><tspan
         sodipodi:role="line"
         id="tspan3775"
         x="0"
         y="432.36218"
         style="font-size:30px">Reference trees</tspan></text>
    <rect
       style="fill:none;stroke:#000000;stroke-width:5;stroke-linecap:butt;stroke-linejoin:miter;stroke-miterlimit:4;stroke-opacity:1;stroke-dasharray:none"
       id="rect3777"
       width="170"
       height="70"
       x="270"
       y="482.36218" />
    <path
       style="fill:none;stroke:#000000;stroke-width:4.62910032;stroke-linecap:butt;stroke-linejoin:miter;stroke-miterlimit:4;stroke-opacity:1;stroke-dasharray:none;marker-end:url(#TriangleOutM)"
       d="m 190,522.36218 60,0"
       id="path3779"
       inkscape:path-effect="#path-effect3781"
       inkscape:original-d="m 190,522.36218 60,0"
       inkscape:connector-curvature="0" />
    <text
       xml:space="preserve"
       style="font-size:40px;font-style:normal;font-weight:normal;line-height:125%;letter-spacing:0px;word-spacing:0px;fill:#000000;fill-opacity:1;stroke:none;font-family:Sans"
       x="250"
       y="432.36218"
       id="text3773-7"
       sodipodi:linespacing="125%"><tspan
         sodipodi:role="line"
         id="tspan3775-1"
         x="250"
         y="432.36218"
         style="font-size:30px">Subproblem tree</tspan></text>
    <path
       style="fill:none;stroke:#000000;stroke-width:4.62910032;stroke-linecap:butt;stroke-linejoin:miter;stroke-miterlimit:4;stroke-opacity:1;stroke-dasharray:none;marker-end:url(#TriangleOutM)"
       d="m 440,522.36218 60,0"
       id="path3779-3"
       inkscape:path-effect="#path-effect3781-5"
       inkscape:original-d="m 440,522.36218 60,0"
       inkscape:connector-curvature="0" />
    <g
       id="content"
       transform="matrix(3.1347962,0,0,-3.1347962,-481.41066,2811.3012)"
       xml:space="preserve"
       stroke-miterlimit="10.433"
       font-style="normal"
       font-variant="normal"
       font-weight="normal"
       font-stretch="normal"
       font-size-adjust="none"
       letter-spacing="normal"
       word-spacing="normal"
       ns0:text="$  \\hat{\\mathbf{z}}^{\\rm utop} (j) $"
       ns0:preamble=""
       style="font-style:normal;font-variant:normal;font-weight:normal;font-stretch:normal;letter-spacing:normal;word-spacing:normal;text-anchor:start;fill:none;stroke:#000000;stroke-linecap:butt;stroke-linejoin:miter;stroke-miterlimit:10.43299961;stroke-opacity:1;stroke-dasharray:none;stroke-dashoffset:0">
<polygon
   points="225.98,714.17 224.64,712.82 224.82,712.64 225.98,713.65 227.13,712.64 227.3,712.82 "
   id="polygon3293"
   style="fill:#000000;stroke-width:0" />
<path
   d="m 227.91,711.12 0.01,0.01 0,0.01 0.01,0 0.01,0.01 0,0.01 0.01,0.01 0,0.01 0.01,0 0,0.01 0.01,0.01 0,0 0,0.01 0.01,0.01 0,0 0,0.01 0.01,0 0,0.01 0,0 0,0.01 0.01,0 0,0.01 0,0.01 0,0 0,0.01 0,0 0,0.01 0.01,0.01 0,0 0,0.01 0,0.01 0,0.01 0,0.01 c 0,0.2 -0.14,0.2 -0.32,0.2 h -3.66 l -0.12,-1.74 h 0.47 c 0.06,1.03 0.37,1.39 1.39,1.39 h 0.85 l -2.78,-3.63 c -0.09,-0.11 -0.09,-0.13 -0.09,-0.22 0,-0.21 0.13,-0.21 0.32,-0.21 h 3.79 l 0.18,2.01 h -0.47 c -0.09,-1.01 -0.25,-1.62 -1.57,-1.62 h -0.85 z"
   id="path3295"
   inkscape:connector-curvature="0"
   style="fill:#000000;stroke-width:0" />
<path
   d="m 231.04,713.73 v -0.25 c 0.47,0 0.52,-0.05 0.52,-0.39 v -1.19 c 0,-0.61 -0.4,-1.03 -0.93,-1.03 -0.63,0 -0.66,0.29 -0.66,0.65 v 2.29 l -1.07,-0.08 v -0.25 c 0.52,0 0.52,-0.02 0.52,-0.64 v -1.04 c 0,-0.48 0,-1.13 1.17,-1.13 0.15,0 0.66,0 0.99,0.59 h 0.01 v -0.59 l 1.04,0.07 v 0.25 c -0.46,0 -0.52,0.05 -0.52,0.39 v 2.43 z"
   id="path3297"
   inkscape:connector-curvature="0"
   style="fill:#000000;stroke-width:0" />
<path
   d="m 234.32,713.49 h 1.09 v 0.25 h -1.09 v 1.28 h -0.23 c -0.01,-0.63 -0.3,-1.32 -0.96,-1.34 v -0.19 h 0.64 v -1.88 c 0,-0.78 0.59,-0.94 0.98,-0.94 0.47,0 0.79,0.4 0.79,0.95 V 712 h -0.24 v -0.38 c 0,-0.47 -0.22,-0.73 -0.5,-0.73 -0.48,0 -0.48,0.59 -0.48,0.71 z"
   id="path3299"
   inkscape:connector-curvature="0"
   style="fill:#000000;stroke-width:0" />
<path
   d="m 239.72,712.22 0,0.08 -0.01,0.08 -0.01,0.08 -0.01,0.08 -0.02,0.08 -0.02,0.07 -0.03,0.08 -0.03,0.07 -0.03,0.07 -0.04,0.07 -0.04,0.07 -0.04,0.07 -0.05,0.06 -0.05,0.06 -0.06,0.06 -0.05,0.06 -0.06,0.05 -0.06,0.05 -0.07,0.05 -0.06,0.05 -0.07,0.04 -0.07,0.04 -0.08,0.04 -0.07,0.03 -0.08,0.03 -0.08,0.03 -0.08,0.02 -0.09,0.02 -0.08,0.01 -0.09,0.01 -0.09,0.01 -0.09,0 v -0.19 c 0.42,0 0.71,-0.2 0.86,-0.41 0.2,-0.27 0.22,-0.62 0.22,-0.96 0,-0.33 -0.02,-0.7 -0.22,-0.98 -0.19,-0.27 -0.51,-0.41 -0.86,-0.41 h 0 c -0.25,0 -0.63,0.09 -0.86,0.43 -0.19,0.28 -0.21,0.65 -0.21,0.96 0,0.3 0.01,0.71 0.25,1.01 0.18,0.2 0.47,0.36 0.82,0.36 v 0.19 c -0.96,0 -1.7,-0.75 -1.7,-1.62 0,-0.86 0.76,-1.55 1.7,-1.55 0.95,0 1.71,0.69 1.71,1.55 z"
   id="path3301"
   inkscape:connector-curvature="0"
   style="fill:#000000;stroke-width:0" />
<path
   d="m 241.95,709.64 -0.03,0 -0.02,0 -0.02,0 -0.02,0 -0.01,0 -0.02,0 -0.02,0 -0.02,0 -0.01,0 -0.02,0 -0.02,0 -0.01,0 -0.02,0 -0.01,0.01 -0.01,0 -0.02,0 -0.01,0 -0.01,0 -0.03,0 -0.02,0 -0.02,0.01 -0.02,0 -0.02,0.01 -0.01,0 -0.02,0.01 -0.01,0.01 -0.01,0.01 -0.01,0 -0.01,0.02 -0.01,0.01 -0.01,0.01 0,0.01 -0.01,0.02 0,0.01 -0.01,0.02 0,0.02 0,0.02 0,0.02 -0.01,0.03 0,0.02 0,0.03 v 1.14 c 0.04,-0.04 0.37,-0.41 0.95,-0.41 l -0.04,0.2 c -0.62,0 -0.89,0.53 -0.91,0.57 v 1.62 c 0.21,0.34 0.62,0.53 0.98,0.53 0.59,0 1.04,-0.62 1.04,-1.35 0,-0.79 -0.52,-1.37 -1.11,-1.37 l 0.04,-0.2 c 0.92,0 1.71,0.69 1.71,1.57 0,0.86 -0.71,1.57 -1.6,1.57 -0.39,0 -0.8,-0.15 -1.08,-0.43 v 0.43 l -1.05,-0.08 v -0.25 c 0.49,0 0.52,-0.03 0.52,-0.33 v -3.21 c 0,-0.3 -0.07,-0.3 -0.52,-0.3 v -0.25 c 0.01,0 0.5,0.03 0.79,0.03 0.26,0 0.74,-0.02 0.81,-0.03 z"
   id="path3303"
   inkscape:connector-curvature="0"
   style="fill:#000000;stroke-width:0" />
<path
   d="m 248.21,704.74 0,0 0,0.01 0,0 0,0 0,0.01 -0.01,0 0,0 0,0.01 0,0 0,0 0,0.01 -0.01,0 0,0.01 0,0 -0.01,0.01 0,0.01 -0.01,0 0,0.01 -0.01,0 0,0.01 0,0 -0.01,0.01 0,0 -0.01,0 0,0.01 0,0 -0.01,0.01 0,0 -0.01,0.01 0,0 -0.01,0.01 -0.01,0.01 0,0 -0.01,0.01 0,0 -0.01,0.01 -0.01,0.01 0,0.01 -0.01,0 -0.01,0.01 -0.01,0.01 0,0.01 c -1.25,1.25 -1.57,3.13 -1.57,4.65 0,1.73 0.38,3.47 1.61,4.71 0.13,0.12 0.13,0.14 0.13,0.17 0,0.07 -0.04,0.1 -0.1,0.1 -0.1,0 -1,-0.68 -1.59,-1.94 -0.51,-1.1 -0.63,-2.2 -0.63,-3.04 0,-0.77 0.11,-1.98 0.66,-3.1 0.6,-1.23 1.46,-1.87 1.56,-1.87 0.06,0 0.1,0.03 0.1,0.1 z"
   id="path3305"
   inkscape:connector-curvature="0"
   style="fill:#000000;stroke-width:0" />
<path
   d="m 252.74,713.34 0,0.02 0,0.02 0,0.02 -0.01,0.01 0,0.02 -0.01,0.02 0,0.01 -0.01,0.02 0,0.02 -0.01,0.01 -0.01,0.02 -0.01,0.01 -0.01,0.02 -0.01,0.01 -0.01,0.01 -0.01,0.02 -0.01,0.01 -0.02,0.01 -0.01,0.01 -0.01,0.01 -0.02,0.01 -0.02,0.01 -0.01,0.01 -0.02,0 -0.02,0.01 -0.02,0.01 -0.01,0 -0.02,0.01 -0.02,0 -0.03,0 -0.02,0 -0.02,0 c -0.23,0 -0.53,-0.23 -0.53,-0.52 0,-0.2 0.14,-0.36 0.37,-0.36 0.27,0 0.54,0.26 0.54,0.52 z"
   id="path3307"
   inkscape:connector-curvature="0"
   style="fill:#000000;stroke-width:0" />
<path
   d="m 250.74,706.63 -0.02,-0.07 -0.02,-0.07 -0.02,-0.07 -0.03,-0.07 -0.02,-0.06 -0.03,-0.07 -0.03,-0.06 -0.03,-0.06 -0.03,-0.06 -0.03,-0.05 -0.03,-0.06 -0.04,-0.05 -0.03,-0.06 -0.04,-0.05 -0.04,-0.04 -0.04,-0.05 -0.04,-0.04 -0.04,-0.04 -0.04,-0.04 -0.05,-0.04 -0.04,-0.03 -0.05,-0.03 -0.04,-0.03 -0.05,-0.03 -0.05,-0.02 -0.05,-0.02 -0.05,-0.02 -0.04,-0.01 -0.06,-0.01 -0.05,-0.01 -0.05,0 -0.05,-0.01 c -0.06,0 -0.21,0 -0.39,0.09 0.3,0.07 0.45,0.33 0.45,0.53 0,0.16 -0.11,0.35 -0.38,0.35 -0.25,0 -0.54,-0.21 -0.54,-0.57 0,-0.4 0.4,-0.61 0.88,-0.61 0.7,0 1.62,0.52 1.87,1.51 l 0.92,3.64 c 0.05,0.2 0.05,0.34 0.05,0.37 0,0.57 -0.42,0.91 -0.92,0.91 -1.01,0 -1.58,-1.44 -1.58,-1.53 0,-0.1 0.1,-0.1 0.12,-0.1 0.09,0 0.1,0.01 0.18,0.2 0.25,0.61 0.71,1.21 1.25,1.21 0.14,0 0.32,-0.03 0.32,-0.45 0,-0.23 -0.03,-0.34 -0.07,-0.51 z"
   id="path3309"
   inkscape:connector-curvature="0"
   style="fill:#000000;stroke-width:0" />
<path
   d="m 256.33,709.61 0,0.08 0,0.07 0,0.08 0,0.08 -0.01,0.17 -0.01,0.18 -0.02,0.18 -0.02,0.19 -0.03,0.2 -0.03,0.19 -0.04,0.21 -0.04,0.21 -0.06,0.21 -0.06,0.21 -0.07,0.21 -0.08,0.21 -0.04,0.11 -0.05,0.11 -0.04,0.1 -0.05,0.11 c -0.6,1.22 -1.46,1.87 -1.56,1.87 -0.06,0 -0.1,-0.04 -0.1,-0.1 0,-0.03 0,-0.05 0.19,-0.23 0.98,-0.98 1.55,-2.57 1.55,-4.65 0,-1.7 -0.37,-3.45 -1.61,-4.7 -0.13,-0.12 -0.13,-0.14 -0.13,-0.17 0,-0.06 0.04,-0.1 0.1,-0.1 0.1,0 1,0.67 1.59,1.94 0.5,1.09 0.62,2.2 0.62,3.03 z"
   id="path3311"
   inkscape:connector-curvature="0"
   style="fill:#000000;stroke-width:0" />
</g>    <g
       style="font-style:normal;font-variant:normal;font-weight:normal;font-stretch:normal;letter-spacing:normal;word-spacing:normal;text-anchor:start;fill:none;stroke:#000000;stroke-linecap:butt;stroke-linejoin:miter;stroke-miterlimit:10.43299961;stroke-opacity:1;stroke-dasharray:none;stroke-dashoffset:0"
       ns0:preamble=""
       ns0:text="$ \\mathbf{c}^{\\rm SUB}_{m} ( i,  \\hat{ \\mathbf{z} }^{\\rm utop}(j) ) $"
       word-spacing="normal"
       letter-spacing="normal"
       font-size-adjust="none"
       font-stretch="normal"
       font-weight="normal"
       font-variant="normal"
       font-style="normal"
       stroke-miterlimit="10.433"
       xml:space="preserve"
       transform="matrix(3.1423737,0,0,-3.1423737,-320.93626,2813.6519)"
       id="g3411">
<path
   id="path3413"
   d="m 227.02,711.18 -0.02,-0.02 -0.01,-0.01 -0.02,-0.02 -0.01,-0.02 -0.01,-0.01 -0.01,-0.02 -0.02,-0.01 -0.01,-0.02 -0.01,-0.02 -0.01,-0.01 0,-0.02 -0.01,-0.02 -0.01,-0.01 -0.01,-0.02 0,-0.01 -0.01,-0.02 0,-0.02 -0.01,-0.01 0,-0.02 0,-0.01 -0.01,-0.01 0,-0.02 0,-0.01 0,-0.02 0,-0.01 -0.01,-0.01 0,-0.01 0,-0.01 0,-0.01 0,-0.01 0,-0.01 0,-0.01 c 0,-0.44 0.35,-0.63 0.62,-0.63 0.31,0 0.63,0.21 0.63,0.63 0,0.85 -1.16,0.91 -1.74,0.91 -1.78,0 -2.52,-1.14 -2.52,-2.3 0,-1.32 0.94,-2.26 2.47,-2.26 1.62,0 1.92,1.15 1.92,1.22 0,0.14 -0.14,0.14 -0.24,0.14 -0.18,0 -0.19,-0.02 -0.24,-0.15 -0.26,-0.63 -0.74,-0.82 -1.25,-0.82 -1.38,0 -1.38,1.47 -1.38,1.92 0,0.56 0,1.85 1.28,1.85 0.35,0 0.52,-0.02 0.65,-0.05 z"
   inkscape:connector-curvature="0"
   style="fill:#000000;stroke-width:0" />
<path
   id="path3415"
   d="m 230.26,713.64 -0.06,0.01 -0.05,0.02 -0.05,0.02 -0.05,0.02 -0.05,0.02 -0.04,0.02 -0.05,0.02 -0.04,0.02 -0.03,0.03 -0.04,0.02 -0.03,0.03 -0.03,0.03 -0.03,0.03 -0.03,0.03 -0.03,0.03 -0.02,0.03 -0.02,0.03 -0.03,0.03 -0.01,0.03 -0.02,0.03 -0.02,0.03 -0.01,0.04 -0.01,0.03 -0.01,0.03 -0.01,0.03 -0.01,0.03 -0.01,0.03 0,0.03 -0.01,0.03 0,0.03 0,0.03 0,0.03 c 0,0.46 0.42,0.9 1.06,0.9 0.94,0 1.34,-0.63 1.45,-1.36 0.02,-0.1 0.02,-0.14 0.13,-0.14 0.11,0 0.11,0.05 0.11,0.18 v 1.36 c 0,0.12 0,0.18 -0.09,0.18 -0.06,0 -0.07,-0.02 -0.12,-0.1 l -0.25,-0.39 c -0.46,0.47 -1.04,0.49 -1.23,0.49 -0.88,0 -1.51,-0.63 -1.51,-1.33 0,-0.39 0.18,-0.69 0.43,-0.92 0.27,-0.28 0.51,-0.33 1.26,-0.49 0.63,-0.14 0.77,-0.17 0.97,-0.36 0.16,-0.16 0.31,-0.38 0.31,-0.7 0,-0.49 -0.41,-0.98 -1.07,-0.98 -0.68,0 -1.61,0.26 -1.66,1.31 -0.01,0.12 -0.01,0.16 -0.12,0.16 -0.12,0 -0.12,-0.05 -0.12,-0.19 v -1.35 c 0,-0.12 0,-0.18 0.1,-0.18 0.05,0 0.07,0.02 0.11,0.08 0.06,0.09 0.2,0.31 0.26,0.4 0.44,-0.38 0.97,-0.48 1.43,-0.48 0.91,0 1.51,0.69 1.51,1.43 0,0.62 -0.43,1.21 -1.13,1.37 z"
   inkscape:connector-curvature="0"
   style="fill:#000000;stroke-width:0" />
<path
   id="path3417"
   d="m 237.68,714.74 0,0.02 0,0.01 0,0.02 0,0.02 0,0.02 0.01,0.02 0,0.02 0,0.03 0.01,0.02 0,0.02 0.01,0.02 0.01,0.02 0.01,0.02 0.01,0.02 0.01,0.02 0.02,0.02 0.02,0.02 0.02,0.02 0.02,0.01 0.01,0.01 0.02,0.01 0.01,0.01 0.01,0.01 0.02,0 0.01,0.01 0.02,0.01 0.02,0 0.02,0.01 0.01,0.01 0.02,0 0.02,0.01 0.02,0 0.03,0.01 0.02,0 0.02,0.01 0.03,0 0.02,0.01 0.03,0 0.03,0 0.02,0 0.03,0.01 0.03,0 0.03,0 0.04,0 0.03,0 v 0.25 c -0.28,-0.02 -0.57,-0.03 -0.84,-0.03 -0.28,0 -0.57,0.01 -0.85,0.03 v -0.25 c 0.72,0 0.72,-0.31 0.72,-0.5 v -2.39 c 0,-0.96 -0.74,-1.5 -1.46,-1.5 -0.41,0 -1.28,0.22 -1.28,1.47 v 2.61 c 0,0.23 0.02,0.31 0.55,0.31 h 0.17 v 0.25 c -0.35,-0.02 -0.79,-0.03 -1.04,-0.03 -0.26,0 -0.71,0.01 -1.06,0.03 v -0.25 h 0.17 c 0.54,0 0.55,-0.07 0.55,-0.31 v -2.59 c 0,-1 0.89,-1.74 1.92,-1.74 0.96,0 1.73,0.76 1.73,1.73 z"
   inkscape:connector-curvature="0"
   style="fill:#000000;stroke-width:0" />
<path
   id="path3419"
   d="m 239.22,715.49 v -0.25 h 0.17 c 0.54,0 0.55,-0.07 0.55,-0.31 v -3.63 c 0,-0.23 -0.01,-0.31 -0.55,-0.31 h -0.17 v -0.25 h 2.96 c 0.98,0 1.7,0.61 1.7,1.27 0,0.61 -0.62,1.12 -1.47,1.21 0.69,0.13 1.26,0.55 1.26,1.09 0,0.62 -0.74,1.18 -1.7,1.18 l -0.05,-0.25 c 0.69,0 1.05,-0.5 1.05,-0.93 0,-0.5 -0.47,-1 -1.27,-1 h -1.15 v -0.2 h 1.49 c 0.73,0 1.12,-0.6 1.12,-1.08 0,-0.52 -0.46,-1.04 -1.23,-1.04 h -1.04 c -0.33,0 -0.34,0.06 -0.34,0.27 v 1.85 0.2 1.66 c 0,0.21 0.01,0.27 0.34,0.27 h 1.03 l 0.05,0.25 z"
   inkscape:connector-curvature="0"
   style="fill:#000000;stroke-width:0" />
<path
   id="path3421"
   d="m 231.55,705.22 -0.01,-0.01 0,-0.01 0,-0.02 -0.01,-0.01 0,-0.02 -0.01,-0.01 0,-0.03 -0.01,-0.03 -0.01,-0.04 -0.01,-0.03 0,-0.01 -0.01,-0.02 0,-0.01 0,-0.02 -0.01,-0.01 0,-0.02 0,-0.01 -0.01,-0.01 0,-0.01 0,-0.02 0,-0.01 0,-0.01 -0.01,-0.01 0,0 0,-0.01 0,-0.01 0,0 0,0 c 0,-0.16 0.12,-0.23 0.24,-0.23 0.12,0 0.23,0.09 0.27,0.15 0.03,0.07 0.09,0.29 0.12,0.44 0.04,0.13 0.11,0.45 0.16,0.62 0.04,0.16 0.08,0.31 0.11,0.47 0.08,0.3 0.08,0.31 0.22,0.53 0.22,0.34 0.57,0.73 1.11,0.73 0.39,0 0.42,-0.32 0.42,-0.48 0,-0.42 -0.3,-1.19 -0.42,-1.48 -0.07,-0.2 -0.1,-0.26 -0.1,-0.38 0,-0.37 0.31,-0.6 0.66,-0.6 0.7,0 1,0.96 1,1.07 0,0.09 -0.09,0.09 -0.11,0.09 -0.09,0 -0.1,-0.04 -0.13,-0.12 -0.16,-0.56 -0.46,-0.84 -0.74,-0.84 -0.14,0 -0.17,0.1 -0.17,0.24 0,0.16 0.03,0.25 0.16,0.56 0.08,0.22 0.37,0.96 0.37,1.35 0,0.11 0,0.4 -0.26,0.6 -0.12,0.09 -0.32,0.19 -0.65,0.19 -0.62,0 -1.01,-0.41 -1.23,-0.7 -0.06,0.59 -0.55,0.7 -0.91,0.7 -0.57,0 -0.96,-0.36 -1.17,-0.63 -0.05,0.48 -0.46,0.63 -0.75,0.63 -0.3,0 -0.46,-0.22 -0.55,-0.38 -0.15,-0.25 -0.25,-0.65 -0.25,-0.69 0,-0.09 0.1,-0.09 0.12,-0.09 0.1,0 0.1,0.02 0.15,0.21 0.11,0.41 0.24,0.75 0.51,0.75 0.18,0 0.23,-0.15 0.23,-0.34 0,-0.13 -0.06,-0.39 -0.11,-0.57 -0.05,-0.19 -0.12,-0.48 -0.15,-0.63 l -0.23,-0.89 c -0.02,-0.09 -0.07,-0.26 -0.07,-0.28 0,-0.16 0.13,-0.23 0.24,-0.23 0.13,0 0.24,0.09 0.27,0.15 0.04,0.07 0.09,0.29 0.13,0.44 0.03,0.13 0.11,0.45 0.15,0.62 0.04,0.16 0.09,0.31 0.12,0.47 0.08,0.28 0.09,0.34 0.29,0.62 0.2,0.28 0.52,0.64 1.05,0.64 0.4,0 0.41,-0.35 0.41,-0.48 0,-0.18 -0.02,-0.27 -0.12,-0.66 z"
   inkscape:connector-curvature="0"
   style="fill:#000000;stroke-width:0" />
<path
   id="path3423"
   d="m 248.17,704.74 0,0 0,0.01 0,0 0,0 0,0.01 0,0 0,0 0,0.01 0,0 -0.01,0 0,0.01 0,0 0,0.01 -0.01,0 0,0.01 -0.01,0.01 0,0 -0.01,0.01 0,0 -0.01,0.01 0,0 0,0.01 -0.01,0 0,0 0,0.01 -0.01,0 0,0.01 -0.01,0 0,0.01 -0.01,0 0,0.01 -0.01,0.01 0,0 -0.01,0.01 -0.01,0 0,0.01 -0.01,0.01 -0.01,0.01 0,0 -0.01,0.01 -0.01,0.01 -0.01,0.01 c -1.24,1.25 -1.56,3.13 -1.56,4.65 0,1.73 0.38,3.47 1.6,4.71 0.13,0.12 0.13,0.14 0.13,0.17 0,0.07 -0.04,0.1 -0.1,0.1 -0.1,0 -0.99,-0.68 -1.58,-1.94 -0.51,-1.1 -0.63,-2.2 -0.63,-3.04 0,-0.77 0.11,-1.98 0.66,-3.1 0.6,-1.23 1.45,-1.87 1.55,-1.87 0.06,0 0.1,0.03 0.1,0.1 z"
   inkscape:connector-curvature="0"
   style="fill:#000000;stroke-width:0" />
<path
   id="path3425"
   d="m 251.58,713.34 0,0.02 0,0.02 -0.01,0.02 0,0.02 0,0.01 -0.01,0.02 0,0.02 -0.01,0.02 0,0.01 -0.01,0.02 -0.01,0.01 -0.01,0.02 -0.01,0.01 -0.01,0.01 -0.01,0.02 -0.01,0.01 -0.01,0.01 -0.02,0.01 -0.01,0.01 -0.01,0.01 -0.02,0.01 -0.01,0.01 -0.02,0.01 -0.02,0.01 -0.01,0 -0.02,0.01 -0.02,0 -0.02,0.01 -0.02,0 -0.02,0 -0.02,0 -0.02,0 c -0.27,0 -0.54,-0.25 -0.54,-0.52 0,-0.19 0.14,-0.36 0.38,-0.36 0.23,0 0.53,0.23 0.53,0.52 z"
   inkscape:connector-curvature="0"
   style="fill:#000000;stroke-width:0" />
<path
   id="path3427"
   d="m 250.82,709.6 0.01,0.03 0.01,0.02 0.01,0.03 0.01,0.02 0.01,0.02 0.01,0.02 0,0.02 0.01,0.02 0.01,0.01 0,0.02 0.01,0.02 0.01,0.01 0,0.02 0.01,0.01 0.01,0.03 0.01,0.03 0.01,0.03 0,0.01 0.01,0.02 0,0.01 0.01,0.02 0.01,0.01 0,0.02 0.01,0.02 0.01,0.02 0,0.02 0.01,0.02 0.01,0.03 0.01,0.02 c 0.08,0.2 0.13,0.34 0.13,0.53 0,0.45 -0.32,0.81 -0.82,0.81 -0.94,0 -1.31,-1.44 -1.31,-1.53 0,-0.1 0.1,-0.1 0.12,-0.1 0.1,0 0.1,0.02 0.16,0.18 0.26,0.94 0.66,1.23 1,1.23 0.08,0 0.25,0 0.25,-0.31 0,-0.21 -0.07,-0.42 -0.11,-0.52 -0.08,-0.26 -0.53,-1.41 -0.69,-1.84 -0.1,-0.26 -0.23,-0.59 -0.23,-0.8 0,-0.47 0.34,-0.81 0.82,-0.81 0.94,0 1.31,1.44 1.31,1.53 0,0.1 -0.09,0.1 -0.12,0.1 -0.1,0 -0.1,-0.03 -0.15,-0.18 -0.18,-0.63 -0.51,-1.24 -1.02,-1.24 -0.17,0 -0.24,0.1 -0.24,0.33 0,0.25 0.06,0.39 0.29,1 z"
   inkscape:connector-curvature="0"
   style="fill:#000000;stroke-width:0" />
<path
   id="path3429"
   d="m 254.2,707.14 0,0.06 0,0.06 0,0.05 -0.01,0.06 0,0.05 -0.01,0.06 -0.01,0.05 -0.01,0.05 -0.01,0.04 -0.02,0.05 -0.01,0.04 -0.02,0.04 -0.01,0.04 -0.02,0.04 -0.02,0.04 -0.02,0.03 -0.02,0.04 -0.02,0.03 -0.03,0.03 -0.02,0.02 -0.03,0.03 -0.03,0.02 -0.02,0.02 -0.03,0.02 -0.03,0.02 -0.03,0.01 -0.03,0.01 -0.04,0.01 -0.03,0.01 -0.03,0.01 -0.04,0 -0.03,0 c -0.33,0 -0.53,-0.25 -0.53,-0.53 0,-0.27 0.2,-0.52 0.53,-0.52 0.11,0 0.24,0.03 0.34,0.12 0.03,0.02 0.04,0.03 0.05,0.03 0.01,0 0.02,-0.01 0.02,-0.14 0,-0.74 -0.35,-1.34 -0.67,-1.67 -0.11,-0.11 -0.11,-0.13 -0.11,-0.16 0,-0.07 0.05,-0.11 0.1,-0.11 0.1,0 0.9,0.77 0.9,1.94 z"
   inkscape:connector-curvature="0"
   style="fill:#000000;stroke-width:0" />
<polygon
   id="polygon3431"
   points="257.82,712.82 258,712.64 259.15,713.65 260.3,712.64 260.48,712.82 259.15,714.17 "
   style="fill:#000000;stroke-width:0" />
<path
   id="path3433"
   d="m 261.08,711.12 0.01,0.01 0.01,0.01 0,0 0.01,0.01 0.01,0.01 0,0.01 0.01,0.01 0,0 0.01,0.01 0,0.01 0.01,0 0,0.01 0,0.01 0.01,0 0,0.01 0,0 0.01,0.01 0,0 0,0.01 0,0 0,0.01 0.01,0.01 0,0 0,0.01 0,0 0,0.01 0,0.01 0,0 0,0.01 0,0.01 0,0.01 0,0.01 c 0,0.2 -0.14,0.2 -0.32,0.2 h -3.66 l -0.12,-1.74 h 0.47 c 0.06,1.03 0.37,1.39 1.4,1.39 h 0.85 l -2.78,-3.63 c -0.09,-0.11 -0.09,-0.13 -0.09,-0.22 0,-0.21 0.13,-0.21 0.31,-0.21 h 3.79 l 0.18,2.01 h -0.47 c -0.09,-1.01 -0.25,-1.62 -1.56,-1.62 h -0.86 z"
   inkscape:connector-curvature="0"
   style="fill:#000000;stroke-width:0" />
<path
   id="path3435"
   d="m 264.21,713.73 v -0.25 c 0.47,0 0.52,-0.05 0.52,-0.39 v -1.19 c 0,-0.61 -0.39,-1.04 -0.92,-1.04 -0.64,0 -0.66,0.3 -0.66,0.66 v 2.29 l -1.07,-0.08 v -0.25 c 0.52,0 0.52,-0.02 0.52,-0.64 v -1.04 c 0,-0.48 0,-1.13 1.16,-1.13 0.15,0 0.66,0 1,0.59 h 0 v -0.59 l 1.05,0.07 v 0.25 c -0.47,0 -0.52,0.05 -0.52,0.39 v 2.43 z"
   inkscape:connector-curvature="0"
   style="fill:#000000;stroke-width:0" />
<path
   id="path3437"
   d="m 267.5,713.49 h 1.09 v 0.25 h -1.09 v 1.28 h -0.24 c 0,-0.63 -0.29,-1.32 -0.96,-1.34 v -0.19 h 0.65 v -1.88 c 0,-0.78 0.58,-0.94 0.97,-0.94 0.47,0 0.79,0.4 0.79,0.95 V 712 h -0.24 v -0.38 c 0,-0.47 -0.22,-0.73 -0.49,-0.73 -0.48,0 -0.48,0.59 -0.48,0.71 z"
   inkscape:connector-curvature="0"
   style="fill:#000000;stroke-width:0" />
<path
   id="path3439"
   d="m 272.9,712.22 -0.01,0.08 0,0.08 -0.01,0.08 -0.02,0.08 -0.02,0.08 -0.02,0.07 -0.02,0.08 -0.03,0.07 -0.04,0.07 -0.04,0.07 -0.04,0.07 -0.04,0.07 -0.05,0.06 -0.05,0.06 -0.05,0.06 -0.06,0.06 -0.06,0.05 -0.06,0.05 -0.06,0.05 -0.07,0.05 -0.07,0.04 -0.07,0.04 -0.07,0.04 -0.08,0.03 -0.08,0.03 -0.08,0.03 -0.08,0.02 -0.08,0.02 -0.09,0.01 -0.08,0.01 -0.09,0.01 -0.09,0 v -0.19 c 0.41,0 0.7,-0.2 0.86,-0.41 0.19,-0.27 0.21,-0.62 0.21,-0.96 0,-0.33 -0.02,-0.7 -0.22,-0.98 -0.19,-0.27 -0.51,-0.41 -0.85,-0.41 h 0 c -0.26,0 -0.63,0.09 -0.86,0.43 -0.19,0.28 -0.21,0.64 -0.21,0.96 0,0.3 0.01,0.71 0.25,1.01 0.17,0.2 0.46,0.36 0.82,0.36 v 0.19 c -0.96,0 -1.71,-0.75 -1.71,-1.62 0,-0.86 0.77,-1.55 1.71,-1.55 0.94,0 1.71,0.69 1.71,1.55 z"
   inkscape:connector-curvature="0"
   style="fill:#000000;stroke-width:0" />
<path
   id="path3441"
   d="m 275.12,709.64 -0.02,0 -0.02,0 -0.02,0 -0.02,0 -0.02,0 -0.02,0 -0.02,0 -0.01,0 -0.02,0 -0.02,0 -0.01,0 -0.02,0 -0.01,0 -0.02,0 -0.01,0 -0.01,0.01 -0.02,0 -0.01,0 -0.02,0 -0.02,0 -0.02,0.01 -0.02,0 -0.02,0.01 -0.02,0 -0.01,0.01 -0.01,0.01 -0.02,0 -0.01,0.01 -0.01,0.01 0,0.02 -0.01,0.01 -0.01,0.01 0,0.02 -0.01,0.01 0,0.02 -0.01,0.02 0,0.02 0,0.02 0,0.03 0,0.02 0,0.03 v 1.13 c 0.03,-0.03 0.36,-0.4 0.95,-0.4 l -0.05,0.19 c -0.61,0 -0.88,0.54 -0.9,0.58 v 1.61 c 0.21,0.35 0.61,0.53 0.98,0.53 0.59,0 1.04,-0.61 1.04,-1.34 0,-0.79 -0.52,-1.38 -1.12,-1.38 l 0.05,-0.19 c 0.91,0 1.7,0.69 1.7,1.57 0,0.86 -0.71,1.57 -1.59,1.57 -0.4,0 -0.8,-0.15 -1.09,-0.43 v 0.43 l -1.05,-0.08 v -0.25 c 0.49,0 0.53,-0.03 0.53,-0.33 v -3.21 c 0,-0.3 -0.07,-0.3 -0.53,-0.3 v -0.25 c 0.02,0 0.51,0.03 0.8,0.03 0.26,0 0.74,-0.02 0.8,-0.03 z"
   inkscape:connector-curvature="0"
   style="fill:#000000;stroke-width:0" />
<path
   id="path3443"
   d="m 281.38,704.74 0,0 0,0.01 0,0 0,0 0,0.01 0,0 0,0 0,0.01 0,0 -0.01,0 0,0.01 0,0 -0.01,0.01 0,0 0,0.01 -0.01,0.01 0,0 -0.01,0.01 0,0 -0.01,0.01 0,0 0,0.01 -0.01,0 0,0 -0.01,0.01 0,0 0,0.01 -0.01,0 0,0.01 -0.01,0 0,0.01 -0.01,0.01 -0.01,0 0,0.01 -0.01,0 0,0.01 -0.01,0.01 -0.01,0.01 -0.01,0 0,0.01 -0.01,0.01 -0.01,0.01 c -1.24,1.25 -1.56,3.13 -1.56,4.65 0,1.73 0.38,3.47 1.6,4.71 0.13,0.12 0.13,0.14 0.13,0.17 0,0.07 -0.04,0.1 -0.1,0.1 -0.1,0 -0.99,-0.68 -1.58,-1.94 -0.51,-1.1 -0.63,-2.2 -0.63,-3.04 0,-0.77 0.11,-1.98 0.66,-3.1 0.6,-1.23 1.45,-1.87 1.55,-1.87 0.06,0 0.1,0.03 0.1,0.1 z"
   inkscape:connector-curvature="0"
   style="fill:#000000;stroke-width:0" />
<path
   id="path3445"
   d="m 285.91,713.34 0,0.02 0,0.02 0,0.02 0,0.01 -0.01,0.02 0,0.02 -0.01,0.01 0,0.02 -0.01,0.02 -0.01,0.01 0,0.02 -0.01,0.01 -0.01,0.02 -0.01,0.01 -0.01,0.01 -0.02,0.02 -0.01,0.01 -0.01,0.01 -0.02,0.01 -0.01,0.01 -0.02,0.01 -0.01,0.01 -0.02,0.01 -0.02,0 -0.01,0.01 -0.02,0.01 -0.02,0 -0.02,0.01 -0.02,0 -0.02,0 -0.02,0 -0.02,0 c -0.24,0 -0.53,-0.23 -0.53,-0.52 0,-0.2 0.14,-0.36 0.37,-0.36 0.26,0 0.53,0.26 0.53,0.52 z"
   inkscape:connector-curvature="0"
   style="fill:#000000;stroke-width:0" />
<path
   id="path3447"
   d="m 283.91,706.63 -0.02,-0.07 -0.02,-0.07 -0.02,-0.07 -0.02,-0.07 -0.03,-0.06 -0.03,-0.07 -0.02,-0.06 -0.03,-0.06 -0.03,-0.06 -0.04,-0.05 -0.03,-0.06 -0.03,-0.05 -0.04,-0.06 -0.04,-0.05 -0.04,-0.04 -0.03,-0.05 -0.05,-0.04 -0.04,-0.04 -0.04,-0.04 -0.04,-0.04 -0.05,-0.03 -0.04,-0.03 -0.05,-0.03 -0.05,-0.03 -0.04,-0.02 -0.05,-0.02 -0.05,-0.02 -0.05,-0.01 -0.05,-0.01 -0.05,-0.01 -0.05,0 -0.06,-0.01 c -0.06,0 -0.21,0 -0.38,0.09 0.29,0.07 0.44,0.33 0.44,0.53 0,0.16 -0.11,0.35 -0.38,0.35 -0.24,0 -0.53,-0.21 -0.53,-0.57 0,-0.4 0.4,-0.61 0.87,-0.61 0.7,0 1.63,0.52 1.88,1.51 l 0.91,3.64 c 0.06,0.2 0.06,0.34 0.06,0.37 0,0.57 -0.42,0.91 -0.92,0.91 -1.02,0 -1.59,-1.44 -1.59,-1.53 0,-0.1 0.1,-0.1 0.12,-0.1 0.09,0 0.1,0.01 0.18,0.2 0.25,0.61 0.71,1.21 1.26,1.21 0.14,0 0.32,-0.03 0.32,-0.45 0,-0.23 -0.03,-0.34 -0.07,-0.51 z"
   inkscape:connector-curvature="0"
   style="fill:#000000;stroke-width:0" />
<path
   id="path3449"
   d="m 289.51,709.61 0,0.08 0,0.07 0,0.08 -0.01,0.08 0,0.17 -0.02,0.18 -0.01,0.18 -0.02,0.19 -0.03,0.2 -0.03,0.19 -0.04,0.21 -0.05,0.21 -0.05,0.21 -0.06,0.21 -0.07,0.21 -0.08,0.21 -0.05,0.11 -0.04,0.11 -0.05,0.1 -0.05,0.11 c -0.6,1.22 -1.45,1.87 -1.55,1.87 -0.06,0 -0.1,-0.04 -0.1,-0.1 0,-0.03 0,-0.05 0.19,-0.23 0.97,-0.98 1.54,-2.57 1.54,-4.65 0,-1.7 -0.37,-3.45 -1.6,-4.7 -0.13,-0.12 -0.13,-0.14 -0.13,-0.17 0,-0.06 0.04,-0.1 0.1,-0.1 0.1,0 0.99,0.67 1.58,1.94 0.51,1.09 0.63,2.2 0.63,3.03 z"
   inkscape:connector-curvature="0"
   style="fill:#000000;stroke-width:0" />
<path
   id="path3451"
   d="m 293.38,709.61 0,0.08 0,0.07 0,0.08 0,0.08 -0.01,0.17 -0.01,0.18 -0.02,0.18 -0.02,0.19 -0.03,0.2 -0.03,0.19 -0.04,0.21 -0.04,0.21 -0.06,0.21 -0.06,0.21 -0.07,0.21 -0.08,0.21 -0.04,0.11 -0.05,0.11 -0.04,0.1 -0.05,0.11 c -0.6,1.22 -1.46,1.87 -1.56,1.87 -0.06,0 -0.1,-0.04 -0.1,-0.1 0,-0.03 0,-0.05 0.19,-0.23 0.98,-0.98 1.55,-2.57 1.55,-4.65 0,-1.7 -0.37,-3.45 -1.61,-4.7 -0.13,-0.12 -0.13,-0.14 -0.13,-0.17 0,-0.06 0.04,-0.1 0.1,-0.1 0.1,0 1,0.67 1.59,1.94 0.51,1.09 0.62,2.2 0.62,3.03 z"
   inkscape:connector-curvature="0"
   style="fill:#000000;stroke-width:0" />
</g>  </g>
</svg>
