<?xml version="1.0" encoding="UTF-8" standalone="no"?>
<!-- Created with Inkscape (http://www.inkscape.org/) -->

<svg
   xmlns:ns0="http://www.iki.fi/pav/software/textext/"
   xmlns:dc="http://purl.org/dc/elements/1.1/"
   xmlns:cc="http://creativecommons.org/ns#"
   xmlns:rdf="http://www.w3.org/1999/02/22-rdf-syntax-ns#"
   xmlns:svg="http://www.w3.org/2000/svg"
   xmlns="http://www.w3.org/2000/svg"
   xmlns:sodipodi="http://sodipodi.sourceforge.net/DTD/sodipodi-0.dtd"
   xmlns:inkscape="http://www.inkscape.org/namespaces/inkscape"
   sodipodi:docname="conv.svg"
   inkscape:version="0.48.1 "
   version="1.1"
   id="svg2"
   height="278.60437"
   width="401.5629">
  <sodipodi:namedview
     id="base"
     pagecolor="#ffffff"
     bordercolor="#666666"
     borderopacity="1.0"
     inkscape:pageopacity="0.0"
     inkscape:pageshadow="2"
     inkscape:zoom="2.7601864"
     inkscape:cx="200.78145"
     inkscape:cy="139.30219"
     inkscape:document-units="px"
     inkscape:current-layer="layer1"
     showgrid="false"
     inkscape:window-width="1680"
     inkscape:window-height="988"
     inkscape:window-x="-8"
     inkscape:window-y="-8"
     inkscape:window-maximized="1"
     fit-margin-top="0"
     fit-margin-left="0"
     fit-margin-right="0"
     fit-margin-bottom="0">
    <inkscape:grid
       snapvisiblegridlinesonly="true"
       enabled="true"
       visible="true"
       empspacing="5"
       id="grid2985"
       type="xygrid" />
  </sodipodi:namedview>
  <defs
     id="defs4">
    <marker
       style="overflow:visible"
       id="TriangleOutL"
       refX="0"
       refY="0"
       orient="auto"
       inkscape:stockid="TriangleOutL">
      <path
         inkscape:connector-curvature="0"
         transform="scale(0.8,0.8)"
         style="fill-rule:evenodd;stroke:#000000;stroke-width:1pt;marker-start:none"
         d="m 5.77,0 -8.65,5 0,-10 8.65,5 z"
         id="path3909" />
    </marker>
    <marker
       style="overflow:visible"
       id="TriangleOutM"
       refX="0"
       refY="0"
       orient="auto"
       inkscape:stockid="TriangleOutM">
      <path
         inkscape:connector-curvature="0"
         transform="scale(0.4,0.4)"
         style="fill-rule:evenodd;stroke:#000000;stroke-width:1pt;marker-start:none"
         d="m 5.77,0 -8.65,5 0,-10 8.65,5 z"
         id="path3912" />
    </marker>
    <inkscape:path-effect
       is_visible="true"
       id="path-effect2993"
       effect="spiro" />
    <inkscape:path-effect
       is_visible="true"
       id="path-effect2989"
       effect="spiro" />
  </defs>
  <metadata
     id="metadata7">
    <rdf:RDF>
      <cc:Work
         rdf:about="">
        <dc:format>image/svg+xml</dc:format>
        <dc:type
           rdf:resource="http://purl.org/dc/dcmitype/StillImage" />
        <dc:title />
      </cc:Work>
    </rdf:RDF>
  </metadata>
  <g
     transform="translate(12.490295,-277.11261)"
     id="layer1"
     inkscape:groupmode="layer"
     inkscape:label="Layer 1">
    <path
       inkscape:connector-curvature="0"
       id="path4815-8"
       d="m 130,482.36218 80,-80"
       style="fill:none;stroke:#928f8f;stroke-width:2;stroke-linecap:butt;stroke-linejoin:miter;stroke-miterlimit:4;stroke-opacity:1;stroke-dasharray:6, 6;stroke-dashoffset:0" />
    <path
       inkscape:connector-curvature="0"
       id="path4815"
       d="m 90,492.36218 100,-100"
       style="fill:none;stroke:#928f8f;stroke-width:2;stroke-linecap:butt;stroke-linejoin:miter;stroke-miterlimit:4;stroke-opacity:1;stroke-dasharray:6, 6;stroke-dashoffset:0" />
    <path
       inkscape:connector-curvature="0"
       inkscape:original-d="m 30,532.36218 340,0"
       inkscape:path-effect="#path-effect2989"
       id="path2987"
       d="m 30,532.36218 340,0"
       style="fill:none;stroke:#000000;stroke-width:0.89973539px;stroke-linecap:butt;stroke-linejoin:miter;stroke-opacity:1;marker-end:url(#TriangleOutL)" />
    <path
       inkscape:connector-curvature="0"
       inkscape:original-d="m 50,552.36218 0,-270"
       inkscape:path-effect="#path-effect2993"
       id="path2991"
       d="m 50,552.36218 0,-270"
       style="fill:none;stroke:#000000;stroke-width:0.93325651px;stroke-linecap:butt;stroke-linejoin:miter;stroke-opacity:1;marker-end:url(#TriangleOutL)" />
    <path
       inkscape:connector-curvature="0"
       id="path4789"
       d="m 100,302.36218 c 0,0 5.33333,140 122.66667,170 117.33333,30 117.33333,30 117.33333,30"
       style="fill:none;stroke:#575757;stroke-width:2;stroke-linecap:butt;stroke-linejoin:miter;stroke-miterlimit:4;stroke-opacity:1;stroke-dasharray:none" />
    <path
       d="m 90,497.36218 c 0,2.76143 -2.238576,5 -5,5 -2.761424,0 -5,-2.23857 -5,-5 0,-2.76142 2.238576,-5 5,-5 2.761424,0 5,2.23858 5,5 z"
       sodipodi:ry="5"
       sodipodi:rx="5"
       sodipodi:cy="497.36218"
       sodipodi:cx="85"
       id="path4791"
       style="fill:#ff0000;fill-opacity:1;stroke:#ff0000;stroke-width:2;stroke-linecap:butt;stroke-miterlimit:4;stroke-opacity:1;stroke-dasharray:none;stroke-dashoffset:0"
       sodipodi:type="arc" />
    <path
       transform="translate(15,0)"
       d="m 120,487.36218 c 0,2.76143 -2.23858,5 -5,5 -2.76142,0 -5,-2.23857 -5,-5 0,-2.76142 2.23858,-5 5,-5 2.76142,0 5,2.23858 5,5 z"
       sodipodi:ry="5"
       sodipodi:rx="5"
       sodipodi:cy="487.36218"
       sodipodi:cx="115"
       id="path4793"
       style="fill:#004dff;fill-opacity:1;stroke:#004dff;stroke-width:2;stroke-linecap:butt;stroke-miterlimit:4;stroke-opacity:1;stroke-dasharray:none;stroke-dashoffset:0"
       sodipodi:type="arc" />
    <rect
       y="424.21625"
       x="146.29187"
       height="10"
       width="10"
       id="rect4795"
       style="fill:#ff0000;fill-opacity:1;stroke:#ff0000;stroke-width:2;stroke-linecap:butt;stroke-linejoin:miter;stroke-miterlimit:4;stroke-opacity:1;stroke-dasharray:none" />
    <rect
       y="441.43515"
       x="164.63516"
       height="10"
       width="10"
       id="rect4795-6"
       style="fill:#004dff;fill-opacity:1;stroke:#004dff;stroke-width:2;stroke-linecap:butt;stroke-linejoin:miter;stroke-miterlimit:4;stroke-opacity:1;stroke-dasharray:none" />
    <rect
       y="416.0531"
       x="231.39325"
       height="10"
       width="10"
       id="rect4795-6-5"
       style="fill:none;stroke:#004dff;stroke-width:2;stroke-linecap:butt;stroke-linejoin:miter;stroke-miterlimit:4;stroke-opacity:1;stroke-dasharray:none" />
    <path
       inkscape:connector-curvature="0"
       id="path5057"
       d="m 117.73312,492.43461 -16.68659,3.70813"
       style="fill:none;stroke:#000000;stroke-width:1px;stroke-linecap:butt;stroke-linejoin:miter;stroke-opacity:1;marker-end:url(#TriangleOutL)" />
    <text
       sodipodi:linespacing="125%"
       id="text5243"
       y="555.47284"
       x="299.43146"
       style="font-size:40px;font-style:normal;font-weight:normal;line-height:125%;letter-spacing:0px;word-spacing:0px;fill:#000000;fill-opacity:1;stroke:none;font-family:Sans"
       xml:space="preserve"><tspan
         style="font-size:20px"
         y="555.47284"
         x="299.43146"
         id="tspan5245"
         sodipodi:role="line">OBJ 1</tspan></text>
    <text
       sodipodi:linespacing="125%"
       id="text5243-8"
       y="313.26419"
       x="-13.457092"
       style="font-size:40px;font-style:normal;font-weight:normal;line-height:125%;letter-spacing:0px;word-spacing:0px;fill:#000000;fill-opacity:1;stroke:none;font-family:Sans"
       xml:space="preserve"><tspan
         style="font-size:20px"
         y="313.26419"
         x="-13.457092"
         id="tspan5245-3"
         sodipodi:role="line">OBJ 2</tspan></text>
    <rect
       y="329.83911"
       x="287.0152"
       height="10"
       width="10"
       id="rect4795-5"
       style="fill:#ff0000;fill-opacity:1;stroke:#ff0000;stroke-width:2;stroke-linecap:butt;stroke-linejoin:miter;stroke-miterlimit:4;stroke-opacity:1;stroke-dasharray:none" />
    <path
       d="m 90,497.36218 c 0,2.76143 -2.238576,5 -5,5 -2.761424,0 -5,-2.23857 -5,-5 0,-2.76142 2.238576,-5 5,-5 2.761424,0 5,2.23858 5,5 z"
       sodipodi:ry="5"
       sodipodi:rx="5"
       sodipodi:cy="497.36218"
       sodipodi:cx="85"
       id="path4791-9"
       style="fill:#ff0000;fill-opacity:1;stroke:#ff0000;stroke-width:2;stroke-linecap:butt;stroke-miterlimit:4;stroke-opacity:1;stroke-dasharray:none;stroke-dashoffset:0"
       sodipodi:type="arc"
       transform="translate(207.01521,-186.62593)" />
    <rect
       y="404.92871"
       x="287.0152"
       height="10"
       width="10"
       id="rect4795-6-5-6"
       style="fill:none;stroke:#004dff;stroke-width:2;stroke-linecap:butt;stroke-linejoin:miter;stroke-miterlimit:4;stroke-opacity:1;stroke-dasharray:none" />
    <rect
       y="380.82587"
       x="287.0152"
       height="10"
       width="10"
       id="rect4795-6-2"
       style="fill:#004dff;fill-opacity:1;stroke:#004dff;stroke-width:2;stroke-linecap:butt;stroke-linejoin:miter;stroke-miterlimit:4;stroke-opacity:1;stroke-dasharray:none" />
    <path
       transform="translate(177.94224,-124.71211)"
       d="m 120,487.36218 c 0,2.76143 -2.23858,5 -5,5 -2.76142,0 -5,-2.23857 -5,-5 0,-2.76142 2.23858,-5 5,-5 2.76142,0 5,2.23858 5,5 z"
       sodipodi:ry="5"
       sodipodi:rx="5"
       sodipodi:cy="487.36218"
       sodipodi:cx="115"
       id="path4793-3"
       style="fill:#004dff;fill-opacity:1;stroke:#004dff;stroke-width:2;stroke-linecap:butt;stroke-miterlimit:4;stroke-opacity:1;stroke-dasharray:none;stroke-dashoffset:0"
       sodipodi:type="arc" />
    <g
       ns0:preamble=""
       ns0:text="$ \\mathbf{z}^{*} $"
       word-spacing="normal"
       letter-spacing="normal"
       font-size-adjust="none"
       font-stretch="normal"
       font-weight="normal"
       font-variant="normal"
       font-style="normal"
       stroke-miterlimit="10.433"
       xml:space="preserve"
       transform="matrix(2,0,0,-2,-131.1606,1730.8311)"
       id="content"
       style="font-style:normal;font-variant:normal;font-weight:normal;font-stretch:normal;letter-spacing:normal;word-spacing:normal;text-anchor:start;fill:none;stroke:#000000;stroke-linecap:butt;stroke-linejoin:miter;stroke-miterlimit:10.43299961;stroke-opacity:1;stroke-dasharray:none;stroke-dashoffset:0">
<path
   id="path5411"
   d="m 227.91,711.12 0.01,0.01 0,0.01 0.01,0 0.01,0.01 0,0.01 0.01,0.01 0,0.01 0.01,0 0,0.01 0.01,0.01 0,0 0,0.01 0.01,0.01 0,0 0,0.01 0.01,0 0,0.01 0,0 0,0.01 0.01,0 0,0.01 0,0.01 0,0 0,0.01 0,0 0,0.01 0.01,0.01 0,0 0,0.01 0,0.01 0,0.01 0,0.01 c 0,0.2 -0.14,0.2 -0.32,0.2 h -3.66 l -0.12,-1.74 h 0.47 c 0.06,1.03 0.37,1.39 1.39,1.39 h 0.85 l -2.78,-3.63 c -0.09,-0.11 -0.09,-0.13 -0.09,-0.22 0,-0.21 0.13,-0.21 0.32,-0.21 h 3.79 l 0.18,2.01 h -0.47 c -0.09,-1.01 -0.25,-1.62 -1.57,-1.62 h -0.85 z"
   inkscape:connector-curvature="0"
   style="fill:#000000;stroke-width:0" />
<path
   id="path5413"
   d="m 230.77,712.47 0.06,0.02 0.05,0.03 0.05,0.02 0.04,0.02 0.05,0.02 0.04,0.02 0.05,0.02 0.04,0.01 0.04,0.02 0.03,0.02 0.04,0.01 0.04,0.02 0.03,0.01 0.03,0.01 0.03,0.02 0.03,0.01 0.03,0.01 0.03,0.01 0.03,0.01 0.02,0.02 0.03,0.01 0.02,0.01 0.02,0.01 0.03,0 0.02,0.01 0.02,0.01 0.04,0.02 0.03,0.02 0.04,0.01 c 0.13,0.06 0.19,0.09 0.19,0.22 0,0.12 -0.09,0.22 -0.21,0.22 -0.05,0 -0.07,0 -0.15,-0.06 l -0.95,-0.63 0.11,1.02 c 0.01,0.13 0,0.3 -0.21,0.3 -0.09,0 -0.22,-0.05 -0.22,-0.2 0,-0.07 0.03,-0.28 0.04,-0.35 0.01,-0.11 0.06,-0.62 0.07,-0.77 l -0.94,0.63 c -0.07,0.04 -0.09,0.06 -0.15,0.06 -0.13,0 -0.22,-0.1 -0.22,-0.22 0,-0.14 0.09,-0.18 0.15,-0.2 l 1.05,-0.44 c -0.57,-0.25 -0.83,-0.35 -1,-0.43 -0.13,-0.06 -0.2,-0.09 -0.2,-0.22 0,-0.12 0.09,-0.22 0.22,-0.22 0.05,0 0.06,0 0.15,0.06 l 0.94,0.63 -0.11,-1.12 c 0,-0.15 0.13,-0.2 0.22,-0.2 0.08,0 0.21,0.05 0.21,0.2 0,0.07 -0.02,0.28 -0.03,0.35 -0.01,0.11 -0.06,0.62 -0.08,0.77 l 0.84,-0.55 c 0.18,-0.14 0.19,-0.14 0.26,-0.14 0.12,0 0.21,0.1 0.21,0.22 0,0.14 -0.08,0.18 -0.15,0.2 z"
   inkscape:connector-curvature="0"
   style="fill:#000000;stroke-width:0" />
</g>    <g
       ns0:preamble=""
       ns0:text="$ \\mathbf{c} ( \\mathbf{z}^{*} ) $"
       word-spacing="normal"
       letter-spacing="normal"
       font-size-adjust="none"
       font-stretch="normal"
       font-weight="normal"
       font-variant="normal"
       font-style="normal"
       stroke-miterlimit="10.433"
       xml:space="preserve"
       transform="matrix(2,0,0,-2,-134.86873,1754.0069)"
       id="g5571"
       style="font-style:normal;font-variant:normal;font-weight:normal;font-stretch:normal;letter-spacing:normal;word-spacing:normal;text-anchor:start;fill:none;stroke:#000000;stroke-linecap:butt;stroke-linejoin:miter;stroke-miterlimit:10.43299961;stroke-opacity:1;stroke-dasharray:none;stroke-dashoffset:0">
<path
   id="path5573"
   d="m 227.02,711.18 -0.02,-0.02 -0.01,-0.01 -0.02,-0.02 -0.01,-0.02 -0.01,-0.01 -0.01,-0.02 -0.02,-0.01 -0.01,-0.02 -0.01,-0.02 -0.01,-0.01 0,-0.02 -0.01,-0.02 -0.01,-0.01 -0.01,-0.02 0,-0.01 -0.01,-0.02 0,-0.02 -0.01,-0.01 0,-0.02 0,-0.01 -0.01,-0.01 0,-0.02 0,-0.01 0,-0.02 0,-0.01 -0.01,-0.01 0,-0.01 0,-0.01 0,-0.01 0,-0.01 0,-0.01 0,-0.01 c 0,-0.44 0.35,-0.63 0.62,-0.63 0.31,0 0.63,0.21 0.63,0.63 0,0.85 -1.16,0.91 -1.74,0.91 -1.78,0 -2.52,-1.14 -2.52,-2.3 0,-1.32 0.94,-2.26 2.47,-2.26 1.62,0 1.92,1.15 1.92,1.22 0,0.14 -0.14,0.14 -0.24,0.14 -0.18,0 -0.19,-0.02 -0.24,-0.15 -0.26,-0.63 -0.74,-0.82 -1.25,-0.82 -1.38,0 -1.38,1.47 -1.38,1.92 0,0.56 0,1.85 1.28,1.85 0.35,0 0.52,-0.02 0.65,-0.05 z"
   inkscape:connector-curvature="0"
   style="fill:#000000;stroke-width:0" />
<path
   id="path5575"
   d="m 231.82,704.74 0,0 0,0.01 0,0 0,0 0,0.01 0,0 0,0 0,0.01 0,0 0,0 -0.01,0.01 0,0 0,0.01 -0.01,0 0,0.01 -0.01,0.01 0,0 -0.01,0.01 0,0 0,0.01 -0.01,0 0,0.01 -0.01,0 0,0 0,0.01 -0.01,0 0,0.01 -0.01,0 0,0.01 -0.01,0 0,0.01 -0.01,0.01 0,0 -0.01,0.01 -0.01,0 0,0.01 -0.01,0.01 -0.01,0.01 0,0 -0.01,0.01 -0.01,0.01 -0.01,0.01 c -1.24,1.25 -1.56,3.13 -1.56,4.65 0,1.73 0.38,3.47 1.6,4.71 0.13,0.12 0.13,0.14 0.13,0.17 0,0.07 -0.04,0.1 -0.1,0.1 -0.1,0 -0.99,-0.68 -1.58,-1.94 -0.51,-1.1 -0.63,-2.2 -0.63,-3.04 0,-0.77 0.11,-1.98 0.66,-3.1 0.6,-1.23 1.45,-1.87 1.55,-1.87 0.06,0 0.1,0.03 0.1,0.1 z"
   inkscape:connector-curvature="0"
   style="fill:#000000;stroke-width:0" />
<path
   id="path5577"
   d="m 236.87,711.12 0.01,0.01 0.01,0.01 0,0 0.01,0.01 0.01,0.01 0,0.01 0.01,0.01 0,0 0.01,0.01 0,0.01 0.01,0 0,0.01 0,0.01 0.01,0 0,0.01 0,0 0.01,0.01 0,0 0,0.01 0,0 0,0.01 0.01,0.01 0,0 0,0.01 0,0 0,0.01 0,0.01 0,0 0,0.01 0,0.01 0,0.01 0,0.01 c 0,0.2 -0.14,0.2 -0.32,0.2 H 233 l -0.12,-1.74 h 0.47 c 0.05,1.03 0.36,1.39 1.39,1.39 h 0.85 l -2.78,-3.63 c -0.09,-0.11 -0.09,-0.13 -0.09,-0.22 0,-0.21 0.13,-0.21 0.32,-0.21 h 3.78 l 0.18,2.01 h -0.46 c -0.09,-1.01 -0.25,-1.62 -1.57,-1.62 h -0.86 z"
   inkscape:connector-curvature="0"
   style="fill:#000000;stroke-width:0" />
<path
   id="path5579"
   d="m 239.74,712.47 0.05,0.02 0.05,0.03 0.05,0.02 0.05,0.02 0.05,0.02 0.04,0.02 0.04,0.02 0.04,0.01 0.04,0.02 0.04,0.02 0.04,0.01 0.03,0.02 0.04,0.01 0.03,0.01 0.03,0.02 0.03,0.01 0.03,0.01 0.03,0.01 0.02,0.01 0.03,0.02 0.02,0.01 0.03,0.01 0.02,0.01 0.02,0 0.02,0.01 0.02,0.01 0.04,0.02 0.04,0.02 0.03,0.01 c 0.14,0.06 0.2,0.09 0.2,0.22 0,0.12 -0.09,0.22 -0.22,0.22 -0.05,0 -0.06,0 -0.15,-0.06 l -0.94,-0.63 0.1,1.02 c 0.02,0.13 0,0.3 -0.21,0.3 -0.08,0 -0.21,-0.05 -0.21,-0.2 0,-0.07 0.03,-0.28 0.03,-0.35 0.02,-0.11 0.06,-0.62 0.08,-0.77 l -0.94,0.63 c -0.07,0.04 -0.09,0.06 -0.15,0.06 -0.13,0 -0.22,-0.1 -0.22,-0.22 0,-0.14 0.08,-0.18 0.15,-0.2 l 1.05,-0.44 c -0.57,-0.25 -0.83,-0.35 -1.01,-0.43 -0.13,-0.06 -0.19,-0.09 -0.19,-0.22 0,-0.12 0.09,-0.22 0.22,-0.22 0.05,0 0.06,0 0.14,0.06 l 0.95,0.63 -0.11,-1.12 c 0,-0.15 0.13,-0.2 0.21,-0.2 0.09,0 0.22,0.05 0.22,0.2 0,0.07 -0.03,0.28 -0.03,0.35 -0.02,0.11 -0.07,0.62 -0.08,0.77 l 0.83,-0.55 c 0.19,-0.14 0.2,-0.14 0.26,-0.14 0.13,0 0.22,0.1 0.22,0.22 0,0.14 -0.09,0.18 -0.15,0.2 z"
   inkscape:connector-curvature="0"
   style="fill:#000000;stroke-width:0" />
<path
   id="path5581"
   d="m 244.95,709.61 0,0.08 0,0.07 0,0.08 0,0.08 -0.01,0.17 -0.01,0.18 -0.02,0.18 -0.02,0.19 -0.03,0.2 -0.03,0.19 -0.04,0.21 -0.05,0.21 -0.05,0.21 -0.06,0.21 -0.07,0.21 -0.08,0.21 -0.04,0.11 -0.05,0.11 -0.05,0.1 -0.05,0.11 c -0.59,1.22 -1.45,1.87 -1.55,1.87 -0.06,0 -0.1,-0.04 -0.1,-0.1 0,-0.03 0,-0.05 0.19,-0.23 0.97,-0.98 1.54,-2.57 1.54,-4.65 0,-1.7 -0.37,-3.45 -1.6,-4.7 -0.13,-0.12 -0.13,-0.14 -0.13,-0.17 0,-0.06 0.04,-0.1 0.1,-0.1 0.1,0 1,0.67 1.58,1.94 0.51,1.09 0.63,2.2 0.63,3.03 z"
   inkscape:connector-curvature="0"
   style="fill:#000000;stroke-width:0" />
</g>    <g
       style="font-style:normal;font-variant:normal;font-weight:normal;font-stretch:normal;letter-spacing:normal;word-spacing:normal;text-anchor:start;fill:none;stroke:#000000;stroke-linecap:butt;stroke-linejoin:miter;stroke-miterlimit:10.43299961;stroke-opacity:1;stroke-dasharray:none;stroke-dashoffset:0"
       ns0:preamble=""
       ns0:text="$ \\hat{ \\mathbf{z} } ( j ) $"
       word-spacing="normal"
       letter-spacing="normal"
       font-size-adjust="none"
       font-stretch="normal"
       font-weight="normal"
       font-variant="normal"
       font-style="normal"
       stroke-miterlimit="10.433"
       xml:space="preserve"
       transform="matrix(2,0,0,-2,-131.1606,1781.8178)"
       id="g3290">
<polygon
   id="polygon3292"
   points="225.98,713.65 227.13,712.64 227.3,712.82 225.98,714.17 224.64,712.82 224.82,712.64 "
   style="fill:#000000;stroke-width:0" />
<path
   id="path3294"
   d="m 227.91,711.12 0.01,0.01 0,0.01 0.01,0 0.01,0.01 0,0.01 0.01,0.01 0,0.01 0.01,0 0,0.01 0.01,0.01 0,0 0,0.01 0.01,0.01 0,0 0,0.01 0.01,0 0,0.01 0,0 0,0.01 0.01,0 0,0.01 0,0.01 0,0 0,0.01 0,0 0,0.01 0.01,0.01 0,0 0,0.01 0,0.01 0,0.01 0,0.01 c 0,0.2 -0.14,0.2 -0.32,0.2 h -3.66 l -0.12,-1.74 h 0.47 c 0.06,1.03 0.37,1.39 1.39,1.39 h 0.85 l -2.78,-3.63 c -0.09,-0.11 -0.09,-0.13 -0.09,-0.22 0,-0.21 0.13,-0.21 0.32,-0.21 h 3.79 l 0.18,2.01 h -0.47 c -0.09,-1.01 -0.25,-1.62 -1.57,-1.62 h -0.85 z"
   inkscape:connector-curvature="0"
   style="fill:#000000;stroke-width:0" />
<path
   id="path3296"
   d="m 231.82,704.74 0,0 0,0.01 0,0 0,0 0,0.01 0,0 0,0 0,0.01 0,0 0,0 -0.01,0.01 0,0 0,0.01 -0.01,0 0,0.01 -0.01,0.01 0,0 -0.01,0.01 0,0 0,0.01 -0.01,0 0,0.01 -0.01,0 0,0 0,0.01 -0.01,0 0,0.01 -0.01,0 0,0.01 -0.01,0 0,0.01 -0.01,0.01 0,0 -0.01,0.01 -0.01,0 0,0.01 -0.01,0.01 -0.01,0.01 0,0 -0.01,0.01 -0.01,0.01 -0.01,0.01 c -1.24,1.25 -1.56,3.13 -1.56,4.65 0,1.73 0.38,3.47 1.6,4.71 0.13,0.12 0.13,0.14 0.13,0.17 0,0.07 -0.04,0.1 -0.1,0.1 -0.1,0 -0.99,-0.68 -1.58,-1.94 -0.51,-1.1 -0.63,-2.2 -0.63,-3.04 0,-0.77 0.11,-1.98 0.66,-3.1 0.6,-1.23 1.45,-1.87 1.55,-1.87 0.06,0 0.1,0.03 0.1,0.1 z"
   inkscape:connector-curvature="0"
   style="fill:#000000;stroke-width:0" />
<path
   id="path3298"
   d="m 236.35,713.34 0,0.02 0,0.02 0,0.02 0,0.01 -0.01,0.02 0,0.02 0,0.01 -0.01,0.02 -0.01,0.02 0,0.01 -0.01,0.02 -0.01,0.01 -0.01,0.02 -0.01,0.01 -0.01,0.01 -0.01,0.02 -0.02,0.01 -0.01,0.01 -0.01,0.01 -0.02,0.01 -0.01,0.01 -0.02,0.01 -0.02,0.01 -0.01,0 -0.02,0.01 -0.02,0.01 -0.02,0 -0.02,0.01 -0.02,0 -0.02,0 -0.02,0 -0.02,0 c -0.23,0 -0.53,-0.23 -0.53,-0.52 0,-0.2 0.14,-0.36 0.37,-0.36 0.27,0 0.53,0.26 0.53,0.52 z"
   inkscape:connector-curvature="0"
   style="fill:#000000;stroke-width:0" />
<path
   id="path3300"
   d="m 234.35,706.63 -0.02,-0.07 -0.02,-0.07 -0.02,-0.07 -0.02,-0.07 -0.03,-0.06 -0.02,-0.07 -0.03,-0.06 -0.03,-0.06 -0.03,-0.06 -0.03,-0.05 -0.04,-0.06 -0.03,-0.05 -0.04,-0.06 -0.04,-0.05 -0.03,-0.04 -0.04,-0.05 -0.04,-0.04 -0.04,-0.04 -0.05,-0.04 -0.04,-0.04 -0.05,-0.03 -0.04,-0.03 -0.05,-0.03 -0.04,-0.03 -0.05,-0.02 -0.05,-0.02 -0.05,-0.02 -0.05,-0.01 -0.05,-0.01 -0.05,-0.01 -0.05,0 -0.05,-0.01 c -0.06,0 -0.21,0 -0.39,0.09 0.3,0.07 0.45,0.33 0.45,0.53 0,0.16 -0.11,0.35 -0.38,0.35 -0.25,0 -0.54,-0.21 -0.54,-0.57 0,-0.4 0.4,-0.61 0.88,-0.61 0.69,0 1.62,0.52 1.87,1.51 l 0.92,3.64 c 0.05,0.2 0.05,0.34 0.05,0.37 0,0.57 -0.42,0.91 -0.92,0.91 -1.02,0 -1.58,-1.44 -1.58,-1.53 0,-0.1 0.09,-0.1 0.11,-0.1 0.09,0 0.1,0.01 0.18,0.2 0.25,0.61 0.71,1.21 1.26,1.21 0.14,0 0.32,-0.03 0.32,-0.45 0,-0.23 -0.03,-0.34 -0.07,-0.51 z"
   inkscape:connector-curvature="0"
   style="fill:#000000;stroke-width:0" />
<path
   id="path3302"
   d="m 239.95,709.61 0,0.08 0,0.07 0,0.08 0,0.08 -0.01,0.17 -0.01,0.18 -0.02,0.18 -0.02,0.19 -0.03,0.2 -0.03,0.19 -0.04,0.21 -0.05,0.21 -0.05,0.21 -0.06,0.21 -0.07,0.21 -0.08,0.21 -0.04,0.11 -0.05,0.11 -0.05,0.1 -0.05,0.11 c -0.59,1.22 -1.45,1.87 -1.55,1.87 -0.06,0 -0.1,-0.04 -0.1,-0.1 0,-0.03 0,-0.05 0.19,-0.23 0.97,-0.98 1.54,-2.57 1.54,-4.65 0,-1.7 -0.36,-3.45 -1.6,-4.7 -0.13,-0.12 -0.13,-0.14 -0.13,-0.17 0,-0.06 0.04,-0.1 0.1,-0.1 0.1,0 1,0.67 1.58,1.94 0.51,1.09 0.63,2.2 0.63,3.03 z"
   inkscape:connector-curvature="0"
   style="fill:#000000;stroke-width:0" />
</g>    <g
       id="g3422"
       transform="matrix(2,0,0,-2,-132.24724,1803.2018)"
       xml:space="preserve"
       stroke-miterlimit="10.433"
       font-style="normal"
       font-variant="normal"
       font-weight="normal"
       font-stretch="normal"
       font-size-adjust="none"
       letter-spacing="normal"
       word-spacing="normal"
       ns0:text="$ \\mathbf{c} ( \\hat{ \\mathbf{z}  }  ( j ) ) $"
       ns0:preamble=""
       style="font-style:normal;font-variant:normal;font-weight:normal;font-stretch:normal;letter-spacing:normal;word-spacing:normal;text-anchor:start;fill:none;stroke:#000000;stroke-linecap:butt;stroke-linejoin:miter;stroke-miterlimit:10.43299961;stroke-opacity:1;stroke-dasharray:none;stroke-dashoffset:0">
<path
   d="m 227.02,711.18 -0.02,-0.02 -0.01,-0.01 -0.02,-0.02 -0.01,-0.02 -0.01,-0.01 -0.01,-0.02 -0.02,-0.01 -0.01,-0.02 -0.01,-0.02 -0.01,-0.01 0,-0.02 -0.01,-0.02 -0.01,-0.01 -0.01,-0.02 0,-0.01 -0.01,-0.02 0,-0.02 -0.01,-0.01 0,-0.02 0,-0.01 -0.01,-0.01 0,-0.02 0,-0.01 0,-0.02 0,-0.01 -0.01,-0.01 0,-0.01 0,-0.01 0,-0.01 0,-0.01 0,-0.01 0,-0.01 c 0,-0.44 0.35,-0.63 0.62,-0.63 0.31,0 0.63,0.21 0.63,0.63 0,0.85 -1.16,0.91 -1.74,0.91 -1.78,0 -2.52,-1.14 -2.52,-2.3 0,-1.32 0.94,-2.26 2.47,-2.26 1.62,0 1.92,1.15 1.92,1.22 0,0.14 -0.14,0.14 -0.24,0.14 -0.18,0 -0.19,-0.02 -0.24,-0.15 -0.26,-0.63 -0.74,-0.82 -1.25,-0.82 -1.38,0 -1.38,1.47 -1.38,1.92 0,0.56 0,1.85 1.28,1.85 0.35,0 0.52,-0.02 0.65,-0.05 z"
   id="path3424"
   inkscape:connector-curvature="0"
   style="fill:#000000;stroke-width:0" />
<path
   d="m 231.82,704.74 0,0 0,0.01 0,0 0,0 0,0.01 0,0 0,0 0,0.01 0,0 0,0 -0.01,0.01 0,0 0,0.01 -0.01,0 0,0.01 -0.01,0.01 0,0 -0.01,0.01 0,0 0,0.01 -0.01,0 0,0.01 -0.01,0 0,0 0,0.01 -0.01,0 0,0.01 -0.01,0 0,0.01 -0.01,0 0,0.01 -0.01,0.01 0,0 -0.01,0.01 -0.01,0 0,0.01 -0.01,0.01 -0.01,0.01 0,0 -0.01,0.01 -0.01,0.01 -0.01,0.01 c -1.24,1.25 -1.56,3.13 -1.56,4.65 0,1.73 0.38,3.47 1.6,4.71 0.13,0.12 0.13,0.14 0.13,0.17 0,0.07 -0.04,0.1 -0.1,0.1 -0.1,0 -0.99,-0.68 -1.58,-1.94 -0.51,-1.1 -0.63,-2.2 -0.63,-3.04 0,-0.77 0.11,-1.98 0.66,-3.1 0.6,-1.23 1.45,-1.87 1.55,-1.87 0.06,0 0.1,0.03 0.1,0.1 z"
   id="path3426"
   inkscape:connector-curvature="0"
   style="fill:#000000;stroke-width:0" />
<polygon
   points="234.95,713.65 236.09,712.64 236.27,712.82 234.95,714.17 233.61,712.82 233.79,712.64 "
   id="polygon3428"
   style="fill:#000000;stroke-width:0" />
<path
   d="m 236.87,711.12 0.01,0.01 0.01,0.01 0,0 0.01,0.01 0.01,0.01 0,0.01 0.01,0.01 0,0 0.01,0.01 0,0.01 0.01,0 0,0.01 0,0.01 0.01,0 0,0.01 0,0 0.01,0.01 0,0 0,0.01 0,0 0,0.01 0.01,0.01 0,0 0,0.01 0,0 0,0.01 0,0.01 0,0 0,0.01 0,0.01 0,0.01 0,0.01 c 0,0.2 -0.14,0.2 -0.32,0.2 H 233 l -0.12,-1.74 h 0.47 c 0.05,1.03 0.36,1.39 1.39,1.39 h 0.85 l -2.78,-3.63 c -0.09,-0.11 -0.09,-0.13 -0.09,-0.22 0,-0.21 0.13,-0.21 0.32,-0.21 h 3.78 l 0.18,2.01 h -0.46 c -0.09,-1.01 -0.25,-1.62 -1.57,-1.62 h -0.86 z"
   id="path3430"
   inkscape:connector-curvature="0"
   style="fill:#000000;stroke-width:0" />
<path
   d="m 240.79,704.74 0,0 0,0.01 0,0 0,0 0,0.01 0,0 0,0 -0.01,0.01 0,0 0,0 0,0.01 0,0 -0.01,0.01 0,0 -0.01,0.01 0,0.01 -0.01,0 0,0.01 0,0 -0.01,0.01 0,0 -0.01,0.01 0,0 0,0 -0.01,0.01 0,0 -0.01,0.01 0,0 -0.01,0.01 0,0 -0.01,0.01 0,0.01 -0.01,0 0,0.01 -0.01,0 -0.01,0.01 0,0.01 -0.01,0.01 -0.01,0 0,0.01 -0.01,0.01 -0.01,0.01 c -1.25,1.25 -1.57,3.13 -1.57,4.65 0,1.73 0.38,3.47 1.61,4.71 0.13,0.12 0.13,0.14 0.13,0.17 0,0.07 -0.04,0.1 -0.1,0.1 -0.1,0 -1,-0.68 -1.59,-1.94 -0.5,-1.1 -0.62,-2.2 -0.62,-3.04 0,-0.77 0.11,-1.98 0.65,-3.1 0.6,-1.23 1.46,-1.87 1.56,-1.87 0.06,0 0.1,0.03 0.1,0.1 z"
   id="path3432"
   inkscape:connector-curvature="0"
   style="fill:#000000;stroke-width:0" />
<path
   d="m 245.32,713.34 0,0.02 0,0.02 0,0.02 0,0.01 -0.01,0.02 0,0.02 -0.01,0.01 0,0.02 -0.01,0.02 -0.01,0.01 -0.01,0.02 0,0.01 -0.01,0.02 -0.01,0.01 -0.02,0.01 -0.01,0.02 -0.01,0.01 -0.01,0.01 -0.02,0.01 -0.01,0.01 -0.02,0.01 -0.01,0.01 -0.02,0.01 -0.02,0 -0.01,0.01 -0.02,0.01 -0.02,0 -0.02,0.01 -0.02,0 -0.02,0 -0.02,0 -0.03,0 c -0.23,0 -0.53,-0.23 -0.53,-0.52 0,-0.2 0.14,-0.36 0.37,-0.36 0.27,0 0.54,0.26 0.54,0.52 z"
   id="path3434"
   inkscape:connector-curvature="0"
   style="fill:#000000;stroke-width:0" />
<path
   d="m 243.32,706.63 -0.02,-0.07 -0.02,-0.07 -0.02,-0.07 -0.03,-0.07 -0.02,-0.06 -0.03,-0.07 -0.02,-0.06 -0.03,-0.06 -0.04,-0.06 -0.03,-0.05 -0.03,-0.06 -0.04,-0.05 -0.03,-0.06 -0.04,-0.05 -0.04,-0.04 -0.04,-0.05 -0.04,-0.04 -0.04,-0.04 -0.04,-0.04 -0.04,-0.04 -0.05,-0.03 -0.04,-0.03 -0.05,-0.03 -0.05,-0.03 -0.04,-0.02 -0.05,-0.02 -0.05,-0.02 -0.05,-0.01 -0.05,-0.01 -0.05,-0.01 -0.05,0 -0.06,-0.01 c -0.06,0 -0.21,0 -0.39,0.09 0.3,0.07 0.45,0.33 0.45,0.53 0,0.16 -0.11,0.35 -0.38,0.35 -0.25,0 -0.53,-0.21 -0.53,-0.57 0,-0.4 0.39,-0.61 0.87,-0.61 0.7,0 1.63,0.52 1.88,1.51 l 0.91,3.64 c 0.05,0.2 0.05,0.34 0.05,0.37 0,0.57 -0.41,0.91 -0.91,0.91 -1.02,0 -1.59,-1.44 -1.59,-1.53 0,-0.1 0.1,-0.1 0.12,-0.1 0.09,0 0.1,0.01 0.18,0.2 0.25,0.61 0.71,1.21 1.26,1.21 0.14,0 0.32,-0.03 0.32,-0.45 0,-0.23 -0.03,-0.34 -0.07,-0.51 z"
   id="path3436"
   inkscape:connector-curvature="0"
   style="fill:#000000;stroke-width:0" />
<path
   d="m 248.92,709.61 0,0.08 0,0.07 0,0.08 -0.01,0.08 0,0.17 -0.02,0.18 -0.01,0.18 -0.02,0.19 -0.03,0.2 -0.03,0.19 -0.04,0.21 -0.05,0.21 -0.05,0.21 -0.06,0.21 -0.07,0.21 -0.08,0.21 -0.05,0.11 -0.04,0.11 -0.05,0.1 -0.05,0.11 c -0.6,1.22 -1.45,1.87 -1.55,1.87 -0.06,0 -0.1,-0.04 -0.1,-0.1 0,-0.03 0,-0.05 0.19,-0.23 0.97,-0.98 1.54,-2.57 1.54,-4.65 0,-1.7 -0.37,-3.45 -1.6,-4.7 -0.13,-0.12 -0.13,-0.14 -0.13,-0.17 0,-0.06 0.04,-0.1 0.1,-0.1 0.1,0 0.99,0.67 1.58,1.94 0.51,1.09 0.63,2.2 0.63,3.03 z"
   id="path3438"
   inkscape:connector-curvature="0"
   style="fill:#000000;stroke-width:0" />
<path
   d="m 252.79,709.61 0,0.08 0,0.07 0,0.08 0,0.08 -0.01,0.17 -0.01,0.18 -0.02,0.18 -0.02,0.19 -0.03,0.2 -0.03,0.19 -0.04,0.21 -0.05,0.21 -0.05,0.21 -0.06,0.21 -0.07,0.21 -0.08,0.21 -0.04,0.11 -0.05,0.11 -0.04,0.1 -0.06,0.11 c -0.59,1.22 -1.45,1.87 -1.55,1.87 -0.06,0 -0.1,-0.04 -0.1,-0.1 0,-0.03 0,-0.05 0.19,-0.23 0.98,-0.98 1.54,-2.57 1.54,-4.65 0,-1.7 -0.36,-3.45 -1.6,-4.7 -0.13,-0.12 -0.13,-0.14 -0.13,-0.17 0,-0.06 0.04,-0.1 0.1,-0.1 0.1,0 1,0.67 1.58,1.94 0.51,1.09 0.63,2.2 0.63,3.03 z"
   id="path3440"
   inkscape:connector-curvature="0"
   style="fill:#000000;stroke-width:0" />
</g>    <g
       style="font-style:normal;font-variant:normal;font-weight:normal;font-stretch:normal;letter-spacing:normal;word-spacing:normal;text-anchor:start;fill:none;stroke:#000000;stroke-linecap:butt;stroke-linejoin:miter;stroke-miterlimit:10.43299961;stroke-opacity:1;stroke-dasharray:none;stroke-dashoffset:0"
       ns0:preamble=""
       ns0:text="$ \\hat{ \\mathbf{c} } ( i, \\hat{ \\mathbf{z}  } ( j ) ) $"
       text-anchor="start"
       word-spacing="normal"
       letter-spacing="normal"
       font-size-adjust="none"
       font-stretch="normal"
       font-weight="normal"
       font-variant="normal"
       font-style="normal"
       fill-opacity="1"
       fill-rule="evenodd"
       fill="none"
       stroke-opacity="1"
       stroke-dashoffset="0"
       stroke-dasharray="none"
       stroke-miterlimit="10.433"
       stroke-linejoin="miter"
       stroke-linecap="butt"
       stroke="black"
       xml:space="preserve"
       transform="matrix(2,0,0,-2,-132.3024,1830.0858)"
       id="g3338">
<polygon
   id="polygon3340"
   fill="black"
   stroke-width="0"
   points="225.98,714.17 224.64,712.82 224.82,712.64 225.98,713.65 227.13,712.64 227.3,712.82 " />
<path
   id="path3342"
   fill="black"
   stroke-width="0"
   d="M227.02,711.18 L227,711.16 L226.99,711.15 L226.97,711.13 L226.96,711.11 L226.95,711.1 L226.94,711.08 L226.92,711.07 L226.91,711.05 L226.9,711.03 L226.89,711.02 L226.89,711 L226.88,710.98 L226.87,710.97 L226.86,710.95 L226.86,710.94 L226.85,710.92 L226.85,710.9 L226.84,710.89 L226.84,710.87 L226.84,710.86 L226.83,710.85 L226.83,710.83 L226.83,710.82 L226.83,710.8 L226.83,710.79 L226.82,710.78 L226.82,710.77 L226.82,710.76 L226.82,710.75 L226.82,710.74 L226.82,710.73 L226.82,710.72 C226.82,710.28,227.17,710.09,227.44,710.09 C227.75,710.09,228.07,710.3,228.07,710.72 C228.07,711.57,226.91,711.63,226.33,711.63 C224.55,711.63,223.81,710.49,223.81,709.33 C223.81,708.01,224.75,707.07,226.28,707.07 C227.9,707.07,228.2,708.22,228.2,708.29 C228.2,708.43,228.06,708.43,227.96,708.43 C227.78,708.43,227.77,708.41,227.72,708.28 C227.46,707.65,226.98,707.46,226.47,707.46 C225.09,707.46,225.09,708.93,225.09,709.38 C225.09,709.94,225.09,711.23,226.37,711.23 C226.72,711.23,226.89,711.21,227.02,711.18 Z " />
<path
   id="path3344"
   fill="black"
   stroke-width="0"
   d="M231.82,704.74 L231.82,704.74 L231.82,704.75 L231.82,704.75 L231.82,704.75 L231.82,704.76 L231.82,704.76 L231.82,704.76 L231.82,704.77 L231.82,704.77 L231.82,704.77 L231.81,704.78 L231.81,704.78 L231.81,704.79 L231.8,704.79 L231.8,704.8 L231.79,704.81 L231.79,704.81 L231.78,704.82 L231.78,704.82 L231.78,704.83 L231.77,704.83 L231.77,704.84 L231.76,704.84 L231.76,704.84 L231.76,704.85 L231.75,704.85 L231.75,704.86 L231.74,704.86 L231.74,704.87 L231.73,704.87 L231.73,704.88 L231.72,704.89 L231.72,704.89 L231.71,704.9 L231.7,704.9 L231.7,704.91 L231.69,704.92 L231.68,704.93 L231.68,704.93 L231.67,704.94 L231.66,704.95 L231.65,704.96 C230.41,706.21,230.09,708.09,230.09,709.61 C230.09,711.34,230.47,713.08,231.69,714.32 C231.82,714.44,231.82,714.46,231.82,714.49 C231.82,714.56,231.78,714.59,231.72,714.59 C231.62,714.59,230.73,713.91,230.14,712.65 C229.63,711.55,229.51,710.45,229.51,709.61 C229.51,708.84,229.62,707.63,230.17,706.51 C230.77,705.28,231.62,704.64,231.72,704.64 C231.78,704.64,231.82,704.67,231.82,704.74 Z " />
<path
   id="path3346"
   fill="black"
   stroke-width="0"
   d="M235.23,713.34 L235.23,713.36 L235.23,713.38 L235.23,713.4 L235.22,713.42 L235.22,713.43 L235.21,713.45 L235.21,713.47 L235.2,713.49 L235.2,713.5 L235.19,713.52 L235.18,713.53 L235.17,713.55 L235.16,713.56 L235.15,713.57 L235.14,713.59 L235.13,713.6 L235.12,713.61 L235.11,713.62 L235.09,713.63 L235.08,713.64 L235.06,713.65 L235.05,713.66 L235.03,713.67 L235.01,713.68 L235,713.68 L234.98,713.69 L234.96,713.69 L234.94,713.7 L234.92,713.7 L234.9,713.7 L234.88,713.7 L234.86,713.7 C234.59,713.7,234.32,713.45,234.32,713.18 C234.32,712.99,234.46,712.82,234.7,712.82 C234.93,712.82,235.23,713.05,235.23,713.34 Z " />
<path
   id="path3348"
   fill="black"
   stroke-width="0"
   d="M234.47,709.6 L234.48,709.63 L234.49,709.65 L234.5,709.68 L234.51,709.7 L234.52,709.72 L234.53,709.74 L234.53,709.76 L234.54,709.78 L234.55,709.79 L234.56,709.81 L234.56,709.83 L234.57,709.84 L234.57,709.86 L234.58,709.87 L234.59,709.9 L234.6,709.93 L234.61,709.96 L234.61,709.97 L234.62,709.99 L234.63,710 L234.63,710.02 L234.64,710.03 L234.64,710.05 L234.65,710.07 L234.66,710.09 L234.67,710.11 L234.67,710.13 L234.68,710.16 L234.69,710.18 C234.77,710.38,234.82,710.52,234.82,710.71 C234.82,711.16,234.5,711.52,234,711.52 C233.07,711.52,232.69,710.08,232.69,709.99 C232.69,709.89,232.79,709.89,232.81,709.89 C232.91,709.89,232.92,709.91,232.97,710.07 C233.24,711.01,233.63,711.3,233.97,711.3 C234.05,711.3,234.22,711.3,234.22,710.99 C234.22,710.78,234.15,710.57,234.11,710.47 C234.03,710.21,233.58,709.06,233.43,708.63 C233.32,708.37,233.2,708.04,233.2,707.83 C233.2,707.36,233.53,707.02,234.01,707.02 C234.95,707.02,235.32,708.46,235.32,708.55 C235.32,708.65,235.23,708.65,235.2,708.65 C235.1,708.65,235.1,708.62,235.05,708.47 C234.87,707.84,234.54,707.23,234.03,707.23 C233.86,707.23,233.79,707.33,233.79,707.56 C233.79,707.81,233.85,707.95,234.08,708.56 Z " />
<path
   id="path3350"
   fill="black"
   stroke-width="0"
   d="M237.85,707.14 L237.85,707.2 L237.85,707.26 L237.85,707.31 L237.84,707.37 L237.84,707.42 L237.83,707.48 L237.82,707.53 L237.81,707.58 L237.8,707.62 L237.78,707.67 L237.77,707.71 L237.75,707.75 L237.74,707.79 L237.72,707.83 L237.7,707.87 L237.68,707.9 L237.66,707.94 L237.64,707.97 L237.61,708 L237.59,708.02 L237.56,708.05 L237.54,708.07 L237.51,708.09 L237.48,708.11 L237.45,708.13 L237.42,708.14 L237.39,708.15 L237.35,708.16 L237.32,708.17 L237.29,708.18 L237.25,708.18 L237.22,708.18 C236.89,708.18,236.69,707.93,236.69,707.65 C236.69,707.38,236.89,707.13,237.22,707.13 C237.34,707.13,237.46,707.16,237.57,707.25 C237.59,707.27,237.6,707.28,237.61,707.28 C237.62,707.28,237.63,707.27,237.63,707.14 C237.63,706.4,237.29,705.8,236.96,705.47 C236.85,705.36,236.85,705.34,236.85,705.31 C236.85,705.24,236.9,705.2,236.95,705.2 C237.06,705.2,237.85,705.97,237.85,707.14 Z " />
<polygon
   id="polygon3352"
   fill="black"
   stroke-width="0"
   points="242.81,714.17 241.47,712.82 241.65,712.64 242.81,713.65 243.95,712.64 244.13,712.82 " />
<path
   id="path3354"
   fill="black"
   stroke-width="0"
   d="M244.74,711.12 L244.74,711.13 L244.75,711.14 L244.76,711.14 L244.76,711.15 L244.77,711.16 L244.77,711.17 L244.78,711.18 L244.78,711.18 L244.79,711.19 L244.79,711.2 L244.8,711.2 L244.8,711.21 L244.81,711.22 L244.81,711.22 L244.81,711.23 L244.81,711.23 L244.82,711.24 L244.82,711.24 L244.82,711.25 L244.82,711.25 L244.83,711.26 L244.83,711.27 L244.83,711.27 L244.83,711.28 L244.83,711.28 L244.83,711.29 L244.83,711.3 L244.83,711.3 L244.83,711.31 L244.83,711.32 L244.83,711.33 L244.83,711.34 C244.83,711.54,244.7,711.54,244.52,711.54 H240.86 L240.74,709.8 H241.21 C241.27,710.83,241.57,711.19,242.6,711.19 H243.45 L240.67,707.56 C240.58,707.45,240.58,707.43,240.58,707.34 C240.58,707.13,240.71,707.13,240.9,707.13 H244.68 L244.86,709.14 H244.4 C244.31,708.13,244.15,707.52,242.83,707.52 H241.97 Z " />
<path
   id="path3356"
   fill="black"
   stroke-width="0"
   d="M248.65,704.74 L248.65,704.74 L248.65,704.75 L248.65,704.75 L248.65,704.75 L248.65,704.76 L248.65,704.76 L248.65,704.76 L248.65,704.77 L248.64,704.77 L248.64,704.77 L248.64,704.78 L248.64,704.78 L248.63,704.79 L248.63,704.79 L248.63,704.8 L248.62,704.81 L248.62,704.81 L248.61,704.82 L248.61,704.82 L248.6,704.83 L248.6,704.83 L248.6,704.84 L248.59,704.84 L248.59,704.84 L248.58,704.85 L248.58,704.85 L248.57,704.86 L248.57,704.86 L248.56,704.87 L248.56,704.87 L248.55,704.88 L248.55,704.89 L248.54,704.89 L248.54,704.9 L248.53,704.9 L248.52,704.91 L248.52,704.92 L248.51,704.93 L248.5,704.93 L248.5,704.94 L248.49,704.95 L248.48,704.96 C247.24,706.21,246.92,708.09,246.92,709.61 C246.92,711.34,247.29,713.08,248.52,714.32 C248.65,714.44,248.65,714.46,248.65,714.49 C248.65,714.56,248.61,714.59,248.55,714.59 C248.45,714.59,247.55,713.91,246.97,712.65 C246.46,711.55,246.34,710.45,246.34,709.61 C246.34,708.84,246.45,707.63,247,706.51 C247.59,705.28,248.45,704.64,248.55,704.64 C248.61,704.64,248.65,704.67,248.65,704.74 Z " />
<path
   id="path3358"
   fill="black"
   stroke-width="0"
   d="M253.18,713.34 L253.18,713.36 L253.18,713.38 L253.18,713.4 L253.18,713.41 L253.17,713.43 L253.17,713.45 L253.16,713.46 L253.16,713.48 L253.15,713.5 L253.14,713.51 L253.13,713.53 L253.13,713.54 L253.12,713.56 L253.11,713.57 L253.09,713.58 L253.08,713.6 L253.07,713.61 L253.06,713.62 L253.04,713.63 L253.03,713.64 L253.01,713.65 L253,713.66 L252.98,713.67 L252.96,713.67 L252.95,713.68 L252.93,713.69 L252.91,713.69 L252.89,713.7 L252.87,713.7 L252.85,713.7 L252.83,713.7 L252.8,713.7 C252.57,713.7,252.27,713.47,252.27,713.18 C252.27,712.98,252.41,712.82,252.64,712.82 C252.91,712.82,253.18,713.08,253.18,713.34 Z " />
<path
   id="path3360"
   fill="black"
   stroke-width="0"
   d="M251.18,706.63 L251.16,706.56 L251.14,706.49 L251.12,706.42 L251.09,706.35 L251.07,706.29 L251.04,706.22 L251.02,706.16 L250.99,706.1 L250.95,706.04 L250.92,705.99 L250.89,705.93 L250.85,705.88 L250.82,705.82 L250.78,705.77 L250.74,705.73 L250.7,705.68 L250.66,705.64 L250.62,705.6 L250.58,705.56 L250.54,705.52 L250.49,705.49 L250.45,705.46 L250.4,705.43 L250.35,705.4 L250.31,705.38 L250.26,705.36 L250.21,705.34 L250.16,705.33 L250.11,705.32 L250.06,705.31 L250.01,705.31 L249.95,705.3 C249.89,705.3,249.74,705.3,249.56,705.39 C249.86,705.46,250.01,705.72,250.01,705.92 C250.01,706.08,249.9,706.27,249.63,706.27 C249.38,706.27,249.1,706.06,249.1,705.7 C249.1,705.3,249.49,705.09,249.97,705.09 C250.67,705.09,251.6,705.61,251.85,706.6 L252.76,710.24 C252.81,710.44,252.81,710.58,252.81,710.61 C252.81,711.18,252.4,711.52,251.9,711.52 C250.88,711.52,250.31,710.08,250.31,709.99 C250.31,709.89,250.41,709.89,250.43,709.89 C250.52,709.89,250.53,709.9,250.61,710.09 C250.86,710.7,251.32,711.3,251.87,711.3 C252.01,711.3,252.19,711.27,252.19,710.85 C252.19,710.62,252.16,710.51,252.12,710.34 Z " />
<path
   id="path3362"
   fill="black"
   stroke-width="0"
   d="M256.78,709.61 L256.78,709.69 L256.78,709.76 L256.78,709.84 L256.77,709.92 L256.77,710.09 L256.75,710.27 L256.74,710.45 L256.72,710.64 L256.69,710.84 L256.66,711.03 L256.62,711.24 L256.57,711.45 L256.52,711.66 L256.46,711.87 L256.39,712.08 L256.31,712.29 L256.26,712.4 L256.22,712.51 L256.17,712.61 L256.12,712.72 C255.52,713.94,254.67,714.59,254.57,714.59 C254.51,714.59,254.47,714.55,254.47,714.49 C254.47,714.46,254.47,714.44,254.66,714.26 C255.63,713.28,256.2,711.69,256.2,709.61 C256.2,707.91,255.83,706.16,254.6,704.91 C254.47,704.79,254.47,704.77,254.47,704.74 C254.47,704.68,254.51,704.64,254.57,704.64 C254.67,704.64,255.56,705.31,256.15,706.58 C256.66,707.67,256.78,708.78,256.78,709.61 Z " />
<path
   id="path3364"
   fill="black"
   stroke-width="0"
   d="M260.65,709.61 L260.65,709.69 L260.65,709.76 L260.65,709.84 L260.65,709.92 L260.64,710.09 L260.63,710.27 L260.61,710.45 L260.59,710.64 L260.56,710.84 L260.53,711.03 L260.49,711.24 L260.44,711.45 L260.39,711.66 L260.33,711.87 L260.26,712.08 L260.18,712.29 L260.14,712.4 L260.09,712.51 L260.05,712.61 L259.99,712.72 C259.4,713.94,258.54,714.59,258.44,714.59 C258.38,714.59,258.34,714.55,258.34,714.49 C258.34,714.46,258.34,714.44,258.53,714.26 C259.51,713.28,260.08,711.69,260.08,709.61 C260.08,707.91,259.71,706.16,258.47,704.91 C258.34,704.79,258.34,704.77,258.34,704.74 C258.34,704.68,258.38,704.64,258.44,704.64 C258.54,704.64,259.44,705.31,260.02,706.58 C260.53,707.67,260.65,708.78,260.65,709.61 Z " />
</g>  </g>
</svg>
