<?xml version="1.0" encoding="UTF-8" standalone="no"?>
<!-- Created with Inkscape (http://www.inkscape.org/) -->
<svg
   xmlns:dc="http://purl.org/dc/elements/1.1/"
   xmlns:cc="http://web.resource.org/cc/"
   xmlns:rdf="http://www.w3.org/1999/02/22-rdf-syntax-ns#"
   xmlns:svg="http://www.w3.org/2000/svg"
   xmlns="http://www.w3.org/2000/svg"
   xmlns:sodipodi="http://sodipodi.sourceforge.net/DTD/sodipodi-0.dtd"
   xmlns:inkscape="http://www.inkscape.org/namespaces/inkscape"
   width="400"
   height="400"
   id="svg2"
   sodipodi:version="0.32"
   inkscape:version="0.45.1"
   version="1.0"
   sodipodi:docbase="c:\temp"
   sodipodi:docname="Hausdorff_distance_sample.svg"
   inkscape:output_extension="org.inkscape.output.svg.inkscape">
  <defs
     id="defs4" />
  <sodipodi:namedview
     id="base"
     pagecolor="#ffffff"
     bordercolor="#666666"
     borderopacity="1.0"
     gridtolerance="10000"
     guidetolerance="10"
     objecttolerance="10"
     inkscape:pageopacity="0.0"
     inkscape:pageshadow="2"
     inkscape:zoom="1.1329545"
     inkscape:cx="174"
     inkscape:cy="151"
     inkscape:document-units="px"
     inkscape:current-layer="layer1"
     width="400px"
     height="400px"
     inkscape:window-width="1082"
     inkscape:window-height="968"
     inkscape:window-x="125"
     inkscape:window-y="65" />
  <metadata
     id="metadata7">
    <rdf:RDF>
      <cc:Work
         rdf:about="">
        <dc:format>image/svg+xml</dc:format>
        <dc:type
           rdf:resource="http://purl.org/dc/dcmitype/StillImage" />
      </cc:Work>
    </rdf:RDF>
  </metadata>
  <g
     inkscape:label="Layer 1"
     inkscape:groupmode="layer"
     id="layer1">
    <path
       transform="matrix(0.7232619,0,0,0.7101593,-23.366445,-19.230837)"
       style="fill:none;fill-opacity:1;stroke:#0000c0;stroke-width:5.58128639;stroke-linecap:round;stroke-linejoin:round;stroke-miterlimit:4;stroke-dashoffset:0;stroke-opacity:1;stroke-dasharray:none"
       d="M 521.27787,308.70657 C 522.74646,323.22854 516.26844,338.07926 511.28178,351.10506 C 506.32463,364.05378 485.30641,413.88961 480.17441,426.35228 C 474.94757,439.04527 462.52643,446.47686 454.93399,457.50414 C 446.31735,470.01897 444.18831,495.06376 433.03937,502.39238 C 414.70196,514.44625 402.48561,503.37696 389.24494,502.62221 C 375.24904,501.82441 361.18925,508.077 347.5648,509.78757 C 331.17919,511.84481 319.90007,506.64897 305.9344,509.57883 C 291.67551,512.5702 283.84568,524.32933 268.65045,523.74486 C 252.27548,523.11502 244.9674,507.2249 228.41912,502.62221 C 213.03777,498.34408 184.70741,499.44453 173.05515,505.91018 C 158.38921,514.04808 102.251,552.34111 82.693436,531.79478 C 62.128889,510.19056 94.788114,460.92883 99.841405,443.74878 C 103.64928,430.80287 119.18582,374.75528 114.48726,351.10506 C 111.76487,337.40189 103.65005,321.73285 102.18146,308.70657 C 100.55493,294.27939 105.99447,237.21526 110.48064,223.87908 C 114.83063,210.94773 115.4173,199.90645 124.9789,187.32165 C 132.20417,177.81188 183.10643,142.12584 193.31759,134.20289 C 205.098,125.06234 254.48749,107.57019 267.20163,102.52158 C 279.99145,97.442919 294.59342,97.469155 308.83203,98.243256 C 323.09092,99.018459 348.86089,110.11879 362.52702,111.44011 C 375.97546,112.74038 394.95703,105.92094 407.34264,112.53828 C 419.87885,119.23608 421.42927,126.20043 431.68943,134.5151 C 442.07288,142.92968 444.87971,151.16032 454.93399,159.90901 C 465.01922,168.68463 482.12684,172.16433 490.30563,182.80635 C 505.7919,202.95666 510.10299,246.16443 511.28178,266.30808 C 512.17253,281.52964 520.54357,293.43676 521.27787,308.70657 z "
       id="path3135"
       sodipodi:nodetypes="csssssssssssssssssssssssssc" />
    <path
       style="fill:none;fill-opacity:1;stroke:#008000;stroke-width:4;stroke-linecap:round;stroke-linejoin:round;stroke-miterlimit:4;stroke-dashoffset:0;stroke-opacity:1;stroke-dasharray:none"
       d="M 324.55207,200 C 328.80077,209.12519 328.06088,216.92438 326.7356,225.09141 C 325.07556,235.32137 296.01468,279.97001 288.05832,288.05833 C 280.62076,295.61924 257.65975,310.9264 248.46632,314.75918 C 238.5388,318.89801 209.65627,322.42773 200,324.55208 C 191.60662,326.3986 182.65834,325.21782 174.38466,325.1638 C 164.15469,325.097 157.44446,320.28198 151.53367,314.75918 C 146.05253,309.63782 139.40285,304.50832 132.99703,299.60363 C 125.56979,293.91688 113.18114,294.62872 107.54517,289.52384 C 101.63773,284.17307 103.8623,278.90466 96.728816,269.62267 C 91.855287,263.2813 81.23313,236.38355 77.979826,225.09141 C 75.689267,217.14094 71.985828,210.71845 72.516916,200 C 72.942222,191.41644 79.983539,185.13857 81.643589,174.9086 C 82.968878,166.74158 81.557008,159.51454 85.240826,151.53368 C 88.631025,144.18894 106.30571,117.57767 111.94169,111.94169 C 117.57766,106.30571 122.73368,103.48717 129.8534,99.843838 C 138.6043,95.365796 164.54845,75.488468 172.81285,75.884099 C 182.51172,76.348401 191.34901,78.776683 198.95213,82.783056 C 207.01513,87.031761 211.31445,86.969917 213.40746,94.974666 C 216.2022,105.6632 205.86572,136.84551 222.08723,145.32655 C 237.45133,153.35931 260.37427,120.37536 266.96722,115.84799 C 273.59379,111.29753 280.14316,111.00427 288.05832,111.94169 C 295.28755,112.79788 301.90153,121.34194 305.92663,128.253 C 310.40466,135.94172 312.07386,143.90296 314.75917,151.53368 C 317.3808,158.98345 315.11548,166.71385 316.25686,174.9086 C 317.38582,183.01422 321.36554,191.40591 324.55207,200 z "
       id="path3140"
       sodipodi:nodetypes="cssssssssssssssssssssssssc" />
    <path
       sodipodi:type="arc"
       style="fill:none;fill-opacity:1;stroke:#000000;stroke-width:1.43654535;stroke-linecap:round;stroke-linejoin:round;stroke-miterlimit:4;stroke-dasharray:none;stroke-dashoffset:0;stroke-opacity:1"
       id="path3160"
       sodipodi:cx="285.45984"
       sodipodi:cy="84.268135"
       sodipodi:rx="61.871761"
       sodipodi:ry="62.402851"
       d="M 224.98311,71.091516 A 61.871761,62.402851 0 1 1 337.61133,117.84559"
       transform="matrix(1.3981914,0,0,1.3862919,-177.15155,28.076508)"
       sodipodi:start="3.3543482"
       sodipodi:end="6.8513377"
       sodipodi:open="true" />
    <path
       sodipodi:type="arc"
       style="fill:#000000;fill-opacity:1;stroke:none;stroke-width:1;stroke-linecap:round;stroke-linejoin:round;stroke-miterlimit:4;stroke-dasharray:none;stroke-dashoffset:0;stroke-opacity:1"
       id="path3162"
       sodipodi:cx="220.93265"
       sodipodi:cy="147.73315"
       sodipodi:rx="3.7176166"
       sodipodi:ry="3.7176166"
       d="M 224.65026 147.73315 A 3.7176166 3.7176166 0 1 1  217.21503,147.73315 A 3.7176166 3.7176166 0 1 1  224.65026 147.73315 z"
       transform="matrix(1.3449477,0,0,1.3449477,-75.166915,-53.796625)" />
    <path
       sodipodi:type="arc"
       style="fill:#000000;fill-opacity:1;stroke:none;stroke-width:1;stroke-linecap:round;stroke-linejoin:round;stroke-miterlimit:4;stroke-dasharray:none;stroke-dashoffset:0;stroke-opacity:1"
       id="path3164"
       sodipodi:cx="220.93265"
       sodipodi:cy="147.73315"
       sodipodi:rx="3.7176166"
       sodipodi:ry="3.7176166"
       d="M 224.65026 147.73315 A 3.7176166 3.7176166 0 1 1  217.21503,147.73315 A 3.7176166 3.7176166 0 1 1  224.65026 147.73315 z"
       transform="matrix(1.3449477,0,0,1.3449477,-261.46928,159.33772)" />
    <path
       sodipodi:type="arc"
       style="fill:#000000;fill-opacity:1;stroke:none;stroke-width:1;stroke-linecap:round;stroke-linejoin:round;stroke-miterlimit:4;stroke-dasharray:none;stroke-dashoffset:0;stroke-opacity:1"
       id="path3166"
       sodipodi:cx="220.93265"
       sodipodi:cy="147.73315"
       sodipodi:rx="3.7176166"
       sodipodi:ry="3.7176166"
       d="M 224.65026 147.73315 A 3.7176166 3.7176166 0 1 1  217.21503,147.73315 A 3.7176166 3.7176166 0 1 1  224.65026 147.73315 z"
       transform="matrix(1.3449477,0,0,1.3449477,-61.018718,-139.4428)" />
    <path
       style="fill:none;fill-rule:evenodd;stroke:#000000;stroke-width:2;stroke-linecap:butt;stroke-linejoin:miter;stroke-opacity:1;stroke-miterlimit:4;stroke-dasharray:2,4;stroke-dashoffset:0"
       d="M 236.06897,59.011494 L 222.2046,145.1954"
       id="path3168" />
    <path
       sodipodi:type="arc"
       style="fill:none;fill-opacity:1;stroke:#000000;stroke-width:1.24979442;stroke-linecap:round;stroke-linejoin:round;stroke-miterlimit:4;stroke-dasharray:none;stroke-dashoffset:0;stroke-opacity:1"
       id="path3170"
       sodipodi:cx="285.45984"
       sodipodi:cy="84.268135"
       sodipodi:rx="61.871761"
       sodipodi:ry="62.402851"
       d="M 268.93036,24.133441 A 61.871761,62.402851 0 0 1 344.44208,103.1157"
       transform="matrix(1.6071166,0,0,1.593439,-423.09367,223.75495)"
       sodipodi:start="4.4419473"
       sodipodi:end="6.5900072"
       sodipodi:open="true" />
    <path
       sodipodi:type="arc"
       style="fill:#000000;fill-opacity:1;stroke:none;stroke-width:1;stroke-linecap:round;stroke-linejoin:round;stroke-miterlimit:4;stroke-dasharray:none;stroke-dashoffset:0;stroke-opacity:1"
       id="path3172"
       sodipodi:cx="220.93265"
       sodipodi:cy="147.73315"
       sodipodi:rx="3.7176166"
       sodipodi:ry="3.7176166"
       d="M 224.65026 147.73315 A 3.7176166 3.7176166 0 1 1  217.21503,147.73315 A 3.7176166 3.7176166 0 1 1  224.65026 147.73315 z"
       transform="matrix(1.3449477,0,0,1.3449477,-189.99573,90.45376)" />
    <path
       style="fill:none;fill-rule:evenodd;stroke:#000000;stroke-width:2;stroke-linecap:butt;stroke-linejoin:miter;stroke-opacity:1;stroke-miterlimit:4;stroke-dasharray:2,4;stroke-dashoffset:0"
       d="M 107.21724,289.12069 L 35.806897,358.49655"
       id="path3174" />
    <path
       style="fill:#008000;fill-opacity:1"
       d="M 100.32171,190.97228 C 97.871358,190.97225 97.274838,191.07333 97.274838,191.39416 C 97.274838,191.61278 97.532073,191.85979 97.837338,191.95666 C 98.845443,192.27661 98.434053,193.05833 95.821713,195.65978 L 93.243588,198.23791 L 91.884213,195.42541 C 90.588993,192.72483 90.542193,192.5554 91.040463,192.19103 C 91.326813,191.98162 91.795623,191.81603 92.071713,191.81603 C 92.347803,191.816 92.587338,191.62753 92.587338,191.39416 C 92.587338,191.03095 92.058873,190.99977 88.931088,191.06603 C 86.311293,191.12151 85.216818,191.23924 85.134213,191.48791 C 85.064208,191.6986 85.303338,191.81372 85.696713,191.81603 C 87.302208,191.8254 87.462483,192.04648 89.352963,196.08166 C 90.365658,198.24325 91.184688,200.1456 91.181088,200.30041 C 91.177503,200.45523 89.564598,202.16026 87.618588,204.09728 C 84.144858,207.55491 82.461408,208.7233 80.962338,208.73791 C 80.595048,208.74148 80.352963,208.91491 80.352963,209.15978 C 80.352963,209.50563 80.888748,209.58164 83.540463,209.58166 C 86.072613,209.58163 86.727963,209.51126 86.727963,209.20666 C 86.727963,208.99549 86.470713,208.77087 86.165463,208.69103 C 85.123383,208.4185 85.672503,207.5221 88.696713,204.33166 L 91.696713,201.14416 L 93.243588,204.33166 C 94.091028,206.08524 94.789053,207.69602 94.790463,207.94103 C 94.791948,208.20283 94.408578,208.49826 93.899838,208.64416 C 92.093613,209.16216 93.008853,209.45778 96.665463,209.53478 C 99.813648,209.60102 100.32171,209.52307 100.32171,209.15978 C 100.32171,208.87971 100.08615,208.73789 99.571713,208.73791 C 99.142998,208.73788 98.557728,208.60056 98.306088,208.40978 C 98.054433,208.21895 96.928413,206.07061 95.774838,203.62853 L 93.665463,199.17541 L 97.087338,195.80041 C 99.932688,192.99235 100.70138,192.36067 101.72796,192.09728 C 103.56546,191.62582 103.69746,191.5581 103.50921,191.25353 C 103.4103,191.09342 102.06071,190.9723 100.32171,190.97228 z "
       id="path3314" />
    <path
       style="fill:#0000c0;fill-opacity:1;stroke:none;stroke-width:2;stroke-linecap:round;stroke-linejoin:round;stroke-miterlimit:4;stroke-dasharray:none;stroke-dashoffset:0;stroke-opacity:1"
       d="M 309.10916,308.54532 C 308.58657,308.59494 308.45291,308.73873 308.45291,308.92032 C 308.45291,309.20037 308.68845,309.3422 309.20291,309.3422 C 309.63161,309.34221 310.17887,309.47954 310.42166,309.67032 C 310.66448,309.86114 311.76335,312.15501 312.85916,314.7797 L 314.87478,319.56095 L 314.21853,322.42032 C 313.50831,325.60127 313.06931,326.26407 311.64041,326.26407 C 310.69891,326.26409 310.2012,326.55929 310.56228,326.92032 C 310.86396,327.22202 318.29666,326.99724 318.29666,326.68595 C 318.29666,326.53334 317.79941,326.35884 317.21853,326.31095 C 316.63766,326.2631 316.12346,326.04234 316.04666,325.8422 C 315.84761,325.32347 317.02795,320.4266 317.54666,319.60782 C 317.78553,319.23078 319.69565,317.04378 321.81228,314.73282 C 325.46432,310.74551 326.41429,309.90267 328.18728,309.38907 C 329.7794,308.9279 329.08315,308.62367 326.26541,308.54532 C 323.95762,308.48117 323.40603,308.5541 323.40603,308.87345 C 323.40603,309.08994 323.66327,309.30924 323.96853,309.38907 C 324.27379,309.46892 324.53103,309.75717 324.53103,309.99845 C 324.53103,310.39877 317.6641,318.20156 317.31228,318.20157 C 317.22877,318.20159 316.39421,316.29645 315.43728,313.98282 C 313.58207,309.49731 313.5697,309.35103 315.20291,309.3422 C 315.70706,309.33948 315.93304,309.18962 315.85916,308.9672 C 315.77654,308.71853 314.72893,308.60082 312.10916,308.54532 C 310.54526,308.5122 309.63174,308.49572 309.10916,308.54532 z "
       id="path3319" />
    <g
       id="g3328"
       transform="translate(156.15117,37.616504)">
      <path
         id="path3306"
         d="M 31.402461,311.91227 C 25.571843,314.97837 23.76832,322.83886 23.933711,328.56852 C 20.500574,326.83618 25.334347,320.60668 25.121211,317.09977 C 27.579195,312.07676 22.984601,313.03395 19.308711,313.66227 C 16.84818,314.04574 16.744036,317.60269 18.871211,318.38102 C 18.831538,321.68472 13.879582,319.33444 12.339961,322.28727 C 7.6110188,325.77667 7.1241808,336.46931 14.496211,336.59977 C 16.477064,335.93133 17.743526,335.59206 19.714961,336.50602 C 22.229397,337.23248 24.054702,333.94759 24.464961,332.63102 C 25.654512,336.72006 27.894217,342.76155 32.839961,343.06852 C 36.378308,339.78337 30.073647,336.7947 30.152461,332.94352 C 28.650595,326.69487 29.706106,319.61247 34.089961,314.69352 C 34.358555,313.13957 33.131045,311.30492 31.402461,311.91227 z M 74.871211,312.22477 C 72.085453,315.5051 78.089715,318.36184 77.902461,322.06852 C 79.604782,328.63109 78.033437,335.46425 73.808711,340.63102 C 74.934497,345.68747 80.057498,341.32447 81.214961,338.50602 C 85.903375,330.31376 85.201841,317.23839 76.652461,311.91227 C 76.074682,311.88402 75.171861,311.49946 74.871211,312.22477 z M -2.7537892,313.19352 C -6.8591542,313.17098 -8.3636512,317.8813 -8.5975392,320.63102 C -10.418924,320.98288 -10.138751,323.79796 -11.535039,321.31852 C -14.187941,319.06968 -17.467806,321.19057 -20.253789,320.16227 C -22.121568,319.17796 -25.430241,323.05456 -24.535039,319.88102 C -26.532664,320.42234 -22.805356,316.82917 -25.128789,315.56852 C -28.586643,311.17287 -33.34927,318.33724 -29.847539,320.34977 C -32.815,320.10461 -33.113073,325.00588 -30.222539,325.28727 C -30.222301,328.33425 -29.46288,331.28936 -32.097539,333.03727 C -32.640555,338.04694 -25.921719,335.64056 -22.972539,336.09977 C -18.076924,336.22654 -12.993405,336.05493 -8.2537892,336.09977 C -11.301088,336.5501 -10.310695,340.4616 -7.8787892,340.69352 C -4.4222252,344.51997 -10.630625,348.00328 -13.691289,348.63102 C -15.597259,348.41209 -21.484118,348.36205 -16.035039,348.22477 C -12.620861,349.59769 -9.4891742,344.43182 -13.691289,343.44352 C -14.820353,343.25831 -20.921071,343.38965 -17.066289,343.06852 C -14.225169,344.03302 -9.5293132,341.43366 -12.660039,338.53727 C -16.705042,337.05725 -22.102752,338.59294 -24.253789,341.78727 C -26.299518,339.18964 -29.480925,341.18315 -32.066289,340.38102 C -35.070062,340.76945 -37.440226,344.69872 -35.972539,346.91227 C -38.926045,350.42249 -33.89545,353.72568 -30.753789,352.16227 C -28.068896,353.5221 -25.231182,351.02226 -24.253789,349.25602 C -21.942153,354.02309 -14.974387,354.41371 -11.253789,352.19352 C -8.4842472,352.8167 -4.3576122,352.28288 -4.9725392,348.78727 C -3.7359102,347.23204 -6.1285142,352.67772 -2.7225392,352.13102 C -0.1278202,353.04483 6.0930538,352.10301 3.2149608,348.38102 C -0.090948203,347.08351 -0.6931732,342.35453 3.0587108,340.75602 C 6.3713608,340.788 7.2456238,335.87091 3.4962108,335.94352 C 1.5657818,334.96448 -1.8568732,337.2581 -2.2537892,336.16227 C 0.9148658,336.1578 0.6241788,331.36443 -2.4100392,331.41227 C -2.1261082,328.73819 -3.7394422,325.04341 -0.2850392,324.75602 C 2.3798168,322.66407 -1.0566372,320.40631 -2.5350392,320.09977 C -1.8148792,319.76388 1.5090358,320.38881 1.9337108,318.00602 C 2.8820238,315.10199 0.084116797,312.65251 -2.7537892,313.19352 z M -57.628789,320.09977 C -59.225737,319.59166 -62.796626,321.64419 -62.660039,319.91227 C -68.007766,321.07965 -72.420369,319.61825 -77.597539,320.63102 C -81.171569,321.66167 -81.148489,326.00223 -80.410039,328.56852 C -81.753609,331.70492 -81.273609,338.05937 -76.691289,336.28727 C -73.298502,337.74659 -68.89096,335.11307 -68.347539,332.34977 C -67.606108,337.63583 -60.811942,336.60006 -57.503789,336.50602 C -55.524204,336.35674 -52.160224,335.20752 -55.160039,337.28727 C -56.888574,338.54746 -55.383867,341.18069 -54.222539,341.28727 C -57.041711,340.52992 -56.716063,344.40927 -59.035039,343.50602 C -62.372814,343.13406 -66.272622,343.90367 -68.097539,347.00602 C -69.278925,344.78366 -72.562395,346.60996 -73.035039,347.25602 C -76.364494,342.36621 -83.609689,350.1572 -78.972539,352.97477 C -78.160372,355.53155 -81.725859,358.2461 -78.660039,360.41227 C -74.230437,363.58885 -68.91369,358.07723 -68.878789,353.69352 C -67.311708,358.62323 -59.715582,360.6978 -56.066289,357.34977 C -56.048256,355.16748 -53.969344,358.78281 -52.253789,357.63102 C -49.325457,357.57015 -45.680353,358.07999 -46.847539,354.09977 C -50.306444,352.86088 -45.073492,349.38475 -44.222539,347.88102 C -42.465434,345.81201 -36.929194,344.21959 -41.160039,341.59977 C -43.988884,340.59567 -48.073873,341.24767 -47.691289,344.81852 C -50.807427,348.47116 -46.629279,341.82104 -49.910039,341.59977 C -51.923503,341.06261 -44.684632,342.1724 -46.003789,338.91227 C -45.402277,337.17771 -49.835735,336.25478 -46.628789,336.53727 C -38.276197,336.74697 -36.134794,323.70772 -43.660039,320.78727 C -46.315012,319.47562 -48.948733,320.94624 -51.566289,320.19352 C -54.179206,320.1315 -55.622942,321.82605 -56.436326,319.98052 L -57.431363,320.08003 L -57.628789,320.09977 z M 44.777461,320.19352 C 42.128837,321.889 39.070091,318.79364 36.339961,321.22477 C 33.579499,322.64002 31.672326,329.38474 36.527461,328.41227 C 38.113788,327.63412 39.203464,323.65544 38.242852,327.59839 C 38.73545,331.64543 34.827514,327.94097 33.308711,330.66227 C 30.174241,334.51486 36.473915,338.61153 39.621211,335.66227 C 43.838732,339.14144 51.434164,332.1904 47.433711,328.38102 C 45.152508,326.57111 43.794527,331.27945 43.371211,331.09977 C 43.759742,327.90383 44.220791,326.60451 47.308711,327.16227 C 51.85958,325.34673 49.060926,319.28277 44.777461,320.19352 z M 64.121211,320.19352 C 60.185579,320.82323 57.268083,328.07723 61.714961,328.97477 C 60.746476,331.47642 62.997745,334.10499 60.308711,335.63102 C 57.887515,340.91044 65.672511,343.76082 69.058711,340.22477 C 74.000749,336.11007 74.021876,328.78483 75.433711,322.97477 C 75.000038,319.08815 69.278763,320.4827 69.527461,324.03727 C 69.167459,325.28993 67.077245,334.23039 67.308711,330.28727 C 68.933262,326.52348 70.582837,319.82115 64.121211,320.19352 z M -24.222539,324.44352 C -21.533502,325.34203 -22.914777,329.63545 -23.128789,331.50602 C -25.984852,332.86673 -24.003989,324.22264 -24.222539,324.44352 z M -55.316289,324.44352 C -52.48041,325.40374 -54.159247,331.0338 -54.191289,332.06852 C -56.84035,331.33122 -54.865078,326.12687 -55.316289,324.44352 z M -9.5975392,324.88102 C -6.6825922,325.09678 -8.4207792,329.88913 -8.5350392,331.50602 C -10.730358,332.8318 -9.6350472,323.95383 -9.5975392,324.88102 z M -62.378789,324.75602 C -60.464057,325.72663 -60.83617,329.94119 -61.972539,331.72477 C -63.71506,332.44368 -61.978682,327.12644 -62.660039,326.31852 C -62.213942,326.45605 -63.231567,323.8586 -62.378789,324.75602 z M -74.722539,324.69352 C -72.683597,325.08917 -75.376876,325.02269 -74.722539,324.69352 z M -15.722539,324.81852 C -15.980879,326.57703 -14.249628,332.09909 -16.878789,331.47477 C -16.480059,329.48403 -17.964965,325.90029 -15.722539,324.81852 z M -46.972539,324.88102 C -44.223148,325.45634 -44.417029,331.76483 -47.285039,331.84977 C -48.452959,330.539 -49.090503,326.06393 -47.160039,324.91227 C -47.082513,324.9655 -47.041397,324.86451 -46.972539,324.88102 z M 17.089961,324.91227 C 16.820811,326.72378 16.349608,331.44444 14.714961,331.38102 C 15.017038,329.14574 15.176824,326.39202 17.089961,324.91227 z M -68.878789,325.19352 C -68.114019,327.13232 -68.256345,330.9732 -69.441289,327.25602 C -68.965929,326.68953 -69.030585,325.70858 -68.878789,325.19352 z M 51.621211,329.66227 C 48.07266,330.43206 49.185539,335.02054 50.996211,336.28727 C 47.883692,338.59286 51.237932,343.79505 54.027461,340.16227 C 56.838658,337.27725 57.511502,328.99913 51.621211,329.66227 z M -74.691289,331.03727 C -71.864325,331.59561 -75.876795,332.81346 -75.910039,330.75602 L -74.935648,330.98088 L -74.691289,331.03727 z M -55.722539,345.72477 C -53.720058,347.96703 -51.800463,353.06164 -55.753789,354.19352 C -55.770212,356.63032 -57.89002,352.7214 -59.722539,353.84977 C -61.916884,354.04882 -64.43484,353.34396 -60.253789,353.56852 C -56.639617,355.07979 -53.690881,349.38169 -58.191289,348.75602 C -59.232037,348.70483 -65.102096,348.72849 -61.285039,348.44352 C -59.07815,348.49165 -55.719476,348.55495 -55.722539,345.72477 z "
         style="fill:#ffffff;fill-opacity:1" />
      <path
         id="path3324"
         d="M 31.957576,313.82937 C 31.552356,313.67349 29.868187,315.33276 28.707577,317.11062 C 27.754957,318.5699 26.865767,320.67511 26.363827,322.67312 C 26.125417,323.62214 26.054647,324.74679 26.051327,327.42312 C 26.047477,330.52029 26.107197,331.14354 26.488827,332.61062 C 27.263317,335.58794 28.694787,338.19158 30.551326,340.04812 C 31.472006,340.96882 32.051326,341.28179 32.051326,340.82937 C 32.051326,340.7186 31.672336,340.19829 31.207576,339.67312 C 30.109746,338.43255 28.653597,335.41301 28.176327,333.42312 C 27.968877,332.55822 27.701437,330.84741 27.582577,329.61062 C 27.058237,324.15547 28.457247,318.54673 31.113826,315.36062 C 31.640366,314.72912 32.051326,314.12309 32.051326,314.01687 C 32.051326,313.91593 32.015466,313.85164 31.957576,313.82937 z M 76.020076,313.82937 C 75.950901,313.84912 75.895076,313.90785 75.895076,314.01687 C 75.895076,314.12308 76.337287,314.72911 76.863826,315.36062 C 77.390366,315.99212 78.183624,317.25734 78.613826,318.17312 C 81.739319,324.82641 80.84593,334.98583 76.738826,339.67312 C 76.278656,340.19829 75.895077,340.71859 75.895076,340.82937 C 75.895076,341.60819 77.914345,339.82437 79.176326,337.92312 C 80.94,335.26604 81.808229,332.27721 81.957579,328.42312 C 82.183649,322.58857 80.64734,318.05038 77.363826,314.76687 C 76.706353,314.1094 76.227601,313.77011 76.020076,313.82937 z M -2.5424202,315.14187 C -3.8316402,315.23511 -4.8909102,315.86075 -5.6361702,316.98562 C -6.1157802,317.70951 -6.1413802,317.91153 -6.1986702,320.14187 L -6.2611702,322.51687 L -7.3549202,322.51687 C -8.3269002,322.51687 -8.4486702,322.56353 -8.4486702,322.89187 C -8.4486702,323.22076 -8.3416002,323.26687 -7.3549202,323.26687 L -6.2299202,323.26687 L -6.2299202,327.89187 C -6.2299202,330.73467 -6.3000002,332.67249 -6.4174202,332.89187 C -6.5227502,333.08869 -6.8170602,333.23421 -7.0424202,333.23562 C -7.8187102,333.24041 -8.2611702,333.4754 -8.2611702,333.82937 C -8.2611702,334.15694 -8.0929902,334.17313 -5.1361702,334.17312 C -2.1535702,334.17312 -1.9799202,334.16764 -1.9799202,333.82937 C -1.9799202,333.53701 -2.1691902,333.43066 -2.9799202,333.32937 C -3.5239102,333.2614 -4.0870902,333.13628 -4.2299202,333.04812 C -4.4419602,332.91722 -4.4799202,332.00631 -4.4799202,328.11062 L -4.4799202,323.36062 L -2.9486702,323.29812 C -1.5744902,323.24974 -1.4174212,323.21827 -1.4174212,322.89187 C -1.4174212,322.56027 -1.5727802,322.51687 -3.0111702,322.51687 L -4.5736702,322.51687 L -4.5736702,320.61062 C -4.5736702,317.65616 -3.9220902,316.11549 -2.5111702,315.76687 C -1.7743902,315.58482 -1.5951702,315.77592 -1.9486702,316.39187 C -2.1973302,316.82514 -2.1882402,317.00323 -2.0111702,317.39187 C -1.5377102,318.43097 0.051325797,318.09694 0.051325797,316.95437 C 0.051325797,315.67498 -0.8648412,315.02051 -2.5424202,315.14187 z M 23.426327,315.23562 L 21.676327,315.39187 C 19.532817,315.55053 19.301327,315.59925 19.301327,316.04812 C 19.301327,316.34704 19.436717,316.42311 20.113827,316.42312 C 20.559247,316.42312 20.983737,316.51466 21.082577,316.64187 C 21.204167,316.79835 21.009527,317.98223 20.426327,320.29812 L 19.551327,323.73562 L 19.207577,323.20437 C 17.887647,321.19351 14.461317,322.15999 12.457577,325.11062 C 11.408327,326.65572 10.941647,327.9288 10.832577,329.64187 C 10.685107,331.95813 11.230987,333.30391 12.707577,334.20437 C 13.887277,334.92377 15.680367,334.53929 17.051327,333.26687 C 17.748097,332.6202 17.801327,332.57211 17.801327,332.95437 C 17.801327,333.10539 18.046717,333.50943 18.332577,333.82937 C 18.754507,334.30159 19.025507,334.41107 19.801327,334.48562 C 20.696987,334.57168 20.801757,334.5477 21.395077,333.95437 C 21.826227,333.52322 22.161377,332.9059 22.426327,332.04812 C 22.885507,330.56145 22.922017,330.11062 22.551327,330.11062 C 22.378607,330.11062 22.151717,330.49848 21.957577,331.17312 C 21.356477,333.26188 20.677997,334.15027 19.863827,333.89187 C 19.077067,333.64215 19.161827,332.87721 21.238827,324.42312 C 22.334727,319.96244 23.285937,316.09213 23.332577,315.79812 L 23.426327,315.23562 z M -27.97992,316.23562 C -28.24763,316.27983 -28.53396,316.42842 -28.76117,316.64187 C -29.2907,317.13934 -29.29239,317.88647 -28.79242,318.42312 C -28.24554,319.01014 -27.28778,318.95912 -26.79242,318.32937 C -26.30871,317.71444 -26.30872,317.3193 -26.79242,316.70437 C -27.09553,316.31903 -27.53373,316.16194 -27.97992,316.23562 z M -64.698671,322.07937 L -66.104921,322.20437 C -66.883421,322.27018 -67.752521,322.32937 -68.042421,322.32937 C -68.481331,322.32937 -68.573671,322.413 -68.573671,322.79812 C -68.573671,323.19828 -68.509551,323.26687 -67.979921,323.26687 C -67.643241,323.26687 -67.208681,323.37265 -67.011171,323.51687 C -66.677881,323.76026 -66.628281,324.1124 -66.542421,328.20437 C -66.452501,332.49017 -66.442961,332.6302 -66.011171,333.23562 C -65.766861,333.57818 -65.209481,334.01494 -64.792421,334.20437 C -63.938031,334.59238 -62.058151,334.67551 -61.229921,334.36062 C -60.944181,334.25197 -60.381811,333.76324 -59.948671,333.29812 L -59.136171,332.45437 L -59.136171,333.51687 L -59.136171,334.61062 L -57.729921,334.48562 C -56.951421,334.41981 -56.125191,334.36063 -55.886171,334.36062 C -55.545941,334.36062 -55.448671,334.25395 -55.448671,333.89187 C -55.448671,333.48662 -55.537551,333.42313 -56.104921,333.42312 C -56.505751,333.42312 -56.875861,333.27719 -57.104921,333.04812 C -57.457701,332.69534 -57.479921,332.44458 -57.479921,327.39187 L -57.479921,322.07937 L -58.729921,322.20437 C -59.416741,322.26923 -60.285861,322.32864 -60.667421,322.32937 C -61.273581,322.33052 -61.354921,322.38378 -61.354921,322.76687 C -61.354921,323.15101 -61.260601,323.21363 -60.511171,323.29812 C -60.040691,323.35114 -59.598781,323.50359 -59.511171,323.64187 C -59.423561,323.78014 -59.325241,325.43965 -59.323671,327.32937 C -59.320371,331.33707 -59.509251,332.12376 -60.636171,333.14187 C -61.475401,333.90007 -62.402841,334.13335 -63.417421,333.82937 C -64.656371,333.45817 -64.698671,333.23672 -64.698671,327.29812 L -64.698671,322.07937 z M -26.57367,322.07937 L -27.82367,322.20437 C -28.5105,322.26923 -29.36796,322.32864 -29.69867,322.32937 C -30.21633,322.3305 -30.292421,322.39993 -30.292421,322.79812 C -30.292421,323.20337 -30.20353,323.26687 -29.63617,323.26687 C -29.23534,323.26687 -28.83397,323.41282 -28.60492,323.64187 C -28.2563,323.99049 -28.26117,324.2463 -28.26117,328.26687 C -28.26117,330.85461 -28.33254,332.67486 -28.44867,332.89187 C -28.55401,333.08869 -28.81706,333.23421 -29.04242,333.23562 C -29.81871,333.24041 -30.292421,333.4754 -30.292421,333.82937 C -30.292421,334.15562 -30.10245,334.17313 -27.41742,334.17312 C -24.73238,334.17312 -24.54242,334.1556 -24.54242,333.82937 C -24.54242,333.47367 -25.00552,333.24033 -25.79242,333.23562 C -26.07264,333.23394 -26.29728,333.08284 -26.41742,332.76687 C -26.51883,332.50017 -26.57367,330.07185 -26.57367,327.20437 L -26.57367,322.07937 z M -74.729921,322.14187 C -77.453601,322.14427 -78.948671,323.32984 -78.948671,325.45437 C -78.948671,326.91316 -77.816381,328.21491 -76.198671,328.61062 C -75.832471,328.7002 -74.938791,328.91338 -74.229921,329.07937 C -72.177531,329.55997 -71.239141,330.74854 -71.729921,332.23562 C -72.006281,333.07296 -72.827991,333.73421 -73.761171,333.89187 C -75.847511,334.24436 -77.305241,333.21597 -78.011171,330.89187 C -78.263661,330.0606 -78.506161,329.54813 -78.667421,329.54812 C -78.877261,329.54812 -78.948671,330.02851 -78.948671,332.04812 C -78.948671,334.09205 -78.884211,334.54813 -78.667421,334.54812 C -78.521721,334.54812 -78.227011,334.28874 -78.011171,333.98562 L -77.636171,333.45437 L -76.854921,333.95437 C -76.163161,334.41172 -75.949781,334.45438 -74.417421,334.45437 C -72.875791,334.45437 -72.659241,334.39354 -71.948671,333.92312 C -70.075881,332.68333 -69.719991,330.20098 -71.198671,328.51687 C -71.961491,327.64806 -72.410851,327.45235 -74.698671,326.89187 C -76.297911,326.50009 -76.715861,326.32483 -77.136171,325.86062 C -78.048381,324.85318 -77.770801,323.63424 -76.479921,323.04812 C -74.414651,322.11041 -72.107431,323.01881 -71.792421,324.89187 C -71.606711,325.99612 -71.539881,326.20438 -71.261171,326.20437 C -71.047181,326.20437 -70.979921,325.81617 -70.979921,324.17312 C -70.979921,322.00814 -71.132051,321.75265 -71.823671,322.51687 C -72.149561,322.87697 -72.149091,322.87698 -72.854921,322.51687 C -73.338801,322.27002 -73.937661,322.14115 -74.729921,322.14187 z M -50.761171,322.14187 C -51.092151,322.12662 -51.638521,322.19047 -52.542421,322.26687 C -53.845681,322.37704 -53.979921,322.41969 -53.979921,322.79812 C -53.979921,323.14123 -53.849651,323.2108 -53.198671,323.29812 C -52.767651,323.35592 -52.298821,323.5559 -52.167421,323.73562 C -51.862601,324.15248 -51.834521,337.51574 -52.136171,338.07937 C -52.241501,338.27618 -52.504571,338.42173 -52.729921,338.42312 C -53.506221,338.4279 -53.979921,338.66292 -53.979921,339.01687 C -53.979921,339.34359 -53.786801,339.36063 -51.011171,339.36062 C -48.213551,339.36062 -48.042421,339.322 -48.042421,338.98562 C -48.042421,338.69922 -48.229561,338.60986 -49.011171,338.48562 L -49.979921,338.32937 L -50.042421,335.67312 L -50.104921,333.01687 L -49.448671,333.57937 C -48.574731,334.3467 -47.676111,334.59671 -46.292421,334.48562 C -44.265101,334.32289 -42.553241,333.08998 -41.542421,331.04812 C -41.185751,330.32761 -41.106711,329.91471 -41.104921,328.36062 C -41.103061,326.74838 -41.182541,326.35503 -41.604921,325.45437 C -43.178511,322.09884 -47.314571,321.05368 -49.761171,323.39187 L -50.261171,323.89187 L -50.261171,323.01687 C -50.261171,322.39664 -50.209541,322.16729 -50.761171,322.14187 z M -20.07367,322.14187 C -20.40371,322.15785 -20.86203,322.21464 -21.47992,322.26687 C -22.78318,322.37704 -22.88617,322.41969 -22.88617,322.79812 C -22.88617,323.14123 -22.7559,323.2108 -22.10492,323.29812 C -21.67391,323.35592 -21.20508,323.5559 -21.07367,323.73562 C -20.77249,324.14749 -20.74615,332.33824 -21.04242,332.89187 C -21.14775,333.08869 -21.4108,333.23421 -21.63617,333.23562 C -22.41246,333.24041 -22.88617,333.4754 -22.88617,333.82937 C -22.88617,334.15609 -22.69303,334.17313 -19.91742,334.17312 C -17.1198,334.17312 -16.97993,334.16573 -16.97992,333.82937 C -16.97992,333.54298 -17.16711,333.42241 -17.94867,333.29812 L -18.91742,333.14187 L -18.94867,329.64187 C -19.00869,325.47923 -18.87252,324.81277 -17.63617,323.67312 C -16.24927,322.39472 -14.63365,322.43493 -13.94867,323.79812 C -13.66137,324.36988 -13.62525,324.95934 -13.66742,328.79812 L -13.72992,333.14187 L -14.69867,333.29812 C -15.48022,333.42245 -15.66743,333.54299 -15.66742,333.82937 C -15.66742,334.16573 -15.49628,334.17313 -12.69867,334.17312 C -9.8848202,334.17312 -9.7611702,334.14189 -9.7611702,333.79812 C -9.7611702,333.5233 -9.9214002,333.41363 -10.44867,333.32937 C -11.75798,333.1202 -11.69054,333.3915 -11.79242,328.48562 C -11.87819,324.35608 -11.90748,323.99007 -12.26117,323.51687 C -13.00115,322.52684 -13.55294,322.23829 -14.97992,322.17312 C -16.62105,322.09818 -17.66325,322.55987 -18.57367,323.76687 L -19.19867,324.57937 L -19.19867,323.36062 C -19.19867,322.31366 -19.08355,322.09392 -20.07367,322.14187 z M 45.082576,322.14187 C 44.165456,322.2319 43.271166,322.7119 42.832576,323.45437 C 42.656666,323.75215 42.480696,323.98628 42.426326,323.98562 C 42.371946,323.98498 42.192176,323.75683 42.020076,323.45437 C 40.977036,321.62124 37.937166,321.76952 36.551326,323.73562 C 35.956256,324.57988 35.395076,325.81058 35.395076,326.23562 C 35.395076,326.96089 35.963616,326.53858 36.332576,325.54812 C 36.783026,324.33891 37.903556,323.1577 38.895076,322.86062 C 39.573166,322.65746 39.726446,322.683 40.176326,323.01687 C 41.117876,323.71564 41.087866,324.28202 40.051326,328.42312 C 39.049276,332.42638 38.630046,333.37718 37.613826,333.79812 C 37.296866,333.92941 36.786856,333.96535 36.395076,333.89187 L 35.738826,333.76687 L 36.207576,333.32937 C 36.720946,332.8536 36.842926,331.99595 36.457576,331.61062 C 35.827866,330.98092 34.457576,331.75375 34.457576,332.73562 C 34.457576,333.45113 34.754766,333.93633 35.363826,334.26687 C 36.615236,334.94598 38.377086,334.44411 39.207576,333.20437 C 39.400196,332.91684 39.594196,332.70401 39.645076,332.70437 C 39.695946,332.70472 39.879216,332.93312 40.051326,333.23562 C 41.056426,335.00206 43.919196,334.91543 45.363826,333.07937 C 46.484406,331.65517 47.037816,330.00686 46.363826,330.14187 C 46.199056,330.17487 45.933436,330.61946 45.738826,331.14187 C 45.110976,332.82729 43.399256,334.1536 42.207576,333.89187 C 41.594996,333.75732 41.113826,333.00395 41.113826,332.17312 C 41.113826,331.27592 42.776996,324.90798 43.207576,324.14187 C 43.759496,323.15985 44.657736,322.64222 45.488826,322.79812 C 46.236526,322.93839 46.227826,322.96536 45.738826,323.45437 C 45.282616,323.91058 45.247746,325.00865 45.676326,325.17312 C 47.471746,325.86209 48.398146,323.31351 46.676326,322.42312 C 46.199166,322.17637 45.632846,322.08785 45.082576,322.14187 z M 64.582576,322.14187 C 63.887656,322.14187 63.728526,322.24829 62.957576,323.04812 C 61.779646,324.2702 60.816956,326.69884 61.582576,326.54812 C 61.764846,326.51224 62.067425,326.0552 62.301326,325.39187 C 62.782616,324.02697 63.996797,322.64304 64.645076,322.73562 C 64.913826,322.774 65.130556,322.98895 65.238826,323.29812 C 65.378826,323.6979 65.226856,324.33667 64.426326,326.70437 C 63.568126,329.24265 63.436637,329.82767 63.426326,331.11062 C 63.416936,332.27587 63.510016,332.71713 63.801326,333.20437 C 64.595136,334.53209 66.736845,334.95599 68.270076,334.07937 C 68.702526,333.8321 69.051325,333.7182 69.051326,333.79812 C 69.051326,333.87806 68.905557,334.41018 68.707576,334.98562 C 67.962536,337.15112 66.385937,338.87881 64.957576,339.11062 C 64.182006,339.23647 63.056956,338.80293 62.770076,338.26687 C 62.586846,337.92451 62.615624,337.86063 63.020076,337.86062 C 63.523556,337.86062 64.238824,337.1176 64.238826,336.57937 C 64.238826,336.10784 63.744087,335.64186 63.207576,335.64187 C 62.460466,335.64187 61.832576,336.42641 61.832576,337.36062 C 61.832576,338.26982 62.182236,338.86575 63.020076,339.39187 C 63.478676,339.67985 63.849965,339.72259 64.801326,339.67312 C 66.279086,339.59627 67.471688,339.04643 68.676326,337.86062 C 70.149976,336.41004 70.522026,335.38046 72.113826,328.95437 C 73.344506,323.98614 73.541465,323.08106 73.332576,322.82937 C 72.976356,322.40015 72.274096,322.43592 71.957576,322.92312 C 71.808836,323.15207 71.161126,325.35605 70.551326,327.79812 L 69.457576,332.23562 L 68.613826,333.01687 C 67.128596,334.37001 65.714547,334.25579 65.207576,332.76687 C 64.864256,331.7586 65.129668,330.00389 66.082576,327.20437 C 66.492146,326.00112 66.832575,324.70628 66.832576,324.32937 C 66.832576,322.89357 66.059235,322.14188 64.582576,322.14187 z M 17.176327,322.70437 C 18.150417,322.70437 19.113827,323.90724 19.113827,325.11062 C 19.113827,325.60332 18.615337,327.79506 17.801327,330.89187 C 17.567307,331.78218 16.307187,333.1967 15.332577,333.64187 C 13.442267,334.50532 12.512487,333.4677 12.707577,330.73562 C 12.814637,329.23606 13.505217,326.49091 14.051327,325.42312 C 14.792677,323.97356 16.251167,322.70438 17.176327,322.70437 z M -47.042421,322.86062 C -46.093061,322.81317 -45.153751,323.18481 -44.479921,323.98562 C -43.178591,325.53216 -42.743791,328.88042 -43.573671,331.01687 C -44.018421,332.16188 -45.054451,333.36041 -45.948671,333.73562 C -47.115971,334.22539 -48.317371,333.89248 -49.354921,332.76687 L -50.073671,331.95437 L -50.073671,328.42312 C -50.073671,324.90219 -50.074521,324.85131 -49.604921,324.23562 C -48.943201,323.36807 -47.991781,322.90807 -47.042421,322.86062 z M 52.145076,331.57937 C 51.839646,331.61192 51.590146,331.75174 51.426326,331.98562 C 51.016656,332.57049 51.055216,333.36452 51.520076,333.82937 C 51.839556,334.14885 52.060076,334.18712 52.738826,334.11062 L 53.551326,334.01687 L 53.426326,334.98562 C 53.272036,336.15175 52.757982,337.37622 52.020076,338.29812 C 51.713986,338.68054 51.520216,339.07221 51.582576,339.17312 C 51.644936,339.27402 51.777136,339.36063 51.863826,339.36062 C 52.148226,339.36062 53.031574,338.17943 53.520076,337.14187 C 53.926686,336.27824 53.988717,335.86358 53.988826,334.42312 C 53.988926,332.98832 53.911047,332.64649 53.582576,332.20437 C 53.248795,331.75508 52.654126,331.52512 52.145076,331.57937 z M 1.8950758,337.86062 C 0.2615058,337.86062 -0.1361742,337.92798 -0.1361742,338.14187 C -0.1361742,338.28764 0.035315797,338.45229 0.2388258,338.51687 C 0.9108958,338.73019 0.6366358,339.25132 -1.1049212,340.98562 L -2.8236702,342.70437 L -3.7299202,340.82937 C -4.5934002,339.029 -4.6246002,338.91603 -4.2924202,338.67312 C -4.1015202,338.53353 -3.7889802,338.42312 -3.6049202,338.42312 C -3.4208602,338.42312 -3.2611702,338.29745 -3.2611702,338.14187 C -3.2611702,337.89975 -3.6134802,337.87894 -5.6986702,337.92312 C -7.4452002,337.96012 -8.1748502,338.03859 -8.2299202,338.20437 C -8.2765902,338.34485 -8.1171702,338.42158 -7.8549202,338.42312 C -6.7845902,338.42938 -6.6777402,338.57675 -5.4174202,341.26687 C -4.7422902,342.70795 -4.1962702,343.97616 -4.1986702,344.07937 C -4.2010602,344.1826 -5.2763302,345.31927 -6.5736702,346.61062 C -8.8894902,348.91572 -10.01179,349.69463 -11.01117,349.70437 C -11.25603,349.70677 -11.41742,349.82237 -11.41742,349.98562 C -11.41742,350.2162 -11.06023,350.26686 -9.2924202,350.26687 C -7.6043202,350.26687 -7.1674202,350.21994 -7.1674202,350.01687 C -7.1674202,349.87611 -7.3389202,349.72634 -7.5424202,349.67312 C -8.2371402,349.49145 -7.8710602,348.89383 -5.8549202,346.76687 L -3.8549202,344.64187 L -2.8236702,346.76687 C -2.2587102,347.93594 -1.7933602,349.00978 -1.7924202,349.17312 C -1.7914302,349.34767 -2.0470102,349.5446 -2.3861702,349.64187 C -3.5903202,349.98722 -2.9801602,350.18428 -0.5424212,350.23562 C 1.5563658,350.2798 1.8950758,350.22781 1.8950758,349.98562 C 1.8950758,349.79892 1.7380358,349.70436 1.3950758,349.70437 C 1.1092658,349.70437 0.7190858,349.6128 0.5513258,349.48562 C 0.3835558,349.35842 -0.3671242,347.92617 -1.1361712,346.29812 L -2.5424202,343.32937 L -0.2611742,341.07937 C 1.6357258,339.20735 2.1481858,338.78621 2.8325758,338.61062 C 4.0575758,338.29633 4.1455758,338.25116 4.0200758,338.04812 C 3.9541358,337.9414 3.0544058,337.86063 1.8950758,337.86062 z M -16.10492,340.07937 C -18.83353,340.07937 -19.95792,340.40472 -21.29242,341.57937 C -24.54776,344.44485 -23.40512,349.60745 -19.19867,351.11062 C -18.78985,351.25672 -17.61177,351.35568 -16.16742,351.36062 C -14.16505,351.36751 -13.79492,351.33015 -13.69867,351.07937 C -13.50654,350.57869 -14.01752,350.46154 -16.32367,350.45437 C -18.15014,350.4487 -18.67,350.38905 -19.35492,350.07937 C -20.76697,349.44093 -21.88409,348.14323 -22.22992,346.70437 L -22.32367,346.20437 L -18.07367,346.20437 C -14.33425,346.20437 -13.79834,346.15159 -13.69867,345.89187 C -13.63616,345.72898 -13.68164,345.54429 -13.82367,345.45437 C -13.9657,345.36444 -15.93468,345.26843 -18.19867,345.26687 C -20.46267,345.26531 -22.32366,345.22017 -22.32367,345.17312 C -22.32367,344.66035 -21.4346,342.98791 -20.88617,342.45437 C -19.69115,341.29177 -18.86411,341.02477 -16.32367,341.01687 C -14.01753,341.00972 -13.50655,340.89255 -13.69867,340.39187 C -13.79449,340.14217 -14.15623,340.07938 -16.10492,340.07937 z M -27.41742,342.29812 C -27.86515,342.33413 -28.32017,342.5321 -28.72992,342.89187 C -29.32987,343.41863 -29.41735,343.45245 -29.57367,343.17312 C -30.04357,342.33345 -31.606601,342.06701 -32.698671,342.64187 C -33.342571,342.98081 -34.542411,344.5317 -34.542421,345.01687 C -34.542421,345.4441 -33.972161,345.3021 -33.792421,344.82937 C -33.482641,344.01455 -32.497531,343.08079 -31.823671,342.95437 C -31.080541,342.81496 -30.479931,343.21661 -30.479921,343.86062 C -30.479921,344.67233 -31.569091,348.67395 -31.917421,349.14187 C -32.332031,349.69882 -33.051301,350.00584 -33.511171,349.82937 C -33.800291,349.71843 -33.789571,349.70153 -33.511171,349.42312 C -33.068241,348.98019 -33.223711,348.1555 -33.761171,348.07937 C -34.825441,347.92863 -35.302551,349.38311 -34.417421,350.07937 C -33.593491,350.72748 -31.938581,350.44821 -31.417421,349.57937 C -31.232481,349.27102 -31.196131,349.27102 -31.011171,349.57937 C -30.529311,350.38271 -28.89952,350.71536 -27.91742,350.20437 C -26.78771,349.61657 -25.51668,347.48562 -26.29242,347.48562 C -26.43598,347.48562 -26.72886,347.87533 -26.94867,348.32937 C -27.64955,349.77721 -29.23738,350.36561 -29.85492,349.42312 C -30.14829,348.97538 -30.11882,348.82834 -29.54242,346.42312 C -28.86236,343.58528 -28.40332,342.8606 -27.32367,342.86062 C -26.69821,342.86062 -26.60083,343.05665 -27.04242,343.42312 C -27.20204,343.55561 -27.32336,343.87568 -27.29242,344.14187 C -27.25048,344.50264 -27.12734,344.63067 -26.76117,344.67312 C -25.69036,344.79728 -25.24061,343.40884 -26.13617,342.70437 C -26.51309,342.40789 -26.96969,342.26211 -27.41742,342.29812 z M -53.011171,343.26687 C -55.096371,343.22269 -55.448671,343.27475 -55.448671,343.51687 C -55.448671,343.70356 -55.260371,343.79811 -54.917421,343.79812 C -54.631611,343.79812 -54.266791,343.88969 -54.104921,344.01687 C -53.943051,344.14405 -53.210471,345.67331 -52.479921,347.42312 L -51.167421,350.61062 L -51.573671,352.51687 C -52.047141,354.63749 -52.339831,355.07938 -53.292421,355.07937 C -53.920111,355.07937 -54.251881,355.27615 -54.011171,355.51687 C -53.810051,355.71798 -48.886161,355.56817 -48.886171,355.36062 C -48.886171,355.25887 -49.186431,355.14254 -49.573671,355.11062 C -49.960931,355.07871 -50.334991,354.93153 -50.386171,354.79812 C -50.518881,354.45228 -49.731971,351.18772 -49.386171,350.64187 C -49.226921,350.3905 -47.953521,348.93252 -46.542421,347.39187 C -44.107721,344.73363 -43.443161,344.20301 -42.261171,343.86062 C -41.199751,343.55315 -41.695171,343.31911 -43.573671,343.26687 C -45.112191,343.2241 -45.448681,343.27273 -45.448671,343.48562 C -45.448671,343.62993 -45.277191,343.80741 -45.073671,343.86062 C -44.870171,343.91384 -44.729931,344.07479 -44.729921,344.23562 C -44.729921,344.50249 -49.307901,349.70436 -49.542421,349.70437 C -49.598111,349.70437 -50.154461,348.46554 -50.792421,346.92312 C -52.029231,343.93279 -52.037461,343.80398 -50.948671,343.79812 C -50.612541,343.7963 -50.461921,343.6964 -50.511171,343.54812 C -50.566241,343.38232 -51.264651,343.30389 -53.011171,343.26687 z M -60.323671,345.45437 C -63.052281,345.45437 -64.176691,345.7797 -65.511171,346.95437 C -68.766511,349.81982 -67.623871,354.98243 -63.417421,356.48562 C -63.008601,356.63171 -61.830511,356.73066 -60.386171,356.73562 C -58.383801,356.7425 -58.013671,356.70516 -57.917421,356.45437 C -57.725301,355.9537 -58.236281,355.83653 -60.542421,355.82937 C -62.368891,355.8237 -62.888741,355.73281 -63.573671,355.42312 C -64.985721,354.78468 -66.071601,353.51825 -66.417421,352.07937 L -66.542421,351.54812 L -62.292421,351.54812 C -58.552991,351.54812 -58.017081,351.52658 -57.917421,351.26687 C -57.854911,351.10397 -57.900411,350.88804 -58.042421,350.79812 C -58.184441,350.70821 -60.153431,350.64341 -62.417421,350.64187 C -64.681411,350.6403 -66.542431,350.59518 -66.542421,350.54812 C -66.542421,350.03534 -65.653361,348.3629 -65.104921,347.82937 C -63.909901,346.66677 -63.082871,346.39976 -60.542421,346.39187 C -58.236281,346.3847 -57.725301,346.26757 -57.917421,345.76687 C -58.013241,345.51717 -58.374981,345.45436 -60.323671,345.45437 z M -76.167421,347.67312 C -76.907981,347.75081 -77.689541,348.36264 -78.198671,349.36062 C -78.618291,350.18315 -78.665431,350.64186 -78.323671,350.64187 C -78.191251,350.64187 -77.908891,350.2332 -77.698671,349.73562 C -77.297681,348.7865 -76.546521,348.11668 -76.073671,348.29812 C -75.675981,348.45073 -75.739021,348.88228 -76.354921,350.70437 C -76.654111,351.5895 -76.945381,352.67183 -77.011171,353.11062 C -77.167661,354.15419 -76.756731,355.13132 -76.011171,355.51687 C -75.305251,355.8819 -73.951371,355.90471 -73.479921,355.54812 C -72.879491,355.09397 -72.815521,355.22725 -73.198671,356.23562 C -73.907181,358.10025 -75.479461,359.09958 -76.823671,358.57937 L -77.354921,358.39187 L -76.854921,358.11062 C -76.426051,357.88423 -76.339031,357.72232 -76.386171,357.23562 C -76.430331,356.77959 -76.552451,356.62665 -76.886171,356.57937 C -77.497971,356.49272 -78.011171,357.04571 -78.011171,357.76687 C -78.011171,358.21752 -77.860611,358.48768 -77.417421,358.86062 C -76.891871,359.30284 -76.700001,359.36602 -75.761171,359.29812 C -74.480821,359.20551 -73.199721,358.46822 -72.354921,357.36062 C -71.888461,356.74906 -71.592131,355.8828 -70.729921,352.54812 C -70.149211,350.30218 -69.729651,348.33673 -69.792421,348.17312 C -69.928761,347.81785 -70.671961,347.7772 -70.948671,348.11062 C -71.056651,348.24073 -71.450581,349.58726 -71.823671,351.11062 C -72.458241,353.70172 -72.562581,353.93035 -73.229921,354.57937 C -74.706041,356.01494 -76.084811,355.10879 -75.636171,353.01687 C -75.533601,352.53855 -75.237961,351.60866 -74.979921,350.92312 C -74.386311,349.34603 -74.366731,348.72381 -74.948671,348.14187 C -75.299881,347.79066 -75.723081,347.6265 -76.167421,347.67312 z "
         style="fill:#000000" />
    </g>
    <g
       id="g3336"
       transform="translate(433.59041,-165.2882)">
      <path
         id="rect3308"
         d="M -45.78125,172.5625 C -47.793628,176.03334 -42.394725,178.47804 -42.53125,182.1875 C -40.901389,188.53819 -42.308592,195.31903 -46.28125,200.3125 C -46.875455,204.8842 -40.984783,202.74151 -40.09375,199.9375 C -34.340619,191.75801 -34.827122,177.66358 -43.78125,172.03125 C -44.513784,171.74494 -45.118304,172.3628 -45.78125,172.5625 z M -89,172.0625 C -94.79058,175.19485 -96.791536,182.65047 -96.3125,188.875 C -99.989479,187.01395 -94.975822,180.39408 -95.125,176.375 C -94.168966,170.70204 -107.05076,173.76795 -101.84375,178.28125 C -100.61677,181.78156 -105.99805,179.4327 -107.53125,181.9375 C -112.76688,185.22626 -113.59941,196.61733 -105.84375,196.6875 C -103.22241,194.70734 -100.64923,198.04367 -98.03125,195.90625 C -96.401605,195.10586 -96.009161,190.70646 -95.46875,194.5 C -94.178849,197.8628 -91.169294,204.72722 -86.875,202.46875 C -85.239372,198.85097 -90.620211,196.3187 -90.40625,192.40625 C -91.8218,186.26595 -90.432656,179.63786 -86.46875,174.84375 C -85.81265,173.27916 -87.481756,171.71842 -89,172.0625 z M -121.875,173.34375 C -126.02975,173.23841 -127.40062,178.08448 -127.71875,180.75 C -129.94167,181.85015 -129.12246,184.14981 -131.125,181.21875 C -134.07058,179.41979 -137.138,181.26122 -140.09375,180.34375 C -142.61802,179.89351 -144.68536,183.04058 -145.09375,180.28125 C -140.72386,177.18275 -147.68457,171.42985 -150.09375,176.1875 C -152.14581,178.44225 -146.88518,180.85251 -150.59375,180.90625 C -153.10923,182.82246 -150.22845,184.83199 -149.53125,186.125 C -149.45119,188.97736 -148.89231,191.7465 -151.46875,193.34375 C -151.33775,198.46763 -144.63658,195.45217 -141.46875,196.28125 C -137.87402,196.34855 -133.92461,196.09778 -130.75,196.375 C -131.8513,198.54972 -132.37866,198.58748 -134.90625,198.25 C -137.87769,197.98378 -140.8827,199.19913 -142.625,201.65625 C -144.99532,198.52159 -147.14478,203.86648 -148.8125,200.8125 C -152.80904,198.82403 -157.11056,205.4835 -153.3125,207.75 C -152.64078,210.43155 -156.2685,213.69412 -152.4375,215.625 C -147.88292,217.81034 -143.53865,212.59301 -143.28125,208.78125 C -141.58324,213.60787 -133.68191,215.51847 -130.46875,211.78125 C -130.24843,211.17304 -126.07535,213.5715 -124,212.28125 C -121.55688,212.53504 -120.55764,209.3253 -122.625,208.125 C -121.63837,203.63569 -116.45102,201.67563 -114.21875,198.3125 C -114.84784,194.90383 -122.67841,194.93696 -121.8125,199.0625 C -124.7113,202.93309 -122.4162,198.73299 -123.65625,196.875 C -126.10125,195.38178 -118.05734,197.65621 -119.0625,193.875 C -121.22845,191.37402 -122.3593,189.43253 -121.5625,185.4375 C -117.03075,185.66746 -118.73332,180.1198 -121.65625,180.21875 C -118.69162,181.49815 -114.69884,176.23422 -118.75,173.90625 C -119.68824,173.3728 -120.80861,173.22135 -121.875,173.34375 z M -184.625,180.375 C -188.77722,181.50101 -192.802,179.12801 -197.03125,181.3125 C -199.50031,182.72575 -199.74161,186.23022 -198.5625,188.375 C -200.21348,191.1337 -199.90647,198.2111 -195.3125,196.3125 C -191.92664,197.80603 -187.41518,195.57369 -186.75,192.5625 C -185.48942,198.4708 -177.78626,196.34949 -173.71875,196.375 C -170.60241,194.61152 -173.36548,197.56385 -174.25,198.65625 C -174.53894,202.08015 -169.80164,200.5659 -173.34375,203.59375 C -172.6032,205.8573 -167.71285,207.82591 -170.91289,210.34484 C -173.63977,213.86771 -177.83882,214.51155 -181.78125,213.53125 C -178.99996,214.06563 -172.67348,213.46441 -175.5625,209.375 C -176.70215,207.95778 -181.97901,209.06639 -181.25,208.4375 C -178.75841,208.66249 -173.29162,208.38065 -175.21875,204.5 C -178.91295,202.00652 -185.20743,203.46166 -187.40625,207.40625 C -189.41986,204.48085 -193.05315,206.37575 -195.90625,205.8125 C -198.30976,206.54035 -201.09372,209.86752 -199.0625,212.0625 C -202.40703,215.00897 -197.61901,219.38236 -194.375,217.34375 C -191.71514,218.79124 -188.54841,216.68382 -187.5625,214.28125 C -185.43798,219.45354 -178.13588,219.58082 -174.34375,217.53125 C -171.6567,218.07596 -167.65623,217.60473 -168.21875,214.125 C -166.77681,212.27965 -169.01771,218.52405 -165.25,217.5 C -162.2776,219.09017 -156.40009,215.64455 -160.90625,213.15625 C -163.73546,210.94206 -163.01207,207.24229 -159.59375,205.84375 C -155.18985,205.41032 -157.6717,199.88796 -161.21875,201.21875 C -162.66236,201.04329 -167.54543,202.92362 -165,200.6875 C -162.18532,198.36641 -168.88327,195.93168 -164.5,196.65625 C -155.74686,196.29022 -154.88594,182.03928 -163.4375,180.4375 C -166.77068,180.69216 -169.79496,179.9343 -173.125,180.84375 C -174.46561,181.97543 -178.35569,178.85764 -181,181.15625 C -181.2797,182.05192 -183.11041,179.18593 -184.625,180.375 z M -75.71875,180.3125 C -78.648752,181.87606 -82.589148,178.71112 -85.125,182.28125 C -87.330956,184.05328 -88.019106,189.76324 -83.75,188.46875 C -82.076863,187.05753 -81.244625,184.11863 -82.28125,188.09375 C -81.974427,191.68181 -86.367727,187.96723 -87.5,191.3125 C -89.603732,195.29153 -83.777539,198.42749 -80.8125,195.78125 C -76.6845,199.30667 -68.951193,192.3874 -72.96875,188.5 C -75.484493,186.11071 -77.489754,193.89948 -76.78125,190.03125 C -76.870817,186.35616 -75.255078,187.60179 -72.875,187.21875 C -68.646217,185.15745 -71.587704,179.40445 -75.71875,180.3125 z M -56.375,180.34375 C -60.623538,181.03761 -62.651197,188.30167 -58.75,189.15625 C -59.621914,191.73895 -57.505966,194.16518 -60.125,195.75 C -62.566221,201.47464 -54.019429,203.90921 -50.78125,199.90625 C -46.474034,195.55547 -46.289087,188.752 -45,183.09375 C -46.201218,178.20387 -51.919662,181.97371 -51.3125,185.6875 C -51.454992,188.3925 -54.333197,194.84944 -52.6875,188.9375 C -50.757243,185.37957 -51.03846,179.72502 -56.375,180.34375 z M -143.5,184.625 C -141.00863,185.55421 -142.05697,190.01403 -142.5625,191.71875 C -145.1597,192.95218 -143.56933,183.41862 -143.5,184.625 z M -128.90625,184.625 C -126.07638,185.27415 -127.25772,190.01083 -127.78125,191.71875 C -130.50129,191.90756 -128.31948,186.39899 -129.21875,184.5 L -129.28125,184.125 L -128.90625,184.625 z M -173.65625,184.625 C -170.80464,185.87862 -172.95639,190.06844 -172.28125,192.59375 C -175.33197,191.55008 -173.32476,186.20878 -173.65625,184.625 z M -180.78125,184.90625 C -179.04795,185.49014 -178.86977,191.94642 -180.96875,191.90625 C -181.0215,189.80212 -181.32491,185.53778 -180.78125,184.90625 z M -193.25,184.84375 C -191.70995,185.03125 -192.46349,185.25895 -193.25,184.84375 z M -135.03125,184.9375 C -135.3163,186.83349 -133.79434,191.82596 -136.1875,191.625 C -135.73337,189.59185 -137.34308,186.15823 -135.03125,184.9375 z M -165.375,185.03125 C -162.58235,185.39969 -162.85779,191.94646 -165.6875,192 C -166.77288,191.41851 -167.46761,185.26673 -165.375,185.03125 z M -103.3125,185.15625 C -103.66499,186.87484 -104.1106,191.78763 -105.71875,191.40625 C -105.38974,189.34278 -105.17974,186.10404 -103.3125,185.15625 z M -187,185.25 C -185.82665,189.48831 -188.09492,189.97102 -187.40625,186.3125 C -187.19539,186.04293 -187.65768,184.74634 -187,185.25 z M -68.5,189.78125 C -71.959136,190.0705 -71.877337,195.06062 -69.34375,196.21875 C -71.912874,198.05595 -70.368671,203.0958 -67.09375,200.96875 C -63.817139,198.39478 -62.47228,189.51543 -68.5,189.78125 z M -193.09375,191.15625 C -190.26537,191.75288 -194.30246,192.94281 -194.28125,190.84375 L -193.31418,191.09824 L -193.09375,191.15625 z M -128.0625,196 C -127.7225,196.2664 -128.8276,195.86957 -128.0625,196 z M -130.21875,200.5 C -128.62159,202.56186 -126.09165,207.64072 -129.96875,208.65625 C -130.44264,211.48864 -132.79611,207.31796 -135.03125,208.59375 C -137.383,208.70694 -138.23019,208.05787 -134.78125,208.34375 C -131.10088,209.79781 -128.30479,204.26203 -132.8125,203.53125 C -134.67729,203.43984 -139.94381,203.43392 -135.03125,203.1875 C -132.9542,203.47864 -130.16183,202.62353 -130.21875,200.5 z "
         style="fill:#ffffff;fill-opacity:1;stroke:none;stroke-width:2;stroke-linecap:round;stroke-linejoin:round;stroke-miterlimit:4;stroke-dasharray:none;stroke-dashoffset:0;stroke-opacity:1" />
      <path
         id="path3332"
         d="M -44.331417,174.00571 C -44.400592,174.02546 -44.425167,174.08418 -44.425167,174.19321 C -44.425167,174.29942 -44.014219,174.90547 -43.487667,175.53696 C -42.961127,176.16846 -42.167866,177.43369 -41.737667,178.34946 C -38.612177,185.00276 -39.505546,195.16217 -43.612667,199.84946 C -44.072837,200.37463 -44.425167,200.89493 -44.425167,201.00571 C -44.425167,201.78454 -42.437148,200.0007 -41.175167,198.09946 C -39.411497,195.44238 -38.543266,192.45354 -38.393917,188.59946 C -38.167837,182.76491 -39.672908,178.22671 -42.956417,174.94321 C -43.613889,174.28574 -44.123892,173.94645 -44.331417,174.00571 z M -88.362667,174.03696 C -88.767892,173.88108 -90.48332,175.5091 -91.643917,177.28696 C -92.596547,178.74625 -93.45448,180.85147 -93.956417,182.84946 C -94.194827,183.79848 -94.2656,184.92314 -94.268917,187.59946 C -94.272767,190.69663 -94.244287,191.31987 -93.862667,192.78696 C -93.088167,195.76428 -91.656708,198.36791 -89.800167,200.22446 C -88.879487,201.14516 -88.268917,201.45813 -88.268917,201.00571 C -88.268917,200.89494 -88.647911,200.37463 -89.112667,199.84946 C -90.210497,198.6089 -91.697896,195.62059 -92.175167,193.63071 C -92.382607,192.76581 -92.650048,191.02375 -92.768917,189.78696 C -93.293257,184.33181 -91.894245,178.72309 -89.237667,175.53696 C -88.711137,174.90546 -88.268917,174.29943 -88.268917,174.19321 C -88.268917,174.09227 -88.304778,174.05923 -88.362667,174.03696 z M -121.58142,175.34946 C -122.87062,175.4427 -123.92988,176.06833 -124.67517,177.19321 C -125.15478,177.9171 -125.18039,178.11912 -125.23767,180.34946 L -125.30017,182.69321 L -126.39392,182.69321 C -127.36591,182.69321 -127.48767,182.73987 -127.48767,183.06821 C -127.48767,183.39711 -127.38062,183.44321 -126.39392,183.44321 L -125.26892,183.44321 L -125.26892,188.09946 C -125.26892,190.94226 -125.37026,192.84883 -125.48767,193.06821 C -125.593,193.26502 -125.85605,193.44182 -126.08142,193.44321 C -126.85771,193.448 -127.33142,193.65177 -127.33142,194.00571 C -127.33142,194.33328 -127.13199,194.34946 -124.17517,194.34946 C -121.19256,194.34946 -121.01892,194.34398 -121.01892,194.00571 C -121.01892,193.71334 -121.20819,193.63827 -122.01892,193.53696 C -122.56292,193.46899 -123.12609,193.34387 -123.26892,193.25571 C -123.48097,193.12481 -123.51892,192.21389 -123.51892,188.31821 L -123.51892,183.53696 L -121.98767,183.47446 C -120.6135,183.42608 -120.48767,183.3946 -120.48767,183.06821 C -120.48767,182.73661 -120.61179,182.69321 -122.05017,182.69321 L -123.61267,182.69321 L -123.61267,180.78696 C -123.61267,177.8325 -122.96108,176.29185 -121.55017,175.94321 C -120.81339,175.76116 -120.63417,175.98353 -120.98767,176.59946 C -121.23633,177.03273 -121.25851,177.21081 -121.08142,177.59946 C -120.60797,178.63856 -118.98767,178.27328 -118.98767,177.13071 C -118.98767,175.85132 -119.90383,175.22811 -121.58142,175.34946 z M -96.925167,175.44321 L -98.675167,175.56821 C -100.81868,175.72687 -101.05017,175.80685 -101.05017,176.25571 C -101.05017,176.55464 -100.91478,176.59946 -100.23767,176.59946 C -99.792237,176.59946 -99.336519,176.69101 -99.237667,176.81821 C -99.116067,176.97469 -99.341976,178.15856 -99.925167,180.47446 L -100.80017,183.91196 L -101.14392,183.38071 C -102.46385,181.36986 -105.89018,182.3676 -107.89392,185.31821 C -108.94315,186.8633 -109.40987,188.10514 -109.51892,189.81821 C -109.6664,192.13447 -109.08926,193.48025 -107.61267,194.38071 C -106.43297,195.10011 -104.67114,194.71562 -103.30017,193.44321 C -102.60341,192.79654 -102.51892,192.77971 -102.51892,193.16196 C -102.51892,193.31298 -102.30479,193.68577 -102.01892,194.00571 C -101.597,194.47793 -101.29475,194.61866 -100.51892,194.69321 C -99.623267,194.77927 -99.549738,194.72403 -98.956417,194.13071 C -98.525267,193.69956 -98.190115,193.11348 -97.925167,192.25571 C -97.465987,190.76904 -97.429477,190.28695 -97.800167,190.28696 C -97.972887,190.28696 -98.199769,190.67483 -98.393917,191.34946 C -98.995017,193.43822 -99.673504,194.35786 -100.48767,194.09946 C -101.27444,193.84975 -101.15842,193.08479 -99.081417,184.63071 C -97.985527,180.17004 -97.065554,176.26847 -97.018917,175.97446 L -96.925167,175.44321 z M -146.95642,176.41196 C -147.31092,176.39657 -147.68473,176.53361 -147.98767,176.81821 C -148.5172,177.31568 -148.51888,178.06282 -148.01892,178.59946 C -147.47203,179.18648 -146.51426,179.13545 -146.01892,178.50571 C -145.5352,177.89078 -145.5352,177.5269 -146.01892,176.91196 C -146.2614,176.60369 -146.60192,176.42735 -146.95642,176.41196 z M -183.01892,182.28696 L -184.42517,182.41196 C -185.20366,182.47777 -186.07276,182.53696 -186.36267,182.53696 C -186.80158,182.53696 -186.89392,182.58934 -186.89392,182.97446 C -186.89392,183.37462 -186.79855,183.44321 -186.26892,183.44321 C -185.93223,183.44321 -185.49768,183.58022 -185.30017,183.72446 C -184.96687,183.96785 -184.94852,184.28873 -184.86267,188.38071 C -184.77276,192.66651 -184.76321,192.80656 -184.33142,193.41196 C -184.08711,193.75452 -183.52975,194.19128 -183.11267,194.38071 C -182.25829,194.76872 -180.37839,194.85186 -179.55017,194.53696 C -179.26442,194.42831 -178.67081,193.97082 -178.23767,193.50571 L -177.45642,192.63071 L -177.45642,193.72446 L -177.45642,194.78696 L -176.05017,194.66196 C -175.27168,194.59615 -174.41419,194.53696 -174.17517,194.53696 C -173.83493,194.53696 -173.76892,194.46155 -173.76892,194.09946 C -173.76892,193.69421 -173.82657,193.63071 -174.39392,193.63071 C -174.79476,193.63071 -175.19611,193.48476 -175.42517,193.25571 C -175.77796,192.90292 -175.80017,192.62091 -175.80017,187.56821 L -175.80017,182.28696 L -177.05017,182.41196 C -177.73699,182.47682 -178.60609,182.50498 -178.98767,182.50571 C -179.59383,182.50686 -179.67517,182.59138 -179.67517,182.97446 C -179.67517,183.3586 -179.58087,183.42122 -178.83142,183.50571 C -178.36094,183.55873 -177.88777,183.71119 -177.80017,183.84946 C -177.71255,183.98774 -177.64548,185.64723 -177.64392,187.53696 C -177.64062,191.54466 -177.79826,192.30011 -178.92517,193.31821 C -179.76441,194.07641 -180.72309,194.30968 -181.73767,194.00571 C -182.97663,193.63451 -183.01891,193.4443 -183.01892,187.50571 L -183.01892,182.28696 z M -145.83142,182.28696 L -147.08142,182.41196 C -147.76825,182.47682 -148.59448,182.50498 -148.92517,182.50571 C -149.44283,182.50685 -149.51892,182.57626 -149.51892,182.97446 C -149.51892,183.37971 -149.43,183.44321 -148.86267,183.44321 C -148.46182,183.44321 -148.09173,183.58915 -147.86267,183.81821 C -147.51404,184.16683 -147.48767,184.42263 -147.48767,188.44321 C -147.48767,191.03095 -147.55903,192.8512 -147.67517,193.06821 C -147.7805,193.26502 -148.04357,193.44182 -148.26892,193.44321 C -149.04522,193.448 -149.51892,193.65177 -149.51892,194.00571 C -149.51892,194.33196 -149.32896,194.34946 -146.64392,194.34946 C -143.95889,194.34946 -143.76892,194.33197 -143.76892,194.00571 C -143.76892,193.65001 -144.26326,193.44793 -145.05017,193.44321 C -145.3304,193.44153 -145.52378,193.29044 -145.64392,192.97446 C -145.74531,192.70776 -145.83143,190.24821 -145.83142,187.38071 L -145.83142,182.28696 z M -189.55017,182.31821 C -189.67507,182.26822 -189.85331,182.40662 -190.11267,182.69321 C -190.43855,183.05331 -190.43807,183.05331 -191.14392,182.69321 C -191.6278,182.44636 -192.22666,182.34876 -193.01892,182.34946 C -195.7426,182.35186 -197.23767,183.50617 -197.23767,185.63071 C -197.23767,187.0895 -196.10538,188.39125 -194.48767,188.78696 C -194.12146,188.87654 -193.25903,189.08972 -192.55017,189.25571 C -190.49777,189.73631 -189.52814,190.92488 -190.01892,192.41196 C -190.29527,193.2493 -191.117,193.94179 -192.05017,194.09946 C -194.13651,194.45194 -195.62548,193.3923 -196.33142,191.06821 C -196.5839,190.23693 -196.82641,189.72445 -196.98767,189.72446 C -197.1975,189.72446 -197.23767,190.20484 -197.23767,192.22446 C -197.23767,194.26839 -197.20448,194.72446 -196.98767,194.72446 C -196.84197,194.72446 -196.54727,194.49632 -196.33142,194.19321 L -195.92517,193.63071 L -195.17517,194.13071 C -194.48342,194.58806 -194.23877,194.63071 -192.70642,194.63071 C -191.16479,194.63071 -190.94825,194.60112 -190.23767,194.13071 C -188.36488,192.89092 -188.04026,190.37732 -189.51892,188.69321 C -190.28175,187.8244 -190.69986,187.6287 -192.98767,187.06821 C -194.58689,186.67643 -195.03612,186.50116 -195.45642,186.03696 C -196.36863,185.02952 -196.0598,183.84181 -194.76892,183.25571 C -192.70363,182.31799 -190.42767,183.22639 -190.11267,185.09946 C -189.92696,186.20371 -189.82884,186.41196 -189.55017,186.41196 C -189.33618,186.41196 -189.30017,186.02377 -189.30017,184.38071 C -189.30017,183.0276 -189.34201,182.40152 -189.55017,182.31821 z M -164.83142,182.31821 C -166.00124,182.29943 -167.1327,182.72264 -168.05017,183.59946 L -168.58142,184.06821 L -168.58142,183.19321 C -168.58142,182.20084 -168.45228,182.23947 -170.86267,182.44321 C -172.16593,182.55338 -172.26892,182.59603 -172.26892,182.97446 C -172.26892,183.31757 -172.13865,183.4184 -171.48767,183.50571 C -171.05665,183.56353 -170.61909,183.76348 -170.48767,183.94321 C -170.18286,184.36007 -170.12352,197.69207 -170.42517,198.25571 C -170.5305,198.45252 -170.79354,198.62932 -171.01892,198.63071 C -171.7952,198.63549 -172.26892,198.83927 -172.26892,199.19321 C -172.26892,199.51993 -172.0758,199.53696 -169.30017,199.53696 C -166.50256,199.53696 -166.36267,199.52958 -166.36267,199.19321 C -166.36267,198.90681 -166.54982,198.78619 -167.33142,198.66196 L -168.30017,198.53696 L -168.36267,195.84946 L -168.39392,193.19321 L -167.76892,193.75571 C -166.89497,194.52304 -165.96511,194.80429 -164.58142,194.69321 C -162.55409,194.53048 -160.84222,193.29757 -159.83142,191.25571 C -159.47474,190.5352 -159.42697,190.09104 -159.42517,188.53696 C -159.42331,186.92471 -159.47155,186.56262 -159.89392,185.66196 C -160.87741,183.56475 -162.88172,182.34952 -164.83142,182.31821 z M -74.706417,182.31821 C -75.79912,182.23671 -76.961356,182.73973 -77.487667,183.63071 C -77.663577,183.92849 -77.870787,184.19386 -77.925167,184.19321 C -77.979547,184.19257 -78.159311,183.9332 -78.331417,183.63071 C -79.374457,181.79758 -82.414325,181.9771 -83.800167,183.94321 C -84.395237,184.78747 -84.956418,185.98691 -84.956417,186.41196 C -84.956417,187.13723 -84.356629,186.71491 -83.987667,185.72446 C -83.537217,184.51525 -82.416687,183.36529 -81.425167,183.06821 C -80.747067,182.86505 -80.625049,182.85934 -80.175167,183.19321 C -79.233607,183.89198 -79.263614,184.48962 -80.300167,188.63071 C -81.302217,192.63397 -81.721459,193.58477 -82.737667,194.00571 C -83.054637,194.137 -83.564646,194.17295 -83.956417,194.09946 L -84.612667,193.97446 L -84.143917,193.53696 C -83.630547,193.06119 -83.508576,192.20356 -83.893917,191.81821 C -84.523617,191.18851 -85.862669,191.93009 -85.862667,192.91196 C -85.862667,193.62747 -85.596725,194.11268 -84.987667,194.44321 C -83.736257,195.12231 -81.974403,194.65169 -81.143917,193.41196 C -80.951297,193.12443 -80.757299,192.88034 -80.706417,192.88071 C -80.655537,192.88105 -80.472275,193.14072 -80.300167,193.44321 C -79.295067,195.20965 -76.432297,195.12301 -74.987667,193.28696 C -73.867097,191.86276 -73.282426,190.18319 -73.956417,190.31821 C -74.121177,190.35121 -74.418045,190.79579 -74.612667,191.31821 C -75.240517,193.00363 -76.952214,194.32997 -78.143917,194.06821 C -78.756487,193.93366 -79.206418,193.21154 -79.206417,192.38071 C -79.206417,191.4835 -77.574497,185.08431 -77.143917,184.31821 C -76.591997,183.3362 -75.693759,182.81853 -74.862667,182.97446 C -74.114967,183.11472 -74.09242,183.14171 -74.581417,183.63071 C -75.037627,184.08692 -75.103725,185.21624 -74.675167,185.38071 C -72.879727,186.06968 -71.953339,183.5211 -73.675167,182.63071 C -73.993274,182.46621 -74.342183,182.34538 -74.706417,182.31821 z M -139.30017,182.34946 C -139.63021,182.36544 -140.08853,182.39098 -140.70642,182.44321 C -142.00969,182.55338 -142.11267,182.59603 -142.11267,182.97446 C -142.11267,183.31757 -141.98239,183.4184 -141.33142,183.50571 C -140.90041,183.56353 -140.46283,183.76348 -140.33142,183.94321 C -140.03025,184.35508 -139.97264,192.51458 -140.26892,193.06821 C -140.37425,193.26502 -140.63731,193.44182 -140.86267,193.44321 C -141.63898,193.448 -142.11267,193.65177 -142.11267,194.00571 C -142.11267,194.33243 -141.91955,194.34946 -139.14392,194.34946 C -136.34631,194.34946 -136.20642,194.34208 -136.20642,194.00571 C -136.20642,193.71932 -136.3936,193.63 -137.17517,193.50571 L -138.14392,193.34946 L -138.17517,189.84946 C -138.2352,185.68682 -138.09904,184.9891 -136.86267,183.84946 C -135.47577,182.57106 -133.86016,182.64253 -133.17517,184.00571 C -132.88787,184.57747 -132.88297,185.16695 -132.92517,189.00571 L -132.95642,193.34946 L -133.92517,193.50571 C -134.70672,193.63004 -134.89392,193.71934 -134.89392,194.00571 C -134.89392,194.34207 -134.75403,194.34946 -131.95642,194.34946 C -129.14256,194.34946 -128.98766,194.34948 -128.98767,194.00571 C -128.98767,193.73089 -129.14791,193.62121 -129.67517,193.53696 C -130.98449,193.32779 -130.91701,193.56783 -131.01892,188.66196 C -131.10469,184.53242 -131.13397,184.16643 -131.48767,183.69321 C -132.22765,182.70318 -132.77945,182.44589 -134.20642,182.38071 C -135.84755,182.30577 -136.88973,182.76746 -137.80017,183.97446 L -138.42517,184.75571 L -138.42517,183.56821 C -138.42517,182.52125 -138.31005,182.30151 -139.30017,182.34946 z M -55.737667,182.34946 C -56.432587,182.34946 -56.622965,182.42462 -57.393917,183.22446 C -58.571857,184.44654 -59.503285,186.90644 -58.737667,186.75571 C -58.555407,186.71983 -58.284065,186.23153 -58.050167,185.56821 C -57.568867,184.20331 -56.354687,182.81937 -55.706417,182.91196 C -55.437677,182.95034 -55.189696,183.16529 -55.081417,183.47446 C -54.941417,183.87423 -55.093395,184.54427 -55.893917,186.91196 C -56.752127,189.45024 -56.914847,190.03525 -56.925167,191.31821 C -56.934537,192.48347 -56.841488,192.92471 -56.550167,193.41196 C -55.756357,194.73968 -53.614645,195.16359 -52.081417,194.28696 C -51.648967,194.03969 -51.268917,193.89455 -51.268917,193.97446 C -51.268917,194.0544 -51.445937,194.58653 -51.643917,195.16196 C -52.388957,197.32746 -53.965557,199.05516 -55.393917,199.28696 C -56.169487,199.41281 -57.263278,198.97929 -57.550167,198.44321 C -57.733397,198.10085 -57.704598,198.06821 -57.300167,198.06821 C -56.796677,198.06821 -56.081419,197.29393 -56.081417,196.75571 C -56.081417,196.28418 -56.607397,195.84946 -57.143917,195.84946 C -57.891027,195.84946 -58.487665,196.60277 -58.487667,197.53696 C -58.487667,198.44616 -58.169265,199.04208 -57.331417,199.56821 C -56.872817,199.85619 -56.501525,199.93019 -55.550167,199.88071 C -54.072407,199.80387 -52.879816,199.25401 -51.675167,198.06821 C -50.201517,196.61763 -49.798226,195.58804 -48.206417,189.16196 C -46.975747,184.19373 -46.810029,183.2574 -47.018917,183.00571 C -47.375127,182.57649 -48.077398,182.64351 -48.393917,183.13071 C -48.542647,183.35967 -49.159118,185.53241 -49.768917,187.97446 L -50.893917,192.41196 L -51.737667,193.19321 C -53.222907,194.54635 -54.636958,194.46339 -55.143917,192.97446 C -55.487237,191.96619 -55.190586,190.18022 -54.237667,187.38071 C -53.828097,186.17746 -53.487668,184.88263 -53.487667,184.50571 C -53.487667,183.06991 -54.261005,182.34946 -55.737667,182.34946 z M -103.17517,182.88071 C -102.20108,182.88071 -101.23767,184.08357 -101.23767,185.28696 C -101.23767,185.77967 -101.73617,188.00264 -102.55017,191.09946 C -102.7842,191.98977 -104.04429,193.37303 -105.01892,193.81821 C -106.90923,194.68166 -107.839,193.6753 -107.64392,190.94321 C -107.53685,189.44366 -106.84627,186.66724 -106.30017,185.59946 C -105.55882,184.1499 -104.10034,182.88071 -103.17517,182.88071 z M -165.36267,183.06821 C -164.41331,183.02076 -163.44275,183.3924 -162.76892,184.19321 C -161.46758,185.73976 -161.06408,189.08802 -161.89392,191.22446 C -162.33869,192.36947 -163.37469,193.56801 -164.26892,193.94321 C -165.43623,194.43298 -166.60638,194.06881 -167.64392,192.94321 L -168.39392,192.16196 L -168.39392,188.59946 C -168.39392,185.07854 -168.39481,185.0589 -167.92517,184.44321 C -167.26346,183.57566 -166.31203,183.11566 -165.36267,183.06821 z M -68.175167,191.78696 C -68.480599,191.81951 -68.76135,191.92807 -68.925167,192.16196 C -69.334827,192.74683 -69.296264,193.54085 -68.831417,194.00571 C -68.511937,194.32519 -68.291408,194.3947 -67.612667,194.31821 L -66.768917,194.22446 L -66.893917,195.16196 C -67.048217,196.32809 -67.593504,197.55255 -68.331417,198.47446 C -68.637517,198.85688 -68.83128,199.24856 -68.768917,199.34946 C -68.706557,199.45037 -68.574377,199.53696 -68.487667,199.53696 C -68.203287,199.53696 -67.31992,198.35576 -66.831417,197.31821 C -66.424807,196.45458 -66.362767,196.03991 -66.362667,194.59946 C -66.362557,193.16466 -66.409205,192.82282 -66.737667,192.38071 C -67.071448,191.93142 -67.666114,191.73271 -68.175167,191.78696 z M -129.45642,198.09946 C -129.80481,198.13253 -129.89392,198.2284 -129.89392,198.34946 C -129.89392,198.53615 -129.73689,198.63071 -129.39392,198.63071 C -129.10812,198.63071 -128.74328,198.72227 -128.58142,198.84946 C -128.41954,198.97666 -127.68696,200.50592 -126.95642,202.25571 L -125.61267,205.44321 L -126.05017,207.34946 C -126.52365,209.47008 -126.81632,209.91196 -127.76892,209.91196 C -128.39659,209.91196 -128.72839,210.10877 -128.48767,210.34946 C -128.28655,210.55058 -123.33142,210.40074 -123.33142,210.19321 C -123.33142,210.09146 -123.66292,209.97514 -124.05017,209.94321 C -124.43742,209.9113 -124.78022,209.76414 -124.83142,209.63071 C -124.96412,209.28488 -124.17723,206.02031 -123.83142,205.47446 C -123.67217,205.22309 -122.39876,203.7651 -120.98767,202.22446 C -118.55298,199.56624 -117.91967,199.00436 -116.73767,198.66196 C -115.67626,198.3545 -116.14043,198.15169 -118.01892,198.09946 C -119.55745,198.05668 -119.92517,198.10531 -119.92517,198.31821 C -119.92517,198.46253 -119.75368,198.60874 -119.55017,198.66196 C -119.34667,198.71518 -119.17517,198.90736 -119.17517,199.06821 C -119.17517,199.33508 -123.75313,204.53695 -123.98767,204.53696 C -124.04335,204.53696 -124.59972,203.26688 -125.23767,201.72446 C -126.47448,198.73411 -126.48273,198.6366 -125.39392,198.63071 C -125.05782,198.62889 -124.90717,198.52899 -124.95642,198.38071 C -125.0115,198.21492 -125.70991,198.13646 -127.45642,198.09946 C -128.49902,198.07737 -129.10803,198.06639 -129.45642,198.09946 z M -134.80017,200.28696 C -137.52878,200.28696 -138.62194,200.6123 -139.95642,201.78696 C -143.21176,204.65244 -142.10037,209.81503 -137.89392,211.31821 C -137.4851,211.46431 -136.30702,211.56325 -134.86267,211.56821 C -132.8603,211.57509 -132.45892,211.53777 -132.36267,211.28696 C -132.17055,210.78628 -132.68153,210.63789 -134.98767,210.63071 C -136.81414,210.62504 -137.36524,210.56538 -138.05017,210.25571 C -139.46223,209.61727 -140.54808,208.35083 -140.89392,206.91196 L -141.01892,206.38071 L -136.73767,206.38071 C -132.99825,206.38071 -132.46234,206.35919 -132.36267,206.09946 C -132.30016,205.93657 -132.3769,205.72065 -132.51892,205.63071 C -132.66094,205.54078 -134.62992,205.47601 -136.89392,205.47446 C -139.15791,205.4729 -141.01892,205.42778 -141.01892,205.38071 C -141.01892,204.86794 -140.12985,203.16426 -139.58142,202.63071 C -138.3864,201.46811 -137.52812,201.23235 -134.98767,201.22446 C -132.68153,201.21731 -132.17055,201.06889 -132.36267,200.56821 C -132.45849,200.31851 -132.85148,200.28696 -134.80017,200.28696 z M -150.45642,202.50571 C -151.19698,202.5834 -151.97854,203.19523 -152.48767,204.19321 C -152.9073,205.01574 -152.9544,205.47446 -152.61267,205.47446 C -152.48023,205.47446 -152.1979,205.06579 -151.98767,204.56821 C -151.58668,203.61908 -150.83551,202.94925 -150.36267,203.13071 C -149.96498,203.28332 -149.99678,203.71488 -150.61267,205.53696 C -150.91187,206.42209 -151.20311,207.50441 -151.26892,207.94321 C -151.42542,208.98677 -151.01449,209.96393 -150.26892,210.34946 C -149.56302,210.71449 -148.20911,210.73729 -147.73767,210.38071 C -147.13722,209.92655 -147.10452,210.05985 -147.48767,211.06821 C -148.19617,212.93285 -149.73721,213.93214 -151.08142,213.41196 L -151.64392,213.19321 L -151.11267,212.94321 C -150.6838,212.71683 -150.62804,212.5549 -150.67517,212.06821 C -150.71934,211.61219 -150.8102,211.45923 -151.14392,211.41196 C -151.75573,211.32531 -152.30017,211.87829 -152.30017,212.59946 C -152.30017,213.05013 -152.14962,213.32028 -151.70642,213.69321 C -151.18087,214.13543 -150.98902,214.19862 -150.05017,214.13071 C -148.76984,214.0381 -147.48872,213.30083 -146.64392,212.19321 C -146.17746,211.58164 -145.88112,210.71538 -145.01892,207.38071 C -144.43821,205.13476 -144.01863,203.13807 -144.08142,202.97446 C -144.21775,202.61918 -144.96095,202.57854 -145.23767,202.91196 C -145.34565,203.04208 -145.73959,204.41985 -146.11267,205.94321 C -146.74724,208.53431 -146.82031,208.73169 -147.48767,209.38071 C -148.96377,210.81629 -150.34256,209.94135 -149.89392,207.84946 C -149.79134,207.37114 -149.4957,206.44126 -149.23767,205.75571 C -148.64406,204.17864 -148.65574,203.52514 -149.23767,202.94321 C -149.58888,202.592 -150.01208,202.4591 -150.45642,202.50571 z M -161.17517,203.25571 C -162.80875,203.25571 -163.20642,203.29181 -163.20642,203.50571 C -163.20642,203.65148 -163.03493,203.81613 -162.83142,203.88071 C -162.15935,204.09401 -162.43361,204.61515 -164.17517,206.34946 L -165.92517,208.06821 L -166.80017,206.19321 C -167.66365,204.39284 -167.69486,204.27985 -167.36267,204.03696 C -167.17178,203.89737 -166.85922,203.78696 -166.67517,203.78696 C -166.49111,203.78696 -166.36267,203.66131 -166.36267,203.50571 C -166.36267,203.26358 -166.71497,203.24278 -168.80017,203.28696 C -170.54669,203.32396 -171.24509,203.40243 -171.30017,203.56821 C -171.34683,203.7087 -171.21865,203.78541 -170.95642,203.78696 C -169.88609,203.79321 -169.74798,203.94059 -168.48767,206.63071 C -167.81254,208.07178 -167.26652,209.34 -167.26892,209.44321 C -167.27131,209.54644 -168.34658,210.68312 -169.64392,211.97446 C -171.95975,214.27956 -173.08205,215.05845 -174.08142,215.06821 C -174.32628,215.0706 -174.48767,215.18621 -174.48767,215.34946 C -174.48767,215.58005 -174.13051,215.63071 -172.36267,215.63071 C -170.67458,215.63071 -170.23767,215.58377 -170.23767,215.38071 C -170.23767,215.23994 -170.40916,215.09018 -170.61267,215.03696 C -171.30739,214.85528 -170.97257,214.25767 -168.95642,212.13071 L -166.92517,210.00571 L -165.89392,212.13071 C -165.32895,213.29978 -164.8636,214.3736 -164.86267,214.53696 C -164.86168,214.7115 -165.11725,214.90843 -165.45642,215.00571 C -166.66057,215.35106 -166.05041,215.54813 -163.61267,215.59946 C -161.51388,215.64366 -161.17517,215.6229 -161.17517,215.38071 C -161.17517,215.19401 -161.36346,215.06822 -161.70642,215.06821 C -161.99223,215.06821 -162.35116,214.97665 -162.51892,214.84946 C -162.68669,214.72228 -163.43738,213.28999 -164.20642,211.66196 L -165.61267,208.69321 L -163.33142,206.44321 C -161.43452,204.57119 -160.92206,204.18131 -160.23767,204.00571 C -159.01267,203.69143 -158.92469,203.64626 -159.05017,203.44321 C -159.11613,203.3365 -160.01585,203.2557 -161.17517,203.25571 z M -179.20642,205.47446 C -181.93503,205.47446 -183.02818,205.76855 -184.36267,206.94321 C -187.61801,209.80867 -186.50661,215.00253 -182.30017,216.50571 C -181.89134,216.6518 -180.68202,216.7195 -179.23767,216.72446 C -177.2353,216.73133 -176.86517,216.69401 -176.76892,216.44321 C -176.5768,215.94254 -177.08777,215.82538 -179.39392,215.81821 C -181.22039,215.81254 -181.77149,215.7529 -182.45642,215.44321 C -183.86847,214.80477 -184.95434,213.50707 -185.30017,212.06821 L -185.42517,211.56821 L -181.14392,211.56821 C -177.40449,211.56821 -176.86858,211.54668 -176.76892,211.28696 C -176.70642,211.12406 -176.78315,210.90814 -176.92517,210.81821 C -177.06718,210.72829 -179.03619,210.63227 -181.30017,210.63071 C -183.56417,210.62915 -185.39392,210.61527 -185.39392,210.56821 C -185.39392,210.05545 -184.53609,208.35176 -183.98767,207.81821 C -182.79265,206.65561 -181.93436,206.3886 -179.39392,206.38071 C -177.08778,206.37355 -176.5768,206.25639 -176.76892,205.75571 C -176.86474,205.50601 -177.25773,205.47446 -179.20642,205.47446 z M -190.67517,207.69321 C -191.1229,207.72922 -191.57793,207.9272 -191.98767,208.28696 C -192.58762,208.81373 -192.67511,208.81629 -192.83142,208.53696 C -193.30133,207.6973 -194.86436,207.46211 -195.95642,208.03696 C -196.60032,208.3759 -197.80016,209.89554 -197.80017,210.38071 C -197.80017,210.80794 -197.26114,210.66594 -197.08142,210.19321 C -196.77162,209.37839 -195.78655,208.44463 -195.11267,208.31821 C -194.36954,208.1788 -193.73767,208.6117 -193.73767,209.25571 C -193.73767,210.06742 -194.82684,214.03779 -195.17517,214.50571 C -195.58977,215.06265 -196.30904,215.36967 -196.76892,215.19321 C -197.05803,215.08226 -197.07856,215.06535 -196.80017,214.78696 C -196.35724,214.34403 -196.48147,213.51933 -197.01892,213.44321 C -198.08318,213.29246 -198.56032,214.74694 -197.67517,215.44321 C -196.85123,216.09132 -195.19632,215.81206 -194.67517,214.94321 C -194.49022,214.63486 -194.45387,214.63486 -194.26892,214.94321 C -193.78705,215.74654 -192.15726,216.07919 -191.17517,215.56821 C -190.04545,214.98041 -188.77442,212.84946 -189.55017,212.84946 C -189.69372,212.84946 -189.98662,213.23916 -190.20642,213.69321 C -190.90731,215.14104 -192.49513,215.72947 -193.11267,214.78696 C -193.40603,214.33923 -193.37657,214.19219 -192.80017,211.78696 C -192.12011,208.94912 -191.69232,208.22446 -190.61267,208.22446 C -189.98721,208.22446 -189.88984,208.42048 -190.33142,208.78696 C -190.49104,208.91944 -190.58112,209.23952 -190.55017,209.50571 C -190.50823,209.8665 -190.38511,209.99451 -190.01892,210.03696 C -188.94811,210.16113 -188.52962,208.77267 -189.42517,208.06821 C -189.80209,207.77172 -190.22744,207.6572 -190.67517,207.69321 z "
         style="fill:#000000;fill-opacity:1;stroke:none;stroke-width:2;stroke-linecap:round;stroke-linejoin:round;stroke-miterlimit:4;stroke-dasharray:none;stroke-dashoffset:0;stroke-opacity:1" />
    </g>
  </g>
</svg>
