<?xml version="1.0" encoding="UTF-8" standalone="no"?>
<!-- Created with Inkscape (http://www.inkscape.org/) -->

<svg
   xmlns:ns0="http://www.iki.fi/pav/software/textext/"
   xmlns:dc="http://purl.org/dc/elements/1.1/"
   xmlns:cc="http://creativecommons.org/ns#"
   xmlns:rdf="http://www.w3.org/1999/02/22-rdf-syntax-ns#"
   xmlns:svg="http://www.w3.org/2000/svg"
   xmlns="http://www.w3.org/2000/svg"
   xmlns:sodipodi="http://sodipodi.sourceforge.net/DTD/sodipodi-0.dtd"
   xmlns:inkscape="http://www.inkscape.org/namespaces/inkscape"
   width="571.90955"
   height="431.90958"
   id="svg2"
   version="1.1"
   inkscape:version="0.48.1 "
   sodipodi:docname="cas_graph.svg">
  <sodipodi:namedview
     id="base"
     pagecolor="#ffffff"
     bordercolor="#666666"
     borderopacity="1.0"
     inkscape:pageopacity="0.0"
     inkscape:pageshadow="2"
     inkscape:zoom="0.70603069"
     inkscape:cx="195.46135"
     inkscape:cy="38.090647"
     inkscape:document-units="px"
     inkscape:current-layer="layer1"
     showgrid="false"
     inkscape:window-width="1280"
     inkscape:window-height="962"
     inkscape:window-x="-8"
     inkscape:window-y="-8"
     inkscape:window-maximized="1"
     fit-margin-top="0"
     fit-margin-left="0"
     fit-margin-right="0"
     fit-margin-bottom="0">
    <inkscape:grid
       id="grid3773"
       type="xygrid"
       empspacing="5"
       visible="true"
       enabled="true"
       snapvisiblegridlinesonly="true" />
  </sodipodi:namedview>
  <defs
     id="defs4">
    <marker
       inkscape:stockid="Arrow2Mend"
       orient="auto"
       refY="0"
       refX="0"
       id="Arrow2Mend"
       style="overflow:visible">
      <path
         id="path3939"
         style="font-size:12px;fill-rule:evenodd;stroke-width:0.625;stroke-linejoin:round"
         d="M 8.7185878,4.0337352 -2.2072895,0.01601326 8.7185884,-4.0017078 c -1.7454984,2.3720609 -1.7354408,5.6174519 -6e-7,8.035443 z"
         transform="scale(-0.6,-0.6)"
         inkscape:connector-curvature="0" />
    </marker>
    <marker
       inkscape:stockid="Arrow1Lend"
       orient="auto"
       refY="0"
       refX="0"
       id="Arrow1Lend"
       style="overflow:visible">
      <path
         id="path3915"
         d="M 0,0 5,-5 -12.5,0 5,5 0,0 z"
         style="fill-rule:evenodd;stroke:#000000;stroke-width:1pt;marker-start:none"
         transform="matrix(-0.8,0,0,-0.8,-10,0)"
         inkscape:connector-curvature="0" />
    </marker>
  </defs>
  <metadata
     id="metadata7">
    <rdf:RDF>
      <cc:Work
         rdf:about="">
        <dc:format>image/svg+xml</dc:format>
        <dc:type
           rdf:resource="http://purl.org/dc/dcmitype/StillImage" />
        <dc:title />
      </cc:Work>
    </rdf:RDF>
  </metadata>
  <g
     id="layer1"
     inkscape:groupmode="layer"
     inkscape:label="Layer 1"
     transform="translate(-54.045219,-132.36219)">
    <path
       style="fill:none;stroke:#000000;stroke-width:4;stroke-linecap:butt;stroke-linejoin:miter;stroke-miterlimit:4;stroke-opacity:1;stroke-dasharray:none"
       d="m 440,512.36218 100,0"
       id="path3905"
       inkscape:connector-curvature="0" />
    <path
       style="fill:none;stroke:#000000;stroke-width:4;stroke-linecap:butt;stroke-linejoin:miter;stroke-miterlimit:4;stroke-opacity:1;stroke-dasharray:none"
       d="m 580,392.36218 0,80"
       id="path3897"
       inkscape:connector-curvature="0" />
    <path
       style="fill:none;stroke:#000000;stroke-width:4;stroke-linecap:butt;stroke-linejoin:miter;stroke-miterlimit:4;stroke-opacity:1;stroke-dasharray:none"
       d="m 440,352.36218 100,0"
       id="path3895"
       inkscape:connector-curvature="0" />
    <path
       style="fill:none;stroke:#000000;stroke-width:4;stroke-linecap:butt;stroke-linejoin:miter;stroke-miterlimit:4;stroke-opacity:1;stroke-dasharray:none"
       d="m 260,512.36218 100,0"
       id="path3903"
       inkscape:connector-curvature="0" />
    <path
       style="fill:none;stroke:#000000;stroke-width:4;stroke-linecap:butt;stroke-linejoin:miter;stroke-miterlimit:4;stroke-opacity:1;stroke-dasharray:none"
       d="m 400,392.36218 0,80"
       id="path3899"
       inkscape:connector-curvature="0" />
    <path
       style="fill:none;stroke:#000000;stroke-width:4;stroke-linecap:butt;stroke-linejoin:miter;stroke-miterlimit:4;stroke-opacity:1;stroke-dasharray:none"
       d="m 260,352.36218 100,0"
       id="path3893"
       inkscape:connector-curvature="0" />
    <path
       style="fill:none;stroke:#000000;stroke-width:4;stroke-linecap:butt;stroke-linejoin:miter;stroke-miterlimit:4;stroke-opacity:1;stroke-dasharray:none"
       d="m 220,392.36218 0,80"
       id="path3901"
       inkscape:connector-curvature="0" />
    <path
       transform="matrix(1.0139214,0,0,1.0466286,30.436537,42.563126)"
       d="m 232.28452,301.68661 c 0,24.24941 -20.29216,43.90745 -45.32381,43.90745 -25.03165,0 -45.32381,-19.65804 -45.32381,-43.90745 0,-24.2494 20.29216,-43.90744 45.32381,-43.90744 25.03165,0 45.32381,19.65804 45.32381,43.90744 z"
       sodipodi:ry="43.90744"
       sodipodi:rx="45.323811"
       sodipodi:cy="301.68661"
       sodipodi:cx="186.96071"
       id="path2985"
       style="fill:#979894;fill-opacity:1;stroke:none"
       sodipodi:type="arc" />
    <path
       transform="matrix(1.0139214,0,0,1.0466286,210.43654,42.563126)"
       d="m 232.28452,301.68661 c 0,24.24941 -20.29216,43.90745 -45.32381,43.90745 -25.03165,0 -45.32381,-19.65804 -45.32381,-43.90745 0,-24.2494 20.29216,-43.90744 45.32381,-43.90744 25.03165,0 45.32381,19.65804 45.32381,43.90744 z"
       sodipodi:ry="43.90744"
       sodipodi:rx="45.323811"
       sodipodi:cy="301.68661"
       sodipodi:cx="186.96071"
       id="path2985-1"
       style="fill:#979894;fill-opacity:1;stroke:none"
       sodipodi:type="arc" />
    <path
       transform="matrix(1.0139214,0,0,1.0466286,390.43654,42.563126)"
       d="m 232.28452,301.68661 c 0,24.24941 -20.29216,43.90745 -45.32381,43.90745 -25.03165,0 -45.32381,-19.65804 -45.32381,-43.90745 0,-24.2494 20.29216,-43.90744 45.32381,-43.90744 25.03165,0 45.32381,19.65804 45.32381,43.90744 z"
       sodipodi:ry="43.90744"
       sodipodi:rx="45.323811"
       sodipodi:cy="301.68661"
       sodipodi:cx="186.96071"
       id="path2985-4"
       style="fill:#979894;fill-opacity:1;stroke:none"
       sodipodi:type="arc" />
    <path
       transform="matrix(1.0139214,0,0,1.0466286,30.436537,202.56313)"
       d="m 232.28452,301.68661 c 0,24.24941 -20.29216,43.90745 -45.32381,43.90745 -25.03165,0 -45.32381,-19.65804 -45.32381,-43.90745 0,-24.2494 20.29216,-43.90744 45.32381,-43.90744 25.03165,0 45.32381,19.65804 45.32381,43.90744 z"
       sodipodi:ry="43.90744"
       sodipodi:rx="45.323811"
       sodipodi:cy="301.68661"
       sodipodi:cx="186.96071"
       id="path2985-3"
       style="fill:#979894;fill-opacity:1;stroke:none"
       sodipodi:type="arc" />
    <path
       transform="matrix(1.0139214,0,0,1.0466286,210.43654,202.56313)"
       d="m 232.28452,301.68661 c 0,24.24941 -20.29216,43.90745 -45.32381,43.90745 -25.03165,0 -45.32381,-19.65804 -45.32381,-43.90745 0,-24.2494 20.29216,-43.90744 45.32381,-43.90744 25.03165,0 45.32381,19.65804 45.32381,43.90744 z"
       sodipodi:ry="43.90744"
       sodipodi:rx="45.323811"
       sodipodi:cy="301.68661"
       sodipodi:cx="186.96071"
       id="path2985-5"
       style="fill:#979894;fill-opacity:1;stroke:none"
       sodipodi:type="arc" />
    <path
       transform="matrix(1.0139214,0,0,1.0466286,390.43654,202.56313)"
       d="m 232.28452,301.68661 c 0,24.24941 -20.29216,43.90745 -45.32381,43.90745 -25.03165,0 -45.32381,-19.65804 -45.32381,-43.90745 0,-24.2494 20.29216,-43.90744 45.32381,-43.90744 25.03165,0 45.32381,19.65804 45.32381,43.90744 z"
       sodipodi:ry="43.90744"
       sodipodi:rx="45.323811"
       sodipodi:cy="301.68661"
       sodipodi:cx="186.96071"
       id="path2985-12"
       style="fill:#979894;fill-opacity:1;stroke:none"
       sodipodi:type="arc" />
    <path
       transform="matrix(1.0139214,0,0,1.0466286,-89.563463,-137.43687)"
       d="m 232.28452,301.68661 c 0,24.24941 -20.29216,43.90745 -45.32381,43.90745 -25.03165,0 -45.32381,-19.65804 -45.32381,-43.90745 0,-24.2494 20.29216,-43.90744 45.32381,-43.90744 25.03165,0 45.32381,19.65804 45.32381,43.90744 z"
       sodipodi:ry="43.90744"
       sodipodi:rx="45.323811"
       sodipodi:cy="301.68661"
       sodipodi:cx="186.96071"
       id="path2985-9"
       style="fill:#979894;fill-opacity:1;stroke:none"
       sodipodi:type="arc" />
    <text
       sodipodi:linespacing="125%"
       id="text3810"
       y="372.36218"
       x="204.2491"
       style="font-size:40px;font-style:normal;font-weight:normal;line-height:125%;letter-spacing:0px;word-spacing:0px;fill:#000000;fill-opacity:1;stroke:none;font-family:Sans"
       xml:space="preserve"><tspan
         style="font-size:50px"
         y="372.36218"
         x="204.2491"
         id="tspan3812"
         sodipodi:role="line">1</tspan></text>
    <text
       sodipodi:linespacing="125%"
       id="text3814"
       y="373.92142"
       x="385.25238"
       style="font-size:40px;font-style:normal;font-weight:normal;line-height:125%;letter-spacing:0px;word-spacing:0px;fill:#000000;fill-opacity:1;stroke:none;font-family:Sans"
       xml:space="preserve"><tspan
         style="font-size:50px"
         y="373.92142"
         x="385.25238"
         id="tspan3816"
         sodipodi:role="line">2</tspan></text>
    <text
       sodipodi:linespacing="125%"
       id="text3818"
       y="373.92142"
       x="567.96399"
       style="font-size:40px;font-style:normal;font-weight:normal;line-height:125%;letter-spacing:0px;word-spacing:0px;fill:#000000;fill-opacity:1;stroke:none;font-family:Sans"
       xml:space="preserve"><tspan
         style="font-size:50px"
         y="373.92142"
         x="567.96399"
         id="tspan3820"
         sodipodi:role="line">3</tspan></text>
    <text
       sodipodi:linespacing="125%"
       id="text3822"
       y="535.38745"
       x="202.54077"
       style="font-size:40px;font-style:normal;font-weight:normal;line-height:125%;letter-spacing:0px;word-spacing:0px;fill:#000000;fill-opacity:1;stroke:none;font-family:Sans"
       xml:space="preserve"><tspan
         style="font-size:50px"
         y="535.38745"
         x="202.54077"
         id="tspan3824"
         sodipodi:role="line">4</tspan></text>
    <text
       sodipodi:linespacing="125%"
       id="text3826"
       y="536.80389"
       x="383.83603"
       style="font-size:40px;font-style:normal;font-weight:normal;line-height:125%;letter-spacing:0px;word-spacing:0px;fill:#000000;fill-opacity:1;stroke:none;font-family:Sans"
       xml:space="preserve"><tspan
         style="font-size:50px"
         y="536.80389"
         x="383.83603"
         id="tspan3828"
         sodipodi:role="line">5</tspan></text>
    <text
       sodipodi:linespacing="125%"
       id="text3830"
       y="535.38745"
       x="565.13123"
       style="font-size:40px;font-style:normal;font-weight:normal;line-height:125%;letter-spacing:0px;word-spacing:0px;fill:#000000;fill-opacity:1;stroke:none;font-family:Sans"
       xml:space="preserve"><tspan
         style="font-size:50px"
         y="535.38745"
         x="565.13123"
         id="tspan3832"
         sodipodi:role="line">6</tspan></text>
    <g
       ns0:preamble=""
       ns0:text="$ \\sigma^{r}_{c} $"
       word-spacing="normal"
       letter-spacing="normal"
       font-size-adjust="none"
       font-stretch="normal"
       font-weight="normal"
       font-variant="normal"
       font-style="normal"
       stroke-miterlimit="10.433"
       xml:space="preserve"
       transform="matrix(5.76,0,0,-5.76,-1217.179,4263.898)"
       id="content"
       style="font-style:normal;font-variant:normal;font-weight:normal;font-stretch:normal;letter-spacing:normal;word-spacing:normal;text-anchor:start;fill:none;stroke:#000000;stroke-linecap:butt;stroke-linejoin:miter;stroke-miterlimit:10.43299961;stroke-opacity:1;stroke-dasharray:none;stroke-dashoffset:0">
<path
   id="path3860"
   d="m 228.6,710.84 0.01,0 0.01,0 0.02,0 0.01,0 0.02,0 0.02,0 0.02,0 0.02,0 0.02,0 0.02,0.01 0.02,0 0.02,0 0.02,0.01 0.02,0.01 0.02,0 0.02,0.01 0.02,0.01 0.02,0.01 0.02,0.01 0.01,0.01 0.02,0.01 0.02,0.02 0,0 0.01,0.01 0.01,0.01 0.01,0.01 0,0.01 0.01,0.01 0,0.01 0.01,0.01 0.01,0.01 0,0.01 0,0.01 0.01,0.01 0,0.02 0.01,0.01 0,0.01 0,0.02 0,0.01 0,0.02 0,0.01 0,0.02 c 0,0.23 -0.2,0.23 -0.38,0.23 h -2.28 c -1.5,0 -2.61,-1.64 -2.61,-2.82 0,-0.88 0.59,-1.57 1.5,-1.57 l 0.01,0.21 c -0.49,0 -0.89,0.36 -0.89,1.08 0,0.3 0.12,1.11 0.47,1.7 0.42,0.69 1.01,0.83 1.35,0.83 0.84,0 0.92,-0.66 0.92,-0.97 0,-0.47 -0.2,-1.28 -0.54,-1.79 -0.39,-0.59 -0.92,-0.85 -1.31,-0.85 h 0 l -0.01,-0.21 c 1.17,0 2.5,1.2 2.5,2.73 0,0.17 0,0.65 -0.31,1.09 z"
   inkscape:connector-curvature="0"
   style="fill:#000000;stroke-width:0" />
<path
   id="path3862"
   d="m 231.12,712.15 0,0 0,0 0,0 0,0.01 0,0 0,0.01 0.01,0.01 0,0.01 0,0 0,0.01 0,0.01 0.01,0.01 0,0.01 0,0.01 0.01,0.03 0,0.02 0.01,0.03 0.01,0.03 0.01,0.03 0,0.03 0.01,0.03 0.02,0.06 0.01,0.06 0.01,0.03 0.01,0.03 0.01,0.03 0,0.03 0.01,0.02 0.01,0.03 0,0.02 0.01,0.01 0,0.01 0,0.01 0,0.01 0.01,0.01 0,0.01 0,0.01 0,0 0,0.01 0.01,0 0,0.01 0,0 0,0 0,0.01 c 0.01,0.05 0.22,0.4 0.44,0.57 0.08,0.05 0.26,0.19 0.56,0.19 0.07,0 0.25,-0.01 0.39,-0.1 -0.23,-0.06 -0.31,-0.25 -0.31,-0.38 0,-0.15 0.12,-0.25 0.28,-0.25 0.16,0 0.39,0.13 0.39,0.42 0,0.36 -0.39,0.51 -0.74,0.51 -0.36,0 -0.68,-0.15 -0.98,-0.5 -0.13,0.43 -0.55,0.5 -0.72,0.5 -0.26,0 -0.43,-0.16 -0.54,-0.36 -0.16,-0.27 -0.26,-0.67 -0.26,-0.71 0,-0.09 0.1,-0.09 0.12,-0.09 0.09,0 0.1,0.02 0.15,0.21 0.1,0.42 0.24,0.75 0.51,0.75 0.18,0 0.23,-0.15 0.23,-0.34 0,-0.13 -0.06,-0.39 -0.11,-0.58 -0.05,-0.18 -0.12,-0.47 -0.16,-0.62 l -0.22,-0.89 c -0.03,-0.09 -0.07,-0.27 -0.07,-0.29 0,-0.15 0.13,-0.22 0.24,-0.22 0.1,0 0.24,0.06 0.3,0.2 0.01,0.04 0.09,0.35 0.13,0.52 z"
   inkscape:connector-curvature="0"
   style="fill:#000000;stroke-width:0" />
<path
   id="path3864"
   d="m 232.18,707.33 -0.03,-0.01 -0.02,0 -0.02,-0.01 -0.02,-0.01 -0.02,-0.01 -0.02,0 -0.02,-0.01 -0.02,-0.01 -0.01,-0.01 -0.02,-0.01 -0.01,-0.01 -0.02,-0.02 -0.01,-0.01 -0.01,-0.01 -0.02,-0.01 -0.01,-0.02 -0.01,-0.01 -0.01,-0.02 -0.01,-0.01 0,-0.01 -0.01,-0.02 -0.01,-0.01 0,-0.02 -0.01,-0.01 0,-0.02 -0.01,-0.01 0,-0.02 0,-0.02 -0.01,-0.01 0,-0.01 0,-0.02 0,-0.01 c 0,-0.19 0.15,-0.26 0.27,-0.26 0.15,0 0.4,0.11 0.4,0.44 0,0.48 -0.54,0.61 -0.92,0.61 -1.05,0 -2.01,-0.96 -2.01,-1.93 0,-0.6 0.42,-1.21 1.29,-1.21 1.17,0 1.72,0.69 1.72,0.79 0,0.04 -0.06,0.12 -0.12,0.12 -0.04,0 -0.05,-0.02 -0.11,-0.07 -0.54,-0.64 -1.35,-0.64 -1.48,-0.64 -0.5,0 -0.73,0.34 -0.73,0.77 0,0.2 0.1,0.96 0.47,1.44 0.26,0.34 0.62,0.53 0.97,0.53 0.1,0 0.43,-0.01 0.61,-0.2 z"
   inkscape:connector-curvature="0"
   style="fill:#000000;stroke-width:0" />
</g>    <path
       style="fill:none;stroke:#000000;stroke-width:4;stroke-linecap:butt;stroke-linejoin:miter;stroke-miterlimit:4;stroke-opacity:1;stroke-dasharray:none;marker-end:url(#Arrow2Mend)"
       d="m 140,192.36218 240,120"
       id="path3907"
       inkscape:connector-curvature="0" />
  </g>
</svg>
