<?xml version="1.0" encoding="UTF-8" standalone="no"?>
<!-- Created with Inkscape (http://www.inkscape.org/) -->

<svg
   xmlns:ns0="http://www.iki.fi/pav/software/textext/"
   xmlns:dc="http://purl.org/dc/elements/1.1/"
   xmlns:cc="http://creativecommons.org/ns#"
   xmlns:rdf="http://www.w3.org/1999/02/22-rdf-syntax-ns#"
   xmlns:svg="http://www.w3.org/2000/svg"
   xmlns="http://www.w3.org/2000/svg"
   xmlns:sodipodi="http://sodipodi.sourceforge.net/DTD/sodipodi-0.dtd"
   xmlns:inkscape="http://www.inkscape.org/namespaces/inkscape"
   width="969.57971"
   height="503.17136"
   id="svg2"
   version="1.1"
   inkscape:version="0.48.1 "
   sodipodi:docname="boundary.svg">
  <sodipodi:namedview
     id="base"
     pagecolor="#ffffff"
     bordercolor="#666666"
     borderopacity="1.0"
     inkscape:pageopacity="0.0"
     inkscape:pageshadow="2"
     inkscape:zoom="0.5"
     inkscape:cx="168.79461"
     inkscape:cy="352.62625"
     inkscape:document-units="px"
     inkscape:current-layer="layer1"
     showgrid="false"
     inkscape:window-width="1280"
     inkscape:window-height="962"
     inkscape:window-x="-8"
     inkscape:window-y="-8"
     inkscape:window-maximized="1"
     fit-margin-top="0"
     fit-margin-left="0"
     fit-margin-right="0"
     fit-margin-bottom="0">
    <inkscape:grid
       type="xygrid"
       id="grid2999"
       empspacing="5"
       visible="true"
       enabled="true"
       snapvisiblegridlinesonly="true" />
  </sodipodi:namedview>
  <defs
     id="defs4">
    <marker
       inkscape:stockid="Arrow1Lend"
       orient="auto"
       refY="0"
       refX="0"
       id="Arrow1Lend"
       style="overflow:visible">
      <path
         id="path3777"
         d="M 0,0 5,-5 -12.5,0 5,5 0,0 z"
         style="fill-rule:evenodd;stroke:#000000;stroke-width:1pt;marker-start:none"
         transform="matrix(-0.8,0,0,-0.8,-10,0)"
         inkscape:connector-curvature="0" />
    </marker>
    <marker
       inkscape:stockid="Arrow2Mend"
       orient="auto"
       refY="0"
       refX="0"
       id="Arrow2Mend"
       style="overflow:visible">
      <path
         id="path3801"
         style="font-size:12px;fill-rule:evenodd;stroke-width:0.625;stroke-linejoin:round"
         d="M 8.7185878,4.0337352 -2.2072895,0.01601326 8.7185884,-4.0017078 c -1.7454984,2.3720609 -1.7354408,5.6174519 -6e-7,8.035443 z"
         transform="scale(-0.6,-0.6)"
         inkscape:connector-curvature="0" />
    </marker>
    <marker
       inkscape:stockid="Arrow2Lend"
       orient="auto"
       refY="0"
       refX="0"
       id="Arrow2Lend"
       style="overflow:visible">
      <path
         id="path3795"
         style="font-size:12px;fill-rule:evenodd;stroke-width:0.625;stroke-linejoin:round"
         d="M 8.7185878,4.0337352 -2.2072895,0.01601326 8.7185884,-4.0017078 c -1.7454984,2.3720609 -1.7354408,5.6174519 -6e-7,8.035443 z"
         transform="matrix(-1.1,0,0,-1.1,-1.1,0)"
         inkscape:connector-curvature="0" />
    </marker>
    <marker
       inkscape:stockid="Arrow2Lend"
       orient="auto"
       refY="0"
       refX="0"
       id="Arrow2Lend-1"
       style="overflow:visible">
      <path
         inkscape:connector-curvature="0"
         id="path3795-7"
         style="font-size:12px;fill-rule:evenodd;stroke-width:0.625;stroke-linejoin:round"
         d="M 8.7185878,4.0337352 -2.2072895,0.01601326 8.7185884,-4.0017078 c -1.7454984,2.3720609 -1.7354408,5.6174519 -6e-7,8.035443 z"
         transform="matrix(-1.1,0,0,-1.1,-1.1,0)" />
    </marker>
  </defs>
  <metadata
     id="metadata7">
    <rdf:RDF>
      <cc:Work
         rdf:about="">
        <dc:format>image/svg+xml</dc:format>
        <dc:type
           rdf:resource="http://purl.org/dc/dcmitype/StillImage" />
        <dc:title />
      </cc:Work>
    </rdf:RDF>
  </metadata>
  <g
     inkscape:label="Layer 1"
     inkscape:groupmode="layer"
     id="layer1"
     transform="translate(12.88,-92.362173)">
    <path
       style="fill:#000000;fill-opacity:1;stroke:#000000;stroke-width:2.47033668;stroke-linecap:butt;stroke-linejoin:miter;stroke-miterlimit:4;stroke-opacity:1;stroke-dasharray:none;marker-end:url(#Arrow2Lend)"
       d="m 40,569.50503 680,2.85715"
       id="path3001"
       inkscape:connector-curvature="0" />
    <path
       style="fill:#000000;fill-opacity:1;stroke:#000000;stroke-width:2.11003852;stroke-linecap:butt;stroke-linejoin:miter;stroke-miterlimit:4;stroke-opacity:1;stroke-dasharray:none;marker-end:url(#Arrow2Lend)"
       d="M 145.8119,594.47851 148.66905,98.369323"
       id="path3001-4"
       inkscape:connector-curvature="0" />
    <path
       sodipodi:type="arc"
       style="fill:#000000;fill-opacity:1;stroke:#b4b4b4;stroke-width:2;stroke-miterlimit:4;stroke-opacity:1;stroke-dasharray:none;stroke-dashoffset:0"
       id="path4423"
       sodipodi:cx="300"
       sodipodi:cy="352.36218"
       sodipodi:rx="20"
       sodipodi:ry="20"
       d="m 320,352.36218 c 0,11.0457 -8.95431,20 -20,20 -11.04569,0 -20,-8.9543 -20,-20 0,-11.04569 8.95431,-20 20,-20 11.04569,0 20,8.95431 20,20 z"
       transform="matrix(0.47619048,0,0,0.47619048,227.14286,174.57067)" />
    <path
       sodipodi:type="arc"
       style="fill:none;stroke:#4db4b4;stroke-width:2;stroke-miterlimit:4;stroke-opacity:1;stroke-dasharray:16, 16;stroke-dashoffset:0"
       id="path4425"
       sodipodi:cx="420"
       sodipodi:cy="352.36218"
       sodipodi:rx="180"
       sodipodi:ry="180"
       d="m 600,352.36218 c 0,99.41126 -80.58875,180 -180,180 -99.41125,0 -180,-80.58874 -180,-180 0,-99.41125 80.58875,-180 180,-180 99.41125,0 180,80.58875 180,180 z"
       transform="translate(-50,-10)" />
    <path
       sodipodi:type="arc"
       style="fill:none;stroke:#0c0f54;stroke-width:2;stroke-miterlimit:4;stroke-opacity:1;stroke-dasharray:16, 16;stroke-dashoffset:0"
       id="path4425-5"
       sodipodi:cx="420"
       sodipodi:cy="352.36218"
       sodipodi:rx="180"
       sodipodi:ry="180"
       d="m 600,352.36218 c 0,99.41126 -80.58875,180 -180,180 -99.41125,0 -180,-80.58874 -180,-180 0,-99.41125 80.58875,-180 180,-180 99.41125,0 180,80.58875 180,180 z"
       transform="matrix(1.3812155,0,0,1.3812155,-210.1105,-144.32593)" />
    <g
       ns0:preamble=""
       ns0:text="reference point $ x^{*} $"
       word-spacing="normal"
       letter-spacing="normal"
       font-size-adjust="none"
       font-stretch="normal"
       font-weight="normal"
       font-variant="normal"
       font-style="normal"
       stroke-miterlimit="10.433"
       xml:space="preserve"
       transform="matrix(4,0,0,-4,-863.72,3170.9222)"
       id="content"
       style="font-style:normal;font-variant:normal;font-weight:normal;font-stretch:normal;letter-spacing:normal;word-spacing:normal;text-anchor:start;fill:none;stroke:#000000;stroke-linecap:butt;stroke-linejoin:miter;stroke-miterlimit:10.43299961;stroke-opacity:1;stroke-dasharray:none;stroke-dashoffset:0">
<path
   id="path4493"
   d="m 225.1,710.43 v 1.09 l -1.39,-0.11 v -0.3 c 0.7,0 0.78,-0.07 0.78,-0.56 v -2.67 c 0,-0.45 -0.11,-0.45 -0.78,-0.45 v -0.3 c 0.39,0.01 0.86,0.03 1.14,0.03 0.4,0 0.86,0 1.26,-0.03 v 0.3 h -0.21 c -0.73,0 -0.75,0.11 -0.75,0.47 v 1.53 c 0,0.99 0.42,1.87 1.17,1.87 0.07,0 0.09,0 0.11,-0.01 -0.03,-0.01 -0.23,-0.12 -0.23,-0.38 0,-0.28 0.21,-0.43 0.43,-0.43 0.18,0 0.43,0.12 0.43,0.44 0,0.31 -0.31,0.6 -0.74,0.6 -0.72,0 -1.08,-0.66 -1.22,-1.09 z"
   inkscape:connector-curvature="0"
   style="fill:#000000;stroke-width:0" />
<path
   id="path4495"
   d="m 228.44,709.42 0.01,0.21 c 0.06,1.49 0.9,1.73 1.24,1.73 1.02,0 1.12,-1.34 1.12,-1.73 h -2.36 l -0.01,-0.21 h 2.78 c 0.22,0 0.25,0 0.25,0.21 0,0.99 -0.54,1.95 -1.78,1.95 -1.16,0 -2.08,-1.02 -2.08,-2.26 0,-1.34 1.05,-2.3 2.2,-2.3 1.21,0 1.66,1.1 1.66,1.29 0,0.1 -0.08,0.12 -0.13,0.12 -0.09,0 -0.11,-0.06 -0.13,-0.14 -0.35,-1.03 -1.24,-1.03 -1.34,-1.03 -0.5,0 -0.9,0.3 -1.13,0.67 -0.3,0.48 -0.3,1.14 -0.3,1.49 z"
   inkscape:connector-curvature="0"
   style="fill:#000000;stroke-width:0" />
<path
   id="path4497"
   d="m 233.51,711.41 v 1.16 c 0,0.88 0.48,1.35 0.91,1.35 0.03,0 0.18,0 0.33,-0.07 -0.12,-0.04 -0.3,-0.17 -0.3,-0.42 0,-0.22 0.16,-0.42 0.43,-0.42 0.29,0 0.44,0.2 0.44,0.44 0,0.36 -0.37,0.69 -0.9,0.69 -0.69,0 -1.54,-0.53 -1.54,-1.58 v -1.15 h -0.79 v -0.3 h 0.79 v -3.23 c 0,-0.45 -0.11,-0.45 -0.78,-0.45 v -0.3 c 0.39,0.01 0.86,0.03 1.14,0.03 0.4,0 0.86,0 1.26,-0.03 v 0.3 h -0.21 c -0.73,0 -0.75,0.11 -0.75,0.47 v 3.21 h 1.13 v 0.3 z"
   inkscape:connector-curvature="0"
   style="fill:#000000;stroke-width:0" />
<path
   id="path4499"
   d="m 235.91,709.42 0.01,0.21 c 0.06,1.49 0.9,1.73 1.24,1.73 1.03,0 1.13,-1.34 1.13,-1.73 h -2.37 l -0.01,-0.21 h 2.78 c 0.22,0 0.25,0 0.25,0.21 0,0.99 -0.54,1.95 -1.78,1.95 -1.16,0 -2.07,-1.02 -2.07,-2.26 0,-1.34 1.04,-2.3 2.19,-2.3 1.21,0 1.66,1.1 1.66,1.29 0,0.1 -0.08,0.12 -0.13,0.12 -0.09,0 -0.11,-0.06 -0.13,-0.14 -0.34,-1.03 -1.24,-1.03 -1.34,-1.03 -0.5,0 -0.9,0.3 -1.13,0.67 -0.3,0.48 -0.3,1.14 -0.3,1.49 z"
   inkscape:connector-curvature="0"
   style="fill:#000000;stroke-width:0" />
<path
   id="path4501"
   d="m 240.9,710.43 v 1.09 l -1.39,-0.11 v -0.3 c 0.7,0 0.78,-0.07 0.78,-0.56 v -2.67 c 0,-0.45 -0.11,-0.45 -0.78,-0.45 v -0.3 c 0.39,0.01 0.86,0.03 1.14,0.03 0.4,0 0.87,0 1.26,-0.03 v 0.3 h -0.2 c -0.74,0 -0.76,0.11 -0.76,0.47 v 1.53 c 0,0.99 0.42,1.87 1.17,1.87 0.07,0 0.09,0 0.11,-0.01 -0.03,-0.01 -0.22,-0.12 -0.22,-0.38 0,-0.28 0.2,-0.43 0.42,-0.43 0.18,0 0.43,0.12 0.43,0.44 0,0.31 -0.31,0.6 -0.74,0.6 -0.72,0 -1.08,-0.66 -1.22,-1.09 z"
   inkscape:connector-curvature="0"
   style="fill:#000000;stroke-width:0" />
<path
   id="path4503"
   d="m 244.24,709.42 0.01,0.21 c 0.06,1.49 0.9,1.73 1.24,1.73 1.02,0 1.13,-1.34 1.13,-1.73 h -2.37 l -0.01,-0.21 h 2.78 c 0.22,0 0.25,0 0.25,0.21 0,0.99 -0.53,1.95 -1.78,1.95 -1.16,0 -2.08,-1.02 -2.08,-2.26 0,-1.34 1.05,-2.3 2.2,-2.3 1.21,0 1.66,1.1 1.66,1.29 0,0.1 -0.08,0.12 -0.13,0.12 -0.09,0 -0.11,-0.06 -0.13,-0.14 -0.35,-1.03 -1.24,-1.03 -1.34,-1.03 -0.5,0 -0.9,0.3 -1.13,0.67 -0.3,0.48 -0.3,1.14 -0.3,1.49 z"
   inkscape:connector-curvature="0"
   style="fill:#000000;stroke-width:0" />
<path
   id="path4505"
   d="m 248.66,710.55 v -2.67 c 0,-0.45 -0.11,-0.45 -0.78,-0.45 v -0.3 c 0.35,0.01 0.86,0.03 1.13,0.03 0.26,0 0.78,-0.02 1.12,-0.03 v 0.3 c -0.67,0 -0.78,0 -0.78,0.45 v 1.83 c 0,1.04 0.7,1.59 1.34,1.59 0.63,0 0.74,-0.53 0.74,-1.1 v -2.32 c 0,-0.45 -0.11,-0.45 -0.78,-0.45 v -0.3 c 0.35,0.01 0.86,0.03 1.13,0.03 0.26,0 0.78,-0.02 1.12,-0.03 v 0.3 c -0.52,0 -0.77,0 -0.78,0.3 v 1.9 c 0,0.86 0,1.17 -0.31,1.53 -0.14,0.17 -0.47,0.36 -1.05,0.36 -0.72,0 -1.19,-0.42 -1.47,-1.04 v 1.04 l -1.41,-0.11 v -0.3 c 0.7,0 0.78,-0.07 0.78,-0.56 z"
   inkscape:connector-curvature="0"
   style="fill:#000000;stroke-width:0" />
<path
   id="path4507"
   d="m 254.26,709.29 0.01,0.08 0,0.07 0,0.08 0,0.07 0.01,0.06 0.01,0.07 0,0.07 0.01,0.06 0.01,0.06 0.01,0.06 0.01,0.06 0.01,0.06 0.03,0.1 0.03,0.11 0.03,0.1 0.04,0.09 0.04,0.08 0.04,0.08 0.05,0.08 0.04,0.07 0.05,0.06 0.05,0.06 0.05,0.06 0.05,0.05 0.06,0.05 0.05,0.04 0.06,0.03 0.05,0.04 0.06,0.03 0.06,0.02 0.05,0.03 0.06,0.02 0.06,0.01 0.05,0.01 0.06,0.01 0.05,0.01 0.05,0 0.05,0.01 c 0.09,0 0.72,-0.01 1.07,-0.37 -0.41,-0.03 -0.47,-0.33 -0.47,-0.46 0,-0.26 0.18,-0.46 0.46,-0.46 0.26,0 0.46,0.17 0.46,0.47 0,0.68 -0.76,1.06 -1.53,1.06 -1.25,0 -2.16,-1.07 -2.16,-2.3 0,-1.28 0.98,-2.26 2.14,-2.26 1.34,0 1.65,1.19 1.65,1.29 0,0.1 -0.09,0.1 -0.12,0.1 -0.09,0 -0.11,-0.04 -0.13,-0.1 -0.29,-0.93 -0.94,-1.05 -1.31,-1.05 -0.53,0 -1.41,0.43 -1.41,2.03 z"
   inkscape:connector-curvature="0"
   style="fill:#000000;stroke-width:0" />
<path
   id="path4509"
   d="m 258.63,709.42 0.01,0.21 c 0.06,1.49 0.9,1.73 1.24,1.73 1.02,0 1.13,-1.34 1.13,-1.73 h -2.37 l -0.01,-0.21 h 2.78 c 0.22,0 0.25,0 0.25,0.21 0,0.99 -0.53,1.95 -1.78,1.95 -1.16,0 -2.08,-1.02 -2.08,-2.26 0,-1.34 1.05,-2.3 2.2,-2.3 1.21,0 1.66,1.1 1.66,1.29 0,0.1 -0.08,0.12 -0.13,0.12 -0.09,0 -0.11,-0.06 -0.13,-0.14 -0.35,-1.03 -1.24,-1.03 -1.34,-1.03 -0.5,0 -0.9,0.3 -1.13,0.67 -0.3,0.48 -0.3,1.14 -0.3,1.49 z"
   inkscape:connector-curvature="0"
   style="fill:#000000;stroke-width:0" />
<path
   id="path4511"
   d="m 266.98,710.87 v 0.65 l -1.43,-0.11 v -0.3 c 0.71,0 0.78,-0.06 0.78,-0.5 v -4.66 c 0,-0.45 -0.11,-0.45 -0.78,-0.45 v -0.31 c 0.34,0.01 0.86,0.03 1.12,0.03 0.27,0 0.77,-0.02 1.12,-0.03 v 0.31 c -0.66,0 -0.77,0 -0.77,0.45 v 1.67 0.09 l 0.13,0.13 c -0.13,0.21 -0.13,0.22 -0.13,0.42 h 0 v 2.22 c 0.28,0.51 0.77,0.8 1.28,0.8 0.73,0 1.34,-0.88 1.34,-2 0,-1.21 -0.7,-2.05 -1.44,-2.05 -0.4,0 -0.78,0.2 -1.05,0.61 l -0.13,-0.13 c 0.05,-0.16 0.46,-0.69 1.22,-0.69 1.19,0 2.22,0.97 2.22,2.26 0,1.26 -0.96,2.24 -2.08,2.24 -0.78,0 -1.2,-0.43 -1.4,-0.65 z"
   inkscape:connector-curvature="0"
   style="fill:#000000;stroke-width:0" />
<path
   id="path4513"
   d="m 275.78,709.26 0,0.11 -0.01,0.12 -0.02,0.12 -0.02,0.11 -0.02,0.11 -0.03,0.11 -0.03,0.11 -0.04,0.11 -0.05,0.1 -0.05,0.1 -0.05,0.1 -0.06,0.09 -0.06,0.09 -0.07,0.09 -0.07,0.09 -0.07,0.08 -0.08,0.07 -0.08,0.08 -0.08,0.07 -0.09,0.06 -0.09,0.06 -0.09,0.06 -0.09,0.05 -0.1,0.05 -0.1,0.04 -0.1,0.04 -0.11,0.03 -0.1,0.03 -0.11,0.02 -0.11,0.01 -0.11,0.01 -0.11,0 -0.01,-0.22 c 0.44,0 0.86,-0.21 1.12,-0.64 0.26,-0.43 0.26,-1.01 0.26,-1.39 0,-0.35 0,-0.89 -0.22,-1.33 -0.22,-0.45 -0.65,-0.74 -1.15,-0.74 h 0 c -0.43,0 -0.87,0.21 -1.14,0.67 -0.25,0.44 -0.25,1.05 -0.25,1.4 0,0.39 0,0.93 0.24,1.37 0.27,0.46 0.74,0.66 1.14,0.66 l 0.01,0.22 c -1.25,0 -2.22,-1.08 -2.22,-2.32 0,-1.29 1.04,-2.24 2.21,-2.24 1.2,0 2.21,0.97 2.21,2.24 z"
   inkscape:connector-curvature="0"
   style="fill:#000000;stroke-width:0" />
<path
   id="path4515"
   d="m 277.83,711.52 -1.4,-0.11 v -0.3 c 0.65,0 0.74,-0.06 0.74,-0.55 v -2.68 c 0,-0.45 -0.11,-0.45 -0.78,-0.45 v -0.3 c 0.32,0.01 0.86,0.03 1.1,0.03 0.35,0 0.7,-0.02 1.04,-0.03 v 0.3 c -0.66,0 -0.7,0.05 -0.7,0.44 z"
   inkscape:connector-curvature="0"
   style="fill:#000000;stroke-width:0" />
<path
   id="path4517"
   d="m 277.87,713.26 0,0.03 0,0.02 -0.01,0.03 0,0.03 -0.01,0.03 0,0.02 -0.01,0.03 -0.01,0.02 -0.01,0.03 -0.02,0.02 -0.01,0.02 -0.01,0.02 -0.02,0.02 -0.01,0.02 -0.02,0.02 -0.02,0.02 -0.02,0.02 -0.02,0.01 -0.02,0.02 -0.02,0.01 -0.02,0.01 -0.02,0.01 -0.02,0.02 -0.03,0.01 -0.02,0 -0.03,0.01 -0.02,0.01 -0.03,0 -0.02,0.01 -0.03,0 -0.02,0 -0.03,0 c -0.31,0 -0.53,-0.26 -0.53,-0.52 0,-0.27 0.22,-0.53 0.53,-0.53 0.28,0 0.53,0.21 0.53,0.53 z"
   inkscape:connector-curvature="0"
   style="fill:#000000;stroke-width:0" />
<path
   id="path4519"
   d="m 279.93,710.55 v -2.67 c 0,-0.45 -0.11,-0.45 -0.78,-0.45 v -0.3 c 0.35,0.01 0.86,0.03 1.13,0.03 0.26,0 0.78,-0.02 1.12,-0.03 v 0.3 c -0.67,0 -0.78,0 -0.78,0.45 v 1.83 c 0,1.04 0.71,1.59 1.34,1.59 0.63,0 0.74,-0.53 0.74,-1.1 v -2.32 c 0,-0.45 -0.11,-0.45 -0.78,-0.45 v -0.3 c 0.35,0.01 0.86,0.03 1.13,0.03 0.26,0 0.78,-0.02 1.12,-0.03 v 0.3 c -0.52,0 -0.77,0 -0.78,0.3 v 1.9 c 0,0.86 0,1.17 -0.31,1.53 -0.14,0.17 -0.47,0.36 -1.05,0.36 -0.72,0 -1.19,-0.42 -1.47,-1.04 v 1.04 l -1.41,-0.11 v -0.3 c 0.7,0 0.78,-0.07 0.78,-0.56 z"
   inkscape:connector-curvature="0"
   style="fill:#000000;stroke-width:0" />
<path
   id="path4521"
   d="m 285.82,711.11 h 1.42 v 0.3 h -1.42 v 1.84 h -0.25 c -0.02,-0.82 -0.31,-1.89 -1.29,-1.92 v -0.22 h 0.85 v -2.75 c 0,-1.22 0.92,-1.34 1.28,-1.34 0.71,0 0.99,0.7 0.99,1.34 v 0.57 h -0.25 v -0.55 c 0,-0.74 -0.3,-1.12 -0.67,-1.12 -0.66,0 -0.66,0.91 -0.66,1.08 z"
   inkscape:connector-curvature="0"
   style="fill:#000000;stroke-width:0" />
<path
   id="path4523"
   d="m 294.62,710.13 0,0.03 0.01,0.03 0.01,0.03 0.01,0.04 0.01,0.03 0.01,0.05 0.01,0.04 0.02,0.04 0.02,0.05 0.01,0.05 0.02,0.05 0.02,0.05 0.03,0.05 0.02,0.05 0.03,0.05 0.02,0.04 0.03,0.05 0.03,0.05 0.04,0.05 0.03,0.04 0.04,0.04 0.04,0.04 0.04,0.04 0.05,0.04 0.04,0.03 0.05,0.03 0.03,0.01 0.02,0.01 0.03,0.02 0.02,0.01 0.03,0 0.03,0.01 0.03,0.01 0.03,0 0.03,0.01 0.03,0 0.03,0 0.04,0 c 0.04,0 0.28,0 0.49,-0.12 -0.27,-0.05 -0.47,-0.3 -0.47,-0.54 0,-0.16 0.1,-0.35 0.37,-0.35 0.22,0 0.54,0.18 0.54,0.58 0,0.52 -0.59,0.65 -0.93,0.65 -0.57,0 -0.92,-0.52 -1.04,-0.75 -0.25,0.65 -0.79,0.75 -1.08,0.75 -1.04,0 -1.6,-1.28 -1.6,-1.53 0,-0.1 0.1,-0.1 0.12,-0.1 0.08,0 0.11,0.02 0.13,0.11 0.34,1.06 0.99,1.3 1.33,1.3 0.19,0 0.54,-0.08 0.54,-0.66 0,-0.31 -0.17,-0.98 -0.54,-2.37 -0.16,-0.62 -0.51,-1.04 -0.95,-1.04 -0.06,0 -0.28,0 -0.49,0.13 0.25,0.05 0.46,0.26 0.46,0.54 0,0.27 -0.21,0.35 -0.36,0.35 -0.3,0 -0.55,-0.26 -0.55,-0.58 0,-0.45 0.5,-0.65 0.94,-0.65 0.65,0 1.01,0.69 1.04,0.75 0.12,-0.37 0.48,-0.75 1.08,-0.75 1.03,0 1.59,1.28 1.59,1.53 0,0.1 -0.09,0.1 -0.12,0.1 -0.09,0 -0.11,-0.04 -0.13,-0.11 -0.33,-1.07 -1,-1.31 -1.32,-1.31 -0.39,0 -0.55,0.32 -0.55,0.66 0,0.22 0.06,0.44 0.17,0.88 z"
   inkscape:connector-curvature="0"
   style="fill:#000000;stroke-width:0" />
<path
   id="path4525"
   d="m 299.23,712.47 0.06,0.02 0.05,0.03 0.05,0.02 0.04,0.02 0.05,0.02 0.04,0.02 0.05,0.02 0.04,0.01 0.04,0.02 0.03,0.02 0.04,0.01 0.04,0.02 0.03,0.01 0.03,0.01 0.03,0.02 0.03,0.01 0.03,0.01 0.03,0.01 0.03,0.01 0.02,0.02 0.03,0.01 0.02,0.01 0.02,0.01 0.03,0 0.02,0.01 0.02,0.01 0.04,0.02 0.03,0.02 0.03,0.01 c 0.14,0.06 0.2,0.09 0.2,0.22 0,0.12 -0.09,0.22 -0.22,0.22 -0.04,0 -0.06,0 -0.14,-0.06 l -0.95,-0.63 0.11,1.02 c 0.01,0.13 0,0.3 -0.21,0.3 -0.09,0 -0.22,-0.05 -0.22,-0.2 0,-0.07 0.03,-0.28 0.03,-0.35 0.02,-0.11 0.07,-0.62 0.08,-0.77 l -0.94,0.63 c -0.07,0.04 -0.09,0.06 -0.15,0.06 -0.13,0 -0.22,-0.1 -0.22,-0.22 0,-0.14 0.09,-0.18 0.15,-0.2 l 1.05,-0.44 c -0.57,-0.25 -0.83,-0.35 -1,-0.43 -0.13,-0.06 -0.2,-0.09 -0.2,-0.22 0,-0.12 0.09,-0.22 0.22,-0.22 0.05,0 0.06,0 0.14,0.06 l 0.95,0.63 -0.11,-1.12 c 0,-0.15 0.13,-0.2 0.22,-0.2 0.08,0 0.21,0.05 0.21,0.2 0,0.07 -0.03,0.28 -0.03,0.35 -0.02,0.11 -0.06,0.62 -0.08,0.77 l 0.84,-0.55 c 0.18,-0.14 0.19,-0.14 0.25,-0.14 0.13,0 0.22,0.1 0.22,0.22 0,0.14 -0.08,0.18 -0.15,0.2 z"
   inkscape:connector-curvature="0"
   style="fill:#000000;stroke-width:0" />
</g>    <path
       style="fill:none;stroke:#000000;stroke-width:0.9078021px;stroke-linecap:butt;stroke-linejoin:miter;stroke-opacity:1;marker-end:url(#Arrow1Lend)"
       d="M 369.62621,342.8074 600.58656,246.40211"
       id="path4936"
       inkscape:connector-curvature="0" />
    <rect
       y="202.00653"
       x="550.88928"
       height="9.9145832"
       width="8.4982138"
       id="rect4811"
       style="fill:#0000ff;fill-rule:evenodd;stroke:#000000;stroke-width:1px;stroke-linecap:butt;stroke-linejoin:miter;stroke-opacity:1" />
    <g
       id="g5140"
       transform="matrix(4.32,0,0,-4.32,-377.29809,3243.6965)"
       xml:space="preserve"
       stroke-miterlimit="10.433"
       font-style="normal"
       font-variant="normal"
       font-weight="normal"
       font-stretch="normal"
       font-size-adjust="none"
       letter-spacing="normal"
       word-spacing="normal"
       ns0:text="$ x^{P}(k) $ "
       ns0:preamble=""
       style="font-style:normal;font-variant:normal;font-weight:normal;font-stretch:normal;letter-spacing:normal;word-spacing:normal;text-anchor:start;fill:none;stroke:#000000;stroke-linecap:butt;stroke-linejoin:miter;stroke-miterlimit:10.43299961;stroke-opacity:1;stroke-dasharray:none;stroke-dashoffset:0">
<path
   style="fill:#000000;stroke-width:0"
   inkscape:connector-curvature="0"
   d="m 226.76,710.13 0.01,0.03 0,0.03 0.01,0.03 0.01,0.04 0.01,0.03 0.01,0.05 0.02,0.04 0.01,0.04 0.02,0.05 0.02,0.05 0.02,0.05 0.02,0.05 0.02,0.05 0.02,0.05 0.03,0.05 0.03,0.04 0.03,0.05 0.03,0.05 0.03,0.05 0.04,0.04 0.03,0.04 0.04,0.04 0.04,0.04 0.05,0.04 0.04,0.03 0.05,0.03 0.03,0.01 0.02,0.01 0.03,0.02 0.03,0.01 0.03,0 0.02,0.01 0.03,0.01 0.03,0 0.03,0.01 0.03,0 0.04,0 0.03,0 c 0.05,0 0.29,0 0.5,-0.12 -0.28,-0.05 -0.48,-0.3 -0.48,-0.54 0,-0.16 0.11,-0.35 0.38,-0.35 0.22,0 0.53,0.18 0.53,0.58 0,0.52 -0.58,0.65 -0.92,0.65 -0.58,0 -0.93,-0.52 -1.05,-0.75 -0.25,0.65 -0.79,0.75 -1.08,0.75 -1.03,0 -1.6,-1.28 -1.6,-1.53 0,-0.1 0.1,-0.1 0.12,-0.1 0.08,0 0.11,0.02 0.13,0.11 0.34,1.06 1,1.3 1.34,1.3 0.18,0 0.53,-0.08 0.53,-0.66 0,-0.31 -0.17,-0.98 -0.53,-2.37 -0.16,-0.62 -0.51,-1.04 -0.95,-1.04 -0.06,0 -0.29,0 -0.5,0.13 0.25,0.05 0.47,0.26 0.47,0.54 0,0.27 -0.22,0.35 -0.37,0.35 -0.3,0 -0.55,-0.26 -0.55,-0.58 0,-0.45 0.5,-0.65 0.94,-0.65 0.66,0 1.02,0.69 1.05,0.75 0.11,-0.37 0.47,-0.75 1.07,-0.75 1.03,0 1.6,1.28 1.6,1.53 0,0.1 -0.09,0.1 -0.12,0.1 -0.09,0 -0.11,-0.04 -0.13,-0.11 -0.33,-1.07 -1.01,-1.31 -1.33,-1.31 -0.39,0 -0.55,0.32 -0.55,0.66 0,0.22 0.06,0.44 0.17,0.88 z"
   id="path5142" />
<path
   style="fill:#000000;stroke-width:0"
   inkscape:connector-curvature="0"
   d="m 231.5,712.9 0.03,0.22 0.47,1.88 c 0.06,0.22 0.07,0.24 0.36,0.24 h 0.81 c 0.65,0 1.05,-0.2 1.05,-0.69 0,-0.21 -0.08,-0.76 -0.43,-1.08 -0.25,-0.22 -0.65,-0.35 -1.15,-0.35 h -1.11 l -0.03,-0.22 h 1.26 c 1.18,0 2.17,0.75 2.17,1.5 0,0.59 -0.57,1.09 -1.52,1.09 h -2.44 c -0.14,0 -0.22,0 -0.22,-0.15 0,-0.1 0.07,-0.1 0.23,-0.1 0.11,0 0.14,0 0.26,-0.02 0.14,-0.01 0.16,-0.02 0.16,-0.09 0,-0.02 0,-0.05 -0.03,-0.16 l -0.92,-3.66 c -0.07,-0.27 -0.08,-0.32 -0.62,-0.32 -0.13,0 -0.21,0 -0.21,-0.15 0,-0.01 0,-0.1 0.11,-0.1 0.2,0 0.7,0.03 0.91,0.03 0.12,0 0.36,0 0.48,-0.01 0.14,-0.01 0.31,-0.02 0.44,-0.02 0.04,0 0.15,0 0.15,0.15 0,0.1 -0.08,0.1 -0.22,0.1 -0.01,0 -0.14,0 -0.27,0.01 -0.16,0.02 -0.16,0.04 -0.16,0.11 0,0 0,0.05 0.03,0.15 z"
   id="path5144" />
<path
   style="fill:#000000;stroke-width:0"
   inkscape:connector-curvature="0"
   d="m 239.07,704.74 0,0 0,0.01 0,0 0,0 0,0.01 0,0 0,0 -0.01,0.01 0,0 0,0 0,0.01 -0.01,0 0,0.01 0,0 -0.01,0.01 0,0.01 -0.01,0 0,0.01 -0.01,0 0,0.01 0,0 -0.01,0.01 0,0 0,0 -0.01,0.01 0,0 -0.01,0.01 0,0 -0.01,0.01 0,0 -0.01,0.01 0,0.01 -0.01,0 0,0.01 -0.01,0 -0.01,0.01 0,0.01 -0.01,0.01 -0.01,0 -0.01,0.01 0,0.01 -0.01,0.01 c -1.25,1.25 -1.57,3.13 -1.57,4.65 0,1.73 0.38,3.47 1.61,4.71 0.13,0.12 0.13,0.14 0.13,0.17 0,0.07 -0.04,0.1 -0.1,0.1 -0.1,0 -1,-0.68 -1.59,-1.94 -0.5,-1.1 -0.62,-2.2 -0.62,-3.04 0,-0.77 0.11,-1.98 0.65,-3.1 0.6,-1.23 1.46,-1.87 1.56,-1.87 0.06,0 0.1,0.03 0.1,0.1 z"
   id="path5146" />
<path
   style="fill:#000000;stroke-width:0"
   inkscape:connector-curvature="0"
   d="m 242.5,713.92 0,0 0,0 0,0.01 0,0 0,0 0,0 0,0.01 0,0 0,0 0,0.01 0,0 0,0.01 0,0 0,0.01 -0.01,0 0,0.01 0,0 -0.01,0.01 0,0 0,0.01 -0.01,0 0,0 0,0 -0.01,0.01 0,0 0,0 0,0 -0.01,0 0,0.01 0,0 -0.01,0 0,0 -0.01,0 0,0 0,0.01 -0.01,0 0,0 -0.01,0 0,0 -0.01,0 0,0 -0.01,0 0,0 -0.01,0 -0.01,0 c -0.22,0 -0.95,-0.08 -1.21,-0.1 -0.08,-0.01 -0.19,-0.02 -0.19,-0.2 0,-0.12 0.09,-0.12 0.24,-0.12 0.48,0 0.5,-0.07 0.5,-0.16 l -0.03,-0.2 -1.45,-5.74 c -0.04,-0.14 -0.04,-0.16 -0.04,-0.22 0,-0.22 0.2,-0.27 0.29,-0.27 0.13,0 0.28,0.08 0.34,0.2 0.05,0.09 0.5,1.94 0.56,2.18 0.34,-0.03 1.15,-0.18 1.15,-0.84 0,-0.07 0,-0.11 -0.03,-0.21 -0.02,-0.12 -0.04,-0.24 -0.04,-0.35 0,-0.59 0.4,-0.98 0.92,-0.98 0.3,0 0.57,0.15 0.79,0.52 0.25,0.44 0.36,0.99 0.36,1.01 0,0.1 -0.09,0.1 -0.12,0.1 -0.1,0 -0.11,-0.04 -0.14,-0.18 -0.2,-0.73 -0.43,-1.24 -0.87,-1.24 -0.19,0 -0.32,0.11 -0.32,0.47 0,0.17 0.04,0.4 0.08,0.56 0.04,0.17 0.04,0.21 0.04,0.31 0,0.65 -0.63,0.93 -1.47,1.04 0.31,0.18 0.62,0.5 0.85,0.74 0.48,0.53 0.94,0.95 1.43,0.95 0.06,0 0.07,0 0.09,-0.01 0.12,-0.01 0.13,-0.01 0.21,-0.07 0.02,-0.01 0.02,-0.02 0.04,-0.04 -0.48,-0.03 -0.57,-0.42 -0.57,-0.54 0,-0.16 0.11,-0.35 0.38,-0.35 0.26,0 0.55,0.22 0.55,0.61 0,0.3 -0.23,0.62 -0.68,0.62 -0.28,0 -0.74,-0.08 -1.46,-0.87 -0.33,-0.38 -0.72,-0.78 -1.1,-0.93 z"
   id="path5148" />
<path
   style="fill:#000000;stroke-width:0"
   inkscape:connector-curvature="0"
   d="m 248.02,709.61 0,0.08 0,0.07 0,0.08 0,0.08 -0.01,0.17 -0.01,0.18 -0.02,0.18 -0.02,0.19 -0.03,0.2 -0.03,0.19 -0.04,0.21 -0.04,0.21 -0.06,0.21 -0.06,0.21 -0.07,0.21 -0.08,0.21 -0.04,0.11 -0.05,0.11 -0.04,0.1 -0.05,0.11 c -0.6,1.22 -1.46,1.87 -1.56,1.87 -0.06,0 -0.1,-0.04 -0.1,-0.1 0,-0.03 0,-0.05 0.19,-0.23 0.98,-0.98 1.55,-2.57 1.55,-4.65 0,-1.7 -0.37,-3.45 -1.61,-4.7 -0.13,-0.12 -0.13,-0.14 -0.13,-0.17 0,-0.06 0.04,-0.1 0.1,-0.1 0.1,0 1,0.67 1.59,1.94 0.5,1.09 0.62,2.2 0.62,3.03 z"
   id="path5150" />
</g>    <rect
       y="121.43717"
       x="415.3378"
       height="9.9145832"
       width="8.4982138"
       id="rect4811-6"
       style="fill:#ff0000;fill-opacity:1;fill-rule:evenodd;stroke:#000000;stroke-width:1px;stroke-linecap:butt;stroke-linejoin:miter;stroke-opacity:1" />
    <g
       ns0:preamble=""
       ns0:text="$ x^{G}(k) $ "
       word-spacing="normal"
       letter-spacing="normal"
       font-size-adjust="none"
       font-stretch="normal"
       font-weight="normal"
       font-variant="normal"
       font-style="normal"
       stroke-miterlimit="10.433"
       xml:space="preserve"
       transform="matrix(4.32,0,0,-4.32,-678.76874,3198.668)"
       id="content-1"
       style="font-style:normal;font-variant:normal;font-weight:normal;font-stretch:normal;letter-spacing:normal;word-spacing:normal;text-anchor:start;fill:none;stroke:#000000;stroke-linecap:butt;stroke-linejoin:miter;stroke-miterlimit:10.43299961;stroke-opacity:1;stroke-dasharray:none;stroke-dashoffset:0">
<path
   id="path5045"
   d="m 226.76,710.13 0.01,0.03 0,0.03 0.01,0.03 0.01,0.04 0.01,0.03 0.01,0.05 0.02,0.04 0.01,0.04 0.02,0.05 0.02,0.05 0.02,0.05 0.02,0.05 0.02,0.05 0.02,0.05 0.03,0.05 0.03,0.04 0.03,0.05 0.03,0.05 0.03,0.05 0.04,0.04 0.03,0.04 0.04,0.04 0.04,0.04 0.05,0.04 0.04,0.03 0.05,0.03 0.03,0.01 0.02,0.01 0.03,0.02 0.03,0.01 0.03,0 0.02,0.01 0.03,0.01 0.03,0 0.03,0.01 0.03,0 0.04,0 0.03,0 c 0.05,0 0.29,0 0.5,-0.12 -0.28,-0.05 -0.48,-0.3 -0.48,-0.54 0,-0.16 0.11,-0.35 0.38,-0.35 0.22,0 0.53,0.18 0.53,0.58 0,0.52 -0.58,0.65 -0.92,0.65 -0.58,0 -0.93,-0.52 -1.05,-0.75 -0.25,0.65 -0.79,0.75 -1.08,0.75 -1.03,0 -1.6,-1.28 -1.6,-1.53 0,-0.1 0.1,-0.1 0.12,-0.1 0.08,0 0.11,0.02 0.13,0.11 0.34,1.06 1,1.3 1.34,1.3 0.18,0 0.53,-0.08 0.53,-0.66 0,-0.31 -0.17,-0.98 -0.53,-2.37 -0.16,-0.62 -0.51,-1.04 -0.95,-1.04 -0.06,0 -0.29,0 -0.5,0.13 0.25,0.05 0.47,0.26 0.47,0.54 0,0.27 -0.22,0.35 -0.37,0.35 -0.3,0 -0.55,-0.26 -0.55,-0.58 0,-0.45 0.5,-0.65 0.94,-0.65 0.66,0 1.02,0.69 1.05,0.75 0.11,-0.37 0.47,-0.75 1.07,-0.75 1.03,0 1.6,1.28 1.6,1.53 0,0.1 -0.09,0.1 -0.12,0.1 -0.09,0 -0.11,-0.04 -0.13,-0.11 -0.33,-1.07 -1.01,-1.31 -1.33,-1.31 -0.39,0 -0.55,0.32 -0.55,0.66 0,0.22 0.06,0.44 0.17,0.88 z"
   inkscape:connector-curvature="0"
   style="fill:#000000;stroke-width:0" />
<path
   id="path5047"
   d="m 235,715.54 0,0 0,0 0,0.01 0,0 0,0.01 -0.01,0 0,0 0,0.01 0,0 0,0 0,0.01 0,0 -0.01,0.01 0,0 0,0 0,0.01 0,0 -0.01,0 0,0.01 0,0 -0.01,0 0,0 -0.01,0.01 0,0 0,0 -0.01,0 0,0 -0.01,0.01 0,0 0,0 -0.01,0 0,0 0,0 -0.01,0 0,0 0,0 c -0.05,0 -0.07,-0.02 -0.13,-0.09 l -0.51,-0.53 c -0.06,0.08 -0.45,0.62 -1.31,0.62 -1.69,0 -3.35,-1.5 -3.35,-3.07 0,-1.08 0.82,-1.96 2.16,-1.96 0.61,0 1.26,0.16 1.63,0.55 0.06,-0.15 0.25,-0.4 0.34,-0.4 0.06,0 0.07,0.03 0.11,0.17 l 0.13,0.54 c 0.03,0.12 0.13,0.54 0.15,0.62 0.09,0.32 0.09,0.32 0.5,0.33 0.05,0 0.16,0 0.16,0.14 0,0.07 -0.05,0.11 -0.11,0.11 -0.23,0 -0.52,-0.03 -0.76,-0.03 -0.18,0 -0.41,0 -0.58,0.01 -0.18,0.01 -0.38,0.02 -0.55,0.02 -0.05,0 -0.15,0 -0.15,-0.15 0,-0.1 0.07,-0.1 0.25,-0.1 0.13,0 0.27,0 0.4,-0.01 0.22,-0.03 0.23,-0.05 0.23,-0.14 0,-0.03 0,-0.04 -0.05,-0.22 -0.05,-0.19 -0.12,-0.51 -0.15,-0.58 -0.2,-0.42 -0.85,-0.61 -1.39,-0.61 -0.7,0 -1.61,0.33 -1.61,1.51 0,0.74 0.34,1.68 0.86,2.2 0.72,0.71 1.46,0.82 1.85,0.82 0.81,0 1.28,-0.59 1.28,-1.36 0,-0.2 -0.02,-0.25 -0.02,-0.29 0,-0.09 0.09,-0.09 0.13,-0.09 0.11,0 0.11,0.02 0.15,0.15 z"
   inkscape:connector-curvature="0"
   style="fill:#000000;stroke-width:0" />
<path
   id="path5049"
   d="m 239.13,704.74 0,0 0,0.01 0,0 0,0 0,0.01 -0.01,0 0,0 0,0.01 0,0 0,0 0,0.01 -0.01,0 0,0.01 0,0 -0.01,0.01 0,0.01 -0.01,0 0,0.01 -0.01,0 0,0.01 0,0 -0.01,0.01 0,0 -0.01,0 0,0.01 0,0 -0.01,0.01 0,0 -0.01,0.01 0,0 -0.01,0.01 -0.01,0.01 0,0 -0.01,0.01 0,0 -0.01,0.01 -0.01,0.01 0,0.01 -0.01,0 -0.01,0.01 -0.01,0.01 0,0.01 c -1.25,1.25 -1.57,3.13 -1.57,4.65 0,1.73 0.38,3.47 1.61,4.71 0.13,0.12 0.13,0.14 0.13,0.17 0,0.07 -0.04,0.1 -0.1,0.1 -0.1,0 -1,-0.68 -1.59,-1.94 -0.51,-1.1 -0.63,-2.2 -0.63,-3.04 0,-0.77 0.11,-1.98 0.66,-3.1 0.6,-1.23 1.46,-1.87 1.56,-1.87 0.06,0 0.1,0.03 0.1,0.1 z"
   inkscape:connector-curvature="0"
   style="fill:#000000;stroke-width:0" />
<path
   id="path5051"
   d="m 242.56,713.92 0,0 0,0 0,0.01 0,0 0,0 0,0 0,0.01 0,0 0,0 0,0.01 0,0 0,0.01 0,0 -0.01,0.01 0,0 0,0.01 0,0 -0.01,0.01 0,0 -0.01,0.01 0,0 0,0 0,0 -0.01,0.01 0,0 0,0 -0.01,0 0,0 0,0.01 -0.01,0 0,0 0,0 -0.01,0 0,0 -0.01,0.01 0,0 -0.01,0 0,0 0,0 -0.01,0 -0.01,0 0,0 -0.01,0 0,0 -0.01,0 c -0.23,0 -0.95,-0.08 -1.21,-0.1 -0.08,-0.01 -0.19,-0.02 -0.19,-0.2 0,-0.12 0.09,-0.12 0.24,-0.12 0.47,0 0.49,-0.07 0.49,-0.16 l -0.02,-0.2 -1.45,-5.74 c -0.04,-0.14 -0.04,-0.16 -0.04,-0.22 0,-0.22 0.2,-0.27 0.29,-0.27 0.13,0 0.28,0.08 0.34,0.2 0.05,0.09 0.5,1.94 0.56,2.18 0.33,-0.03 1.15,-0.18 1.15,-0.84 0,-0.07 0,-0.11 -0.03,-0.21 -0.02,-0.12 -0.04,-0.24 -0.04,-0.35 0,-0.59 0.4,-0.98 0.92,-0.98 0.3,0 0.57,0.15 0.79,0.52 0.25,0.44 0.36,0.99 0.36,1.01 0,0.1 -0.09,0.1 -0.12,0.1 -0.1,0 -0.11,-0.04 -0.14,-0.18 -0.2,-0.73 -0.43,-1.24 -0.87,-1.24 -0.19,0 -0.32,0.11 -0.32,0.47 0,0.17 0.04,0.4 0.08,0.56 0.04,0.17 0.04,0.21 0.04,0.31 0,0.65 -0.63,0.93 -1.48,1.04 0.31,0.18 0.63,0.5 0.86,0.74 0.48,0.53 0.94,0.95 1.43,0.95 0.06,0 0.07,0 0.09,-0.01 0.12,-0.01 0.13,-0.01 0.21,-0.07 0.02,-0.01 0.02,-0.02 0.04,-0.04 -0.48,-0.03 -0.57,-0.42 -0.57,-0.54 0,-0.16 0.11,-0.35 0.38,-0.35 0.26,0 0.54,0.22 0.54,0.61 0,0.3 -0.22,0.62 -0.67,0.62 -0.28,0 -0.74,-0.08 -1.46,-0.87 -0.34,-0.38 -0.73,-0.78 -1.11,-0.93 z"
   inkscape:connector-curvature="0"
   style="fill:#000000;stroke-width:0" />
<path
   id="path5053"
   d="m 248.08,709.61 0,0.08 0,0.07 0,0.08 0,0.08 -0.01,0.17 -0.01,0.18 -0.02,0.18 -0.02,0.19 -0.03,0.2 -0.03,0.19 -0.04,0.21 -0.05,0.21 -0.05,0.21 -0.06,0.21 -0.07,0.21 -0.08,0.21 -0.04,0.11 -0.05,0.11 -0.05,0.1 -0.05,0.11 c -0.59,1.22 -1.45,1.87 -1.55,1.87 -0.06,0 -0.1,-0.04 -0.1,-0.1 0,-0.03 0,-0.05 0.19,-0.23 0.98,-0.98 1.54,-2.57 1.54,-4.65 0,-1.7 -0.37,-3.45 -1.6,-4.7 -0.13,-0.12 -0.13,-0.14 -0.13,-0.17 0,-0.06 0.04,-0.1 0.1,-0.1 0.1,0 1,0.67 1.58,1.94 0.51,1.09 0.63,2.2 0.63,3.03 z"
   inkscape:connector-curvature="0"
   style="fill:#000000;stroke-width:0" />
</g>    <path
       transform="translate(120.25967,-48.310001)"
       d="m 134.55505,260.61191 c 0,3.12895 -2.21945,5.66547 -4.95729,5.66547 -2.73783,0 -4.95729,-2.53652 -4.95729,-5.66547 0,-3.12896 2.21946,-5.66548 4.95729,-5.66548 2.73784,0 4.95729,2.53652 4.95729,5.66548 z"
       sodipodi:ry="5.6654763"
       sodipodi:rx="4.9572916"
       sodipodi:cy="260.61191"
       sodipodi:cx="129.59776"
       id="path4809"
       style="fill:#000000;fill-opacity:1;stroke:none"
       sodipodi:type="arc" />
    <g
       style="font-style:normal;font-variant:normal;font-weight:normal;font-stretch:normal;letter-spacing:normal;word-spacing:normal;text-anchor:start;fill:none;stroke:#000000;stroke-linecap:butt;stroke-linejoin:miter;stroke-miterlimit:10.43299961;stroke-opacity:1;stroke-dasharray:none;stroke-dashoffset:0"
       ns0:preamble=""
       ns0:text="$ x(k) $ "
       word-spacing="normal"
       letter-spacing="normal"
       font-size-adjust="none"
       font-stretch="normal"
       font-weight="normal"
       font-variant="normal"
       font-style="normal"
       stroke-miterlimit="10.433"
       xml:space="preserve"
       transform="matrix(4.32,0,0,-4.32,-698.02112,3292.0119)"
       id="g5619">
<path
   id="path5621"
   d="m 226.76,710.13 0.01,0.03 0,0.03 0.01,0.03 0.01,0.04 0.01,0.03 0.01,0.05 0.02,0.04 0.01,0.04 0.02,0.05 0.02,0.05 0.02,0.05 0.02,0.05 0.02,0.05 0.02,0.05 0.03,0.05 0.03,0.04 0.03,0.05 0.03,0.05 0.03,0.05 0.04,0.04 0.03,0.04 0.04,0.04 0.04,0.04 0.05,0.04 0.04,0.03 0.05,0.03 0.03,0.01 0.02,0.01 0.03,0.02 0.03,0.01 0.03,0 0.02,0.01 0.03,0.01 0.03,0 0.03,0.01 0.03,0 0.04,0 0.03,0 c 0.05,0 0.29,0 0.5,-0.12 -0.28,-0.05 -0.48,-0.3 -0.48,-0.54 0,-0.16 0.11,-0.35 0.38,-0.35 0.22,0 0.53,0.18 0.53,0.58 0,0.52 -0.58,0.65 -0.92,0.65 -0.58,0 -0.93,-0.52 -1.05,-0.75 -0.25,0.65 -0.79,0.75 -1.08,0.75 -1.03,0 -1.6,-1.28 -1.6,-1.53 0,-0.1 0.1,-0.1 0.12,-0.1 0.08,0 0.11,0.02 0.13,0.11 0.34,1.06 1,1.3 1.34,1.3 0.18,0 0.53,-0.08 0.53,-0.66 0,-0.31 -0.17,-0.98 -0.53,-2.37 -0.16,-0.62 -0.51,-1.04 -0.95,-1.04 -0.06,0 -0.29,0 -0.5,0.13 0.25,0.05 0.47,0.26 0.47,0.54 0,0.27 -0.22,0.35 -0.37,0.35 -0.3,0 -0.55,-0.26 -0.55,-0.58 0,-0.45 0.5,-0.65 0.94,-0.65 0.66,0 1.02,0.69 1.05,0.75 0.11,-0.37 0.47,-0.75 1.07,-0.75 1.03,0 1.6,1.28 1.6,1.53 0,0.1 -0.09,0.1 -0.12,0.1 -0.09,0 -0.11,-0.04 -0.13,-0.11 -0.33,-1.07 -1.01,-1.31 -1.33,-1.31 -0.39,0 -0.55,0.32 -0.55,0.66 0,0.22 0.06,0.44 0.17,0.88 z"
   inkscape:connector-curvature="0"
   style="fill:#000000;stroke-width:0" />
<path
   id="path5623"
   d="m 232.43,704.74 0,0 0,0.01 0,0 -0.01,0 0,0.01 0,0 0,0 0,0.01 0,0 0,0 -0.01,0.01 0,0 0,0.01 -0.01,0 0,0.01 0,0.01 -0.01,0 -0.01,0.01 0,0 0,0.01 -0.01,0 0,0.01 0,0 -0.01,0 0,0.01 -0.01,0 0,0.01 -0.01,0 0,0.01 -0.01,0 0,0.01 -0.01,0.01 0,0 -0.01,0.01 0,0 -0.01,0.01 -0.01,0.01 0,0.01 -0.01,0 -0.01,0.01 -0.01,0.01 0,0.01 c -1.25,1.25 -1.57,3.13 -1.57,4.65 0,1.73 0.38,3.47 1.61,4.71 0.13,0.12 0.13,0.14 0.13,0.17 0,0.07 -0.04,0.1 -0.1,0.1 -0.1,0 -1,-0.68 -1.59,-1.94 -0.51,-1.1 -0.63,-2.2 -0.63,-3.04 0,-0.77 0.11,-1.98 0.66,-3.1 0.6,-1.23 1.46,-1.87 1.56,-1.87 0.06,0 0.1,0.03 0.1,0.1 z"
   inkscape:connector-curvature="0"
   style="fill:#000000;stroke-width:0" />
<path
   id="path5625"
   d="m 235.86,713.92 0,0 0,0 0,0.01 0,0 0,0 0,0 0,0.01 0,0 0,0 0,0.01 0,0 0,0.01 -0.01,0 0,0.01 0,0 0,0.01 -0.01,0 0,0.01 0,0 -0.01,0.01 0,0 0,0 -0.01,0 0,0.01 0,0 0,0 -0.01,0 0,0 0,0.01 -0.01,0 0,0 0,0 -0.01,0 0,0 -0.01,0.01 0,0 -0.01,0 0,0 -0.01,0 0,0 -0.01,0 0,0 -0.01,0 0,0 -0.01,0 c -0.23,0 -0.96,-0.08 -1.22,-0.1 -0.08,-0.01 -0.18,-0.02 -0.18,-0.2 0,-0.12 0.09,-0.12 0.24,-0.12 0.47,0 0.49,-0.07 0.49,-0.16 l -0.03,-0.2 -1.44,-5.74 c -0.04,-0.14 -0.04,-0.16 -0.04,-0.22 0,-0.22 0.2,-0.27 0.29,-0.27 0.13,0 0.28,0.08 0.34,0.2 0.05,0.09 0.5,1.94 0.56,2.18 0.33,-0.03 1.15,-0.18 1.15,-0.84 0,-0.07 0,-0.11 -0.03,-0.21 -0.02,-0.12 -0.04,-0.24 -0.04,-0.35 0,-0.59 0.4,-0.98 0.92,-0.98 0.3,0 0.57,0.15 0.79,0.52 0.24,0.44 0.35,0.99 0.35,1.01 0,0.1 -0.09,0.1 -0.12,0.1 -0.1,0 -0.11,-0.04 -0.13,-0.18 -0.2,-0.73 -0.43,-1.24 -0.87,-1.24 -0.19,0 -0.32,0.11 -0.32,0.47 0,0.17 0.04,0.4 0.08,0.56 0.04,0.17 0.04,0.21 0.04,0.31 0,0.65 -0.63,0.93 -1.48,1.04 0.31,0.18 0.63,0.5 0.86,0.74 0.48,0.53 0.94,0.95 1.43,0.95 0.06,0 0.07,0 0.09,-0.01 0.11,-0.01 0.13,-0.01 0.2,-0.07 0.02,-0.01 0.02,-0.02 0.05,-0.04 -0.48,-0.03 -0.57,-0.42 -0.57,-0.54 0,-0.16 0.11,-0.35 0.38,-0.35 0.25,0 0.54,0.22 0.54,0.61 0,0.3 -0.22,0.62 -0.67,0.62 -0.28,0 -0.74,-0.08 -1.46,-0.87 -0.34,-0.38 -0.73,-0.78 -1.11,-0.93 z"
   inkscape:connector-curvature="0"
   style="fill:#000000;stroke-width:0" />
<path
   id="path5627"
   d="m 241.38,709.61 0,0.08 0,0.07 0,0.08 0,0.08 -0.01,0.17 -0.01,0.18 -0.02,0.18 -0.02,0.19 -0.03,0.2 -0.03,0.19 -0.04,0.21 -0.05,0.21 -0.05,0.21 -0.06,0.21 -0.07,0.21 -0.08,0.21 -0.04,0.11 -0.05,0.11 -0.05,0.1 -0.05,0.11 c -0.59,1.22 -1.45,1.87 -1.55,1.87 -0.06,0 -0.1,-0.04 -0.1,-0.1 0,-0.03 0,-0.05 0.19,-0.23 0.98,-0.98 1.54,-2.57 1.54,-4.65 0,-1.7 -0.37,-3.45 -1.6,-4.7 -0.13,-0.12 -0.13,-0.14 -0.13,-0.17 0,-0.06 0.04,-0.1 0.1,-0.1 0.1,0 1,0.67 1.58,1.94 0.51,1.09 0.63,2.2 0.63,3.03 z"
   inkscape:connector-curvature="0"
   style="fill:#000000;stroke-width:0" />
</g>    <path
       style="fill:none;stroke:#000000;stroke-width:1px;stroke-linecap:butt;stroke-linejoin:miter;stroke-opacity:1;marker-end:url(#Arrow2Lend-1)"
       d="m 330,252 72,160"
       id="path3399"
       inkscape:connector-curvature="0"
       transform="translate(40,92.379876)" />
    <g
       id="g3277"
       transform="matrix(3.888,0,0,-3.888,-629.74981,3238.213)"
       xml:space="preserve"
       stroke-miterlimit="10.433"
       font-style="normal"
       font-variant="normal"
       font-weight="normal"
       font-stretch="normal"
       font-size-adjust="none"
       letter-spacing="normal"
       word-spacing="normal"
       ns0:text="$ |   x(k) - x^{*} | $"
       ns0:preamble=""
       style="font-style:normal;font-variant:normal;font-weight:normal;font-stretch:normal;letter-spacing:normal;word-spacing:normal;text-anchor:start;fill:none;stroke:#000000;stroke-linecap:butt;stroke-linejoin:miter;stroke-miterlimit:10.43299961;stroke-opacity:1;stroke-dasharray:none;stroke-dashoffset:0">
<path
   style="fill:#000000;stroke-width:0"
   inkscape:connector-curvature="0"
   d="m 225.02,714.23 0,0.03 0,0.04 0,0.03 -0.01,0.02 0,0.01 0,0.02 0,0.01 0,0.02 0,0.01 -0.01,0.02 0,0.01 0,0.01 -0.01,0.02 0,0.01 -0.01,0.01 0,0.01 -0.01,0.01 -0.01,0.01 -0.01,0.01 -0.01,0.01 -0.01,0.01 -0.01,0.01 0,0 -0.01,0 -0.01,0 0,0.01 -0.01,0 -0.01,0 0,0 -0.01,0 -0.01,0.01 -0.01,0 -0.01,0 0,0 -0.01,0 -0.01,0 c -0.2,0 -0.2,-0.18 -0.2,-0.36 v -9.24 c 0,-0.17 0,-0.35 0.2,-0.35 0.2,0 0.2,0.18 0.2,0.35 z"
   id="path3279" />
<path
   style="fill:#000000;stroke-width:0"
   inkscape:connector-curvature="0"
   d="m 229.53,710.13 0.01,0.03 0,0.03 0.01,0.03 0.01,0.04 0.01,0.03 0.01,0.05 0.02,0.04 0.01,0.04 0.02,0.05 0.01,0.05 0.02,0.05 0.02,0.05 0.03,0.05 0.02,0.05 0.03,0.05 0.02,0.04 0.03,0.05 0.03,0.05 0.04,0.05 0.03,0.04 0.04,0.04 0.04,0.04 0.04,0.04 0.05,0.04 0.04,0.03 0.05,0.03 0.03,0.01 0.02,0.01 0.03,0.02 0.03,0.01 0.02,0 0.03,0.01 0.03,0.01 0.03,0 0.03,0.01 0.03,0 0.03,0 0.04,0 c 0.05,0 0.28,0 0.49,-0.12 -0.27,-0.05 -0.47,-0.3 -0.47,-0.54 0,-0.16 0.11,-0.35 0.37,-0.35 0.22,0 0.54,0.18 0.54,0.58 0,0.52 -0.58,0.65 -0.92,0.65 -0.58,0 -0.93,-0.52 -1.05,-0.75 -0.25,0.65 -0.79,0.75 -1.08,0.75 -1.03,0 -1.6,-1.28 -1.6,-1.53 0,-0.1 0.1,-0.1 0.12,-0.1 0.08,0 0.11,0.02 0.13,0.11 0.34,1.06 0.99,1.3 1.33,1.3 0.19,0 0.54,-0.08 0.54,-0.66 0,-0.31 -0.17,-0.98 -0.54,-2.37 -0.16,-0.62 -0.5,-1.04 -0.94,-1.04 -0.06,0 -0.29,0 -0.5,0.13 0.25,0.05 0.47,0.26 0.47,0.54 0,0.27 -0.22,0.35 -0.37,0.35 -0.3,0 -0.55,-0.26 -0.55,-0.58 0,-0.45 0.5,-0.65 0.94,-0.65 0.65,0 1.01,0.69 1.04,0.75 0.12,-0.37 0.48,-0.75 1.08,-0.75 1.03,0 1.59,1.28 1.59,1.53 0,0.1 -0.09,0.1 -0.12,0.1 -0.09,0 -0.11,-0.04 -0.12,-0.11 -0.33,-1.07 -1.01,-1.31 -1.33,-1.31 -0.39,0 -0.55,0.32 -0.55,0.66 0,0.22 0.06,0.44 0.17,0.88 z"
   id="path3281" />
<path
   style="fill:#000000;stroke-width:0"
   inkscape:connector-curvature="0"
   d="m 235.19,704.74 0,0 0,0.01 0,0 0,0 0,0.01 0,0 0,0 0,0.01 0,0 -0.01,0 0,0.01 0,0 0,0.01 -0.01,0 0,0.01 -0.01,0.01 0,0 -0.01,0.01 0,0 -0.01,0.01 0,0 0,0.01 -0.01,0 0,0 0,0.01 -0.01,0 0,0.01 -0.01,0 0,0.01 -0.01,0 0,0.01 -0.01,0.01 0,0 -0.01,0.01 -0.01,0 0,0.01 -0.01,0.01 -0.01,0.01 0,0 -0.01,0.01 -0.01,0.01 -0.01,0.01 c -1.24,1.25 -1.56,3.13 -1.56,4.65 0,1.73 0.38,3.47 1.6,4.71 0.13,0.12 0.13,0.14 0.13,0.17 0,0.07 -0.04,0.1 -0.1,0.1 -0.1,0 -0.99,-0.68 -1.58,-1.94 -0.51,-1.1 -0.63,-2.2 -0.63,-3.04 0,-0.77 0.11,-1.98 0.66,-3.1 0.6,-1.23 1.45,-1.87 1.55,-1.87 0.06,0 0.1,0.03 0.1,0.1 z"
   id="path3283" />
<path
   style="fill:#000000;stroke-width:0"
   inkscape:connector-curvature="0"
   d="m 238.63,713.92 0,0 0,0 0,0.01 0,0 0,0 0,0 0,0.01 0,0 0,0 0,0.01 0,0 -0.01,0.01 0,0 0,0.01 0,0 0,0.01 -0.01,0 0,0.01 0,0 -0.01,0.01 0,0 -0.01,0 0,0 0,0.01 0,0 -0.01,0 0,0 0,0 -0.01,0.01 0,0 0,0 -0.01,0 0,0 0,0 -0.01,0.01 0,0 -0.01,0 0,0 -0.01,0 0,0 -0.01,0 0,0 -0.01,0 -0.01,0 0,0 c -0.23,0 -0.96,-0.08 -1.22,-0.1 -0.08,-0.01 -0.19,-0.02 -0.19,-0.2 0,-0.12 0.09,-0.12 0.24,-0.12 0.48,0 0.5,-0.07 0.5,-0.16 l -0.03,-0.2 -1.44,-5.74 c -0.04,-0.14 -0.04,-0.16 -0.04,-0.22 0,-0.22 0.2,-0.27 0.28,-0.27 0.14,0 0.28,0.08 0.34,0.2 0.05,0.09 0.5,1.94 0.56,2.18 0.34,-0.03 1.16,-0.18 1.16,-0.84 0,-0.07 0,-0.11 -0.03,-0.21 -0.02,-0.12 -0.04,-0.24 -0.04,-0.35 0,-0.59 0.4,-0.98 0.92,-0.98 0.29,0 0.56,0.15 0.78,0.52 0.25,0.44 0.36,0.99 0.36,1.01 0,0.1 -0.09,0.1 -0.12,0.1 -0.1,0 -0.11,-0.04 -0.14,-0.18 -0.2,-0.73 -0.43,-1.24 -0.86,-1.24 -0.19,0 -0.32,0.11 -0.32,0.47 0,0.17 0.04,0.4 0.08,0.56 0.04,0.17 0.04,0.21 0.04,0.31 0,0.65 -0.63,0.93 -1.48,1.04 0.31,0.18 0.63,0.5 0.86,0.74 0.48,0.53 0.94,0.95 1.42,0.95 0.06,0 0.07,0 0.09,-0.01 0.12,-0.01 0.13,-0.01 0.21,-0.07 0.02,-0.01 0.02,-0.02 0.04,-0.04 -0.48,-0.03 -0.57,-0.42 -0.57,-0.54 0,-0.16 0.11,-0.35 0.38,-0.35 0.26,0 0.55,0.22 0.55,0.61 0,0.3 -0.23,0.62 -0.68,0.62 -0.27,0 -0.73,-0.08 -1.45,-0.87 -0.34,-0.38 -0.73,-0.78 -1.11,-0.93 z"
   id="path3285" />
<path
   style="fill:#000000;stroke-width:0"
   inkscape:connector-curvature="0"
   d="m 244.15,709.61 0,0.08 0,0.07 0,0.08 -0.01,0.08 0,0.17 -0.02,0.18 -0.01,0.18 -0.02,0.19 -0.03,0.2 -0.03,0.19 -0.04,0.21 -0.05,0.21 -0.05,0.21 -0.07,0.21 -0.06,0.21 -0.08,0.21 -0.05,0.11 -0.04,0.11 -0.05,0.1 -0.05,0.11 c -0.6,1.22 -1.45,1.87 -1.55,1.87 -0.06,0 -0.1,-0.04 -0.1,-0.1 0,-0.03 0,-0.05 0.19,-0.23 0.97,-0.98 1.54,-2.57 1.54,-4.65 0,-1.7 -0.37,-3.45 -1.6,-4.7 -0.13,-0.12 -0.13,-0.14 -0.13,-0.17 0,-0.06 0.04,-0.1 0.1,-0.1 0.1,0 0.99,0.67 1.58,1.94 0.51,1.09 0.63,2.2 0.63,3.03 z"
   id="path3287" />
<path
   style="fill:#000000;stroke-width:0"
   inkscape:connector-curvature="0"
   d="m 253.93,709.41 0.03,0 0.03,0 0.03,0.01 0.02,0 0.01,0 0.02,0 0.01,0 0.02,0 0.01,0 0.01,0.01 0.02,0 0.01,0 0.01,0.01 0.02,0 0.01,0.01 0.01,0.01 0.01,0 0.01,0.01 0.01,0.01 0.01,0.01 0,0.01 0.01,0 0,0.01 0,0 0.01,0.01 0,0.01 0,0 0,0.01 0.01,0.01 0,0 0,0.01 0,0.01 0,0.01 0,0.01 0,0 0,0.01 0,0.01 c 0,0.2 -0.17,0.2 -0.34,0.2 h -5.4 c -0.17,0 -0.35,0 -0.35,-0.2 0,-0.2 0.18,-0.2 0.35,-0.2 z"
   id="path3289" />
<path
   style="fill:#000000;stroke-width:0"
   inkscape:connector-curvature="0"
   d="m 260.65,710.13 0,0.03 0.01,0.03 0.01,0.03 0.01,0.04 0.01,0.03 0.01,0.05 0.01,0.04 0.02,0.04 0.02,0.05 0.01,0.05 0.02,0.05 0.02,0.05 0.03,0.05 0.02,0.05 0.03,0.05 0.02,0.04 0.03,0.05 0.03,0.05 0.04,0.05 0.03,0.04 0.04,0.04 0.04,0.04 0.04,0.04 0.05,0.04 0.04,0.03 0.05,0.03 0.03,0.01 0.02,0.01 0.03,0.02 0.02,0.01 0.03,0 0.03,0.01 0.03,0.01 0.03,0 0.03,0.01 0.03,0 0.03,0 0.04,0 c 0.04,0 0.28,0 0.49,-0.12 -0.27,-0.05 -0.48,-0.3 -0.48,-0.54 0,-0.16 0.12,-0.35 0.38,-0.35 0.22,0 0.54,0.18 0.54,0.58 0,0.52 -0.59,0.65 -0.93,0.65 -0.57,0 -0.92,-0.52 -1.04,-0.75 -0.25,0.65 -0.79,0.75 -1.08,0.75 -1.04,0 -1.6,-1.28 -1.6,-1.53 0,-0.1 0.1,-0.1 0.12,-0.1 0.08,0 0.11,0.02 0.13,0.11 0.34,1.06 0.99,1.3 1.33,1.3 0.19,0 0.54,-0.08 0.54,-0.66 0,-0.31 -0.17,-0.98 -0.54,-2.37 -0.16,-0.62 -0.51,-1.04 -0.95,-1.04 -0.06,0 -0.28,0 -0.49,0.13 0.25,0.05 0.46,0.26 0.46,0.54 0,0.27 -0.21,0.35 -0.36,0.35 -0.3,0 -0.55,-0.26 -0.55,-0.58 0,-0.45 0.5,-0.65 0.94,-0.65 0.65,0 1.01,0.69 1.04,0.75 0.12,-0.37 0.48,-0.75 1.08,-0.75 1.03,0 1.59,1.28 1.59,1.53 0,0.1 -0.09,0.1 -0.12,0.1 -0.09,0 -0.11,-0.04 -0.13,-0.11 -0.33,-1.07 -1,-1.31 -1.32,-1.31 -0.39,0 -0.55,0.32 -0.55,0.66 0,0.22 0.06,0.44 0.17,0.88 z"
   id="path3291" />
<path
   style="fill:#000000;stroke-width:0"
   inkscape:connector-curvature="0"
   d="m 265.26,712.47 0.06,0.02 0.05,0.03 0.05,0.02 0.04,0.02 0.05,0.02 0.04,0.02 0.05,0.02 0.04,0.01 0.04,0.02 0.03,0.02 0.04,0.01 0.04,0.02 0.03,0.01 0.03,0.01 0.03,0.02 0.03,0.01 0.03,0.01 0.03,0.01 0.03,0.01 0.02,0.02 0.03,0.01 0.02,0.01 0.02,0.01 0.03,0 0.02,0.01 0.02,0.01 0.04,0.02 0.03,0.02 0.04,0.01 c 0.13,0.06 0.19,0.09 0.19,0.22 0,0.12 -0.09,0.22 -0.22,0.22 -0.04,0 -0.06,0 -0.14,-0.06 l -0.95,-0.63 0.11,1.02 c 0.01,0.13 0,0.3 -0.21,0.3 -0.09,0 -0.22,-0.05 -0.22,-0.2 0,-0.07 0.03,-0.28 0.04,-0.35 0.01,-0.11 0.06,-0.62 0.07,-0.77 l -0.94,0.63 c -0.07,0.04 -0.09,0.06 -0.15,0.06 -0.13,0 -0.22,-0.1 -0.22,-0.22 0,-0.14 0.09,-0.18 0.15,-0.2 l 1.05,-0.44 c -0.57,-0.25 -0.83,-0.35 -1,-0.43 -0.13,-0.06 -0.2,-0.09 -0.2,-0.22 0,-0.12 0.09,-0.22 0.22,-0.22 0.05,0 0.06,0 0.14,0.06 l 0.95,0.63 -0.11,-1.12 c 0,-0.15 0.13,-0.2 0.22,-0.2 0.08,0 0.21,0.05 0.21,0.2 0,0.07 -0.03,0.28 -0.03,0.35 -0.02,0.11 -0.06,0.62 -0.08,0.77 l 0.84,-0.55 c 0.18,-0.14 0.19,-0.14 0.25,-0.14 0.13,0 0.22,0.1 0.22,0.22 0,0.14 -0.08,0.18 -0.15,0.2 z"
   id="path3293" />
<path
   style="fill:#000000;stroke-width:0"
   inkscape:connector-curvature="0"
   d="m 269.18,714.23 0,0.03 0,0.04 0,0.03 0,0.02 -0.01,0.01 0,0.02 0,0.01 0,0.02 0,0.01 -0.01,0.02 0,0.01 0,0.01 -0.01,0.02 0,0.01 -0.01,0.01 0,0.01 -0.01,0.01 -0.01,0.01 -0.01,0.01 -0.01,0.01 -0.01,0.01 -0.01,0.01 0,0 -0.01,0 -0.01,0 0,0.01 -0.01,0 -0.01,0 0,0 -0.01,0 -0.01,0.01 -0.01,0 0,0 -0.01,0 -0.01,0 -0.01,0 c -0.2,0 -0.2,-0.18 -0.2,-0.36 v -9.24 c 0,-0.17 0,-0.35 0.2,-0.35 0.2,0 0.2,0.18 0.2,0.35 z"
   id="path3295" />
</g>    <g
       style="font-style:normal;font-variant:normal;font-weight:normal;font-stretch:normal;letter-spacing:normal;word-spacing:normal;text-anchor:start;fill:none;stroke:#000000;stroke-linecap:butt;stroke-linejoin:miter;stroke-miterlimit:10.43299961;stroke-opacity:1;stroke-dasharray:none;stroke-dashoffset:0"
       ns0:preamble=""
       ns0:text="$ |  [ x^{G}(k) - x^{*},  x^{P}(k) - x^{*} ]^{T} | $"
       text-anchor="start"
       word-spacing="normal"
       letter-spacing="normal"
       font-size-adjust="none"
       font-stretch="normal"
       font-weight="normal"
       font-variant="normal"
       font-style="normal"
       fill-opacity="1"
       fill-rule="evenodd"
       fill="none"
       stroke-opacity="1"
       stroke-dashoffset="0"
       stroke-dasharray="none"
       stroke-miterlimit="10.433"
       stroke-linejoin="miter"
       stroke-linecap="butt"
       stroke="black"
       xml:space="preserve"
       transform="matrix(3.888,0,0,-3.888,-387.343,3076.63)"
       id="g3458">
<path
   id="path3460"
   fill="black"
   stroke-width="0"
   d="M225.02,714.23 L225.02,714.26 L225.02,714.3 L225.02,714.33 L225.01,714.35 L225.01,714.36 L225.01,714.38 L225.01,714.39 L225.01,714.41 L225.01,714.42 L225,714.44 L225,714.45 L225,714.46 L224.99,714.48 L224.99,714.49 L224.98,714.5 L224.98,714.51 L224.97,714.52 L224.96,714.53 L224.95,714.54 L224.94,714.55 L224.93,714.56 L224.92,714.57 L224.92,714.57 L224.91,714.57 L224.9,714.57 L224.9,714.58 L224.89,714.58 L224.88,714.58 L224.88,714.58 L224.87,714.58 L224.86,714.59 L224.85,714.59 L224.84,714.59 L224.84,714.59 L224.83,714.59 L224.82,714.59 C224.62,714.59,224.62,714.41,224.62,714.23 V704.99 C224.62,704.82,224.62,704.64,224.82,704.64 C225.02,704.64,225.02,704.82,225.02,704.99 Z " />
<polygon
   id="polygon3462"
   fill="black"
   stroke-width="0"
   points="228.74,704.64 228.74,705.03 227.77,705.03 227.77,714.19 228.74,714.19 228.74,714.59 227.38,714.59 227.38,704.64 " />
<path
   id="path3464"
   fill="black"
   stroke-width="0"
   d="M232.3,710.13 L232.3,710.16 L232.31,710.19 L232.32,710.22 L232.33,710.26 L232.34,710.29 L232.35,710.34 L232.36,710.38 L232.38,710.42 L232.39,710.47 L232.41,710.52 L232.43,710.57 L232.45,710.62 L232.47,710.67 L232.5,710.72 L232.52,710.77 L232.55,710.81 L232.58,710.86 L232.61,710.91 L232.64,710.96 L232.68,711 L232.72,711.04 L232.76,711.08 L232.8,711.12 L232.84,711.16 L232.89,711.19 L232.94,711.22 L232.96,711.23 L232.99,711.24 L233.02,711.26 L233.04,711.27 L233.07,711.27 L233.1,711.28 L233.13,711.29 L233.16,711.29 L233.19,711.3 L233.22,711.3 L233.25,711.3 L233.28,711.3 C233.33,711.3,233.57,711.3,233.78,711.18 C233.5,711.13,233.3,710.88,233.3,710.64 C233.3,710.48,233.41,710.29,233.68,710.29 C233.9,710.29,234.22,710.47,234.22,710.87 C234.22,711.39,233.63,711.52,233.29,711.52 C232.71,711.52,232.37,711,232.25,710.77 C232,711.42,231.46,711.52,231.17,711.52 C230.13,711.52,229.57,710.24,229.57,709.99 C229.57,709.89,229.66,709.89,229.68,709.89 C229.76,709.89,229.79,709.91,229.81,710 C230.15,711.06,230.81,711.3,231.15,711.3 C231.34,711.3,231.69,711.22,231.69,710.64 C231.69,710.33,231.52,709.66,231.15,708.27 C230.99,707.65,230.64,707.23,230.2,707.23 C230.14,707.23,229.91,707.23,229.71,707.36 C229.95,707.41,230.17,707.62,230.17,707.9 C230.17,708.17,229.95,708.25,229.8,708.25 C229.51,708.25,229.26,707.99,229.26,707.67 C229.26,707.22,229.76,707.02,230.19,707.02 C230.85,707.02,231.21,707.71,231.24,707.77 C231.36,707.4,231.72,707.02,232.32,707.02 C233.34,707.02,233.91,708.3,233.91,708.55 C233.91,708.65,233.82,708.65,233.79,708.65 C233.7,708.65,233.68,708.61,233.66,708.54 C233.33,707.47,232.65,707.23,232.34,707.23 C231.95,707.23,231.79,707.55,231.79,707.89 C231.79,708.11,231.85,708.33,231.96,708.77 Z " />
<path
   id="path3466"
   fill="black"
   stroke-width="0"
   d="M240.53,715.54 L240.53,715.54 L240.53,715.54 L240.53,715.55 L240.53,715.55 L240.53,715.56 L240.53,715.56 L240.53,715.56 L240.53,715.57 L240.53,715.57 L240.53,715.57 L240.52,715.58 L240.52,715.58 L240.52,715.59 L240.52,715.59 L240.52,715.59 L240.51,715.6 L240.51,715.6 L240.51,715.6 L240.5,715.61 L240.5,715.61 L240.5,715.61 L240.49,715.61 L240.49,715.62 L240.49,715.62 L240.48,715.62 L240.48,715.62 L240.47,715.62 L240.47,715.63 L240.46,715.63 L240.46,715.63 L240.46,715.63 L240.45,715.63 L240.45,715.63 L240.45,715.63 L240.45,715.63 L240.44,715.63 C240.39,715.63,240.38,715.61,240.32,715.54 L239.81,715.01 C239.74,715.09,239.35,715.63,238.5,715.63 C236.81,715.63,235.15,714.13,235.15,712.56 C235.15,711.48,235.97,710.6,237.31,710.6 C237.92,710.6,238.57,710.76,238.93,711.15 C239,711,239.19,710.75,239.27,710.75 C239.33,710.75,239.35,710.78,239.38,710.92 L239.51,711.46 C239.55,711.58,239.65,712,239.67,712.08 C239.75,712.4,239.76,712.4,240.17,712.41 C240.22,712.41,240.32,712.41,240.32,712.55 C240.32,712.62,240.27,712.66,240.22,712.66 C239.99,712.66,239.7,712.63,239.45,712.63 C239.28,712.63,239.05,712.63,238.87,712.64 C238.7,712.65,238.5,712.66,238.32,712.66 C238.28,712.66,238.17,712.66,238.17,712.51 C238.17,712.41,238.25,712.41,238.42,712.41 C238.55,712.41,238.69,712.41,238.83,712.4 C239.05,712.37,239.06,712.35,239.06,712.26 C239.06,712.23,239.06,712.22,239.01,712.04 C238.96,711.85,238.88,711.53,238.85,711.46 C238.65,711.04,238,710.85,237.46,710.85 C236.76,710.85,235.85,711.18,235.85,712.36 C235.85,713.1,236.2,714.04,236.72,714.56 C237.43,715.27,238.18,715.38,238.57,715.38 C239.38,715.38,239.85,714.79,239.85,714.02 C239.85,713.82,239.83,713.77,239.83,713.73 C239.83,713.64,239.92,713.64,239.95,713.64 C240.07,713.64,240.07,713.66,240.1,713.79 Z " />
<path
   id="path3468"
   fill="black"
   stroke-width="0"
   d="M244.66,704.74 L244.66,704.74 L244.66,704.75 L244.66,704.75 L244.66,704.75 L244.66,704.76 L244.66,704.76 L244.66,704.76 L244.66,704.77 L244.66,704.77 L244.65,704.77 L244.65,704.78 L244.65,704.78 L244.64,704.79 L244.64,704.79 L244.64,704.8 L244.63,704.81 L244.63,704.81 L244.62,704.82 L244.62,704.82 L244.61,704.83 L244.61,704.83 L244.61,704.84 L244.6,704.84 L244.6,704.84 L244.59,704.85 L244.59,704.85 L244.59,704.86 L244.58,704.86 L244.58,704.87 L244.57,704.87 L244.57,704.88 L244.56,704.89 L244.55,704.89 L244.55,704.9 L244.54,704.9 L244.54,704.91 L244.53,704.92 L244.52,704.93 L244.51,704.93 L244.51,704.94 L244.5,704.95 L244.49,704.96 C243.25,706.21,242.93,708.09,242.93,709.61 C242.93,711.34,243.31,713.08,244.53,714.32 C244.66,714.44,244.66,714.46,244.66,714.49 C244.66,714.56,244.62,714.59,244.56,714.59 C244.46,714.59,243.57,713.91,242.98,712.65 C242.47,711.55,242.35,710.45,242.35,709.61 C242.35,708.84,242.46,707.63,243.01,706.51 C243.6,705.28,244.46,704.64,244.56,704.64 C244.62,704.64,244.66,704.67,244.66,704.74 Z " />
<path
   id="path3470"
   fill="black"
   stroke-width="0"
   d="M248.1,713.92 L248.1,713.92 L248.1,713.92 L248.1,713.93 L248.1,713.93 L248.1,713.93 L248.1,713.93 L248.1,713.94 L248.1,713.94 L248.09,713.94 L248.09,713.95 L248.09,713.95 L248.09,713.96 L248.09,713.96 L248.09,713.97 L248.09,713.97 L248.08,713.98 L248.08,713.98 L248.08,713.99 L248.07,713.99 L248.07,714 L248.07,714 L248.06,714 L248.06,714 L248.06,714.01 L248.05,714.01 L248.05,714.01 L248.05,714.01 L248.05,714.01 L248.04,714.02 L248.04,714.02 L248.04,714.02 L248.03,714.02 L248.03,714.02 L248.02,714.02 L248.02,714.03 L248.01,714.03 L248.01,714.03 L248.01,714.03 L248,714.03 L248,714.03 L247.99,714.03 L247.98,714.03 L247.98,714.03 L247.97,714.03 L247.97,714.03 C247.74,714.03,247.01,713.95,246.75,713.93 C246.67,713.92,246.56,713.91,246.56,713.73 C246.56,713.61,246.65,713.61,246.8,713.61 C247.28,713.61,247.3,713.54,247.3,713.45 L247.27,713.25 L245.82,707.51 C245.78,707.37,245.78,707.35,245.78,707.29 C245.78,707.07,245.98,707.02,246.07,707.02 C246.2,707.02,246.35,707.1,246.41,707.22 C246.46,707.31,246.91,709.16,246.97,709.4 C247.31,709.37,248.13,709.22,248.13,708.56 C248.13,708.49,248.13,708.45,248.1,708.35 C248.08,708.23,248.06,708.11,248.06,708 C248.06,707.41,248.46,707.02,248.97,707.02 C249.27,707.02,249.54,707.17,249.76,707.54 C250.01,707.98,250.12,708.53,250.12,708.55 C250.12,708.65,250.03,708.65,250,708.65 C249.9,708.65,249.89,708.61,249.86,708.47 C249.66,707.74,249.43,707.23,248.99,707.23 C248.8,707.23,248.68,707.34,248.68,707.7 C248.68,707.87,248.71,708.1,248.76,708.26 C248.79,708.43,248.79,708.47,248.79,708.57 C248.79,709.22,248.17,709.5,247.32,709.61 C247.63,709.79,247.95,710.11,248.18,710.35 C248.65,710.88,249.11,711.3,249.6,711.3 C249.66,711.3,249.67,711.3,249.69,711.29 C249.81,711.28,249.82,711.28,249.9,711.22 C249.92,711.21,249.92,711.2,249.94,711.18 C249.46,711.15,249.37,710.76,249.37,710.64 C249.37,710.48,249.48,710.29,249.75,710.29 C250.01,710.29,250.3,710.51,250.3,710.9 C250.3,711.2,250.07,711.52,249.62,711.52 C249.34,711.52,248.88,711.44,248.17,710.65 C247.83,710.27,247.44,709.87,247.06,709.72 Z " />
<path
   id="path3472"
   fill="black"
   stroke-width="0"
   d="M253.62,709.61 L253.62,709.69 L253.62,709.76 L253.61,709.84 L253.61,709.92 L253.6,710.09 L253.59,710.27 L253.57,710.45 L253.55,710.64 L253.53,710.84 L253.49,711.03 L253.45,711.24 L253.41,711.45 L253.35,711.66 L253.29,711.87 L253.22,712.08 L253.14,712.29 L253.1,712.4 L253.06,712.51 L253.01,712.61 L252.96,712.72 C252.36,713.94,251.5,714.59,251.4,714.59 C251.34,714.59,251.3,714.55,251.3,714.49 C251.3,714.46,251.3,714.44,251.49,714.26 C252.47,713.28,253.04,711.69,253.04,709.61 C253.04,707.91,252.67,706.16,251.43,704.91 C251.3,704.79,251.3,704.77,251.3,704.74 C251.3,704.68,251.34,704.64,251.4,704.64 C251.5,704.64,252.4,705.31,252.99,706.58 C253.5,707.67,253.62,708.78,253.62,709.61 Z " />
<path
   id="path3474"
   fill="black"
   stroke-width="0"
   d="M263.39,709.41 L263.43,709.41 L263.46,709.41 L263.49,709.42 L263.5,709.42 L263.52,709.42 L263.54,709.42 L263.55,709.42 L263.56,709.42 L263.58,709.42 L263.59,709.43 L263.61,709.43 L263.62,709.43 L263.63,709.44 L263.64,709.44 L263.66,709.45 L263.67,709.46 L263.68,709.46 L263.69,709.47 L263.7,709.48 L263.7,709.49 L263.71,709.5 L263.72,709.5 L263.72,709.51 L263.72,709.51 L263.73,709.52 L263.73,709.53 L263.73,709.53 L263.73,709.54 L263.73,709.55 L263.74,709.55 L263.74,709.56 L263.74,709.57 L263.74,709.58 L263.74,709.59 L263.74,709.59 L263.74,709.6 L263.74,709.61 C263.74,709.81,263.56,709.81,263.39,709.81 H258 C257.83,709.81,257.65,709.81,257.65,709.61 C257.65,709.41,257.83,709.41,258,709.41 Z " />
<path
   id="path3476"
   fill="black"
   stroke-width="0"
   d="M270.12,710.13 L270.12,710.16 L270.13,710.19 L270.14,710.22 L270.15,710.26 L270.16,710.29 L270.17,710.34 L270.18,710.38 L270.2,710.42 L270.21,710.47 L270.23,710.52 L270.25,710.57 L270.27,710.62 L270.29,710.67 L270.32,710.72 L270.34,710.77 L270.37,710.81 L270.4,710.86 L270.43,710.91 L270.46,710.96 L270.5,711 L270.54,711.04 L270.58,711.08 L270.62,711.12 L270.66,711.16 L270.71,711.19 L270.76,711.22 L270.78,711.23 L270.81,711.24 L270.84,711.26 L270.86,711.27 L270.89,711.27 L270.92,711.28 L270.95,711.29 L270.98,711.29 L271.01,711.3 L271.04,711.3 L271.07,711.3 L271.1,711.3 C271.15,711.3,271.39,711.3,271.6,711.18 C271.32,711.13,271.12,710.88,271.12,710.64 C271.12,710.48,271.23,710.29,271.5,710.29 C271.72,710.29,272.04,710.47,272.04,710.87 C272.04,711.39,271.45,711.52,271.11,711.52 C270.54,711.52,270.19,711,270.07,710.77 C269.82,711.42,269.28,711.52,268.99,711.52 C267.95,711.52,267.39,710.24,267.39,709.99 C267.39,709.89,267.48,709.89,267.51,709.89 C267.58,709.89,267.61,709.91,267.63,710 C267.97,711.06,268.63,711.3,268.97,711.3 C269.16,711.3,269.51,711.22,269.51,710.64 C269.51,710.33,269.34,709.66,268.97,708.27 C268.81,707.65,268.46,707.23,268.02,707.23 C267.96,707.23,267.73,707.23,267.52,707.36 C267.77,707.41,267.99,707.62,267.99,707.9 C267.99,708.17,267.77,708.25,267.62,708.25 C267.33,708.25,267.08,707.99,267.08,707.67 C267.08,707.22,267.58,707.02,268.01,707.02 C268.67,707.02,269.03,707.71,269.06,707.77 C269.18,707.4,269.54,707.02,270.14,707.02 C271.16,707.02,271.73,708.3,271.73,708.55 C271.73,708.65,271.64,708.65,271.61,708.65 C271.52,708.65,271.5,708.61,271.48,708.54 C271.15,707.47,270.48,707.23,270.16,707.23 C269.77,707.23,269.61,707.55,269.61,707.89 C269.61,708.11,269.67,708.33,269.78,708.77 Z " />
<path
   id="path3478"
   fill="black"
   stroke-width="0"
   d="M274.73,712.47 L274.78,712.49 L274.83,712.52 L274.88,712.54 L274.93,712.56 L274.98,712.58 L275.02,712.6 L275.06,712.62 L275.1,712.63 L275.14,712.65 L275.18,712.67 L275.22,712.68 L275.25,712.7 L275.29,712.71 L275.32,712.72 L275.35,712.74 L275.38,712.75 L275.41,712.76 L275.44,712.77 L275.46,712.78 L275.49,712.8 L275.51,712.81 L275.54,712.82 L275.56,712.83 L275.58,712.83 L275.6,712.84 L275.62,712.85 L275.66,712.87 L275.7,712.89 L275.73,712.9 C275.87,712.96,275.93,712.99,275.93,713.12 C275.93,713.24,275.84,713.34,275.71,713.34 C275.66,713.34,275.65,713.34,275.57,713.28 L274.62,712.65 L274.72,713.67 C274.74,713.8,274.72,713.97,274.52,713.97 C274.43,713.97,274.3,713.92,274.3,713.77 C274.3,713.7,274.33,713.49,274.33,713.42 C274.35,713.31,274.4,712.8,274.41,712.65 L273.47,713.28 C273.4,713.32,273.38,713.34,273.32,713.34 C273.19,713.34,273.1,713.24,273.1,713.12 C273.1,712.98,273.18,712.94,273.25,712.92 L274.3,712.48 C273.73,712.23,273.47,712.13,273.3,712.05 C273.16,711.99,273.1,711.96,273.1,711.83 C273.1,711.71,273.19,711.61,273.32,711.61 C273.37,711.61,273.38,711.61,273.46,711.67 L274.41,712.3 L274.3,711.18 C274.3,711.03,274.43,710.98,274.52,710.98 C274.6,710.98,274.73,711.03,274.73,711.18 C274.73,711.25,274.7,711.46,274.7,711.53 C274.68,711.64,274.63,712.15,274.62,712.3 L275.45,711.75 C275.64,711.61,275.65,711.61,275.71,711.61 C275.84,711.61,275.93,711.71,275.93,711.83 C275.93,711.97,275.85,712.01,275.78,712.03 Z " />
<path
   id="path3480"
   fill="black"
   stroke-width="0"
   d="M279.08,707.14 L279.08,707.2 L279.08,707.26 L279.08,707.31 L279.07,707.37 L279.07,707.42 L279.06,707.48 L279.05,707.53 L279.04,707.58 L279.03,707.62 L279.02,707.67 L279,707.71 L278.99,707.75 L278.97,707.79 L278.95,707.83 L278.93,707.87 L278.91,707.9 L278.89,707.94 L278.87,707.97 L278.84,708 L278.82,708.02 L278.79,708.05 L278.77,708.07 L278.74,708.09 L278.71,708.11 L278.68,708.13 L278.65,708.14 L278.62,708.15 L278.59,708.16 L278.55,708.17 L278.52,708.18 L278.48,708.18 L278.45,708.18 C278.12,708.18,277.92,707.93,277.92,707.65 C277.92,707.38,278.12,707.13,278.45,707.13 C278.57,707.13,278.7,707.16,278.8,707.25 C278.83,707.27,278.83,707.28,278.85,707.28 C278.86,707.28,278.86,707.27,278.86,707.14 C278.86,706.4,278.52,705.8,278.19,705.47 C278.08,705.36,278.08,705.34,278.08,705.31 C278.08,705.24,278.13,705.2,278.18,705.2 C278.29,705.2,279.08,705.97,279.08,707.14 Z " />
<path
   id="path3482"
   fill="black"
   stroke-width="0"
   d="M284.82,710.13 L284.83,710.16 L284.84,710.19 L284.84,710.22 L284.85,710.26 L284.86,710.29 L284.88,710.34 L284.89,710.38 L284.9,710.42 L284.92,710.47 L284.94,710.52 L284.96,710.57 L284.98,710.62 L285,710.67 L285.02,710.72 L285.05,710.77 L285.08,710.81 L285.11,710.86 L285.14,710.91 L285.17,710.96 L285.21,711 L285.24,711.04 L285.28,711.08 L285.32,711.12 L285.37,711.16 L285.42,711.19 L285.46,711.22 L285.49,711.23 L285.52,711.24 L285.54,711.26 L285.57,711.27 L285.6,711.27 L285.62,711.28 L285.65,711.29 L285.68,711.29 L285.71,711.3 L285.74,711.3 L285.78,711.3 L285.81,711.3 C285.86,711.3,286.1,711.3,286.31,711.18 C286.03,711.13,285.83,710.88,285.83,710.64 C285.83,710.48,285.94,710.29,286.21,710.29 C286.43,710.29,286.75,710.47,286.75,710.87 C286.75,711.39,286.16,711.52,285.82,711.52 C285.24,711.52,284.89,711,284.77,710.77 C284.52,711.42,283.98,711.52,283.7,711.52 C282.66,711.52,282.09,710.24,282.09,709.99 C282.09,709.89,282.19,709.89,282.21,709.89 C282.29,709.89,282.32,709.91,282.34,710 C282.68,711.06,283.34,711.3,283.67,711.3 C283.86,711.3,284.21,711.22,284.21,710.64 C284.21,710.33,284.04,709.66,283.67,708.27 C283.52,707.65,283.17,707.23,282.73,707.23 C282.67,707.23,282.44,707.23,282.23,707.36 C282.48,707.41,282.7,707.62,282.7,707.9 C282.7,708.17,282.48,708.25,282.33,708.25 C282.03,708.25,281.78,707.99,281.78,707.67 C281.78,707.22,282.28,707.02,282.72,707.02 C283.38,707.02,283.73,707.71,283.77,707.77 C283.89,707.4,284.24,707.02,284.84,707.02 C285.87,707.02,286.44,708.3,286.44,708.55 C286.44,708.65,286.35,708.65,286.32,708.65 C286.23,708.65,286.21,708.61,286.19,708.54 C285.86,707.47,285.18,707.23,284.86,707.23 C284.47,707.23,284.31,707.55,284.31,707.89 C284.31,708.11,284.37,708.33,284.48,708.77 Z " />
<path
   id="path3484"
   fill="black"
   stroke-width="0"
   d="M289.56,712.9 L289.59,713.12 L290.06,715 C290.11,715.22,290.12,715.24,290.41,715.24 H291.23 C291.88,715.24,292.28,715.04,292.28,714.55 C292.28,714.34,292.2,713.79,291.85,713.47 C291.6,713.25,291.2,713.12,290.7,713.12 H289.59 L289.56,712.9 H290.82 C291.99,712.9,292.99,713.65,292.99,714.4 C292.99,714.99,292.42,715.49,291.47,715.49 H289.03 C288.89,715.49,288.81,715.49,288.81,715.34 C288.81,715.24,288.88,715.24,289.04,715.24 C289.15,715.24,289.17,715.24,289.3,715.22 C289.44,715.21,289.45,715.2,289.45,715.13 C289.45,715.11,289.45,715.08,289.43,714.97 L288.51,711.31 C288.44,711.04,288.43,710.99,287.89,710.99 C287.76,710.99,287.68,710.99,287.68,710.84 C287.68,710.83,287.68,710.74,287.79,710.74 C287.99,710.74,288.49,710.77,288.69,710.77 C288.81,710.77,289.06,710.77,289.17,710.76 C289.31,710.75,289.49,710.74,289.62,710.74 C289.66,710.74,289.77,710.74,289.77,710.89 C289.77,710.99,289.68,710.99,289.54,710.99 C289.54,710.99,289.4,710.99,289.28,711 C289.12,711.02,289.12,711.04,289.12,711.11 C289.12,711.11,289.12,711.16,289.15,711.26 Z " />
<path
   id="path3486"
   fill="black"
   stroke-width="0"
   d="M297.13,704.74 L297.13,704.74 L297.13,704.75 L297.13,704.75 L297.12,704.75 L297.12,704.76 L297.12,704.76 L297.12,704.76 L297.12,704.77 L297.12,704.77 L297.12,704.77 L297.11,704.78 L297.11,704.78 L297.11,704.79 L297.1,704.79 L297.1,704.8 L297.1,704.81 L297.09,704.81 L297.08,704.82 L297.08,704.82 L297.08,704.83 L297.07,704.83 L297.07,704.84 L297.07,704.84 L297.06,704.84 L297.06,704.85 L297.05,704.85 L297.05,704.86 L297.04,704.86 L297.04,704.87 L297.03,704.87 L297.03,704.88 L297.02,704.89 L297.02,704.89 L297.01,704.9 L297.01,704.9 L297,704.91 L296.99,704.92 L296.99,704.93 L296.98,704.93 L296.97,704.94 L296.96,704.95 L296.96,704.96 C295.71,706.21,295.39,708.09,295.39,709.61 C295.39,711.34,295.77,713.08,297,714.32 C297.13,714.44,297.13,714.46,297.13,714.49 C297.13,714.56,297.09,714.59,297.03,714.59 C296.93,714.59,296.03,713.91,295.44,712.65 C294.93,711.55,294.81,710.45,294.81,709.61 C294.81,708.84,294.92,707.63,295.47,706.51 C296.07,705.28,296.93,704.64,297.03,704.64 C297.09,704.64,297.13,704.67,297.13,704.74 Z " />
<path
   id="path3488"
   fill="black"
   stroke-width="0"
   d="M300.56,713.92 L300.56,713.92 L300.56,713.92 L300.56,713.93 L300.56,713.93 L300.56,713.93 L300.56,713.93 L300.56,713.94 L300.56,713.94 L300.56,713.94 L300.56,713.95 L300.56,713.95 L300.56,713.96 L300.55,713.96 L300.55,713.97 L300.55,713.97 L300.55,713.98 L300.54,713.98 L300.54,713.99 L300.54,713.99 L300.53,714 L300.53,714 L300.53,714 L300.52,714 L300.52,714.01 L300.52,714.01 L300.52,714.01 L300.51,714.01 L300.51,714.01 L300.51,714.02 L300.5,714.02 L300.5,714.02 L300.5,714.02 L300.49,714.02 L300.49,714.02 L300.48,714.03 L300.48,714.03 L300.47,714.03 L300.47,714.03 L300.46,714.03 L300.46,714.03 L300.45,714.03 L300.45,714.03 L300.44,714.03 L300.44,714.03 L300.43,714.03 C300.2,714.03,299.47,713.95,299.21,713.93 C299.14,713.92,299.03,713.91,299.03,713.73 C299.03,713.61,299.12,713.61,299.27,713.61 C299.74,713.61,299.76,713.54,299.76,713.45 L299.73,713.25 L298.29,707.51 C298.25,707.37,298.25,707.35,298.25,707.29 C298.25,707.07,298.45,707.02,298.54,707.02 C298.67,707.02,298.82,707.1,298.88,707.22 C298.93,707.31,299.38,709.16,299.43,709.4 C299.77,709.37,300.59,709.22,300.59,708.56 C300.59,708.49,300.59,708.45,300.56,708.35 C300.54,708.23,300.52,708.11,300.52,708 C300.52,707.41,300.92,707.02,301.44,707.02 C301.74,707.02,302.01,707.17,302.23,707.54 C302.48,707.98,302.58,708.53,302.58,708.55 C302.58,708.65,302.49,708.65,302.46,708.65 C302.36,708.65,302.36,708.61,302.33,708.47 C302.13,707.74,301.9,707.23,301.46,707.23 C301.27,707.23,301.14,707.34,301.14,707.7 C301.14,707.87,301.18,708.1,301.22,708.26 C301.26,708.43,301.26,708.47,301.26,708.57 C301.26,709.22,300.63,709.5,299.78,709.61 C300.09,709.79,300.41,710.11,300.64,710.35 C301.12,710.88,301.58,711.3,302.07,711.3 C302.13,711.3,302.14,711.3,302.16,711.29 C302.27,711.28,302.29,711.28,302.36,711.22 C302.39,711.21,302.39,711.2,302.4,711.18 C301.93,711.15,301.84,710.76,301.84,710.64 C301.84,710.48,301.95,710.29,302.22,710.29 C302.48,710.29,302.76,710.51,302.76,710.9 C302.76,711.2,302.54,711.52,302.09,711.52 C301.81,711.52,301.35,711.44,300.63,710.65 C300.29,710.27,299.9,709.87,299.52,709.72 Z " />
<path
   id="path3490"
   fill="black"
   stroke-width="0"
   d="M306.08,709.61 L306.08,709.69 L306.08,709.76 L306.08,709.84 L306.08,709.92 L306.07,710.09 L306.06,710.27 L306.04,710.45 L306.02,710.64 L305.99,710.84 L305.96,711.03 L305.92,711.24 L305.87,711.45 L305.82,711.66 L305.76,711.87 L305.69,712.08 L305.61,712.29 L305.57,712.4 L305.52,712.51 L305.47,712.61 L305.42,712.72 C304.83,713.94,303.97,714.59,303.87,714.59 C303.81,714.59,303.77,714.55,303.77,714.49 C303.77,714.46,303.77,714.44,303.96,714.26 C304.93,713.28,305.5,711.69,305.5,709.61 C305.5,707.91,305.13,706.16,303.9,704.91 C303.77,704.79,303.77,704.77,303.77,704.74 C303.77,704.68,303.81,704.64,303.87,704.64 C303.97,704.64,304.86,705.31,305.45,706.58 C305.96,707.67,306.08,708.78,306.08,709.61 Z " />
<path
   id="path3492"
   fill="black"
   stroke-width="0"
   d="M315.86,709.41 L315.89,709.41 L315.92,709.41 L315.95,709.42 L315.97,709.42 L315.98,709.42 L316,709.42 L316.01,709.42 L316.03,709.42 L316.04,709.42 L316.06,709.43 L316.07,709.43 L316.08,709.43 L316.1,709.44 L316.11,709.44 L316.12,709.45 L316.13,709.46 L316.14,709.46 L316.15,709.47 L316.16,709.48 L316.17,709.49 L316.18,709.5 L316.18,709.5 L316.18,709.51 L316.19,709.51 L316.19,709.52 L316.19,709.53 L316.19,709.53 L316.2,709.54 L316.2,709.55 L316.2,709.55 L316.2,709.56 L316.2,709.57 L316.2,709.58 L316.2,709.59 L316.21,709.59 L316.21,709.6 L316.21,709.61 C316.21,709.81,316.03,709.81,315.86,709.81 H310.46 C310.3,709.81,310.11,709.81,310.11,709.61 C310.11,709.41,310.3,709.41,310.46,709.41 Z " />
<path
   id="path3494"
   fill="black"
   stroke-width="0"
   d="M322.58,710.13 L322.59,710.16 L322.59,710.19 L322.6,710.22 L322.61,710.26 L322.62,710.29 L322.63,710.34 L322.65,710.38 L322.66,710.42 L322.68,710.47 L322.7,710.52 L322.71,710.57 L322.73,710.62 L322.76,710.67 L322.78,710.72 L322.81,710.77 L322.83,710.81 L322.86,710.86 L322.9,710.91 L322.93,710.96 L322.96,711 L323,711.04 L323.04,711.08 L323.08,711.12 L323.13,711.16 L323.17,711.19 L323.22,711.22 L323.25,711.23 L323.27,711.24 L323.3,711.26 L323.33,711.27 L323.35,711.27 L323.38,711.28 L323.41,711.29 L323.44,711.29 L323.47,711.3 L323.5,711.3 L323.53,711.3 L323.57,711.3 C323.62,711.3,323.86,711.3,324.07,711.18 C323.79,711.13,323.59,710.88,323.59,710.64 C323.59,710.48,323.7,710.29,323.97,710.29 C324.18,710.29,324.5,710.47,324.5,710.87 C324.5,711.39,323.92,711.52,323.58,711.52 C323,711.52,322.65,711,322.53,710.77 C322.28,711.42,321.74,711.52,321.45,711.52 C320.42,711.52,319.85,710.24,319.85,709.99 C319.85,709.89,319.95,709.89,319.97,709.89 C320.05,709.89,320.08,709.91,320.1,710 C320.44,711.06,321.1,711.3,321.43,711.3 C321.62,711.3,321.97,711.22,321.97,710.64 C321.97,710.33,321.8,709.66,321.43,708.27 C321.27,707.65,320.93,707.23,320.49,707.23 C320.43,707.23,320.2,707.23,319.99,707.36 C320.24,707.41,320.46,707.62,320.46,707.9 C320.46,708.17,320.24,708.25,320.09,708.25 C319.79,708.25,319.54,707.99,319.54,707.67 C319.54,707.22,320.04,707.02,320.48,707.02 C321.14,707.02,321.49,707.71,321.52,707.77 C321.64,707.4,322,707.02,322.6,707.02 C323.63,707.02,324.2,708.3,324.2,708.55 C324.2,708.65,324.11,708.65,324.08,708.65 C323.99,708.65,323.97,708.61,323.95,708.54 C323.62,707.47,322.94,707.23,322.62,707.23 C322.23,707.23,322.07,707.55,322.07,707.89 C322.07,708.11,322.13,708.33,322.24,708.77 Z " />
<path
   id="path3496"
   fill="black"
   stroke-width="0"
   d="M327.2,712.47 L327.25,712.49 L327.3,712.52 L327.35,712.54 L327.39,712.56 L327.44,712.58 L327.48,712.6 L327.53,712.62 L327.57,712.63 L327.61,712.65 L327.65,712.67 L327.68,712.68 L327.72,712.7 L327.75,712.71 L327.78,712.72 L327.81,712.74 L327.84,712.75 L327.87,712.76 L327.9,712.77 L327.93,712.78 L327.95,712.8 L327.98,712.81 L328,712.82 L328.03,712.83 L328.05,712.83 L328.07,712.84 L328.09,712.85 L328.13,712.87 L328.16,712.89 L328.2,712.9 C328.33,712.96,328.39,712.99,328.39,713.12 C328.39,713.24,328.3,713.34,328.18,713.34 C328.13,713.34,328.11,713.34,328.03,713.28 L327.08,712.65 L327.19,713.67 C327.2,713.8,327.19,713.97,326.98,713.97 C326.89,713.97,326.76,713.92,326.76,713.77 C326.76,713.7,326.79,713.49,326.8,713.42 C326.81,713.31,326.86,712.8,326.87,712.65 L325.93,713.28 C325.86,713.32,325.84,713.34,325.78,713.34 C325.65,713.34,325.57,713.24,325.57,713.12 C325.57,712.98,325.65,712.94,325.71,712.92 L326.76,712.48 C326.19,712.23,325.93,712.13,325.76,712.05 C325.63,711.99,325.57,711.96,325.57,711.83 C325.57,711.71,325.65,711.61,325.78,711.61 C325.83,711.61,325.84,711.61,325.93,711.67 L326.87,712.3 L326.76,711.18 C326.76,711.03,326.89,710.98,326.98,710.98 C327.06,710.98,327.2,711.03,327.2,711.18 C327.2,711.25,327.17,711.46,327.16,711.53 C327.15,711.64,327.1,712.15,327.08,712.3 L327.92,711.75 C328.1,711.61,328.11,711.61,328.18,711.61 C328.3,711.61,328.39,711.71,328.39,711.83 C328.39,711.97,328.31,712.01,328.25,712.03 Z " />
<polygon
   id="polygon3498"
   fill="black"
   stroke-width="0"
   points="331.11,714.59 329.74,714.59 329.74,714.19 330.71,714.19 330.71,705.03 329.74,705.03 329.74,704.64 331.11,704.64 " />
<path
   id="path3500"
   fill="black"
   stroke-width="0"
   d="M335.68,714.95 L335.68,714.96 L335.68,714.97 L335.68,714.97 L335.69,714.98 L335.69,714.99 L335.69,715 L335.69,715.01 L335.69,715.01 L335.7,715.03 L335.7,715.04 L335.71,715.05 L335.71,715.07 L335.71,715.08 L335.72,715.09 L335.72,715.1 L335.73,715.11 L335.73,715.11 L335.74,715.12 L335.74,715.13 L335.75,715.14 L335.75,715.14 L335.76,715.15 L335.76,715.15 L335.77,715.16 L335.78,715.16 L335.78,715.16 L335.79,715.17 L335.8,715.17 L335.81,715.17 L335.82,715.17 L335.83,715.18 L335.84,715.18 L335.85,715.18 L335.87,715.18 L335.88,715.18 L335.89,715.18 C335.93,715.19,336.17,715.19,336.31,715.19 C336.73,715.19,336.92,715.19,337.09,715.14 C337.4,715.04,337.42,714.84,337.42,714.59 C337.42,714.47,337.42,714.38,337.37,714.02 L337.36,713.95 C337.36,713.88,337.4,713.84,337.47,713.84 C337.58,713.84,337.59,713.9,337.61,714.02 L337.79,715.34 C337.79,715.44,337.71,715.44,337.58,715.44 H333.3 C333.13,715.44,333.11,715.44,333.07,715.29 L332.63,714.06 C332.62,714.04,332.59,713.97,332.59,713.94 C332.59,713.91,332.61,713.84,332.71,713.84 C332.8,713.84,332.81,713.88,332.86,714.01 C333.26,715.12,333.49,715.19,334.55,715.19 H334.84 C335.05,715.19,335.06,715.18,335.06,715.12 C335.06,715.11,335.06,715.08,335.03,714.97 L334.11,711.32 C334.05,711.06,334.03,710.99,333.3,710.99 C333.04,710.99,332.98,710.99,332.98,710.84 C332.98,710.82,332.99,710.74,333.1,710.74 C333.3,710.74,333.5,710.76,333.7,710.76 C333.89,710.76,334.1,710.77,334.3,710.77 C334.49,710.77,334.73,710.77,334.92,710.76 C335.11,710.75,335.32,710.74,335.51,710.74 C335.57,710.74,335.67,710.74,335.67,710.89 C335.67,710.99,335.6,710.99,335.38,710.99 C335.25,710.99,335.11,711,334.98,711 C334.74,711.03,334.73,711.05,334.73,711.14 C334.73,711.18,334.73,711.2,334.76,711.3 Z " />
<path
   id="path3502"
   fill="black"
   stroke-width="0"
   d="M340.15,714.23 L340.15,714.26 L340.15,714.3 L340.15,714.33 L340.15,714.35 L340.15,714.36 L340.15,714.38 L340.15,714.39 L340.15,714.41 L340.14,714.42 L340.14,714.44 L340.14,714.45 L340.13,714.46 L340.13,714.48 L340.12,714.49 L340.12,714.5 L340.11,714.51 L340.11,714.52 L340.1,714.53 L340.09,714.54 L340.08,714.55 L340.07,714.56 L340.06,714.57 L340.05,714.57 L340.05,714.57 L340.04,714.57 L340.03,714.58 L340.03,714.58 L340.02,714.58 L340.01,714.58 L340.01,714.58 L340,714.59 L339.99,714.59 L339.98,714.59 L339.97,714.59 L339.96,714.59 L339.95,714.59 C339.76,714.59,339.76,714.41,339.76,714.23 V704.99 C339.76,704.82,339.76,704.64,339.95,704.64 C340.15,704.64,340.15,704.82,340.15,704.99 Z " />
</g>  </g>
</svg>
