<?xml version="1.0" encoding="UTF-8" standalone="no"?>
<svg
   xmlns:ns0="http://www.iki.fi/pav/software/textext/"
   xmlns:dc="http://purl.org/dc/elements/1.1/"
   xmlns:cc="http://creativecommons.org/ns#"
   xmlns:rdf="http://www.w3.org/1999/02/22-rdf-syntax-ns#"
   xmlns:svg="http://www.w3.org/2000/svg"
   xmlns="http://www.w3.org/2000/svg"
   xmlns:sodipodi="http://sodipodi.sourceforge.net/DTD/sodipodi-0.dtd"
   xmlns:inkscape="http://www.inkscape.org/namespaces/inkscape"
   width="544.77625"
   height="323.94211"
   version="1.1"
   id="svg3039"
   inkscape:version="0.48.1 "
   sodipodi:docname="fsm.svg">
  <sodipodi:namedview
     pagecolor="#ffffff"
     bordercolor="#666666"
     borderopacity="1"
     objecttolerance="10"
     gridtolerance="10"
     guidetolerance="10"
     inkscape:pageopacity="0"
     inkscape:pageshadow="2"
     inkscape:window-width="1366"
     inkscape:window-height="706"
     id="namedview3087"
     showgrid="false"
     inkscape:zoom="2.0514321"
     inkscape:cx="354.20867"
     inkscape:cy="198.96585"
     inkscape:window-x="-8"
     inkscape:window-y="-8"
     inkscape:window-maximized="1"
     inkscape:current-layer="svg3039"
     fit-margin-top="0"
     fit-margin-left="0"
     fit-margin-right="0"
     fit-margin-bottom="0" />
  <metadata
     id="metadata3091">
    <rdf:RDF>
      <cc:Work
         rdf:about="">
        <dc:format>image/svg+xml</dc:format>
        <dc:type
           rdf:resource="http://purl.org/dc/dcmitype/StillImage" />
        <dc:title />
      </cc:Work>
    </rdf:RDF>
  </metadata>
  <defs
     id="defs3089">
    <marker
       style="overflow:visible"
       id="TriangleOutL"
       refX="0.0"
       refY="0.0"
       orient="auto"
       inkscape:stockid="TriangleOutL">
      <path
         transform="scale(0.8)"
         style="fill-rule:evenodd;stroke:#000000;stroke-width:1.0pt;marker-start:none"
         d="M 5.77,0.0 L -2.88,5.0 L -2.88,-5.0 L 5.77,0.0 z "
         id="path4153" />
    </marker>
    <marker
       style="overflow:visible"
       id="TriangleOutM"
       refX="0.0"
       refY="0.0"
       orient="auto"
       inkscape:stockid="TriangleOutM">
      <path
         transform="scale(0.4)"
         style="fill-rule:evenodd;stroke:#000000;stroke-width:1.0pt;marker-start:none"
         d="M 5.77,0.0 L -2.88,5.0 L -2.88,-5.0 L 5.77,0.0 z "
         id="path4156" />
    </marker>
  </defs>
  <ellipse
     cx="156.5"
     cy="333.5"
     rx="30"
     ry="30"
     id="ellipse3041"
     sodipodi:cx="156.5"
     sodipodi:cy="333.5"
     sodipodi:rx="30"
     sodipodi:ry="30"
     style="fill:none;stroke:#000000;stroke-width:1"
     transform="translate(-105.29753,-181.0579)" />
  <text
     x="35.698193"
     y="163.31674"
     font-size="20"
     id="text3043"
     style="font-size:20px;font-family:Times New Roman">
    <tspan
       style="font-size:40px"
       id="tspan3039">A</tspan>
  </text>
  <ellipse
     cx="225.5"
     cy="474.5"
     rx="30"
     ry="30"
     id="ellipse3045"
     sodipodi:cx="225.5"
     sodipodi:cy="474.5"
     sodipodi:rx="30"
     sodipodi:ry="30"
     style="fill:none;stroke:#000000;stroke-width:1"
     transform="translate(-105.29753,-181.0579)" />
  <ellipse
     cx="386.5"
     cy="391.5"
     rx="30"
     ry="30"
     id="ellipse3049"
     sodipodi:cx="386.5"
     sodipodi:cy="391.5"
     sodipodi:rx="30"
     sodipodi:ry="30"
     style="fill:none;stroke:#000000;stroke-width:1"
     transform="translate(-105.29753,-181.0579)" />
  <ellipse
     cx="427.5"
     cy="242.5"
     rx="30"
     ry="30"
     id="ellipse3053"
     sodipodi:cx="427.5"
     sodipodi:cy="242.5"
     sodipodi:rx="30"
     sodipodi:ry="30"
     style="fill:none;stroke:#000000;stroke-width:1"
     transform="translate(-105.29753,-181.0579)" />
  <ellipse
     cx="594.5"
     cy="362.5"
     rx="30"
     ry="30"
     id="ellipse3057"
     sodipodi:cx="594.5"
     sodipodi:cy="362.5"
     sodipodi:rx="30"
     sodipodi:ry="30"
     style="fill:none;stroke:#000000;stroke-width:1"
     transform="translate(-105.29753,-181.0579)" />
  <ellipse
     cx="594.5"
     cy="362.5"
     rx="24"
     ry="24"
     id="ellipse3061"
     sodipodi:cx="594.5"
     sodipodi:cy="362.5"
     sodipodi:rx="24"
     sodipodi:ry="24"
     style="fill:none;stroke:#000000;stroke-width:1"
     transform="translate(-105.29753,-181.0579)" />
  <polygon
     points="212.313,447.553 169.687,360.447 "
     id="polygon3063"
     style="stroke:#000000;stroke-width:1"
     transform="translate(-105.29753,-181.0579)" />
  <polygon
     points="212.313,447.553 213.288,438.17 204.306,442.566 "
     id="polygon3065"
     style="fill:#000000;stroke-width:1"
     transform="translate(-105.29753,-181.0579)" />
  <polygon
     points="418.746,271.194 391.5,360.5 "
     id="polygon3067"
     style="stroke:#000000;stroke-width:1;stroke-miterlimit:4;stroke-dasharray:4,8;stroke-dashoffset:0"
     transform="translate(-105.29753,-181.0579)" />
  <polygon
     points="418.746,271.194 411.629,277.387 421.194,280.305 "
     id="polygon3069"
     style="fill:#000000;stroke-width:1"
     transform="translate(-105.29753,-181.0579)" />
  <polygon
     points="359.47,404.514 251.5,456.5 "
     id="polygon3071"
     style="stroke:#000000;stroke-width:1"
     transform="translate(-105.29753,-181.0579)" />
  <polygon
     points="359.47,404.514 350.093,403.48 354.431,412.49 "
     id="polygon3073"
     style="fill:#000000;stroke-width:1"
     transform="translate(-105.29753,-181.0579)" />
  <polygon
     points="357.362,384.361 186.5,342.5 "
     id="polygon3075"
     style="stroke:#000000;stroke-width:1"
     transform="translate(-105.29753,-181.0579)" />
  <polygon
     points="357.362,384.361 350.781,377.601 348.402,387.314 "
     id="polygon3077"
     style="fill:#000000;stroke-width:1"
     transform="translate(-105.29753,-181.0579)" />
  <polygon
     points="564.565,364.474 412.5,374.5 "
     id="polygon3079"
     style="stroke:#000000;stroke-width:1"
     transform="translate(-105.29753,-181.0579)" />
  <polygon
     points="564.565,364.474 556.253,360.011 556.911,369.989 "
     id="polygon3081"
     style="fill:#000000;stroke-width:1"
     transform="translate(-105.29753,-181.0579)" />
  <text
     x="104.96361"
     y="303.85199"
     font-size="20"
     id="text3043-8"
     style="font-size:20px;font-family:Times New Roman">
    <tspan
       style="font-size:40px"
       id="tspan3039-5">B</tspan>
  </text>
  <text
     x="265.82681"
     y="223.42036"
     font-size="20"
     id="text3043-6"
     style="font-size:20px;font-family:Times New Roman">
    <tspan
       style="font-size:40px"
       id="tspan3039-4">C</tspan>
  </text>
  <text
     x="308.72366"
     y="73.768822"
     font-size="20"
     id="text3043-4"
     style="font-size:20px;font-family:Times New Roman">
    <tspan
       style="font-size:40px"
       id="tspan3039-7">D</tspan>
  </text>
  <text
     x="476.8989"
     y="194.65997"
     font-size="20"
     id="text3043-2"
     style="font-size:20px;font-family:Times New Roman">
    <tspan
       style="font-size:40px"
       id="tspan3039-6">E</tspan>
  </text>
  <ellipse
     cx="594.5"
     cy="362.5"
     rx="24"
     ry="24"
     id="ellipse3061-6"
     sodipodi:cx="594.5"
     sodipodi:cy="362.5"
     sodipodi:rx="24"
     sodipodi:ry="24"
     style="fill:none;stroke:#000000;stroke-width:1"
     transform="translate(-272.37623,-301.30118)" />
  <g
     ns0:preamble=""
     ns0:text="$ f(x) \\leq f(x^{P}) \\leq f(x^{G}) $"
     word-spacing="normal"
     letter-spacing="normal"
     font-size-adjust="none"
     font-stretch="normal"
     font-weight="normal"
     font-variant="normal"
     font-style="normal"
     stroke-miterlimit="10.433"
     xml:space="preserve"
     transform="matrix(2,0,0,-2,-447.92,1518.5297)"
     id="content"
     style="font-style:normal;font-variant:normal;font-weight:normal;font-stretch:normal;letter-spacing:normal;word-spacing:normal;text-anchor:start;fill:none;stroke:#000000;stroke-linecap:butt;stroke-linejoin:miter;stroke-miterlimit:10.43299961;stroke-opacity:1;stroke-dasharray:none;stroke-dashoffset:0">
<path
   id="path3769"
   d="m 227.09,711.11 h 0.86 c 0.2,0 0.3,0 0.3,0.19 0,0.11 -0.1,0.11 -0.27,0.11 h -0.83 l 0.21,1.14 c 0.04,0.21 0.18,0.92 0.24,1.03 0.09,0.19 0.26,0.34 0.47,0.34 0.04,0 0.3,0 0.49,-0.18 -0.44,-0.04 -0.54,-0.39 -0.54,-0.53 0,-0.23 0.18,-0.35 0.37,-0.35 0.26,0 0.54,0.22 0.54,0.6 0,0.45 -0.45,0.68 -0.86,0.68 -0.34,0 -0.97,-0.18 -1.27,-1.16 -0.06,-0.21 -0.09,-0.31 -0.33,-1.57 h -0.68 c -0.19,0 -0.3,0 -0.3,-0.19 0,-0.11 0.08,-0.11 0.27,-0.11 h 0.66 l -0.74,-3.94 c -0.19,-0.96 -0.35,-1.87 -0.87,-1.87 -0.04,0 -0.29,0 -0.48,0.18 0.46,0.03 0.55,0.39 0.55,0.54 0,0.23 -0.18,0.35 -0.37,0.35 -0.26,0 -0.55,-0.22 -0.55,-0.6 0,-0.45 0.44,-0.68 0.85,-0.68 0.55,0 0.95,0.58 1.12,0.96 0.32,0.63 0.55,1.83 0.56,1.9 z"
   inkscape:connector-curvature="0"
   style="fill:#000000;stroke-width:0" />
<path
   id="path3771"
   d="m 232.68,704.74 0,0 0,0.01 0,0 0,0 0,0.01 0,0 0,0 0,0.01 0,0 -0.01,0 0,0.01 0,0 -0.01,0.01 0,0 0,0.01 -0.01,0.01 0,0 -0.01,0.01 0,0 -0.01,0.01 0,0 0,0.01 -0.01,0 0,0 -0.01,0.01 0,0 0,0.01 -0.01,0 0,0.01 -0.01,0 0,0.01 -0.01,0.01 -0.01,0 0,0.01 -0.01,0 0,0.01 -0.01,0.01 -0.01,0.01 -0.01,0 0,0.01 -0.01,0.01 -0.01,0.01 c -1.24,1.25 -1.56,3.13 -1.56,4.65 0,1.73 0.38,3.47 1.6,4.71 0.13,0.12 0.13,0.14 0.13,0.17 0,0.07 -0.04,0.1 -0.1,0.1 -0.1,0 -0.99,-0.68 -1.58,-1.94 -0.51,-1.1 -0.63,-2.2 -0.63,-3.04 0,-0.77 0.11,-1.98 0.66,-3.1 0.6,-1.23 1.45,-1.87 1.55,-1.87 0.06,0 0.1,0.03 0.1,0.1 z"
   inkscape:connector-curvature="0"
   style="fill:#000000;stroke-width:0" />
<path
   id="path3773"
   d="m 236.59,710.13 0,0.03 0.01,0.03 0.01,0.03 0.01,0.04 0.01,0.03 0.01,0.05 0.01,0.04 0.02,0.04 0.01,0.05 0.02,0.05 0.02,0.05 0.02,0.05 0.02,0.05 0.03,0.05 0.02,0.05 0.03,0.04 0.03,0.05 0.03,0.05 0.03,0.05 0.04,0.04 0.04,0.04 0.04,0.04 0.04,0.04 0.04,0.04 0.05,0.03 0.05,0.03 0.02,0.01 0.03,0.01 0.02,0.02 0.03,0.01 0.03,0 0.03,0.01 0.03,0.01 0.03,0 0.03,0.01 0.03,0 0.03,0 0.03,0 c 0.05,0 0.29,0 0.5,-0.12 -0.28,-0.05 -0.48,-0.3 -0.48,-0.54 0,-0.16 0.11,-0.35 0.38,-0.35 0.22,0 0.54,0.18 0.54,0.58 0,0.52 -0.59,0.65 -0.93,0.65 -0.58,0 -0.93,-0.52 -1.04,-0.75 -0.25,0.65 -0.79,0.75 -1.08,0.75 -1.04,0 -1.61,-1.28 -1.61,-1.53 0,-0.1 0.1,-0.1 0.12,-0.1 0.08,0 0.11,0.02 0.13,0.11 0.34,1.06 1,1.3 1.34,1.3 0.19,0 0.54,-0.08 0.54,-0.66 0,-0.31 -0.17,-0.98 -0.54,-2.37 -0.16,-0.62 -0.51,-1.04 -0.95,-1.04 -0.06,0 -0.29,0 -0.5,0.13 0.25,0.05 0.47,0.26 0.47,0.54 0,0.27 -0.22,0.35 -0.37,0.35 -0.3,0 -0.55,-0.26 -0.55,-0.58 0,-0.45 0.5,-0.65 0.94,-0.65 0.66,0 1.02,0.69 1.05,0.75 0.12,-0.37 0.48,-0.75 1.07,-0.75 1.03,0 1.6,1.28 1.6,1.53 0,0.1 -0.09,0.1 -0.12,0.1 -0.09,0 -0.11,-0.04 -0.13,-0.11 -0.33,-1.07 -1.01,-1.31 -1.32,-1.31 -0.39,0 -0.55,0.32 -0.55,0.66 0,0.22 0.06,0.44 0.17,0.88 z"
   inkscape:connector-curvature="0"
   style="fill:#000000;stroke-width:0" />
<path
   id="path3775"
   d="m 241.83,709.61 0,0.08 0,0.07 0,0.08 0,0.08 -0.01,0.17 -0.01,0.18 -0.02,0.18 -0.02,0.19 -0.03,0.2 -0.03,0.19 -0.04,0.21 -0.05,0.21 -0.05,0.21 -0.06,0.21 -0.07,0.21 -0.08,0.21 -0.04,0.11 -0.05,0.11 -0.05,0.1 -0.05,0.11 c -0.6,1.22 -1.45,1.87 -1.55,1.87 -0.06,0 -0.1,-0.04 -0.1,-0.1 0,-0.03 0,-0.05 0.19,-0.23 0.97,-0.98 1.54,-2.57 1.54,-4.65 0,-1.7 -0.37,-3.45 -1.6,-4.7 -0.13,-0.12 -0.13,-0.14 -0.13,-0.17 0,-0.06 0.04,-0.1 0.1,-0.1 0.1,0 1,0.67 1.58,1.94 0.51,1.09 0.63,2.2 0.63,3.03 z"
   inkscape:connector-curvature="0"
   style="fill:#000000;stroke-width:0" />
<path
   id="path3777"
   d="m 252.32,713.04 0.02,0.01 0.02,0.01 0.01,0 0.01,0.01 0.01,0 0.01,0.01 0,0 0.01,0.01 0.01,0 0.01,0.01 0.01,0 0,0.01 0.01,0 0.01,0.01 0,0.01 0.01,0 0,0.01 0.01,0.01 0,0 0.01,0.01 0,0.01 0.01,0.01 0,0.01 0,0.01 0,0 0.01,0.01 0,0.01 0,0.01 0,0.01 0,0.02 c 0,0.1 -0.08,0.2 -0.2,0.2 -0.05,0 -0.14,-0.05 -0.18,-0.06 l -5.51,-2.6 c -0.17,-0.08 -0.2,-0.15 -0.2,-0.23 0,-0.09 0.06,-0.16 0.2,-0.22 l 5.51,-2.59 c 0.13,-0.07 0.15,-0.07 0.18,-0.07 0.11,0 0.2,0.09 0.2,0.2 0,0.09 -0.04,0.15 -0.21,0.23 l -5.21,2.45 z"
   inkscape:connector-curvature="0"
   style="fill:#000000;stroke-width:0" />
<path
   id="path3779"
   d="m 252.16,705.76 0.03,0 0.03,0 0.04,0 0.01,0 0.02,0.01 0.01,0 0.02,0 0.01,0 0.02,0 0.01,0.01 0.01,0 0.02,0 0.01,0.01 0.01,0 0.01,0.01 0.01,0 0.01,0.01 0.01,0.01 0.01,0.01 0.01,0.01 0.01,0.01 0,0 0.01,0.01 0,0 0,0.01 0.01,0.01 0,0 0,0.01 0,0.01 0,0 0.01,0.01 0,0.01 0,0.01 0,0 0,0.01 0,0.01 0,0.01 c 0,0.2 -0.21,0.2 -0.36,0.2 h -5.37 c -0.15,0 -0.36,0 -0.36,-0.2 0,-0.2 0.18,-0.2 0.35,-0.2 z"
   inkscape:connector-curvature="0"
   style="fill:#000000;stroke-width:0" />
<path
   id="path3781"
   d="m 259.77,711.11 h 0.85 c 0.2,0 0.3,0 0.3,0.19 0,0.11 -0.1,0.11 -0.27,0.11 h -0.82 l 0.21,1.14 c 0.04,0.21 0.17,0.92 0.23,1.03 0.09,0.19 0.26,0.34 0.47,0.34 0.04,0 0.3,0 0.49,-0.18 -0.44,-0.04 -0.54,-0.39 -0.54,-0.53 0,-0.23 0.18,-0.35 0.37,-0.35 0.26,0 0.55,0.22 0.55,0.6 0,0.45 -0.46,0.68 -0.87,0.68 -0.34,0 -0.96,-0.18 -1.26,-1.16 -0.06,-0.21 -0.09,-0.31 -0.33,-1.57 h -0.69 c -0.19,0 -0.3,0 -0.3,-0.19 0,-0.11 0.09,-0.11 0.28,-0.11 h 0.66 l -0.75,-3.94 c -0.18,-0.96 -0.35,-1.87 -0.87,-1.87 -0.04,0 -0.28,0 -0.47,0.18 0.45,0.03 0.54,0.39 0.54,0.54 0,0.23 -0.18,0.35 -0.37,0.35 -0.26,0 -0.54,-0.22 -0.54,-0.6 0,-0.45 0.44,-0.68 0.84,-0.68 0.55,0 0.95,0.58 1.13,0.96 0.32,0.63 0.55,1.83 0.56,1.9 z"
   inkscape:connector-curvature="0"
   style="fill:#000000;stroke-width:0" />
<path
   id="path3783"
   d="m 265.36,704.74 0,0 0,0.01 0,0 0,0 0,0.01 0,0 -0.01,0 0,0.01 0,0 0,0 0,0.01 -0.01,0 0,0.01 0,0 -0.01,0.01 0,0.01 -0.01,0 0,0.01 -0.01,0 0,0.01 0,0 -0.01,0.01 0,0 -0.01,0 0,0.01 0,0 -0.01,0.01 0,0 -0.01,0.01 0,0 -0.01,0.01 0,0.01 -0.01,0 -0.01,0.01 0,0 -0.01,0.01 -0.01,0.01 0,0.01 -0.01,0 -0.01,0.01 0,0.01 -0.01,0.01 c -1.25,1.25 -1.57,3.13 -1.57,4.65 0,1.73 0.38,3.47 1.61,4.71 0.13,0.12 0.13,0.14 0.13,0.17 0,0.07 -0.04,0.1 -0.1,0.1 -0.1,0 -1,-0.68 -1.59,-1.94 -0.51,-1.1 -0.62,-2.2 -0.62,-3.04 0,-0.77 0.1,-1.98 0.65,-3.1 0.6,-1.23 1.46,-1.87 1.56,-1.87 0.06,0 0.1,0.03 0.1,0.1 z"
   inkscape:connector-curvature="0"
   style="fill:#000000;stroke-width:0" />
<path
   id="path3785"
   d="m 269.26,710.13 0.01,0.03 0,0.03 0.01,0.03 0.01,0.04 0.01,0.03 0.01,0.05 0.02,0.04 0.01,0.04 0.02,0.05 0.02,0.05 0.02,0.05 0.02,0.05 0.02,0.05 0.02,0.05 0.03,0.05 0.03,0.04 0.03,0.05 0.03,0.05 0.03,0.05 0.04,0.04 0.03,0.04 0.04,0.04 0.04,0.04 0.05,0.04 0.04,0.03 0.05,0.03 0.03,0.01 0.02,0.01 0.03,0.02 0.03,0.01 0.03,0 0.02,0.01 0.03,0.01 0.03,0 0.03,0.01 0.03,0 0.04,0 0.03,0 c 0.05,0 0.29,0 0.5,-0.12 -0.28,-0.05 -0.48,-0.3 -0.48,-0.54 0,-0.16 0.11,-0.35 0.38,-0.35 0.22,0 0.53,0.18 0.53,0.58 0,0.52 -0.58,0.65 -0.92,0.65 -0.58,0 -0.93,-0.52 -1.05,-0.75 -0.25,0.65 -0.79,0.75 -1.07,0.75 -1.04,0 -1.61,-1.28 -1.61,-1.53 0,-0.1 0.1,-0.1 0.12,-0.1 0.08,0 0.11,0.02 0.13,0.11 0.34,1.06 1,1.3 1.33,1.3 0.19,0 0.54,-0.08 0.54,-0.66 0,-0.31 -0.17,-0.98 -0.54,-2.37 -0.15,-0.62 -0.5,-1.04 -0.94,-1.04 -0.06,0 -0.29,0 -0.5,0.13 0.25,0.05 0.47,0.26 0.47,0.54 0,0.27 -0.22,0.35 -0.37,0.35 -0.3,0 -0.55,-0.26 -0.55,-0.58 0,-0.45 0.5,-0.65 0.94,-0.65 0.66,0 1.01,0.69 1.04,0.75 0.12,-0.37 0.48,-0.75 1.08,-0.75 1.03,0 1.6,1.28 1.6,1.53 0,0.1 -0.09,0.1 -0.12,0.1 -0.09,0 -0.11,-0.04 -0.13,-0.11 -0.33,-1.07 -1.01,-1.31 -1.33,-1.31 -0.39,0 -0.55,0.32 -0.55,0.66 0,0.22 0.06,0.44 0.17,0.88 z"
   inkscape:connector-curvature="0"
   style="fill:#000000;stroke-width:0" />
<path
   id="path3787"
   d="m 274,712.9 0.03,0.22 0.47,1.88 c 0.06,0.22 0.07,0.24 0.36,0.24 h 0.81 c 0.65,0 1.05,-0.2 1.05,-0.69 0,-0.21 -0.08,-0.76 -0.43,-1.08 -0.25,-0.22 -0.65,-0.35 -1.15,-0.35 h -1.11 L 274,712.9 h 1.26 c 1.18,0 2.17,0.75 2.17,1.5 0,0.59 -0.57,1.09 -1.52,1.09 h -2.44 c -0.14,0 -0.22,0 -0.22,-0.15 0,-0.1 0.08,-0.1 0.23,-0.1 0.11,0 0.14,0 0.26,-0.02 0.14,-0.01 0.16,-0.02 0.16,-0.09 0,-0.02 0,-0.05 -0.03,-0.16 l -0.92,-3.66 c -0.07,-0.27 -0.08,-0.32 -0.62,-0.32 -0.13,0 -0.21,0 -0.21,-0.15 0,-0.01 0,-0.1 0.11,-0.1 0.2,0 0.7,0.03 0.91,0.03 0.12,0 0.36,0 0.48,-0.01 0.14,-0.01 0.31,-0.02 0.44,-0.02 0.05,0 0.15,0 0.15,0.15 0,0.1 -0.08,0.1 -0.22,0.1 -0.01,0 -0.14,0 -0.27,0.01 -0.16,0.02 -0.16,0.04 -0.16,0.11 0,0 0,0.05 0.03,0.15 z"
   inkscape:connector-curvature="0"
   style="fill:#000000;stroke-width:0" />
<path
   id="path3789"
   d="m 281.15,709.61 0,0.08 0,0.07 0,0.08 -0.01,0.08 0,0.17 -0.02,0.18 -0.01,0.18 -0.02,0.19 -0.03,0.2 -0.03,0.19 -0.04,0.21 -0.05,0.21 -0.05,0.21 -0.06,0.21 -0.07,0.21 -0.08,0.21 -0.05,0.11 -0.04,0.11 -0.05,0.1 -0.05,0.11 c -0.6,1.22 -1.45,1.87 -1.55,1.87 -0.06,0 -0.1,-0.04 -0.1,-0.1 0,-0.03 0,-0.05 0.19,-0.23 0.97,-0.98 1.54,-2.57 1.54,-4.65 0,-1.7 -0.37,-3.45 -1.6,-4.7 -0.13,-0.12 -0.13,-0.14 -0.13,-0.17 0,-0.06 0.04,-0.1 0.1,-0.1 0.1,0 0.99,0.67 1.58,1.94 0.51,1.09 0.63,2.2 0.63,3.03 z"
   inkscape:connector-curvature="0"
   style="fill:#000000;stroke-width:0" />
<path
   id="path3791"
   d="m 291.64,713.04 0.02,0.01 0.02,0.01 0.01,0 0.01,0.01 0.01,0 0.01,0.01 0,0 0.01,0.01 0.01,0 0.01,0.01 0.01,0 0,0.01 0.01,0 0.01,0.01 0,0.01 0.01,0 0,0.01 0.01,0.01 0,0 0.01,0.01 0,0.01 0,0.01 0.01,0.01 0,0.01 0,0 0.01,0.01 0,0.01 0,0.01 0,0.01 0,0.02 c 0,0.1 -0.08,0.2 -0.2,0.2 -0.05,0 -0.14,-0.05 -0.18,-0.06 l -5.51,-2.6 c -0.17,-0.08 -0.2,-0.15 -0.2,-0.23 0,-0.09 0.06,-0.16 0.2,-0.22 l 5.51,-2.59 c 0.13,-0.07 0.15,-0.07 0.18,-0.07 0.11,0 0.2,0.09 0.2,0.2 0,0.09 -0.04,0.15 -0.21,0.23 l -5.21,2.45 z"
   inkscape:connector-curvature="0"
   style="fill:#000000;stroke-width:0" />
<path
   id="path3793"
   d="m 291.48,705.76 0.03,0 0.03,0 0.04,0 0.01,0 0.02,0.01 0.01,0 0.02,0 0.01,0 0.02,0 0.01,0.01 0.01,0 0.02,0 0.01,0.01 0.01,0 0.01,0.01 0.01,0 0.01,0.01 0.01,0.01 0.01,0.01 0.01,0.01 0.01,0.01 0,0 0.01,0.01 0,0 0,0.01 0,0.01 0.01,0 0,0.01 0,0.01 0,0 0,0.01 0.01,0.01 0,0.01 0,0 0,0.01 0,0.01 0,0.01 c 0,0.2 -0.21,0.2 -0.36,0.2 h -5.37 c -0.15,0 -0.36,0 -0.36,-0.2 0,-0.2 0.18,-0.2 0.35,-0.2 z"
   inkscape:connector-curvature="0"
   style="fill:#000000;stroke-width:0" />
<path
   id="path3795"
   d="m 299.08,711.11 h 0.86 c 0.2,0 0.3,0 0.3,0.19 0,0.11 -0.1,0.11 -0.27,0.11 h -0.83 l 0.22,1.14 c 0.03,0.21 0.17,0.92 0.23,1.03 0.09,0.19 0.26,0.34 0.47,0.34 0.04,0 0.3,0 0.49,-0.18 -0.44,-0.04 -0.54,-0.39 -0.54,-0.53 0,-0.23 0.18,-0.35 0.37,-0.35 0.26,0 0.55,0.22 0.55,0.6 0,0.45 -0.46,0.68 -0.87,0.68 -0.34,0 -0.96,-0.18 -1.26,-1.16 -0.06,-0.21 -0.09,-0.31 -0.33,-1.57 h -0.69 c -0.19,0 -0.3,0 -0.3,-0.19 0,-0.11 0.09,-0.11 0.28,-0.11 h 0.66 l -0.75,-3.94 c -0.18,-0.96 -0.35,-1.87 -0.87,-1.87 -0.04,0 -0.29,0 -0.48,0.18 0.46,0.03 0.55,0.39 0.55,0.54 0,0.23 -0.18,0.35 -0.37,0.35 -0.26,0 -0.55,-0.22 -0.55,-0.6 0,-0.45 0.44,-0.68 0.85,-0.68 0.55,0 0.95,0.58 1.13,0.96 0.32,0.63 0.55,1.83 0.56,1.9 z"
   inkscape:connector-curvature="0"
   style="fill:#000000;stroke-width:0" />
<path
   id="path3797"
   d="m 304.68,704.74 0,0 0,0.01 0,0 0,0 0,0.01 -0.01,0 0,0 0,0.01 0,0 0,0 0,0.01 -0.01,0 0,0.01 0,0 -0.01,0.01 0,0.01 -0.01,0 0,0.01 -0.01,0 0,0.01 0,0 -0.01,0.01 0,0 -0.01,0 0,0.01 0,0 -0.01,0.01 0,0 -0.01,0.01 0,0 -0.01,0.01 -0.01,0.01 0,0 -0.01,0.01 0,0 -0.01,0.01 -0.01,0.01 0,0.01 -0.01,0 -0.01,0.01 -0.01,0.01 0,0.01 c -1.25,1.25 -1.57,3.13 -1.57,4.65 0,1.73 0.38,3.47 1.61,4.71 0.13,0.12 0.13,0.14 0.13,0.17 0,0.07 -0.04,0.1 -0.1,0.1 -0.1,0 -1,-0.68 -1.59,-1.94 -0.51,-1.1 -0.63,-2.2 -0.63,-3.04 0,-0.77 0.11,-1.98 0.66,-3.1 0.6,-1.23 1.46,-1.87 1.56,-1.87 0.06,0 0.1,0.03 0.1,0.1 z"
   inkscape:connector-curvature="0"
   style="fill:#000000;stroke-width:0" />
<path
   id="path3799"
   d="m 308.58,710.13 0.01,0.03 0,0.03 0.01,0.03 0.01,0.04 0.01,0.03 0.01,0.05 0.02,0.04 0.01,0.04 0.02,0.05 0.02,0.05 0.01,0.05 0.02,0.05 0.03,0.05 0.02,0.05 0.03,0.05 0.02,0.04 0.03,0.05 0.04,0.05 0.03,0.05 0.03,0.04 0.04,0.04 0.04,0.04 0.04,0.04 0.05,0.04 0.04,0.03 0.05,0.03 0.03,0.01 0.02,0.01 0.03,0.02 0.03,0.01 0.02,0 0.03,0.01 0.03,0.01 0.03,0 0.03,0.01 0.03,0 0.03,0 0.04,0 c 0.05,0 0.29,0 0.5,-0.12 -0.28,-0.05 -0.48,-0.3 -0.48,-0.54 0,-0.16 0.11,-0.35 0.38,-0.35 0.21,0 0.53,0.18 0.53,0.58 0,0.52 -0.58,0.65 -0.92,0.65 -0.58,0 -0.93,-0.52 -1.05,-0.75 -0.25,0.65 -0.79,0.75 -1.08,0.75 -1.03,0 -1.6,-1.28 -1.6,-1.53 0,-0.1 0.1,-0.1 0.12,-0.1 0.08,0 0.11,0.02 0.13,0.11 0.34,1.06 1,1.3 1.33,1.3 0.19,0 0.54,-0.08 0.54,-0.66 0,-0.31 -0.17,-0.98 -0.54,-2.37 -0.16,-0.62 -0.5,-1.04 -0.94,-1.04 -0.06,0 -0.29,0 -0.5,0.13 0.25,0.05 0.47,0.26 0.47,0.54 0,0.27 -0.22,0.35 -0.37,0.35 -0.3,0 -0.55,-0.26 -0.55,-0.58 0,-0.45 0.5,-0.65 0.94,-0.65 0.66,0 1.01,0.69 1.04,0.75 0.12,-0.37 0.48,-0.75 1.08,-0.75 1.03,0 1.6,1.28 1.6,1.53 0,0.1 -0.09,0.1 -0.12,0.1 -0.09,0 -0.11,-0.04 -0.13,-0.11 -0.33,-1.07 -1.01,-1.31 -1.33,-1.31 -0.39,0 -0.55,0.32 -0.55,0.66 0,0.22 0.06,0.44 0.17,0.88 z"
   inkscape:connector-curvature="0"
   style="fill:#000000;stroke-width:0" />
<path
   id="path3801"
   d="m 316.82,715.54 0,0 0,0 0,0.01 -0.01,0 0,0.01 0,0 0,0 0,0.01 0,0 0,0 0,0.01 0,0 -0.01,0.01 0,0 0,0 0,0.01 -0.01,0 0,0 0,0.01 -0.01,0 0,0 0,0 -0.01,0.01 0,0 -0.01,0 0,0 -0.01,0 0,0.01 0,0 -0.01,0 0,0 0,0 0,0 -0.01,0 0,0 0,0 c -0.05,0 -0.07,-0.02 -0.13,-0.09 l -0.51,-0.53 c -0.06,0.08 -0.45,0.62 -1.31,0.62 -1.69,0 -3.35,-1.5 -3.35,-3.07 0,-1.08 0.82,-1.96 2.16,-1.96 0.61,0 1.26,0.16 1.62,0.55 0.07,-0.15 0.26,-0.4 0.35,-0.4 0.06,0 0.07,0.03 0.11,0.17 l 0.13,0.54 c 0.03,0.12 0.13,0.54 0.15,0.62 0.09,0.32 0.09,0.32 0.5,0.33 0.05,0 0.16,0 0.16,0.14 0,0.07 -0.05,0.11 -0.11,0.11 -0.23,0 -0.52,-0.03 -0.76,-0.03 -0.18,0 -0.41,0 -0.58,0.01 -0.18,0.01 -0.38,0.02 -0.55,0.02 -0.05,0 -0.16,0 -0.16,-0.15 0,-0.1 0.08,-0.1 0.26,-0.1 0.13,0 0.27,0 0.4,-0.01 0.22,-0.03 0.23,-0.05 0.23,-0.14 0,-0.03 0,-0.04 -0.05,-0.22 -0.05,-0.19 -0.12,-0.51 -0.15,-0.58 -0.2,-0.42 -0.85,-0.61 -1.4,-0.61 -0.69,0 -1.6,0.33 -1.6,1.51 0,0.74 0.34,1.68 0.86,2.2 0.72,0.71 1.46,0.82 1.85,0.82 0.81,0 1.28,-0.59 1.28,-1.36 0,-0.2 -0.02,-0.25 -0.02,-0.29 0,-0.09 0.09,-0.09 0.13,-0.09 0.11,0 0.11,0.02 0.14,0.15 z"
   inkscape:connector-curvature="0"
   style="fill:#000000;stroke-width:0" />
<path
   id="path3803"
   d="m 320.53,709.61 0,0.08 0,0.07 -0.01,0.08 0,0.08 -0.01,0.17 -0.01,0.18 -0.02,0.18 -0.02,0.19 -0.02,0.2 -0.04,0.19 -0.04,0.21 -0.04,0.21 -0.06,0.21 -0.06,0.21 -0.07,0.21 -0.08,0.21 -0.04,0.11 -0.04,0.11 -0.05,0.1 -0.05,0.11 c -0.6,1.22 -1.46,1.87 -1.56,1.87 -0.06,0 -0.1,-0.04 -0.1,-0.1 0,-0.03 0,-0.05 0.19,-0.23 0.98,-0.98 1.55,-2.57 1.55,-4.65 0,-1.7 -0.37,-3.45 -1.61,-4.7 -0.13,-0.12 -0.13,-0.14 -0.13,-0.17 0,-0.06 0.04,-0.1 0.1,-0.1 0.1,0 1,0.67 1.59,1.94 0.51,1.09 0.63,2.2 0.63,3.03 z"
   inkscape:connector-curvature="0"
   style="fill:#000000;stroke-width:0" />
</g>  <g
     id="g3982"
     transform="matrix(2,0,0,-2,-290.61124,1719.8388)"
     xml:space="preserve"
     stroke-miterlimit="10.433"
     font-style="normal"
     font-variant="normal"
     font-weight="normal"
     font-stretch="normal"
     font-size-adjust="none"
     letter-spacing="normal"
     word-spacing="normal"
     ns0:text="$ f(x) = f(x^{P}) \\leq f(x^{G}) $"
     ns0:preamble=""
     style="font-style:normal;font-variant:normal;font-weight:normal;font-stretch:normal;letter-spacing:normal;word-spacing:normal;text-anchor:start;fill:none;stroke:#000000;stroke-linecap:butt;stroke-linejoin:miter;stroke-miterlimit:10.43299961;stroke-opacity:1;stroke-dasharray:none;stroke-dashoffset:0">
<path
   style="fill:#000000;stroke-width:0"
   inkscape:connector-curvature="0"
   d="m 227.09,711.11 h 0.86 c 0.2,0 0.3,0 0.3,0.19 0,0.11 -0.1,0.11 -0.27,0.11 h -0.83 l 0.21,1.14 c 0.04,0.21 0.18,0.92 0.24,1.03 0.09,0.19 0.26,0.34 0.47,0.34 0.04,0 0.3,0 0.49,-0.18 -0.44,-0.04 -0.54,-0.39 -0.54,-0.53 0,-0.23 0.18,-0.35 0.37,-0.35 0.26,0 0.54,0.22 0.54,0.6 0,0.45 -0.45,0.68 -0.86,0.68 -0.34,0 -0.97,-0.18 -1.27,-1.16 -0.06,-0.21 -0.09,-0.31 -0.33,-1.57 h -0.68 c -0.19,0 -0.3,0 -0.3,-0.19 0,-0.11 0.08,-0.11 0.27,-0.11 h 0.66 l -0.74,-3.94 c -0.19,-0.96 -0.35,-1.87 -0.87,-1.87 -0.04,0 -0.29,0 -0.48,0.18 0.46,0.03 0.55,0.39 0.55,0.54 0,0.23 -0.18,0.35 -0.37,0.35 -0.26,0 -0.55,-0.22 -0.55,-0.6 0,-0.45 0.44,-0.68 0.85,-0.68 0.55,0 0.95,0.58 1.12,0.96 0.32,0.63 0.55,1.83 0.56,1.9 z"
   id="path3984" />
<path
   style="fill:#000000;stroke-width:0"
   inkscape:connector-curvature="0"
   d="m 232.68,704.74 0,0 0,0.01 0,0 0,0 0,0.01 0,0 0,0 0,0.01 0,0 -0.01,0 0,0.01 0,0 -0.01,0.01 0,0 0,0.01 -0.01,0.01 0,0 -0.01,0.01 0,0 -0.01,0.01 0,0 0,0.01 -0.01,0 0,0 -0.01,0.01 0,0 0,0.01 -0.01,0 0,0.01 -0.01,0 0,0.01 -0.01,0.01 -0.01,0 0,0.01 -0.01,0 0,0.01 -0.01,0.01 -0.01,0.01 -0.01,0 0,0.01 -0.01,0.01 -0.01,0.01 c -1.24,1.25 -1.56,3.13 -1.56,4.65 0,1.73 0.38,3.47 1.6,4.71 0.13,0.12 0.13,0.14 0.13,0.17 0,0.07 -0.04,0.1 -0.1,0.1 -0.1,0 -0.99,-0.68 -1.58,-1.94 -0.51,-1.1 -0.63,-2.2 -0.63,-3.04 0,-0.77 0.11,-1.98 0.66,-3.1 0.6,-1.23 1.45,-1.87 1.55,-1.87 0.06,0 0.1,0.03 0.1,0.1 z"
   id="path3986" />
<path
   style="fill:#000000;stroke-width:0"
   inkscape:connector-curvature="0"
   d="m 236.59,710.13 0,0.03 0.01,0.03 0.01,0.03 0.01,0.04 0.01,0.03 0.01,0.05 0.01,0.04 0.02,0.04 0.01,0.05 0.02,0.05 0.02,0.05 0.02,0.05 0.02,0.05 0.03,0.05 0.02,0.05 0.03,0.04 0.03,0.05 0.03,0.05 0.03,0.05 0.04,0.04 0.04,0.04 0.04,0.04 0.04,0.04 0.04,0.04 0.05,0.03 0.05,0.03 0.02,0.01 0.03,0.01 0.02,0.02 0.03,0.01 0.03,0 0.03,0.01 0.03,0.01 0.03,0 0.03,0.01 0.03,0 0.03,0 0.03,0 c 0.05,0 0.29,0 0.5,-0.12 -0.28,-0.05 -0.48,-0.3 -0.48,-0.54 0,-0.16 0.11,-0.35 0.38,-0.35 0.22,0 0.54,0.18 0.54,0.58 0,0.52 -0.59,0.65 -0.93,0.65 -0.58,0 -0.93,-0.52 -1.04,-0.75 -0.25,0.65 -0.79,0.75 -1.08,0.75 -1.04,0 -1.61,-1.28 -1.61,-1.53 0,-0.1 0.1,-0.1 0.12,-0.1 0.08,0 0.11,0.02 0.13,0.11 0.34,1.06 1,1.3 1.34,1.3 0.19,0 0.54,-0.08 0.54,-0.66 0,-0.31 -0.17,-0.98 -0.54,-2.37 -0.16,-0.62 -0.51,-1.04 -0.95,-1.04 -0.06,0 -0.29,0 -0.5,0.13 0.25,0.05 0.47,0.26 0.47,0.54 0,0.27 -0.22,0.35 -0.37,0.35 -0.3,0 -0.55,-0.26 -0.55,-0.58 0,-0.45 0.5,-0.65 0.94,-0.65 0.66,0 1.02,0.69 1.05,0.75 0.12,-0.37 0.48,-0.75 1.07,-0.75 1.03,0 1.6,1.28 1.6,1.53 0,0.1 -0.09,0.1 -0.12,0.1 -0.09,0 -0.11,-0.04 -0.13,-0.11 -0.33,-1.07 -1.01,-1.31 -1.32,-1.31 -0.39,0 -0.55,0.32 -0.55,0.66 0,0.22 0.06,0.44 0.17,0.88 z"
   id="path3988" />
<path
   style="fill:#000000;stroke-width:0"
   inkscape:connector-curvature="0"
   d="m 241.83,709.61 0,0.08 0,0.07 0,0.08 0,0.08 -0.01,0.17 -0.01,0.18 -0.02,0.18 -0.02,0.19 -0.03,0.2 -0.03,0.19 -0.04,0.21 -0.05,0.21 -0.05,0.21 -0.06,0.21 -0.07,0.21 -0.08,0.21 -0.04,0.11 -0.05,0.11 -0.05,0.1 -0.05,0.11 c -0.6,1.22 -1.45,1.87 -1.55,1.87 -0.06,0 -0.1,-0.04 -0.1,-0.1 0,-0.03 0,-0.05 0.19,-0.23 0.97,-0.98 1.54,-2.57 1.54,-4.65 0,-1.7 -0.37,-3.45 -1.6,-4.7 -0.13,-0.12 -0.13,-0.14 -0.13,-0.17 0,-0.06 0.04,-0.1 0.1,-0.1 0.1,0 1,0.67 1.58,1.94 0.51,1.09 0.63,2.2 0.63,3.03 z"
   id="path3990" />
<path
   style="fill:#000000;stroke-width:0"
   inkscape:connector-curvature="0"
   d="m 252.44,710.38 0.03,0 0.03,0 0.03,0 0.01,0 0.02,0 0.01,0 0.02,0.01 0.01,0 0.02,0 0.01,0 0.01,0.01 0.02,0 0.01,0 0.01,0.01 0.01,0 0.01,0.01 0.01,0.01 0.01,0.01 0.01,0 0.01,0.01 0.01,0.01 0,0.01 0.01,0 0,0.01 0,0.01 0.01,0 0,0.01 0,0.01 0,0 0,0.01 0.01,0.01 0,0 0,0.01 0,0.01 0,0.01 0,0.01 0,0.01 c 0,0.2 -0.19,0.2 -0.33,0.2 h -5.97 c -0.14,0 -0.33,0 -0.33,-0.2 0,-0.2 0.19,-0.2 0.34,-0.2 z"
   id="path3992" />
<path
   style="fill:#000000;stroke-width:0"
   inkscape:connector-curvature="0"
   d="m 252.45,708.45 0.03,0 0.03,0 0.02,0 0.02,0 0.01,0 0.02,0 0.01,0.01 0.01,0 0.02,0 0.01,0 0.01,0.01 0.02,0 0.01,0 0.01,0.01 0.01,0 0.01,0.01 0.01,0.01 0.01,0.01 0.01,0 0.01,0.01 0.01,0.01 0,0 0,0.01 0.01,0 0,0.01 0,0.01 0.01,0 0,0.01 0,0.01 0,0 0,0.01 0.01,0.01 0,0 0,0.01 0,0.01 0,0.01 0,0.01 0,0.01 c 0,0.2 -0.19,0.2 -0.34,0.2 h -5.95 c -0.15,0 -0.34,0 -0.34,-0.2 0,-0.2 0.19,-0.2 0.33,-0.2 z"
   id="path3994" />
<path
   style="fill:#000000;stroke-width:0"
   inkscape:connector-curvature="0"
   d="m 259.77,711.11 h 0.85 c 0.2,0 0.3,0 0.3,0.19 0,0.11 -0.1,0.11 -0.27,0.11 h -0.82 l 0.21,1.14 c 0.04,0.21 0.17,0.92 0.23,1.03 0.09,0.19 0.26,0.34 0.47,0.34 0.04,0 0.3,0 0.49,-0.18 -0.44,-0.04 -0.54,-0.39 -0.54,-0.53 0,-0.23 0.18,-0.35 0.37,-0.35 0.26,0 0.55,0.22 0.55,0.6 0,0.45 -0.46,0.68 -0.87,0.68 -0.34,0 -0.96,-0.18 -1.26,-1.16 -0.06,-0.21 -0.09,-0.31 -0.33,-1.57 h -0.69 c -0.19,0 -0.3,0 -0.3,-0.19 0,-0.11 0.09,-0.11 0.28,-0.11 h 0.66 l -0.75,-3.94 c -0.18,-0.96 -0.35,-1.87 -0.87,-1.87 -0.04,0 -0.28,0 -0.47,0.18 0.45,0.03 0.54,0.39 0.54,0.54 0,0.23 -0.18,0.35 -0.37,0.35 -0.26,0 -0.54,-0.22 -0.54,-0.6 0,-0.45 0.44,-0.68 0.84,-0.68 0.55,0 0.95,0.58 1.13,0.96 0.32,0.63 0.55,1.83 0.56,1.9 z"
   id="path3996" />
<path
   style="fill:#000000;stroke-width:0"
   inkscape:connector-curvature="0"
   d="m 265.36,704.74 0,0 0,0.01 0,0 0,0 0,0.01 0,0 -0.01,0 0,0.01 0,0 0,0 0,0.01 -0.01,0 0,0.01 0,0 -0.01,0.01 0,0.01 -0.01,0 0,0.01 -0.01,0 0,0.01 0,0 -0.01,0.01 0,0 -0.01,0 0,0.01 0,0 -0.01,0.01 0,0 -0.01,0.01 0,0 -0.01,0.01 0,0.01 -0.01,0 -0.01,0.01 0,0 -0.01,0.01 -0.01,0.01 0,0.01 -0.01,0 -0.01,0.01 0,0.01 -0.01,0.01 c -1.25,1.25 -1.57,3.13 -1.57,4.65 0,1.73 0.38,3.47 1.61,4.71 0.13,0.12 0.13,0.14 0.13,0.17 0,0.07 -0.04,0.1 -0.1,0.1 -0.1,0 -1,-0.68 -1.59,-1.94 -0.51,-1.1 -0.62,-2.2 -0.62,-3.04 0,-0.77 0.1,-1.98 0.65,-3.1 0.6,-1.23 1.46,-1.87 1.56,-1.87 0.06,0 0.1,0.03 0.1,0.1 z"
   id="path3998" />
<path
   style="fill:#000000;stroke-width:0"
   inkscape:connector-curvature="0"
   d="m 269.26,710.13 0.01,0.03 0,0.03 0.01,0.03 0.01,0.04 0.01,0.03 0.01,0.05 0.02,0.04 0.01,0.04 0.02,0.05 0.02,0.05 0.02,0.05 0.02,0.05 0.02,0.05 0.02,0.05 0.03,0.05 0.03,0.04 0.03,0.05 0.03,0.05 0.03,0.05 0.04,0.04 0.03,0.04 0.04,0.04 0.04,0.04 0.05,0.04 0.04,0.03 0.05,0.03 0.03,0.01 0.02,0.01 0.03,0.02 0.03,0.01 0.03,0 0.02,0.01 0.03,0.01 0.03,0 0.03,0.01 0.03,0 0.04,0 0.03,0 c 0.05,0 0.29,0 0.5,-0.12 -0.28,-0.05 -0.48,-0.3 -0.48,-0.54 0,-0.16 0.11,-0.35 0.38,-0.35 0.22,0 0.53,0.18 0.53,0.58 0,0.52 -0.58,0.65 -0.92,0.65 -0.58,0 -0.93,-0.52 -1.05,-0.75 -0.25,0.65 -0.79,0.75 -1.07,0.75 -1.04,0 -1.61,-1.28 -1.61,-1.53 0,-0.1 0.1,-0.1 0.12,-0.1 0.08,0 0.11,0.02 0.13,0.11 0.34,1.06 1,1.3 1.33,1.3 0.19,0 0.54,-0.08 0.54,-0.66 0,-0.31 -0.17,-0.98 -0.54,-2.37 -0.15,-0.62 -0.5,-1.04 -0.94,-1.04 -0.06,0 -0.29,0 -0.5,0.13 0.25,0.05 0.47,0.26 0.47,0.54 0,0.27 -0.22,0.35 -0.37,0.35 -0.3,0 -0.55,-0.26 -0.55,-0.58 0,-0.45 0.5,-0.65 0.94,-0.65 0.66,0 1.01,0.69 1.04,0.75 0.12,-0.37 0.48,-0.75 1.08,-0.75 1.03,0 1.6,1.28 1.6,1.53 0,0.1 -0.09,0.1 -0.12,0.1 -0.09,0 -0.11,-0.04 -0.13,-0.11 -0.33,-1.07 -1.01,-1.31 -1.33,-1.31 -0.39,0 -0.55,0.32 -0.55,0.66 0,0.22 0.06,0.44 0.17,0.88 z"
   id="path4000" />
<path
   style="fill:#000000;stroke-width:0"
   inkscape:connector-curvature="0"
   d="m 274,712.9 0.03,0.22 0.47,1.88 c 0.06,0.22 0.07,0.24 0.36,0.24 h 0.81 c 0.65,0 1.05,-0.2 1.05,-0.69 0,-0.21 -0.08,-0.76 -0.43,-1.08 -0.25,-0.22 -0.65,-0.35 -1.15,-0.35 h -1.11 L 274,712.9 h 1.26 c 1.18,0 2.17,0.75 2.17,1.5 0,0.59 -0.57,1.09 -1.52,1.09 h -2.44 c -0.14,0 -0.22,0 -0.22,-0.15 0,-0.1 0.08,-0.1 0.23,-0.1 0.11,0 0.14,0 0.26,-0.02 0.14,-0.01 0.16,-0.02 0.16,-0.09 0,-0.02 0,-0.05 -0.03,-0.16 l -0.92,-3.66 c -0.07,-0.27 -0.08,-0.32 -0.62,-0.32 -0.13,0 -0.21,0 -0.21,-0.15 0,-0.01 0,-0.1 0.11,-0.1 0.2,0 0.7,0.03 0.91,0.03 0.12,0 0.36,0 0.48,-0.01 0.14,-0.01 0.31,-0.02 0.44,-0.02 0.05,0 0.15,0 0.15,0.15 0,0.1 -0.08,0.1 -0.22,0.1 -0.01,0 -0.14,0 -0.27,0.01 -0.16,0.02 -0.16,0.04 -0.16,0.11 0,0 0,0.05 0.03,0.15 z"
   id="path4002" />
<path
   style="fill:#000000;stroke-width:0"
   inkscape:connector-curvature="0"
   d="m 281.15,709.61 0,0.08 0,0.07 0,0.08 -0.01,0.08 0,0.17 -0.02,0.18 -0.01,0.18 -0.02,0.19 -0.03,0.2 -0.03,0.19 -0.04,0.21 -0.05,0.21 -0.05,0.21 -0.06,0.21 -0.07,0.21 -0.08,0.21 -0.05,0.11 -0.04,0.11 -0.05,0.1 -0.05,0.11 c -0.6,1.22 -1.45,1.87 -1.55,1.87 -0.06,0 -0.1,-0.04 -0.1,-0.1 0,-0.03 0,-0.05 0.19,-0.23 0.97,-0.98 1.54,-2.57 1.54,-4.65 0,-1.7 -0.37,-3.45 -1.6,-4.7 -0.13,-0.12 -0.13,-0.14 -0.13,-0.17 0,-0.06 0.04,-0.1 0.1,-0.1 0.1,0 0.99,0.67 1.58,1.94 0.51,1.09 0.63,2.2 0.63,3.03 z"
   id="path4004" />
<path
   style="fill:#000000;stroke-width:0"
   inkscape:connector-curvature="0"
   d="m 291.64,713.04 0.02,0.01 0.02,0.01 0.01,0 0.01,0.01 0.01,0 0.01,0.01 0,0 0.01,0.01 0.01,0 0.01,0.01 0.01,0 0,0.01 0.01,0 0.01,0.01 0,0.01 0.01,0 0,0.01 0.01,0.01 0,0 0.01,0.01 0,0.01 0,0.01 0.01,0.01 0,0.01 0,0 0.01,0.01 0,0.01 0,0.01 0,0.01 0,0.02 c 0,0.1 -0.08,0.2 -0.2,0.2 -0.05,0 -0.14,-0.05 -0.18,-0.06 l -5.51,-2.6 c -0.17,-0.08 -0.2,-0.15 -0.2,-0.23 0,-0.09 0.06,-0.16 0.2,-0.22 l 5.51,-2.59 c 0.13,-0.07 0.15,-0.07 0.18,-0.07 0.11,0 0.2,0.09 0.2,0.2 0,0.09 -0.04,0.15 -0.21,0.23 l -5.21,2.45 z"
   id="path4006" />
<path
   style="fill:#000000;stroke-width:0"
   inkscape:connector-curvature="0"
   d="m 291.48,705.76 0.03,0 0.03,0 0.04,0 0.01,0 0.02,0.01 0.01,0 0.02,0 0.01,0 0.02,0 0.01,0.01 0.01,0 0.02,0 0.01,0.01 0.01,0 0.01,0.01 0.01,0 0.01,0.01 0.01,0.01 0.01,0.01 0.01,0.01 0.01,0.01 0,0 0.01,0.01 0,0 0,0.01 0,0.01 0.01,0 0,0.01 0,0.01 0,0 0,0.01 0.01,0.01 0,0.01 0,0 0,0.01 0,0.01 0,0.01 c 0,0.2 -0.21,0.2 -0.36,0.2 h -5.37 c -0.15,0 -0.36,0 -0.36,-0.2 0,-0.2 0.18,-0.2 0.35,-0.2 z"
   id="path4008" />
<path
   style="fill:#000000;stroke-width:0"
   inkscape:connector-curvature="0"
   d="m 299.08,711.11 h 0.86 c 0.2,0 0.3,0 0.3,0.19 0,0.11 -0.1,0.11 -0.27,0.11 h -0.83 l 0.22,1.14 c 0.03,0.21 0.17,0.92 0.23,1.03 0.09,0.19 0.26,0.34 0.47,0.34 0.04,0 0.3,0 0.49,-0.18 -0.44,-0.04 -0.54,-0.39 -0.54,-0.53 0,-0.23 0.18,-0.35 0.37,-0.35 0.26,0 0.55,0.22 0.55,0.6 0,0.45 -0.46,0.68 -0.87,0.68 -0.34,0 -0.96,-0.18 -1.26,-1.16 -0.06,-0.21 -0.09,-0.31 -0.33,-1.57 h -0.69 c -0.19,0 -0.3,0 -0.3,-0.19 0,-0.11 0.09,-0.11 0.28,-0.11 h 0.66 l -0.75,-3.94 c -0.18,-0.96 -0.35,-1.87 -0.87,-1.87 -0.04,0 -0.29,0 -0.48,0.18 0.46,0.03 0.55,0.39 0.55,0.54 0,0.23 -0.18,0.35 -0.37,0.35 -0.26,0 -0.55,-0.22 -0.55,-0.6 0,-0.45 0.44,-0.68 0.85,-0.68 0.55,0 0.95,0.58 1.13,0.96 0.32,0.63 0.55,1.83 0.56,1.9 z"
   id="path4010" />
<path
   style="fill:#000000;stroke-width:0"
   inkscape:connector-curvature="0"
   d="m 304.68,704.74 0,0 0,0.01 0,0 0,0 0,0.01 -0.01,0 0,0 0,0.01 0,0 0,0 0,0.01 -0.01,0 0,0.01 0,0 -0.01,0.01 0,0.01 -0.01,0 0,0.01 -0.01,0 0,0.01 0,0 -0.01,0.01 0,0 -0.01,0 0,0.01 0,0 -0.01,0.01 0,0 -0.01,0.01 0,0 -0.01,0.01 -0.01,0.01 0,0 -0.01,0.01 0,0 -0.01,0.01 -0.01,0.01 0,0.01 -0.01,0 -0.01,0.01 -0.01,0.01 0,0.01 c -1.25,1.25 -1.57,3.13 -1.57,4.65 0,1.73 0.38,3.47 1.61,4.71 0.13,0.12 0.13,0.14 0.13,0.17 0,0.07 -0.04,0.1 -0.1,0.1 -0.1,0 -1,-0.68 -1.59,-1.94 -0.51,-1.1 -0.63,-2.2 -0.63,-3.04 0,-0.77 0.11,-1.98 0.66,-3.1 0.6,-1.23 1.46,-1.87 1.56,-1.87 0.06,0 0.1,0.03 0.1,0.1 z"
   id="path4012" />
<path
   style="fill:#000000;stroke-width:0"
   inkscape:connector-curvature="0"
   d="m 308.58,710.13 0.01,0.03 0,0.03 0.01,0.03 0.01,0.04 0.01,0.03 0.01,0.05 0.02,0.04 0.01,0.04 0.02,0.05 0.02,0.05 0.01,0.05 0.02,0.05 0.03,0.05 0.02,0.05 0.03,0.05 0.02,0.04 0.03,0.05 0.04,0.05 0.03,0.05 0.03,0.04 0.04,0.04 0.04,0.04 0.04,0.04 0.05,0.04 0.04,0.03 0.05,0.03 0.03,0.01 0.02,0.01 0.03,0.02 0.03,0.01 0.02,0 0.03,0.01 0.03,0.01 0.03,0 0.03,0.01 0.03,0 0.03,0 0.04,0 c 0.05,0 0.29,0 0.5,-0.12 -0.28,-0.05 -0.48,-0.3 -0.48,-0.54 0,-0.16 0.11,-0.35 0.38,-0.35 0.21,0 0.53,0.18 0.53,0.58 0,0.52 -0.58,0.65 -0.92,0.65 -0.58,0 -0.93,-0.52 -1.05,-0.75 -0.25,0.65 -0.79,0.75 -1.08,0.75 -1.03,0 -1.6,-1.28 -1.6,-1.53 0,-0.1 0.1,-0.1 0.12,-0.1 0.08,0 0.11,0.02 0.13,0.11 0.34,1.06 1,1.3 1.33,1.3 0.19,0 0.54,-0.08 0.54,-0.66 0,-0.31 -0.17,-0.98 -0.54,-2.37 -0.16,-0.62 -0.5,-1.04 -0.94,-1.04 -0.06,0 -0.29,0 -0.5,0.13 0.25,0.05 0.47,0.26 0.47,0.54 0,0.27 -0.22,0.35 -0.37,0.35 -0.3,0 -0.55,-0.26 -0.55,-0.58 0,-0.45 0.5,-0.65 0.94,-0.65 0.66,0 1.01,0.69 1.04,0.75 0.12,-0.37 0.48,-0.75 1.08,-0.75 1.03,0 1.6,1.28 1.6,1.53 0,0.1 -0.09,0.1 -0.12,0.1 -0.09,0 -0.11,-0.04 -0.13,-0.11 -0.33,-1.07 -1.01,-1.31 -1.33,-1.31 -0.39,0 -0.55,0.32 -0.55,0.66 0,0.22 0.06,0.44 0.17,0.88 z"
   id="path4014" />
<path
   style="fill:#000000;stroke-width:0"
   inkscape:connector-curvature="0"
   d="m 316.82,715.54 0,0 0,0 0,0.01 -0.01,0 0,0.01 0,0 0,0 0,0.01 0,0 0,0 0,0.01 0,0 -0.01,0.01 0,0 0,0 0,0.01 -0.01,0 0,0 0,0.01 -0.01,0 0,0 0,0 -0.01,0.01 0,0 -0.01,0 0,0 -0.01,0 0,0.01 0,0 -0.01,0 0,0 0,0 0,0 -0.01,0 0,0 0,0 c -0.05,0 -0.07,-0.02 -0.13,-0.09 l -0.51,-0.53 c -0.06,0.08 -0.45,0.62 -1.31,0.62 -1.69,0 -3.35,-1.5 -3.35,-3.07 0,-1.08 0.82,-1.96 2.16,-1.96 0.61,0 1.26,0.16 1.62,0.55 0.07,-0.15 0.26,-0.4 0.35,-0.4 0.06,0 0.07,0.03 0.11,0.17 l 0.13,0.54 c 0.03,0.12 0.13,0.54 0.15,0.62 0.09,0.32 0.09,0.32 0.5,0.33 0.05,0 0.16,0 0.16,0.14 0,0.07 -0.05,0.11 -0.11,0.11 -0.23,0 -0.52,-0.03 -0.76,-0.03 -0.18,0 -0.41,0 -0.58,0.01 -0.18,0.01 -0.38,0.02 -0.55,0.02 -0.05,0 -0.16,0 -0.16,-0.15 0,-0.1 0.08,-0.1 0.26,-0.1 0.13,0 0.27,0 0.4,-0.01 0.22,-0.03 0.23,-0.05 0.23,-0.14 0,-0.03 0,-0.04 -0.05,-0.22 -0.05,-0.19 -0.12,-0.51 -0.15,-0.58 -0.2,-0.42 -0.85,-0.61 -1.4,-0.61 -0.69,0 -1.6,0.33 -1.6,1.51 0,0.74 0.34,1.68 0.86,2.2 0.72,0.71 1.46,0.82 1.85,0.82 0.81,0 1.28,-0.59 1.28,-1.36 0,-0.2 -0.02,-0.25 -0.02,-0.29 0,-0.09 0.09,-0.09 0.13,-0.09 0.11,0 0.11,0.02 0.14,0.15 z"
   id="path4016" />
<path
   style="fill:#000000;stroke-width:0"
   inkscape:connector-curvature="0"
   d="m 320.53,709.61 0,0.08 0,0.07 -0.01,0.08 0,0.08 -0.01,0.17 -0.01,0.18 -0.02,0.18 -0.02,0.19 -0.02,0.2 -0.04,0.19 -0.04,0.21 -0.04,0.21 -0.06,0.21 -0.06,0.21 -0.07,0.21 -0.08,0.21 -0.04,0.11 -0.04,0.11 -0.05,0.1 -0.05,0.11 c -0.6,1.22 -1.46,1.87 -1.56,1.87 -0.06,0 -0.1,-0.04 -0.1,-0.1 0,-0.03 0,-0.05 0.19,-0.23 0.98,-0.98 1.55,-2.57 1.55,-4.65 0,-1.7 -0.37,-3.45 -1.61,-4.7 -0.13,-0.12 -0.13,-0.14 -0.13,-0.17 0,-0.06 0.04,-0.1 0.1,-0.1 0.1,0 1,0.67 1.59,1.94 0.51,1.09 0.63,2.2 0.63,3.03 z"
   id="path4018" />
</g>  <g
     style="font-style:normal;font-variant:normal;font-weight:normal;font-stretch:normal;letter-spacing:normal;word-spacing:normal;text-anchor:start;fill:none;stroke:#000000;stroke-linecap:butt;stroke-linejoin:miter;stroke-miterlimit:10.43299961;stroke-opacity:1;stroke-dasharray:none;stroke-dashoffset:0"
     ns0:preamble=""
     ns0:text="$ f(x) = f(x^{P}) = f(x^{G}) \\land v &gt; 0 $"
     word-spacing="normal"
     letter-spacing="normal"
     font-size-adjust="none"
     font-stretch="normal"
     font-weight="normal"
     font-variant="normal"
     font-style="normal"
     stroke-miterlimit="10.433"
     xml:space="preserve"
     transform="matrix(2,0,0,-2,-179.46937,1672.5549)"
     id="g4234">
<path
   id="path4236"
   d="m 227.09,711.11 h 0.86 c 0.2,0 0.3,0 0.3,0.19 0,0.11 -0.1,0.11 -0.27,0.11 h -0.83 l 0.21,1.14 c 0.04,0.21 0.18,0.92 0.24,1.03 0.09,0.19 0.26,0.34 0.47,0.34 0.04,0 0.3,0 0.49,-0.18 -0.44,-0.04 -0.54,-0.39 -0.54,-0.53 0,-0.23 0.18,-0.35 0.37,-0.35 0.26,0 0.54,0.22 0.54,0.6 0,0.45 -0.45,0.68 -0.86,0.68 -0.34,0 -0.97,-0.18 -1.27,-1.16 -0.06,-0.21 -0.09,-0.31 -0.33,-1.57 h -0.68 c -0.19,0 -0.3,0 -0.3,-0.19 0,-0.11 0.08,-0.11 0.27,-0.11 h 0.66 l -0.74,-3.94 c -0.19,-0.96 -0.35,-1.87 -0.87,-1.87 -0.04,0 -0.29,0 -0.48,0.18 0.46,0.03 0.55,0.39 0.55,0.54 0,0.23 -0.18,0.35 -0.37,0.35 -0.26,0 -0.55,-0.22 -0.55,-0.6 0,-0.45 0.44,-0.68 0.85,-0.68 0.55,0 0.95,0.58 1.12,0.96 0.32,0.63 0.55,1.83 0.56,1.9 z"
   inkscape:connector-curvature="0"
   style="fill:#000000;stroke-width:0" />
<path
   id="path4238"
   d="m 232.68,704.74 0,0 0,0.01 0,0 0,0 0,0.01 0,0 0,0 0,0.01 0,0 -0.01,0 0,0.01 0,0 -0.01,0.01 0,0 0,0.01 -0.01,0.01 0,0 -0.01,0.01 0,0 -0.01,0.01 0,0 0,0.01 -0.01,0 0,0 -0.01,0.01 0,0 0,0.01 -0.01,0 0,0.01 -0.01,0 0,0.01 -0.01,0.01 -0.01,0 0,0.01 -0.01,0 0,0.01 -0.01,0.01 -0.01,0.01 -0.01,0 0,0.01 -0.01,0.01 -0.01,0.01 c -1.24,1.25 -1.56,3.13 -1.56,4.65 0,1.73 0.38,3.47 1.6,4.71 0.13,0.12 0.13,0.14 0.13,0.17 0,0.07 -0.04,0.1 -0.1,0.1 -0.1,0 -0.99,-0.68 -1.58,-1.94 -0.51,-1.1 -0.63,-2.2 -0.63,-3.04 0,-0.77 0.11,-1.98 0.66,-3.1 0.6,-1.23 1.45,-1.87 1.55,-1.87 0.06,0 0.1,0.03 0.1,0.1 z"
   inkscape:connector-curvature="0"
   style="fill:#000000;stroke-width:0" />
<path
   id="path4240"
   d="m 236.59,710.13 0,0.03 0.01,0.03 0.01,0.03 0.01,0.04 0.01,0.03 0.01,0.05 0.01,0.04 0.02,0.04 0.01,0.05 0.02,0.05 0.02,0.05 0.02,0.05 0.02,0.05 0.03,0.05 0.02,0.05 0.03,0.04 0.03,0.05 0.03,0.05 0.03,0.05 0.04,0.04 0.04,0.04 0.04,0.04 0.04,0.04 0.04,0.04 0.05,0.03 0.05,0.03 0.02,0.01 0.03,0.01 0.02,0.02 0.03,0.01 0.03,0 0.03,0.01 0.03,0.01 0.03,0 0.03,0.01 0.03,0 0.03,0 0.03,0 c 0.05,0 0.29,0 0.5,-0.12 -0.28,-0.05 -0.48,-0.3 -0.48,-0.54 0,-0.16 0.11,-0.35 0.38,-0.35 0.22,0 0.54,0.18 0.54,0.58 0,0.52 -0.59,0.65 -0.93,0.65 -0.58,0 -0.93,-0.52 -1.04,-0.75 -0.25,0.65 -0.79,0.75 -1.08,0.75 -1.04,0 -1.61,-1.28 -1.61,-1.53 0,-0.1 0.1,-0.1 0.12,-0.1 0.08,0 0.11,0.02 0.13,0.11 0.34,1.06 1,1.3 1.34,1.3 0.19,0 0.54,-0.08 0.54,-0.66 0,-0.31 -0.17,-0.98 -0.54,-2.37 -0.16,-0.62 -0.51,-1.04 -0.95,-1.04 -0.06,0 -0.29,0 -0.5,0.13 0.25,0.05 0.47,0.26 0.47,0.54 0,0.27 -0.22,0.35 -0.37,0.35 -0.3,0 -0.55,-0.26 -0.55,-0.58 0,-0.45 0.5,-0.65 0.94,-0.65 0.66,0 1.02,0.69 1.05,0.75 0.12,-0.37 0.48,-0.75 1.07,-0.75 1.03,0 1.6,1.28 1.6,1.53 0,0.1 -0.09,0.1 -0.12,0.1 -0.09,0 -0.11,-0.04 -0.13,-0.11 -0.33,-1.07 -1.01,-1.31 -1.32,-1.31 -0.39,0 -0.55,0.32 -0.55,0.66 0,0.22 0.06,0.44 0.17,0.88 z"
   inkscape:connector-curvature="0"
   style="fill:#000000;stroke-width:0" />
<path
   id="path4242"
   d="m 241.83,709.61 0,0.08 0,0.07 0,0.08 0,0.08 -0.01,0.17 -0.01,0.18 -0.02,0.18 -0.02,0.19 -0.03,0.2 -0.03,0.19 -0.04,0.21 -0.05,0.21 -0.05,0.21 -0.06,0.21 -0.07,0.21 -0.08,0.21 -0.04,0.11 -0.05,0.11 -0.05,0.1 -0.05,0.11 c -0.6,1.22 -1.45,1.87 -1.55,1.87 -0.06,0 -0.1,-0.04 -0.1,-0.1 0,-0.03 0,-0.05 0.19,-0.23 0.97,-0.98 1.54,-2.57 1.54,-4.65 0,-1.7 -0.37,-3.45 -1.6,-4.7 -0.13,-0.12 -0.13,-0.14 -0.13,-0.17 0,-0.06 0.04,-0.1 0.1,-0.1 0.1,0 1,0.67 1.58,1.94 0.51,1.09 0.63,2.2 0.63,3.03 z"
   inkscape:connector-curvature="0"
   style="fill:#000000;stroke-width:0" />
<path
   id="path4244"
   d="m 252.44,710.38 0.03,0 0.03,0 0.03,0 0.01,0 0.02,0 0.01,0 0.02,0.01 0.01,0 0.02,0 0.01,0 0.01,0.01 0.02,0 0.01,0 0.01,0.01 0.01,0 0.01,0.01 0.01,0.01 0.01,0.01 0.01,0 0.01,0.01 0.01,0.01 0,0.01 0.01,0 0,0.01 0,0.01 0.01,0 0,0.01 0,0.01 0,0 0,0.01 0.01,0.01 0,0 0,0.01 0,0.01 0,0.01 0,0.01 0,0.01 c 0,0.2 -0.19,0.2 -0.33,0.2 h -5.97 c -0.14,0 -0.33,0 -0.33,-0.2 0,-0.2 0.19,-0.2 0.34,-0.2 z"
   inkscape:connector-curvature="0"
   style="fill:#000000;stroke-width:0" />
<path
   id="path4246"
   d="m 252.45,708.45 0.03,0 0.03,0 0.02,0 0.02,0 0.01,0 0.02,0 0.01,0.01 0.01,0 0.02,0 0.01,0 0.01,0.01 0.02,0 0.01,0 0.01,0.01 0.01,0 0.01,0.01 0.01,0.01 0.01,0.01 0.01,0 0.01,0.01 0.01,0.01 0,0 0,0.01 0.01,0 0,0.01 0,0.01 0.01,0 0,0.01 0,0.01 0,0 0,0.01 0.01,0.01 0,0 0,0.01 0,0.01 0,0.01 0,0.01 0,0.01 c 0,0.2 -0.19,0.2 -0.34,0.2 h -5.95 c -0.15,0 -0.34,0 -0.34,-0.2 0,-0.2 0.19,-0.2 0.33,-0.2 z"
   inkscape:connector-curvature="0"
   style="fill:#000000;stroke-width:0" />
<path
   id="path4248"
   d="m 259.77,711.11 h 0.85 c 0.2,0 0.3,0 0.3,0.19 0,0.11 -0.1,0.11 -0.27,0.11 h -0.82 l 0.21,1.14 c 0.04,0.21 0.17,0.92 0.23,1.03 0.09,0.19 0.26,0.34 0.47,0.34 0.04,0 0.3,0 0.49,-0.18 -0.44,-0.04 -0.54,-0.39 -0.54,-0.53 0,-0.23 0.18,-0.35 0.37,-0.35 0.26,0 0.55,0.22 0.55,0.6 0,0.45 -0.46,0.68 -0.87,0.68 -0.34,0 -0.96,-0.18 -1.26,-1.16 -0.06,-0.21 -0.09,-0.31 -0.33,-1.57 h -0.69 c -0.19,0 -0.3,0 -0.3,-0.19 0,-0.11 0.09,-0.11 0.28,-0.11 h 0.66 l -0.75,-3.94 c -0.18,-0.96 -0.35,-1.87 -0.87,-1.87 -0.04,0 -0.28,0 -0.47,0.18 0.45,0.03 0.54,0.39 0.54,0.54 0,0.23 -0.18,0.35 -0.37,0.35 -0.26,0 -0.54,-0.22 -0.54,-0.6 0,-0.45 0.44,-0.68 0.84,-0.68 0.55,0 0.95,0.58 1.13,0.96 0.32,0.63 0.55,1.83 0.56,1.9 z"
   inkscape:connector-curvature="0"
   style="fill:#000000;stroke-width:0" />
<path
   id="path4250"
   d="m 265.36,704.74 0,0 0,0.01 0,0 0,0 0,0.01 0,0 -0.01,0 0,0.01 0,0 0,0 0,0.01 -0.01,0 0,0.01 0,0 -0.01,0.01 0,0.01 -0.01,0 0,0.01 -0.01,0 0,0.01 0,0 -0.01,0.01 0,0 -0.01,0 0,0.01 0,0 -0.01,0.01 0,0 -0.01,0.01 0,0 -0.01,0.01 0,0.01 -0.01,0 -0.01,0.01 0,0 -0.01,0.01 -0.01,0.01 0,0.01 -0.01,0 -0.01,0.01 0,0.01 -0.01,0.01 c -1.25,1.25 -1.57,3.13 -1.57,4.65 0,1.73 0.38,3.47 1.61,4.71 0.13,0.12 0.13,0.14 0.13,0.17 0,0.07 -0.04,0.1 -0.1,0.1 -0.1,0 -1,-0.68 -1.59,-1.94 -0.51,-1.1 -0.62,-2.2 -0.62,-3.04 0,-0.77 0.1,-1.98 0.65,-3.1 0.6,-1.23 1.46,-1.87 1.56,-1.87 0.06,0 0.1,0.03 0.1,0.1 z"
   inkscape:connector-curvature="0"
   style="fill:#000000;stroke-width:0" />
<path
   id="path4252"
   d="m 269.26,710.13 0.01,0.03 0,0.03 0.01,0.03 0.01,0.04 0.01,0.03 0.01,0.05 0.02,0.04 0.01,0.04 0.02,0.05 0.02,0.05 0.02,0.05 0.02,0.05 0.02,0.05 0.02,0.05 0.03,0.05 0.03,0.04 0.03,0.05 0.03,0.05 0.03,0.05 0.04,0.04 0.03,0.04 0.04,0.04 0.04,0.04 0.05,0.04 0.04,0.03 0.05,0.03 0.03,0.01 0.02,0.01 0.03,0.02 0.03,0.01 0.03,0 0.02,0.01 0.03,0.01 0.03,0 0.03,0.01 0.03,0 0.04,0 0.03,0 c 0.05,0 0.29,0 0.5,-0.12 -0.28,-0.05 -0.48,-0.3 -0.48,-0.54 0,-0.16 0.11,-0.35 0.38,-0.35 0.22,0 0.53,0.18 0.53,0.58 0,0.52 -0.58,0.65 -0.92,0.65 -0.58,0 -0.93,-0.52 -1.05,-0.75 -0.25,0.65 -0.79,0.75 -1.07,0.75 -1.04,0 -1.61,-1.28 -1.61,-1.53 0,-0.1 0.1,-0.1 0.12,-0.1 0.08,0 0.11,0.02 0.13,0.11 0.34,1.06 1,1.3 1.33,1.3 0.19,0 0.54,-0.08 0.54,-0.66 0,-0.31 -0.17,-0.98 -0.54,-2.37 -0.15,-0.62 -0.5,-1.04 -0.94,-1.04 -0.06,0 -0.29,0 -0.5,0.13 0.25,0.05 0.47,0.26 0.47,0.54 0,0.27 -0.22,0.35 -0.37,0.35 -0.3,0 -0.55,-0.26 -0.55,-0.58 0,-0.45 0.5,-0.65 0.94,-0.65 0.66,0 1.01,0.69 1.04,0.75 0.12,-0.37 0.48,-0.75 1.08,-0.75 1.03,0 1.6,1.28 1.6,1.53 0,0.1 -0.09,0.1 -0.12,0.1 -0.09,0 -0.11,-0.04 -0.13,-0.11 -0.33,-1.07 -1.01,-1.31 -1.33,-1.31 -0.39,0 -0.55,0.32 -0.55,0.66 0,0.22 0.06,0.44 0.17,0.88 z"
   inkscape:connector-curvature="0"
   style="fill:#000000;stroke-width:0" />
<path
   id="path4254"
   d="m 274,712.9 0.03,0.22 0.47,1.88 c 0.06,0.22 0.07,0.24 0.36,0.24 h 0.81 c 0.65,0 1.05,-0.2 1.05,-0.69 0,-0.21 -0.08,-0.76 -0.43,-1.08 -0.25,-0.22 -0.65,-0.35 -1.15,-0.35 h -1.11 L 274,712.9 h 1.26 c 1.18,0 2.17,0.75 2.17,1.5 0,0.59 -0.57,1.09 -1.52,1.09 h -2.44 c -0.14,0 -0.22,0 -0.22,-0.15 0,-0.1 0.08,-0.1 0.23,-0.1 0.11,0 0.14,0 0.26,-0.02 0.14,-0.01 0.16,-0.02 0.16,-0.09 0,-0.02 0,-0.05 -0.03,-0.16 l -0.92,-3.66 c -0.07,-0.27 -0.08,-0.32 -0.62,-0.32 -0.13,0 -0.21,0 -0.21,-0.15 0,-0.01 0,-0.1 0.11,-0.1 0.2,0 0.7,0.03 0.91,0.03 0.12,0 0.36,0 0.48,-0.01 0.14,-0.01 0.31,-0.02 0.44,-0.02 0.05,0 0.15,0 0.15,0.15 0,0.1 -0.08,0.1 -0.22,0.1 -0.01,0 -0.14,0 -0.27,0.01 -0.16,0.02 -0.16,0.04 -0.16,0.11 0,0 0,0.05 0.03,0.15 z"
   inkscape:connector-curvature="0"
   style="fill:#000000;stroke-width:0" />
<path
   id="path4256"
   d="m 281.15,709.61 0,0.08 0,0.07 0,0.08 -0.01,0.08 0,0.17 -0.02,0.18 -0.01,0.18 -0.02,0.19 -0.03,0.2 -0.03,0.19 -0.04,0.21 -0.05,0.21 -0.05,0.21 -0.06,0.21 -0.07,0.21 -0.08,0.21 -0.05,0.11 -0.04,0.11 -0.05,0.1 -0.05,0.11 c -0.6,1.22 -1.45,1.87 -1.55,1.87 -0.06,0 -0.1,-0.04 -0.1,-0.1 0,-0.03 0,-0.05 0.19,-0.23 0.97,-0.98 1.54,-2.57 1.54,-4.65 0,-1.7 -0.37,-3.45 -1.6,-4.7 -0.13,-0.12 -0.13,-0.14 -0.13,-0.17 0,-0.06 0.04,-0.1 0.1,-0.1 0.1,0 0.99,0.67 1.58,1.94 0.51,1.09 0.63,2.2 0.63,3.03 z"
   inkscape:connector-curvature="0"
   style="fill:#000000;stroke-width:0" />
<path
   id="path4258"
   d="m 291.76,710.38 0.03,0 0.03,0 0.03,0 0.01,0 0.02,0 0.01,0 0.02,0.01 0.01,0 0.01,0 0.02,0 0.01,0.01 0.01,0 0.02,0 0.01,0.01 0.01,0 0.01,0.01 0.01,0.01 0.01,0.01 0.01,0 0.01,0.01 0.01,0.01 0,0.01 0.01,0 0,0.01 0,0.01 0,0 0.01,0.01 0,0.01 0,0 0,0.01 0.01,0.01 0,0 0,0.01 0,0.01 0,0.01 0,0.01 0,0.01 c 0,0.2 -0.19,0.2 -0.33,0.2 h -5.97 c -0.14,0 -0.33,0 -0.33,-0.2 0,-0.2 0.19,-0.2 0.34,-0.2 z"
   inkscape:connector-curvature="0"
   style="fill:#000000;stroke-width:0" />
<path
   id="path4260"
   d="m 291.77,708.45 0.03,0 0.03,0 0.02,0 0.02,0 0.01,0 0.02,0 0.01,0.01 0.01,0 0.02,0 0.01,0 0.01,0.01 0.02,0 0.01,0 0.01,0.01 0.01,0 0.01,0.01 0.01,0.01 0.01,0.01 0.01,0 0.01,0.01 0,0.01 0.01,0 0,0.01 0.01,0 0,0.01 0,0.01 0,0 0.01,0.01 0,0.01 0,0 0,0.01 0.01,0.01 0,0 0,0.01 0,0.01 0,0.01 0,0.01 0,0.01 c 0,0.2 -0.19,0.2 -0.34,0.2 h -5.95 c -0.15,0 -0.34,0 -0.34,-0.2 0,-0.2 0.19,-0.2 0.33,-0.2 z"
   inkscape:connector-curvature="0"
   style="fill:#000000;stroke-width:0" />
<path
   id="path4262"
   d="m 299.08,711.11 h 0.86 c 0.2,0 0.3,0 0.3,0.19 0,0.11 -0.1,0.11 -0.27,0.11 h -0.83 l 0.22,1.14 c 0.03,0.21 0.17,0.92 0.23,1.03 0.09,0.19 0.26,0.34 0.47,0.34 0.04,0 0.3,0 0.49,-0.18 -0.44,-0.04 -0.54,-0.39 -0.54,-0.53 0,-0.23 0.18,-0.35 0.37,-0.35 0.26,0 0.55,0.22 0.55,0.6 0,0.45 -0.46,0.68 -0.87,0.68 -0.34,0 -0.96,-0.18 -1.26,-1.16 -0.06,-0.21 -0.09,-0.31 -0.33,-1.57 h -0.69 c -0.19,0 -0.3,0 -0.3,-0.19 0,-0.11 0.09,-0.11 0.28,-0.11 h 0.66 l -0.75,-3.94 c -0.18,-0.96 -0.35,-1.87 -0.87,-1.87 -0.04,0 -0.29,0 -0.48,0.18 0.46,0.03 0.55,0.39 0.55,0.54 0,0.23 -0.18,0.35 -0.37,0.35 -0.26,0 -0.55,-0.22 -0.55,-0.6 0,-0.45 0.44,-0.68 0.85,-0.68 0.55,0 0.95,0.58 1.13,0.96 0.32,0.63 0.55,1.83 0.56,1.9 z"
   inkscape:connector-curvature="0"
   style="fill:#000000;stroke-width:0" />
<path
   id="path4264"
   d="m 304.68,704.74 0,0 0,0.01 0,0 0,0 0,0.01 -0.01,0 0,0 0,0.01 0,0 0,0 0,0.01 -0.01,0 0,0.01 0,0 -0.01,0.01 0,0.01 -0.01,0 0,0.01 -0.01,0 0,0.01 0,0 -0.01,0.01 0,0 -0.01,0 0,0.01 0,0 -0.01,0.01 0,0 -0.01,0.01 0,0 -0.01,0.01 -0.01,0.01 0,0 -0.01,0.01 0,0 -0.01,0.01 -0.01,0.01 0,0.01 -0.01,0 -0.01,0.01 -0.01,0.01 0,0.01 c -1.25,1.25 -1.57,3.13 -1.57,4.65 0,1.73 0.38,3.47 1.61,4.71 0.13,0.12 0.13,0.14 0.13,0.17 0,0.07 -0.04,0.1 -0.1,0.1 -0.1,0 -1,-0.68 -1.59,-1.94 -0.51,-1.1 -0.63,-2.2 -0.63,-3.04 0,-0.77 0.11,-1.98 0.66,-3.1 0.6,-1.23 1.46,-1.87 1.56,-1.87 0.06,0 0.1,0.03 0.1,0.1 z"
   inkscape:connector-curvature="0"
   style="fill:#000000;stroke-width:0" />
<path
   id="path4266"
   d="m 308.58,710.13 0.01,0.03 0,0.03 0.01,0.03 0.01,0.04 0.01,0.03 0.01,0.05 0.02,0.04 0.01,0.04 0.02,0.05 0.02,0.05 0.01,0.05 0.02,0.05 0.03,0.05 0.02,0.05 0.03,0.05 0.02,0.04 0.03,0.05 0.04,0.05 0.03,0.05 0.03,0.04 0.04,0.04 0.04,0.04 0.04,0.04 0.05,0.04 0.04,0.03 0.05,0.03 0.03,0.01 0.02,0.01 0.03,0.02 0.03,0.01 0.02,0 0.03,0.01 0.03,0.01 0.03,0 0.03,0.01 0.03,0 0.03,0 0.04,0 c 0.05,0 0.29,0 0.5,-0.12 -0.28,-0.05 -0.48,-0.3 -0.48,-0.54 0,-0.16 0.11,-0.35 0.38,-0.35 0.21,0 0.53,0.18 0.53,0.58 0,0.52 -0.58,0.65 -0.92,0.65 -0.58,0 -0.93,-0.52 -1.05,-0.75 -0.25,0.65 -0.79,0.75 -1.08,0.75 -1.03,0 -1.6,-1.28 -1.6,-1.53 0,-0.1 0.1,-0.1 0.12,-0.1 0.08,0 0.11,0.02 0.13,0.11 0.34,1.06 1,1.3 1.33,1.3 0.19,0 0.54,-0.08 0.54,-0.66 0,-0.31 -0.17,-0.98 -0.54,-2.37 -0.16,-0.62 -0.5,-1.04 -0.94,-1.04 -0.06,0 -0.29,0 -0.5,0.13 0.25,0.05 0.47,0.26 0.47,0.54 0,0.27 -0.22,0.35 -0.37,0.35 -0.3,0 -0.55,-0.26 -0.55,-0.58 0,-0.45 0.5,-0.65 0.94,-0.65 0.66,0 1.01,0.69 1.04,0.75 0.12,-0.37 0.48,-0.75 1.08,-0.75 1.03,0 1.6,1.28 1.6,1.53 0,0.1 -0.09,0.1 -0.12,0.1 -0.09,0 -0.11,-0.04 -0.13,-0.11 -0.33,-1.07 -1.01,-1.31 -1.33,-1.31 -0.39,0 -0.55,0.32 -0.55,0.66 0,0.22 0.06,0.44 0.17,0.88 z"
   inkscape:connector-curvature="0"
   style="fill:#000000;stroke-width:0" />
<path
   id="path4268"
   d="m 316.82,715.54 0,0 0,0 0,0.01 -0.01,0 0,0.01 0,0 0,0 0,0.01 0,0 0,0 0,0.01 0,0 -0.01,0.01 0,0 0,0 0,0.01 -0.01,0 0,0 0,0.01 -0.01,0 0,0 0,0 -0.01,0.01 0,0 -0.01,0 0,0 -0.01,0 0,0.01 0,0 -0.01,0 0,0 0,0 0,0 -0.01,0 0,0 0,0 c -0.05,0 -0.07,-0.02 -0.13,-0.09 l -0.51,-0.53 c -0.06,0.08 -0.45,0.62 -1.31,0.62 -1.69,0 -3.35,-1.5 -3.35,-3.07 0,-1.08 0.82,-1.96 2.16,-1.96 0.61,0 1.26,0.16 1.62,0.55 0.07,-0.15 0.26,-0.4 0.35,-0.4 0.06,0 0.07,0.03 0.11,0.17 l 0.13,0.54 c 0.03,0.12 0.13,0.54 0.15,0.62 0.09,0.32 0.09,0.32 0.5,0.33 0.05,0 0.16,0 0.16,0.14 0,0.07 -0.05,0.11 -0.11,0.11 -0.23,0 -0.52,-0.03 -0.76,-0.03 -0.18,0 -0.41,0 -0.58,0.01 -0.18,0.01 -0.38,0.02 -0.55,0.02 -0.05,0 -0.16,0 -0.16,-0.15 0,-0.1 0.08,-0.1 0.26,-0.1 0.13,0 0.27,0 0.4,-0.01 0.22,-0.03 0.23,-0.05 0.23,-0.14 0,-0.03 0,-0.04 -0.05,-0.22 -0.05,-0.19 -0.12,-0.51 -0.15,-0.58 -0.2,-0.42 -0.85,-0.61 -1.4,-0.61 -0.69,0 -1.6,0.33 -1.6,1.51 0,0.74 0.34,1.68 0.86,2.2 0.72,0.71 1.46,0.82 1.85,0.82 0.81,0 1.28,-0.59 1.28,-1.36 0,-0.2 -0.02,-0.25 -0.02,-0.29 0,-0.09 0.09,-0.09 0.13,-0.09 0.11,0 0.11,0.02 0.14,0.15 z"
   inkscape:connector-curvature="0"
   style="fill:#000000;stroke-width:0" />
<path
   id="path4270"
   d="m 320.53,709.61 0,0.08 0,0.07 -0.01,0.08 0,0.08 -0.01,0.17 -0.01,0.18 -0.02,0.18 -0.02,0.19 -0.02,0.2 -0.04,0.19 -0.04,0.21 -0.04,0.21 -0.06,0.21 -0.06,0.21 -0.07,0.21 -0.08,0.21 -0.04,0.11 -0.04,0.11 -0.05,0.1 -0.05,0.11 c -0.6,1.22 -1.46,1.87 -1.56,1.87 -0.06,0 -0.1,-0.04 -0.1,-0.1 0,-0.03 0,-0.05 0.19,-0.23 0.98,-0.98 1.55,-2.57 1.55,-4.65 0,-1.7 -0.37,-3.45 -1.61,-4.7 -0.13,-0.12 -0.13,-0.14 -0.13,-0.17 0,-0.06 0.04,-0.1 0.1,-0.1 0.1,0 1,0.67 1.59,1.94 0.51,1.09 0.63,2.2 0.63,3.03 z"
   inkscape:connector-curvature="0"
   style="fill:#000000;stroke-width:0" />
<path
   id="path4272"
   d="m 327.28,712.87 0,0.01 -0.01,0.02 -0.01,0.01 -0.01,0.02 0,0.01 -0.01,0.01 -0.01,0.01 0,0.01 -0.01,0.01 -0.01,0.01 0,0.01 -0.01,0.01 -0.01,0.01 0,0 -0.01,0.01 -0.01,0.01 -0.01,0 0,0.01 -0.01,0 -0.01,0.01 0,0 -0.01,0 -0.01,0.01 0,0 -0.01,0 -0.01,0 -0.01,0 0,0 -0.01,0.01 -0.01,0 -0.01,0 -0.01,0 c -0.13,0 -0.16,-0.07 -0.22,-0.21 l -2.48,-5.57 c -0.06,-0.13 -0.07,-0.14 -0.07,-0.2 0,-0.1 0.09,-0.19 0.2,-0.19 0.07,0 0.15,0.02 0.23,0.2 l 2.34,5.28 2.35,-5.28 c 0.09,-0.2 0.18,-0.2 0.23,-0.2 0.1,0 0.2,0.09 0.2,0.19 0,0.03 0,0.05 -0.06,0.16 z"
   inkscape:connector-curvature="0"
   style="fill:#000000;stroke-width:0" />
<path
   id="path4274"
   d="m 337.26,710.83 -0.01,0.02 0,0.03 0,0.02 0,0.02 0,0.03 0,0.02 0,0.02 -0.01,0.02 0,0.04 -0.01,0.04 -0.01,0.04 -0.01,0.03 -0.01,0.04 -0.01,0.03 -0.01,0.03 -0.02,0.02 -0.01,0.03 -0.02,0.02 -0.01,0.03 -0.02,0.02 -0.01,0.02 -0.02,0.01 -0.02,0.02 -0.02,0.02 -0.01,0.01 -0.02,0.01 -0.02,0.01 -0.02,0.01 -0.02,0.01 -0.02,0.01 -0.01,0 -0.02,0.01 -0.02,0 -0.02,0 -0.02,0 -0.01,0 c -0.25,0 -0.49,-0.25 -0.49,-0.47 0,-0.13 0.05,-0.19 0.16,-0.3 0.21,-0.2 0.34,-0.46 0.34,-0.82 0,-0.42 -0.61,-2.7 -1.78,-2.7 -0.51,0 -0.73,0.35 -0.73,0.87 0,0.56 0.26,1.28 0.57,2.11 0.07,0.17 0.12,0.31 0.12,0.5 0,0.45 -0.32,0.81 -0.81,0.81 -0.94,0 -1.32,-1.44 -1.32,-1.53 0,-0.1 0.1,-0.1 0.12,-0.1 0.1,0 0.11,0.02 0.16,0.18 0.29,1.01 0.72,1.23 1.01,1.23 0.07,0 0.24,0 0.24,-0.31 0,-0.25 -0.09,-0.52 -0.17,-0.7 -0.43,-1.15 -0.56,-1.61 -0.56,-2.04 0,-1.08 0.87,-1.23 1.33,-1.23 1.68,0 2.25,3.29 2.25,3.81 z"
   inkscape:connector-curvature="0"
   style="fill:#000000;stroke-width:0" />
<path
   id="path4276"
   d="m 347.28,709.39 0.02,0.01 0.02,0.01 0,0.01 0.01,0 0.01,0.01 0.01,0 0.01,0.01 0.01,0 0.01,0.01 0,0 0.01,0.01 0.01,0.01 0,0 0.01,0.01 0.01,0 0,0.01 0.01,0.01 0,0 0.01,0.01 0,0.01 0.01,0.01 0,0.01 0,0 0.01,0.01 0,0.01 0,0.01 0,0.01 0,0.01 0,0.01 0,0.01 c 0,0.12 -0.07,0.17 -0.18,0.22 l -5.53,2.6 c -0.13,0.07 -0.15,0.07 -0.18,0.07 -0.11,0 -0.2,-0.09 -0.2,-0.2 0,-0.09 0.05,-0.15 0.19,-0.22 l 5.24,-2.47 -5.24,-2.46 c -0.14,-0.07 -0.19,-0.13 -0.19,-0.22 0,-0.11 0.09,-0.2 0.2,-0.2 0.03,0 0.05,0 0.18,0.07 z"
   inkscape:connector-curvature="0"
   style="fill:#000000;stroke-width:0" />
<path
   id="path4278"
   d="m 355.64,710.31 0,0.15 0,0.15 0,0.15 -0.01,0.15 -0.01,0.14 -0.01,0.15 -0.01,0.15 -0.02,0.15 -0.03,0.14 -0.02,0.15 -0.04,0.14 -0.03,0.15 -0.05,0.14 -0.05,0.14 -0.05,0.14 -0.03,0.07 -0.03,0.07 c -0.46,0.95 -1.28,1.11 -1.7,1.11 -0.6,0 -1.32,-0.26 -1.73,-1.18 -0.32,-0.69 -0.37,-1.46 -0.37,-2.26 0,-0.75 0.04,-1.64 0.45,-2.4 0.43,-0.81 1.15,-1 1.64,-1 v 0.22 c -0.39,0 -0.97,0.24 -1.15,1.2 -0.11,0.6 -0.11,1.51 -0.11,2.1 0,0.64 0,1.29 0.08,1.83 0.19,1.19 0.93,1.27 1.18,1.27 0.33,0 0.99,-0.18 1.18,-1.16 0.1,-0.56 0.1,-1.31 0.1,-1.94 0,-0.75 0,-1.42 -0.11,-2.06 -0.15,-0.95 -0.72,-1.24 -1.17,-1.24 h 0 v -0.22 c 0.54,0 1.3,0.2 1.74,1.15 0.32,0.69 0.36,1.46 0.36,2.25 z"
   inkscape:connector-curvature="0"
   style="fill:#000000;stroke-width:0" />
</g>  <g
     id="g4624"
     transform="matrix(2,0,0,-2,-17.64377,1543.3767)"
     xml:space="preserve"
     stroke-miterlimit="10.433"
     font-style="normal"
     font-variant="normal"
     font-weight="normal"
     font-stretch="normal"
     font-size-adjust="none"
     letter-spacing="normal"
     word-spacing="normal"
     ns0:text="$ f(x) &gt; f(x^{G}) $"
     ns0:preamble=""
     style="font-style:normal;font-variant:normal;font-weight:normal;font-stretch:normal;letter-spacing:normal;word-spacing:normal;text-anchor:start;fill:none;stroke:#000000;stroke-linecap:butt;stroke-linejoin:miter;stroke-miterlimit:10.43299961;stroke-opacity:1;stroke-dasharray:none;stroke-dashoffset:0">
<path
   style="fill:#000000;stroke-width:0"
   inkscape:connector-curvature="0"
   d="m 227.09,711.11 h 0.86 c 0.2,0 0.3,0 0.3,0.19 0,0.11 -0.1,0.11 -0.27,0.11 h -0.83 l 0.21,1.14 c 0.04,0.21 0.18,0.92 0.24,1.03 0.09,0.19 0.26,0.34 0.47,0.34 0.04,0 0.3,0 0.49,-0.18 -0.44,-0.04 -0.54,-0.39 -0.54,-0.53 0,-0.23 0.18,-0.35 0.37,-0.35 0.26,0 0.54,0.22 0.54,0.6 0,0.45 -0.45,0.68 -0.86,0.68 -0.34,0 -0.97,-0.18 -1.27,-1.16 -0.06,-0.21 -0.09,-0.31 -0.33,-1.57 h -0.68 c -0.19,0 -0.3,0 -0.3,-0.19 0,-0.11 0.08,-0.11 0.27,-0.11 h 0.66 l -0.74,-3.94 c -0.19,-0.96 -0.35,-1.87 -0.87,-1.87 -0.04,0 -0.29,0 -0.48,0.18 0.46,0.03 0.55,0.39 0.55,0.54 0,0.23 -0.18,0.35 -0.37,0.35 -0.26,0 -0.55,-0.22 -0.55,-0.6 0,-0.45 0.44,-0.68 0.85,-0.68 0.55,0 0.95,0.58 1.12,0.96 0.32,0.63 0.55,1.83 0.56,1.9 z"
   id="path4626" />
<path
   style="fill:#000000;stroke-width:0"
   inkscape:connector-curvature="0"
   d="m 232.68,704.74 0,0 0,0.01 0,0 0,0 0,0.01 0,0 0,0 0,0.01 0,0 -0.01,0 0,0.01 0,0 -0.01,0.01 0,0 0,0.01 -0.01,0.01 0,0 -0.01,0.01 0,0 -0.01,0.01 0,0 0,0.01 -0.01,0 0,0 -0.01,0.01 0,0 0,0.01 -0.01,0 0,0.01 -0.01,0 0,0.01 -0.01,0.01 -0.01,0 0,0.01 -0.01,0 0,0.01 -0.01,0.01 -0.01,0.01 -0.01,0 0,0.01 -0.01,0.01 -0.01,0.01 c -1.24,1.25 -1.56,3.13 -1.56,4.65 0,1.73 0.38,3.47 1.6,4.71 0.13,0.12 0.13,0.14 0.13,0.17 0,0.07 -0.04,0.1 -0.1,0.1 -0.1,0 -0.99,-0.68 -1.58,-1.94 -0.51,-1.1 -0.63,-2.2 -0.63,-3.04 0,-0.77 0.11,-1.98 0.66,-3.1 0.6,-1.23 1.45,-1.87 1.55,-1.87 0.06,0 0.1,0.03 0.1,0.1 z"
   id="path4628" />
<path
   style="fill:#000000;stroke-width:0"
   inkscape:connector-curvature="0"
   d="m 236.59,710.13 0,0.03 0.01,0.03 0.01,0.03 0.01,0.04 0.01,0.03 0.01,0.05 0.01,0.04 0.02,0.04 0.01,0.05 0.02,0.05 0.02,0.05 0.02,0.05 0.02,0.05 0.03,0.05 0.02,0.05 0.03,0.04 0.03,0.05 0.03,0.05 0.03,0.05 0.04,0.04 0.04,0.04 0.04,0.04 0.04,0.04 0.04,0.04 0.05,0.03 0.05,0.03 0.02,0.01 0.03,0.01 0.02,0.02 0.03,0.01 0.03,0 0.03,0.01 0.03,0.01 0.03,0 0.03,0.01 0.03,0 0.03,0 0.03,0 c 0.05,0 0.29,0 0.5,-0.12 -0.28,-0.05 -0.48,-0.3 -0.48,-0.54 0,-0.16 0.11,-0.35 0.38,-0.35 0.22,0 0.54,0.18 0.54,0.58 0,0.52 -0.59,0.65 -0.93,0.65 -0.58,0 -0.93,-0.52 -1.04,-0.75 -0.25,0.65 -0.79,0.75 -1.08,0.75 -1.04,0 -1.61,-1.28 -1.61,-1.53 0,-0.1 0.1,-0.1 0.12,-0.1 0.08,0 0.11,0.02 0.13,0.11 0.34,1.06 1,1.3 1.34,1.3 0.19,0 0.54,-0.08 0.54,-0.66 0,-0.31 -0.17,-0.98 -0.54,-2.37 -0.16,-0.62 -0.51,-1.04 -0.95,-1.04 -0.06,0 -0.29,0 -0.5,0.13 0.25,0.05 0.47,0.26 0.47,0.54 0,0.27 -0.22,0.35 -0.37,0.35 -0.3,0 -0.55,-0.26 -0.55,-0.58 0,-0.45 0.5,-0.65 0.94,-0.65 0.66,0 1.02,0.69 1.05,0.75 0.12,-0.37 0.48,-0.75 1.07,-0.75 1.03,0 1.6,1.28 1.6,1.53 0,0.1 -0.09,0.1 -0.12,0.1 -0.09,0 -0.11,-0.04 -0.13,-0.11 -0.33,-1.07 -1.01,-1.31 -1.32,-1.31 -0.39,0 -0.55,0.32 -0.55,0.66 0,0.22 0.06,0.44 0.17,0.88 z"
   id="path4630" />
<path
   style="fill:#000000;stroke-width:0"
   inkscape:connector-curvature="0"
   d="m 241.83,709.61 0,0.08 0,0.07 0,0.08 0,0.08 -0.01,0.17 -0.01,0.18 -0.02,0.18 -0.02,0.19 -0.03,0.2 -0.03,0.19 -0.04,0.21 -0.05,0.21 -0.05,0.21 -0.06,0.21 -0.07,0.21 -0.08,0.21 -0.04,0.11 -0.05,0.11 -0.05,0.1 -0.05,0.11 c -0.6,1.22 -1.45,1.87 -1.55,1.87 -0.06,0 -0.1,-0.04 -0.1,-0.1 0,-0.03 0,-0.05 0.19,-0.23 0.97,-0.98 1.54,-2.57 1.54,-4.65 0,-1.7 -0.37,-3.45 -1.6,-4.7 -0.13,-0.12 -0.13,-0.14 -0.13,-0.17 0,-0.06 0.04,-0.1 0.1,-0.1 0.1,0 1,0.67 1.58,1.94 0.51,1.09 0.63,2.2 0.63,3.03 z"
   id="path4632" />
<path
   style="fill:#000000;stroke-width:0"
   inkscape:connector-curvature="0"
   d="m 252.32,709.39 0.02,0.01 0.02,0.01 0.01,0.01 0.01,0 0.01,0.01 0.01,0 0,0.01 0.01,0 0.01,0.01 0.01,0 0.01,0.01 0,0.01 0.01,0 0.01,0.01 0,0 0.01,0.01 0,0.01 0.01,0 0,0.01 0.01,0.01 0,0.01 0.01,0.01 0,0 0,0.01 0,0.01 0.01,0.01 0,0.01 0,0.01 0,0.01 0,0.01 c 0,0.12 -0.08,0.17 -0.19,0.22 l -5.52,2.6 c -0.13,0.07 -0.15,0.07 -0.18,0.07 -0.11,0 -0.2,-0.09 -0.2,-0.2 0,-0.09 0.05,-0.15 0.19,-0.22 l 5.23,-2.47 -5.23,-2.46 c -0.14,-0.07 -0.19,-0.13 -0.19,-0.22 0,-0.11 0.09,-0.2 0.2,-0.2 0.03,0 0.05,0 0.18,0.07 z"
   id="path4634" />
<path
   style="fill:#000000;stroke-width:0"
   inkscape:connector-curvature="0"
   d="m 259.77,711.11 h 0.86 c 0.2,0 0.29,0 0.29,0.19 0,0.11 -0.09,0.11 -0.26,0.11 h -0.83 l 0.21,1.14 c 0.04,0.21 0.18,0.92 0.24,1.03 0.09,0.19 0.26,0.34 0.47,0.34 0.04,0 0.3,0 0.48,-0.18 -0.43,-0.04 -0.53,-0.39 -0.53,-0.53 0,-0.23 0.18,-0.35 0.37,-0.35 0.25,0 0.54,0.22 0.54,0.6 0,0.45 -0.46,0.68 -0.86,0.68 -0.34,0 -0.97,-0.18 -1.27,-1.16 -0.06,-0.21 -0.09,-0.31 -0.33,-1.57 h -0.69 c -0.19,0 -0.3,0 -0.3,-0.19 0,-0.11 0.09,-0.11 0.28,-0.11 h 0.66 l -0.75,-3.94 c -0.18,-0.96 -0.35,-1.87 -0.86,-1.87 -0.04,0 -0.29,0 -0.48,0.18 0.46,0.03 0.55,0.39 0.55,0.54 0,0.23 -0.18,0.35 -0.37,0.35 -0.26,0 -0.55,-0.22 -0.55,-0.6 0,-0.45 0.44,-0.68 0.85,-0.68 0.54,0 0.94,0.58 1.12,0.96 0.32,0.63 0.55,1.83 0.56,1.9 z"
   id="path4636" />
<path
   style="fill:#000000;stroke-width:0"
   inkscape:connector-curvature="0"
   d="m 265.36,704.74 0,0 0,0.01 0,0 0,0 0,0.01 0,0 -0.01,0 0,0.01 0,0 0,0 0,0.01 -0.01,0 0,0.01 0,0 -0.01,0.01 0,0.01 -0.01,0 0,0.01 -0.01,0 0,0.01 0,0 -0.01,0.01 0,0 -0.01,0 0,0.01 0,0 -0.01,0.01 0,0 -0.01,0.01 0,0 -0.01,0.01 0,0.01 -0.01,0 -0.01,0.01 0,0 -0.01,0.01 -0.01,0.01 0,0.01 -0.01,0 -0.01,0.01 0,0.01 -0.01,0.01 c -1.25,1.25 -1.57,3.13 -1.57,4.65 0,1.73 0.38,3.47 1.61,4.71 0.13,0.12 0.13,0.14 0.13,0.17 0,0.07 -0.04,0.1 -0.1,0.1 -0.1,0 -1,-0.68 -1.59,-1.94 -0.51,-1.1 -0.62,-2.2 -0.62,-3.04 0,-0.77 0.1,-1.98 0.65,-3.1 0.6,-1.23 1.46,-1.87 1.56,-1.87 0.06,0 0.1,0.03 0.1,0.1 z"
   id="path4638" />
<path
   style="fill:#000000;stroke-width:0"
   inkscape:connector-curvature="0"
   d="m 269.26,710.13 0.01,0.03 0,0.03 0.01,0.03 0.01,0.04 0.01,0.03 0.01,0.05 0.02,0.04 0.01,0.04 0.02,0.05 0.02,0.05 0.01,0.05 0.03,0.05 0.02,0.05 0.02,0.05 0.03,0.05 0.03,0.04 0.02,0.05 0.04,0.05 0.03,0.05 0.03,0.04 0.04,0.04 0.04,0.04 0.04,0.04 0.05,0.04 0.04,0.03 0.05,0.03 0.03,0.01 0.02,0.01 0.03,0.02 0.03,0.01 0.03,0 0.02,0.01 0.03,0.01 0.03,0 0.03,0.01 0.03,0 0.04,0 0.03,0 c 0.05,0 0.29,0 0.5,-0.12 -0.28,-0.05 -0.48,-0.3 -0.48,-0.54 0,-0.16 0.11,-0.35 0.38,-0.35 0.22,0 0.53,0.18 0.53,0.58 0,0.52 -0.58,0.65 -0.92,0.65 -0.58,0 -0.93,-0.52 -1.05,-0.75 -0.25,0.65 -0.79,0.75 -1.07,0.75 -1.04,0 -1.61,-1.28 -1.61,-1.53 0,-0.1 0.1,-0.1 0.12,-0.1 0.08,0 0.11,0.02 0.13,0.11 0.34,1.06 1,1.3 1.33,1.3 0.19,0 0.54,-0.08 0.54,-0.66 0,-0.31 -0.17,-0.98 -0.54,-2.37 -0.15,-0.62 -0.5,-1.04 -0.94,-1.04 -0.06,0 -0.29,0 -0.5,0.13 0.25,0.05 0.47,0.26 0.47,0.54 0,0.27 -0.22,0.35 -0.37,0.35 -0.3,0 -0.55,-0.26 -0.55,-0.58 0,-0.45 0.5,-0.65 0.94,-0.65 0.66,0 1.01,0.69 1.04,0.75 0.12,-0.37 0.48,-0.75 1.08,-0.75 1.03,0 1.6,1.28 1.6,1.53 0,0.1 -0.09,0.1 -0.12,0.1 -0.09,0 -0.11,-0.04 -0.13,-0.11 -0.33,-1.07 -1.01,-1.31 -1.33,-1.31 -0.39,0 -0.55,0.32 -0.55,0.66 0,0.22 0.06,0.44 0.17,0.88 z"
   id="path4640" />
<path
   style="fill:#000000;stroke-width:0"
   inkscape:connector-curvature="0"
   d="m 277.5,715.54 0,0 0,0 0,0.01 0,0 0,0.01 -0.01,0 0,0 0,0.01 0,0 0,0 0,0.01 0,0 -0.01,0.01 0,0 0,0 0,0.01 0,0 -0.01,0 0,0.01 0,0 -0.01,0 0,0 -0.01,0.01 0,0 0,0 -0.01,0 0,0 -0.01,0.01 0,0 -0.01,0 0,0 0,0 0,0 -0.01,0 0,0 0,0 c -0.05,0 -0.07,-0.02 -0.13,-0.09 l -0.51,-0.53 c -0.06,0.08 -0.45,0.62 -1.31,0.62 -1.69,0 -3.35,-1.5 -3.35,-3.07 0,-1.08 0.82,-1.96 2.16,-1.96 0.62,0 1.26,0.16 1.62,0.55 0.07,-0.15 0.26,-0.4 0.35,-0.4 0.06,0 0.07,0.03 0.11,0.17 l 0.13,0.54 c 0.04,0.12 0.13,0.54 0.15,0.62 0.09,0.32 0.09,0.32 0.51,0.33 0.04,0 0.15,0 0.15,0.14 0,0.07 -0.05,0.11 -0.11,0.11 -0.23,0 -0.52,-0.03 -0.76,-0.03 -0.18,0 -0.41,0 -0.58,0.01 -0.17,0.01 -0.38,0.02 -0.55,0.02 -0.05,0 -0.15,0 -0.15,-0.15 0,-0.1 0.07,-0.1 0.25,-0.1 0.13,0 0.27,0 0.4,-0.01 0.22,-0.03 0.23,-0.05 0.23,-0.14 0,-0.03 0,-0.04 -0.05,-0.22 -0.05,-0.19 -0.12,-0.51 -0.15,-0.58 -0.2,-0.42 -0.85,-0.61 -1.39,-0.61 -0.7,0 -1.61,0.33 -1.61,1.51 0,0.74 0.35,1.68 0.86,2.2 0.72,0.71 1.46,0.82 1.85,0.82 0.81,0 1.28,-0.59 1.28,-1.36 0,-0.2 -0.02,-0.25 -0.02,-0.29 0,-0.09 0.09,-0.09 0.13,-0.09 0.11,0 0.11,0.02 0.15,0.15 z"
   id="path4642" />
<path
   style="fill:#000000;stroke-width:0"
   inkscape:connector-curvature="0"
   d="m 281.21,709.61 0,0.08 0,0.07 -0.01,0.08 0,0.08 -0.01,0.17 -0.01,0.18 -0.01,0.18 -0.03,0.19 -0.02,0.2 -0.04,0.19 -0.03,0.21 -0.05,0.21 -0.05,0.21 -0.07,0.21 -0.07,0.21 -0.07,0.21 -0.05,0.11 -0.04,0.11 -0.05,0.1 -0.05,0.11 c -0.6,1.22 -1.45,1.87 -1.56,1.87 -0.06,0 -0.1,-0.04 -0.1,-0.1 0,-0.03 0,-0.05 0.19,-0.23 0.98,-0.98 1.55,-2.57 1.55,-4.65 0,-1.7 -0.37,-3.45 -1.61,-4.7 -0.13,-0.12 -0.13,-0.14 -0.13,-0.17 0,-0.06 0.04,-0.1 0.1,-0.1 0.11,0 1,0.67 1.59,1.94 0.51,1.09 0.63,2.2 0.63,3.03 z"
   id="path4644" />
</g>  <path
     inkscape:connector-curvature="0"
     id="path3237"
     d="M 83.347611,150.39601 455.84659,167.07465"
     style="fill:none;stroke:#000000;stroke-width:0.98241639px;stroke-linecap:butt;stroke-linejoin:miter;stroke-opacity:1;marker-end:url(#TriangleOutL)" />
  <path
     inkscape:connector-curvature="0"
     id="path4637"
     d="m 150.62648,286.40735 307.59,-84.8188"
     style="fill:none;stroke:#000000;stroke-width:1px;stroke-linecap:butt;stroke-linejoin:miter;stroke-opacity:1;marker-end:url(#TriangleOutL)" />
  <g
     style="font-style:normal;font-variant:normal;font-weight:normal;font-stretch:normal;letter-spacing:normal;word-spacing:normal;text-anchor:start;fill:none;stroke:#000000;stroke-linecap:butt;stroke-linejoin:miter;stroke-miterlimit:10.43299961;stroke-opacity:1;stroke-dasharray:none;stroke-dashoffset:0"
     ns0:preamble=""
     ns0:text="$ f(x) = f(x^{P}) = f(x^{G}) \\land v = 0 $"
     text-anchor="start"
     word-spacing="normal"
     letter-spacing="normal"
     font-size-adjust="none"
     font-stretch="normal"
     font-weight="normal"
     font-variant="normal"
     font-style="normal"
     fill-opacity="1"
     fill-rule="evenodd"
     fill="none"
     stroke-opacity="1"
     stroke-dashoffset="0"
     stroke-dasharray="none"
     stroke-miterlimit="10.433"
     stroke-linejoin="miter"
     stroke-linecap="butt"
     stroke="black"
     xml:space="preserve"
     transform="matrix(2,0,0,-2,-190.20615,1431.26)"
     id="g3358">
<path
   id="path3360"
   fill="black"
   stroke-width="0"
   d="M227.09,711.11 H227.95 C228.15,711.11,228.25,711.11,228.25,711.3 C228.25,711.41,228.15,711.41,227.98,711.41 H227.15 L227.36,712.55 C227.4,712.76,227.54,713.47,227.6,713.58 C227.69,713.77,227.86,713.92,228.07,713.92 C228.11,713.92,228.37,713.92,228.56,713.74 C228.12,713.7,228.02,713.35,228.02,713.21 C228.02,712.98,228.2,712.86,228.39,712.86 C228.65,712.86,228.93,713.08,228.93,713.46 C228.93,713.91,228.48,714.14,228.07,714.14 C227.73,714.14,227.1,713.96,226.8,712.98 C226.74,712.77,226.71,712.67,226.47,711.41 H225.79 C225.6,711.41,225.49,711.41,225.49,711.22 C225.49,711.11,225.57,711.11,225.76,711.11 H226.42 L225.68,707.17 C225.49,706.21,225.33,705.3,224.81,705.3 C224.77,705.3,224.52,705.3,224.33,705.48 C224.79,705.51,224.88,705.87,224.88,706.02 C224.88,706.25,224.7,706.37,224.51,706.37 C224.25,706.37,223.96,706.15,223.96,705.77 C223.96,705.32,224.4,705.09,224.81,705.09 C225.36,705.09,225.76,705.67,225.93,706.05 C226.25,706.68,226.48,707.88,226.49,707.95 Z " />
<path
   id="path3362"
   fill="black"
   stroke-width="0"
   d="M232.68,704.74 L232.68,704.74 L232.68,704.75 L232.68,704.75 L232.68,704.75 L232.68,704.76 L232.68,704.76 L232.68,704.76 L232.68,704.77 L232.68,704.77 L232.67,704.77 L232.67,704.78 L232.67,704.78 L232.66,704.79 L232.66,704.79 L232.66,704.8 L232.65,704.81 L232.65,704.81 L232.64,704.82 L232.64,704.82 L232.63,704.83 L232.63,704.83 L232.63,704.84 L232.62,704.84 L232.62,704.84 L232.61,704.85 L232.61,704.85 L232.61,704.86 L232.6,704.86 L232.6,704.87 L232.59,704.87 L232.59,704.88 L232.58,704.89 L232.57,704.89 L232.57,704.9 L232.56,704.9 L232.56,704.91 L232.55,704.92 L232.54,704.93 L232.53,704.93 L232.53,704.94 L232.52,704.95 L232.51,704.96 C231.27,706.21,230.95,708.09,230.95,709.61 C230.95,711.34,231.33,713.08,232.55,714.32 C232.68,714.44,232.68,714.46,232.68,714.49 C232.68,714.56,232.64,714.59,232.58,714.59 C232.48,714.59,231.59,713.91,231,712.65 C230.49,711.55,230.37,710.45,230.37,709.61 C230.37,708.84,230.48,707.63,231.03,706.51 C231.63,705.28,232.48,704.64,232.58,704.64 C232.64,704.64,232.68,704.67,232.68,704.74 Z " />
<path
   id="path3364"
   fill="black"
   stroke-width="0"
   d="M236.59,710.13 L236.59,710.16 L236.6,710.19 L236.61,710.22 L236.62,710.26 L236.63,710.29 L236.64,710.34 L236.65,710.38 L236.67,710.42 L236.68,710.47 L236.7,710.52 L236.72,710.57 L236.74,710.62 L236.76,710.67 L236.79,710.72 L236.81,710.77 L236.84,710.81 L236.87,710.86 L236.9,710.91 L236.93,710.96 L236.97,711 L237.01,711.04 L237.05,711.08 L237.09,711.12 L237.13,711.16 L237.18,711.19 L237.23,711.22 L237.25,711.23 L237.28,711.24 L237.3,711.26 L237.33,711.27 L237.36,711.27 L237.39,711.28 L237.42,711.29 L237.45,711.29 L237.48,711.3 L237.51,711.3 L237.54,711.3 L237.57,711.3 C237.62,711.3,237.86,711.3,238.07,711.18 C237.79,711.13,237.59,710.88,237.59,710.64 C237.59,710.48,237.7,710.29,237.97,710.29 C238.19,710.29,238.51,710.47,238.51,710.87 C238.51,711.39,237.92,711.52,237.58,711.52 C237,711.52,236.65,711,236.54,710.77 C236.29,711.42,235.75,711.52,235.46,711.52 C234.42,711.52,233.85,710.24,233.85,709.99 C233.85,709.89,233.95,709.89,233.97,709.89 C234.05,709.89,234.08,709.91,234.1,710 C234.44,711.06,235.1,711.3,235.44,711.3 C235.63,711.3,235.98,711.22,235.98,710.64 C235.98,710.33,235.81,709.66,235.44,708.27 C235.28,707.65,234.93,707.23,234.49,707.23 C234.43,707.23,234.2,707.23,233.99,707.36 C234.24,707.41,234.46,707.62,234.46,707.9 C234.46,708.17,234.24,708.25,234.09,708.25 C233.79,708.25,233.54,707.99,233.54,707.67 C233.54,707.22,234.04,707.02,234.48,707.02 C235.14,707.02,235.5,707.71,235.53,707.77 C235.65,707.4,236.01,707.02,236.6,707.02 C237.63,707.02,238.2,708.3,238.2,708.55 C238.2,708.65,238.11,708.65,238.08,708.65 C237.99,708.65,237.97,708.61,237.95,708.54 C237.62,707.47,236.94,707.23,236.63,707.23 C236.24,707.23,236.08,707.55,236.08,707.89 C236.08,708.11,236.14,708.33,236.25,708.77 Z " />
<path
   id="path3366"
   fill="black"
   stroke-width="0"
   d="M241.83,709.61 L241.83,709.69 L241.83,709.76 L241.83,709.84 L241.83,709.92 L241.82,710.09 L241.81,710.27 L241.79,710.45 L241.77,710.64 L241.74,710.84 L241.71,711.03 L241.67,711.24 L241.62,711.45 L241.57,711.66 L241.51,711.87 L241.44,712.08 L241.36,712.29 L241.32,712.4 L241.27,712.51 L241.22,712.61 L241.17,712.72 C240.57,713.94,239.72,714.59,239.62,714.59 C239.56,714.59,239.52,714.55,239.52,714.49 C239.52,714.46,239.52,714.44,239.71,714.26 C240.68,713.28,241.25,711.69,241.25,709.61 C241.25,707.91,240.88,706.16,239.65,704.91 C239.52,704.79,239.52,704.77,239.52,704.74 C239.52,704.68,239.56,704.64,239.62,704.64 C239.72,704.64,240.62,705.31,241.2,706.58 C241.71,707.67,241.83,708.78,241.83,709.61 Z " />
<path
   id="path3368"
   fill="black"
   stroke-width="0"
   d="M252.44,710.38 L252.47,710.38 L252.5,710.38 L252.53,710.38 L252.54,710.38 L252.56,710.38 L252.57,710.38 L252.59,710.39 L252.6,710.39 L252.62,710.39 L252.63,710.39 L252.64,710.4 L252.66,710.4 L252.67,710.4 L252.68,710.41 L252.69,710.41 L252.7,710.42 L252.71,710.43 L252.72,710.44 L252.73,710.44 L252.74,710.45 L252.75,710.46 L252.75,710.47 L252.76,710.47 L252.76,710.48 L252.76,710.49 L252.77,710.49 L252.77,710.5 L252.77,710.51 L252.77,710.51 L252.77,710.52 L252.78,710.53 L252.78,710.53 L252.78,710.54 L252.78,710.55 L252.78,710.56 L252.78,710.57 L252.78,710.58 C252.78,710.78,252.59,710.78,252.45,710.78 H246.48 C246.34,710.78,246.15,710.78,246.15,710.58 C246.15,710.38,246.34,710.38,246.49,710.38 Z " />
<path
   id="path3370"
   fill="black"
   stroke-width="0"
   d="M252.45,708.45 L252.48,708.45 L252.51,708.45 L252.53,708.45 L252.55,708.45 L252.56,708.45 L252.58,708.45 L252.59,708.46 L252.6,708.46 L252.62,708.46 L252.63,708.46 L252.64,708.47 L252.66,708.47 L252.67,708.47 L252.68,708.48 L252.69,708.48 L252.7,708.49 L252.71,708.5 L252.72,708.51 L252.73,708.51 L252.74,708.52 L252.75,708.53 L252.75,708.53 L252.75,708.54 L252.76,708.54 L252.76,708.55 L252.76,708.56 L252.77,708.56 L252.77,708.57 L252.77,708.58 L252.77,708.58 L252.77,708.59 L252.78,708.6 L252.78,708.6 L252.78,708.61 L252.78,708.62 L252.78,708.63 L252.78,708.64 L252.78,708.65 C252.78,708.85,252.59,708.85,252.44,708.85 H246.49 C246.34,708.85,246.15,708.85,246.15,708.65 C246.15,708.45,246.34,708.45,246.48,708.45 Z " />
<path
   id="path3372"
   fill="black"
   stroke-width="0"
   d="M259.77,711.11 H260.62 C260.82,711.11,260.92,711.11,260.92,711.3 C260.92,711.41,260.82,711.41,260.65,711.41 H259.83 L260.04,712.55 C260.08,712.76,260.21,713.47,260.27,713.58 C260.36,713.77,260.53,713.92,260.74,713.92 C260.78,713.92,261.04,713.92,261.23,713.74 C260.79,713.7,260.69,713.35,260.69,713.21 C260.69,712.98,260.87,712.86,261.06,712.86 C261.32,712.86,261.61,713.08,261.61,713.46 C261.61,713.91,261.15,714.14,260.74,714.14 C260.4,714.14,259.78,713.96,259.48,712.98 C259.42,712.77,259.39,712.67,259.15,711.41 H258.46 C258.27,711.41,258.16,711.41,258.16,711.22 C258.16,711.11,258.25,711.11,258.44,711.11 H259.1 L258.35,707.17 C258.17,706.21,258,705.3,257.48,705.3 C257.44,705.3,257.2,705.3,257.01,705.48 C257.46,705.51,257.55,705.87,257.55,706.02 C257.55,706.25,257.37,706.37,257.18,706.37 C256.92,706.37,256.64,706.15,256.64,705.77 C256.64,705.32,257.08,705.09,257.48,705.09 C258.03,705.09,258.43,705.67,258.61,706.05 C258.93,706.68,259.16,707.88,259.17,707.95 Z " />
<path
   id="path3374"
   fill="black"
   stroke-width="0"
   d="M265.36,704.74 L265.36,704.74 L265.36,704.75 L265.36,704.75 L265.36,704.75 L265.36,704.76 L265.36,704.76 L265.35,704.76 L265.35,704.77 L265.35,704.77 L265.35,704.77 L265.35,704.78 L265.34,704.78 L265.34,704.79 L265.34,704.79 L265.33,704.8 L265.33,704.81 L265.32,704.81 L265.32,704.82 L265.31,704.82 L265.31,704.83 L265.31,704.83 L265.3,704.84 L265.3,704.84 L265.29,704.84 L265.29,704.85 L265.29,704.85 L265.28,704.86 L265.28,704.86 L265.27,704.87 L265.27,704.87 L265.26,704.88 L265.26,704.89 L265.25,704.89 L265.24,704.9 L265.24,704.9 L265.23,704.91 L265.22,704.92 L265.22,704.93 L265.21,704.93 L265.2,704.94 L265.2,704.95 L265.19,704.96 C263.94,706.21,263.62,708.09,263.62,709.61 C263.62,711.34,264,713.08,265.23,714.32 C265.36,714.44,265.36,714.46,265.36,714.49 C265.36,714.56,265.32,714.59,265.26,714.59 C265.16,714.59,264.26,713.91,263.67,712.65 C263.16,711.55,263.05,710.45,263.05,709.61 C263.05,708.84,263.15,707.63,263.7,706.51 C264.3,705.28,265.16,704.64,265.26,704.64 C265.32,704.64,265.36,704.67,265.36,704.74 Z " />
<path
   id="path3376"
   fill="black"
   stroke-width="0"
   d="M269.26,710.13 L269.27,710.16 L269.27,710.19 L269.28,710.22 L269.29,710.26 L269.3,710.29 L269.31,710.34 L269.33,710.38 L269.34,710.42 L269.36,710.47 L269.38,710.52 L269.4,710.57 L269.42,710.62 L269.44,710.67 L269.46,710.72 L269.49,710.77 L269.52,710.81 L269.55,710.86 L269.58,710.91 L269.61,710.96 L269.65,711 L269.68,711.04 L269.72,711.08 L269.76,711.12 L269.81,711.16 L269.85,711.19 L269.9,711.22 L269.93,711.23 L269.95,711.24 L269.98,711.26 L270.01,711.27 L270.04,711.27 L270.06,711.28 L270.09,711.29 L270.12,711.29 L270.15,711.3 L270.18,711.3 L270.22,711.3 L270.25,711.3 C270.3,711.3,270.54,711.3,270.75,711.18 C270.47,711.13,270.27,710.88,270.27,710.64 C270.27,710.48,270.38,710.29,270.65,710.29 C270.87,710.29,271.18,710.47,271.18,710.87 C271.18,711.39,270.6,711.52,270.26,711.52 C269.68,711.52,269.33,711,269.21,710.77 C268.96,711.42,268.42,711.52,268.14,711.52 C267.1,711.52,266.53,710.24,266.53,709.99 C266.53,709.89,266.63,709.89,266.65,709.89 C266.73,709.89,266.76,709.91,266.78,710 C267.12,711.06,267.78,711.3,268.11,711.3 C268.3,711.3,268.65,711.22,268.65,710.64 C268.65,710.33,268.48,709.66,268.11,708.27 C267.96,707.65,267.61,707.23,267.17,707.23 C267.11,707.23,266.88,707.23,266.67,707.36 C266.92,707.41,267.14,707.62,267.14,707.9 C267.14,708.17,266.92,708.25,266.77,708.25 C266.47,708.25,266.22,707.99,266.22,707.67 C266.22,707.22,266.72,707.02,267.16,707.02 C267.82,707.02,268.17,707.71,268.2,707.77 C268.32,707.4,268.68,707.02,269.28,707.02 C270.31,707.02,270.88,708.3,270.88,708.55 C270.88,708.65,270.79,708.65,270.76,708.65 C270.67,708.65,270.65,708.61,270.63,708.54 C270.3,707.47,269.62,707.23,269.3,707.23 C268.91,707.23,268.75,707.55,268.75,707.89 C268.75,708.11,268.81,708.33,268.92,708.77 Z " />
<path
   id="path3378"
   fill="black"
   stroke-width="0"
   d="M274,712.9 L274.03,713.12 L274.5,715 C274.56,715.22,274.57,715.24,274.86,715.24 H275.67 C276.32,715.24,276.72,715.04,276.72,714.55 C276.72,714.34,276.64,713.79,276.29,713.47 C276.04,713.25,275.64,713.12,275.14,713.12 H274.03 L274,712.9 H275.26 C276.44,712.9,277.43,713.65,277.43,714.4 C277.43,714.99,276.86,715.49,275.91,715.49 H273.47 C273.33,715.49,273.25,715.49,273.25,715.34 C273.25,715.24,273.33,715.24,273.48,715.24 C273.59,715.24,273.62,715.24,273.74,715.22 C273.88,715.21,273.9,715.2,273.9,715.13 C273.9,715.11,273.9,715.08,273.87,714.97 L272.95,711.31 C272.88,711.04,272.87,710.99,272.33,710.99 C272.2,710.99,272.12,710.99,272.12,710.84 C272.12,710.83,272.12,710.74,272.23,710.74 C272.43,710.74,272.93,710.77,273.14,710.77 C273.26,710.77,273.5,710.77,273.62,710.76 C273.76,710.75,273.93,710.74,274.06,710.74 C274.11,710.74,274.21,710.74,274.21,710.89 C274.21,710.99,274.13,710.99,273.99,710.99 C273.98,710.99,273.85,710.99,273.72,711 C273.56,711.02,273.56,711.04,273.56,711.11 C273.56,711.11,273.56,711.16,273.59,711.26 Z " />
<path
   id="path3380"
   fill="black"
   stroke-width="0"
   d="M281.15,709.61 L281.15,709.69 L281.15,709.76 L281.15,709.84 L281.14,709.92 L281.14,710.09 L281.12,710.27 L281.11,710.45 L281.09,710.64 L281.06,710.84 L281.03,711.03 L280.99,711.24 L280.94,711.45 L280.89,711.66 L280.83,711.87 L280.76,712.08 L280.68,712.29 L280.63,712.4 L280.59,712.51 L280.54,712.61 L280.49,712.72 C279.89,713.94,279.04,714.59,278.94,714.59 C278.88,714.59,278.84,714.55,278.84,714.49 C278.84,714.46,278.84,714.44,279.03,714.26 C280,713.28,280.57,711.69,280.57,709.61 C280.57,707.91,280.2,706.16,278.97,704.91 C278.84,704.79,278.84,704.77,278.84,704.74 C278.84,704.68,278.88,704.64,278.94,704.64 C279.04,704.64,279.93,705.31,280.52,706.58 C281.03,707.67,281.15,708.78,281.15,709.61 Z " />
<path
   id="path3382"
   fill="black"
   stroke-width="0"
   d="M291.76,710.38 L291.79,710.38 L291.82,710.38 L291.85,710.38 L291.86,710.38 L291.88,710.38 L291.89,710.38 L291.91,710.39 L291.92,710.39 L291.93,710.39 L291.95,710.39 L291.96,710.4 L291.97,710.4 L291.99,710.4 L292,710.41 L292.01,710.41 L292.02,710.42 L292.03,710.43 L292.04,710.44 L292.05,710.44 L292.06,710.45 L292.07,710.46 L292.07,710.47 L292.08,710.47 L292.08,710.48 L292.08,710.49 L292.08,710.49 L292.09,710.5 L292.09,710.51 L292.09,710.51 L292.09,710.52 L292.1,710.53 L292.1,710.53 L292.1,710.54 L292.1,710.55 L292.1,710.56 L292.1,710.57 L292.1,710.58 C292.1,710.78,291.91,710.78,291.77,710.78 H285.8 C285.66,710.78,285.47,710.78,285.47,710.58 C285.47,710.38,285.66,710.38,285.81,710.38 Z " />
<path
   id="path3384"
   fill="black"
   stroke-width="0"
   d="M291.77,708.45 L291.8,708.45 L291.83,708.45 L291.85,708.45 L291.87,708.45 L291.88,708.45 L291.9,708.45 L291.91,708.46 L291.92,708.46 L291.94,708.46 L291.95,708.46 L291.96,708.47 L291.98,708.47 L291.99,708.47 L292,708.48 L292.01,708.48 L292.02,708.49 L292.03,708.5 L292.04,708.51 L292.05,708.51 L292.06,708.52 L292.06,708.53 L292.07,708.53 L292.07,708.54 L292.08,708.54 L292.08,708.55 L292.08,708.56 L292.08,708.56 L292.09,708.57 L292.09,708.58 L292.09,708.58 L292.09,708.59 L292.1,708.6 L292.1,708.6 L292.1,708.61 L292.1,708.62 L292.1,708.63 L292.1,708.64 L292.1,708.65 C292.1,708.85,291.91,708.85,291.76,708.85 H285.81 C285.66,708.85,285.47,708.85,285.47,708.65 C285.47,708.45,285.66,708.45,285.8,708.45 Z " />
<path
   id="path3386"
   fill="black"
   stroke-width="0"
   d="M299.08,711.11 H299.94 C300.14,711.11,300.24,711.11,300.24,711.3 C300.24,711.41,300.14,711.41,299.97,711.41 H299.14 L299.36,712.55 C299.39,712.76,299.53,713.47,299.59,713.58 C299.68,713.77,299.85,713.92,300.06,713.92 C300.1,713.92,300.36,713.92,300.55,713.74 C300.11,713.7,300.01,713.35,300.01,713.21 C300.01,712.98,300.19,712.86,300.38,712.86 C300.64,712.86,300.93,713.08,300.93,713.46 C300.93,713.91,300.47,714.14,300.06,714.14 C299.72,714.14,299.1,713.96,298.8,712.98 C298.74,712.77,298.71,712.67,298.47,711.41 H297.78 C297.59,711.41,297.48,711.41,297.48,711.22 C297.48,711.11,297.57,711.11,297.76,711.11 H298.42 L297.67,707.17 C297.49,706.21,297.32,705.3,296.8,705.3 C296.76,705.3,296.51,705.3,296.32,705.48 C296.78,705.51,296.87,705.87,296.87,706.02 C296.87,706.25,296.69,706.37,296.5,706.37 C296.24,706.37,295.95,706.15,295.95,705.77 C295.95,705.32,296.39,705.09,296.8,705.09 C297.35,705.09,297.75,705.67,297.93,706.05 C298.25,706.68,298.48,707.88,298.49,707.95 Z " />
<path
   id="path3388"
   fill="black"
   stroke-width="0"
   d="M304.68,704.74 L304.68,704.74 L304.68,704.75 L304.68,704.75 L304.68,704.75 L304.68,704.76 L304.67,704.76 L304.67,704.76 L304.67,704.77 L304.67,704.77 L304.67,704.77 L304.67,704.78 L304.66,704.78 L304.66,704.79 L304.66,704.79 L304.65,704.8 L304.65,704.81 L304.64,704.81 L304.64,704.82 L304.63,704.82 L304.63,704.83 L304.63,704.83 L304.62,704.84 L304.62,704.84 L304.61,704.84 L304.61,704.85 L304.61,704.85 L304.6,704.86 L304.6,704.86 L304.59,704.87 L304.59,704.87 L304.58,704.88 L304.57,704.89 L304.57,704.89 L304.56,704.9 L304.56,704.9 L304.55,704.91 L304.54,704.92 L304.54,704.93 L304.53,704.93 L304.52,704.94 L304.51,704.95 L304.51,704.96 C303.26,706.21,302.94,708.09,302.94,709.61 C302.94,711.34,303.32,713.08,304.55,714.32 C304.68,714.44,304.68,714.46,304.68,714.49 C304.68,714.56,304.64,714.59,304.58,714.59 C304.48,714.59,303.58,713.91,302.99,712.65 C302.48,711.55,302.36,710.45,302.36,709.61 C302.36,708.84,302.47,707.63,303.02,706.51 C303.62,705.28,304.48,704.64,304.58,704.64 C304.64,704.64,304.68,704.67,304.68,704.74 Z " />
<path
   id="path3390"
   fill="black"
   stroke-width="0"
   d="M308.58,710.13 L308.59,710.16 L308.59,710.19 L308.6,710.22 L308.61,710.26 L308.62,710.29 L308.63,710.34 L308.65,710.38 L308.66,710.42 L308.68,710.47 L308.7,710.52 L308.71,710.57 L308.73,710.62 L308.76,710.67 L308.78,710.72 L308.81,710.77 L308.83,710.81 L308.86,710.86 L308.9,710.91 L308.93,710.96 L308.96,711 L309,711.04 L309.04,711.08 L309.08,711.12 L309.13,711.16 L309.17,711.19 L309.22,711.22 L309.25,711.23 L309.27,711.24 L309.3,711.26 L309.33,711.27 L309.35,711.27 L309.38,711.28 L309.41,711.29 L309.44,711.29 L309.47,711.3 L309.5,711.3 L309.53,711.3 L309.57,711.3 C309.62,711.3,309.86,711.3,310.07,711.18 C309.79,711.13,309.59,710.88,309.59,710.64 C309.59,710.48,309.7,710.29,309.97,710.29 C310.18,710.29,310.5,710.47,310.5,710.87 C310.5,711.39,309.92,711.52,309.58,711.52 C309,711.52,308.65,711,308.53,710.77 C308.28,711.42,307.74,711.52,307.45,711.52 C306.42,711.52,305.85,710.24,305.85,709.99 C305.85,709.89,305.95,709.89,305.97,709.89 C306.05,709.89,306.08,709.91,306.1,710 C306.44,711.06,307.1,711.3,307.43,711.3 C307.62,711.3,307.97,711.22,307.97,710.64 C307.97,710.33,307.8,709.66,307.43,708.27 C307.27,707.65,306.93,707.23,306.49,707.23 C306.43,707.23,306.2,707.23,305.99,707.36 C306.24,707.41,306.46,707.62,306.46,707.9 C306.46,708.17,306.24,708.25,306.09,708.25 C305.79,708.25,305.54,707.99,305.54,707.67 C305.54,707.22,306.04,707.02,306.48,707.02 C307.14,707.02,307.49,707.71,307.52,707.77 C307.64,707.4,308,707.02,308.6,707.02 C309.63,707.02,310.2,708.3,310.2,708.55 C310.2,708.65,310.11,708.65,310.08,708.65 C309.99,708.65,309.97,708.61,309.95,708.54 C309.62,707.47,308.94,707.23,308.62,707.23 C308.23,707.23,308.07,707.55,308.07,707.89 C308.07,708.11,308.13,708.33,308.24,708.77 Z " />
<path
   id="path3392"
   fill="black"
   stroke-width="0"
   d="M316.82,715.54 L316.82,715.54 L316.82,715.54 L316.82,715.55 L316.81,715.55 L316.81,715.56 L316.81,715.56 L316.81,715.56 L316.81,715.57 L316.81,715.57 L316.81,715.57 L316.81,715.58 L316.81,715.58 L316.8,715.59 L316.8,715.59 L316.8,715.59 L316.8,715.6 L316.79,715.6 L316.79,715.6 L316.79,715.61 L316.78,715.61 L316.78,715.61 L316.78,715.61 L316.77,715.62 L316.77,715.62 L316.76,715.62 L316.76,715.62 L316.75,715.62 L316.75,715.63 L316.75,715.63 L316.74,715.63 L316.74,715.63 L316.74,715.63 L316.74,715.63 L316.73,715.63 L316.73,715.63 L316.73,715.63 C316.68,715.63,316.66,715.61,316.6,715.54 L316.09,715.01 C316.03,715.09,315.64,715.63,314.78,715.63 C313.09,715.63,311.43,714.13,311.43,712.56 C311.43,711.48,312.25,710.6,313.59,710.6 C314.2,710.6,314.85,710.76,315.21,711.15 C315.28,711,315.47,710.75,315.56,710.75 C315.62,710.75,315.63,710.78,315.67,710.92 L315.8,711.46 C315.83,711.58,315.93,712,315.95,712.08 C316.04,712.4,316.04,712.4,316.45,712.41 C316.5,712.41,316.61,712.41,316.61,712.55 C316.61,712.62,316.56,712.66,316.5,712.66 C316.27,712.66,315.98,712.63,315.74,712.63 C315.56,712.63,315.33,712.63,315.16,712.64 C314.98,712.65,314.78,712.66,314.61,712.66 C314.56,712.66,314.45,712.66,314.45,712.51 C314.45,712.41,314.53,712.41,314.71,712.41 C314.84,712.41,314.98,712.41,315.11,712.4 C315.33,712.37,315.34,712.35,315.34,712.26 C315.34,712.23,315.34,712.22,315.29,712.04 C315.24,711.85,315.17,711.53,315.14,711.46 C314.94,711.04,314.29,710.85,313.74,710.85 C313.05,710.85,312.14,711.18,312.14,712.36 C312.14,713.1,312.48,714.04,313,714.56 C313.72,715.27,314.46,715.38,314.85,715.38 C315.66,715.38,316.13,714.79,316.13,714.02 C316.13,713.82,316.11,713.77,316.11,713.73 C316.11,713.64,316.2,713.64,316.24,713.64 C316.35,713.64,316.35,713.66,316.38,713.79 Z " />
<path
   id="path3394"
   fill="black"
   stroke-width="0"
   d="M320.53,709.61 L320.53,709.69 L320.53,709.76 L320.52,709.84 L320.52,709.92 L320.51,710.09 L320.5,710.27 L320.48,710.45 L320.46,710.64 L320.44,710.84 L320.4,711.03 L320.36,711.24 L320.32,711.45 L320.26,711.66 L320.2,711.87 L320.13,712.08 L320.05,712.29 L320.01,712.4 L319.97,712.51 L319.92,712.61 L319.87,712.72 C319.27,713.94,318.41,714.59,318.31,714.59 C318.25,714.59,318.21,714.55,318.21,714.49 C318.21,714.46,318.21,714.44,318.4,714.26 C319.38,713.28,319.95,711.69,319.95,709.61 C319.95,707.91,319.58,706.16,318.34,704.91 C318.21,704.79,318.21,704.77,318.21,704.74 C318.21,704.68,318.25,704.64,318.31,704.64 C318.41,704.64,319.31,705.31,319.9,706.58 C320.41,707.67,320.53,708.78,320.53,709.61 Z " />
<path
   id="path3396"
   fill="black"
   stroke-width="0"
   d="M327.28,712.87 L327.28,712.88 L327.27,712.9 L327.26,712.91 L327.25,712.93 L327.25,712.94 L327.24,712.95 L327.23,712.96 L327.23,712.97 L327.22,712.98 L327.21,712.99 L327.21,713 L327.2,713.01 L327.19,713.02 L327.19,713.02 L327.18,713.03 L327.17,713.04 L327.16,713.04 L327.16,713.05 L327.15,713.05 L327.14,713.06 L327.14,713.06 L327.13,713.06 L327.12,713.07 L327.12,713.07 L327.11,713.07 L327.1,713.07 L327.09,713.07 L327.09,713.07 L327.08,713.08 L327.07,713.08 L327.06,713.08 L327.05,713.08 C326.92,713.08,326.89,713.01,326.83,712.87 L324.35,707.3 C324.29,707.17,324.28,707.16,324.28,707.1 C324.28,707,324.37,706.91,324.48,706.91 C324.55,706.91,324.63,706.93,324.71,707.11 L327.05,712.39 L329.4,707.11 C329.49,706.91,329.58,706.91,329.63,706.91 C329.73,706.91,329.83,707,329.83,707.1 C329.83,707.13,329.83,707.15,329.77,707.26 Z " />
<path
   id="path3398"
   fill="black"
   stroke-width="0"
   d="M337.26,710.83 L337.25,710.85 L337.25,710.88 L337.25,710.9 L337.25,710.92 L337.25,710.95 L337.25,710.97 L337.25,710.99 L337.24,711.01 L337.24,711.05 L337.23,711.09 L337.22,711.13 L337.21,711.16 L337.2,711.2 L337.19,711.23 L337.18,711.26 L337.16,711.28 L337.15,711.31 L337.13,711.33 L337.12,711.36 L337.1,711.38 L337.09,711.4 L337.07,711.41 L337.05,711.43 L337.03,711.45 L337.02,711.46 L337,711.47 L336.98,711.48 L336.96,711.49 L336.94,711.5 L336.92,711.51 L336.91,711.51 L336.89,711.52 L336.87,711.52 L336.85,711.52 L336.83,711.52 L336.82,711.52 C336.57,711.52,336.33,711.27,336.33,711.05 C336.33,710.92,336.38,710.86,336.49,710.75 C336.7,710.55,336.83,710.29,336.83,709.93 C336.83,709.51,336.22,707.23,335.05,707.23 C334.54,707.23,334.32,707.58,334.32,708.1 C334.32,708.66,334.58,709.38,334.89,710.21 C334.96,710.38,335.01,710.52,335.01,710.71 C335.01,711.16,334.69,711.52,334.2,711.52 C333.26,711.52,332.88,710.08,332.88,709.99 C332.88,709.89,332.98,709.89,333,709.89 C333.1,709.89,333.11,709.91,333.16,710.07 C333.45,711.08,333.88,711.3,334.17,711.3 C334.24,711.3,334.41,711.3,334.41,710.99 C334.41,710.74,334.32,710.47,334.24,710.29 C333.81,709.14,333.68,708.68,333.68,708.25 C333.68,707.17,334.55,707.02,335.01,707.02 C336.69,707.02,337.26,710.31,337.26,710.83 Z " />
<path
   id="path3400"
   fill="black"
   stroke-width="0"
   d="M347.39,710.38 L347.42,710.38 L347.45,710.38 L347.48,710.38 L347.49,710.38 L347.51,710.38 L347.52,710.38 L347.54,710.39 L347.55,710.39 L347.57,710.39 L347.58,710.39 L347.59,710.4 L347.61,710.4 L347.62,710.4 L347.63,710.41 L347.64,710.41 L347.65,710.42 L347.66,710.43 L347.67,710.44 L347.68,710.44 L347.69,710.45 L347.7,710.46 L347.7,710.47 L347.71,710.47 L347.71,710.48 L347.71,710.49 L347.72,710.49 L347.72,710.5 L347.72,710.51 L347.72,710.51 L347.72,710.52 L347.73,710.53 L347.73,710.53 L347.73,710.54 L347.73,710.55 L347.73,710.56 L347.73,710.57 L347.73,710.58 C347.73,710.78,347.54,710.78,347.4,710.78 H341.43 C341.29,710.78,341.1,710.78,341.1,710.58 C341.1,710.38,341.29,710.38,341.44,710.38 Z " />
<path
   id="path3402"
   fill="black"
   stroke-width="0"
   d="M347.4,708.45 L347.43,708.45 L347.46,708.45 L347.48,708.45 L347.5,708.45 L347.51,708.45 L347.53,708.45 L347.54,708.46 L347.55,708.46 L347.57,708.46 L347.58,708.46 L347.59,708.47 L347.61,708.47 L347.62,708.47 L347.63,708.48 L347.64,708.48 L347.65,708.49 L347.66,708.5 L347.67,708.51 L347.68,708.51 L347.69,708.52 L347.7,708.53 L347.7,708.53 L347.7,708.54 L347.71,708.54 L347.71,708.55 L347.71,708.56 L347.72,708.56 L347.72,708.57 L347.72,708.58 L347.72,708.58 L347.72,708.59 L347.73,708.6 L347.73,708.6 L347.73,708.61 L347.73,708.62 L347.73,708.63 L347.73,708.64 L347.73,708.65 C347.73,708.85,347.54,708.85,347.39,708.85 H341.44 C341.29,708.85,341.1,708.85,341.1,708.65 C341.1,708.45,341.29,708.45,341.43,708.45 Z " />
<path
   id="path3404"
   fill="black"
   stroke-width="0"
   d="M355.65,710.31 L355.65,710.46 L355.65,710.61 L355.64,710.76 L355.63,710.91 L355.63,711.05 L355.61,711.2 L355.6,711.35 L355.58,711.5 L355.56,711.64 L355.53,711.79 L355.5,711.93 L355.46,712.08 L355.42,712.22 L355.37,712.36 L355.31,712.5 L355.28,712.57 L355.25,712.64 C354.79,713.59,353.97,713.75,353.55,713.75 C352.96,713.75,352.23,713.49,351.82,712.57 C351.5,711.88,351.45,711.11,351.45,710.31 C351.45,709.56,351.49,708.67,351.9,707.91 C352.33,707.1,353.06,706.91,353.55,706.91 V707.13 C353.16,707.13,352.57,707.37,352.39,708.33 C352.28,708.93,352.28,709.84,352.28,710.43 C352.28,711.07,352.28,711.72,352.36,712.26 C352.55,713.45,353.3,713.53,353.55,713.53 C353.87,713.53,354.53,713.35,354.72,712.37 C354.82,711.81,354.82,711.06,354.82,710.43 C354.82,709.68,354.82,709.01,354.71,708.37 C354.56,707.42,353.99,707.13,353.55,707.13 H353.55 V706.91 C354.08,706.91,354.84,707.11,355.28,708.06 C355.6,708.75,355.65,709.52,355.65,710.31 Z " />
</g></svg>
