<?xml version="1.0" encoding="UTF-8" standalone="no"?>
<!-- Created with Inkscape (http://www.inkscape.org/) -->

<svg
   xmlns:ns0="http://www.iki.fi/pav/software/textext/"
   xmlns:dc="http://purl.org/dc/elements/1.1/"
   xmlns:cc="http://creativecommons.org/ns#"
   xmlns:rdf="http://www.w3.org/1999/02/22-rdf-syntax-ns#"
   xmlns:svg="http://www.w3.org/2000/svg"
   xmlns="http://www.w3.org/2000/svg"
   xmlns:sodipodi="http://sodipodi.sourceforge.net/DTD/sodipodi-0.dtd"
   xmlns:inkscape="http://www.inkscape.org/namespaces/inkscape"
   width="720"
   height="407.92001"
   id="svg3112"
   version="1.1"
   inkscape:version="0.48.1 "
   sodipodi:docname="New document 3">
  <sodipodi:namedview
     id="base"
     pagecolor="#ffffff"
     bordercolor="#666666"
     borderopacity="1.0"
     inkscape:pageopacity="0.0"
     inkscape:pageshadow="2"
     inkscape:zoom="0.35"
     inkscape:cx="-140.71429"
     inkscape:cy="3.9600174"
     inkscape:document-units="px"
     inkscape:current-layer="layer1"
     showgrid="true"
     inkscape:window-width="1366"
     inkscape:window-height="706"
     inkscape:window-x="-8"
     inkscape:window-y="-8"
     inkscape:window-maximized="1"
     fit-margin-top="0"
     fit-margin-left="0"
     fit-margin-right="0"
     fit-margin-bottom="0">
    <inkscape:grid
       type="xygrid"
       id="grid3938"
       empspacing="5"
       visible="true"
       enabled="true"
       snapvisiblegridlinesonly="true" />
  </sodipodi:namedview>
  <defs
     id="defs3114" />
  <metadata
     id="metadata3117">
    <rdf:RDF>
      <cc:Work
         rdf:about="">
        <dc:format>image/svg+xml</dc:format>
        <dc:type
           rdf:resource="http://purl.org/dc/dcmitype/StillImage" />
        <dc:title></dc:title>
      </cc:Work>
    </rdf:RDF>
  </metadata>
  <g
     inkscape:label="Layer 1"
     inkscape:groupmode="layer"
     id="layer1"
     transform="translate(-40,-128.4022)">
    <path
       style="fill:none;stroke:#000000;stroke-width:10;stroke-linecap:butt;stroke-linejoin:miter;stroke-miterlimit:4;stroke-opacity:1;stroke-dasharray:none"
       d="m 80,412.36218 240,-200"
       id="path3947"
       inkscape:connector-curvature="0" />
    <path
       style="fill:none;stroke:#000000;stroke-width:10;stroke-linecap:butt;stroke-linejoin:miter;stroke-miterlimit:4;stroke-opacity:1;stroke-dasharray:none"
       d="m 320,212.36218 -80,200"
       id="path3955"
       inkscape:connector-curvature="0" />
    <path
       style="fill:none;stroke:#000000;stroke-width:10;stroke-linecap:butt;stroke-linejoin:miter;stroke-miterlimit:4;stroke-opacity:1;stroke-dasharray:none"
       d="m 320,212.36218 80,200"
       id="path3951"
       inkscape:connector-curvature="0" />
    <path
       style="fill:none;stroke:#000000;stroke-width:10;stroke-linecap:butt;stroke-linejoin:miter;stroke-miterlimit:4;stroke-opacity:1;stroke-dasharray:none"
       d="m 320,212.36218 240,200"
       id="path3949"
       inkscape:connector-curvature="0" />
    <path
       sodipodi:type="arc"
       style="fill:#f70808;fill-opacity:1;stroke:none"
       id="path2987-6"
       sodipodi:cx="80"
       sodipodi:cy="132.36218"
       sodipodi:rx="40"
       sodipodi:ry="40"
       d="m 120,132.36218 c 0,22.09139 -17.90861,40 -40,40 -22.09139,0 -40,-17.90861 -40,-40 0,-22.09139 17.90861,-39.999997 40,-39.999997 22.09139,0 40,17.908607 40,39.999997 z"
       transform="translate(240,80)" />
    <path
       sodipodi:type="arc"
       style="fill:#0df708;fill-opacity:1;stroke:none"
       id="path2987-6-1"
       sodipodi:cx="80"
       sodipodi:cy="132.36218"
       sodipodi:rx="40"
       sodipodi:ry="40"
       d="m 120,132.36218 c 0,22.09139 -17.90861,40 -40,40 -22.09139,0 -40,-17.90861 -40,-40 0,-22.09139 17.90861,-39.999997 40,-39.999997 22.09139,0 40,17.908607 40,39.999997 z"
       transform="translate(0,280)" />
    <path
       sodipodi:type="arc"
       style="fill:#0df708;fill-opacity:1;stroke:none"
       id="path2987-6-1-7"
       sodipodi:cx="80"
       sodipodi:cy="132.36218"
       sodipodi:rx="40"
       sodipodi:ry="40"
       d="m 120,132.36218 c 0,22.09139 -17.90861,40 -40,40 -22.09139,0 -40,-17.90861 -40,-40 0,-22.09139 17.90861,-39.999997 40,-39.999997 22.09139,0 40,17.908607 40,39.999997 z"
       transform="translate(160,280)" />
    <path
       sodipodi:type="arc"
       style="fill:#0df708;fill-opacity:1;stroke:none"
       id="path2987-6-1-4"
       sodipodi:cx="80"
       sodipodi:cy="132.36218"
       sodipodi:rx="40"
       sodipodi:ry="40"
       d="m 120,132.36218 c 0,22.09139 -17.90861,40 -40,40 -22.09139,0 -40,-17.90861 -40,-40 0,-22.09139 17.90861,-39.999997 40,-39.999997 22.09139,0 40,17.908607 40,39.999997 z"
       transform="translate(320,280)" />
    <path
       sodipodi:type="arc"
       style="fill:#0df708;fill-opacity:1;stroke:none"
       id="path2987-6-1-0"
       sodipodi:cx="80"
       sodipodi:cy="132.36218"
       sodipodi:rx="40"
       sodipodi:ry="40"
       d="m 120,132.36218 c 0,22.09139 -17.90861,40 -40,40 -22.09139,0 -40,-17.90861 -40,-40 0,-22.09139 17.90861,-39.999997 40,-39.999997 22.09139,0 40,17.908607 40,39.999997 z"
       transform="translate(480,280)"
       inkscape:transform-center-x="211.42857"
       inkscape:transform-center-y="185.71429" />
    <g
       style="font-style:normal;font-variant:normal;font-weight:normal;font-stretch:normal;letter-spacing:normal;word-spacing:normal;text-anchor:start;fill:none;stroke:#000000;stroke-linecap:butt;stroke-linejoin:miter;stroke-miterlimit:10.43299961;stroke-opacity:1;stroke-dasharray:none;stroke-dashoffset:0"
       id="content"
       transform="matrix(4,0,0,-4,-522.12,2990.9222)"
       xml:space="preserve"
       stroke-miterlimit="10.433"
       font-style="normal"
       font-variant="normal"
       font-weight="normal"
       font-stretch="normal"
       font-size-adjust="none"
       letter-spacing="normal"
       word-spacing="normal"
       ns0:text="$ f(x) = f(x^{P}) = f(x^{G}) $"
       ns0:preamble="">
<path
   style="fill:#000000;stroke-width:0"
   inkscape:connector-curvature="0"
   d="m 227.09,711.11 h 0.86 c 0.2,0 0.3,0 0.3,0.19 0,0.11 -0.1,0.11 -0.27,0.11 h -0.83 l 0.21,1.14 c 0.04,0.21 0.18,0.92 0.24,1.03 0.09,0.19 0.26,0.34 0.47,0.34 0.04,0 0.3,0 0.49,-0.18 -0.44,-0.04 -0.54,-0.39 -0.54,-0.53 0,-0.23 0.18,-0.35 0.37,-0.35 0.26,0 0.54,0.22 0.54,0.6 0,0.45 -0.45,0.68 -0.86,0.68 -0.34,0 -0.97,-0.18 -1.27,-1.16 -0.06,-0.21 -0.09,-0.31 -0.33,-1.57 h -0.68 c -0.19,0 -0.3,0 -0.3,-0.19 0,-0.11 0.08,-0.11 0.27,-0.11 h 0.66 l -0.74,-3.94 c -0.19,-0.96 -0.35,-1.87 -0.87,-1.87 -0.04,0 -0.29,0 -0.48,0.18 0.46,0.03 0.55,0.39 0.55,0.54 0,0.23 -0.18,0.35 -0.37,0.35 -0.26,0 -0.55,-0.22 -0.55,-0.6 0,-0.45 0.44,-0.68 0.85,-0.68 0.55,0 0.95,0.58 1.12,0.96 0.32,0.63 0.55,1.83 0.56,1.9 z"
   id="path4123" />
<path
   style="fill:#000000;stroke-width:0"
   inkscape:connector-curvature="0"
   d="m 232.68,704.74 0,0 0,0.01 0,0 0,0 0,0.01 0,0 0,0 0,0.01 0,0 -0.01,0 0,0.01 0,0 -0.01,0.01 0,0 0,0.01 -0.01,0.01 0,0 -0.01,0.01 0,0 -0.01,0.01 0,0 0,0.01 -0.01,0 0,0 -0.01,0.01 0,0 0,0.01 -0.01,0 0,0.01 -0.01,0 0,0.01 -0.01,0.01 -0.01,0 0,0.01 -0.01,0 0,0.01 -0.01,0.01 -0.01,0.01 -0.01,0 0,0.01 -0.01,0.01 -0.01,0.01 c -1.24,1.25 -1.56,3.13 -1.56,4.65 0,1.73 0.38,3.47 1.6,4.71 0.13,0.12 0.13,0.14 0.13,0.17 0,0.07 -0.04,0.1 -0.1,0.1 -0.1,0 -0.99,-0.68 -1.58,-1.94 -0.51,-1.1 -0.63,-2.2 -0.63,-3.04 0,-0.77 0.11,-1.98 0.66,-3.1 0.6,-1.23 1.45,-1.87 1.55,-1.87 0.06,0 0.1,0.03 0.1,0.1 z"
   id="path4125" />
<path
   style="fill:#000000;stroke-width:0"
   inkscape:connector-curvature="0"
   d="m 236.59,710.13 0,0.03 0.01,0.03 0.01,0.03 0.01,0.04 0.01,0.03 0.01,0.05 0.01,0.04 0.02,0.04 0.01,0.05 0.02,0.05 0.02,0.05 0.02,0.05 0.02,0.05 0.03,0.05 0.02,0.05 0.03,0.04 0.03,0.05 0.03,0.05 0.03,0.05 0.04,0.04 0.04,0.04 0.04,0.04 0.04,0.04 0.04,0.04 0.05,0.03 0.05,0.03 0.02,0.01 0.03,0.01 0.02,0.02 0.03,0.01 0.03,0 0.03,0.01 0.03,0.01 0.03,0 0.03,0.01 0.03,0 0.03,0 0.03,0 c 0.05,0 0.29,0 0.5,-0.12 -0.28,-0.05 -0.48,-0.3 -0.48,-0.54 0,-0.16 0.11,-0.35 0.38,-0.35 0.22,0 0.54,0.18 0.54,0.58 0,0.52 -0.59,0.65 -0.93,0.65 -0.58,0 -0.93,-0.52 -1.04,-0.75 -0.25,0.65 -0.79,0.75 -1.08,0.75 -1.04,0 -1.61,-1.28 -1.61,-1.53 0,-0.1 0.1,-0.1 0.12,-0.1 0.08,0 0.11,0.02 0.13,0.11 0.34,1.06 1,1.3 1.34,1.3 0.19,0 0.54,-0.08 0.54,-0.66 0,-0.31 -0.17,-0.98 -0.54,-2.37 -0.16,-0.62 -0.51,-1.04 -0.95,-1.04 -0.06,0 -0.29,0 -0.5,0.13 0.25,0.05 0.47,0.26 0.47,0.54 0,0.27 -0.22,0.35 -0.37,0.35 -0.3,0 -0.55,-0.26 -0.55,-0.58 0,-0.45 0.5,-0.65 0.94,-0.65 0.66,0 1.02,0.69 1.05,0.75 0.12,-0.37 0.48,-0.75 1.07,-0.75 1.03,0 1.6,1.28 1.6,1.53 0,0.1 -0.09,0.1 -0.12,0.1 -0.09,0 -0.11,-0.04 -0.13,-0.11 -0.33,-1.07 -1.01,-1.31 -1.32,-1.31 -0.39,0 -0.55,0.32 -0.55,0.66 0,0.22 0.06,0.44 0.17,0.88 z"
   id="path4127" />
<path
   style="fill:#000000;stroke-width:0"
   inkscape:connector-curvature="0"
   d="m 241.83,709.61 0,0.08 0,0.07 0,0.08 0,0.08 -0.01,0.17 -0.01,0.18 -0.02,0.18 -0.02,0.19 -0.03,0.2 -0.03,0.19 -0.04,0.21 -0.05,0.21 -0.05,0.21 -0.06,0.21 -0.07,0.21 -0.08,0.21 -0.04,0.11 -0.05,0.11 -0.05,0.1 -0.05,0.11 c -0.6,1.22 -1.45,1.87 -1.55,1.87 -0.06,0 -0.1,-0.04 -0.1,-0.1 0,-0.03 0,-0.05 0.19,-0.23 0.97,-0.98 1.54,-2.57 1.54,-4.65 0,-1.7 -0.37,-3.45 -1.6,-4.7 -0.13,-0.12 -0.13,-0.14 -0.13,-0.17 0,-0.06 0.04,-0.1 0.1,-0.1 0.1,0 1,0.67 1.58,1.94 0.51,1.09 0.63,2.2 0.63,3.03 z"
   id="path4129" />
<path
   style="fill:#000000;stroke-width:0"
   inkscape:connector-curvature="0"
   d="m 252.44,710.38 0.03,0 0.03,0 0.03,0 0.01,0 0.02,0 0.01,0 0.02,0.01 0.01,0 0.02,0 0.01,0 0.01,0.01 0.02,0 0.01,0 0.01,0.01 0.01,0 0.01,0.01 0.01,0.01 0.01,0.01 0.01,0 0.01,0.01 0.01,0.01 0,0.01 0.01,0 0,0.01 0,0.01 0.01,0 0,0.01 0,0.01 0,0 0,0.01 0.01,0.01 0,0 0,0.01 0,0.01 0,0.01 0,0.01 0,0.01 c 0,0.2 -0.19,0.2 -0.33,0.2 h -5.97 c -0.14,0 -0.33,0 -0.33,-0.2 0,-0.2 0.19,-0.2 0.34,-0.2 z"
   id="path4131" />
<path
   style="fill:#000000;stroke-width:0"
   inkscape:connector-curvature="0"
   d="m 252.45,708.45 0.03,0 0.03,0 0.02,0 0.02,0 0.01,0 0.02,0 0.01,0.01 0.01,0 0.02,0 0.01,0 0.01,0.01 0.02,0 0.01,0 0.01,0.01 0.01,0 0.01,0.01 0.01,0.01 0.01,0.01 0.01,0 0.01,0.01 0.01,0.01 0,0 0,0.01 0.01,0 0,0.01 0,0.01 0.01,0 0,0.01 0,0.01 0,0 0,0.01 0.01,0.01 0,0 0,0.01 0,0.01 0,0.01 0,0.01 0,0.01 c 0,0.2 -0.19,0.2 -0.34,0.2 h -5.95 c -0.15,0 -0.34,0 -0.34,-0.2 0,-0.2 0.19,-0.2 0.33,-0.2 z"
   id="path4133" />
<path
   style="fill:#000000;stroke-width:0"
   inkscape:connector-curvature="0"
   d="m 259.77,711.11 h 0.85 c 0.2,0 0.3,0 0.3,0.19 0,0.11 -0.1,0.11 -0.27,0.11 h -0.82 l 0.21,1.14 c 0.04,0.21 0.17,0.92 0.23,1.03 0.09,0.19 0.26,0.34 0.47,0.34 0.04,0 0.3,0 0.49,-0.18 -0.44,-0.04 -0.54,-0.39 -0.54,-0.53 0,-0.23 0.18,-0.35 0.37,-0.35 0.26,0 0.55,0.22 0.55,0.6 0,0.45 -0.46,0.68 -0.87,0.68 -0.34,0 -0.96,-0.18 -1.26,-1.16 -0.06,-0.21 -0.09,-0.31 -0.33,-1.57 h -0.69 c -0.19,0 -0.3,0 -0.3,-0.19 0,-0.11 0.09,-0.11 0.28,-0.11 h 0.66 l -0.75,-3.94 c -0.18,-0.96 -0.35,-1.87 -0.87,-1.87 -0.04,0 -0.28,0 -0.47,0.18 0.45,0.03 0.54,0.39 0.54,0.54 0,0.23 -0.18,0.35 -0.37,0.35 -0.26,0 -0.54,-0.22 -0.54,-0.6 0,-0.45 0.44,-0.68 0.84,-0.68 0.55,0 0.95,0.58 1.13,0.96 0.32,0.63 0.55,1.83 0.56,1.9 z"
   id="path4135" />
<path
   style="fill:#000000;stroke-width:0"
   inkscape:connector-curvature="0"
   d="m 265.36,704.74 0,0 0,0.01 0,0 0,0 0,0.01 0,0 -0.01,0 0,0.01 0,0 0,0 0,0.01 -0.01,0 0,0.01 0,0 -0.01,0.01 0,0.01 -0.01,0 0,0.01 -0.01,0 0,0.01 0,0 -0.01,0.01 0,0 -0.01,0 0,0.01 0,0 -0.01,0.01 0,0 -0.01,0.01 0,0 -0.01,0.01 0,0.01 -0.01,0 -0.01,0.01 0,0 -0.01,0.01 -0.01,0.01 0,0.01 -0.01,0 -0.01,0.01 0,0.01 -0.01,0.01 c -1.25,1.25 -1.57,3.13 -1.57,4.65 0,1.73 0.38,3.47 1.61,4.71 0.13,0.12 0.13,0.14 0.13,0.17 0,0.07 -0.04,0.1 -0.1,0.1 -0.1,0 -1,-0.68 -1.59,-1.94 -0.51,-1.1 -0.62,-2.2 -0.62,-3.04 0,-0.77 0.1,-1.98 0.65,-3.1 0.6,-1.23 1.46,-1.87 1.56,-1.87 0.06,0 0.1,0.03 0.1,0.1 z"
   id="path4137" />
<path
   style="fill:#000000;stroke-width:0"
   inkscape:connector-curvature="0"
   d="m 269.26,710.13 0.01,0.03 0,0.03 0.01,0.03 0.01,0.04 0.01,0.03 0.01,0.05 0.02,0.04 0.01,0.04 0.02,0.05 0.02,0.05 0.02,0.05 0.02,0.05 0.02,0.05 0.02,0.05 0.03,0.05 0.03,0.04 0.03,0.05 0.03,0.05 0.03,0.05 0.04,0.04 0.03,0.04 0.04,0.04 0.04,0.04 0.05,0.04 0.04,0.03 0.05,0.03 0.03,0.01 0.02,0.01 0.03,0.02 0.03,0.01 0.03,0 0.02,0.01 0.03,0.01 0.03,0 0.03,0.01 0.03,0 0.04,0 0.03,0 c 0.05,0 0.29,0 0.5,-0.12 -0.28,-0.05 -0.48,-0.3 -0.48,-0.54 0,-0.16 0.11,-0.35 0.38,-0.35 0.22,0 0.53,0.18 0.53,0.58 0,0.52 -0.58,0.65 -0.92,0.65 -0.58,0 -0.93,-0.52 -1.05,-0.75 -0.25,0.65 -0.79,0.75 -1.07,0.75 -1.04,0 -1.61,-1.28 -1.61,-1.53 0,-0.1 0.1,-0.1 0.12,-0.1 0.08,0 0.11,0.02 0.13,0.11 0.34,1.06 1,1.3 1.33,1.3 0.19,0 0.54,-0.08 0.54,-0.66 0,-0.31 -0.17,-0.98 -0.54,-2.37 -0.15,-0.62 -0.5,-1.04 -0.94,-1.04 -0.06,0 -0.29,0 -0.5,0.13 0.25,0.05 0.47,0.26 0.47,0.54 0,0.27 -0.22,0.35 -0.37,0.35 -0.3,0 -0.55,-0.26 -0.55,-0.58 0,-0.45 0.5,-0.65 0.94,-0.65 0.66,0 1.01,0.69 1.04,0.75 0.12,-0.37 0.48,-0.75 1.08,-0.75 1.03,0 1.6,1.28 1.6,1.53 0,0.1 -0.09,0.1 -0.12,0.1 -0.09,0 -0.11,-0.04 -0.13,-0.11 -0.33,-1.07 -1.01,-1.31 -1.33,-1.31 -0.39,0 -0.55,0.32 -0.55,0.66 0,0.22 0.06,0.44 0.17,0.88 z"
   id="path4139" />
<path
   style="fill:#000000;stroke-width:0"
   inkscape:connector-curvature="0"
   d="m 274,712.9 0.03,0.22 0.47,1.88 c 0.06,0.22 0.07,0.24 0.36,0.24 h 0.81 c 0.65,0 1.05,-0.2 1.05,-0.69 0,-0.21 -0.08,-0.76 -0.43,-1.08 -0.25,-0.22 -0.65,-0.35 -1.15,-0.35 h -1.11 L 274,712.9 h 1.26 c 1.18,0 2.17,0.75 2.17,1.5 0,0.59 -0.57,1.09 -1.52,1.09 h -2.44 c -0.14,0 -0.22,0 -0.22,-0.15 0,-0.1 0.08,-0.1 0.23,-0.1 0.11,0 0.14,0 0.26,-0.02 0.14,-0.01 0.16,-0.02 0.16,-0.09 0,-0.02 0,-0.05 -0.03,-0.16 l -0.92,-3.66 c -0.07,-0.27 -0.08,-0.32 -0.62,-0.32 -0.13,0 -0.21,0 -0.21,-0.15 0,-0.01 0,-0.1 0.11,-0.1 0.2,0 0.7,0.03 0.91,0.03 0.12,0 0.36,0 0.48,-0.01 0.14,-0.01 0.31,-0.02 0.44,-0.02 0.05,0 0.15,0 0.15,0.15 0,0.1 -0.08,0.1 -0.22,0.1 -0.01,0 -0.14,0 -0.27,0.01 -0.16,0.02 -0.16,0.04 -0.16,0.11 0,0 0,0.05 0.03,0.15 z"
   id="path4141" />
<path
   style="fill:#000000;stroke-width:0"
   inkscape:connector-curvature="0"
   d="m 281.15,709.61 0,0.08 0,0.07 0,0.08 -0.01,0.08 0,0.17 -0.02,0.18 -0.01,0.18 -0.02,0.19 -0.03,0.2 -0.03,0.19 -0.04,0.21 -0.05,0.21 -0.05,0.21 -0.06,0.21 -0.07,0.21 -0.08,0.21 -0.05,0.11 -0.04,0.11 -0.05,0.1 -0.05,0.11 c -0.6,1.22 -1.45,1.87 -1.55,1.87 -0.06,0 -0.1,-0.04 -0.1,-0.1 0,-0.03 0,-0.05 0.19,-0.23 0.97,-0.98 1.54,-2.57 1.54,-4.65 0,-1.7 -0.37,-3.45 -1.6,-4.7 -0.13,-0.12 -0.13,-0.14 -0.13,-0.17 0,-0.06 0.04,-0.1 0.1,-0.1 0.1,0 0.99,0.67 1.58,1.94 0.51,1.09 0.63,2.2 0.63,3.03 z"
   id="path4143" />
<path
   style="fill:#000000;stroke-width:0"
   inkscape:connector-curvature="0"
   d="m 291.76,710.38 0.03,0 0.03,0 0.03,0 0.01,0 0.02,0 0.01,0 0.02,0.01 0.01,0 0.01,0 0.02,0 0.01,0.01 0.01,0 0.02,0 0.01,0.01 0.01,0 0.01,0.01 0.01,0.01 0.01,0.01 0.01,0 0.01,0.01 0.01,0.01 0,0.01 0.01,0 0,0.01 0,0.01 0,0 0.01,0.01 0,0.01 0,0 0,0.01 0.01,0.01 0,0 0,0.01 0,0.01 0,0.01 0,0.01 0,0.01 c 0,0.2 -0.19,0.2 -0.33,0.2 h -5.97 c -0.14,0 -0.33,0 -0.33,-0.2 0,-0.2 0.19,-0.2 0.34,-0.2 z"
   id="path4145" />
<path
   style="fill:#000000;stroke-width:0"
   inkscape:connector-curvature="0"
   d="m 291.77,708.45 0.03,0 0.03,0 0.02,0 0.02,0 0.01,0 0.02,0 0.01,0.01 0.01,0 0.02,0 0.01,0 0.01,0.01 0.02,0 0.01,0 0.01,0.01 0.01,0 0.01,0.01 0.01,0.01 0.01,0.01 0.01,0 0.01,0.01 0,0.01 0.01,0 0,0.01 0.01,0 0,0.01 0,0.01 0,0 0.01,0.01 0,0.01 0,0 0,0.01 0.01,0.01 0,0 0,0.01 0,0.01 0,0.01 0,0.01 0,0.01 c 0,0.2 -0.19,0.2 -0.34,0.2 h -5.95 c -0.15,0 -0.34,0 -0.34,-0.2 0,-0.2 0.19,-0.2 0.33,-0.2 z"
   id="path4147" />
<path
   style="fill:#000000;stroke-width:0"
   inkscape:connector-curvature="0"
   d="m 299.08,711.11 h 0.86 c 0.2,0 0.3,0 0.3,0.19 0,0.11 -0.1,0.11 -0.27,0.11 h -0.83 l 0.22,1.14 c 0.03,0.21 0.17,0.92 0.23,1.03 0.09,0.19 0.26,0.34 0.47,0.34 0.04,0 0.3,0 0.49,-0.18 -0.44,-0.04 -0.54,-0.39 -0.54,-0.53 0,-0.23 0.18,-0.35 0.37,-0.35 0.26,0 0.55,0.22 0.55,0.6 0,0.45 -0.46,0.68 -0.87,0.68 -0.34,0 -0.96,-0.18 -1.26,-1.16 -0.06,-0.21 -0.09,-0.31 -0.33,-1.57 h -0.69 c -0.19,0 -0.3,0 -0.3,-0.19 0,-0.11 0.09,-0.11 0.28,-0.11 h 0.66 l -0.75,-3.94 c -0.18,-0.96 -0.35,-1.87 -0.87,-1.87 -0.04,0 -0.29,0 -0.48,0.18 0.46,0.03 0.55,0.39 0.55,0.54 0,0.23 -0.18,0.35 -0.37,0.35 -0.26,0 -0.55,-0.22 -0.55,-0.6 0,-0.45 0.44,-0.68 0.85,-0.68 0.55,0 0.95,0.58 1.13,0.96 0.32,0.63 0.55,1.83 0.56,1.9 z"
   id="path4149" />
<path
   style="fill:#000000;stroke-width:0"
   inkscape:connector-curvature="0"
   d="m 304.68,704.74 0,0 0,0.01 0,0 0,0 0,0.01 -0.01,0 0,0 0,0.01 0,0 0,0 0,0.01 -0.01,0 0,0.01 0,0 -0.01,0.01 0,0.01 -0.01,0 0,0.01 -0.01,0 0,0.01 0,0 -0.01,0.01 0,0 -0.01,0 0,0.01 0,0 -0.01,0.01 0,0 -0.01,0.01 0,0 -0.01,0.01 -0.01,0.01 0,0 -0.01,0.01 0,0 -0.01,0.01 -0.01,0.01 0,0.01 -0.01,0 -0.01,0.01 -0.01,0.01 0,0.01 c -1.25,1.25 -1.57,3.13 -1.57,4.65 0,1.73 0.38,3.47 1.61,4.71 0.13,0.12 0.13,0.14 0.13,0.17 0,0.07 -0.04,0.1 -0.1,0.1 -0.1,0 -1,-0.68 -1.59,-1.94 -0.51,-1.1 -0.63,-2.2 -0.63,-3.04 0,-0.77 0.11,-1.98 0.66,-3.1 0.6,-1.23 1.46,-1.87 1.56,-1.87 0.06,0 0.1,0.03 0.1,0.1 z"
   id="path4151" />
<path
   style="fill:#000000;stroke-width:0"
   inkscape:connector-curvature="0"
   d="m 308.58,710.13 0.01,0.03 0,0.03 0.01,0.03 0.01,0.04 0.01,0.03 0.01,0.05 0.02,0.04 0.01,0.04 0.02,0.05 0.02,0.05 0.01,0.05 0.02,0.05 0.03,0.05 0.02,0.05 0.03,0.05 0.02,0.04 0.03,0.05 0.04,0.05 0.03,0.05 0.03,0.04 0.04,0.04 0.04,0.04 0.04,0.04 0.05,0.04 0.04,0.03 0.05,0.03 0.03,0.01 0.02,0.01 0.03,0.02 0.03,0.01 0.02,0 0.03,0.01 0.03,0.01 0.03,0 0.03,0.01 0.03,0 0.03,0 0.04,0 c 0.05,0 0.29,0 0.5,-0.12 -0.28,-0.05 -0.48,-0.3 -0.48,-0.54 0,-0.16 0.11,-0.35 0.38,-0.35 0.21,0 0.53,0.18 0.53,0.58 0,0.52 -0.58,0.65 -0.92,0.65 -0.58,0 -0.93,-0.52 -1.05,-0.75 -0.25,0.65 -0.79,0.75 -1.08,0.75 -1.03,0 -1.6,-1.28 -1.6,-1.53 0,-0.1 0.1,-0.1 0.12,-0.1 0.08,0 0.11,0.02 0.13,0.11 0.34,1.06 1,1.3 1.33,1.3 0.19,0 0.54,-0.08 0.54,-0.66 0,-0.31 -0.17,-0.98 -0.54,-2.37 -0.16,-0.62 -0.5,-1.04 -0.94,-1.04 -0.06,0 -0.29,0 -0.5,0.13 0.25,0.05 0.47,0.26 0.47,0.54 0,0.27 -0.22,0.35 -0.37,0.35 -0.3,0 -0.55,-0.26 -0.55,-0.58 0,-0.45 0.5,-0.65 0.94,-0.65 0.66,0 1.01,0.69 1.04,0.75 0.12,-0.37 0.48,-0.75 1.08,-0.75 1.03,0 1.6,1.28 1.6,1.53 0,0.1 -0.09,0.1 -0.12,0.1 -0.09,0 -0.11,-0.04 -0.13,-0.11 -0.33,-1.07 -1.01,-1.31 -1.33,-1.31 -0.39,0 -0.55,0.32 -0.55,0.66 0,0.22 0.06,0.44 0.17,0.88 z"
   id="path4153" />
<path
   style="fill:#000000;stroke-width:0"
   inkscape:connector-curvature="0"
   d="m 316.82,715.54 0,0 0,0 0,0.01 -0.01,0 0,0.01 0,0 0,0 0,0.01 0,0 0,0 0,0.01 0,0 -0.01,0.01 0,0 0,0 0,0.01 -0.01,0 0,0 0,0.01 -0.01,0 0,0 0,0 -0.01,0.01 0,0 -0.01,0 0,0 -0.01,0 0,0.01 0,0 -0.01,0 0,0 0,0 0,0 -0.01,0 0,0 0,0 c -0.05,0 -0.07,-0.02 -0.13,-0.09 l -0.51,-0.53 c -0.06,0.08 -0.45,0.62 -1.31,0.62 -1.69,0 -3.35,-1.5 -3.35,-3.07 0,-1.08 0.82,-1.96 2.16,-1.96 0.61,0 1.26,0.16 1.62,0.55 0.07,-0.15 0.26,-0.4 0.35,-0.4 0.06,0 0.07,0.03 0.11,0.17 l 0.13,0.54 c 0.03,0.12 0.13,0.54 0.15,0.62 0.09,0.32 0.09,0.32 0.5,0.33 0.05,0 0.16,0 0.16,0.14 0,0.07 -0.05,0.11 -0.11,0.11 -0.23,0 -0.52,-0.03 -0.76,-0.03 -0.18,0 -0.41,0 -0.58,0.01 -0.18,0.01 -0.38,0.02 -0.55,0.02 -0.05,0 -0.16,0 -0.16,-0.15 0,-0.1 0.08,-0.1 0.26,-0.1 0.13,0 0.27,0 0.4,-0.01 0.22,-0.03 0.23,-0.05 0.23,-0.14 0,-0.03 0,-0.04 -0.05,-0.22 -0.05,-0.19 -0.12,-0.51 -0.15,-0.58 -0.2,-0.42 -0.85,-0.61 -1.4,-0.61 -0.69,0 -1.6,0.33 -1.6,1.51 0,0.74 0.34,1.68 0.86,2.2 0.72,0.71 1.46,0.82 1.85,0.82 0.81,0 1.28,-0.59 1.28,-1.36 0,-0.2 -0.02,-0.25 -0.02,-0.29 0,-0.09 0.09,-0.09 0.13,-0.09 0.11,0 0.11,0.02 0.14,0.15 z"
   id="path4155" />
<path
   style="fill:#000000;stroke-width:0"
   inkscape:connector-curvature="0"
   d="m 320.53,709.61 0,0.08 0,0.07 -0.01,0.08 0,0.08 -0.01,0.17 -0.01,0.18 -0.02,0.18 -0.02,0.19 -0.02,0.2 -0.04,0.19 -0.04,0.21 -0.04,0.21 -0.06,0.21 -0.06,0.21 -0.07,0.21 -0.08,0.21 -0.04,0.11 -0.04,0.11 -0.05,0.1 -0.05,0.11 c -0.6,1.22 -1.46,1.87 -1.56,1.87 -0.06,0 -0.1,-0.04 -0.1,-0.1 0,-0.03 0,-0.05 0.19,-0.23 0.98,-0.98 1.55,-2.57 1.55,-4.65 0,-1.7 -0.37,-3.45 -1.61,-4.7 -0.13,-0.12 -0.13,-0.14 -0.13,-0.17 0,-0.06 0.04,-0.1 0.1,-0.1 0.1,0 1,0.67 1.59,1.94 0.51,1.09 0.63,2.2 0.63,3.03 z"
   id="path4157" />
</g>    <g
       style="font-style:normal;font-variant:normal;font-weight:normal;font-stretch:normal;letter-spacing:normal;word-spacing:normal;text-anchor:start;fill:none;stroke:#000000;stroke-linecap:butt;stroke-linejoin:miter;stroke-miterlimit:10.43299961;stroke-opacity:1;stroke-dasharray:none;stroke-dashoffset:0"
       ns0:preamble=""
       ns0:text="$ f(x) \\leq f(x^{P}) \\leq f(x^{G}) $"
       word-spacing="normal"
       letter-spacing="normal"
       font-size-adjust="none"
       font-stretch="normal"
       font-weight="normal"
       font-variant="normal"
       font-style="normal"
       stroke-miterlimit="10.433"
       xml:space="preserve"
       transform="matrix(4,0,0,-4,-535.84,3354.8822)"
       id="g4297">
<path
   id="path4299"
   d="m 227.09,711.11 h 0.86 c 0.2,0 0.3,0 0.3,0.19 0,0.11 -0.1,0.11 -0.27,0.11 h -0.83 l 0.21,1.14 c 0.04,0.21 0.18,0.92 0.24,1.03 0.09,0.19 0.26,0.34 0.47,0.34 0.04,0 0.3,0 0.49,-0.18 -0.44,-0.04 -0.54,-0.39 -0.54,-0.53 0,-0.23 0.18,-0.35 0.37,-0.35 0.26,0 0.54,0.22 0.54,0.6 0,0.45 -0.45,0.68 -0.86,0.68 -0.34,0 -0.97,-0.18 -1.27,-1.16 -0.06,-0.21 -0.09,-0.31 -0.33,-1.57 h -0.68 c -0.19,0 -0.3,0 -0.3,-0.19 0,-0.11 0.08,-0.11 0.27,-0.11 h 0.66 l -0.74,-3.94 c -0.19,-0.96 -0.35,-1.87 -0.87,-1.87 -0.04,0 -0.29,0 -0.48,0.18 0.46,0.03 0.55,0.39 0.55,0.54 0,0.23 -0.18,0.35 -0.37,0.35 -0.26,0 -0.55,-0.22 -0.55,-0.6 0,-0.45 0.44,-0.68 0.85,-0.68 0.55,0 0.95,0.58 1.12,0.96 0.32,0.63 0.55,1.83 0.56,1.9 z"
   inkscape:connector-curvature="0"
   style="fill:#000000;stroke-width:0" />
<path
   id="path4301"
   d="m 232.68,704.74 0,0 0,0.01 0,0 0,0 0,0.01 0,0 0,0 0,0.01 0,0 -0.01,0 0,0.01 0,0 -0.01,0.01 0,0 0,0.01 -0.01,0.01 0,0 -0.01,0.01 0,0 -0.01,0.01 0,0 0,0.01 -0.01,0 0,0 -0.01,0.01 0,0 0,0.01 -0.01,0 0,0.01 -0.01,0 0,0.01 -0.01,0.01 -0.01,0 0,0.01 -0.01,0 0,0.01 -0.01,0.01 -0.01,0.01 -0.01,0 0,0.01 -0.01,0.01 -0.01,0.01 c -1.24,1.25 -1.56,3.13 -1.56,4.65 0,1.73 0.38,3.47 1.6,4.71 0.13,0.12 0.13,0.14 0.13,0.17 0,0.07 -0.04,0.1 -0.1,0.1 -0.1,0 -0.99,-0.68 -1.58,-1.94 -0.51,-1.1 -0.63,-2.2 -0.63,-3.04 0,-0.77 0.11,-1.98 0.66,-3.1 0.6,-1.23 1.45,-1.87 1.55,-1.87 0.06,0 0.1,0.03 0.1,0.1 z"
   inkscape:connector-curvature="0"
   style="fill:#000000;stroke-width:0" />
<path
   id="path4303"
   d="m 236.59,710.13 0,0.03 0.01,0.03 0.01,0.03 0.01,0.04 0.01,0.03 0.01,0.05 0.01,0.04 0.02,0.04 0.01,0.05 0.02,0.05 0.02,0.05 0.02,0.05 0.02,0.05 0.03,0.05 0.02,0.05 0.03,0.04 0.03,0.05 0.03,0.05 0.03,0.05 0.04,0.04 0.04,0.04 0.04,0.04 0.04,0.04 0.04,0.04 0.05,0.03 0.05,0.03 0.02,0.01 0.03,0.01 0.02,0.02 0.03,0.01 0.03,0 0.03,0.01 0.03,0.01 0.03,0 0.03,0.01 0.03,0 0.03,0 0.03,0 c 0.05,0 0.29,0 0.5,-0.12 -0.28,-0.05 -0.48,-0.3 -0.48,-0.54 0,-0.16 0.11,-0.35 0.38,-0.35 0.22,0 0.54,0.18 0.54,0.58 0,0.52 -0.59,0.65 -0.93,0.65 -0.58,0 -0.93,-0.52 -1.04,-0.75 -0.25,0.65 -0.79,0.75 -1.08,0.75 -1.04,0 -1.61,-1.28 -1.61,-1.53 0,-0.1 0.1,-0.1 0.12,-0.1 0.08,0 0.11,0.02 0.13,0.11 0.34,1.06 1,1.3 1.34,1.3 0.19,0 0.54,-0.08 0.54,-0.66 0,-0.31 -0.17,-0.98 -0.54,-2.37 -0.16,-0.62 -0.51,-1.04 -0.95,-1.04 -0.06,0 -0.29,0 -0.5,0.13 0.25,0.05 0.47,0.26 0.47,0.54 0,0.27 -0.22,0.35 -0.37,0.35 -0.3,0 -0.55,-0.26 -0.55,-0.58 0,-0.45 0.5,-0.65 0.94,-0.65 0.66,0 1.02,0.69 1.05,0.75 0.12,-0.37 0.48,-0.75 1.07,-0.75 1.03,0 1.6,1.28 1.6,1.53 0,0.1 -0.09,0.1 -0.12,0.1 -0.09,0 -0.11,-0.04 -0.13,-0.11 -0.33,-1.07 -1.01,-1.31 -1.32,-1.31 -0.39,0 -0.55,0.32 -0.55,0.66 0,0.22 0.06,0.44 0.17,0.88 z"
   inkscape:connector-curvature="0"
   style="fill:#000000;stroke-width:0" />
<path
   id="path4305"
   d="m 241.83,709.61 0,0.08 0,0.07 0,0.08 0,0.08 -0.01,0.17 -0.01,0.18 -0.02,0.18 -0.02,0.19 -0.03,0.2 -0.03,0.19 -0.04,0.21 -0.05,0.21 -0.05,0.21 -0.06,0.21 -0.07,0.21 -0.08,0.21 -0.04,0.11 -0.05,0.11 -0.05,0.1 -0.05,0.11 c -0.6,1.22 -1.45,1.87 -1.55,1.87 -0.06,0 -0.1,-0.04 -0.1,-0.1 0,-0.03 0,-0.05 0.19,-0.23 0.97,-0.98 1.54,-2.57 1.54,-4.65 0,-1.7 -0.37,-3.45 -1.6,-4.7 -0.13,-0.12 -0.13,-0.14 -0.13,-0.17 0,-0.06 0.04,-0.1 0.1,-0.1 0.1,0 1,0.67 1.58,1.94 0.51,1.09 0.63,2.2 0.63,3.03 z"
   inkscape:connector-curvature="0"
   style="fill:#000000;stroke-width:0" />
<path
   id="path4307"
   d="m 252.32,713.04 0.02,0.01 0.02,0.01 0.01,0 0.01,0.01 0.01,0 0.01,0.01 0,0 0.01,0.01 0.01,0 0.01,0.01 0.01,0 0,0.01 0.01,0 0.01,0.01 0,0.01 0.01,0 0,0.01 0.01,0.01 0,0 0.01,0.01 0,0.01 0.01,0.01 0,0.01 0,0.01 0,0 0.01,0.01 0,0.01 0,0.01 0,0.01 0,0.02 c 0,0.1 -0.08,0.2 -0.2,0.2 -0.05,0 -0.14,-0.05 -0.18,-0.06 l -5.51,-2.6 c -0.17,-0.08 -0.2,-0.15 -0.2,-0.23 0,-0.09 0.06,-0.16 0.2,-0.22 l 5.51,-2.59 c 0.13,-0.07 0.15,-0.07 0.18,-0.07 0.11,0 0.2,0.09 0.2,0.2 0,0.09 -0.04,0.15 -0.21,0.23 l -5.21,2.45 z"
   inkscape:connector-curvature="0"
   style="fill:#000000;stroke-width:0" />
<path
   id="path4309"
   d="m 252.16,705.76 0.03,0 0.03,0 0.04,0 0.01,0 0.02,0.01 0.01,0 0.02,0 0.01,0 0.02,0 0.01,0.01 0.01,0 0.02,0 0.01,0.01 0.01,0 0.01,0.01 0.01,0 0.01,0.01 0.01,0.01 0.01,0.01 0.01,0.01 0.01,0.01 0,0 0.01,0.01 0,0 0,0.01 0.01,0.01 0,0 0,0.01 0,0.01 0,0 0.01,0.01 0,0.01 0,0.01 0,0 0,0.01 0,0.01 0,0.01 c 0,0.2 -0.21,0.2 -0.36,0.2 h -5.37 c -0.15,0 -0.36,0 -0.36,-0.2 0,-0.2 0.18,-0.2 0.35,-0.2 z"
   inkscape:connector-curvature="0"
   style="fill:#000000;stroke-width:0" />
<path
   id="path4311"
   d="m 259.77,711.11 h 0.85 c 0.2,0 0.3,0 0.3,0.19 0,0.11 -0.1,0.11 -0.27,0.11 h -0.82 l 0.21,1.14 c 0.04,0.21 0.17,0.92 0.23,1.03 0.09,0.19 0.26,0.34 0.47,0.34 0.04,0 0.3,0 0.49,-0.18 -0.44,-0.04 -0.54,-0.39 -0.54,-0.53 0,-0.23 0.18,-0.35 0.37,-0.35 0.26,0 0.55,0.22 0.55,0.6 0,0.45 -0.46,0.68 -0.87,0.68 -0.34,0 -0.96,-0.18 -1.26,-1.16 -0.06,-0.21 -0.09,-0.31 -0.33,-1.57 h -0.69 c -0.19,0 -0.3,0 -0.3,-0.19 0,-0.11 0.09,-0.11 0.28,-0.11 h 0.66 l -0.75,-3.94 c -0.18,-0.96 -0.35,-1.87 -0.87,-1.87 -0.04,0 -0.28,0 -0.47,0.18 0.45,0.03 0.54,0.39 0.54,0.54 0,0.23 -0.18,0.35 -0.37,0.35 -0.26,0 -0.54,-0.22 -0.54,-0.6 0,-0.45 0.44,-0.68 0.84,-0.68 0.55,0 0.95,0.58 1.13,0.96 0.32,0.63 0.55,1.83 0.56,1.9 z"
   inkscape:connector-curvature="0"
   style="fill:#000000;stroke-width:0" />
<path
   id="path4313"
   d="m 265.36,704.74 0,0 0,0.01 0,0 0,0 0,0.01 0,0 -0.01,0 0,0.01 0,0 0,0 0,0.01 -0.01,0 0,0.01 0,0 -0.01,0.01 0,0.01 -0.01,0 0,0.01 -0.01,0 0,0.01 0,0 -0.01,0.01 0,0 -0.01,0 0,0.01 0,0 -0.01,0.01 0,0 -0.01,0.01 0,0 -0.01,0.01 0,0.01 -0.01,0 -0.01,0.01 0,0 -0.01,0.01 -0.01,0.01 0,0.01 -0.01,0 -0.01,0.01 0,0.01 -0.01,0.01 c -1.25,1.25 -1.57,3.13 -1.57,4.65 0,1.73 0.38,3.47 1.61,4.71 0.13,0.12 0.13,0.14 0.13,0.17 0,0.07 -0.04,0.1 -0.1,0.1 -0.1,0 -1,-0.68 -1.59,-1.94 -0.51,-1.1 -0.62,-2.2 -0.62,-3.04 0,-0.77 0.1,-1.98 0.65,-3.1 0.6,-1.23 1.46,-1.87 1.56,-1.87 0.06,0 0.1,0.03 0.1,0.1 z"
   inkscape:connector-curvature="0"
   style="fill:#000000;stroke-width:0" />
<path
   id="path4315"
   d="m 269.26,710.13 0.01,0.03 0,0.03 0.01,0.03 0.01,0.04 0.01,0.03 0.01,0.05 0.02,0.04 0.01,0.04 0.02,0.05 0.02,0.05 0.02,0.05 0.02,0.05 0.02,0.05 0.02,0.05 0.03,0.05 0.03,0.04 0.03,0.05 0.03,0.05 0.03,0.05 0.04,0.04 0.03,0.04 0.04,0.04 0.04,0.04 0.05,0.04 0.04,0.03 0.05,0.03 0.03,0.01 0.02,0.01 0.03,0.02 0.03,0.01 0.03,0 0.02,0.01 0.03,0.01 0.03,0 0.03,0.01 0.03,0 0.04,0 0.03,0 c 0.05,0 0.29,0 0.5,-0.12 -0.28,-0.05 -0.48,-0.3 -0.48,-0.54 0,-0.16 0.11,-0.35 0.38,-0.35 0.22,0 0.53,0.18 0.53,0.58 0,0.52 -0.58,0.65 -0.92,0.65 -0.58,0 -0.93,-0.52 -1.05,-0.75 -0.25,0.65 -0.79,0.75 -1.07,0.75 -1.04,0 -1.61,-1.28 -1.61,-1.53 0,-0.1 0.1,-0.1 0.12,-0.1 0.08,0 0.11,0.02 0.13,0.11 0.34,1.06 1,1.3 1.33,1.3 0.19,0 0.54,-0.08 0.54,-0.66 0,-0.31 -0.17,-0.98 -0.54,-2.37 -0.15,-0.62 -0.5,-1.04 -0.94,-1.04 -0.06,0 -0.29,0 -0.5,0.13 0.25,0.05 0.47,0.26 0.47,0.54 0,0.27 -0.22,0.35 -0.37,0.35 -0.3,0 -0.55,-0.26 -0.55,-0.58 0,-0.45 0.5,-0.65 0.94,-0.65 0.66,0 1.01,0.69 1.04,0.75 0.12,-0.37 0.48,-0.75 1.08,-0.75 1.03,0 1.6,1.28 1.6,1.53 0,0.1 -0.09,0.1 -0.12,0.1 -0.09,0 -0.11,-0.04 -0.13,-0.11 -0.33,-1.07 -1.01,-1.31 -1.33,-1.31 -0.39,0 -0.55,0.32 -0.55,0.66 0,0.22 0.06,0.44 0.17,0.88 z"
   inkscape:connector-curvature="0"
   style="fill:#000000;stroke-width:0" />
<path
   id="path4317"
   d="m 274,712.9 0.03,0.22 0.47,1.88 c 0.06,0.22 0.07,0.24 0.36,0.24 h 0.81 c 0.65,0 1.05,-0.2 1.05,-0.69 0,-0.21 -0.08,-0.76 -0.43,-1.08 -0.25,-0.22 -0.65,-0.35 -1.15,-0.35 h -1.11 L 274,712.9 h 1.26 c 1.18,0 2.17,0.75 2.17,1.5 0,0.59 -0.57,1.09 -1.52,1.09 h -2.44 c -0.14,0 -0.22,0 -0.22,-0.15 0,-0.1 0.08,-0.1 0.23,-0.1 0.11,0 0.14,0 0.26,-0.02 0.14,-0.01 0.16,-0.02 0.16,-0.09 0,-0.02 0,-0.05 -0.03,-0.16 l -0.92,-3.66 c -0.07,-0.27 -0.08,-0.32 -0.62,-0.32 -0.13,0 -0.21,0 -0.21,-0.15 0,-0.01 0,-0.1 0.11,-0.1 0.2,0 0.7,0.03 0.91,0.03 0.12,0 0.36,0 0.48,-0.01 0.14,-0.01 0.31,-0.02 0.44,-0.02 0.05,0 0.15,0 0.15,0.15 0,0.1 -0.08,0.1 -0.22,0.1 -0.01,0 -0.14,0 -0.27,0.01 -0.16,0.02 -0.16,0.04 -0.16,0.11 0,0 0,0.05 0.03,0.15 z"
   inkscape:connector-curvature="0"
   style="fill:#000000;stroke-width:0" />
<path
   id="path4319"
   d="m 281.15,709.61 0,0.08 0,0.07 0,0.08 -0.01,0.08 0,0.17 -0.02,0.18 -0.01,0.18 -0.02,0.19 -0.03,0.2 -0.03,0.19 -0.04,0.21 -0.05,0.21 -0.05,0.21 -0.06,0.21 -0.07,0.21 -0.08,0.21 -0.05,0.11 -0.04,0.11 -0.05,0.1 -0.05,0.11 c -0.6,1.22 -1.45,1.87 -1.55,1.87 -0.06,0 -0.1,-0.04 -0.1,-0.1 0,-0.03 0,-0.05 0.19,-0.23 0.97,-0.98 1.54,-2.57 1.54,-4.65 0,-1.7 -0.37,-3.45 -1.6,-4.7 -0.13,-0.12 -0.13,-0.14 -0.13,-0.17 0,-0.06 0.04,-0.1 0.1,-0.1 0.1,0 0.99,0.67 1.58,1.94 0.51,1.09 0.63,2.2 0.63,3.03 z"
   inkscape:connector-curvature="0"
   style="fill:#000000;stroke-width:0" />
<path
   id="path4321"
   d="m 291.64,713.04 0.02,0.01 0.02,0.01 0.01,0 0.01,0.01 0.01,0 0.01,0.01 0,0 0.01,0.01 0.01,0 0.01,0.01 0.01,0 0,0.01 0.01,0 0.01,0.01 0,0.01 0.01,0 0,0.01 0.01,0.01 0,0 0.01,0.01 0,0.01 0,0.01 0.01,0.01 0,0.01 0,0 0.01,0.01 0,0.01 0,0.01 0,0.01 0,0.02 c 0,0.1 -0.08,0.2 -0.2,0.2 -0.05,0 -0.14,-0.05 -0.18,-0.06 l -5.51,-2.6 c -0.17,-0.08 -0.2,-0.15 -0.2,-0.23 0,-0.09 0.06,-0.16 0.2,-0.22 l 5.51,-2.59 c 0.13,-0.07 0.15,-0.07 0.18,-0.07 0.11,0 0.2,0.09 0.2,0.2 0,0.09 -0.04,0.15 -0.21,0.23 l -5.21,2.45 z"
   inkscape:connector-curvature="0"
   style="fill:#000000;stroke-width:0" />
<path
   id="path4323"
   d="m 291.48,705.76 0.03,0 0.03,0 0.04,0 0.01,0 0.02,0.01 0.01,0 0.02,0 0.01,0 0.02,0 0.01,0.01 0.01,0 0.02,0 0.01,0.01 0.01,0 0.01,0.01 0.01,0 0.01,0.01 0.01,0.01 0.01,0.01 0.01,0.01 0.01,0.01 0,0 0.01,0.01 0,0 0,0.01 0,0.01 0.01,0 0,0.01 0,0.01 0,0 0,0.01 0.01,0.01 0,0.01 0,0 0,0.01 0,0.01 0,0.01 c 0,0.2 -0.21,0.2 -0.36,0.2 h -5.37 c -0.15,0 -0.36,0 -0.36,-0.2 0,-0.2 0.18,-0.2 0.35,-0.2 z"
   inkscape:connector-curvature="0"
   style="fill:#000000;stroke-width:0" />
<path
   id="path4325"
   d="m 299.08,711.11 h 0.86 c 0.2,0 0.3,0 0.3,0.19 0,0.11 -0.1,0.11 -0.27,0.11 h -0.83 l 0.22,1.14 c 0.03,0.21 0.17,0.92 0.23,1.03 0.09,0.19 0.26,0.34 0.47,0.34 0.04,0 0.3,0 0.49,-0.18 -0.44,-0.04 -0.54,-0.39 -0.54,-0.53 0,-0.23 0.18,-0.35 0.37,-0.35 0.26,0 0.55,0.22 0.55,0.6 0,0.45 -0.46,0.68 -0.87,0.68 -0.34,0 -0.96,-0.18 -1.26,-1.16 -0.06,-0.21 -0.09,-0.31 -0.33,-1.57 h -0.69 c -0.19,0 -0.3,0 -0.3,-0.19 0,-0.11 0.09,-0.11 0.28,-0.11 h 0.66 l -0.75,-3.94 c -0.18,-0.96 -0.35,-1.87 -0.87,-1.87 -0.04,0 -0.29,0 -0.48,0.18 0.46,0.03 0.55,0.39 0.55,0.54 0,0.23 -0.18,0.35 -0.37,0.35 -0.26,0 -0.55,-0.22 -0.55,-0.6 0,-0.45 0.44,-0.68 0.85,-0.68 0.55,0 0.95,0.58 1.13,0.96 0.32,0.63 0.55,1.83 0.56,1.9 z"
   inkscape:connector-curvature="0"
   style="fill:#000000;stroke-width:0" />
<path
   id="path4327"
   d="m 304.68,704.74 0,0 0,0.01 0,0 0,0 0,0.01 -0.01,0 0,0 0,0.01 0,0 0,0 0,0.01 -0.01,0 0,0.01 0,0 -0.01,0.01 0,0.01 -0.01,0 0,0.01 -0.01,0 0,0.01 0,0 -0.01,0.01 0,0 -0.01,0 0,0.01 0,0 -0.01,0.01 0,0 -0.01,0.01 0,0 -0.01,0.01 -0.01,0.01 0,0 -0.01,0.01 0,0 -0.01,0.01 -0.01,0.01 0,0.01 -0.01,0 -0.01,0.01 -0.01,0.01 0,0.01 c -1.25,1.25 -1.57,3.13 -1.57,4.65 0,1.73 0.38,3.47 1.61,4.71 0.13,0.12 0.13,0.14 0.13,0.17 0,0.07 -0.04,0.1 -0.1,0.1 -0.1,0 -1,-0.68 -1.59,-1.94 -0.51,-1.1 -0.63,-2.2 -0.63,-3.04 0,-0.77 0.11,-1.98 0.66,-3.1 0.6,-1.23 1.46,-1.87 1.56,-1.87 0.06,0 0.1,0.03 0.1,0.1 z"
   inkscape:connector-curvature="0"
   style="fill:#000000;stroke-width:0" />
<path
   id="path4329"
   d="m 308.58,710.13 0.01,0.03 0,0.03 0.01,0.03 0.01,0.04 0.01,0.03 0.01,0.05 0.02,0.04 0.01,0.04 0.02,0.05 0.02,0.05 0.01,0.05 0.02,0.05 0.03,0.05 0.02,0.05 0.03,0.05 0.02,0.04 0.03,0.05 0.04,0.05 0.03,0.05 0.03,0.04 0.04,0.04 0.04,0.04 0.04,0.04 0.05,0.04 0.04,0.03 0.05,0.03 0.03,0.01 0.02,0.01 0.03,0.02 0.03,0.01 0.02,0 0.03,0.01 0.03,0.01 0.03,0 0.03,0.01 0.03,0 0.03,0 0.04,0 c 0.05,0 0.29,0 0.5,-0.12 -0.28,-0.05 -0.48,-0.3 -0.48,-0.54 0,-0.16 0.11,-0.35 0.38,-0.35 0.21,0 0.53,0.18 0.53,0.58 0,0.52 -0.58,0.65 -0.92,0.65 -0.58,0 -0.93,-0.52 -1.05,-0.75 -0.25,0.65 -0.79,0.75 -1.08,0.75 -1.03,0 -1.6,-1.28 -1.6,-1.53 0,-0.1 0.1,-0.1 0.12,-0.1 0.08,0 0.11,0.02 0.13,0.11 0.34,1.06 1,1.3 1.33,1.3 0.19,0 0.54,-0.08 0.54,-0.66 0,-0.31 -0.17,-0.98 -0.54,-2.37 -0.16,-0.62 -0.5,-1.04 -0.94,-1.04 -0.06,0 -0.29,0 -0.5,0.13 0.25,0.05 0.47,0.26 0.47,0.54 0,0.27 -0.22,0.35 -0.37,0.35 -0.3,0 -0.55,-0.26 -0.55,-0.58 0,-0.45 0.5,-0.65 0.94,-0.65 0.66,0 1.01,0.69 1.04,0.75 0.12,-0.37 0.48,-0.75 1.08,-0.75 1.03,0 1.6,1.28 1.6,1.53 0,0.1 -0.09,0.1 -0.12,0.1 -0.09,0 -0.11,-0.04 -0.13,-0.11 -0.33,-1.07 -1.01,-1.31 -1.33,-1.31 -0.39,0 -0.55,0.32 -0.55,0.66 0,0.22 0.06,0.44 0.17,0.88 z"
   inkscape:connector-curvature="0"
   style="fill:#000000;stroke-width:0" />
<path
   id="path4331"
   d="m 316.82,715.54 0,0 0,0 0,0.01 -0.01,0 0,0.01 0,0 0,0 0,0.01 0,0 0,0 0,0.01 0,0 -0.01,0.01 0,0 0,0 0,0.01 -0.01,0 0,0 0,0.01 -0.01,0 0,0 0,0 -0.01,0.01 0,0 -0.01,0 0,0 -0.01,0 0,0.01 0,0 -0.01,0 0,0 0,0 0,0 -0.01,0 0,0 0,0 c -0.05,0 -0.07,-0.02 -0.13,-0.09 l -0.51,-0.53 c -0.06,0.08 -0.45,0.62 -1.31,0.62 -1.69,0 -3.35,-1.5 -3.35,-3.07 0,-1.08 0.82,-1.96 2.16,-1.96 0.61,0 1.26,0.16 1.62,0.55 0.07,-0.15 0.26,-0.4 0.35,-0.4 0.06,0 0.07,0.03 0.11,0.17 l 0.13,0.54 c 0.03,0.12 0.13,0.54 0.15,0.62 0.09,0.32 0.09,0.32 0.5,0.33 0.05,0 0.16,0 0.16,0.14 0,0.07 -0.05,0.11 -0.11,0.11 -0.23,0 -0.52,-0.03 -0.76,-0.03 -0.18,0 -0.41,0 -0.58,0.01 -0.18,0.01 -0.38,0.02 -0.55,0.02 -0.05,0 -0.16,0 -0.16,-0.15 0,-0.1 0.08,-0.1 0.26,-0.1 0.13,0 0.27,0 0.4,-0.01 0.22,-0.03 0.23,-0.05 0.23,-0.14 0,-0.03 0,-0.04 -0.05,-0.22 -0.05,-0.19 -0.12,-0.51 -0.15,-0.58 -0.2,-0.42 -0.85,-0.61 -1.4,-0.61 -0.69,0 -1.6,0.33 -1.6,1.51 0,0.74 0.34,1.68 0.86,2.2 0.72,0.71 1.46,0.82 1.85,0.82 0.81,0 1.28,-0.59 1.28,-1.36 0,-0.2 -0.02,-0.25 -0.02,-0.29 0,-0.09 0.09,-0.09 0.13,-0.09 0.11,0 0.11,0.02 0.14,0.15 z"
   inkscape:connector-curvature="0"
   style="fill:#000000;stroke-width:0" />
<path
   id="path4333"
   d="m 320.53,709.61 0,0.08 0,0.07 -0.01,0.08 0,0.08 -0.01,0.17 -0.01,0.18 -0.02,0.18 -0.02,0.19 -0.02,0.2 -0.04,0.19 -0.04,0.21 -0.04,0.21 -0.06,0.21 -0.06,0.21 -0.07,0.21 -0.08,0.21 -0.04,0.11 -0.04,0.11 -0.05,0.1 -0.05,0.11 c -0.6,1.22 -1.46,1.87 -1.56,1.87 -0.06,0 -0.1,-0.04 -0.1,-0.1 0,-0.03 0,-0.05 0.19,-0.23 0.98,-0.98 1.55,-2.57 1.55,-4.65 0,-1.7 -0.37,-3.45 -1.61,-4.7 -0.13,-0.12 -0.13,-0.14 -0.13,-0.17 0,-0.06 0.04,-0.1 0.1,-0.1 0.1,0 1,0.67 1.59,1.94 0.51,1.09 0.63,2.2 0.63,3.03 z"
   inkscape:connector-curvature="0"
   style="fill:#000000;stroke-width:0" />
</g>    <text
       xml:space="preserve"
       style="font-size:40px;font-style:normal;font-weight:normal;line-height:125%;letter-spacing:0px;word-spacing:0px;fill:#000000;fill-opacity:1;stroke:none;font-family:Sans"
       x="40"
       y="532.36218"
       id="text4386"
       sodipodi:linespacing="125%"><tspan
         sodipodi:role="line"
         id="tspan4388"
         x="40"
         y="532.36218"
         style="font-size:60px">Follower</tspan></text>
    <text
       xml:space="preserve"
       style="font-size:40px;font-style:normal;font-weight:normal;line-height:125%;letter-spacing:0px;word-spacing:0px;fill:#000000;fill-opacity:1;stroke:none;font-family:Sans"
       x="40"
       y="172.36218"
       id="text4386-3"
       sodipodi:linespacing="125%"><tspan
         sodipodi:role="line"
         id="tspan4388-2"
         x="40"
         y="172.36218"
         style="font-size:60px">Leader</tspan></text>
  </g>
</svg>
