<?xml version="1.0" encoding="UTF-8" standalone="no"?>
<!-- Created with Inkscape (http://www.inkscape.org/) -->

<svg
   xmlns:dc="http://purl.org/dc/elements/1.1/"
   xmlns:cc="http://creativecommons.org/ns#"
   xmlns:rdf="http://www.w3.org/1999/02/22-rdf-syntax-ns#"
   xmlns:svg="http://www.w3.org/2000/svg"
   xmlns="http://www.w3.org/2000/svg"
   xmlns:sodipodi="http://sodipodi.sourceforge.net/DTD/sodipodi-0.dtd"
   xmlns:inkscape="http://www.inkscape.org/namespaces/inkscape"
   width="110.62094"
   height="68.935211"
   id="svg2"
   version="1.1"
   inkscape:version="0.48.1 "
   sodipodi:docname="New document 1">
  <defs
     id="defs4" />
  <sodipodi:namedview
     id="base"
     pagecolor="#ffffff"
     bordercolor="#666666"
     borderopacity="1.0"
     inkscape:pageopacity="0.0"
     inkscape:pageshadow="2"
     inkscape:zoom="1.0787109"
     inkscape:cx="191.3554"
     inkscape:cy="-0.29511453"
     inkscape:document-units="px"
     inkscape:current-layer="layer1"
     showgrid="false"
     fit-margin-top="0"
     fit-margin-left="0"
     fit-margin-right="0"
     fit-margin-bottom="0"
     inkscape:window-width="1680"
     inkscape:window-height="988"
     inkscape:window-x="-8"
     inkscape:window-y="-8"
     inkscape:window-maximized="1">
    <inkscape:grid
       type="xygrid"
       id="grid2985"
       empspacing="5"
       visible="true"
       enabled="true"
       snapvisiblegridlinesonly="true" />
  </sodipodi:namedview>
  <metadata
     id="metadata7">
    <rdf:RDF>
      <cc:Work
         rdf:about="">
        <dc:format>image/svg+xml</dc:format>
        <dc:type
           rdf:resource="http://purl.org/dc/dcmitype/StillImage" />
        <dc:title></dc:title>
      </cc:Work>
    </rdf:RDF>
  </metadata>
  <g
     inkscape:label="Layer 1"
     inkscape:groupmode="layer"
     id="layer1"
     transform="translate(-39.027547,-463.13185)">
    <path
       style="fill:none;stroke:#f7a80c;stroke-width:2;stroke-linecap:butt;stroke-linejoin:miter;stroke-miterlimit:4;stroke-opacity:1;stroke-dasharray:none"
       d="m 50,488.39694 c 15.066128,12.66532 20,10 30,0 7.448495,-3.64501 6.766206,-18.90542 30,0 29.9735,29.4847 51.38979,46.33731 30,0"
       id="path3791"
       inkscape:connector-curvature="0"
       sodipodi:nodetypes="cccc" />
    <path
       style="fill:none;stroke:#84f20f;stroke-width:2;stroke-linecap:butt;stroke-linejoin:miter;stroke-miterlimit:4;stroke-opacity:1;stroke-dasharray:none"
       d="m 50.927032,487.46991 c -5.891154,24.5924 -29.760064,84.39124 20,0 17.006895,-30.83034 25.303395,-23.33494 29.999998,0 4.35165,16.20515 8.43667,34.27664 20,0 12.03375,-23.25737 14.93511,-6.94105 20,0"
       id="path3787"
       inkscape:connector-curvature="0"
       sodipodi:nodetypes="ccccc" />
    <path
       style="fill:none;stroke:#f32ef3;stroke-width:2;stroke-linecap:butt;stroke-linejoin:miter;stroke-miterlimit:4;stroke-opacity:1;stroke-dasharray:none"
       d="m 50,487.92437 c -2.179937,-44.24741 57.05121,-4.05458 90,0"
       id="path3779"
       inkscape:connector-curvature="0"
       sodipodi:nodetypes="cc" />
    <path
       sodipodi:type="arc"
       style="fill:#18506a;fill-opacity:1;stroke:none"
       id="path2987"
       sodipodi:cx="55"
       sodipodi:cy="497.36218"
       sodipodi:rx="5"
       sodipodi:ry="5"
       d="m 60,497.36218 c 0,2.76143 -2.238576,5 -5,5 -2.761424,0 -5,-2.23857 -5,-5 0,-2.76142 2.238576,-5 5,-5 2.761424,0 5,2.23858 5,5 z"
       transform="translate(-5,-10)" />
    <path
       transform="translate(85,-10)"
       sodipodi:type="arc"
       style="fill:#d54a15;fill-opacity:1;stroke:none"
       id="path2987-1"
       sodipodi:cx="55"
       sodipodi:cy="497.36218"
       sodipodi:rx="5"
       sodipodi:ry="5"
       d="m 60,497.36218 c 0,2.76143 -2.238576,5 -5,5 -2.761424,0 -5,-2.23857 -5,-5 0,-2.76142 2.238576,-5 5,-5 2.761424,0 5,2.23858 5,5 z" />
    <path
       style="fill:none;stroke:#0f57fe;stroke-width:2;stroke-linecap:butt;stroke-linejoin:miter;stroke-miterlimit:4;stroke-opacity:1;stroke-dasharray:none"
       d="m 50.927032,483.62418 c 8.87423,-6.62269 26.776532,-40.3296 20,0 -5.455164,25.59053 3.2455,21.29654 20,0 12.750258,-13.68809 17.008498,-8.26913 19.999998,0 4.53609,6.39174 8.3076,15.0772 20,0 5.25317,-4.7996 9.64172,-7.43763 10,0"
       id="path3789"
       inkscape:connector-curvature="0"
       sodipodi:nodetypes="cccccc" />
  </g>
</svg>
