<?xml version="1.0" encoding="UTF-8" standalone="no"?>
<!-- Created with Inkscape (http://www.inkscape.org/) -->

<svg
   xmlns:dc="http://purl.org/dc/elements/1.1/"
   xmlns:cc="http://creativecommons.org/ns#"
   xmlns:rdf="http://www.w3.org/1999/02/22-rdf-syntax-ns#"
   xmlns:svg="http://www.w3.org/2000/svg"
   xmlns="http://www.w3.org/2000/svg"
   xmlns:sodipodi="http://sodipodi.sourceforge.net/DTD/sodipodi-0.dtd"
   xmlns:inkscape="http://www.inkscape.org/namespaces/inkscape"
   width="490"
   height="650"
   id="svg2"
   version="1.1"
   inkscape:version="0.48.3.1 r9886"
   sodipodi:docname="backward_prune.svg">
  <defs
     id="defs4">
    <marker
       inkscape:stockid="TriangleOutM"
       orient="auto"
       refY="0.0"
       refX="0.0"
       id="TriangleOutM"
       style="overflow:visible">
      <path
         id="path5802"
         d="M 5.77,0.0 L -2.88,5.0 L -2.88,-5.0 L 5.77,0.0 z "
         style="fill-rule:evenodd;stroke:#000000;stroke-width:1.0pt"
         transform="scale(0.4)" />
    </marker>
    <marker
       inkscape:stockid="Arrow2Mend"
       orient="auto"
       refY="0"
       refX="0"
       id="Arrow2Mend"
       style="overflow:visible">
      <path
         id="path3851"
         style="font-size:12px;fill-rule:evenodd;stroke-width:0.625;stroke-linejoin:round"
         d="M 8.7185878,4.0337352 -2.2072895,0.01601326 8.7185884,-4.0017078 c -1.7454984,2.3720609 -1.7354408,5.6174519 -6e-7,8.035443 z"
         transform="scale(-0.6,-0.6)"
         inkscape:connector-curvature="0" />
    </marker>
  </defs>
  <sodipodi:namedview
     id="base"
     pagecolor="#ffffff"
     bordercolor="#666666"
     borderopacity="1.0"
     inkscape:pageopacity="0.0"
     inkscape:pageshadow="2"
     inkscape:zoom="0.35"
     inkscape:cx="-68.943663"
     inkscape:cy="240"
     inkscape:document-units="px"
     inkscape:current-layer="layer1"
     showgrid="false"
     fit-margin-top="0"
     fit-margin-left="0"
     fit-margin-right="0"
     fit-margin-bottom="0"
     inkscape:window-width="1215"
     inkscape:window-height="1000"
     inkscape:window-x="65"
     inkscape:window-y="24"
     inkscape:window-maximized="1">
    <inkscape:grid
       type="xygrid"
       id="grid2985"
       empspacing="5"
       visible="true"
       enabled="true"
       snapvisiblegridlinesonly="true" />
  </sodipodi:namedview>
  <metadata
     id="metadata7">
    <rdf:RDF>
      <cc:Work
         rdf:about="">
        <dc:format>image/svg+xml</dc:format>
        <dc:type
           rdf:resource="http://purl.org/dc/dcmitype/StillImage" />
        <dc:title />
      </cc:Work>
    </rdf:RDF>
  </metadata>
  <g
     inkscape:label="Layer 1"
     inkscape:groupmode="layer"
     id="layer1"
     transform="translate(-150,-122.36218)">
    <path
       sodipodi:type="arc"
       style="fill:#8a8a8a;fill-opacity:1;stroke:#2c6cf6;stroke-width:20;stroke-miterlimit:4;stroke-opacity:1;stroke-dasharray:none"
       id="path2987"
       sodipodi:cx="240"
       sodipodi:cy="212.36218"
       sodipodi:rx="80"
       sodipodi:ry="80"
       d="m 320,212.36218 c 0,44.18278 -35.81722,80 -80,80 -44.18278,0 -80,-35.81722 -80,-80 0,-44.18278 35.81722,-80 80,-80 44.18278,0 80,35.81722 80,80 z" />
    <path
       transform="translate(0,240)"
       sodipodi:type="arc"
       style="fill:#8a8a8a;fill-opacity:1;stroke:none"
       id="path2987-1"
       sodipodi:cx="240"
       sodipodi:cy="212.36218"
       sodipodi:rx="80"
       sodipodi:ry="80"
       d="m 320,212.36218 c 0,44.18278 -35.81722,80 -80,80 -44.18278,0 -80,-35.81722 -80,-80 0,-44.18278 35.81722,-80 80,-80 44.18278,0 80,35.81722 80,80 z"
       inkscape:transform-center-y="120" />
    <path
       transform="translate(0,480)"
       sodipodi:type="arc"
       style="fill:#8a8a8a;fill-opacity:1;stroke:none"
       id="path2987-1-5"
       sodipodi:cx="240"
       sodipodi:cy="212.36218"
       sodipodi:rx="80"
       sodipodi:ry="80"
       d="m 320,212.36218 c 0,44.18278 -35.81722,80 -80,80 -44.18278,0 -80,-35.81722 -80,-80 0,-44.18278 35.81722,-80 80,-80 44.18278,0 80,35.81722 80,80 z"
       inkscape:transform-center-y="120" />
    <path
       transform="translate(320,0)"
       sodipodi:type="arc"
       style="fill:#8a8a8a;fill-opacity:1;stroke:none"
       id="path2987-8"
       sodipodi:cx="240"
       sodipodi:cy="212.36218"
       sodipodi:rx="80"
       sodipodi:ry="80"
       d="m 320,212.36218 c 0,44.18278 -35.81722,80 -80,80 -44.18278,0 -80,-35.81722 -80,-80 0,-44.18278 35.81722,-80 80,-80 44.18278,0 80,35.81722 80,80 z" />
    <path
       transform="translate(320,240)"
       sodipodi:type="arc"
       style="fill:#8a8a8a;fill-opacity:1;stroke:none"
       id="path2987-1-7"
       sodipodi:cx="240"
       sodipodi:cy="212.36218"
       sodipodi:rx="80"
       sodipodi:ry="80"
       d="m 320,212.36218 c 0,44.18278 -35.81722,80 -80,80 -44.18278,0 -80,-35.81722 -80,-80 0,-44.18278 35.81722,-80 80,-80 44.18278,0 80,35.81722 80,80 z"
       inkscape:transform-center-y="120" />
    <path
       transform="translate(320,480)"
       sodipodi:type="arc"
       style="fill:#8a8a8a;fill-opacity:1;stroke:none"
       id="path2987-1-5-2"
       sodipodi:cx="240"
       sodipodi:cy="212.36218"
       sodipodi:rx="80"
       sodipodi:ry="80"
       d="m 320,212.36218 c 0,44.18278 -35.81722,80 -80,80 -44.18278,0 -80,-35.81722 -80,-80 0,-44.18278 35.81722,-80 80,-80 44.18278,0 80,35.81722 80,80 z"
       inkscape:transform-center-y="120" />
    <path
       style="fill:none;stroke:#000000;stroke-width:8.98191261;stroke-linecap:butt;stroke-linejoin:miter;stroke-miterlimit:4;stroke-opacity:1;stroke-dasharray:none;marker-end:url(#TriangleOutM)"
       d="m 319.49096,451.85314 150.2193,206.22587"
       id="path4447"
       inkscape:connector-curvature="0" />
    <path
       style="fill:none;stroke:#000000;stroke-width:9.31025982;stroke-linecap:butt;stroke-linejoin:miter;stroke-miterlimit:4;stroke-opacity:1;stroke-dasharray:none;marker-end:url(#TriangleOutM)"
       d="m 320,692.36218 138.6895,0"
       id="path4631"
       inkscape:connector-curvature="0" />
    <path
       style="fill:none;stroke:#000000;stroke-width:9.17557335;stroke-linecap:butt;stroke-linejoin:miter;stroke-miterlimit:4;stroke-opacity:1;stroke-dasharray:none;marker-end:url(#TriangleOutM)"
       d="M 319.58779,692.77439 466.94084,473.37344"
       id="path5001"
       inkscape:connector-curvature="0" />
    <path
       style="fill:none;stroke:#000000;stroke-width:9.38602257;stroke-linecap:butt;stroke-linejoin:miter;stroke-miterlimit:4;stroke-opacity:1;stroke-dasharray:none;marker-end:url(#TriangleOutM)"
       d="M 319.69301,452.66917 466.84835,222.78006"
       id="path5185"
       inkscape:connector-curvature="0" />
  </g>
</svg>
