<?xml version="1.0" encoding="UTF-8" standalone="no"?>
<!-- Created with Inkscape (http://www.inkscape.org/) -->

<svg
   xmlns:ns0="http://www.iki.fi/pav/software/textext/"
   xmlns:dc="http://purl.org/dc/elements/1.1/"
   xmlns:cc="http://creativecommons.org/ns#"
   xmlns:rdf="http://www.w3.org/1999/02/22-rdf-syntax-ns#"
   xmlns:svg="http://www.w3.org/2000/svg"
   xmlns="http://www.w3.org/2000/svg"
   xmlns:sodipodi="http://sodipodi.sourceforge.net/DTD/sodipodi-0.dtd"
   xmlns:inkscape="http://www.inkscape.org/namespaces/inkscape"
   width="210mm"
   height="297mm"
   id="svg2985"
   version="1.1"
   inkscape:version="0.48.1 "
   sodipodi:docname="multipartite_expandingtree.svg">
  <sodipodi:namedview
     inkscape:document-units="mm"
     id="base"
     pagecolor="#ffffff"
     bordercolor="#666666"
     borderopacity="1.0"
     inkscape:pageopacity="0.0"
     inkscape:pageshadow="2"
     inkscape:zoom="0.59951056"
     inkscape:cx="98.722196"
     inkscape:cy="471.28376"
     inkscape:current-layer="layer1"
     showgrid="false"
     inkscape:window-width="1280"
     inkscape:window-height="962"
     inkscape:window-x="-8"
     inkscape:window-y="-8"
     inkscape:window-maximized="1">
    <inkscape:grid
       id="grid24314"
       type="xygrid" />
  </sodipodi:namedview>
  <defs
     id="defs3" />
  <metadata
     id="metadata4">
    <rdf:RDF>
      <cc:Work
         rdf:about="">
        <dc:format>image/svg+xml</dc:format>
        <dc:type
           rdf:resource="http://purl.org/dc/dcmitype/StillImage" />
        <dc:title />
      </cc:Work>
    </rdf:RDF>
  </metadata>
  <g
     id="layer1"
     inkscape:groupmode="layer"
     inkscape:label="Layer 1">
    <path
       sodipodi:nodetypes="cc"
       inkscape:connector-curvature="0"
       id="path24188-0"
       d="m 320,812.36218 160,-140"
       style="fill:none;stroke:#7d7d7d;stroke-width:7.08661413000000010;stroke-linecap:butt;stroke-linejoin:miter;stroke-miterlimit:4;stroke-opacity:1;stroke-dasharray:none" />
    <text
       sodipodi:linespacing="125%"
       id="text3082"
       y="863.52289"
       x="66.964287"
       style="font-size:40px;font-style:normal;font-weight:normal;line-height:125%;letter-spacing:0px;word-spacing:0px;fill:#000000;fill-opacity:1;stroke:none;font-family:Sans"
       xml:space="preserve"><tspan
         style="font-size:4px"
         y="863.52289"
         x="66.964287"
         id="tspan3084"
         sodipodi:role="line" /></text>
    <path
       sodipodi:nodetypes="cc"
       inkscape:connector-curvature="0"
       id="path24188-4-0-1"
       d="M 472.95922,821.29958 604.58643,447.74309"
       style="fill:none;stroke:#7d7d7d;stroke-width:1.77165353;stroke-linecap:butt;stroke-linejoin:miter;stroke-miterlimit:4;stroke-opacity:1;stroke-dasharray:14.17322835, 14.17322835;stroke-dashoffset:0" />
    <path
       sodipodi:nodetypes="cc"
       inkscape:connector-curvature="0"
       id="path24188-4-0-7"
       d="M 474.62725,824.63564 599.58236,567.84106"
       style="fill:none;stroke:#7d7d7d;stroke-width:1.77165353;stroke-linecap:butt;stroke-linejoin:miter;stroke-miterlimit:4;stroke-opacity:1;stroke-dasharray:14.17322835, 14.17322835;stroke-dashoffset:0" />
    <path
       sodipodi:nodetypes="cc"
       inkscape:connector-curvature="0"
       id="path24188-4-0-0"
       d="M 472.95922,679.51726 606.25446,227.56348"
       style="fill:none;stroke:#7d7d7d;stroke-width:1.77165353;stroke-linecap:butt;stroke-linejoin:miter;stroke-miterlimit:4;stroke-opacity:1;stroke-dasharray:14.17322835, 14.17322835;stroke-dashoffset:0" />
    <path
       sodipodi:nodetypes="cc"
       inkscape:connector-curvature="0"
       id="path24188-4-0-8"
       d="M 476.29527,681.18528 604.58644,356.00159"
       style="fill:none;stroke:#7d7d7d;stroke-width:1.77165353;stroke-linecap:butt;stroke-linejoin:miter;stroke-miterlimit:4;stroke-opacity:1;stroke-dasharray:14.17322835, 14.17322835;stroke-dashoffset:0" />
    <path
       sodipodi:nodetypes="cc"
       inkscape:connector-curvature="0"
       id="path24188-4-0-6"
       d="M 317.83268,679.51726 426.10752,314.3009"
       style="fill:none;stroke:#7d7d7d;stroke-width:1.77165353;stroke-linecap:butt;stroke-linejoin:miter;stroke-miterlimit:4;stroke-opacity:1;stroke-dasharray:14.17322835, 14.17322835;stroke-dashoffset:0" />
    <path
       sodipodi:nodetypes="cc"
       inkscape:connector-curvature="0"
       id="path24188-4-0-5"
       d="M 321.16873,819.63155 426.10751,497.78391"
       style="fill:none;stroke:#7d7d7d;stroke-width:1.77165353;stroke-linecap:butt;stroke-linejoin:miter;stroke-miterlimit:4;stroke-opacity:1;stroke-dasharray:14.17322835, 14.17322835;stroke-dashoffset:0" />
    <path
       sodipodi:nodetypes="cc"
       inkscape:connector-curvature="0"
       id="path24188-4-0"
       d="M 176.88437,733.72815 245.12655,405.2084"
       style="fill:none;stroke:#7d7d7d;stroke-width:1.77165353;stroke-linecap:butt;stroke-linejoin:miter;stroke-miterlimit:4;stroke-opacity:1;stroke-dasharray:14.17322835, 14.17322835;stroke-dashoffset:0" />
    <path
       sodipodi:nodetypes="cc"
       inkscape:connector-curvature="0"
       id="path24188-24"
       d="m 424.5599,488.2712 180,80"
       style="fill:none;stroke:#7d7d7d;stroke-width:7.08661413;stroke-linecap:butt;stroke-linejoin:miter;stroke-miterlimit:4;stroke-opacity:1;stroke-dasharray:none" />
    <path
       sodipodi:nodetypes="cc"
       inkscape:connector-curvature="0"
       id="path24188-90"
       d="m 424.5599,488.2712 180,-40"
       style="fill:none;stroke:#7d7d7d;stroke-width:7.08661413;stroke-linecap:butt;stroke-linejoin:miter;stroke-miterlimit:4;stroke-opacity:1;stroke-dasharray:none" />
    <path
       sodipodi:nodetypes="cc"
       inkscape:connector-curvature="0"
       id="path24188-2"
       d="m 424.5599,308.2712 180,40"
       style="fill:none;stroke:#ff0000;stroke-width:7.08661413000000010;stroke-linecap:butt;stroke-linejoin:miter;stroke-miterlimit:4;stroke-opacity:1;stroke-dasharray:none" />
    <path
       sodipodi:nodetypes="cc"
       inkscape:connector-curvature="0"
       id="path24188-8"
       d="m 424.5599,308.2712 180,-79.99999"
       style="fill:none;stroke:#7d7d7d;stroke-width:7.08661413;stroke-linecap:butt;stroke-linejoin:miter;stroke-miterlimit:4;stroke-opacity:1;stroke-dasharray:none" />
    <path
       sodipodi:nodetypes="cc"
       inkscape:connector-curvature="0"
       id="path24188-02"
       d="m 244.5599,408.2712 180,80"
       style="fill:none;stroke:#7d7d7d;stroke-width:7.08661413;stroke-linecap:butt;stroke-linejoin:miter;stroke-miterlimit:4;stroke-opacity:1;stroke-dasharray:none" />
    <path
       sodipodi:nodetypes="cc"
       inkscape:connector-curvature="0"
       id="path24188-4"
       d="m 244.5599,408.2712 180,-100"
       style="fill:none;stroke:#ff0000;stroke-width:7.08661413000000010;stroke-linecap:butt;stroke-linejoin:miter;stroke-miterlimit:4;stroke-opacity:1;stroke-dasharray:none" />
    <path
       sodipodi:nodetypes="cc"
       inkscape:connector-curvature="0"
       id="path24188-5"
       d="m 320,812.36218 160,0"
       style="fill:none;stroke:#7d7d7d;stroke-width:7.08661413;stroke-linecap:butt;stroke-linejoin:miter;stroke-miterlimit:4;stroke-opacity:1;stroke-dasharray:none" />
    <path
       sodipodi:nodetypes="cc"
       inkscape:connector-curvature="0"
       id="path24188-6"
       d="m 320,672.36218 160,0"
       style="fill:none;stroke:#7d7d7d;stroke-width:7.08661413;stroke-linecap:butt;stroke-linejoin:miter;stroke-miterlimit:4;stroke-opacity:1;stroke-dasharray:none" />
    <path
       sodipodi:nodetypes="cc"
       inkscape:connector-curvature="0"
       id="path24188-1"
       d="m 320,672.36218 160,140"
       style="fill:none;stroke:#ff0000;stroke-width:7.08661413000000010;stroke-linecap:butt;stroke-linejoin:miter;stroke-miterlimit:4;stroke-opacity:1;stroke-dasharray:none" />
    <path
       sodipodi:nodetypes="cc"
       inkscape:connector-curvature="0"
       id="path24188-9"
       d="m 180,732.36218 140,80"
       style="fill:none;stroke:#7d7d7d;stroke-width:7.08661413;stroke-linecap:butt;stroke-linejoin:miter;stroke-miterlimit:4;stroke-opacity:1;stroke-dasharray:none" />
    <path
       sodipodi:nodetypes="cc"
       inkscape:connector-curvature="0"
       id="path24188"
       d="M 183.483,733.76897 320,672.36218"
       style="fill:none;stroke:#ff0000;stroke-width:7.08661413000000010;stroke-linecap:butt;stroke-linejoin:miter;stroke-miterlimit:4;stroke-opacity:1;stroke-dasharray:none" />
    <path
       d="m 151.42857,855.2193 a 28.571428,22.857143 0 1 1 -57.142859,0 28.571428,22.857143 0 1 1 57.142859,0 z"
       sodipodi:ry="22.857143"
       sodipodi:rx="28.571428"
       sodipodi:cy="855.2193"
       sodipodi:cx="122.85714"
       id="path2991"
       style="fill:none;stroke:none"
       sodipodi:type="arc" />
    <path
       d="m 92.767857,848.12109 a 2.1428571,2.7232144 0 1 1 -4.285714,0 2.1428571,2.7232144 0 1 1 4.285714,0 z"
       sodipodi:ry="2.7232144"
       sodipodi:rx="2.1428571"
       sodipodi:cy="848.12109"
       sodipodi:cx="90.625"
       id="path3001"
       style="fill:none;stroke:none"
       sodipodi:type="arc" />
    <path
       d="m 92.41072,849.37109 a 0.08928572,0.40178573 0 1 1 -0.178572,0 0.08928572,0.40178573 0 1 1 0.178572,0 z"
       sodipodi:ry="0.40178573"
       sodipodi:rx="0.089285716"
       sodipodi:cy="849.37109"
       sodipodi:cx="92.321434"
       id="path3003"
       style="fill:none;stroke:none"
       sodipodi:type="arc" />
    <path
       d="m 97.232142,848.0318 a 2.9464285,2.0982144 0 1 1 -5.892857,0 2.9464285,2.0982144 0 1 1 5.892857,0 z"
       sodipodi:ry="2.0982144"
       sodipodi:rx="2.9464285"
       sodipodi:cy="848.0318"
       sodipodi:cx="94.285713"
       id="path3005"
       style="fill:none;stroke:none"
       sodipodi:type="arc" />
    <path
       d="m 94.107142,841.6925 a 0.13392857,0.40178573 0 1 1 -0.267857,0 0.13392857,0.40178573 0 1 1 0.267857,0 z"
       sodipodi:ry="0.40178573"
       sodipodi:rx="0.13392857"
       sodipodi:cy="841.6925"
       sodipodi:cx="93.973213"
       id="path3013"
       style="fill:none;stroke:none"
       sodipodi:type="arc" />
    <path
       d="m 99.821429,864.14789 a 4.8214288,5.2678571 0 1 1 -9.642858,0 4.8214288,5.2678571 0 1 1 9.642858,0 z"
       sodipodi:ry="5.2678571"
       sodipodi:rx="4.8214288"
       sodipodi:cy="864.14789"
       sodipodi:cx="95"
       id="path3029"
       style="fill:none;stroke:none"
       sodipodi:type="arc" />
    <path
       sodipodi:end="7.3967863"
       sodipodi:start="3.2167843"
       d="m 90.192194,852.03712 a 4.8214288,2.5446429 0 1 1 6.936145,2.47444 L 95,852.22827 z"
       sodipodi:ry="2.5446429"
       sodipodi:rx="4.8214288"
       sodipodi:cy="852.22827"
       sodipodi:cx="95"
       id="path3033"
       style="fill:none;stroke:none"
       sodipodi:type="arc" />
    <path
       transform="matrix(24.344958,0,0,24.691081,-1392.6381,-20928.05)"
       d="m 69.107144,863.9693 a 1.8303572,1.7857144 0 1 1 -3.660714,0 1.8303572,1.7857144 0 1 1 3.660714,0 z"
       sodipodi:ry="1.7857144"
       sodipodi:rx="1.8303572"
       sodipodi:cy="863.9693"
       sodipodi:cx="67.276787"
       id="path3041-45"
       style="color:#000000;fill:#add262;fill-opacity:1;stroke:#ff0000;stroke-width:0.28904417;marker:none;visibility:visible;display:inline;overflow:visible;enable-background:accumulate;stroke-opacity:1;stroke-miterlimit:4;stroke-dasharray:none"
       sodipodi:type="arc" />
    <path
       transform="matrix(24.344958,0,0,24.691082,-1459.8849,-20600.056)"
       d="m 69.107144,863.9693 a 1.8303572,1.7857144 0 1 1 -3.660714,0 1.8303572,1.7857144 0 1 1 3.660714,0 z"
       sodipodi:ry="1.7857144"
       sodipodi:rx="1.8303572"
       sodipodi:cy="863.9693"
       sodipodi:cx="67.276787"
       id="path3041"
       style="color:#000000;fill:#ffc51a;fill-opacity:1;stroke:#ff0000;stroke-width:0.28904417;marker:none;visibility:visible;display:inline;overflow:visible;enable-background:accumulate;stroke-miterlimit:4;stroke-dasharray:none;stroke-opacity:1"
       sodipodi:type="arc" />
    <path
       transform="matrix(24.344958,0,0,24.691082,-1317.8505,-20655.883)"
       d="m 69.107144,863.9693 a 1.8303572,1.7857144 0 1 1 -3.660714,0 1.8303572,1.7857144 0 1 1 3.660714,0 z"
       sodipodi:ry="1.7857144"
       sodipodi:rx="1.8303572"
       sodipodi:cy="863.9693"
       sodipodi:cx="67.276787"
       id="path3041-2"
       style="color:#000000;fill:#ffc51a;fill-opacity:1;stroke:#ff0000;stroke-width:0.28904417;marker:none;visibility:visible;display:inline;overflow:visible;enable-background:accumulate;stroke-opacity:1;stroke-miterlimit:4;stroke-dasharray:none"
       sodipodi:type="arc" />
    <path
       transform="matrix(24.344958,0,0,24.691082,-1317.8505,-20515.883)"
       d="m 69.107144,863.9693 a 1.8303572,1.7857144 0 1 1 -3.660714,0 1.8303572,1.7857144 0 1 1 3.660714,0 z"
       sodipodi:ry="1.7857144"
       sodipodi:rx="1.8303572"
       sodipodi:cy="863.9693"
       sodipodi:cx="67.276787"
       id="path3041-1"
       style="color:#000000;fill:#ffc51a;fill-opacity:1;stroke:none;stroke-width:1px;marker:none;visibility:visible;display:inline;overflow:visible;enable-background:accumulate"
       sodipodi:type="arc" />
    <path
       transform="matrix(24.344958,0,0,24.691082,-1157.8505,-20655.883)"
       d="m 69.107144,863.9693 a 1.8303572,1.7857144 0 1 1 -3.660714,0 1.8303572,1.7857144 0 1 1 3.660714,0 z"
       sodipodi:ry="1.7857144"
       sodipodi:rx="1.8303572"
       sodipodi:cy="863.9693"
       sodipodi:cx="67.276787"
       id="path3041-8"
       style="color:#000000;fill:#ffc51a;fill-opacity:1;stroke:none;stroke-width:1px;marker:none;visibility:visible;display:inline;overflow:visible;enable-background:accumulate"
       sodipodi:type="arc" />
    <path
       transform="matrix(24.344958,0,0,24.691082,-1157.8505,-20515.883)"
       d="m 69.107144,863.9693 a 1.8303572,1.7857144 0 1 1 -3.660714,0 1.8303572,1.7857144 0 1 1 3.660714,0 z"
       sodipodi:ry="1.7857144"
       sodipodi:rx="1.8303572"
       sodipodi:cy="863.9693"
       sodipodi:cx="67.276787"
       id="path3041-20"
       style="color:#000000;fill:#ffc51a;fill-opacity:1;stroke:#ff0000;stroke-width:0.28904417;marker:none;visibility:visible;display:inline;overflow:visible;enable-background:accumulate;stroke-opacity:1;stroke-miterlimit:4;stroke-dasharray:none"
       sodipodi:type="arc" />
    <path
       transform="matrix(24.344958,0,0,24.691081,-1213.2905,-20839.974)"
       d="m 69.107144,863.9693 a 1.8303572,1.7857144 0 1 1 -3.660714,0 1.8303572,1.7857144 0 1 1 3.660714,0 z"
       sodipodi:ry="1.7857144"
       sodipodi:rx="1.8303572"
       sodipodi:cy="863.9693"
       sodipodi:cx="67.276787"
       id="path3041-45-9"
       style="color:#000000;fill:#add262;fill-opacity:1;stroke:none;stroke-width:1px;marker:none;visibility:visible;display:inline;overflow:visible;enable-background:accumulate"
       sodipodi:type="arc" />
    <path
       transform="matrix(24.344958,0,0,24.691081,-1212.9967,-21019.78)"
       d="m 69.107144,863.9693 a 1.8303572,1.7857144 0 1 1 -3.660714,0 1.8303572,1.7857144 0 1 1 3.660714,0 z"
       sodipodi:ry="1.7857144"
       sodipodi:rx="1.8303572"
       sodipodi:cy="863.9693"
       sodipodi:cx="67.276787"
       id="path3041-45-8"
       style="color:#000000;fill:#add262;fill-opacity:1;stroke:#ff0000;stroke-width:0.28904417;marker:none;visibility:visible;display:inline;overflow:visible;enable-background:accumulate;stroke-opacity:1;stroke-miterlimit:4;stroke-dasharray:none"
       sodipodi:type="arc" />
    <path
       transform="matrix(24.344958,0,0,24.691081,-1037.8505,-20764.065)"
       d="m 69.107144,863.9693 a 1.8303572,1.7857144 0 1 1 -3.660714,0 1.8303572,1.7857144 0 1 1 3.660714,0 z"
       sodipodi:ry="1.7857144"
       sodipodi:rx="1.8303572"
       sodipodi:cy="863.9693"
       sodipodi:cx="67.276787"
       id="path3041-45-0"
       style="color:#000000;fill:#add262;fill-opacity:1;stroke:none;stroke-width:1px;marker:none;visibility:visible;display:inline;overflow:visible;enable-background:accumulate"
       sodipodi:type="arc" />
    <path
       transform="matrix(24.344958,0,0,24.691081,-1037.8505,-20884.065)"
       d="m 69.107144,863.9693 a 1.8303572,1.7857144 0 1 1 -3.660714,0 1.8303572,1.7857144 0 1 1 3.660714,0 z"
       sodipodi:ry="1.7857144"
       sodipodi:rx="1.8303572"
       sodipodi:cy="863.9693"
       sodipodi:cx="67.276787"
       id="path3041-45-3"
       style="color:#000000;fill:#add262;fill-opacity:1;stroke:none;stroke-width:1px;marker:none;visibility:visible;display:inline;overflow:visible;enable-background:accumulate"
       sodipodi:type="arc" />
    <path
       transform="matrix(24.344958,0,0,24.691081,-1033.2905,-20979.974)"
       d="m 69.107144,863.9693 a 1.8303572,1.7857144 0 1 1 -3.660714,0 1.8303572,1.7857144 0 1 1 3.660714,0 z"
       sodipodi:ry="1.7857144"
       sodipodi:rx="1.8303572"
       sodipodi:cy="863.9693"
       sodipodi:cx="67.276787"
       id="path3041-45-6"
       style="color:#000000;fill:#add262;fill-opacity:1;stroke:#ff0000;stroke-width:0.28904417;marker:none;visibility:visible;display:inline;overflow:visible;enable-background:accumulate;stroke-opacity:1;stroke-miterlimit:4;stroke-dasharray:none"
       sodipodi:type="arc" />
    <path
       transform="matrix(24.344958,0,0,24.691081,-1033.2905,-21099.974)"
       d="m 69.107144,863.9693 a 1.8303572,1.7857144 0 1 1 -3.660714,0 1.8303572,1.7857144 0 1 1 3.660714,0 z"
       sodipodi:ry="1.7857144"
       sodipodi:rx="1.8303572"
       sodipodi:cy="863.9693"
       sodipodi:cx="67.276787"
       id="path3041-45-02"
       style="color:#000000;fill:#add262;fill-opacity:1;stroke:none;stroke-width:1px;marker:none;visibility:visible;display:inline;overflow:visible;enable-background:accumulate"
       sodipodi:type="arc" />
    <g
       ns0:preamble=""
       ns0:text="$ v^{1}_{1} $"
       word-spacing="normal"
       letter-spacing="normal"
       font-size-adjust="none"
       font-stretch="normal"
       font-weight="normal"
       font-variant="normal"
       font-style="normal"
       stroke-miterlimit="10.433"
       xml:space="preserve"
       transform="matrix(5.0221643,0,0,-5.1012617,-966.48711,4353.6722)"
       id="content"
       style="font-style:normal;font-variant:normal;font-weight:normal;font-stretch:normal;letter-spacing:normal;word-spacing:normal;text-anchor:start;fill:none;stroke:#000000;stroke-linecap:butt;stroke-linejoin:miter;stroke-miterlimit:10.43299961;stroke-opacity:1;stroke-dasharray:none;stroke-dashoffset:0">
<path
   id="path24515"
   d="m 228.1,710.83 0,0.02 0,0.03 0,0.02 -0.01,0.02 0,0.03 0,0.02 0,0.02 0,0.02 -0.01,0.04 -0.01,0.04 -0.01,0.04 -0.01,0.03 -0.01,0.04 -0.01,0.03 -0.01,0.03 -0.01,0.02 -0.02,0.03 -0.01,0.02 -0.02,0.03 -0.01,0.02 -0.02,0.02 -0.02,0.01 -0.02,0.02 -0.01,0.02 -0.02,0.01 -0.02,0.01 -0.02,0.01 -0.02,0.01 -0.02,0.01 -0.01,0.01 -0.02,0 -0.02,0.01 -0.02,0 -0.02,0 -0.01,0 -0.02,0 c -0.25,0 -0.49,-0.25 -0.49,-0.47 0,-0.13 0.05,-0.19 0.16,-0.3 0.21,-0.2 0.34,-0.46 0.34,-0.82 0,-0.42 -0.61,-2.7 -1.78,-2.7 -0.5,0 -0.73,0.35 -0.73,0.87 0,0.56 0.27,1.28 0.58,2.11 0.06,0.17 0.11,0.31 0.11,0.5 0,0.45 -0.31,0.81 -0.81,0.81 -0.94,0 -1.32,-1.44 -1.32,-1.53 0,-0.1 0.1,-0.1 0.12,-0.1 0.1,0 0.11,0.02 0.16,0.18 0.29,1.01 0.72,1.23 1.01,1.23 0.08,0 0.25,0 0.25,-0.31 0,-0.25 -0.1,-0.52 -0.17,-0.7 -0.44,-1.15 -0.57,-1.61 -0.57,-2.04 0,-1.08 0.88,-1.23 1.33,-1.23 1.68,0 2.25,3.29 2.25,3.81 z"
   inkscape:connector-curvature="0"
   style="fill:#000000;stroke-width:0" />
<path
   id="path24517"
   d="m 230.95,715.16 0,0.01 0,0.01 0,0.01 0,0.01 0,0 0,0.01 0,0.01 0,0 0,0.01 0,0.01 0,0 0,0.01 0,0.01 0,0 0,0.01 0,0 0,0.01 -0.01,0 0,0.01 0,0.01 0,0.01 -0.01,0 0,0.01 0,0 -0.01,0.01 0,0 -0.01,0.01 -0.01,0 -0.01,0 0,0.01 -0.01,0 -0.01,0 -0.01,0 0,0 -0.01,0 0,0 -0.01,0 -0.01,0.01 0,0 -0.01,0 -0.01,0 0,0 -0.01,0 -0.01,0 0,0 -0.01,0 -0.01,0 -0.01,0 -0.01,0 -0.01,0 c -0.44,-0.44 -1.08,-0.45 -1.36,-0.45 v -0.25 c 0.16,0 0.63,0 1.01,0.2 v -3.55 c 0,-0.23 0,-0.32 -0.7,-0.32 h -0.26 v -0.25 c 0.12,0.01 0.98,0.03 1.24,0.03 0.21,0 1.09,-0.02 1.24,-0.03 v 0.25 h -0.26 c -0.7,0 -0.7,0.09 -0.7,0.32 z"
   inkscape:connector-curvature="0"
   style="fill:#000000;stroke-width:0" />
<path
   id="path24519"
   d="m 230.59,709.07 0,0.01 0,0.01 0,0.01 0,0.01 0,0 0,0.01 0,0.01 0,0.01 0,0 0,0.01 0,0.01 0,0 0,0.01 0,0 0,0.01 0,0 0,0.01 0,0 -0.01,0.01 0,0.01 0,0.01 0,0.01 -0.01,0 0,0.01 -0.01,0 0,0.01 -0.01,0 -0.01,0 0,0.01 -0.01,0 -0.01,0 -0.01,0 0,0 -0.01,0 -0.01,0.01 0,0 -0.01,0 0,0 -0.01,0 -0.01,0 0,0 -0.01,0 -0.01,0 0,0 -0.01,0 -0.01,0 -0.01,0 -0.01,0 -0.01,0 -0.01,0 c -0.44,-0.44 -1.07,-0.45 -1.36,-0.45 v -0.25 c 0.17,0 0.63,0 1.01,0.2 v -3.55 c 0,-0.23 0,-0.32 -0.7,-0.32 h -0.26 v -0.25 c 0.12,0.01 0.98,0.03 1.24,0.03 0.21,0 1.09,-0.02 1.24,-0.03 v 0.25 h -0.26 c -0.7,0 -0.7,0.09 -0.7,0.32 z"
   inkscape:connector-curvature="0"
   style="fill:#000000;stroke-width:0" />
</g>    <g
       id="g26255"
       transform="matrix(5.0221643,0,0,-5.1012617,-827.19917,4440.7597)"
       xml:space="preserve"
       stroke-miterlimit="10.433"
       font-style="normal"
       font-variant="normal"
       font-weight="normal"
       font-stretch="normal"
       font-size-adjust="none"
       letter-spacing="normal"
       word-spacing="normal"
       ns0:text="$ v^{2}_{2} $"
       ns0:preamble=""
       style="font-style:normal;font-variant:normal;font-weight:normal;font-stretch:normal;letter-spacing:normal;word-spacing:normal;text-anchor:start;fill:none;stroke:#000000;stroke-linecap:butt;stroke-linejoin:miter;stroke-miterlimit:10.43299961;stroke-opacity:1;stroke-dasharray:none;stroke-dashoffset:0">
<path
   style="fill:#000000;stroke-width:0"
   inkscape:connector-curvature="0"
   d="m 228.1,710.83 0,0.02 0,0.03 0,0.02 -0.01,0.02 0,0.03 0,0.02 0,0.02 0,0.02 -0.01,0.04 -0.01,0.04 -0.01,0.04 -0.01,0.03 -0.01,0.04 -0.01,0.03 -0.01,0.03 -0.01,0.02 -0.02,0.03 -0.01,0.02 -0.02,0.03 -0.01,0.02 -0.02,0.02 -0.02,0.01 -0.02,0.02 -0.01,0.02 -0.02,0.01 -0.02,0.01 -0.02,0.01 -0.02,0.01 -0.02,0.01 -0.01,0.01 -0.02,0 -0.02,0.01 -0.02,0 -0.02,0 -0.01,0 -0.02,0 c -0.25,0 -0.49,-0.25 -0.49,-0.47 0,-0.13 0.05,-0.19 0.16,-0.3 0.21,-0.2 0.34,-0.46 0.34,-0.82 0,-0.42 -0.61,-2.7 -1.78,-2.7 -0.5,0 -0.73,0.35 -0.73,0.87 0,0.56 0.27,1.28 0.58,2.11 0.06,0.17 0.11,0.31 0.11,0.5 0,0.45 -0.31,0.81 -0.81,0.81 -0.94,0 -1.32,-1.44 -1.32,-1.53 0,-0.1 0.1,-0.1 0.12,-0.1 0.1,0 0.11,0.02 0.16,0.18 0.29,1.01 0.72,1.23 1.01,1.23 0.08,0 0.25,0 0.25,-0.31 0,-0.25 -0.1,-0.52 -0.17,-0.7 -0.44,-1.15 -0.57,-1.61 -0.57,-2.04 0,-1.08 0.88,-1.23 1.33,-1.23 1.68,0 2.25,3.29 2.25,3.81 z"
   id="path26257" />
<path
   style="fill:#000000;stroke-width:0"
   inkscape:connector-curvature="0"
   d="m 232.14,712.01 h -0.24 c -0.02,-0.16 -0.09,-0.57 -0.18,-0.64 -0.06,-0.04 -0.59,-0.04 -0.69,-0.04 h -1.28 c 0.73,0.65 0.97,0.84 1.39,1.17 0.51,0.41 1,0.84 1,1.5 0,0.84 -0.74,1.36 -1.63,1.36 -0.87,0 -1.45,-0.61 -1.45,-1.25 0,-0.35 0.3,-0.39 0.37,-0.39 0.16,0 0.37,0.12 0.37,0.37 0,0.13 -0.05,0.37 -0.42,0.37 0.22,0.49 0.69,0.65 1.02,0.65 0.7,0 1.06,-0.55 1.06,-1.11 0,-0.6 -0.43,-1.08 -0.65,-1.33 l -1.68,-1.66 c -0.07,-0.06 -0.07,-0.08 -0.07,-0.27 h 2.87 z"
   id="path26259" />
<path
   style="fill:#000000;stroke-width:0"
   inkscape:connector-curvature="0"
   d="m 231.78,705.92 h -0.24 c -0.02,-0.15 -0.09,-0.57 -0.18,-0.64 -0.06,-0.04 -0.59,-0.04 -0.69,-0.04 h -1.28 c 0.73,0.65 0.97,0.84 1.39,1.17 0.52,0.41 1,0.84 1,1.5 0,0.84 -0.74,1.36 -1.63,1.36 -0.86,0 -1.45,-0.61 -1.45,-1.25 0,-0.35 0.3,-0.38 0.37,-0.38 0.17,0 0.37,0.11 0.37,0.36 0,0.13 -0.05,0.37 -0.41,0.37 0.21,0.5 0.69,0.65 1.01,0.65 0.7,0 1.06,-0.54 1.06,-1.11 0,-0.6 -0.43,-1.08 -0.65,-1.33 l -1.68,-1.66 c -0.07,-0.06 -0.07,-0.07 -0.07,-0.27 h 2.87 z"
   id="path26261" />
</g>    <path
       transform="matrix(12.172479,0,0,12.345541,-734.45152,-10465.808)"
       d="m 69.107144,863.9693 a 1.8303572,1.7857144 0 1 1 -3.660714,0 1.8303572,1.7857144 0 1 1 3.660714,0 z"
       sodipodi:ry="1.7857144"
       sodipodi:rx="1.8303572"
       sodipodi:cy="863.9693"
       sodipodi:cx="67.276787"
       id="path3041-4"
       style="color:#000000;fill:#ffc51a;fill-opacity:1;stroke:none;stroke-width:1px;marker:none;visibility:visible;display:inline;overflow:visible;enable-background:accumulate"
       sodipodi:type="arc" />
    <g
       id="g8105"
       transform="translate(-68.38912,38.364628)">
      <path
         sodipodi:type="arc"
         style="color:#000000;fill:#add262;fill-opacity:1;stroke:none;stroke-width:1px;marker:none;visibility:visible;display:inline;overflow:visible;enable-background:accumulate"
         id="path3041-45-4"
         sodipodi:cx="67.276787"
         sodipodi:cy="863.9693"
         sodipodi:rx="1.8303572"
         sodipodi:ry="1.7857144"
         d="m 69.107144,863.9693 c 0,0.98622 -0.819479,1.78571 -1.830357,1.78571 -1.010879,0 -1.830357,-0.79949 -1.830357,-1.78571 0,-0.98622 0.819478,-1.78572 1.830357,-1.78572 1.010878,0 1.830357,0.7995 1.830357,1.78572 z"
         transform="matrix(12.172479,0,0,12.345541,-667.73044,-10552.544)" />
      <text
         sodipodi:linespacing="125%"
         id="text8071"
         y="123.27095"
         x="191.82314"
         style="font-size:40px;font-style:normal;font-weight:normal;line-height:125%;letter-spacing:0px;word-spacing:0px;fill:#000000;fill-opacity:1;stroke:none;font-family:Sans"
         xml:space="preserve"><tspan
           style="font-size:30px"
           y="123.27095"
           x="191.82314"
           id="tspan8073"
           sodipodi:role="line">node in an expanding tree</tspan></text>
      <text
         sodipodi:linespacing="125%"
         id="text8071-9"
         y="169.21616"
         x="193.02313"
         style="font-size:40px;font-style:normal;font-weight:normal;line-height:125%;letter-spacing:0px;word-spacing:0px;fill:#000000;fill-opacity:1;stroke:none;font-family:Sans"
         xml:space="preserve"><tspan
           style="font-size:30px"
           y="169.21616"
           x="193.02313"
           id="tspan8073-3"
           sodipodi:role="line">vertex in a multi-partite graph</tspan></text>
    </g>
    <g
       id="g3684"
       transform="matrix(3.6161507,0,0,-3.6732385,-419.77013,2921.9114)"
       xml:space="preserve"
       stroke-miterlimit="10.433"
       font-style="normal"
       font-variant="normal"
       font-weight="normal"
       font-stretch="normal"
       font-size-adjust="none"
       letter-spacing="normal"
       word-spacing="normal"
       ns0:text="$ n_{2}^{1(1)} $"
       ns0:preamble=""
       style="font-style:normal;font-variant:normal;font-weight:normal;font-stretch:normal;letter-spacing:normal;word-spacing:normal;text-anchor:start;fill:none;stroke:#000000;stroke-linecap:butt;stroke-linejoin:miter;stroke-miterlimit:10.43299961;stroke-opacity:1;stroke-dasharray:none;stroke-dashoffset:0">
<path
   style="fill:#000000;stroke-width:0"
   inkscape:connector-curvature="0"
   d="m 224.31,707.27 0,-0.02 -0.01,-0.01 0,-0.01 0,-0.02 -0.01,-0.03 -0.01,-0.03 0,-0.04 -0.01,-0.03 -0.01,-0.03 -0.01,-0.03 0,-0.02 0,-0.01 -0.01,-0.02 0,-0.01 0,-0.01 -0.01,-0.02 0,-0.01 0,-0.01 0,-0.01 0,-0.01 -0.01,-0.01 0,-0.01 0,-0.01 0,-0.01 0,0 0,-0.01 c 0,-0.18 0.14,-0.27 0.29,-0.27 0.12,0 0.3,0.08 0.37,0.28 0.01,0.02 0.13,0.49 0.19,0.74 l 0.22,0.89 c 0.06,0.22 0.12,0.44 0.17,0.67 0.03,0.17 0.11,0.46 0.13,0.5 0.15,0.31 0.67,1.21 1.62,1.21 0.45,0 0.54,-0.37 0.54,-0.7 0,-0.61 -0.49,-1.89 -0.65,-2.31 -0.09,-0.23 -0.1,-0.35 -0.1,-0.46 0,-0.47 0.35,-0.82 0.82,-0.82 0.94,0 1.3,1.46 1.3,1.53 0,0.11 -0.09,0.11 -0.12,0.11 -0.1,0 -0.1,-0.04 -0.15,-0.18 -0.2,-0.68 -0.52,-1.24 -1.01,-1.24 -0.17,0 -0.24,0.1 -0.24,0.33 0,0.25 0.09,0.49 0.18,0.71 0.19,0.52 0.61,1.62 0.61,2.19 0,0.66 -0.43,1.06 -1.15,1.06 -0.9,0 -1.39,-0.64 -1.56,-0.86 -0.05,0.55 -0.45,0.86 -0.91,0.86 -0.46,0 -0.65,-0.39 -0.75,-0.57 -0.16,-0.34 -0.3,-0.92 -0.3,-0.96 0,-0.1 0.1,-0.1 0.12,-0.1 0.1,0 0.11,0.01 0.17,0.23 0.17,0.7 0.37,1.18 0.73,1.18 0.2,0 0.31,-0.13 0.31,-0.46 0,-0.2 -0.03,-0.31 -0.16,-0.83 z"
   id="path3686" />
<path
   style="fill:#000000;stroke-width:0"
   inkscape:connector-curvature="0"
   d="m 231.74,716.28 0,0.01 0,0.01 0,0 0,0.01 0,0.01 0,0.01 0,0 0,0.01 0,0.01 0,0 0,0.01 0,0.01 0,0 0,0.01 0,0 0,0.01 0,0 0,0.01 0,0.01 -0.01,0.01 0,0 0,0.01 -0.01,0.01 0,0 -0.01,0.01 0,0 -0.01,0.01 0,0 -0.01,0 -0.01,0 -0.01,0.01 -0.01,0 0,0 -0.01,0 0,0 -0.01,0 -0.01,0 0,0 -0.01,0 -0.01,0 0,0 -0.01,0 -0.01,0 0,0 -0.01,0 -0.01,0 -0.01,0 -0.01,0 0,0 -0.01,0 c -0.45,-0.43 -1.08,-0.44 -1.37,-0.44 v -0.25 c 0.17,0 0.63,0 1.01,0.19 v -3.54 c 0,-0.23 0,-0.32 -0.7,-0.32 h -0.26 v -0.25 c 0.13,0 0.98,0.03 1.24,0.03 0.22,0 1.09,-0.03 1.25,-0.03 v 0.25 h -0.27 c -0.7,0 -0.7,0.09 -0.7,0.32 z"
   id="path3688" />
<path
   style="fill:#000000;stroke-width:0"
   inkscape:connector-curvature="0"
   d="m 235.86,717.07 -0.13,-0.09 -0.11,-0.09 -0.11,-0.09 -0.11,-0.1 -0.1,-0.1 -0.09,-0.1 -0.09,-0.11 -0.08,-0.1 -0.08,-0.11 -0.08,-0.11 -0.07,-0.11 -0.06,-0.11 -0.07,-0.12 -0.05,-0.11 -0.06,-0.12 -0.05,-0.11 -0.04,-0.12 -0.04,-0.12 -0.04,-0.11 -0.04,-0.12 -0.03,-0.11 -0.02,-0.12 -0.03,-0.11 -0.02,-0.12 -0.02,-0.11 -0.02,-0.11 -0.01,-0.11 -0.01,-0.11 -0.01,-0.11 0,-0.1 0,-0.11 -0.01,-0.1 c 0,-0.98 0.3,-2.5 1.68,-3.47 0.05,0 0.13,0 0.13,0.08 0,0.04 -0.02,0.06 -0.06,0.1 -0.93,0.84 -1.27,2.02 -1.27,3.28 0,1.88 0.72,2.8 1.29,3.32 0.02,0.02 0.04,0.04 0.04,0.08 0,0.08 -0.08,0.08 -0.13,0.08 z"
   id="path3690" />
<path
   style="fill:#000000;stroke-width:0"
   inkscape:connector-curvature="0"
   d="m 238.83,716.28 0,0.01 0,0.01 0,0 0,0.01 0,0.01 0,0.01 0,0 0,0.01 0,0.01 0,0 0,0.01 0,0.01 0,0 0,0.01 0,0 -0.01,0.01 0,0 0,0.01 0,0.01 0,0.01 0,0 -0.01,0.01 0,0.01 -0.01,0 0,0.01 -0.01,0 0,0.01 -0.01,0 -0.01,0 -0.01,0 0,0.01 -0.01,0 -0.01,0 0,0 -0.01,0 -0.01,0 0,0 -0.01,0 0,0 -0.01,0 -0.01,0 0,0 -0.01,0 -0.01,0 -0.01,0 0,0 -0.01,0 -0.01,0 -0.01,0 -0.01,0 c -0.44,-0.43 -1.08,-0.44 -1.36,-0.44 v -0.25 c 0.16,0 0.62,0 1.01,0.19 v -3.54 c 0,-0.23 0,-0.32 -0.7,-0.32 h -0.27 v -0.25 c 0.13,0 0.99,0.03 1.24,0.03 0.22,0 1.1,-0.03 1.25,-0.03 v 0.25 h -0.26 c -0.7,0 -0.7,0.09 -0.7,0.32 z"
   id="path3692" />
<path
   style="fill:#000000;stroke-width:0"
   inkscape:connector-curvature="0"
   d="m 241.1,717.07 -0.01,0 0,0 -0.01,0 0,0 -0.01,0 -0.01,0 0,0 -0.01,0 0,0 -0.01,0 0,0 -0.01,0 0,0 -0.01,0 0,-0.01 -0.01,0 0,0 -0.01,0 0,-0.01 -0.01,0 0,0 -0.01,0 0,-0.01 0,0 0,0 0,-0.01 -0.01,0 0,0 0,0 0,-0.01 0,0 0,0 0,0 0,-0.01 0,0 -0.01,0 0,-0.01 0,0 0,0 0,-0.01 0,0 c 0,-0.04 0.02,-0.06 0.06,-0.11 0.6,-0.54 1.27,-1.48 1.27,-3.28 0,-1.45 -0.45,-2.55 -1.2,-3.23 -0.12,-0.12 -0.13,-0.13 -0.13,-0.16 0,-0.04 0.02,-0.08 0.09,-0.08 0.09,0 0.75,0.46 1.21,1.32 0.3,0.58 0.51,1.33 0.51,2.14 0,0.99 -0.3,2.51 -1.67,3.48 z"
   id="path3694" />
<path
   style="fill:#000000;stroke-width:0"
   inkscape:connector-curvature="0"
   d="m 232.93,705.29 h -0.24 c -0.02,-0.15 -0.09,-0.56 -0.18,-0.63 -0.05,-0.04 -0.59,-0.04 -0.69,-0.04 h -1.28 c 0.73,0.64 0.97,0.84 1.39,1.16 0.52,0.42 1,0.85 1,1.51 0,0.84 -0.74,1.35 -1.63,1.35 -0.86,0 -1.45,-0.6 -1.45,-1.24 0,-0.36 0.3,-0.39 0.37,-0.39 0.17,0 0.37,0.12 0.37,0.37 0,0.12 -0.05,0.37 -0.41,0.37 0.21,0.49 0.69,0.64 1.02,0.64 0.69,0 1.05,-0.54 1.05,-1.1 0,-0.61 -0.43,-1.09 -0.65,-1.34 l -1.68,-1.65 c -0.07,-0.07 -0.07,-0.08 -0.07,-0.27 h 2.87 z"
   id="path3696" />
</g>    <g
       style="font-style:normal;font-variant:normal;font-weight:normal;font-stretch:normal;letter-spacing:normal;word-spacing:normal;text-anchor:start;fill:none;stroke:#000000;stroke-linecap:butt;stroke-linejoin:miter;stroke-miterlimit:10.43299961;stroke-opacity:1;stroke-dasharray:none;stroke-dashoffset:0"
       ns0:preamble=""
       ns0:text="$ n_{2}^{2(1)} $"
       word-spacing="normal"
       letter-spacing="normal"
       font-size-adjust="none"
       font-stretch="normal"
       font-weight="normal"
       font-variant="normal"
       font-style="normal"
       stroke-miterlimit="10.433"
       xml:space="preserve"
       transform="matrix(3.6161507,0,0,-3.6732385,-421.43816,3100.3903)"
       id="g3933">
<path
   id="path3935"
   d="m 224.31,707.27 0,-0.02 -0.01,-0.01 0,-0.01 0,-0.02 -0.01,-0.03 -0.01,-0.03 0,-0.04 -0.01,-0.03 -0.01,-0.03 -0.01,-0.03 0,-0.02 0,-0.01 -0.01,-0.02 0,-0.01 0,-0.01 -0.01,-0.02 0,-0.01 0,-0.01 0,-0.01 0,-0.01 -0.01,-0.01 0,-0.01 0,-0.01 0,-0.01 0,0 0,-0.01 c 0,-0.18 0.14,-0.27 0.29,-0.27 0.12,0 0.3,0.08 0.37,0.28 0.01,0.02 0.13,0.49 0.19,0.74 l 0.22,0.89 c 0.06,0.22 0.12,0.44 0.17,0.67 0.03,0.17 0.11,0.46 0.13,0.5 0.15,0.31 0.67,1.21 1.62,1.21 0.45,0 0.54,-0.37 0.54,-0.7 0,-0.61 -0.49,-1.89 -0.65,-2.31 -0.09,-0.23 -0.1,-0.35 -0.1,-0.46 0,-0.47 0.35,-0.82 0.82,-0.82 0.94,0 1.3,1.46 1.3,1.53 0,0.11 -0.09,0.11 -0.12,0.11 -0.1,0 -0.1,-0.04 -0.15,-0.18 -0.2,-0.68 -0.52,-1.24 -1.01,-1.24 -0.17,0 -0.24,0.1 -0.24,0.33 0,0.25 0.09,0.49 0.18,0.71 0.19,0.52 0.61,1.62 0.61,2.19 0,0.66 -0.43,1.06 -1.15,1.06 -0.9,0 -1.39,-0.64 -1.56,-0.86 -0.05,0.55 -0.45,0.86 -0.91,0.86 -0.46,0 -0.65,-0.39 -0.75,-0.57 -0.16,-0.34 -0.3,-0.92 -0.3,-0.96 0,-0.1 0.1,-0.1 0.12,-0.1 0.1,0 0.11,0.01 0.17,0.23 0.17,0.7 0.37,1.18 0.73,1.18 0.2,0 0.31,-0.13 0.31,-0.46 0,-0.2 -0.03,-0.31 -0.16,-0.83 z"
   inkscape:connector-curvature="0"
   style="fill:#000000;stroke-width:0" />
<path
   id="path3937"
   d="m 232.93,713.12 h -0.24 c -0.02,-0.15 -0.09,-0.56 -0.18,-0.63 -0.05,-0.04 -0.59,-0.04 -0.69,-0.04 h -1.28 c 0.73,0.64 0.97,0.84 1.39,1.17 0.52,0.41 1,0.84 1,1.5 0,0.84 -0.74,1.35 -1.63,1.35 -0.86,0 -1.45,-0.6 -1.45,-1.24 0,-0.35 0.3,-0.39 0.37,-0.39 0.17,0 0.37,0.12 0.37,0.37 0,0.12 -0.05,0.37 -0.41,0.37 0.21,0.49 0.69,0.64 1.02,0.64 0.69,0 1.05,-0.54 1.05,-1.1 0,-0.61 -0.43,-1.09 -0.65,-1.34 l -1.68,-1.65 c -0.07,-0.06 -0.07,-0.08 -0.07,-0.27 h 2.87 z"
   inkscape:connector-curvature="0"
   style="fill:#000000;stroke-width:0" />
<path
   id="path3939"
   d="m 235.86,717.07 -0.13,-0.09 -0.11,-0.09 -0.11,-0.09 -0.11,-0.1 -0.1,-0.1 -0.09,-0.1 -0.09,-0.11 -0.08,-0.1 -0.08,-0.11 -0.08,-0.11 -0.07,-0.11 -0.06,-0.11 -0.07,-0.12 -0.05,-0.11 -0.06,-0.12 -0.05,-0.11 -0.04,-0.12 -0.04,-0.12 -0.04,-0.11 -0.04,-0.12 -0.03,-0.11 -0.02,-0.12 -0.03,-0.11 -0.02,-0.12 -0.02,-0.11 -0.02,-0.11 -0.01,-0.11 -0.01,-0.11 -0.01,-0.11 0,-0.1 0,-0.11 -0.01,-0.1 c 0,-0.98 0.3,-2.5 1.68,-3.47 0.05,0 0.13,0 0.13,0.08 0,0.04 -0.02,0.06 -0.06,0.1 -0.93,0.84 -1.27,2.02 -1.27,3.28 0,1.88 0.72,2.8 1.29,3.32 0.02,0.02 0.04,0.04 0.04,0.08 0,0.08 -0.08,0.08 -0.13,0.08 z"
   inkscape:connector-curvature="0"
   style="fill:#000000;stroke-width:0" />
<path
   id="path3941"
   d="m 238.83,716.28 0,0.01 0,0.01 0,0 0,0.01 0,0.01 0,0.01 0,0 0,0.01 0,0.01 0,0 0,0.01 0,0.01 0,0 0,0.01 0,0 -0.01,0.01 0,0 0,0.01 0,0.01 0,0.01 0,0 -0.01,0.01 0,0.01 -0.01,0 0,0.01 -0.01,0 0,0.01 -0.01,0 -0.01,0 -0.01,0 0,0.01 -0.01,0 -0.01,0 0,0 -0.01,0 -0.01,0 0,0 -0.01,0 0,0 -0.01,0 -0.01,0 0,0 -0.01,0 -0.01,0 -0.01,0 0,0 -0.01,0 -0.01,0 -0.01,0 -0.01,0 c -0.44,-0.43 -1.08,-0.44 -1.36,-0.44 v -0.25 c 0.16,0 0.62,0 1.01,0.19 v -3.54 c 0,-0.23 0,-0.32 -0.7,-0.32 h -0.27 v -0.25 c 0.13,0 0.99,0.03 1.24,0.03 0.22,0 1.1,-0.03 1.25,-0.03 v 0.25 h -0.26 c -0.7,0 -0.7,0.09 -0.7,0.32 z"
   inkscape:connector-curvature="0"
   style="fill:#000000;stroke-width:0" />
<path
   id="path3943"
   d="m 241.1,717.07 -0.01,0 0,0 -0.01,0 0,0 -0.01,0 -0.01,0 0,0 -0.01,0 0,0 -0.01,0 0,0 -0.01,0 0,0 -0.01,0 0,-0.01 -0.01,0 0,0 -0.01,0 0,-0.01 -0.01,0 0,0 -0.01,0 0,-0.01 0,0 0,0 0,-0.01 -0.01,0 0,0 0,0 0,-0.01 0,0 0,0 0,0 0,-0.01 0,0 -0.01,0 0,-0.01 0,0 0,0 0,-0.01 0,0 c 0,-0.04 0.02,-0.06 0.06,-0.11 0.6,-0.54 1.27,-1.48 1.27,-3.28 0,-1.45 -0.45,-2.55 -1.2,-3.23 -0.12,-0.12 -0.13,-0.13 -0.13,-0.16 0,-0.04 0.02,-0.08 0.09,-0.08 0.09,0 0.75,0.46 1.21,1.32 0.3,0.58 0.51,1.33 0.51,2.14 0,0.99 -0.3,2.51 -1.67,3.48 z"
   inkscape:connector-curvature="0"
   style="fill:#000000;stroke-width:0" />
<path
   id="path3945"
   d="m 232.93,705.29 h -0.24 c -0.02,-0.15 -0.09,-0.56 -0.18,-0.63 -0.05,-0.04 -0.59,-0.04 -0.69,-0.04 h -1.28 c 0.73,0.64 0.97,0.84 1.39,1.16 0.52,0.42 1,0.85 1,1.51 0,0.84 -0.74,1.35 -1.63,1.35 -0.86,0 -1.45,-0.6 -1.45,-1.24 0,-0.36 0.3,-0.39 0.37,-0.39 0.17,0 0.37,0.12 0.37,0.37 0,0.12 -0.05,0.37 -0.41,0.37 0.21,0.49 0.69,0.64 1.02,0.64 0.69,0 1.05,-0.54 1.05,-1.1 0,-0.61 -0.43,-1.09 -0.65,-1.34 l -1.68,-1.65 c -0.07,-0.07 -0.07,-0.08 -0.07,-0.27 h 2.87 z"
   inkscape:connector-curvature="0"
   style="fill:#000000;stroke-width:0" />
</g>    <g
       id="g4182"
       transform="matrix(3.6161507,0,0,-3.6732385,-599.38525,3012.7542)"
       xml:space="preserve"
       stroke-miterlimit="10.433"
       font-style="normal"
       font-variant="normal"
       font-weight="normal"
       font-stretch="normal"
       font-size-adjust="none"
       letter-spacing="normal"
       word-spacing="normal"
       ns0:text="$ n_{1}^{1(0)} $"
       ns0:preamble=""
       style="font-style:normal;font-variant:normal;font-weight:normal;font-stretch:normal;letter-spacing:normal;word-spacing:normal;text-anchor:start;fill:none;stroke:#000000;stroke-linecap:butt;stroke-linejoin:miter;stroke-miterlimit:10.43299961;stroke-opacity:1;stroke-dasharray:none;stroke-dashoffset:0">
<path
   style="fill:#000000;stroke-width:0"
   inkscape:connector-curvature="0"
   d="m 224.31,707.27 0,-0.02 -0.01,-0.01 0,-0.01 0,-0.02 -0.01,-0.03 -0.01,-0.03 0,-0.04 -0.01,-0.03 -0.01,-0.03 -0.01,-0.03 0,-0.02 0,-0.01 -0.01,-0.02 0,-0.01 0,-0.01 -0.01,-0.02 0,-0.01 0,-0.01 0,-0.01 0,-0.01 -0.01,-0.01 0,-0.01 0,-0.01 0,-0.01 0,0 0,-0.01 c 0,-0.18 0.14,-0.27 0.29,-0.27 0.12,0 0.3,0.08 0.37,0.28 0.01,0.02 0.13,0.49 0.19,0.74 l 0.22,0.89 c 0.06,0.22 0.12,0.44 0.17,0.67 0.03,0.17 0.11,0.46 0.13,0.5 0.15,0.31 0.67,1.21 1.62,1.21 0.45,0 0.54,-0.37 0.54,-0.7 0,-0.61 -0.49,-1.89 -0.65,-2.31 -0.09,-0.23 -0.1,-0.35 -0.1,-0.46 0,-0.47 0.35,-0.82 0.82,-0.82 0.94,0 1.3,1.46 1.3,1.53 0,0.11 -0.09,0.11 -0.12,0.11 -0.1,0 -0.1,-0.04 -0.15,-0.18 -0.2,-0.68 -0.52,-1.24 -1.01,-1.24 -0.17,0 -0.24,0.1 -0.24,0.33 0,0.25 0.09,0.49 0.18,0.71 0.19,0.52 0.61,1.62 0.61,2.19 0,0.66 -0.43,1.06 -1.15,1.06 -0.9,0 -1.39,-0.64 -1.56,-0.86 -0.05,0.55 -0.45,0.86 -0.91,0.86 -0.46,0 -0.65,-0.39 -0.75,-0.57 -0.16,-0.34 -0.3,-0.92 -0.3,-0.96 0,-0.1 0.1,-0.1 0.12,-0.1 0.1,0 0.11,0.01 0.17,0.23 0.17,0.7 0.37,1.18 0.73,1.18 0.2,0 0.31,-0.13 0.31,-0.46 0,-0.2 -0.03,-0.31 -0.16,-0.83 z"
   id="path4184" />
<path
   style="fill:#000000;stroke-width:0"
   inkscape:connector-curvature="0"
   d="m 231.74,716.28 0,0.01 0,0.01 0,0 0,0.01 0,0.01 0,0.01 0,0 0,0.01 0,0.01 0,0 0,0.01 0,0.01 0,0 0,0.01 0,0 0,0.01 0,0 0,0.01 0,0.01 -0.01,0.01 0,0 0,0.01 -0.01,0.01 0,0 -0.01,0.01 0,0 -0.01,0.01 0,0 -0.01,0 -0.01,0 -0.01,0.01 -0.01,0 0,0 -0.01,0 0,0 -0.01,0 -0.01,0 0,0 -0.01,0 -0.01,0 0,0 -0.01,0 -0.01,0 0,0 -0.01,0 -0.01,0 -0.01,0 -0.01,0 0,0 -0.01,0 c -0.45,-0.43 -1.08,-0.44 -1.37,-0.44 v -0.25 c 0.17,0 0.63,0 1.01,0.19 v -3.54 c 0,-0.23 0,-0.32 -0.7,-0.32 h -0.26 v -0.25 c 0.13,0 0.98,0.03 1.24,0.03 0.22,0 1.09,-0.03 1.25,-0.03 v 0.25 h -0.27 c -0.7,0 -0.7,0.09 -0.7,0.32 z"
   id="path4186" />
<path
   style="fill:#000000;stroke-width:0"
   inkscape:connector-curvature="0"
   d="m 235.86,717.07 -0.13,-0.09 -0.11,-0.09 -0.11,-0.09 -0.11,-0.1 -0.1,-0.1 -0.09,-0.1 -0.09,-0.11 -0.08,-0.1 -0.08,-0.11 -0.08,-0.11 -0.07,-0.11 -0.06,-0.11 -0.07,-0.12 -0.05,-0.11 -0.06,-0.12 -0.05,-0.11 -0.04,-0.12 -0.04,-0.12 -0.04,-0.11 -0.04,-0.12 -0.03,-0.11 -0.02,-0.12 -0.03,-0.11 -0.02,-0.12 -0.02,-0.11 -0.02,-0.11 -0.01,-0.11 -0.01,-0.11 -0.01,-0.11 0,-0.1 0,-0.11 -0.01,-0.1 c 0,-0.98 0.3,-2.5 1.68,-3.47 0.05,0 0.13,0 0.13,0.08 0,0.04 -0.02,0.06 -0.06,0.1 -0.93,0.84 -1.27,2.02 -1.27,3.28 0,1.88 0.72,2.8 1.29,3.32 0.02,0.02 0.04,0.04 0.04,0.08 0,0.08 -0.08,0.08 -0.13,0.08 z"
   id="path4188" />
<path
   style="fill:#000000;stroke-width:0"
   inkscape:connector-curvature="0"
   d="m 240.09,714.08 0,0.14 0,0.13 -0.01,0.13 -0.01,0.13 -0.01,0.12 -0.02,0.12 -0.01,0.12 -0.03,0.11 -0.02,0.11 -0.03,0.1 -0.03,0.11 -0.04,0.1 -0.04,0.09 -0.05,0.1 -0.05,0.09 -0.03,0.05 -0.03,0.05 c -0.22,0.32 -0.65,0.59 -1.2,0.59 v -0.19 c 0.37,0 0.73,-0.23 0.86,-0.63 0.11,-0.38 0.12,-0.88 0.12,-1.49 0,-0.51 0,-1.02 -0.09,-1.46 -0.14,-0.63 -0.62,-0.79 -0.89,-0.79 h 0 c -0.33,0 -0.75,0.19 -0.89,0.76 -0.1,0.41 -0.1,0.98 -0.1,1.49 0,0.51 0,1.04 0.11,1.42 0.14,0.55 0.59,0.7 0.88,0.7 v 0.19 c -1.62,0 -1.62,-1.89 -1.62,-2.39 0,-0.51 0,-2.36 1.62,-2.36 1.61,0 1.61,1.85 1.61,2.36 z"
   id="path4190" />
<path
   style="fill:#000000;stroke-width:0"
   inkscape:connector-curvature="0"
   d="m 241.1,717.07 -0.01,0 0,0 -0.01,0 0,0 -0.01,0 -0.01,0 0,0 -0.01,0 0,0 -0.01,0 0,0 -0.01,0 0,0 -0.01,0 0,-0.01 -0.01,0 0,0 -0.01,0 0,-0.01 -0.01,0 0,0 -0.01,0 0,-0.01 0,0 0,0 0,-0.01 -0.01,0 0,0 0,0 0,-0.01 0,0 0,0 0,0 0,-0.01 0,0 -0.01,0 0,-0.01 0,0 0,0 0,-0.01 0,0 c 0,-0.04 0.02,-0.06 0.06,-0.11 0.6,-0.54 1.27,-1.48 1.27,-3.28 0,-1.45 -0.45,-2.55 -1.2,-3.23 -0.12,-0.12 -0.13,-0.13 -0.13,-0.16 0,-0.04 0.02,-0.08 0.09,-0.08 0.09,0 0.75,0.46 1.21,1.32 0.3,0.58 0.51,1.33 0.51,2.14 0,0.99 -0.3,2.51 -1.67,3.48 z"
   id="path4192" />
<path
   style="fill:#000000;stroke-width:0"
   inkscape:connector-curvature="0"
   d="m 231.74,708.45 0,0.01 0,0.01 0,0 0,0.01 0,0.01 0,0.01 0,0 0,0.01 0,0.01 0,0 0,0.01 0,0.01 0,0 0,0.01 0,0 0,0.01 0,0 0,0.01 0,0.01 -0.01,0 0,0.01 0,0.01 -0.01,0.01 0,0 -0.01,0.01 0,0 -0.01,0 0,0.01 -0.01,0 -0.01,0 -0.01,0.01 -0.01,0 0,0 -0.01,0 0,0 -0.01,0 -0.01,0 0,0 -0.01,0 -0.01,0 0,0 -0.01,0 -0.01,0 0,0 -0.01,0 -0.01,0 -0.01,0 -0.01,0 0,0 -0.01,0 c -0.45,-0.43 -1.08,-0.44 -1.37,-0.44 v -0.25 c 0.17,0 0.63,0 1.01,0.19 v -3.54 c 0,-0.23 0,-0.32 -0.7,-0.32 h -0.26 v -0.25 c 0.13,0 0.98,0.02 1.24,0.02 0.22,0 1.09,-0.02 1.25,-0.02 v 0.25 h -0.27 c -0.7,0 -0.7,0.09 -0.7,0.32 z"
   id="path4194" />
</g>    <g
       style="font-style:normal;font-variant:normal;font-weight:normal;font-stretch:normal;letter-spacing:normal;word-spacing:normal;text-anchor:start;fill:none;stroke:#000000;stroke-linecap:butt;stroke-linejoin:miter;stroke-miterlimit:10.43299961;stroke-opacity:1;stroke-dasharray:none;stroke-dashoffset:0"
       ns0:preamble=""
       ns0:text="$ n_{3}^{1(1)} $"
       word-spacing="normal"
       letter-spacing="normal"
       font-size-adjust="none"
       font-stretch="normal"
       font-weight="normal"
       font-variant="normal"
       font-style="normal"
       stroke-miterlimit="10.433"
       xml:space="preserve"
       transform="matrix(3.6161507,0,0,-3.6732385,-239.62317,2840.178)"
       id="g4431">
<path
   id="path4433"
   d="m 224.31,707.27 0,-0.02 -0.01,-0.01 0,-0.01 0,-0.02 -0.01,-0.03 -0.01,-0.03 0,-0.04 -0.01,-0.03 -0.01,-0.03 -0.01,-0.03 0,-0.02 0,-0.01 -0.01,-0.02 0,-0.01 0,-0.01 -0.01,-0.02 0,-0.01 0,-0.01 0,-0.01 0,-0.01 -0.01,-0.01 0,-0.01 0,-0.01 0,-0.01 0,0 0,-0.01 c 0,-0.18 0.14,-0.27 0.29,-0.27 0.12,0 0.3,0.08 0.37,0.28 0.01,0.02 0.13,0.49 0.19,0.74 l 0.22,0.89 c 0.06,0.22 0.12,0.44 0.17,0.67 0.03,0.17 0.11,0.46 0.13,0.5 0.15,0.31 0.67,1.21 1.62,1.21 0.45,0 0.54,-0.37 0.54,-0.7 0,-0.61 -0.49,-1.89 -0.65,-2.31 -0.09,-0.23 -0.1,-0.35 -0.1,-0.46 0,-0.47 0.35,-0.82 0.82,-0.82 0.94,0 1.3,1.46 1.3,1.53 0,0.11 -0.09,0.11 -0.12,0.11 -0.1,0 -0.1,-0.04 -0.15,-0.18 -0.2,-0.68 -0.52,-1.24 -1.01,-1.24 -0.17,0 -0.24,0.1 -0.24,0.33 0,0.25 0.09,0.49 0.18,0.71 0.19,0.52 0.61,1.62 0.61,2.19 0,0.66 -0.43,1.06 -1.15,1.06 -0.9,0 -1.39,-0.64 -1.56,-0.86 -0.05,0.55 -0.45,0.86 -0.91,0.86 -0.46,0 -0.65,-0.39 -0.75,-0.57 -0.16,-0.34 -0.3,-0.92 -0.3,-0.96 0,-0.1 0.1,-0.1 0.12,-0.1 0.1,0 0.11,0.01 0.17,0.23 0.17,0.7 0.37,1.18 0.73,1.18 0.2,0 0.31,-0.13 0.31,-0.46 0,-0.2 -0.03,-0.31 -0.16,-0.83 z"
   inkscape:connector-curvature="0"
   style="fill:#000000;stroke-width:0" />
<path
   id="path4435"
   d="m 231.74,716.28 0,0.01 0,0.01 0,0 0,0.01 0,0.01 0,0.01 0,0 0,0.01 0,0.01 0,0 0,0.01 0,0.01 0,0 0,0.01 0,0 0,0.01 0,0 0,0.01 0,0.01 -0.01,0.01 0,0 0,0.01 -0.01,0.01 0,0 -0.01,0.01 0,0 -0.01,0.01 0,0 -0.01,0 -0.01,0 -0.01,0.01 -0.01,0 0,0 -0.01,0 0,0 -0.01,0 -0.01,0 0,0 -0.01,0 -0.01,0 0,0 -0.01,0 -0.01,0 0,0 -0.01,0 -0.01,0 -0.01,0 -0.01,0 0,0 -0.01,0 c -0.45,-0.43 -1.08,-0.44 -1.37,-0.44 v -0.25 c 0.17,0 0.63,0 1.01,0.19 v -3.54 c 0,-0.23 0,-0.32 -0.7,-0.32 h -0.26 v -0.25 c 0.13,0 0.98,0.03 1.24,0.03 0.22,0 1.09,-0.03 1.25,-0.03 v 0.25 h -0.27 c -0.7,0 -0.7,0.09 -0.7,0.32 z"
   inkscape:connector-curvature="0"
   style="fill:#000000;stroke-width:0" />
<path
   id="path4437"
   d="m 235.86,717.07 -0.13,-0.09 -0.11,-0.09 -0.11,-0.09 -0.11,-0.1 -0.1,-0.1 -0.09,-0.1 -0.09,-0.11 -0.08,-0.1 -0.08,-0.11 -0.08,-0.11 -0.07,-0.11 -0.06,-0.11 -0.07,-0.12 -0.05,-0.11 -0.06,-0.12 -0.05,-0.11 -0.04,-0.12 -0.04,-0.12 -0.04,-0.11 -0.04,-0.12 -0.03,-0.11 -0.02,-0.12 -0.03,-0.11 -0.02,-0.12 -0.02,-0.11 -0.02,-0.11 -0.01,-0.11 -0.01,-0.11 -0.01,-0.11 0,-0.1 0,-0.11 -0.01,-0.1 c 0,-0.98 0.3,-2.5 1.68,-3.47 0.05,0 0.13,0 0.13,0.08 0,0.04 -0.02,0.06 -0.06,0.1 -0.93,0.84 -1.27,2.02 -1.27,3.28 0,1.88 0.72,2.8 1.29,3.32 0.02,0.02 0.04,0.04 0.04,0.08 0,0.08 -0.08,0.08 -0.13,0.08 z"
   inkscape:connector-curvature="0"
   style="fill:#000000;stroke-width:0" />
<path
   id="path4439"
   d="m 238.83,716.28 0,0.01 0,0.01 0,0 0,0.01 0,0.01 0,0.01 0,0 0,0.01 0,0.01 0,0 0,0.01 0,0.01 0,0 0,0.01 0,0 -0.01,0.01 0,0 0,0.01 0,0.01 0,0.01 0,0 -0.01,0.01 0,0.01 -0.01,0 0,0.01 -0.01,0 0,0.01 -0.01,0 -0.01,0 -0.01,0 0,0.01 -0.01,0 -0.01,0 0,0 -0.01,0 -0.01,0 0,0 -0.01,0 0,0 -0.01,0 -0.01,0 0,0 -0.01,0 -0.01,0 -0.01,0 0,0 -0.01,0 -0.01,0 -0.01,0 -0.01,0 c -0.44,-0.43 -1.08,-0.44 -1.36,-0.44 v -0.25 c 0.16,0 0.62,0 1.01,0.19 v -3.54 c 0,-0.23 0,-0.32 -0.7,-0.32 h -0.27 v -0.25 c 0.13,0 0.99,0.03 1.24,0.03 0.22,0 1.1,-0.03 1.25,-0.03 v 0.25 h -0.26 c -0.7,0 -0.7,0.09 -0.7,0.32 z"
   inkscape:connector-curvature="0"
   style="fill:#000000;stroke-width:0" />
<path
   id="path4441"
   d="m 241.1,717.07 -0.01,0 0,0 -0.01,0 0,0 -0.01,0 -0.01,0 0,0 -0.01,0 0,0 -0.01,0 0,0 -0.01,0 0,0 -0.01,0 0,-0.01 -0.01,0 0,0 -0.01,0 0,-0.01 -0.01,0 0,0 -0.01,0 0,-0.01 0,0 0,0 0,-0.01 -0.01,0 0,0 0,0 0,-0.01 0,0 0,0 0,0 0,-0.01 0,0 -0.01,0 0,-0.01 0,0 0,0 0,-0.01 0,0 c 0,-0.04 0.02,-0.06 0.06,-0.11 0.6,-0.54 1.27,-1.48 1.27,-3.28 0,-1.45 -0.45,-2.55 -1.2,-3.23 -0.12,-0.12 -0.13,-0.13 -0.13,-0.16 0,-0.04 0.02,-0.08 0.09,-0.08 0.09,0 0.75,0.46 1.21,1.32 0.3,0.58 0.51,1.33 0.51,2.14 0,0.99 -0.3,2.51 -1.67,3.48 z"
   inkscape:connector-curvature="0"
   style="fill:#000000;stroke-width:0" />
<path
   id="path4443"
   d="m 231.31,706.35 0.05,0 0.05,-0.01 0.05,0 0.05,-0.01 0.05,-0.01 0.04,-0.01 0.05,-0.02 0.04,-0.01 0.04,-0.02 0.04,-0.02 0.04,-0.02 0.04,-0.03 0.03,-0.03 0.04,-0.03 0.03,-0.03 0.03,-0.03 0.03,-0.04 0.03,-0.04 0.03,-0.04 0.02,-0.04 0.03,-0.04 0.02,-0.05 0.02,-0.05 0.02,-0.05 0.01,-0.06 0.02,-0.05 0.01,-0.06 0.01,-0.06 0.01,-0.06 0,-0.07 0.01,-0.06 0,-0.07 c 0,-0.86 -0.51,-1.12 -0.91,-1.12 -0.28,0 -0.89,0.08 -1.18,0.49 0.32,0.01 0.4,0.24 0.4,0.39 0,0.22 -0.17,0.38 -0.38,0.38 -0.2,0 -0.39,-0.12 -0.39,-0.4 0,-0.66 0.72,-1.08 1.56,-1.08 0.97,0 1.64,0.64 1.64,1.34 0,0.54 -0.44,1.08 -1.21,1.24 0.73,0.27 1,0.79 1,1.21 0,0.55 -0.64,0.96 -1.41,0.96 -0.77,0 -1.37,-0.37 -1.37,-0.93 0,-0.24 0.16,-0.37 0.37,-0.37 0.21,0 0.35,0.16 0.35,0.36 0,0.2 -0.14,0.34 -0.35,0.36 0.24,0.3 0.72,0.38 0.98,0.38 0.31,0 0.75,-0.15 0.75,-0.76 0,-0.29 -0.1,-0.61 -0.28,-0.82 -0.23,-0.27 -0.42,-0.28 -0.77,-0.3 -0.18,-0.02 -0.19,-0.02 -0.22,-0.02 -0.02,0 -0.07,-0.02 -0.07,-0.09 0,-0.1 0.06,-0.1 0.18,-0.1 z"
   inkscape:connector-curvature="0"
   style="fill:#000000;stroke-width:0" />
</g>    <g
       id="g4680"
       transform="matrix(3.6161507,0,0,-3.6732385,-241.2912,2958.608)"
       xml:space="preserve"
       stroke-miterlimit="10.433"
       font-style="normal"
       font-variant="normal"
       font-weight="normal"
       font-stretch="normal"
       font-size-adjust="none"
       letter-spacing="normal"
       word-spacing="normal"
       ns0:text="$ n_{3}^{2(1)} $"
       ns0:preamble=""
       style="font-style:normal;font-variant:normal;font-weight:normal;font-stretch:normal;letter-spacing:normal;word-spacing:normal;text-anchor:start;fill:none;stroke:#000000;stroke-linecap:butt;stroke-linejoin:miter;stroke-miterlimit:10.43299961;stroke-opacity:1;stroke-dasharray:none;stroke-dashoffset:0">
<path
   style="fill:#000000;stroke-width:0"
   inkscape:connector-curvature="0"
   d="m 224.31,707.27 0,-0.02 -0.01,-0.01 0,-0.01 0,-0.02 -0.01,-0.03 -0.01,-0.03 0,-0.04 -0.01,-0.03 -0.01,-0.03 -0.01,-0.03 0,-0.02 0,-0.01 -0.01,-0.02 0,-0.01 0,-0.01 -0.01,-0.02 0,-0.01 0,-0.01 0,-0.01 0,-0.01 -0.01,-0.01 0,-0.01 0,-0.01 0,-0.01 0,0 0,-0.01 c 0,-0.18 0.14,-0.27 0.29,-0.27 0.12,0 0.3,0.08 0.37,0.28 0.01,0.02 0.13,0.49 0.19,0.74 l 0.22,0.89 c 0.06,0.22 0.12,0.44 0.17,0.67 0.03,0.17 0.11,0.46 0.13,0.5 0.15,0.31 0.67,1.21 1.62,1.21 0.45,0 0.54,-0.37 0.54,-0.7 0,-0.61 -0.49,-1.89 -0.65,-2.31 -0.09,-0.23 -0.1,-0.35 -0.1,-0.46 0,-0.47 0.35,-0.82 0.82,-0.82 0.94,0 1.3,1.46 1.3,1.53 0,0.11 -0.09,0.11 -0.12,0.11 -0.1,0 -0.1,-0.04 -0.15,-0.18 -0.2,-0.68 -0.52,-1.24 -1.01,-1.24 -0.17,0 -0.24,0.1 -0.24,0.33 0,0.25 0.09,0.49 0.18,0.71 0.19,0.52 0.61,1.62 0.61,2.19 0,0.66 -0.43,1.06 -1.15,1.06 -0.9,0 -1.39,-0.64 -1.56,-0.86 -0.05,0.55 -0.45,0.86 -0.91,0.86 -0.46,0 -0.65,-0.39 -0.75,-0.57 -0.16,-0.34 -0.3,-0.92 -0.3,-0.96 0,-0.1 0.1,-0.1 0.12,-0.1 0.1,0 0.11,0.01 0.17,0.23 0.17,0.7 0.37,1.18 0.73,1.18 0.2,0 0.31,-0.13 0.31,-0.46 0,-0.2 -0.03,-0.31 -0.16,-0.83 z"
   id="path4682" />
<path
   style="fill:#000000;stroke-width:0"
   inkscape:connector-curvature="0"
   d="m 232.93,713.12 h -0.24 c -0.02,-0.15 -0.09,-0.56 -0.18,-0.63 -0.05,-0.04 -0.59,-0.04 -0.69,-0.04 h -1.28 c 0.73,0.64 0.97,0.84 1.39,1.17 0.52,0.41 1,0.84 1,1.5 0,0.84 -0.74,1.35 -1.63,1.35 -0.86,0 -1.45,-0.6 -1.45,-1.24 0,-0.35 0.3,-0.39 0.37,-0.39 0.17,0 0.37,0.12 0.37,0.37 0,0.12 -0.05,0.37 -0.41,0.37 0.21,0.49 0.69,0.64 1.02,0.64 0.69,0 1.05,-0.54 1.05,-1.1 0,-0.61 -0.43,-1.09 -0.65,-1.34 l -1.68,-1.65 c -0.07,-0.06 -0.07,-0.08 -0.07,-0.27 h 2.87 z"
   id="path4684" />
<path
   style="fill:#000000;stroke-width:0"
   inkscape:connector-curvature="0"
   d="m 235.86,717.07 -0.13,-0.09 -0.11,-0.09 -0.11,-0.09 -0.11,-0.1 -0.1,-0.1 -0.09,-0.1 -0.09,-0.11 -0.08,-0.1 -0.08,-0.11 -0.08,-0.11 -0.07,-0.11 -0.06,-0.11 -0.07,-0.12 -0.05,-0.11 -0.06,-0.12 -0.05,-0.11 -0.04,-0.12 -0.04,-0.12 -0.04,-0.11 -0.04,-0.12 -0.03,-0.11 -0.02,-0.12 -0.03,-0.11 -0.02,-0.12 -0.02,-0.11 -0.02,-0.11 -0.01,-0.11 -0.01,-0.11 -0.01,-0.11 0,-0.1 0,-0.11 -0.01,-0.1 c 0,-0.98 0.3,-2.5 1.68,-3.47 0.05,0 0.13,0 0.13,0.08 0,0.04 -0.02,0.06 -0.06,0.1 -0.93,0.84 -1.27,2.02 -1.27,3.28 0,1.88 0.72,2.8 1.29,3.32 0.02,0.02 0.04,0.04 0.04,0.08 0,0.08 -0.08,0.08 -0.13,0.08 z"
   id="path4686" />
<path
   style="fill:#000000;stroke-width:0"
   inkscape:connector-curvature="0"
   d="m 238.83,716.28 0,0.01 0,0.01 0,0 0,0.01 0,0.01 0,0.01 0,0 0,0.01 0,0.01 0,0 0,0.01 0,0.01 0,0 0,0.01 0,0 -0.01,0.01 0,0 0,0.01 0,0.01 0,0.01 0,0 -0.01,0.01 0,0.01 -0.01,0 0,0.01 -0.01,0 0,0.01 -0.01,0 -0.01,0 -0.01,0 0,0.01 -0.01,0 -0.01,0 0,0 -0.01,0 -0.01,0 0,0 -0.01,0 0,0 -0.01,0 -0.01,0 0,0 -0.01,0 -0.01,0 -0.01,0 0,0 -0.01,0 -0.01,0 -0.01,0 -0.01,0 c -0.44,-0.43 -1.08,-0.44 -1.36,-0.44 v -0.25 c 0.16,0 0.62,0 1.01,0.19 v -3.54 c 0,-0.23 0,-0.32 -0.7,-0.32 h -0.27 v -0.25 c 0.13,0 0.99,0.03 1.24,0.03 0.22,0 1.1,-0.03 1.25,-0.03 v 0.25 h -0.26 c -0.7,0 -0.7,0.09 -0.7,0.32 z"
   id="path4688" />
<path
   style="fill:#000000;stroke-width:0"
   inkscape:connector-curvature="0"
   d="m 241.1,717.07 -0.01,0 0,0 -0.01,0 0,0 -0.01,0 -0.01,0 0,0 -0.01,0 0,0 -0.01,0 0,0 -0.01,0 0,0 -0.01,0 0,-0.01 -0.01,0 0,0 -0.01,0 0,-0.01 -0.01,0 0,0 -0.01,0 0,-0.01 0,0 0,0 0,-0.01 -0.01,0 0,0 0,0 0,-0.01 0,0 0,0 0,0 0,-0.01 0,0 -0.01,0 0,-0.01 0,0 0,0 0,-0.01 0,0 c 0,-0.04 0.02,-0.06 0.06,-0.11 0.6,-0.54 1.27,-1.48 1.27,-3.28 0,-1.45 -0.45,-2.55 -1.2,-3.23 -0.12,-0.12 -0.13,-0.13 -0.13,-0.16 0,-0.04 0.02,-0.08 0.09,-0.08 0.09,0 0.75,0.46 1.21,1.32 0.3,0.58 0.51,1.33 0.51,2.14 0,0.99 -0.3,2.51 -1.67,3.48 z"
   id="path4690" />
<path
   style="fill:#000000;stroke-width:0"
   inkscape:connector-curvature="0"
   d="m 231.31,706.35 0.05,0 0.05,-0.01 0.05,0 0.05,-0.01 0.05,-0.01 0.04,-0.01 0.05,-0.02 0.04,-0.01 0.04,-0.02 0.04,-0.02 0.04,-0.02 0.04,-0.03 0.03,-0.03 0.04,-0.03 0.03,-0.03 0.03,-0.03 0.03,-0.04 0.03,-0.04 0.03,-0.04 0.02,-0.04 0.03,-0.04 0.02,-0.05 0.02,-0.05 0.02,-0.05 0.01,-0.06 0.02,-0.05 0.01,-0.06 0.01,-0.06 0.01,-0.06 0,-0.07 0.01,-0.06 0,-0.07 c 0,-0.86 -0.51,-1.12 -0.91,-1.12 -0.28,0 -0.89,0.08 -1.18,0.49 0.32,0.01 0.4,0.24 0.4,0.39 0,0.22 -0.17,0.38 -0.38,0.38 -0.2,0 -0.39,-0.12 -0.39,-0.4 0,-0.66 0.72,-1.08 1.56,-1.08 0.97,0 1.64,0.64 1.64,1.34 0,0.54 -0.44,1.08 -1.21,1.24 0.73,0.27 1,0.79 1,1.21 0,0.55 -0.64,0.96 -1.41,0.96 -0.77,0 -1.37,-0.37 -1.37,-0.93 0,-0.24 0.16,-0.37 0.37,-0.37 0.21,0 0.35,0.16 0.35,0.36 0,0.2 -0.14,0.34 -0.35,0.36 0.24,0.3 0.72,0.38 0.98,0.38 0.31,0 0.75,-0.15 0.75,-0.76 0,-0.29 -0.1,-0.61 -0.28,-0.82 -0.23,-0.27 -0.42,-0.28 -0.77,-0.3 -0.18,-0.02 -0.19,-0.02 -0.22,-0.02 -0.02,0 -0.07,-0.02 -0.07,-0.09 0,-0.1 0.06,-0.1 0.18,-0.1 z"
   id="path4692" />
</g>    <g
       style="font-style:normal;font-variant:normal;font-weight:normal;font-stretch:normal;letter-spacing:normal;word-spacing:normal;text-anchor:start;fill:none;stroke:#000000;stroke-linecap:butt;stroke-linejoin:miter;stroke-miterlimit:10.43299961;stroke-opacity:1;stroke-dasharray:none;stroke-dashoffset:0"
       ns0:preamble=""
       ns0:text="$ n_{3}^{1(2)} $"
       word-spacing="normal"
       letter-spacing="normal"
       font-size-adjust="none"
       font-stretch="normal"
       font-weight="normal"
       font-variant="normal"
       font-style="normal"
       stroke-miterlimit="10.433"
       xml:space="preserve"
       transform="matrix(3.6161507,0,0,-3.6732385,-242.95923,3057.0216)"
       id="g4929">
<path
   id="path4931"
   d="m 224.31,707.27 0,-0.02 -0.01,-0.01 0,-0.01 0,-0.02 -0.01,-0.03 -0.01,-0.03 0,-0.04 -0.01,-0.03 -0.01,-0.03 -0.01,-0.03 0,-0.02 0,-0.01 -0.01,-0.02 0,-0.01 0,-0.01 -0.01,-0.02 0,-0.01 0,-0.01 0,-0.01 0,-0.01 -0.01,-0.01 0,-0.01 0,-0.01 0,-0.01 0,0 0,-0.01 c 0,-0.18 0.14,-0.27 0.29,-0.27 0.12,0 0.3,0.08 0.37,0.28 0.01,0.02 0.13,0.49 0.19,0.74 l 0.22,0.89 c 0.06,0.22 0.12,0.44 0.17,0.67 0.03,0.17 0.11,0.46 0.13,0.5 0.15,0.31 0.67,1.21 1.62,1.21 0.45,0 0.54,-0.37 0.54,-0.7 0,-0.61 -0.49,-1.89 -0.65,-2.31 -0.09,-0.23 -0.1,-0.35 -0.1,-0.46 0,-0.47 0.35,-0.82 0.82,-0.82 0.94,0 1.3,1.46 1.3,1.53 0,0.11 -0.09,0.11 -0.12,0.11 -0.1,0 -0.1,-0.04 -0.15,-0.18 -0.2,-0.68 -0.52,-1.24 -1.01,-1.24 -0.17,0 -0.24,0.1 -0.24,0.33 0,0.25 0.09,0.49 0.18,0.71 0.19,0.52 0.61,1.62 0.61,2.19 0,0.66 -0.43,1.06 -1.15,1.06 -0.9,0 -1.39,-0.64 -1.56,-0.86 -0.05,0.55 -0.45,0.86 -0.91,0.86 -0.46,0 -0.65,-0.39 -0.75,-0.57 -0.16,-0.34 -0.3,-0.92 -0.3,-0.96 0,-0.1 0.1,-0.1 0.12,-0.1 0.1,0 0.11,0.01 0.17,0.23 0.17,0.7 0.37,1.18 0.73,1.18 0.2,0 0.31,-0.13 0.31,-0.46 0,-0.2 -0.03,-0.31 -0.16,-0.83 z"
   inkscape:connector-curvature="0"
   style="fill:#000000;stroke-width:0" />
<path
   id="path4933"
   d="m 231.74,716.28 0,0.01 0,0.01 0,0 0,0.01 0,0.01 0,0.01 0,0 0,0.01 0,0.01 0,0 0,0.01 0,0.01 0,0 0,0.01 0,0 0,0.01 0,0 0,0.01 0,0.01 -0.01,0.01 0,0 0,0.01 -0.01,0.01 0,0 -0.01,0.01 0,0 -0.01,0.01 0,0 -0.01,0 -0.01,0 -0.01,0.01 -0.01,0 0,0 -0.01,0 0,0 -0.01,0 -0.01,0 0,0 -0.01,0 -0.01,0 0,0 -0.01,0 -0.01,0 0,0 -0.01,0 -0.01,0 -0.01,0 -0.01,0 0,0 -0.01,0 c -0.45,-0.43 -1.08,-0.44 -1.37,-0.44 v -0.25 c 0.17,0 0.63,0 1.01,0.19 v -3.54 c 0,-0.23 0,-0.32 -0.7,-0.32 h -0.26 v -0.25 c 0.13,0 0.98,0.03 1.24,0.03 0.22,0 1.09,-0.03 1.25,-0.03 v 0.25 h -0.27 c -0.7,0 -0.7,0.09 -0.7,0.32 z"
   inkscape:connector-curvature="0"
   style="fill:#000000;stroke-width:0" />
<path
   id="path4935"
   d="m 235.86,717.07 -0.13,-0.09 -0.11,-0.09 -0.11,-0.09 -0.11,-0.1 -0.1,-0.1 -0.09,-0.1 -0.09,-0.11 -0.08,-0.1 -0.08,-0.11 -0.08,-0.11 -0.07,-0.11 -0.06,-0.11 -0.07,-0.12 -0.05,-0.11 -0.06,-0.12 -0.05,-0.11 -0.04,-0.12 -0.04,-0.12 -0.04,-0.11 -0.04,-0.12 -0.03,-0.11 -0.02,-0.12 -0.03,-0.11 -0.02,-0.12 -0.02,-0.11 -0.02,-0.11 -0.01,-0.11 -0.01,-0.11 -0.01,-0.11 0,-0.1 0,-0.11 -0.01,-0.1 c 0,-0.98 0.3,-2.5 1.68,-3.47 0.05,0 0.13,0 0.13,0.08 0,0.04 -0.02,0.06 -0.06,0.1 -0.93,0.84 -1.27,2.02 -1.27,3.28 0,1.88 0.72,2.8 1.29,3.32 0.02,0.02 0.04,0.04 0.04,0.08 0,0.08 -0.08,0.08 -0.13,0.08 z"
   inkscape:connector-curvature="0"
   style="fill:#000000;stroke-width:0" />
<path
   id="path4937"
   d="m 240.01,713.12 h -0.23 c -0.02,-0.15 -0.09,-0.56 -0.18,-0.63 -0.06,-0.04 -0.6,-0.04 -0.69,-0.04 h -1.28 c 0.73,0.64 0.97,0.84 1.39,1.17 0.51,0.41 0.99,0.84 0.99,1.5 0,0.84 -0.73,1.35 -1.63,1.35 -0.86,0 -1.45,-0.6 -1.45,-1.24 0,-0.35 0.31,-0.39 0.37,-0.39 0.17,0 0.37,0.12 0.37,0.37 0,0.12 -0.04,0.37 -0.41,0.37 0.22,0.49 0.69,0.64 1.02,0.64 0.7,0 1.06,-0.54 1.06,-1.1 0,-0.61 -0.43,-1.09 -0.66,-1.34 l -1.67,-1.65 c -0.08,-0.06 -0.08,-0.08 -0.08,-0.27 h 2.87 z"
   inkscape:connector-curvature="0"
   style="fill:#000000;stroke-width:0" />
<path
   id="path4939"
   d="m 241.1,717.07 -0.01,0 0,0 -0.01,0 0,0 -0.01,0 -0.01,0 0,0 -0.01,0 0,0 -0.01,0 0,0 -0.01,0 0,0 -0.01,0 0,-0.01 -0.01,0 0,0 -0.01,0 0,-0.01 -0.01,0 0,0 -0.01,0 0,-0.01 0,0 0,0 0,-0.01 -0.01,0 0,0 0,0 0,-0.01 0,0 0,0 0,0 0,-0.01 0,0 -0.01,0 0,-0.01 0,0 0,0 0,-0.01 0,0 c 0,-0.04 0.02,-0.06 0.06,-0.11 0.6,-0.54 1.27,-1.48 1.27,-3.28 0,-1.45 -0.45,-2.55 -1.2,-3.23 -0.12,-0.12 -0.13,-0.13 -0.13,-0.16 0,-0.04 0.02,-0.08 0.09,-0.08 0.09,0 0.75,0.46 1.21,1.32 0.3,0.58 0.51,1.33 0.51,2.14 0,0.99 -0.3,2.51 -1.67,3.48 z"
   inkscape:connector-curvature="0"
   style="fill:#000000;stroke-width:0" />
<path
   id="path4941"
   d="m 231.31,706.35 0.05,0 0.05,-0.01 0.05,0 0.05,-0.01 0.05,-0.01 0.04,-0.01 0.05,-0.02 0.04,-0.01 0.04,-0.02 0.04,-0.02 0.04,-0.02 0.04,-0.03 0.03,-0.03 0.04,-0.03 0.03,-0.03 0.03,-0.03 0.03,-0.04 0.03,-0.04 0.03,-0.04 0.02,-0.04 0.03,-0.04 0.02,-0.05 0.02,-0.05 0.02,-0.05 0.01,-0.06 0.02,-0.05 0.01,-0.06 0.01,-0.06 0.01,-0.06 0,-0.07 0.01,-0.06 0,-0.07 c 0,-0.86 -0.51,-1.12 -0.91,-1.12 -0.28,0 -0.89,0.08 -1.18,0.49 0.32,0.01 0.4,0.24 0.4,0.39 0,0.22 -0.17,0.38 -0.38,0.38 -0.2,0 -0.39,-0.12 -0.39,-0.4 0,-0.66 0.72,-1.08 1.56,-1.08 0.97,0 1.64,0.64 1.64,1.34 0,0.54 -0.44,1.08 -1.21,1.24 0.73,0.27 1,0.79 1,1.21 0,0.55 -0.64,0.96 -1.41,0.96 -0.77,0 -1.37,-0.37 -1.37,-0.93 0,-0.24 0.16,-0.37 0.37,-0.37 0.21,0 0.35,0.16 0.35,0.36 0,0.2 -0.14,0.34 -0.35,0.36 0.24,0.3 0.72,0.38 0.98,0.38 0.31,0 0.75,-0.15 0.75,-0.76 0,-0.29 -0.1,-0.61 -0.28,-0.82 -0.23,-0.27 -0.42,-0.28 -0.77,-0.3 -0.18,-0.02 -0.19,-0.02 -0.22,-0.02 -0.02,0 -0.07,-0.02 -0.07,-0.09 0,-0.1 0.06,-0.1 0.18,-0.1 z"
   inkscape:connector-curvature="0"
   style="fill:#000000;stroke-width:0" />
</g>    <g
       id="g5178"
       transform="matrix(3.6161507,0,0,-3.6732385,-246.29528,3177.1196)"
       xml:space="preserve"
       stroke-miterlimit="10.433"
       font-style="normal"
       font-variant="normal"
       font-weight="normal"
       font-stretch="normal"
       font-size-adjust="none"
       letter-spacing="normal"
       word-spacing="normal"
       ns0:text="$ n_{3}^{2(1)} $"
       ns0:preamble=""
       style="font-style:normal;font-variant:normal;font-weight:normal;font-stretch:normal;letter-spacing:normal;word-spacing:normal;text-anchor:start;fill:none;stroke:#000000;stroke-linecap:butt;stroke-linejoin:miter;stroke-miterlimit:10.43299961;stroke-opacity:1;stroke-dasharray:none;stroke-dashoffset:0">
<path
   style="fill:#000000;stroke-width:0"
   inkscape:connector-curvature="0"
   d="m 224.31,707.27 0,-0.02 -0.01,-0.01 0,-0.01 0,-0.02 -0.01,-0.03 -0.01,-0.03 0,-0.04 -0.01,-0.03 -0.01,-0.03 -0.01,-0.03 0,-0.02 0,-0.01 -0.01,-0.02 0,-0.01 0,-0.01 -0.01,-0.02 0,-0.01 0,-0.01 0,-0.01 0,-0.01 -0.01,-0.01 0,-0.01 0,-0.01 0,-0.01 0,0 0,-0.01 c 0,-0.18 0.14,-0.27 0.29,-0.27 0.12,0 0.3,0.08 0.37,0.28 0.01,0.02 0.13,0.49 0.19,0.74 l 0.22,0.89 c 0.06,0.22 0.12,0.44 0.17,0.67 0.03,0.17 0.11,0.46 0.13,0.5 0.15,0.31 0.67,1.21 1.62,1.21 0.45,0 0.54,-0.37 0.54,-0.7 0,-0.61 -0.49,-1.89 -0.65,-2.31 -0.09,-0.23 -0.1,-0.35 -0.1,-0.46 0,-0.47 0.35,-0.82 0.82,-0.82 0.94,0 1.3,1.46 1.3,1.53 0,0.11 -0.09,0.11 -0.12,0.11 -0.1,0 -0.1,-0.04 -0.15,-0.18 -0.2,-0.68 -0.52,-1.24 -1.01,-1.24 -0.17,0 -0.24,0.1 -0.24,0.33 0,0.25 0.09,0.49 0.18,0.71 0.19,0.52 0.61,1.62 0.61,2.19 0,0.66 -0.43,1.06 -1.15,1.06 -0.9,0 -1.39,-0.64 -1.56,-0.86 -0.05,0.55 -0.45,0.86 -0.91,0.86 -0.46,0 -0.65,-0.39 -0.75,-0.57 -0.16,-0.34 -0.3,-0.92 -0.3,-0.96 0,-0.1 0.1,-0.1 0.12,-0.1 0.1,0 0.11,0.01 0.17,0.23 0.17,0.7 0.37,1.18 0.73,1.18 0.2,0 0.31,-0.13 0.31,-0.46 0,-0.2 -0.03,-0.31 -0.16,-0.83 z"
   id="path5180" />
<path
   style="fill:#000000;stroke-width:0"
   inkscape:connector-curvature="0"
   d="m 232.93,713.12 h -0.24 c -0.02,-0.15 -0.09,-0.56 -0.18,-0.63 -0.05,-0.04 -0.59,-0.04 -0.69,-0.04 h -1.28 c 0.73,0.64 0.97,0.84 1.39,1.17 0.52,0.41 1,0.84 1,1.5 0,0.84 -0.74,1.35 -1.63,1.35 -0.86,0 -1.45,-0.6 -1.45,-1.24 0,-0.35 0.3,-0.39 0.37,-0.39 0.17,0 0.37,0.12 0.37,0.37 0,0.12 -0.05,0.37 -0.41,0.37 0.21,0.49 0.69,0.64 1.02,0.64 0.69,0 1.05,-0.54 1.05,-1.1 0,-0.61 -0.43,-1.09 -0.65,-1.34 l -1.68,-1.65 c -0.07,-0.06 -0.07,-0.08 -0.07,-0.27 h 2.87 z"
   id="path5182" />
<path
   style="fill:#000000;stroke-width:0"
   inkscape:connector-curvature="0"
   d="m 235.86,717.07 -0.13,-0.09 -0.11,-0.09 -0.11,-0.09 -0.11,-0.1 -0.1,-0.1 -0.09,-0.1 -0.09,-0.11 -0.08,-0.1 -0.08,-0.11 -0.08,-0.11 -0.07,-0.11 -0.06,-0.11 -0.07,-0.12 -0.05,-0.11 -0.06,-0.12 -0.05,-0.11 -0.04,-0.12 -0.04,-0.12 -0.04,-0.11 -0.04,-0.12 -0.03,-0.11 -0.02,-0.12 -0.03,-0.11 -0.02,-0.12 -0.02,-0.11 -0.02,-0.11 -0.01,-0.11 -0.01,-0.11 -0.01,-0.11 0,-0.1 0,-0.11 -0.01,-0.1 c 0,-0.98 0.3,-2.5 1.68,-3.47 0.05,0 0.13,0 0.13,0.08 0,0.04 -0.02,0.06 -0.06,0.1 -0.93,0.84 -1.27,2.02 -1.27,3.28 0,1.88 0.72,2.8 1.29,3.32 0.02,0.02 0.04,0.04 0.04,0.08 0,0.08 -0.08,0.08 -0.13,0.08 z"
   id="path5184" />
<path
   style="fill:#000000;stroke-width:0"
   inkscape:connector-curvature="0"
   d="m 238.83,716.28 0,0.01 0,0.01 0,0 0,0.01 0,0.01 0,0.01 0,0 0,0.01 0,0.01 0,0 0,0.01 0,0.01 0,0 0,0.01 0,0 -0.01,0.01 0,0 0,0.01 0,0.01 0,0.01 0,0 -0.01,0.01 0,0.01 -0.01,0 0,0.01 -0.01,0 0,0.01 -0.01,0 -0.01,0 -0.01,0 0,0.01 -0.01,0 -0.01,0 0,0 -0.01,0 -0.01,0 0,0 -0.01,0 0,0 -0.01,0 -0.01,0 0,0 -0.01,0 -0.01,0 -0.01,0 0,0 -0.01,0 -0.01,0 -0.01,0 -0.01,0 c -0.44,-0.43 -1.08,-0.44 -1.36,-0.44 v -0.25 c 0.16,0 0.62,0 1.01,0.19 v -3.54 c 0,-0.23 0,-0.32 -0.7,-0.32 h -0.27 v -0.25 c 0.13,0 0.99,0.03 1.24,0.03 0.22,0 1.1,-0.03 1.25,-0.03 v 0.25 h -0.26 c -0.7,0 -0.7,0.09 -0.7,0.32 z"
   id="path5186" />
<path
   style="fill:#000000;stroke-width:0"
   inkscape:connector-curvature="0"
   d="m 241.1,717.07 -0.01,0 0,0 -0.01,0 0,0 -0.01,0 -0.01,0 0,0 -0.01,0 0,0 -0.01,0 0,0 -0.01,0 0,0 -0.01,0 0,-0.01 -0.01,0 0,0 -0.01,0 0,-0.01 -0.01,0 0,0 -0.01,0 0,-0.01 0,0 0,0 0,-0.01 -0.01,0 0,0 0,0 0,-0.01 0,0 0,0 0,0 0,-0.01 0,0 -0.01,0 0,-0.01 0,0 0,0 0,-0.01 0,0 c 0,-0.04 0.02,-0.06 0.06,-0.11 0.6,-0.54 1.27,-1.48 1.27,-3.28 0,-1.45 -0.45,-2.55 -1.2,-3.23 -0.12,-0.12 -0.13,-0.13 -0.13,-0.16 0,-0.04 0.02,-0.08 0.09,-0.08 0.09,0 0.75,0.46 1.21,1.32 0.3,0.58 0.51,1.33 0.51,2.14 0,0.99 -0.3,2.51 -1.67,3.48 z"
   id="path5188" />
<path
   style="fill:#000000;stroke-width:0"
   inkscape:connector-curvature="0"
   d="m 231.31,706.35 0.05,0 0.05,-0.01 0.05,0 0.05,-0.01 0.05,-0.01 0.04,-0.01 0.05,-0.02 0.04,-0.01 0.04,-0.02 0.04,-0.02 0.04,-0.02 0.04,-0.03 0.03,-0.03 0.04,-0.03 0.03,-0.03 0.03,-0.03 0.03,-0.04 0.03,-0.04 0.03,-0.04 0.02,-0.04 0.03,-0.04 0.02,-0.05 0.02,-0.05 0.02,-0.05 0.01,-0.06 0.02,-0.05 0.01,-0.06 0.01,-0.06 0.01,-0.06 0,-0.07 0.01,-0.06 0,-0.07 c 0,-0.86 -0.51,-1.12 -0.91,-1.12 -0.28,0 -0.89,0.08 -1.18,0.49 0.32,0.01 0.4,0.24 0.4,0.39 0,0.22 -0.17,0.38 -0.38,0.38 -0.2,0 -0.39,-0.12 -0.39,-0.4 0,-0.66 0.72,-1.08 1.56,-1.08 0.97,0 1.64,0.64 1.64,1.34 0,0.54 -0.44,1.08 -1.21,1.24 0.73,0.27 1,0.79 1,1.21 0,0.55 -0.64,0.96 -1.41,0.96 -0.77,0 -1.37,-0.37 -1.37,-0.93 0,-0.24 0.16,-0.37 0.37,-0.37 0.21,0 0.35,0.16 0.35,0.36 0,0.2 -0.14,0.34 -0.35,0.36 0.24,0.3 0.72,0.38 0.98,0.38 0.31,0 0.75,-0.15 0.75,-0.76 0,-0.29 -0.1,-0.61 -0.28,-0.82 -0.23,-0.27 -0.42,-0.28 -0.77,-0.3 -0.18,-0.02 -0.19,-0.02 -0.22,-0.02 -0.02,0 -0.07,-0.02 -0.07,-0.09 0,-0.1 0.06,-0.1 0.18,-0.1 z"
   id="path5190" />
</g>    <g
       style="font-style:normal;font-variant:normal;font-weight:normal;font-stretch:normal;letter-spacing:normal;word-spacing:normal;text-anchor:start;fill:none;stroke:#000000;stroke-linecap:butt;stroke-linejoin:miter;stroke-miterlimit:10.43299961;stroke-opacity:1;stroke-dasharray:none;stroke-dashoffset:0"
       ns0:preamble=""
       ns0:text="$ v_{3}^{1} $"
       text-anchor="start"
       word-spacing="normal"
       letter-spacing="normal"
       font-size-adjust="none"
       font-stretch="normal"
       font-weight="normal"
       font-variant="normal"
       font-style="normal"
       fill-opacity="1"
       fill-rule="evenodd"
       fill="none"
       stroke-opacity="1"
       stroke-dashoffset="0"
       stroke-dasharray="none"
       stroke-miterlimit="10.433"
       stroke-linejoin="miter"
       stroke-linecap="butt"
       stroke="black"
       xml:space="preserve"
       transform="matrix(5.0221643,0,0,-5.1012617,-667.06854,4297.3093)"
       id="g5430">
<path
   id="path5432"
   fill="black"
   stroke-width="0"
   d="M228.1,710.83 L228.1,710.85 L228.1,710.88 L228.1,710.9 L228.09,710.92 L228.09,710.95 L228.09,710.97 L228.09,710.99 L228.09,711.01 L228.08,711.05 L228.07,711.09 L228.06,711.13 L228.05,711.16 L228.04,711.2 L228.03,711.23 L228.02,711.26 L228.01,711.28 L227.99,711.31 L227.98,711.33 L227.96,711.36 L227.95,711.38 L227.93,711.4 L227.91,711.41 L227.89,711.43 L227.88,711.45 L227.86,711.46 L227.84,711.47 L227.82,711.48 L227.8,711.49 L227.78,711.5 L227.77,711.51 L227.75,711.51 L227.73,711.52 L227.71,711.52 L227.69,711.52 L227.68,711.52 L227.66,711.52 C227.41,711.52,227.17,711.27,227.17,711.05 C227.17,710.92,227.22,710.86,227.33,710.75 C227.54,710.55,227.67,710.29,227.67,709.93 C227.67,709.51,227.06,707.23,225.89,707.23 C225.39,707.23,225.16,707.58,225.16,708.1 C225.16,708.66,225.43,709.38,225.74,710.21 C225.8,710.38,225.85,710.52,225.85,710.71 C225.85,711.16,225.54,711.52,225.04,711.52 C224.1,711.52,223.72,710.08,223.72,709.99 C223.72,709.89,223.82,709.89,223.84,709.89 C223.94,709.89,223.95,709.91,224,710.07 C224.29,711.08,224.72,711.3,225.01,711.3 C225.09,711.3,225.26,711.3,225.26,710.99 C225.26,710.74,225.16,710.47,225.09,710.29 C224.65,709.14,224.52,708.68,224.52,708.25 C224.52,707.17,225.4,707.02,225.85,707.02 C227.53,707.02,228.1,710.31,228.1,710.83 Z " />
<path
   id="path5434"
   fill="black"
   stroke-width="0"
   d="M230.95,715.16 L230.95,715.17 L230.95,715.18 L230.95,715.19 L230.95,715.2 L230.95,715.2 L230.95,715.21 L230.95,715.22 L230.95,715.22 L230.95,715.23 L230.95,715.24 L230.95,715.24 L230.95,715.25 L230.95,715.26 L230.95,715.26 L230.95,715.27 L230.95,715.27 L230.95,715.28 L230.94,715.28 L230.94,715.29 L230.94,715.3 L230.94,715.31 L230.93,715.31 L230.93,715.32 L230.93,715.32 L230.92,715.33 L230.92,715.33 L230.91,715.34 L230.9,715.34 L230.89,715.34 L230.89,715.35 L230.88,715.35 L230.87,715.35 L230.86,715.35 L230.86,715.35 L230.85,715.35 L230.85,715.35 L230.84,715.35 L230.83,715.36 L230.83,715.36 L230.82,715.36 L230.81,715.36 L230.81,715.36 L230.8,715.36 L230.79,715.36 L230.79,715.36 L230.78,715.36 L230.77,715.36 L230.76,715.36 L230.75,715.36 L230.74,715.36 C230.3,714.92,229.66,714.91,229.38,714.91 V714.66 C229.54,714.66,230.01,714.66,230.39,714.86 V711.31 C230.39,711.08,230.39,710.99,229.69,710.99 H229.43 V710.74 C229.55,710.75,230.41,710.77,230.67,710.77 C230.88,710.77,231.76,710.75,231.91,710.74 V710.99 H231.65 C230.95,710.99,230.95,711.08,230.95,711.31 Z " />
<path
   id="path5436"
   fill="black"
   stroke-width="0"
   d="M230.16,706.97 L230.21,706.97 L230.26,706.97 L230.31,706.96 L230.36,706.96 L230.4,706.95 L230.45,706.93 L230.49,706.92 L230.54,706.9 L230.58,706.89 L230.62,706.86 L230.66,706.84 L230.7,706.82 L230.73,706.79 L230.77,706.76 L230.8,706.73 L230.83,706.69 L230.86,706.66 L230.89,706.62 L230.92,706.58 L230.94,706.54 L230.97,706.49 L230.99,706.44 L231.01,706.4 L231.03,706.34 L231.04,706.29 L231.06,706.23 L231.07,706.18 L231.08,706.12 L231.09,706.05 L231.09,705.99 L231.09,705.92 L231.1,705.85 C231.1,704.99,230.59,704.73,230.19,704.73 C229.91,704.73,229.3,704.81,229.01,705.22 C229.33,705.24,229.41,705.47,229.41,705.61 C229.41,705.83,229.24,705.99,229.03,705.99 C228.83,705.99,228.64,705.88,228.64,705.59 C228.64,704.94,229.36,704.51,230.2,704.51 C231.17,704.51,231.84,705.16,231.84,705.85 C231.84,706.4,231.4,706.94,230.63,707.1 C231.36,707.36,231.63,707.89,231.63,708.31 C231.63,708.86,230.99,709.27,230.22,709.27 C229.45,709.27,228.85,708.89,228.85,708.34 C228.85,708.1,229.01,707.97,229.21,707.97 C229.43,707.97,229.57,708.13,229.57,708.32 C229.57,708.53,229.43,708.67,229.21,708.68 C229.46,708.99,229.94,709.07,230.2,709.07 C230.51,709.07,230.95,708.91,230.95,708.31 C230.95,708.02,230.85,707.7,230.67,707.48 C230.44,707.22,230.25,707.2,229.9,707.18 C229.72,707.17,229.71,707.17,229.68,707.16 C229.66,707.16,229.6,707.15,229.6,707.07 C229.6,706.97,229.67,706.97,229.79,706.97 Z " />
</g>    <g
       id="g5676"
       transform="matrix(5.0221643,0,0,-5.1012617,-667.06855,4439.0917)"
       xml:space="preserve"
       stroke="black"
       stroke-linecap="butt"
       stroke-linejoin="miter"
       stroke-miterlimit="10.433"
       stroke-dasharray="none"
       stroke-dashoffset="0"
       stroke-opacity="1"
       fill="none"
       fill-rule="evenodd"
       fill-opacity="1"
       font-style="normal"
       font-variant="normal"
       font-weight="normal"
       font-stretch="normal"
       font-size-adjust="none"
       letter-spacing="normal"
       word-spacing="normal"
       text-anchor="start"
       ns0:text="$ v_{3}^{2} $"
       ns0:preamble=""
       style="font-style:normal;font-variant:normal;font-weight:normal;font-stretch:normal;letter-spacing:normal;word-spacing:normal;text-anchor:start;fill:none;stroke:#000000;stroke-linecap:butt;stroke-linejoin:miter;stroke-miterlimit:10.43299961;stroke-opacity:1;stroke-dasharray:none;stroke-dashoffset:0">
<path
   d="M228.1,710.83 L228.1,710.85 L228.1,710.88 L228.1,710.9 L228.09,710.92 L228.09,710.95 L228.09,710.97 L228.09,710.99 L228.09,711.01 L228.08,711.05 L228.07,711.09 L228.06,711.13 L228.05,711.16 L228.04,711.2 L228.03,711.23 L228.02,711.26 L228.01,711.28 L227.99,711.31 L227.98,711.33 L227.96,711.36 L227.95,711.38 L227.93,711.4 L227.91,711.41 L227.89,711.43 L227.88,711.45 L227.86,711.46 L227.84,711.47 L227.82,711.48 L227.8,711.49 L227.78,711.5 L227.77,711.51 L227.75,711.51 L227.73,711.52 L227.71,711.52 L227.69,711.52 L227.68,711.52 L227.66,711.52 C227.41,711.52,227.17,711.27,227.17,711.05 C227.17,710.92,227.22,710.86,227.33,710.75 C227.54,710.55,227.67,710.29,227.67,709.93 C227.67,709.51,227.06,707.23,225.89,707.23 C225.39,707.23,225.16,707.58,225.16,708.1 C225.16,708.66,225.43,709.38,225.74,710.21 C225.8,710.38,225.85,710.52,225.85,710.71 C225.85,711.16,225.54,711.52,225.04,711.52 C224.1,711.52,223.72,710.08,223.72,709.99 C223.72,709.89,223.82,709.89,223.84,709.89 C223.94,709.89,223.95,709.91,224,710.07 C224.29,711.08,224.72,711.3,225.01,711.3 C225.09,711.3,225.26,711.3,225.26,710.99 C225.26,710.74,225.16,710.47,225.09,710.29 C224.65,709.14,224.52,708.68,224.52,708.25 C224.52,707.17,225.4,707.02,225.85,707.02 C227.53,707.02,228.1,710.31,228.1,710.83 Z "
   stroke-width="0"
   fill="black"
   id="path5678" />
<path
   d="M232.14,712.01 H231.9 C231.88,711.85,231.81,711.44,231.72,711.37 C231.66,711.33,231.13,711.33,231.03,711.33 H229.75 C230.48,711.98,230.72,712.17,231.14,712.5 C231.65,712.91,232.14,713.34,232.14,714 C232.14,714.84,231.4,715.36,230.51,715.36 C229.64,715.36,229.06,714.75,229.06,714.11 C229.06,713.76,229.36,713.72,229.43,713.72 C229.59,713.72,229.8,713.84,229.8,714.09 C229.8,714.22,229.75,714.46,229.38,714.46 C229.6,714.95,230.07,715.11,230.4,715.11 C231.1,715.11,231.46,714.56,231.46,714 C231.46,713.4,231.03,712.92,230.81,712.67 L229.13,711.01 C229.06,710.95,229.06,710.93,229.06,710.74 H231.93 Z "
   stroke-width="0"
   fill="black"
   id="path5680" />
<path
   d="M230.16,706.97 L230.21,706.97 L230.26,706.97 L230.31,706.96 L230.36,706.96 L230.4,706.95 L230.45,706.93 L230.49,706.92 L230.54,706.9 L230.58,706.89 L230.62,706.86 L230.66,706.84 L230.7,706.82 L230.73,706.79 L230.77,706.76 L230.8,706.73 L230.83,706.69 L230.86,706.66 L230.89,706.62 L230.92,706.58 L230.94,706.54 L230.97,706.49 L230.99,706.44 L231.01,706.4 L231.03,706.34 L231.04,706.29 L231.06,706.23 L231.07,706.18 L231.08,706.12 L231.09,706.05 L231.09,705.99 L231.09,705.92 L231.1,705.85 C231.1,704.99,230.59,704.73,230.19,704.73 C229.91,704.73,229.3,704.81,229.01,705.22 C229.33,705.24,229.41,705.47,229.41,705.61 C229.41,705.83,229.24,705.99,229.03,705.99 C228.83,705.99,228.64,705.88,228.64,705.59 C228.64,704.94,229.36,704.51,230.2,704.51 C231.17,704.51,231.84,705.16,231.84,705.85 C231.84,706.4,231.4,706.94,230.63,707.1 C231.36,707.36,231.63,707.89,231.63,708.31 C231.63,708.86,230.99,709.27,230.22,709.27 C229.45,709.27,228.85,708.89,228.85,708.34 C228.85,708.1,229.01,707.97,229.21,707.97 C229.43,707.97,229.57,708.13,229.57,708.32 C229.57,708.53,229.43,708.67,229.21,708.68 C229.46,708.99,229.94,709.07,230.2,709.07 C230.51,709.07,230.95,708.91,230.95,708.31 C230.95,708.02,230.85,707.7,230.67,707.48 C230.44,707.22,230.25,707.2,229.9,707.18 C229.72,707.17,229.71,707.17,229.68,707.16 C229.66,707.16,229.6,707.15,229.6,707.07 C229.6,706.97,229.67,706.97,229.79,706.97 Z "
   stroke-width="0"
   fill="black"
   id="path5682" />
</g>    <g
       style="font-style:normal;font-variant:normal;font-weight:normal;font-stretch:normal;letter-spacing:normal;word-spacing:normal;text-anchor:start;fill:none;stroke:#000000;stroke-linecap:butt;stroke-linejoin:miter;stroke-miterlimit:10.43299961;stroke-opacity:1;stroke-dasharray:none;stroke-dashoffset:0"
       ns0:preamble=""
       ns0:text="$ v_{2}^{1} $"
       text-anchor="start"
       word-spacing="normal"
       letter-spacing="normal"
       font-size-adjust="none"
       font-stretch="normal"
       font-weight="normal"
       font-variant="normal"
       font-style="normal"
       fill-opacity="1"
       fill-rule="evenodd"
       fill="none"
       stroke-opacity="1"
       stroke-dashoffset="0"
       stroke-dasharray="none"
       stroke-miterlimit="10.433"
       stroke-linejoin="miter"
       stroke-linecap="butt"
       stroke="black"
       xml:space="preserve"
       transform="matrix(5.0221643,0,0,-5.1012617,-827.19917,4298.9773)"
       id="g5922">
<path
   id="path5924"
   fill="black"
   stroke-width="0"
   d="M228.1,710.83 L228.1,710.85 L228.1,710.88 L228.1,710.9 L228.09,710.92 L228.09,710.95 L228.09,710.97 L228.09,710.99 L228.09,711.01 L228.08,711.05 L228.07,711.09 L228.06,711.13 L228.05,711.16 L228.04,711.2 L228.03,711.23 L228.02,711.26 L228.01,711.28 L227.99,711.31 L227.98,711.33 L227.96,711.36 L227.95,711.38 L227.93,711.4 L227.91,711.41 L227.89,711.43 L227.88,711.45 L227.86,711.46 L227.84,711.47 L227.82,711.48 L227.8,711.49 L227.78,711.5 L227.77,711.51 L227.75,711.51 L227.73,711.52 L227.71,711.52 L227.69,711.52 L227.68,711.52 L227.66,711.52 C227.41,711.52,227.17,711.27,227.17,711.05 C227.17,710.92,227.22,710.86,227.33,710.75 C227.54,710.55,227.67,710.29,227.67,709.93 C227.67,709.51,227.06,707.23,225.89,707.23 C225.39,707.23,225.16,707.58,225.16,708.1 C225.16,708.66,225.43,709.38,225.74,710.21 C225.8,710.38,225.85,710.52,225.85,710.71 C225.85,711.16,225.54,711.52,225.04,711.52 C224.1,711.52,223.72,710.08,223.72,709.99 C223.72,709.89,223.82,709.89,223.84,709.89 C223.94,709.89,223.95,709.91,224,710.07 C224.29,711.08,224.72,711.3,225.01,711.3 C225.09,711.3,225.26,711.3,225.26,710.99 C225.26,710.74,225.16,710.47,225.09,710.29 C224.65,709.14,224.52,708.68,224.52,708.25 C224.52,707.17,225.4,707.02,225.85,707.02 C227.53,707.02,228.1,710.31,228.1,710.83 Z " />
<path
   id="path5926"
   fill="black"
   stroke-width="0"
   d="M230.95,715.16 L230.95,715.17 L230.95,715.18 L230.95,715.19 L230.95,715.2 L230.95,715.2 L230.95,715.21 L230.95,715.22 L230.95,715.22 L230.95,715.23 L230.95,715.24 L230.95,715.24 L230.95,715.25 L230.95,715.26 L230.95,715.26 L230.95,715.27 L230.95,715.27 L230.95,715.28 L230.94,715.28 L230.94,715.29 L230.94,715.3 L230.94,715.31 L230.93,715.31 L230.93,715.32 L230.93,715.32 L230.92,715.33 L230.92,715.33 L230.91,715.34 L230.9,715.34 L230.89,715.34 L230.89,715.35 L230.88,715.35 L230.87,715.35 L230.86,715.35 L230.86,715.35 L230.85,715.35 L230.85,715.35 L230.84,715.35 L230.83,715.36 L230.83,715.36 L230.82,715.36 L230.81,715.36 L230.81,715.36 L230.8,715.36 L230.79,715.36 L230.79,715.36 L230.78,715.36 L230.77,715.36 L230.76,715.36 L230.75,715.36 L230.74,715.36 C230.3,714.92,229.66,714.91,229.38,714.91 V714.66 C229.54,714.66,230.01,714.66,230.39,714.86 V711.31 C230.39,711.08,230.39,710.99,229.69,710.99 H229.43 V710.74 C229.55,710.75,230.41,710.77,230.67,710.77 C230.88,710.77,231.76,710.75,231.91,710.74 V710.99 H231.65 C230.95,710.99,230.95,711.08,230.95,711.31 Z " />
<path
   id="path5928"
   fill="black"
   stroke-width="0"
   d="M231.78,705.92 H231.54 C231.52,705.77,231.45,705.35,231.36,705.28 C231.3,705.24,230.77,705.24,230.67,705.24 H229.39 C230.12,705.89,230.36,706.08,230.78,706.41 C231.3,706.82,231.78,707.25,231.78,707.91 C231.78,708.75,231.04,709.27,230.15,709.27 C229.29,709.27,228.7,708.66,228.7,708.02 C228.7,707.67,229,707.64,229.07,707.64 C229.24,707.64,229.44,707.75,229.44,708 C229.44,708.13,229.39,708.37,229.03,708.37 C229.24,708.87,229.72,709.02,230.04,709.02 C230.74,709.02,231.1,708.48,231.1,707.91 C231.1,707.31,230.67,706.83,230.45,706.58 L228.77,704.92 C228.7,704.86,228.7,704.85,228.7,704.65 H231.57 Z " />
</g>  </g>
</svg>
