<?xml version="1.0" encoding="UTF-8" standalone="no"?>
<!-- Created with Inkscape (http://www.inkscape.org/) -->

<svg
   xmlns:dc="http://purl.org/dc/elements/1.1/"
   xmlns:cc="http://creativecommons.org/ns#"
   xmlns:rdf="http://www.w3.org/1999/02/22-rdf-syntax-ns#"
   xmlns:svg="http://www.w3.org/2000/svg"
   xmlns="http://www.w3.org/2000/svg"
   xmlns:sodipodi="http://sodipodi.sourceforge.net/DTD/sodipodi-0.dtd"
   xmlns:inkscape="http://www.inkscape.org/namespaces/inkscape"
   width="1200"
   height="1200"
   id="svg2"
   version="1.1"
   inkscape:version="0.48.1 "
   sodipodi:docname="Wingman.pdf">
  <sodipodi:namedview
     id="base"
     pagecolor="#ffffff"
     bordercolor="#666666"
     borderopacity="1.0"
     inkscape:pageopacity="0.0"
     inkscape:pageshadow="2"
     inkscape:zoom="0.52160037"
     inkscape:cx="373.79501"
     inkscape:cy="558.22768"
     inkscape:document-units="px"
     inkscape:current-layer="layer1"
     showgrid="false"
     inkscape:window-width="1366"
     inkscape:window-height="706"
     inkscape:window-x="-8"
     inkscape:window-y="-8"
     inkscape:window-maximized="1"
     fit-margin-top="0"
     fit-margin-left="0"
     fit-margin-right="0"
     fit-margin-bottom="0">
    <inkscape:grid
       type="xygrid"
       id="grid2985"
       empspacing="5"
       visible="true"
       enabled="true"
       snapvisiblegridlinesonly="true" />
  </sodipodi:namedview>
  <defs
     id="defs4">
    <marker
       inkscape:stockid="Arrow2Mend"
       orient="auto"
       refY="0"
       refX="0"
       id="Arrow2Mend"
       style="overflow:visible">
      <path
         id="path3903"
         style="font-size:12px;fill-rule:evenodd;stroke-width:0.625;stroke-linejoin:round"
         d="M 8.7185878,4.0337352 -2.2072895,0.01601326 8.7185884,-4.0017078 c -1.7454984,2.3720609 -1.7354408,5.6174519 -6e-7,8.035443 z"
         transform="scale(-0.6,-0.6)"
         inkscape:connector-curvature="0" />
    </marker>
    <marker
       inkscape:stockid="Arrow2Lend"
       orient="auto"
       refY="0"
       refX="0"
       id="Arrow2Lend"
       style="overflow:visible">
      <path
         id="path3897"
         style="font-size:12px;fill-rule:evenodd;stroke-width:0.625;stroke-linejoin:round"
         d="M 8.7185878,4.0337352 -2.2072895,0.01601326 8.7185884,-4.0017078 c -1.7454984,2.3720609 -1.7354408,5.6174519 -6e-7,8.035443 z"
         transform="matrix(-1.1,0,0,-1.1,-1.1,0)"
         inkscape:connector-curvature="0" />
    </marker>
    <marker
       inkscape:stockid="Arrow2Mend"
       orient="auto"
       refY="0"
       refX="0"
       id="Arrow2Mend-8"
       style="overflow:visible">
      <path
         inkscape:connector-curvature="0"
         id="path3903-8"
         style="font-size:12px;fill-rule:evenodd;stroke-width:0.625;stroke-linejoin:round"
         d="M 8.7185878,4.0337352 -2.2072895,0.01601326 8.7185884,-4.0017078 c -1.7454984,2.3720609 -1.7354408,5.6174519 -6e-7,8.035443 z"
         transform="scale(-0.6,-0.6)" />
    </marker>
  </defs>
  <metadata
     id="metadata7">
    <rdf:RDF>
      <cc:Work
         rdf:about="">
        <dc:format>image/svg+xml</dc:format>
        <dc:type
           rdf:resource="http://purl.org/dc/dcmitype/StillImage" />
        <dc:title></dc:title>
      </cc:Work>
    </rdf:RDF>
  </metadata>
  <g
     inkscape:label="Layer 1"
     inkscape:groupmode="layer"
     id="layer1"
     transform="translate(-345.62828,462.59232)">
    <g
       id="g5459"
       transform="translate(235.81271,-306.74824)">
      <path
         transform="matrix(1.96,0,0,1.96,-101.534,19.914304)"
         d="m 387.26968,232.28992 c 0,44.73545 -35.6215,81.00071 -79.56283,81.00071 -43.94134,0 -79.56283,-36.26526 -79.56283,-81.00071 0,-44.73546 35.62149,-81.00071 79.56283,-81.00071 43.94133,0 79.56283,36.26525 79.56283,81.00071 z"
         sodipodi:ry="81.00071"
         sodipodi:rx="79.562828"
         sodipodi:cy="232.28992"
         sodipodi:cx="307.70685"
         id="path3833-9"
         style="opacity:0.5;fill:#c7eea0;fill-opacity:1;stroke:none"
         sodipodi:type="arc" />
      <path
         transform="matrix(3.92,0,0,3.92,-426.21084,-490.69153)"
         d="m 387.26968,232.28992 c 0,44.73545 -35.6215,81.00071 -79.56283,81.00071 -43.94134,0 -79.56283,-36.26526 -79.56283,-81.00071 0,-44.73546 35.62149,-81.00071 79.56283,-81.00071 43.94133,0 79.56283,36.26525 79.56283,81.00071 z"
         sodipodi:ry="81.00071"
         sodipodi:rx="79.562828"
         sodipodi:cy="232.28992"
         sodipodi:cx="307.70685"
         id="path3833-4"
         style="opacity:0.5;fill:#eedaa0;fill-opacity:1;stroke:none"
         sodipodi:type="arc" />
      <path
         transform="matrix(1.96,0,0,1.96,176.14985,-31.485186)"
         d="m 387.26968,232.28992 c 0,44.73545 -35.6215,81.00071 -79.56283,81.00071 -43.94134,0 -79.56283,-36.26526 -79.56283,-81.00071 0,-44.73546 35.62149,-81.00071 79.56283,-81.00071 43.94133,0 79.56283,36.26525 79.56283,81.00071 z"
         sodipodi:ry="81.00071"
         sodipodi:rx="79.562828"
         sodipodi:cy="232.28992"
         sodipodi:cx="307.70685"
         id="path3833"
         style="opacity:0.5;fill:#a0c1ee;fill-opacity:1;stroke:none"
         sodipodi:type="arc" />
      <g
         transform="matrix(0.36,0,0,0.36,415.79694,317.18735)"
         id="g3777">
        <rect
           style="fill:#d1c7c7;fill-opacity:1;fill-rule:evenodd;stroke:#000000;stroke-width:1px;stroke-linecap:butt;stroke-linejoin:miter;stroke-opacity:1"
           id="rect2987"
           width="120"
           height="80"
           x="160"
           y="412.36218" />
        <rect
           style="fill:#000000;fill-opacity:1"
           id="rect3757"
           width="20.609648"
           height="50.80518"
           x="137.07812"
           y="429.75909" />
        <rect
           style="fill:#000000;fill-opacity:1"
           id="rect3757-1"
           width="20.609648"
           height="50.80518"
           x="282.61212"
           y="429.14041" />
      </g>
      <g
         transform="matrix(0.36,0,0,0.36,583.73038,327.42441)"
         id="g3827">
        <path
           transform="matrix(1.5,0,0,1.5,-272.23534,-131.93736)"
           sodipodi:type="arc"
           style="fill:#a0c1ee;fill-opacity:1;stroke:#000000;stroke-width:0.66666669;stroke-miterlimit:4;stroke-opacity:1;stroke-dasharray:none"
           id="path3782-7"
           sodipodi:cx="543.61505"
           sodipodi:cy="264.73038"
           sodipodi:rx="39.313808"
           sodipodi:ry="39.313808"
           d="m 582.92886,264.73038 c 0,21.71241 -17.60139,39.31381 -39.31381,39.31381 -21.71242,0 -39.31381,-17.6014 -39.31381,-39.31381 0,-21.71242 17.60139,-39.31381 39.31381,-39.31381 21.71242,0 39.31381,17.60139 39.31381,39.31381 z" />
        <path
           sodipodi:type="arc"
           style="fill:#eec6a0;fill-opacity:1;stroke:#000000;stroke-opacity:1"
           id="path3782"
           sodipodi:cx="543.61505"
           sodipodi:cy="264.73038"
           sodipodi:rx="39.313808"
           sodipodi:ry="39.313808"
           d="m 582.92886,264.73038 c 0,21.71241 -17.60139,39.31381 -39.31381,39.31381 -21.71242,0 -39.31381,-17.6014 -39.31381,-39.31381 0,-21.71242 17.60139,-39.31381 39.31381,-39.31381 21.71242,0 39.31381,17.60139 39.31381,39.31381 z" />
        <path
           transform="matrix(0.3,0,0,0.3,319.08007,147.27579)"
           sodipodi:type="arc"
           style="fill:#a0c1ee;fill-opacity:1;stroke:#000000;stroke-width:3.33333325;stroke-miterlimit:4;stroke-opacity:1;stroke-dasharray:none"
           id="path3782-4"
           sodipodi:cx="543.61505"
           sodipodi:cy="264.73038"
           sodipodi:rx="39.313808"
           sodipodi:ry="39.313808"
           d="m 582.92886,264.73038 c 0,21.71241 -17.60139,39.31381 -39.31381,39.31381 -21.71242,0 -39.31381,-17.6014 -39.31381,-39.31381 0,-21.71242 17.60139,-39.31381 39.31381,-39.31381 21.71242,0 39.31381,17.60139 39.31381,39.31381 z" />
        <path
           transform="matrix(0.3,0,0,0.3,437.65846,227.11547)"
           sodipodi:type="arc"
           style="fill:#a0c1ee;fill-opacity:1;stroke:#000000;stroke-width:3.33333325;stroke-miterlimit:4;stroke-opacity:1;stroke-dasharray:none"
           id="path3782-4-0"
           sodipodi:cx="543.61505"
           sodipodi:cy="264.73038"
           sodipodi:rx="39.313808"
           sodipodi:ry="39.313808"
           d="m 582.92886,264.73038 c 0,21.71241 -17.60139,39.31381 -39.31381,39.31381 -21.71242,0 -39.31381,-17.6014 -39.31381,-39.31381 0,-21.71242 17.60139,-39.31381 39.31381,-39.31381 21.71242,0 39.31381,17.60139 39.31381,39.31381 z" />
      </g>
      <path
         transform="translate(0,0.00218262)"
         inkscape:connector-curvature="0"
         id="path3871"
         d="M 494.81171,481.63195 399.91632,354.20099"
         style="fill:#000000;fill-opacity:1;stroke:#646464;stroke-width:2;stroke-linecap:butt;stroke-linejoin:miter;stroke-miterlimit:4;stroke-opacity:1;stroke-dasharray:none;stroke-dashoffset:0;marker-end:url(#Arrow2Mend)" />
      <path
         transform="translate(0,0.00218262)"
         inkscape:connector-curvature="0"
         id="path4317"
         d="M 778.14226,421.98342 988.26778,656.51061"
         style="fill:#323232;fill-opacity:1;stroke:#646464;stroke-width:2;stroke-linecap:butt;stroke-linejoin:miter;stroke-miterlimit:4;stroke-opacity:1;stroke-dasharray:none;marker-end:url(#Arrow2Mend)" />
      <path
         sodipodi:nodetypes="cc"
         inkscape:connector-curvature="0"
         id="path4317-2"
         d="m 778.4292,422.74498 80.85718,-134.5849"
         style="fill:#323232;fill-opacity:1;stroke:#646464;stroke-width:2;stroke-linecap:butt;stroke-linejoin:miter;stroke-miterlimit:4;stroke-opacity:1;stroke-dasharray:none;marker-end:url(#Arrow2Mend)" />
      <text
         sodipodi:linespacing="125%"
         id="text5435"
         y="281.11966"
         x="690.72009"
         style="font-size:25px;font-style:normal;font-weight:normal;line-height:125%;letter-spacing:0px;word-spacing:0px;fill:#000000;fill-opacity:1;stroke:none;font-family:Sans"
         xml:space="preserve"><tspan
           y="281.11966"
           x="690.72009"
           id="tspan5437"
           sodipodi:role="line">Human</tspan><tspan
           id="tspan5439"
           y="312.36966"
           x="690.72009"
           sodipodi:role="line">observation</tspan><tspan
           id="tspan5441"
           y="343.61966"
           x="690.72009"
           sodipodi:role="line">range</tspan></text>
      <text
         sodipodi:linespacing="125%"
         id="text5443"
         y="470.92017"
         x="895.85797"
         style="font-size:40px;font-style:normal;font-weight:normal;line-height:125%;letter-spacing:0px;word-spacing:0px;fill:#000000;fill-opacity:1;stroke:none;font-family:Sans"
         xml:space="preserve"><tspan
           style="font-size:25px"
           y="470.92017"
           x="895.85797"
           id="tspan5445"
           sodipodi:role="line">Flank</tspan><tspan
           style="font-size:25px"
           id="tspan5447"
           y="502.17017"
           x="895.85797"
           sodipodi:role="line">support</tspan><tspan
           style="font-size:25px"
           id="tspan5449"
           y="533.42017"
           x="895.85797"
           sodipodi:role="line">range</tspan></text>
      <text
         sodipodi:linespacing="125%"
         id="text5451"
         y="342.46933"
         x="445.32147"
         style="font-size:40px;font-style:normal;font-weight:normal;line-height:125%;letter-spacing:0px;word-spacing:0px;fill:#000000;fill-opacity:1;stroke:none;font-family:Sans"
         xml:space="preserve"><tspan
           style="font-size:25px"
           y="342.46933"
           x="445.32147"
           id="tspan5453"
           sodipodi:role="line">Robot</tspan><tspan
           style="font-size:25px"
           id="tspan5455"
           y="373.71933"
           x="445.32147"
           sodipodi:role="line">observation</tspan><tspan
           style="font-size:25px"
           id="tspan5457"
           y="404.96933"
           x="445.32147"
           sodipodi:role="line">range</tspan></text>
    </g>
  </g>
</svg>
