<?xml version="1.0" encoding="UTF-8" standalone="no"?>
<!-- Created with Inkscape (http://www.inkscape.org/) -->

<svg
   xmlns:ns0="http://www.iki.fi/pav/software/textext/"
   xmlns:dc="http://purl.org/dc/elements/1.1/"
   xmlns:cc="http://creativecommons.org/ns#"
   xmlns:rdf="http://www.w3.org/1999/02/22-rdf-syntax-ns#"
   xmlns:svg="http://www.w3.org/2000/svg"
   xmlns="http://www.w3.org/2000/svg"
   xmlns:sodipodi="http://sodipodi.sourceforge.net/DTD/sodipodi-0.dtd"
   xmlns:inkscape="http://www.inkscape.org/namespaces/inkscape"
   width="2436.7048"
   height="1040.0001"
   id="svg2"
   version="1.1"
   inkscape:version="0.48.1 "
   sodipodi:docname="two_hills_case.svg">
  <sodipodi:namedview
     id="base"
     pagecolor="#ffffff"
     bordercolor="#666666"
     borderopacity="1.0"
     inkscape:pageopacity="0.0"
     inkscape:pageshadow="2"
     inkscape:zoom="0.34390706"
     inkscape:cx="1180.7854"
     inkscape:cy="520.00005"
     inkscape:document-units="px"
     inkscape:current-layer="layer1"
     showgrid="true"
     fit-margin-top="0"
     fit-margin-left="0"
     fit-margin-right="0"
     fit-margin-bottom="0"
     inkscape:window-width="1280"
     inkscape:window-height="962"
     inkscape:window-x="-8"
     inkscape:window-y="-8"
     inkscape:window-maximized="1">
    <inkscape:grid
       type="xygrid"
       id="grid2985"
       empspacing="5"
       visible="true"
       enabled="true"
       snapvisiblegridlinesonly="true" />
  </sodipodi:namedview>
  <defs
     id="defs4">
    <inkscape:path-effect
       effect="skeletal"
       id="path-effect3927"
       is_visible="true"
       pattern="M 0,5 10,10 10,0 z"
       copytype="single_stretched"
       prop_scale="1"
       scale_y_rel="false"
       spacing="0"
       normal_offset="0"
       tang_offset="0"
       prop_units="false"
       vertical_pattern="false"
       fuse_tolerance="0" />
    <inkscape:path-effect
       effect="spiro"
       id="path-effect3925"
       is_visible="true" />
    <marker
       inkscape:stockid="TriangleOutM"
       orient="auto"
       refY="0"
       refX="0"
       id="TriangleOutM"
       style="overflow:visible">
      <path
         id="path4193"
         d="m 5.77,0 -8.65,5 0,-10 8.65,5 z"
         style="fill-rule:evenodd;stroke:#000000;stroke-width:1pt;marker-start:none"
         transform="scale(0.4,0.4)"
         inkscape:connector-curvature="0" />
    </marker>
    <marker
       inkscape:stockid="TriangleInM"
       orient="auto"
       refY="0"
       refX="0"
       id="TriangleInM"
       style="overflow:visible">
      <path
         id="path4184"
         d="m 5.77,0 -8.65,5 0,-10 8.65,5 z"
         style="fill-rule:evenodd;stroke:#000000;stroke-width:1pt;marker-start:none"
         transform="scale(-0.4,-0.4)"
         inkscape:connector-curvature="0" />
    </marker>
  </defs>
  <metadata
     id="metadata7">
    <rdf:RDF>
      <cc:Work
         rdf:about="">
        <dc:format>image/svg+xml</dc:format>
        <dc:type
           rdf:resource="http://purl.org/dc/dcmitype/StillImage" />
        <dc:title />
      </cc:Work>
    </rdf:RDF>
  </metadata>
  <g
     inkscape:label="Layer 1"
     inkscape:groupmode="layer"
     id="layer1"
     transform="translate(1862.0252,25.093157)">
    <path
       style="fill:none;stroke:#000000;stroke-width:5;stroke-linecap:butt;stroke-linejoin:miter;stroke-miterlimit:4;stroke-opacity:1;stroke-dasharray:15, 15;stroke-dashoffset:0"
       d="m -805.71426,831.7138 c 0,0 213.02882,-767.70982 454.19356,-376.84386 241.16474,390.86596 233.12593,380.34939 233.12593,380.34939"
       id="path3145"
       inkscape:connector-curvature="0" />
    <path
       style="fill:none;stroke:#000000;stroke-width:5;stroke-linecap:butt;stroke-linejoin:miter;stroke-miterlimit:4;stroke-opacity:1;stroke-dasharray:15, 15;stroke-dashoffset:0"
       d="m -1831.2761,822.69747 c 0,0 314.5546,-1261.33032 670.6543,-619.14615 356.09974,642.1842 344.22972,624.90566 344.22972,624.90566"
       id="path3145-0"
       inkscape:connector-curvature="0" />
    <path
       sodipodi:type="arc"
       style="fill:#f70808;fill-opacity:1;stroke:none"
       id="path2987-6"
       sodipodi:cx="80"
       sodipodi:cy="132.36218"
       sodipodi:rx="40"
       sodipodi:ry="40"
       d="m 120,132.36218 c 0,22.09139 -17.90861,40 -40,40 -22.09139,0 -40,-17.90861 -40,-40 0,-22.09139 17.90861,-39.999997 40,-39.999997 22.09139,0 40,17.908607 40,39.999997 z"
       transform="translate(-1459.5252,-117.45534)" />
    <path
       sodipodi:type="star"
       style="fill:#08f713;fill-opacity:1;stroke:none"
       id="path3774-2"
       sodipodi:sides="3"
       sodipodi:cx="-320"
       sodipodi:cy="412.36218"
       sodipodi:r1="40"
       sodipodi:r2="20"
       sodipodi:arg1="1.5707963"
       sodipodi:arg2="2.6179939"
       inkscape:flatsided="true"
       inkscape:rounded="0"
       inkscape:randomized="0"
       d="m -320,452.36218 -34.64102,-60 69.28204,0 z"
       inkscape:transform-center-y="11.601259"
       transform="matrix(1.1601276,0,0,1.1601276,-323.04488,70.939583)" />
    <rect
       style="fill:#0000ff;fill-rule:evenodd;stroke:none"
       id="rect3757-6-0"
       width="80"
       height="80"
       x="-548.57141"
       y="312.36221" />
    <path
       style="fill:none;stroke:#000000;stroke-width:5;stroke-linecap:butt;stroke-linejoin:miter;stroke-miterlimit:4;stroke-opacity:1;stroke-dasharray:none"
       d="m -1859.5252,974.9068 1760.000002,0"
       id="path3056"
       inkscape:connector-curvature="0" />
    <path
       sodipodi:type="arc"
       style="fill:#f70808;fill-opacity:1;stroke:none"
       id="path2987-6-9"
       sodipodi:cx="80"
       sodipodi:cy="132.36218"
       sodipodi:rx="40"
       sodipodi:ry="40"
       d="m 120,132.36218 c 0,22.09139 -17.90861,40 -40,40 -22.09139,0 -40,-17.90861 -40,-40 0,-22.09139 17.90861,-39.999997 40,-39.999997 22.09139,0 40,17.908607 40,39.999997 z"
       transform="translate(-1499.5252,842.54466)" />
    <path
       sodipodi:type="star"
       style="fill:#08f713;fill-opacity:1;stroke:none"
       id="path3774-2-8"
       sodipodi:sides="3"
       sodipodi:cx="-320"
       sodipodi:cy="412.36218"
       sodipodi:r1="40"
       sodipodi:r2="20"
       sodipodi:arg1="1.5707963"
       sodipodi:arg2="2.6179939"
       inkscape:flatsided="true"
       inkscape:rounded="0"
       inkscape:randomized="0"
       d="m -320,452.36218 -34.64102,-60 69.28204,0 z"
       inkscape:transform-center-y="11.601259"
       transform="matrix(1.1601276,0,0,1.1601276,-328.47237,479.71664)" />
    <rect
       style="fill:#0000ff;fill-rule:evenodd;stroke:none"
       id="rect3757-6-0-3"
       width="80"
       height="80"
       x="-539.52521"
       y="934.90692" />
    <path
       style="fill:none;stroke:#000000;stroke-width:5;stroke-linecap:butt;stroke-linejoin:miter;stroke-miterlimit:4;stroke-opacity:1;stroke-dasharray:none;marker-end:url(#TriangleOutM)"
       d="m -659.52519,894.90676 120,0"
       id="path4488"
       inkscape:connector-curvature="0" />
    <path
       style="fill:none;stroke:#000000;stroke-width:5;stroke-linecap:butt;stroke-linejoin:miter;stroke-miterlimit:4;stroke-opacity:1;stroke-dasharray:none;marker-start:url(#TriangleInM);marker-end:none"
       d="m -859.52519,894.90676 80,0"
       id="path3862"
       inkscape:connector-curvature="0" />
    <path
       sodipodi:type="arc"
       style="fill:#f70808;fill-opacity:1;stroke:none"
       id="path2987"
       sodipodi:cx="80"
       sodipodi:cy="132.36218"
       sodipodi:rx="40"
       sodipodi:ry="40"
       d="m 120,132.36218 c 0,22.09139 -17.90861,40 -40,40 -22.09139,0 -40,-17.90861 -40,-40 0,-22.09139 17.90861,-39.999997 40,-39.999997 22.09139,0 40,17.908607 40,39.999997 z"
       transform="translate(-28.096638,179.6875)" />
    <rect
       style="fill:#0000ff;fill-rule:evenodd;stroke:none"
       id="rect3757"
       width="80"
       height="80"
       x="11.903393"
       y="512.04968" />
    <path
       sodipodi:type="star"
       style="fill:#08f713;fill-opacity:1;stroke:none"
       id="path3774"
       sodipodi:sides="3"
       sodipodi:cx="-320"
       sodipodi:cy="412.36218"
       sodipodi:r1="40"
       sodipodi:r2="20"
       sodipodi:arg1="1.5707963"
       sodipodi:arg2="2.6179939"
       inkscape:flatsided="true"
       inkscape:rounded="0"
       inkscape:randomized="0"
       d="m -320,452.36218 -34.64102,-60 69.28204,0 z"
       inkscape:transform-center-y="11.601259"
       transform="matrix(1.1601276,0,0,1.1601276,422.95616,-63.140508)" />
    <text
       xml:space="preserve"
       style="font-size:40px;font-style:normal;font-weight:normal;line-height:125%;letter-spacing:0px;word-spacing:0px;fill:#000000;fill-opacity:1;stroke:none;font-family:Sans"
       x="143.33197"
       y="332.04968"
       id="text3776"
       sodipodi:linespacing="125%"><tspan
         sodipodi:role="line"
         id="tspan3778"
         x="143.33197"
         y="332.04968"
         style="font-size:60px">Global best</tspan></text>
    <text
       xml:space="preserve"
       style="font-size:40px;font-style:normal;font-weight:normal;line-height:125%;letter-spacing:0px;word-spacing:0px;fill:#000000;fill-opacity:1;stroke:none;font-family:Sans"
       x="143.33197"
       y="446.33536"
       id="text3780"
       sodipodi:linespacing="125%"><tspan
         sodipodi:role="line"
         id="tspan3782"
         x="143.33197"
         y="446.33536"
         style="font-size:60px">Particle</tspan></text>
    <text
       xml:space="preserve"
       style="font-size:40px;font-style:normal;font-weight:normal;line-height:125%;letter-spacing:0px;word-spacing:0px;fill:#000000;fill-opacity:1;stroke:none;font-family:Sans"
       x="140.47479"
       y="574.90686"
       id="text3784"
       sodipodi:linespacing="125%"><tspan
         sodipodi:role="line"
         id="tspan3786"
         x="140.47479"
         y="574.90686"
         style="font-size:60px">Personal best</tspan></text>
    <path
       style="fill:none;stroke:#000000;stroke-width:5;stroke-linecap:butt;stroke-linejoin:miter;stroke-miterlimit:4;stroke-opacity:1;stroke-dasharray:15, 15;stroke-dashoffset:0"
       d="m 23.331962,692.0497 119.999998,0"
       id="path4676"
       inkscape:connector-curvature="0" />
    <path
       style="fill:none;stroke:#000000;stroke-width:5;stroke-linecap:butt;stroke-linejoin:miter;stroke-miterlimit:4;stroke-opacity:1;stroke-dasharray:none"
       d="m 23.331962,772.0497 119.999998,0"
       id="path4678"
       inkscape:connector-curvature="0" />
    <text
       xml:space="preserve"
       style="font-size:40px;font-style:normal;font-weight:normal;line-height:125%;letter-spacing:0px;word-spacing:0px;fill:#000000;fill-opacity:1;stroke:none;font-family:Sans"
       x="183.33197"
       y="692.04968"
       id="text3784-1"
       sodipodi:linespacing="125%"><tspan
         sodipodi:role="line"
         id="tspan3786-3"
         x="183.33197"
         y="692.04968"
         style="font-size:60px">Fitness space</tspan></text>
    <text
       xml:space="preserve"
       style="font-size:40px;font-style:normal;font-weight:normal;line-height:125%;letter-spacing:0px;word-spacing:0px;fill:#000000;fill-opacity:1;stroke:none;font-family:Sans"
       x="183.33197"
       y="772.04968"
       id="text3784-7"
       sodipodi:linespacing="125%"><tspan
         sodipodi:role="line"
         id="tspan3786-0"
         x="183.33197"
         y="772.04968"
         style="font-size:60px">Solution space</tspan></text>
    <path
       style="fill:none;stroke:#000000;stroke-width:5;stroke-linecap:butt;stroke-linejoin:miter;stroke-miterlimit:4;stroke-opacity:1;stroke-dasharray:5, 10;stroke-dashoffset:0"
       d="m 1480,731.11609 -600,0"
       id="path5504"
       inkscape:connector-curvature="0"
       transform="translate(-1979.5252,-396.20925)" />
    <g
       style="font-style:normal;font-variant:normal;font-weight:normal;font-stretch:normal;letter-spacing:normal;word-spacing:normal;text-anchor:start;fill:none;stroke:#000000;stroke-linecap:butt;stroke-linejoin:miter;stroke-miterlimit:10.43299961;stroke-opacity:1;stroke-dasharray:none;stroke-dashoffset:0"
       ns0:preamble=""
       ns0:text="$ f(  x   ) &gt; f( x^{P} ) $"
       text-anchor="start"
       word-spacing="normal"
       letter-spacing="normal"
       font-size-adjust="none"
       font-stretch="normal"
       font-weight="normal"
       font-variant="normal"
       font-style="normal"
       fill-opacity="1"
       fill-rule="evenodd"
       fill="none"
       stroke-opacity="1"
       stroke-dashoffset="0"
       stroke-dasharray="none"
       stroke-miterlimit="10.433"
       stroke-linejoin="miter"
       stroke-linecap="butt"
       stroke="black"
       xml:space="preserve"
       transform="matrix(7.8758607,0,0,-7.8758607,-2783.403,5738.3267)"
       id="content">
<path
   id="path3153"
   fill="black"
   stroke-width="0"
   d="M227.09,711.11 H227.95 C228.15,711.11,228.25,711.11,228.25,711.3 C228.25,711.41,228.15,711.41,227.98,711.41 H227.15 L227.36,712.55 C227.4,712.76,227.54,713.47,227.6,713.58 C227.69,713.77,227.86,713.92,228.07,713.92 C228.11,713.92,228.37,713.92,228.56,713.74 C228.12,713.7,228.02,713.35,228.02,713.21 C228.02,712.98,228.2,712.86,228.39,712.86 C228.65,712.86,228.93,713.08,228.93,713.46 C228.93,713.91,228.48,714.14,228.07,714.14 C227.73,714.14,227.1,713.96,226.8,712.98 C226.74,712.77,226.71,712.67,226.47,711.41 H225.79 C225.6,711.41,225.49,711.41,225.49,711.22 C225.49,711.11,225.57,711.11,225.76,711.11 H226.42 L225.68,707.17 C225.49,706.21,225.33,705.3,224.81,705.3 C224.77,705.3,224.52,705.3,224.33,705.48 C224.79,705.51,224.88,705.87,224.88,706.02 C224.88,706.25,224.7,706.37,224.51,706.37 C224.25,706.37,223.96,706.15,223.96,705.77 C223.96,705.32,224.4,705.09,224.81,705.09 C225.36,705.09,225.76,705.67,225.93,706.05 C226.25,706.68,226.48,707.88,226.49,707.95 Z " />
<path
   id="path3155"
   fill="black"
   stroke-width="0"
   d="M232.68,704.74 L232.68,704.74 L232.68,704.75 L232.68,704.75 L232.68,704.75 L232.68,704.76 L232.68,704.76 L232.68,704.76 L232.68,704.77 L232.68,704.77 L232.67,704.77 L232.67,704.78 L232.67,704.78 L232.66,704.79 L232.66,704.79 L232.66,704.8 L232.65,704.81 L232.65,704.81 L232.64,704.82 L232.64,704.82 L232.63,704.83 L232.63,704.83 L232.63,704.84 L232.62,704.84 L232.62,704.84 L232.61,704.85 L232.61,704.85 L232.61,704.86 L232.6,704.86 L232.6,704.87 L232.59,704.87 L232.59,704.88 L232.58,704.89 L232.57,704.89 L232.57,704.9 L232.56,704.9 L232.56,704.91 L232.55,704.92 L232.54,704.93 L232.53,704.93 L232.53,704.94 L232.52,704.95 L232.51,704.96 C231.27,706.21,230.95,708.09,230.95,709.61 C230.95,711.34,231.33,713.08,232.55,714.32 C232.68,714.44,232.68,714.46,232.68,714.49 C232.68,714.56,232.64,714.59,232.58,714.59 C232.48,714.59,231.59,713.91,231,712.65 C230.49,711.55,230.37,710.45,230.37,709.61 C230.37,708.84,230.48,707.63,231.03,706.51 C231.63,705.28,232.48,704.64,232.58,704.64 C232.64,704.64,232.68,704.67,232.68,704.74 Z " />
<path
   id="path3157"
   fill="black"
   stroke-width="0"
   d="M236.59,710.13 L236.59,710.16 L236.6,710.19 L236.61,710.22 L236.62,710.26 L236.63,710.29 L236.64,710.34 L236.65,710.38 L236.67,710.42 L236.68,710.47 L236.7,710.52 L236.72,710.57 L236.74,710.62 L236.76,710.67 L236.79,710.72 L236.81,710.77 L236.84,710.81 L236.87,710.86 L236.9,710.91 L236.93,710.96 L236.97,711 L237.01,711.04 L237.05,711.08 L237.09,711.12 L237.13,711.16 L237.18,711.19 L237.23,711.22 L237.25,711.23 L237.28,711.24 L237.3,711.26 L237.33,711.27 L237.36,711.27 L237.39,711.28 L237.42,711.29 L237.45,711.29 L237.48,711.3 L237.51,711.3 L237.54,711.3 L237.57,711.3 C237.62,711.3,237.86,711.3,238.07,711.18 C237.79,711.13,237.59,710.88,237.59,710.64 C237.59,710.48,237.7,710.29,237.97,710.29 C238.19,710.29,238.51,710.47,238.51,710.87 C238.51,711.39,237.92,711.52,237.58,711.52 C237,711.52,236.65,711,236.54,710.77 C236.29,711.42,235.75,711.52,235.46,711.52 C234.42,711.52,233.85,710.24,233.85,709.99 C233.85,709.89,233.95,709.89,233.97,709.89 C234.05,709.89,234.08,709.91,234.1,710 C234.44,711.06,235.1,711.3,235.44,711.3 C235.63,711.3,235.98,711.22,235.98,710.64 C235.98,710.33,235.81,709.66,235.44,708.27 C235.28,707.65,234.93,707.23,234.49,707.23 C234.43,707.23,234.2,707.23,233.99,707.36 C234.24,707.41,234.46,707.62,234.46,707.9 C234.46,708.17,234.24,708.25,234.09,708.25 C233.79,708.25,233.54,707.99,233.54,707.67 C233.54,707.22,234.04,707.02,234.48,707.02 C235.14,707.02,235.5,707.71,235.53,707.77 C235.65,707.4,236.01,707.02,236.6,707.02 C237.63,707.02,238.2,708.3,238.2,708.55 C238.2,708.65,238.11,708.65,238.08,708.65 C237.99,708.65,237.97,708.61,237.95,708.54 C237.62,707.47,236.94,707.23,236.63,707.23 C236.24,707.23,236.08,707.55,236.08,707.89 C236.08,708.11,236.14,708.33,236.25,708.77 Z " />
<path
   id="path3159"
   fill="black"
   stroke-width="0"
   d="M241.83,709.61 L241.83,709.69 L241.83,709.76 L241.83,709.84 L241.83,709.92 L241.82,710.09 L241.81,710.27 L241.79,710.45 L241.77,710.64 L241.74,710.84 L241.71,711.03 L241.67,711.24 L241.62,711.45 L241.57,711.66 L241.51,711.87 L241.44,712.08 L241.36,712.29 L241.32,712.4 L241.27,712.51 L241.22,712.61 L241.17,712.72 C240.57,713.94,239.72,714.59,239.62,714.59 C239.56,714.59,239.52,714.55,239.52,714.49 C239.52,714.46,239.52,714.44,239.71,714.26 C240.68,713.28,241.25,711.69,241.25,709.61 C241.25,707.91,240.88,706.16,239.65,704.91 C239.52,704.79,239.52,704.77,239.52,704.74 C239.52,704.68,239.56,704.64,239.62,704.64 C239.72,704.64,240.62,705.31,241.2,706.58 C241.71,707.67,241.83,708.78,241.83,709.61 Z " />
<path
   id="path3161"
   fill="black"
   stroke-width="0"
   d="M252.32,709.39 L252.34,709.4 L252.36,709.41 L252.37,709.42 L252.38,709.42 L252.39,709.43 L252.4,709.43 L252.4,709.44 L252.41,709.44 L252.42,709.45 L252.43,709.45 L252.44,709.46 L252.44,709.47 L252.45,709.47 L252.46,709.48 L252.46,709.48 L252.47,709.49 L252.47,709.5 L252.48,709.5 L252.48,709.51 L252.49,709.52 L252.49,709.53 L252.5,709.54 L252.5,709.54 L252.5,709.55 L252.5,709.56 L252.51,709.57 L252.51,709.58 L252.51,709.59 L252.51,709.6 L252.51,709.61 C252.51,709.73,252.43,709.78,252.32,709.83 L246.8,712.43 C246.67,712.5,246.65,712.5,246.62,712.5 C246.51,712.5,246.42,712.41,246.42,712.3 C246.42,712.21,246.47,712.15,246.61,712.08 L251.84,709.61 L246.61,707.15 C246.47,707.08,246.42,707.02,246.42,706.93 C246.42,706.82,246.51,706.73,246.62,706.73 C246.65,706.73,246.67,706.73,246.8,706.8 Z " />
<path
   id="path3163"
   fill="black"
   stroke-width="0"
   d="M259.77,711.11 H260.63 C260.83,711.11,260.92,711.11,260.92,711.3 C260.92,711.41,260.83,711.41,260.66,711.41 H259.83 L260.04,712.55 C260.08,712.76,260.22,713.47,260.28,713.58 C260.37,713.77,260.54,713.92,260.75,713.92 C260.79,713.92,261.05,713.92,261.23,713.74 C260.8,713.7,260.7,713.35,260.7,713.21 C260.7,712.98,260.88,712.86,261.07,712.86 C261.32,712.86,261.61,713.08,261.61,713.46 C261.61,713.91,261.15,714.14,260.75,714.14 C260.41,714.14,259.78,713.96,259.48,712.98 C259.42,712.77,259.39,712.67,259.15,711.41 H258.46 C258.27,711.41,258.16,711.41,258.16,711.22 C258.16,711.11,258.25,711.11,258.44,711.11 H259.1 L258.35,707.17 C258.17,706.21,258,705.3,257.49,705.3 C257.45,705.3,257.2,705.3,257.01,705.48 C257.47,705.51,257.56,705.87,257.56,706.02 C257.56,706.25,257.38,706.37,257.19,706.37 C256.93,706.37,256.64,706.15,256.64,705.77 C256.64,705.32,257.08,705.09,257.49,705.09 C258.03,705.09,258.43,705.67,258.61,706.05 C258.93,706.68,259.16,707.88,259.17,707.95 Z " />
<path
   id="path3165"
   fill="black"
   stroke-width="0"
   d="M265.36,704.74 L265.36,704.74 L265.36,704.75 L265.36,704.75 L265.36,704.75 L265.36,704.76 L265.36,704.76 L265.35,704.76 L265.35,704.77 L265.35,704.77 L265.35,704.77 L265.35,704.78 L265.34,704.78 L265.34,704.79 L265.34,704.79 L265.33,704.8 L265.33,704.81 L265.32,704.81 L265.32,704.82 L265.31,704.82 L265.31,704.83 L265.31,704.83 L265.3,704.84 L265.3,704.84 L265.29,704.84 L265.29,704.85 L265.29,704.85 L265.28,704.86 L265.28,704.86 L265.27,704.87 L265.27,704.87 L265.26,704.88 L265.26,704.89 L265.25,704.89 L265.24,704.9 L265.24,704.9 L265.23,704.91 L265.22,704.92 L265.22,704.93 L265.21,704.93 L265.2,704.94 L265.2,704.95 L265.19,704.96 C263.94,706.21,263.62,708.09,263.62,709.61 C263.62,711.34,264,713.08,265.23,714.32 C265.36,714.44,265.36,714.46,265.36,714.49 C265.36,714.56,265.32,714.59,265.26,714.59 C265.16,714.59,264.26,713.91,263.67,712.65 C263.16,711.55,263.05,710.45,263.05,709.61 C263.05,708.84,263.15,707.63,263.7,706.51 C264.3,705.28,265.16,704.64,265.26,704.64 C265.32,704.64,265.36,704.67,265.36,704.74 Z " />
<path
   id="path3167"
   fill="black"
   stroke-width="0"
   d="M269.26,710.13 L269.27,710.16 L269.27,710.19 L269.28,710.22 L269.29,710.26 L269.3,710.29 L269.31,710.34 L269.33,710.38 L269.34,710.42 L269.36,710.47 L269.38,710.52 L269.39,710.57 L269.42,710.62 L269.44,710.67 L269.46,710.72 L269.49,710.77 L269.52,710.81 L269.54,710.86 L269.58,710.91 L269.61,710.96 L269.64,711 L269.68,711.04 L269.72,711.08 L269.76,711.12 L269.81,711.16 L269.85,711.19 L269.9,711.22 L269.93,711.23 L269.95,711.24 L269.98,711.26 L270.01,711.27 L270.04,711.27 L270.06,711.28 L270.09,711.29 L270.12,711.29 L270.15,711.3 L270.18,711.3 L270.22,711.3 L270.25,711.3 C270.3,711.3,270.54,711.3,270.75,711.18 C270.47,711.13,270.27,710.88,270.27,710.64 C270.27,710.48,270.38,710.29,270.65,710.29 C270.87,710.29,271.18,710.47,271.18,710.87 C271.18,711.39,270.6,711.52,270.26,711.52 C269.68,711.52,269.33,711,269.21,710.77 C268.96,711.42,268.42,711.52,268.14,711.52 C267.1,711.52,266.53,710.24,266.53,709.99 C266.53,709.89,266.63,709.89,266.65,709.89 C266.73,709.89,266.76,709.91,266.78,710 C267.12,711.06,267.78,711.3,268.11,711.3 C268.3,711.3,268.65,711.22,268.65,710.64 C268.65,710.33,268.48,709.66,268.11,708.27 C267.96,707.65,267.61,707.23,267.17,707.23 C267.11,707.23,266.88,707.23,266.67,707.36 C266.92,707.41,267.14,707.62,267.14,707.9 C267.14,708.17,266.92,708.25,266.77,708.25 C266.47,708.25,266.22,707.99,266.22,707.67 C266.22,707.22,266.72,707.02,267.16,707.02 C267.82,707.02,268.17,707.71,268.2,707.77 C268.32,707.4,268.68,707.02,269.28,707.02 C270.31,707.02,270.88,708.3,270.88,708.55 C270.88,708.65,270.79,708.65,270.76,708.65 C270.67,708.65,270.65,708.61,270.63,708.54 C270.3,707.47,269.62,707.23,269.3,707.23 C268.91,707.23,268.75,707.55,268.75,707.89 C268.75,708.11,268.81,708.33,268.92,708.77 Z " />
<path
   id="path3169"
   fill="black"
   stroke-width="0"
   d="M274,712.9 L274.03,713.12 L274.5,715 C274.56,715.22,274.57,715.24,274.86,715.24 H275.67 C276.32,715.24,276.72,715.04,276.72,714.55 C276.72,714.34,276.64,713.79,276.29,713.47 C276.04,713.25,275.64,713.12,275.14,713.12 H274.03 L274,712.9 H275.26 C276.44,712.9,277.43,713.65,277.43,714.4 C277.43,714.99,276.86,715.49,275.91,715.49 H273.47 C273.33,715.49,273.25,715.49,273.25,715.34 C273.25,715.24,273.33,715.24,273.48,715.24 C273.59,715.24,273.62,715.24,273.74,715.22 C273.88,715.21,273.9,715.2,273.9,715.13 C273.9,715.11,273.9,715.08,273.87,714.97 L272.95,711.31 C272.88,711.04,272.87,710.99,272.33,710.99 C272.2,710.99,272.12,710.99,272.12,710.84 C272.12,710.83,272.12,710.74,272.23,710.74 C272.43,710.74,272.93,710.77,273.14,710.77 C273.26,710.77,273.5,710.77,273.62,710.76 C273.76,710.75,273.93,710.74,274.06,710.74 C274.11,710.74,274.21,710.74,274.21,710.89 C274.21,710.99,274.13,710.99,273.99,710.99 C273.98,710.99,273.85,710.99,273.72,711 C273.56,711.02,273.56,711.04,273.56,711.11 C273.56,711.11,273.56,711.16,273.59,711.26 Z " />
<path
   id="path3171"
   fill="black"
   stroke-width="0"
   d="M281.15,709.61 L281.15,709.69 L281.15,709.76 L281.15,709.84 L281.14,709.92 L281.14,710.09 L281.12,710.27 L281.11,710.45 L281.09,710.64 L281.06,710.84 L281.03,711.03 L280.99,711.24 L280.94,711.45 L280.89,711.66 L280.83,711.87 L280.76,712.08 L280.68,712.29 L280.63,712.4 L280.59,712.51 L280.54,712.61 L280.49,712.72 C279.89,713.94,279.04,714.59,278.94,714.59 C278.88,714.59,278.84,714.55,278.84,714.49 C278.84,714.46,278.84,714.44,279.03,714.26 C280,713.28,280.57,711.69,280.57,709.61 C280.57,707.91,280.2,706.16,278.97,704.91 C278.84,704.79,278.84,704.77,278.84,704.74 C278.84,704.68,278.88,704.64,278.94,704.64 C279.04,704.64,279.93,705.31,280.52,706.58 C281.03,707.67,281.15,708.78,281.15,709.61 Z " />
</g>  </g>
</svg>
