<?xml version="1.0" encoding="UTF-8" standalone="no"?>
<!-- Created with Inkscape (http://www.inkscape.org/) -->

<svg
   xmlns:ns0="http://www.iki.fi/pav/software/textext/"
   xmlns:dc="http://purl.org/dc/elements/1.1/"
   xmlns:cc="http://creativecommons.org/ns#"
   xmlns:rdf="http://www.w3.org/1999/02/22-rdf-syntax-ns#"
   xmlns:svg="http://www.w3.org/2000/svg"
   xmlns="http://www.w3.org/2000/svg"
   xmlns:sodipodi="http://sodipodi.sourceforge.net/DTD/sodipodi-0.dtd"
   xmlns:inkscape="http://www.inkscape.org/namespaces/inkscape"
   width="2436.7048"
   height="1040.0001"
   id="svg2"
   version="1.1"
   inkscape:version="0.48.1 "
   sodipodi:docname="two_hills_case.svg">
  <sodipodi:namedview
     id="base"
     pagecolor="#ffffff"
     bordercolor="#666666"
     borderopacity="1.0"
     inkscape:pageopacity="0.0"
     inkscape:pageshadow="2"
     inkscape:zoom="0.34390706"
     inkscape:cx="1180.7854"
     inkscape:cy="520.00005"
     inkscape:document-units="px"
     inkscape:current-layer="layer1"
     showgrid="true"
     fit-margin-top="0"
     fit-margin-left="0"
     fit-margin-right="0"
     fit-margin-bottom="0"
     inkscape:window-width="1280"
     inkscape:window-height="962"
     inkscape:window-x="-8"
     inkscape:window-y="-8"
     inkscape:window-maximized="1">
    <inkscape:grid
       snapvisiblegridlinesonly="true"
       enabled="true"
       visible="true"
       empspacing="5"
       id="grid2985"
       type="xygrid" />
  </sodipodi:namedview>
  <defs
     id="defs4">
    <inkscape:path-effect
       fuse_tolerance="0"
       vertical_pattern="false"
       prop_units="false"
       tang_offset="0"
       normal_offset="0"
       spacing="0"
       scale_y_rel="false"
       prop_scale="1"
       copytype="single_stretched"
       pattern="M 0,5 10,10 10,0 z"
       is_visible="true"
       id="path-effect3927"
       effect="skeletal" />
    <inkscape:path-effect
       is_visible="true"
       id="path-effect3925"
       effect="spiro" />
    <marker
       style="overflow:visible"
       id="TriangleOutM"
       refX="0"
       refY="0"
       orient="auto"
       inkscape:stockid="TriangleOutM">
      <path
         inkscape:connector-curvature="0"
         transform="scale(0.4,0.4)"
         style="fill-rule:evenodd;stroke:#000000;stroke-width:1pt;marker-start:none"
         d="m 5.77,0 -8.65,5 0,-10 8.65,5 z"
         id="path4193" />
    </marker>
    <marker
       style="overflow:visible"
       id="TriangleInM"
       refX="0"
       refY="0"
       orient="auto"
       inkscape:stockid="TriangleInM">
      <path
         inkscape:connector-curvature="0"
         transform="scale(-0.4,-0.4)"
         style="fill-rule:evenodd;stroke:#000000;stroke-width:1pt;marker-start:none"
         d="m 5.77,0 -8.65,5 0,-10 8.65,5 z"
         id="path4184" />
    </marker>
  </defs>
  <metadata
     id="metadata7">
    <rdf:RDF>
      <cc:Work
         rdf:about="">
        <dc:format>image/svg+xml</dc:format>
        <dc:type
           rdf:resource="http://purl.org/dc/dcmitype/StillImage" />
        <dc:title />
      </cc:Work>
    </rdf:RDF>
  </metadata>
  <g
     transform="translate(1862.0252,25.093157)"
     id="layer1"
     inkscape:groupmode="layer"
     inkscape:label="Layer 1">
    <path
       inkscape:connector-curvature="0"
       id="path3145"
       d="m -805.71426,831.7138 c 0,0 213.02882,-767.70982 454.19356,-376.84386 241.16474,390.86596 233.12593,380.34939 233.12593,380.34939"
       style="fill:none;stroke:#000000;stroke-width:5;stroke-linecap:butt;stroke-linejoin:miter;stroke-miterlimit:4;stroke-opacity:1;stroke-dasharray:15, 15;stroke-dashoffset:0" />
    <path
       inkscape:connector-curvature="0"
       id="path3145-0"
       d="m -1831.2761,822.69747 c 0,0 314.5546,-1261.33032 670.6543,-619.14615 356.09974,642.1842 344.22972,624.90566 344.22972,624.90566"
       style="fill:none;stroke:#000000;stroke-width:5;stroke-linecap:butt;stroke-linejoin:miter;stroke-miterlimit:4;stroke-opacity:1;stroke-dasharray:15, 15;stroke-dashoffset:0" />
    <path
       transform="translate(-1459.5252,-117.45534)"
       d="m 120,132.36218 c 0,22.09139 -17.90861,40 -40,40 -22.09139,0 -40,-17.90861 -40,-40 0,-22.09139 17.90861,-39.999997 40,-39.999997 22.09139,0 40,17.908607 40,39.999997 z"
       sodipodi:ry="40"
       sodipodi:rx="40"
       sodipodi:cy="132.36218"
       sodipodi:cx="80"
       id="path2987-6"
       style="fill:#f70808;fill-opacity:1;stroke:none"
       sodipodi:type="arc" />
    <path
       transform="matrix(1.1601276,0,0,1.1601276,-323.04488,70.939583)"
       inkscape:transform-center-y="11.601259"
       d="m -320,452.36218 -34.64102,-60 69.28204,0 z"
       inkscape:randomized="0"
       inkscape:rounded="0"
       inkscape:flatsided="true"
       sodipodi:arg2="2.6179939"
       sodipodi:arg1="1.5707963"
       sodipodi:r2="20"
       sodipodi:r1="40"
       sodipodi:cy="412.36218"
       sodipodi:cx="-320"
       sodipodi:sides="3"
       id="path3774-2"
       style="fill:#08f713;fill-opacity:1;stroke:none"
       sodipodi:type="star" />
    <rect
       y="312.36221"
       x="-548.57141"
       height="80"
       width="80"
       id="rect3757-6-0"
       style="fill:#0000ff;fill-rule:evenodd;stroke:none" />
    <path
       inkscape:connector-curvature="0"
       id="path3056"
       d="m -1859.5252,974.9068 1760.000002,0"
       style="fill:none;stroke:#000000;stroke-width:5;stroke-linecap:butt;stroke-linejoin:miter;stroke-miterlimit:4;stroke-opacity:1;stroke-dasharray:none" />
    <path
       transform="translate(-1499.5252,842.54466)"
       d="m 120,132.36218 c 0,22.09139 -17.90861,40 -40,40 -22.09139,0 -40,-17.90861 -40,-40 0,-22.09139 17.90861,-39.999997 40,-39.999997 22.09139,0 40,17.908607 40,39.999997 z"
       sodipodi:ry="40"
       sodipodi:rx="40"
       sodipodi:cy="132.36218"
       sodipodi:cx="80"
       id="path2987-6-9"
       style="fill:#f70808;fill-opacity:1;stroke:none"
       sodipodi:type="arc" />
    <path
       transform="matrix(1.1601276,0,0,1.1601276,-328.47237,479.71664)"
       inkscape:transform-center-y="11.601259"
       d="m -320,452.36218 -34.64102,-60 69.28204,0 z"
       inkscape:randomized="0"
       inkscape:rounded="0"
       inkscape:flatsided="true"
       sodipodi:arg2="2.6179939"
       sodipodi:arg1="1.5707963"
       sodipodi:r2="20"
       sodipodi:r1="40"
       sodipodi:cy="412.36218"
       sodipodi:cx="-320"
       sodipodi:sides="3"
       id="path3774-2-8"
       style="fill:#08f713;fill-opacity:1;stroke:none"
       sodipodi:type="star" />
    <rect
       y="934.90692"
       x="-539.52521"
       height="80"
       width="80"
       id="rect3757-6-0-3"
       style="fill:#0000ff;fill-rule:evenodd;stroke:none" />
    <path
       inkscape:connector-curvature="0"
       id="path4488"
       d="m -659.52519,894.90676 120,0"
       style="fill:none;stroke:#000000;stroke-width:5;stroke-linecap:butt;stroke-linejoin:miter;stroke-miterlimit:4;stroke-opacity:1;stroke-dasharray:none;marker-end:url(#TriangleOutM)" />
    <path
       inkscape:connector-curvature="0"
       id="path3862"
       d="m -859.52519,894.90676 80,0"
       style="fill:none;stroke:#000000;stroke-width:5;stroke-linecap:butt;stroke-linejoin:miter;stroke-miterlimit:4;stroke-opacity:1;stroke-dasharray:none;marker-start:url(#TriangleInM);marker-end:none" />
    <path
       transform="translate(-28.096638,179.6875)"
       d="m 120,132.36218 c 0,22.09139 -17.90861,40 -40,40 -22.09139,0 -40,-17.90861 -40,-40 0,-22.09139 17.90861,-39.999997 40,-39.999997 22.09139,0 40,17.908607 40,39.999997 z"
       sodipodi:ry="40"
       sodipodi:rx="40"
       sodipodi:cy="132.36218"
       sodipodi:cx="80"
       id="path2987"
       style="fill:#f70808;fill-opacity:1;stroke:none"
       sodipodi:type="arc" />
    <rect
       y="512.04968"
       x="11.903393"
       height="80"
       width="80"
       id="rect3757"
       style="fill:#0000ff;fill-rule:evenodd;stroke:none" />
    <path
       transform="matrix(1.1601276,0,0,1.1601276,422.95616,-63.140508)"
       inkscape:transform-center-y="11.601259"
       d="m -320,452.36218 -34.64102,-60 69.28204,0 z"
       inkscape:randomized="0"
       inkscape:rounded="0"
       inkscape:flatsided="true"
       sodipodi:arg2="2.6179939"
       sodipodi:arg1="1.5707963"
       sodipodi:r2="20"
       sodipodi:r1="40"
       sodipodi:cy="412.36218"
       sodipodi:cx="-320"
       sodipodi:sides="3"
       id="path3774"
       style="fill:#08f713;fill-opacity:1;stroke:none"
       sodipodi:type="star" />
    <text
       sodipodi:linespacing="125%"
       id="text3776"
       y="332.04968"
       x="143.33197"
       style="font-size:40px;font-style:normal;font-weight:normal;line-height:125%;letter-spacing:0px;word-spacing:0px;fill:#000000;fill-opacity:1;stroke:none;font-family:Sans"
       xml:space="preserve"><tspan
         style="font-size:60px"
         y="332.04968"
         x="143.33197"
         id="tspan3778"
         sodipodi:role="line">Global best</tspan></text>
    <text
       sodipodi:linespacing="125%"
       id="text3780"
       y="446.33536"
       x="143.33197"
       style="font-size:40px;font-style:normal;font-weight:normal;line-height:125%;letter-spacing:0px;word-spacing:0px;fill:#000000;fill-opacity:1;stroke:none;font-family:Sans"
       xml:space="preserve"><tspan
         style="font-size:60px"
         y="446.33536"
         x="143.33197"
         id="tspan3782"
         sodipodi:role="line">Particle</tspan></text>
    <text
       sodipodi:linespacing="125%"
       id="text3784"
       y="574.90686"
       x="140.47479"
       style="font-size:40px;font-style:normal;font-weight:normal;line-height:125%;letter-spacing:0px;word-spacing:0px;fill:#000000;fill-opacity:1;stroke:none;font-family:Sans"
       xml:space="preserve"><tspan
         style="font-size:60px"
         y="574.90686"
         x="140.47479"
         id="tspan3786"
         sodipodi:role="line">Personal best</tspan></text>
    <path
       inkscape:connector-curvature="0"
       id="path4676"
       d="m 23.331962,692.0497 119.999998,0"
       style="fill:none;stroke:#000000;stroke-width:5;stroke-linecap:butt;stroke-linejoin:miter;stroke-miterlimit:4;stroke-opacity:1;stroke-dasharray:15, 15;stroke-dashoffset:0" />
    <path
       inkscape:connector-curvature="0"
       id="path4678"
       d="m 23.331962,772.0497 119.999998,0"
       style="fill:none;stroke:#000000;stroke-width:5;stroke-linecap:butt;stroke-linejoin:miter;stroke-miterlimit:4;stroke-opacity:1;stroke-dasharray:none" />
    <text
       sodipodi:linespacing="125%"
       id="text3784-1"
       y="692.04968"
       x="183.33197"
       style="font-size:40px;font-style:normal;font-weight:normal;line-height:125%;letter-spacing:0px;word-spacing:0px;fill:#000000;fill-opacity:1;stroke:none;font-family:Sans"
       xml:space="preserve"><tspan
         style="font-size:60px"
         y="692.04968"
         x="183.33197"
         id="tspan3786-3"
         sodipodi:role="line">Fitness space</tspan></text>
    <text
       sodipodi:linespacing="125%"
       id="text3784-7"
       y="772.04968"
       x="183.33197"
       style="font-size:40px;font-style:normal;font-weight:normal;line-height:125%;letter-spacing:0px;word-spacing:0px;fill:#000000;fill-opacity:1;stroke:none;font-family:Sans"
       xml:space="preserve"><tspan
         style="font-size:60px"
         y="772.04968"
         x="183.33197"
         id="tspan3786-0"
         sodipodi:role="line">Solution space</tspan></text>
    <path
       transform="translate(-1979.5252,-396.20925)"
       inkscape:connector-curvature="0"
       id="path5504"
       d="m 1480,731.11609 -600,0"
       style="fill:none;stroke:#000000;stroke-width:5;stroke-linecap:butt;stroke-linejoin:miter;stroke-miterlimit:4;stroke-opacity:1;stroke-dasharray:5, 10;stroke-dashoffset:0" />
    <g
       ns0:preamble=""
       ns0:text="$ f(  \\frac{ \\phi^{G}  x^{G} + \\phi^{P} x^{P}  }{ \\phi^{G}  + \\phi^{P}  }   ) &gt; f( x^{P} ) $"
       word-spacing="normal"
       letter-spacing="normal"
       font-size-adjust="none"
       font-stretch="normal"
       font-weight="normal"
       font-variant="normal"
       font-style="normal"
       stroke-miterlimit="10.433"
       xml:space="preserve"
       transform="matrix(7.8758607,0,0,-7.8758607,-2783.403,5738.3267)"
       id="content"
       style="font-style:normal;font-variant:normal;font-weight:normal;font-stretch:normal;letter-spacing:normal;word-spacing:normal;text-anchor:start;fill:none;stroke:#000000;stroke-linecap:butt;stroke-linejoin:miter;stroke-miterlimit:10.43299961;stroke-opacity:1;stroke-dasharray:none;stroke-dashoffset:0">
<path
   id="path5546"
   d="m 227.09,710.21 h 0.86 c 0.2,0 0.3,0 0.3,0.2 0,0.11 -0.1,0.11 -0.27,0.11 h -0.83 l 0.21,1.14 c 0.04,0.21 0.18,0.91 0.24,1.03 0.09,0.19 0.26,0.34 0.47,0.34 0.04,0 0.3,0 0.49,-0.18 -0.44,-0.04 -0.54,-0.39 -0.54,-0.54 0,-0.22 0.18,-0.34 0.37,-0.34 0.26,0 0.54,0.21 0.54,0.59 0,0.46 -0.45,0.69 -0.86,0.69 -0.34,0 -0.97,-0.18 -1.27,-1.16 -0.06,-0.21 -0.09,-0.31 -0.33,-1.57 h -0.68 c -0.19,0 -0.3,0 -0.3,-0.19 0,-0.12 0.08,-0.12 0.27,-0.12 h 0.66 l -0.74,-3.93 c -0.19,-0.96 -0.35,-1.87 -0.87,-1.87 -0.04,0 -0.29,0 -0.48,0.18 0.46,0.03 0.55,0.39 0.55,0.54 0,0.23 -0.18,0.35 -0.37,0.35 -0.26,0 -0.55,-0.22 -0.55,-0.6 0,-0.45 0.44,-0.69 0.85,-0.69 0.55,0 0.95,0.59 1.12,0.97 0.32,0.62 0.55,1.83 0.56,1.9 z"
   inkscape:connector-curvature="0"
   style="fill:#000000;stroke-width:0" />
<path
   id="path5548"
   d="m 232.68,703.84 0,0.01 0,0.01 0,0 0,0 0,0 0,0.01 0,0 0,0 0,0.01 -0.01,0 0,0.01 0,0 -0.01,0.01 0,0 0,0.01 -0.01,0 0,0.01 -0.01,0.01 0,0 -0.01,0.01 0,0 0,0 -0.01,0.01 0,0 -0.01,0.01 0,0 0,0.01 -0.01,0 0,0.01 -0.01,0 0,0.01 -0.01,0 -0.01,0.01 0,0.01 -0.01,0 0,0.01 -0.01,0.01 -0.01,0 -0.01,0.01 0,0.01 -0.01,0.01 -0.01,0 c -1.24,1.26 -1.56,3.14 -1.56,4.66 0,1.73 0.38,3.46 1.6,4.71 0.13,0.12 0.13,0.14 0.13,0.17 0,0.07 -0.04,0.1 -0.1,0.1 -0.1,0 -0.99,-0.68 -1.58,-1.94 -0.51,-1.1 -0.63,-2.2 -0.63,-3.04 0,-0.77 0.11,-1.98 0.66,-3.1 0.6,-1.23 1.45,-1.88 1.55,-1.88 0.06,0 0.1,0.04 0.1,0.1 z"
   inkscape:connector-curvature="0"
   style="fill:#000000;stroke-width:0" />
<path
   id="path5550"
   d="m 237.88,715.41 0,0.01 0,0 0,0 0,0.01 0,0 0,0.01 0,0 0,0 -0.01,0.01 0,0 0,0 0,0 0,0.01 0,0 0,0 0,0 -0.01,0.01 0,0 0,0 0,0 -0.01,0.01 0,0 0,0 -0.01,0.01 0,0 -0.01,0 0,0 -0.01,0.01 0,0 -0.01,0 0,0 -0.01,0 0,0 -0.01,0 0,0 -0.01,0 0,0 0,0 -0.01,0 0,0 -0.01,0 0,0 c -0.1,0 -0.11,-0.03 -0.14,-0.15 l -0.4,-1.59 c -1.23,-0.06 -2.28,-0.94 -2.28,-1.87 0,-0.79 0.72,-1.26 1.49,-1.29 l 0.05,0.19 c -0.54,0.03 -1.03,0.32 -1.03,0.98 0,0.69 0.53,1.67 1.72,1.79 l -0.69,-2.77 -0.05,-0.19 c -0.06,-0.21 -0.1,-0.44 -0.16,-0.65 -0.08,-0.33 -0.15,-0.59 -0.15,-0.61 0,-0.08 0.09,-0.08 0.12,-0.08 0.1,0 0.11,0.02 0.14,0.16 l 0.29,1.17 c 1.2,0.05 2.29,0.93 2.29,1.87 0,0.73 -0.64,1.26 -1.49,1.29 l -0.06,-0.19 c 0.54,-0.03 1.04,-0.32 1.04,-0.98 0,-0.76 -0.6,-1.69 -1.73,-1.79 l 0.69,2.77 0.06,0.19 z"
   inkscape:connector-curvature="0"
   style="fill:#000000;stroke-width:0" />
<path
   id="path5552"
   d="m 243.49,714.73 0.01,0.01 0,0.01 0,0 0.01,0.01 0,0.01 0.01,0 0,0.01 0,0 0.01,0.01 0,0 0.01,0.01 0,0 0.01,0.01 0.01,0 0.01,0 0,0.01 0.01,0 0.01,0 0.01,0 0.01,0.01 0.02,0 0.01,0 0.01,0 0,0 0.01,0 0.01,0 0.01,0 0.01,0.01 0.01,0 0,0 0.01,0 0.01,0 0.01,0 0.01,0 0.01,0 0.02,0 0.01,0 0.01,0 0.01,0 0.01,0 0.02,0 0.01,0 c 0.06,0 0.15,0 0.15,0.14 0,0.05 -0.04,0.09 -0.09,0.09 -0.1,0 -0.21,-0.02 -0.3,-0.02 -0.11,0 -0.23,-0.01 -0.34,-0.01 -0.15,0 -0.29,0.01 -0.44,0.01 -0.14,0 -0.3,0.02 -0.43,0.02 -0.04,0 -0.13,0 -0.13,-0.14 0,-0.09 0.07,-0.09 0.16,-0.09 h 0.1 c 0.11,0 0.29,0 0.39,-0.02 0.04,-0.01 0.07,-0.02 0.07,-0.06 0,-0.04 -0.1,-0.43 -0.12,-0.49 -0.13,-0.41 -0.76,-0.47 -1.09,-0.47 -0.68,0 -1.4,0.28 -1.4,1.13 0,0.46 0.22,1.06 0.64,1.45 0.53,0.49 1.15,0.58 1.5,0.58 0.64,0 1.04,-0.42 1.04,-0.98 0,-0.11 -0.01,-0.14 -0.01,-0.16 0,-0.08 0.07,-0.08 0.11,-0.08 0.1,0 0.1,0.02 0.12,0.11 l 0.32,1.27 c 0,0 0,0.06 -0.08,0.06 -0.03,0 -0.04,0 -0.1,-0.05 l -0.34,-0.35 c -0.01,-0.01 -0.05,-0.04 -0.06,-0.04 0,0 0,0 -0.02,0.02 -0.11,0.11 -0.41,0.42 -1.05,0.42 -1.36,0 -2.63,-1.06 -2.63,-2.15 0,-0.75 0.62,-1.45 1.79,-1.45 0.18,0 0.45,0.01 0.72,0.07 0.36,0.08 0.53,0.23 0.6,0.3 0.06,-0.1 0.2,-0.27 0.26,-0.27 0.02,0 0.05,0.02 0.07,0.05 0.01,0.05 0.07,0.32 0.09,0.39 z"
   inkscape:connector-curvature="0"
   style="fill:#000000;stroke-width:0" />
<path
   id="path5554"
   d="m 246.77,711.41 0,-0.02 -0.01,-0.02 -0.01,-0.03 -0.01,-0.02 -0.01,-0.02 -0.01,-0.03 -0.01,-0.03 -0.02,-0.02 -0.01,-0.03 -0.02,-0.02 -0.01,-0.03 -0.02,-0.02 -0.02,-0.03 -0.02,-0.02 -0.01,-0.03 -0.02,-0.02 -0.03,-0.02 -0.02,-0.03 -0.02,-0.02 -0.02,-0.02 -0.03,-0.02 -0.02,-0.01 -0.03,-0.02 -0.03,-0.02 -0.02,-0.01 -0.03,-0.01 -0.03,-0.01 -0.03,-0.01 -0.03,-0.01 -0.03,0 -0.04,-0.01 -0.03,0 c -0.02,0 -0.23,0 -0.38,0.1 0.29,0.09 0.31,0.34 0.31,0.38 0,0.15 -0.12,0.26 -0.28,0.26 -0.19,0 -0.39,-0.17 -0.39,-0.43 0,-0.34 0.38,-0.5 0.73,-0.5 0.32,0 0.6,0.2 0.78,0.49 0.16,-0.37 0.55,-0.49 0.82,-0.49 0.81,0 1.23,0.87 1.23,1.06 0,0.09 -0.09,0.09 -0.11,0.09 -0.1,0 -0.1,-0.03 -0.13,-0.12 -0.15,-0.48 -0.57,-0.84 -0.96,-0.84 -0.28,0 -0.42,0.19 -0.42,0.45 0,0.18 0.17,0.82 0.36,1.59 0.14,0.54 0.45,0.71 0.68,0.71 0.02,0 0.23,0 0.38,-0.1 -0.22,-0.06 -0.31,-0.26 -0.31,-0.38 0,-0.15 0.12,-0.26 0.28,-0.26 0.16,0 0.39,0.13 0.39,0.43 0,0.39 -0.44,0.5 -0.72,0.5 -0.35,0 -0.63,-0.23 -0.78,-0.49 -0.13,0.28 -0.45,0.49 -0.84,0.49 -0.78,0 -1.22,-0.85 -1.22,-1.06 0,-0.09 0.09,-0.09 0.11,-0.09 0.09,0 0.1,0.03 0.14,0.12 0.17,0.54 0.61,0.84 0.95,0.84 0.23,0 0.42,-0.13 0.42,-0.46 0,-0.14 -0.09,-0.49 -0.15,-0.72 z"
   inkscape:connector-curvature="0"
   style="fill:#000000;stroke-width:0" />
<path
   id="path5556"
   d="m 253.81,714.73 0.01,0.01 0,0.01 0,0 0.01,0.01 0,0.01 0,0 0.01,0.01 0,0 0.01,0.01 0,0 0.01,0.01 0,0 0.01,0.01 0,0 0.01,0 0.01,0.01 0.01,0 0.01,0 0.01,0 0.01,0.01 0.01,0 0.02,0 0,0 0.01,0 0.01,0 0.01,0 0.01,0 0,0.01 0.01,0 0.01,0 0.01,0 0.01,0 0.01,0 0.01,0 0.01,0 0.01,0 0.01,0 0.02,0 0.01,0 0.01,0 0.01,0 0.02,0 c 0.06,0 0.14,0 0.14,0.14 0,0.05 -0.04,0.09 -0.08,0.09 -0.1,0 -0.21,-0.02 -0.31,-0.02 -0.11,0 -0.22,-0.01 -0.33,-0.01 -0.15,0 -0.29,0.01 -0.44,0.01 -0.14,0 -0.3,0.02 -0.44,0.02 -0.03,0 -0.13,0 -0.13,-0.14 0,-0.09 0.08,-0.09 0.16,-0.09 h 0.11 c 0.1,0 0.29,0 0.39,-0.02 0.03,-0.01 0.06,-0.02 0.06,-0.06 0,-0.04 -0.09,-0.43 -0.11,-0.49 -0.13,-0.41 -0.77,-0.47 -1.09,-0.47 -0.68,0 -1.41,0.28 -1.41,1.13 0,0.46 0.22,1.06 0.65,1.45 0.52,0.49 1.15,0.58 1.5,0.58 0.64,0 1.04,-0.42 1.04,-0.98 0,-0.11 -0.01,-0.14 -0.01,-0.16 0,-0.08 0.07,-0.08 0.11,-0.08 0.1,0 0.1,0.02 0.12,0.11 l 0.31,1.27 c 0,0 0,0.06 -0.08,0.06 -0.03,0 -0.03,0 -0.09,-0.05 l -0.34,-0.35 c -0.01,-0.01 -0.05,-0.04 -0.06,-0.04 -0.01,0 -0.01,0 -0.02,0.02 -0.11,0.11 -0.41,0.42 -1.06,0.42 -1.35,0 -2.62,-1.06 -2.62,-2.15 0,-0.75 0.62,-1.45 1.79,-1.45 0.18,0 0.45,0.01 0.71,0.07 0.37,0.08 0.54,0.23 0.61,0.3 0.05,-0.1 0.2,-0.27 0.26,-0.27 0.01,0 0.05,0.02 0.06,0.05 0.01,0.05 0.08,0.32 0.1,0.39 z"
   inkscape:connector-curvature="0"
   style="fill:#000000;stroke-width:0" />
<path
   id="path5558"
   d="m 258.58,712.25 h 2.13 c 0.09,0 0.26,0 0.26,0.16 0,0.18 -0.16,0.18 -0.26,0.18 h -2.13 v 2.13 c 0,0.09 0,0.26 -0.17,0.26 -0.17,0 -0.17,-0.16 -0.17,-0.26 v -2.13 h -2.14 c -0.09,0 -0.25,0 -0.25,-0.17 0,-0.17 0.16,-0.17 0.25,-0.17 h 2.14 v -2.14 c 0,-0.09 0,-0.25 0.17,-0.25 0.17,0 0.17,0.16 0.17,0.25 z"
   inkscape:connector-curvature="0"
   style="fill:#000000;stroke-width:0" />
<path
   id="path5560"
   d="m 264.9,715.41 0,0.01 0,0 0,0 0,0.01 0,0 0,0.01 0,0 0,0 0,0.01 -0.01,0 0,0 0,0 0,0.01 0,0 0,0 0,0 -0.01,0.01 0,0 0,0 0,0 0,0.01 -0.01,0 0,0 -0.01,0.01 0,0 -0.01,0 0,0 -0.01,0.01 0,0 -0.01,0 0,0 -0.01,0 0,0 -0.01,0 0,0 -0.01,0 0,0 0,0 -0.01,0 0,0 -0.01,0 0,0 c -0.1,0 -0.11,-0.03 -0.14,-0.15 l -0.4,-1.59 c -1.23,-0.06 -2.28,-0.94 -2.28,-1.87 0,-0.79 0.72,-1.26 1.49,-1.29 l 0.05,0.19 c -0.54,0.03 -1.03,0.32 -1.03,0.98 0,0.69 0.53,1.67 1.72,1.79 l -0.69,-2.77 -0.05,-0.19 c -0.06,-0.21 -0.1,-0.44 -0.16,-0.65 -0.08,-0.33 -0.15,-0.59 -0.15,-0.61 0,-0.08 0.09,-0.08 0.12,-0.08 0.1,0 0.11,0.02 0.14,0.16 l 0.3,1.17 c 1.19,0.05 2.28,0.93 2.28,1.87 0,0.73 -0.64,1.26 -1.49,1.29 l -0.06,-0.19 c 0.54,-0.03 1.04,-0.32 1.04,-0.98 0,-0.76 -0.6,-1.69 -1.73,-1.79 l 0.69,2.77 0.06,0.19 z"
   inkscape:connector-curvature="0"
   style="fill:#000000;stroke-width:0" />
<path
   id="path5562"
   d="m 268.28,715.19 0.03,0.19 0.33,1.31 c 0.04,0.15 0.04,0.16 0.25,0.16 h 0.73 c 0.51,0 0.85,-0.13 0.85,-0.51 0,-0.14 -0.07,-0.53 -0.35,-0.73 -0.29,-0.21 -0.67,-0.23 -0.87,-0.23 h -0.94 l -0.03,-0.19 h 1.08 c 0.77,0 1.66,0.47 1.66,1.08 0,0.46 -0.51,0.81 -1.23,0.81 h -1.96 c -0.1,0 -0.18,0 -0.18,-0.14 0,-0.09 0.06,-0.09 0.18,-0.09 0.06,0 0.22,0 0.32,-0.03 0,-0.06 0,-0.07 -0.01,-0.12 l -0.65,-2.6 c -0.04,-0.15 -0.05,-0.19 -0.43,-0.19 -0.13,0 -0.2,0 -0.2,-0.14 0,-0.04 0.03,-0.09 0.09,-0.09 0.1,0 0.22,0.02 0.33,0.02 0.12,0 0.24,0 0.37,0 0.12,0 0.24,0 0.36,0 0.12,0 0.24,-0.02 0.35,-0.02 0.03,0 0.13,0 0.13,0.14 0,0.09 -0.07,0.09 -0.17,0.09 -0.01,0 -0.13,0 -0.21,0.01 -0.13,0.01 -0.13,0.01 -0.13,0.05 0,0.01 0,0.02 0.01,0.07 z"
   inkscape:connector-curvature="0"
   style="fill:#000000;stroke-width:0" />
<path
   id="path5564"
   d="m 273.72,711.41 -0.01,-0.02 0,-0.02 -0.01,-0.03 -0.01,-0.02 -0.01,-0.02 -0.01,-0.03 -0.02,-0.03 -0.01,-0.02 -0.01,-0.03 -0.02,-0.02 -0.02,-0.03 -0.01,-0.02 -0.02,-0.03 -0.02,-0.02 -0.02,-0.03 -0.02,-0.02 -0.02,-0.02 -0.02,-0.03 -0.02,-0.02 -0.03,-0.02 -0.02,-0.02 -0.03,-0.01 -0.02,-0.02 -0.03,-0.02 -0.03,-0.01 -0.03,-0.01 -0.03,-0.01 -0.03,-0.01 -0.03,-0.01 -0.03,0 -0.03,-0.01 -0.03,0 c -0.02,0 -0.23,0 -0.38,0.1 0.29,0.09 0.31,0.34 0.31,0.38 0,0.15 -0.12,0.26 -0.28,0.26 -0.2,0 -0.4,-0.17 -0.4,-0.43 0,-0.34 0.39,-0.5 0.73,-0.5 0.32,0 0.61,0.2 0.78,0.49 0.17,-0.37 0.55,-0.49 0.83,-0.49 0.8,0 1.23,0.87 1.23,1.06 0,0.09 -0.09,0.09 -0.11,0.09 -0.1,0 -0.11,-0.03 -0.14,-0.12 -0.14,-0.48 -0.56,-0.84 -0.95,-0.84 -0.28,0 -0.43,0.19 -0.43,0.45 0,0.18 0.17,0.82 0.37,1.59 0.14,0.54 0.45,0.71 0.68,0.71 0.01,0 0.23,0 0.37,-0.1 -0.22,-0.06 -0.3,-0.26 -0.3,-0.38 0,-0.15 0.12,-0.26 0.28,-0.26 0.16,0 0.39,0.13 0.39,0.43 0,0.39 -0.45,0.5 -0.73,0.5 -0.34,0 -0.62,-0.23 -0.78,-0.49 -0.12,0.28 -0.44,0.49 -0.83,0.49 -0.78,0 -1.23,-0.85 -1.23,-1.06 0,-0.09 0.1,-0.09 0.12,-0.09 0.09,0 0.1,0.03 0.13,0.12 0.18,0.54 0.62,0.84 0.96,0.84 0.23,0 0.41,-0.13 0.41,-0.46 0,-0.14 -0.08,-0.49 -0.14,-0.72 z"
   inkscape:connector-curvature="0"
   style="fill:#000000;stroke-width:0" />
<path
   id="path5566"
   d="m 278.52,715.19 0.03,0.19 0.33,1.31 c 0.04,0.15 0.04,0.16 0.25,0.16 h 0.73 c 0.51,0 0.85,-0.13 0.85,-0.51 0,-0.14 -0.07,-0.53 -0.35,-0.73 -0.28,-0.21 -0.67,-0.23 -0.87,-0.23 h -0.94 l -0.03,-0.19 h 1.08 c 0.77,0 1.67,0.47 1.67,1.08 0,0.46 -0.52,0.81 -1.24,0.81 h -1.96 c -0.1,0 -0.18,0 -0.18,-0.14 0,-0.09 0.06,-0.09 0.19,-0.09 0.05,0 0.21,0 0.31,-0.03 0,-0.06 0,-0.07 -0.01,-0.12 l -0.65,-2.6 c -0.04,-0.15 -0.05,-0.19 -0.43,-0.19 -0.12,0 -0.2,0 -0.2,-0.14 0,-0.04 0.03,-0.09 0.09,-0.09 0.1,0 0.22,0.02 0.33,0.02 0.12,0 0.24,0 0.37,0 0.12,0 0.24,0 0.37,0 0.11,0 0.23,-0.02 0.34,-0.02 0.03,0 0.13,0 0.13,0.14 0,0.09 -0.07,0.09 -0.17,0.09 -0.01,0 -0.13,0 -0.21,0.01 -0.12,0.01 -0.13,0.01 -0.13,0.05 0,0.01 0,0.02 0.02,0.07 z"
   inkscape:connector-curvature="0"
   style="fill:#000000;stroke-width:0" />
<line
   id="line5568"
   y2="708.71997"
   x2="282.23001"
   y1="708.71997"
   x1="234.45"
   style="stroke-width:0.398" />
<path
   id="path5570"
   d="m 248.16,707.46 0,0.01 0,0 0,0.01 0,0 0,0 0,0.01 0,0 -0.01,0 0,0.01 0,0 0,0 0,0.01 0,0 0,0 0,0 -0.01,0.01 0,0 0,0 0,0 0,0.01 -0.01,0 0,0 0,0.01 -0.01,0 0,0 -0.01,0 0,0.01 -0.01,0 0,0 -0.01,0 0,0 -0.01,0 0,0 -0.01,0 0,0 -0.01,0 0,0 -0.01,0 0,0 0,0 -0.01,0 0,0 c -0.11,0 -0.11,-0.03 -0.14,-0.15 l -0.4,-1.59 c -1.23,-0.06 -2.28,-0.94 -2.28,-1.87 0,-0.79 0.72,-1.26 1.49,-1.29 l 0.05,0.2 c -0.54,0.03 -1.03,0.32 -1.03,0.97 0,0.7 0.53,1.68 1.72,1.79 l -0.69,-2.76 -0.05,-0.2 c -0.06,-0.21 -0.11,-0.44 -0.16,-0.65 -0.09,-0.33 -0.15,-0.59 -0.15,-0.61 0,-0.08 0.09,-0.08 0.11,-0.08 0.11,0 0.12,0.02 0.15,0.17 l 0.29,1.17 c 1.19,0.04 2.29,0.92 2.29,1.87 0,0.73 -0.64,1.25 -1.49,1.28 l -0.06,-0.19 c 0.54,-0.02 1.04,-0.32 1.04,-0.98 0,-0.75 -0.6,-1.68 -1.73,-1.78 l 0.69,2.76 0.06,0.19 z"
   inkscape:connector-curvature="0"
   style="fill:#000000;stroke-width:0" />
<path
   id="path5572"
   d="m 253.77,705.77 0.01,0.01 0,0.01 0,0 0.01,0.01 0,0 0,0.01 0.01,0.01 0,0 0.01,0.01 0,0 0.01,0.01 0,0 0.01,0 0.01,0.01 0,0 0.01,0 0.01,0.01 0.01,0 0.01,0 0.01,0 0.02,0.01 0.01,0 0.01,0 0,0 0.01,0 0.01,0 0.01,0 0.01,0 0,0 0.01,0 0.01,0 0.01,0.01 0.01,0 0.01,0 0.01,0 0.01,0 0.02,0 0.01,0 0.01,0 0.01,0 0.01,0 0.02,0 c 0.06,0 0.15,0 0.15,0.14 0,0.05 -0.04,0.08 -0.09,0.08 -0.1,0 -0.21,-0.01 -0.31,-0.01 -0.11,0 -0.22,-0.01 -0.33,-0.01 -0.15,0 -0.29,0.01 -0.44,0.01 -0.14,0 -0.3,0.01 -0.44,0.01 -0.03,0 -0.12,0 -0.12,-0.14 0,-0.08 0.07,-0.08 0.16,-0.08 h 0.1 c 0.1,0 0.29,-0.01 0.39,-0.03 0.04,-0.01 0.07,-0.01 0.07,-0.06 0,-0.03 -0.1,-0.43 -0.12,-0.49 -0.13,-0.4 -0.76,-0.46 -1.09,-0.46 -0.68,0 -1.4,0.28 -1.4,1.12 0,0.47 0.21,1.07 0.64,1.46 0.52,0.49 1.15,0.58 1.5,0.58 0.64,0 1.04,-0.42 1.04,-0.98 0,-0.11 -0.01,-0.14 -0.01,-0.17 0,-0.07 0.07,-0.07 0.11,-0.07 0.1,0 0.1,0.01 0.12,0.11 l 0.32,1.26 c 0,0.01 0,0.07 -0.08,0.07 -0.03,0 -0.04,0 -0.1,-0.06 l -0.34,-0.34 c -0.01,-0.01 -0.05,-0.04 -0.06,-0.04 -0.01,0 -0.01,0 -0.02,0.02 -0.11,0.11 -0.41,0.42 -1.06,0.42 -1.35,0 -2.62,-1.06 -2.62,-2.15 0,-0.75 0.62,-1.46 1.79,-1.46 0.18,0 0.45,0.01 0.72,0.08 0.36,0.08 0.53,0.23 0.6,0.3 0.06,-0.1 0.2,-0.27 0.26,-0.27 0.02,0 0.05,0.02 0.07,0.05 0.01,0.05 0.07,0.32 0.09,0.38 z"
   inkscape:connector-curvature="0"
   style="fill:#000000;stroke-width:0" />
<path
   id="path5574"
   d="m 258.55,704.3 h 2.13 c 0.09,0 0.25,0 0.25,0.17 0,0.17 -0.16,0.17 -0.25,0.17 h -2.13 v 2.14 c 0,0.09 0,0.25 -0.17,0.25 -0.18,0 -0.18,-0.16 -0.18,-0.25 v -2.14 h -2.13 c -0.09,0 -0.26,0 -0.26,-0.17 0,-0.17 0.16,-0.17 0.26,-0.17 h 2.13 v -2.13 c 0,-0.09 0,-0.26 0.17,-0.26 0.18,0 0.18,0.16 0.18,0.26 z"
   inkscape:connector-curvature="0"
   style="fill:#000000;stroke-width:0" />
<path
   id="path5576"
   d="m 264.86,707.46 0,0.01 0,0 0,0.01 0,0 0,0 0,0.01 0,0 0,0 0,0.01 0,0 0,0 -0.01,0.01 0,0 0,0 0,0 0,0.01 0,0 0,0 -0.01,0 0,0.01 0,0 -0.01,0 0,0.01 -0.01,0 0,0 0,0 -0.01,0.01 0,0 -0.01,0 0,0 -0.01,0 0,0 -0.01,0 0,0 -0.01,0 0,0 -0.01,0 0,0 -0.01,0 0,0 0,0 -0.01,0 c -0.1,0 -0.11,-0.03 -0.14,-0.15 l -0.39,-1.59 c -1.24,-0.06 -2.29,-0.94 -2.29,-1.87 0,-0.79 0.72,-1.26 1.49,-1.29 l 0.05,0.2 c -0.54,0.03 -1.03,0.32 -1.03,0.97 0,0.7 0.53,1.68 1.72,1.79 l -0.69,-2.76 -0.05,-0.2 c -0.05,-0.21 -0.1,-0.44 -0.16,-0.65 -0.08,-0.33 -0.14,-0.59 -0.14,-0.61 0,-0.08 0.09,-0.08 0.11,-0.08 0.1,0 0.11,0.02 0.14,0.17 l 0.3,1.17 c 1.19,0.04 2.28,0.92 2.28,1.87 0,0.73 -0.64,1.25 -1.49,1.28 l -0.06,-0.19 c 0.54,-0.02 1.04,-0.32 1.04,-0.98 0,-0.75 -0.6,-1.68 -1.73,-1.78 l 0.69,2.76 0.06,0.19 z"
   inkscape:connector-curvature="0"
   style="fill:#000000;stroke-width:0" />
<path
   id="path5578"
   d="m 268.24,706.23 0.03,0.19 0.33,1.31 c 0.04,0.15 0.04,0.16 0.25,0.16 h 0.73 c 0.51,0 0.85,-0.13 0.85,-0.51 0,-0.15 -0.07,-0.53 -0.35,-0.74 -0.28,-0.2 -0.67,-0.22 -0.87,-0.22 h -0.94 l -0.03,-0.19 h 1.09 c 0.76,0 1.66,0.46 1.66,1.08 0,0.46 -0.52,0.8 -1.24,0.8 h -1.96 c -0.1,0 -0.18,0 -0.18,-0.14 0,-0.08 0.06,-0.08 0.19,-0.08 0.05,0 0.21,0 0.32,-0.03 0,-0.06 0,-0.07 -0.02,-0.12 l -0.65,-2.61 c -0.04,-0.15 -0.05,-0.18 -0.43,-0.18 -0.12,0 -0.2,0 -0.2,-0.14 0,-0.04 0.03,-0.09 0.09,-0.09 0.1,0 0.22,0.02 0.33,0.02 0.12,0 0.24,0 0.37,0 0.12,0 0.24,0 0.37,0 0.11,0 0.24,-0.02 0.35,-0.02 0.03,0 0.12,0 0.12,0.14 0,0.09 -0.07,0.09 -0.16,0.09 -0.02,0 -0.13,0 -0.22,0.01 -0.12,0.01 -0.13,0.01 -0.13,0.05 0,0.01 0,0.02 0.02,0.07 z"
   inkscape:connector-curvature="0"
   style="fill:#000000;stroke-width:0" />
<path
   id="path5580"
   d="m 286.3,708.72 0,0.07 0,0.08 0,0.08 0,0.08 -0.01,0.17 -0.01,0.18 -0.02,0.18 -0.02,0.19 -0.03,0.19 -0.03,0.2 -0.04,0.21 -0.04,0.2 -0.06,0.21 -0.06,0.22 -0.07,0.21 -0.08,0.21 -0.04,0.11 -0.05,0.1 -0.04,0.11 -0.05,0.11 c -0.6,1.22 -1.46,1.87 -1.56,1.87 -0.06,0 -0.1,-0.04 -0.1,-0.1 0,-0.03 0,-0.05 0.19,-0.23 0.98,-0.99 1.55,-2.57 1.55,-4.65 0,-1.7 -0.37,-3.45 -1.61,-4.71 -0.13,-0.12 -0.13,-0.14 -0.13,-0.17 0,-0.06 0.04,-0.1 0.1,-0.1 0.1,0 1,0.68 1.59,1.95 0.5,1.09 0.62,2.2 0.62,3.03 z"
   inkscape:connector-curvature="0"
   style="fill:#000000;stroke-width:0" />
<path
   id="path5582"
   d="m 296.79,708.5 0.02,0.01 0.02,0.01 0.01,0.01 0.01,0 0.01,0.01 0.01,0 0.01,0.01 0.01,0 0,0.01 0.01,0 0.01,0.01 0.01,0 0,0.01 0.01,0.01 0.01,0 0,0.01 0.01,0.01 0,0 0.01,0.01 0,0.01 0.01,0.01 0,0 0,0.01 0,0.01 0.01,0.01 0,0.01 0,0.01 0,0.01 0,0.01 0,0.01 c 0,0.12 -0.08,0.17 -0.19,0.22 l -5.52,2.6 c -0.13,0.07 -0.15,0.07 -0.18,0.07 -0.11,0 -0.2,-0.09 -0.2,-0.2 0,-0.09 0.05,-0.15 0.19,-0.22 l 5.24,-2.47 -5.24,-2.47 c -0.14,-0.07 -0.19,-0.13 -0.19,-0.22 0,-0.11 0.09,-0.19 0.2,-0.19 0.03,0 0.05,0 0.18,0.06 z"
   inkscape:connector-curvature="0"
   style="fill:#000000;stroke-width:0" />
<path
   id="path5584"
   d="m 304.24,710.21 h 0.86 c 0.2,0 0.3,0 0.3,0.2 0,0.11 -0.1,0.11 -0.27,0.11 h -0.83 l 0.21,1.14 c 0.04,0.21 0.18,0.91 0.24,1.03 0.09,0.19 0.26,0.34 0.47,0.34 0.04,0 0.3,0 0.49,-0.18 -0.44,-0.04 -0.54,-0.39 -0.54,-0.54 0,-0.22 0.18,-0.34 0.37,-0.34 0.26,0 0.55,0.21 0.55,0.59 0,0.46 -0.46,0.69 -0.87,0.69 -0.34,0 -0.97,-0.18 -1.27,-1.16 -0.06,-0.21 -0.09,-0.31 -0.33,-1.57 h -0.68 c -0.19,0 -0.3,0 -0.3,-0.19 0,-0.12 0.09,-0.12 0.28,-0.12 h 0.65 l -0.74,-3.93 c -0.18,-0.96 -0.35,-1.87 -0.87,-1.87 -0.04,0 -0.29,0 -0.48,0.18 0.46,0.03 0.55,0.39 0.55,0.54 0,0.23 -0.18,0.35 -0.37,0.35 -0.26,0 -0.55,-0.22 -0.55,-0.6 0,-0.45 0.44,-0.69 0.85,-0.69 0.55,0 0.95,0.59 1.13,0.97 0.31,0.62 0.54,1.83 0.55,1.9 z"
   inkscape:connector-curvature="0"
   style="fill:#000000;stroke-width:0" />
<path
   id="path5586"
   d="m 309.83,703.84 0,0.01 0,0.01 0,0 0,0 0,0 0,0.01 0,0 0,0 -0.01,0.01 0,0 0,0.01 0,0 -0.01,0.01 0,0 0,0.01 -0.01,0 0,0.01 -0.01,0.01 0,0 -0.01,0.01 0,0 0,0 -0.01,0.01 0,0 -0.01,0.01 0,0 -0.01,0.01 0,0 -0.01,0.01 0,0 -0.01,0.01 0,0 -0.01,0.01 0,0.01 -0.01,0 -0.01,0.01 0,0.01 -0.01,0 -0.01,0.01 0,0.01 -0.01,0.01 -0.01,0 c -1.24,1.26 -1.56,3.14 -1.56,4.66 0,1.73 0.38,3.46 1.6,4.71 0.13,0.12 0.13,0.14 0.13,0.17 0,0.07 -0.04,0.1 -0.1,0.1 -0.1,0 -1,-0.68 -1.58,-1.94 -0.51,-1.1 -0.63,-2.2 -0.63,-3.04 0,-0.77 0.11,-1.98 0.66,-3.1 0.59,-1.23 1.45,-1.88 1.55,-1.88 0.06,0 0.1,0.04 0.1,0.1 z"
   inkscape:connector-curvature="0"
   style="fill:#000000;stroke-width:0" />
<path
   id="path5588"
   d="m 313.73,709.24 0.01,0.03 0.01,0.02 0.01,0.04 0.01,0.03 0.01,0.04 0.01,0.04 0.01,0.05 0.02,0.04 0.01,0.05 0.02,0.05 0.02,0.04 0.02,0.05 0.02,0.05 0.03,0.05 0.02,0.05 0.03,0.05 0.03,0.05 0.03,0.05 0.03,0.05 0.04,0.04 0.04,0.04 0.04,0.04 0.04,0.04 0.04,0.04 0.05,0.03 0.05,0.03 0.02,0.01 0.03,0.01 0.02,0.01 0.03,0.01 0.03,0.01 0.03,0.01 0.03,0.01 0.03,0 0.03,0.01 0.03,0 0.03,0 0.03,0 c 0.05,0 0.29,0 0.5,-0.13 -0.28,-0.05 -0.48,-0.3 -0.48,-0.53 0,-0.16 0.11,-0.35 0.38,-0.35 0.22,0 0.54,0.18 0.54,0.57 0,0.52 -0.59,0.66 -0.93,0.66 -0.58,0 -0.93,-0.53 -1.04,-0.75 -0.25,0.65 -0.79,0.75 -1.08,0.75 -1.04,0 -1.61,-1.28 -1.61,-1.53 0,-0.1 0.1,-0.1 0.12,-0.1 0.08,0 0.11,0.02 0.13,0.11 0.34,1.05 1,1.3 1.34,1.3 0.19,0 0.54,-0.09 0.54,-0.66 0,-0.31 -0.17,-0.98 -0.54,-2.37 -0.16,-0.62 -0.51,-1.04 -0.95,-1.04 -0.06,0 -0.29,0 -0.5,0.13 0.25,0.05 0.47,0.26 0.47,0.54 0,0.27 -0.22,0.35 -0.37,0.35 -0.3,0 -0.54,-0.26 -0.54,-0.58 0,-0.46 0.49,-0.66 0.93,-0.66 0.66,0 1.02,0.7 1.05,0.76 0.12,-0.37 0.48,-0.76 1.08,-0.76 1.02,0 1.59,1.29 1.59,1.54 0,0.1 -0.09,0.1 -0.12,0.1 -0.09,0 -0.11,-0.04 -0.13,-0.11 -0.33,-1.07 -1.01,-1.31 -1.33,-1.31 -0.38,0 -0.54,0.32 -0.54,0.66 0,0.22 0.06,0.44 0.17,0.88 z"
   inkscape:connector-curvature="0"
   style="fill:#000000;stroke-width:0" />
<path
   id="path5590"
   d="m 318.47,712 0.03,0.23 0.48,1.88 c 0.05,0.22 0.06,0.24 0.35,0.24 h 0.81 c 0.65,0 1.06,-0.2 1.06,-0.69 0,-0.22 -0.09,-0.77 -0.43,-1.08 -0.26,-0.22 -0.65,-0.35 -1.15,-0.35 H 318.5 L 318.47,712 h 1.26 c 1.18,0 2.18,0.75 2.18,1.51 0,0.59 -0.57,1.09 -1.53,1.09 h -2.43 c -0.15,0 -0.23,0 -0.23,-0.16 0,-0.09 0.08,-0.09 0.23,-0.09 0.11,0 0.14,0 0.27,-0.02 0.14,-0.01 0.15,-0.03 0.15,-0.09 0,-0.02 0,-0.05 -0.03,-0.16 l -0.92,-3.66 c -0.07,-0.27 -0.07,-0.32 -0.62,-0.32 -0.12,0 -0.21,0 -0.21,-0.15 0,-0.01 0,-0.1 0.11,-0.1 0.21,0 0.71,0.03 0.91,0.03 0.12,0 0.36,0 0.48,-0.01 0.14,-0.01 0.31,-0.02 0.45,-0.02 0.04,0 0.14,0 0.14,0.15 0,0.1 -0.08,0.1 -0.22,0.1 -0.01,0 -0.14,0 -0.26,0.01 -0.16,0.02 -0.16,0.04 -0.16,0.11 0,0 0,0.05 0.02,0.15 z"
   inkscape:connector-curvature="0"
   style="fill:#000000;stroke-width:0" />
<path
   id="path5592"
   d="m 325.62,708.72 0,0.07 0,0.08 0,0.08 0,0.08 -0.01,0.17 -0.01,0.18 -0.02,0.18 -0.02,0.19 -0.03,0.19 -0.03,0.2 -0.04,0.21 -0.05,0.2 -0.05,0.21 -0.06,0.22 -0.07,0.21 -0.08,0.21 -0.04,0.11 -0.05,0.1 -0.04,0.11 -0.06,0.11 c -0.59,1.22 -1.45,1.87 -1.55,1.87 -0.06,0 -0.1,-0.04 -0.1,-0.1 0,-0.03 0,-0.05 0.19,-0.23 0.98,-0.99 1.55,-2.57 1.55,-4.65 0,-1.7 -0.37,-3.45 -1.61,-4.71 -0.13,-0.12 -0.13,-0.14 -0.13,-0.17 0,-0.06 0.04,-0.1 0.1,-0.1 0.1,0 1,0.68 1.58,1.95 0.51,1.09 0.63,2.2 0.63,3.03 z"
   inkscape:connector-curvature="0"
   style="fill:#000000;stroke-width:0" />
</g>  </g>
</svg>
