<?xml version="1.0" encoding="UTF-8" standalone="no"?>
<!-- Created with Inkscape (http://www.inkscape.org/) -->

<svg
   xmlns:ns0="http://www.iki.fi/pav/software/textext/"
   xmlns:dc="http://purl.org/dc/elements/1.1/"
   xmlns:cc="http://creativecommons.org/ns#"
   xmlns:rdf="http://www.w3.org/1999/02/22-rdf-syntax-ns#"
   xmlns:svg="http://www.w3.org/2000/svg"
   xmlns="http://www.w3.org/2000/svg"
   xmlns:sodipodi="http://sodipodi.sourceforge.net/DTD/sodipodi-0.dtd"
   xmlns:inkscape="http://www.inkscape.org/namespaces/inkscape"
   width="210.875"
   height="270.90625"
   id="svg2"
   version="1.1"
   inkscape:version="0.48.1 "
   sodipodi:docname="New document 1">
  <sodipodi:namedview
     id="base"
     pagecolor="#ffffff"
     bordercolor="#666666"
     borderopacity="1.0"
     inkscape:pageopacity="0.0"
     inkscape:pageshadow="2"
     inkscape:zoom="1.0787109"
     inkscape:cx="90.820444"
     inkscape:cy="40.450317"
     inkscape:document-units="px"
     inkscape:current-layer="layer1"
     showgrid="false"
     fit-margin-top="0"
     fit-margin-left="0"
     fit-margin-right="0"
     fit-margin-bottom="0"
     inkscape:window-width="1680"
     inkscape:window-height="988"
     inkscape:window-x="-8"
     inkscape:window-y="-8"
     inkscape:window-maximized="1">
    <inkscape:grid
       type="xygrid"
       id="grid2985"
       empspacing="5"
       visible="true"
       enabled="true"
       snapvisiblegridlinesonly="true" />
  </sodipodi:namedview>
  <defs
     id="defs4" />
  <metadata
     id="metadata7">
    <rdf:RDF>
      <cc:Work
         rdf:about="">
        <dc:format>image/svg+xml</dc:format>
        <dc:type
           rdf:resource="http://purl.org/dc/dcmitype/StillImage" />
        <dc:title></dc:title>
      </cc:Work>
    </rdf:RDF>
  </metadata>
  <g
     inkscape:label="Layer 1"
     inkscape:groupmode="layer"
     id="layer1"
     transform="translate(-139.5625,-301.90625)">
    <path
       style="fill:#4b4848;fill-opacity:1;stroke:none"
       d="m 177.02155,497.1947 120,-20 -60,50 z"
       id="path2989"
       inkscape:connector-curvature="0" />
    <path
       style="fill:#4b4848;fill-opacity:1;stroke:none"
       d="m 170,372.36218 40,60 120,-70 z"
       id="path2987"
       inkscape:connector-curvature="0" />
    <path
       style="fill:none;stroke:#000000;stroke-width:1.5;stroke-linecap:butt;stroke-linejoin:miter;stroke-miterlimit:4;stroke-opacity:1;stroke-dasharray:3,1.5;stroke-dashoffset:0"
       d="m 187.52276,301.77794 90.14953,270.44862"
       id="path3803"
       inkscape:connector-curvature="0" />
    <path
       style="fill:none;stroke:#000000;stroke-width:1.5;stroke-linecap:butt;stroke-linejoin:miter;stroke-opacity:1;stroke-miterlimit:4;stroke-dasharray:3,1.5;stroke-dashoffset:0"
       d="M 203.80687,572.53336 280.36925,302.39817"
       id="path3801"
       inkscape:connector-curvature="0" />
    <path
       sodipodi:type="arc"
       style="fill:#ff0505;fill-opacity:1;stroke:none"
       id="path3759"
       sodipodi:cx="235"
       sodipodi:cy="447.36218"
       sodipodi:rx="5"
       sodipodi:ry="5"
       d="m 240,447.36218 c 0,2.76143 -2.23858,5 -5,5 -2.76142,0 -5,-2.23857 -5,-5 0,-2.76142 2.23858,-5 5,-5 2.76142,0 5,2.23858 5,5 z"
       transform="matrix(0.5,0,0,0.5,120,228.68109)" />
    <rect
       style="fill:none;stroke:#000000;stroke-width:0.89871705px;stroke-linecap:butt;stroke-linejoin:miter;stroke-opacity:1"
       id="rect3761"
       width="210"
       height="270"
       x="140"
       y="302.36218" />
    <path
       sodipodi:type="arc"
       style="fill:#05ff28;fill-opacity:1;stroke:none"
       id="path3759-7"
       sodipodi:cx="235"
       sodipodi:cy="447.36218"
       sodipodi:rx="5"
       sodipodi:ry="5"
       d="m 240,447.36218 c 0,2.76143 -2.23858,5 -5,5 -2.76142,0 -5,-2.23857 -5,-5 0,-2.76142 2.23858,-5 5,-5 2.76142,0 5,2.23858 5,5 z"
       transform="matrix(0.5,0,0,0.5,97.571521,163.99886)" />
    <path
       sodipodi:type="arc"
       style="fill:#05ff28;fill-opacity:1;stroke:none"
       id="path3759-7-0"
       sodipodi:cx="235"
       sodipodi:cy="447.36218"
       sodipodi:rx="5"
       sodipodi:ry="5"
       d="m 240,447.36218 c 0,2.76143 -2.23858,5 -5,5 -2.76142,0 -5,-2.23857 -5,-5 0,-2.76142 2.23858,-5 5,-5 2.76142,0 5,2.23858 5,5 z"
       transform="matrix(0.5,0,0,0.5,104.98778,281.73197)" />
    <g
       style="font-style:normal;font-variant:normal;font-weight:normal;font-stretch:normal;letter-spacing:normal;word-spacing:normal;text-anchor:start;fill:none;stroke:#000000;stroke-linecap:butt;stroke-linejoin:miter;stroke-miterlimit:10.43299961;stroke-opacity:1;stroke-dasharray:none;stroke-dashoffset:0"
       id="content"
       transform="matrix(2,0,0,-2,-198.83397,1865.2508)"
       xml:space="preserve"
       stroke-miterlimit="10.433"
       font-style="normal"
       font-variant="normal"
       font-weight="normal"
       font-stretch="normal"
       font-size-adjust="none"
       letter-spacing="normal"
       word-spacing="normal"
       ns0:text="$ c $"
       ns0:preamble="">
<path
   style="fill:#000000;stroke-width:0"
   inkscape:connector-curvature="0"
   d="m 227.38,710.91 -0.03,0 -0.03,0 -0.03,0 -0.03,-0.01 -0.03,0 -0.02,0 -0.02,0 -0.01,0 -0.01,-0.01 -0.02,0 -0.01,0 -0.01,-0.01 -0.02,0 -0.01,-0.01 -0.01,0 -0.02,-0.01 -0.01,0 -0.01,-0.01 -0.02,-0.01 -0.01,-0.01 -0.01,-0.01 -0.02,-0.01 -0.01,-0.01 -0.01,-0.01 -0.02,-0.01 -0.01,-0.01 c -0.16,-0.15 -0.18,-0.32 -0.18,-0.39 0,-0.24 0.18,-0.35 0.37,-0.35 0.29,0 0.56,0.24 0.56,0.64 0,0.49 -0.47,0.85 -1.18,0.85 -1.34,0 -2.67,-1.42 -2.67,-2.82 0,-0.9 0.58,-1.68 1.62,-1.68 1.42,0 2.26,1.05 2.26,1.17 0,0.06 -0.06,0.13 -0.12,0.13 -0.05,0 -0.07,-0.02 -0.13,-0.1 -0.79,-0.99 -1.87,-0.99 -1.99,-0.99 -0.63,0 -0.9,0.49 -0.9,1.09 0,0.41 0.2,1.37 0.54,1.99 0.31,0.57 0.85,0.99 1.4,0.99 0.34,0 0.72,-0.12 0.86,-0.39 z"
   id="path3820" />
</g>    <g
       ns0:preamble=""
       ns0:text="$ b_{1} $"
       word-spacing="normal"
       letter-spacing="normal"
       font-size-adjust="none"
       font-stretch="normal"
       font-weight="normal"
       font-variant="normal"
       font-style="normal"
       stroke-miterlimit="10.433"
       xml:space="preserve"
       transform="matrix(2,0,0,-2,-275.77766,1827.2424)"
       id="g3852"
       style="font-style:normal;font-variant:normal;font-weight:normal;font-stretch:normal;letter-spacing:normal;word-spacing:normal;text-anchor:start;fill:none;stroke:#000000;stroke-linecap:butt;stroke-linejoin:miter;stroke-miterlimit:10.43299961;stroke-opacity:1;stroke-dasharray:none;stroke-dashoffset:0">
<path
   id="path3854"
   d="m 225.81,713.92 0,0 0,0 0,0.01 0,0 0,0 0,0 0,0.01 0,0 0,0 0,0.01 0,0 0,0.01 0,0 0,0.01 -0.01,0 0,0.01 0,0 -0.01,0.01 0,0 0,0.01 -0.01,0 0,0 0,0 -0.01,0.01 0,0 0,0 0,0 -0.01,0 0,0.01 0,0 -0.01,0 0,0 -0.01,0 0,0 0,0.01 -0.01,0 0,0 -0.01,0 0,0 -0.01,0 0,0 -0.01,0 0,0 -0.01,0 -0.01,0 c -0.22,0 -0.95,-0.08 -1.21,-0.1 -0.08,-0.01 -0.19,-0.02 -0.19,-0.2 0,-0.12 0.09,-0.12 0.24,-0.12 0.48,0 0.5,-0.07 0.5,-0.16 0,-0.07 -0.09,-0.41 -0.14,-0.62 l -0.82,-3.25 c -0.12,-0.49 -0.16,-0.65 -0.16,-1 0,-0.95 0.53,-1.56 1.27,-1.56 v 0.21 c -0.34,0 -0.67,0.27 -0.67,1.01 0,0.19 0,0.38 0.16,1 l 0.22,0.92 c 0.06,0.22 0.06,0.24 0.15,0.35 0.48,0.65 0.93,0.79 1.19,0.79 0.36,0 0.63,-0.29 0.63,-0.93 0,-0.59 -0.33,-1.73 -0.51,-2.11 -0.33,-0.67 -0.79,-1.03 -1.17,-1.03 v -0.21 c 1.17,0 2.4,1.48 2.4,2.91 0,0.91 -0.53,1.59 -1.33,1.59 -0.45,0 -0.86,-0.29 -1.16,-0.59 z"
   inkscape:connector-curvature="0"
   style="fill:#000000;stroke-width:0" />
<path
   id="path3856"
   d="m 230.04,710.05 0,0.01 0,0.01 0,0.01 0,0.01 0,0 0,0.01 0,0.01 0,0.01 0,0 0,0.01 0,0 0,0.01 0,0.01 0,0 0,0.01 0,0 -0.01,0.01 0,0 0,0.01 0,0.01 0,0.01 -0.01,0 0,0.01 -0.01,0.01 0,0 -0.01,0.01 0,0 -0.01,0 -0.01,0.01 0,0 -0.01,0 -0.01,0 -0.01,0 0,0 -0.01,0 0,0.01 -0.01,0 -0.01,0 0,0 -0.01,0 -0.01,0 0,0 -0.01,0 -0.01,0 -0.01,0 0,0 -0.01,0 -0.01,0 -0.01,0 -0.01,0 c -0.44,-0.44 -1.08,-0.45 -1.36,-0.45 v -0.25 c 0.16,0 0.62,0 1.01,0.2 v -3.55 c 0,-0.23 0,-0.32 -0.7,-0.32 h -0.26 v -0.25 c 0.12,0.01 0.98,0.03 1.24,0.03 0.21,0 1.09,-0.02 1.24,-0.03 v 0.25 h -0.26 c -0.7,0 -0.7,0.09 -0.7,0.32 z"
   inkscape:connector-curvature="0"
   style="fill:#000000;stroke-width:0" />
</g>    <g
       id="g3918"
       transform="matrix(2,0,0,-2,-252.29929,1937.7776)"
       xml:space="preserve"
       stroke-miterlimit="10.433"
       font-style="normal"
       font-variant="normal"
       font-weight="normal"
       font-stretch="normal"
       font-size-adjust="none"
       letter-spacing="normal"
       word-spacing="normal"
       ns0:text="$ b_{2} $"
       ns0:preamble=""
       style="font-style:normal;font-variant:normal;font-weight:normal;font-stretch:normal;letter-spacing:normal;word-spacing:normal;text-anchor:start;fill:none;stroke:#000000;stroke-linecap:butt;stroke-linejoin:miter;stroke-miterlimit:10.43299961;stroke-opacity:1;stroke-dasharray:none;stroke-dashoffset:0">
<path
   style="fill:#000000;stroke-width:0"
   inkscape:connector-curvature="0"
   d="m 225.81,713.92 0,0 0,0 0,0.01 0,0 0,0 0,0 0,0.01 0,0 0,0 0,0.01 0,0 0,0.01 0,0 0,0.01 -0.01,0 0,0.01 0,0 -0.01,0.01 0,0 0,0.01 -0.01,0 0,0 0,0 -0.01,0.01 0,0 0,0 0,0 -0.01,0 0,0.01 0,0 -0.01,0 0,0 -0.01,0 0,0 0,0.01 -0.01,0 0,0 -0.01,0 0,0 -0.01,0 0,0 -0.01,0 0,0 -0.01,0 -0.01,0 c -0.22,0 -0.95,-0.08 -1.21,-0.1 -0.08,-0.01 -0.19,-0.02 -0.19,-0.2 0,-0.12 0.09,-0.12 0.24,-0.12 0.48,0 0.5,-0.07 0.5,-0.16 0,-0.07 -0.09,-0.41 -0.14,-0.62 l -0.82,-3.25 c -0.12,-0.49 -0.16,-0.65 -0.16,-1 0,-0.95 0.53,-1.56 1.27,-1.56 v 0.21 c -0.34,0 -0.67,0.27 -0.67,1.01 0,0.19 0,0.38 0.16,1 l 0.22,0.92 c 0.06,0.22 0.06,0.24 0.15,0.35 0.48,0.65 0.93,0.79 1.19,0.79 0.36,0 0.63,-0.29 0.63,-0.93 0,-0.59 -0.33,-1.73 -0.51,-2.11 -0.33,-0.67 -0.79,-1.03 -1.17,-1.03 v -0.21 c 1.17,0 2.4,1.48 2.4,2.91 0,0.91 -0.53,1.59 -1.33,1.59 -0.45,0 -0.86,-0.29 -1.16,-0.59 z"
   id="path3920" />
<path
   style="fill:#000000;stroke-width:0"
   inkscape:connector-curvature="0"
   d="m 231.23,706.9 h -0.24 c -0.02,-0.16 -0.09,-0.57 -0.18,-0.64 -0.06,-0.04 -0.6,-0.04 -0.69,-0.04 h -1.28 c 0.73,0.65 0.97,0.84 1.39,1.17 0.51,0.41 1,0.84 1,1.5 0,0.84 -0.74,1.36 -1.63,1.36 -0.87,0 -1.45,-0.61 -1.45,-1.25 0,-0.35 0.3,-0.39 0.37,-0.39 0.16,0 0.36,0.12 0.36,0.37 0,0.13 -0.04,0.37 -0.41,0.37 0.22,0.49 0.69,0.65 1.02,0.65 0.7,0 1.06,-0.54 1.06,-1.11 0,-0.6 -0.43,-1.08 -0.65,-1.33 l -1.68,-1.66 c -0.07,-0.06 -0.07,-0.07 -0.07,-0.27 h 2.87 z"
   id="path3922" />
</g>    <g
       id="g4351"
       transform="matrix(2,0,0,-2,-280.11027,1977.64)"
       xml:space="preserve"
       stroke-miterlimit="10.433"
       font-style="normal"
       font-variant="normal"
       font-weight="normal"
       font-stretch="normal"
       font-size-adjust="none"
       letter-spacing="normal"
       word-spacing="normal"
       ns0:text="$ \\beta_{2, 1} $"
       ns0:preamble=""
       style="font-style:normal;font-variant:normal;font-weight:normal;font-stretch:normal;letter-spacing:normal;word-spacing:normal;text-anchor:start;fill:none;stroke:#000000;stroke-linecap:butt;stroke-linejoin:miter;stroke-miterlimit:10.43299961;stroke-opacity:1;stroke-dasharray:none;stroke-dashoffset:0">
<path
   style="fill:#000000;stroke-width:0"
   inkscape:connector-curvature="0"
   d="m 229.16,712.79 0,0.07 0,0.07 -0.01,0.06 -0.01,0.07 -0.02,0.07 -0.01,0.06 -0.02,0.06 -0.02,0.07 -0.03,0.06 -0.03,0.05 -0.03,0.06 -0.03,0.06 -0.04,0.05 -0.04,0.05 -0.04,0.05 -0.04,0.05 -0.05,0.04 -0.04,0.05 -0.06,0.04 -0.05,0.04 -0.05,0.03 -0.06,0.04 -0.06,0.03 -0.06,0.02 -0.06,0.03 -0.07,0.02 -0.06,0.02 -0.07,0.01 -0.07,0.02 -0.07,0 -0.08,0.01 -0.07,0 c -0.58,0 -0.86,-0.16 -1.21,-0.42 -0.55,-0.39 -1.09,-1.36 -1.28,-2.12 l -1.59,-6.32 c -0.01,-0.04 0.04,-0.1 0.12,-0.1 0.08,0 0.11,0.02 0.12,0.05 l 0.7,2.75 c 0.19,-0.6 0.63,-0.96 1.35,-0.96 l -0.03,0.21 c -0.75,0 -1.13,0.58 -1.13,1.29 0,0.1 0,0.25 0.05,0.44 l 0.63,2.51 c 0.22,0.86 0.94,2.44 2.14,2.44 0.58,0 0.93,-0.31 0.93,-0.9 h 0 c 0,-0.7 -0.38,-1.42 -0.9,-1.73 -0.27,0.11 -0.47,0.12 -0.77,0.12 -0.21,0 -0.77,0.01 -0.77,-0.31 -0.01,-0.28 0.51,-0.25 0.69,-0.25 l 0.03,0.22 c -0.14,0 -0.34,-0.01 -0.44,0.04 0.02,0.1 0.38,0.08 0.49,0.08 0.21,0 0.3,0 0.43,-0.05 h 0 c -0.13,-0.05 -0.24,-0.07 -0.48,-0.07 l -0.03,-0.22 c 0.37,0 0.52,0.01 0.82,0.13 0.38,-0.36 0.43,-0.67 0.44,-1.13 0.02,-0.57 -0.22,-1.32 -0.5,-1.71 -0.39,-0.54 -1.06,-0.9 -1.63,-0.9 l 0.03,-0.21 c 0.73,0 1.48,0.34 1.93,0.78 0.48,0.46 0.79,1.1 0.79,1.83 0,0.72 -0.36,1.24 -0.72,1.49 0.58,0.32 1.14,0.94 1.14,1.66 z"
   id="path4353" />
<path
   style="fill:#000000;stroke-width:0"
   inkscape:connector-curvature="0"
   d="m 232.58,706.9 h -0.23 c -0.02,-0.16 -0.09,-0.57 -0.18,-0.64 -0.06,-0.04 -0.6,-0.04 -0.69,-0.04 h -1.28 c 0.73,0.65 0.97,0.84 1.39,1.17 0.51,0.41 0.99,0.84 0.99,1.5 0,0.84 -0.73,1.36 -1.63,1.36 -0.86,0 -1.44,-0.61 -1.44,-1.25 0,-0.35 0.29,-0.39 0.37,-0.39 0.16,0 0.36,0.12 0.36,0.37 0,0.13 -0.04,0.37 -0.41,0.37 0.22,0.49 0.69,0.65 1.02,0.65 0.7,0 1.06,-0.54 1.06,-1.11 0,-0.6 -0.43,-1.08 -0.66,-1.33 l -1.68,-1.66 c -0.06,-0.06 -0.06,-0.07 -0.06,-0.27 h 2.87 z"
   id="path4355" />
<path
   style="fill:#000000;stroke-width:0"
   inkscape:connector-curvature="0"
   d="m 234.51,705.74 0,-0.07 -0.01,-0.07 0,-0.08 -0.01,-0.08 -0.01,-0.03 0,-0.04 -0.01,-0.04 -0.01,-0.04 -0.01,-0.04 -0.01,-0.04 -0.01,-0.04 -0.02,-0.04 -0.01,-0.04 -0.02,-0.04 -0.02,-0.04 -0.02,-0.04 -0.02,-0.04 -0.02,-0.04 -0.02,-0.05 -0.03,-0.04 -0.03,-0.04 -0.03,-0.04 -0.03,-0.04 -0.04,-0.04 -0.03,-0.04 -0.04,-0.05 -0.04,-0.04 -0.05,-0.04 c -0.02,-0.03 -0.05,-0.05 -0.05,-0.08 0,-0.05 0.06,-0.1 0.1,-0.1 0.1,0 0.69,0.55 0.69,1.38 0,0.43 -0.16,0.76 -0.49,0.76 -0.22,0 -0.39,-0.18 -0.39,-0.4 0,-0.22 0.16,-0.4 0.4,-0.4 0.17,0 0.28,0.11 0.29,0.11 z"
   id="path4357" />
<path
   style="fill:#000000;stroke-width:0"
   inkscape:connector-curvature="0"
   d="m 237.74,710.05 0,0.01 0,0.01 0,0.01 0,0.01 0,0 0,0.01 0,0.01 0,0.01 0,0 0,0.01 0,0 0,0.01 -0.01,0.01 0,0 0,0.01 0,0 0,0.01 0,0 0,0.01 0,0.01 -0.01,0.01 0,0 0,0.01 -0.01,0.01 0,0 -0.01,0.01 -0.01,0 0,0 -0.01,0.01 -0.01,0 -0.01,0 -0.01,0 0,0 -0.01,0 0,0 -0.01,0.01 0,0 -0.01,0 -0.01,0 0,0 -0.01,0 -0.01,0 0,0 -0.01,0 -0.01,0 -0.01,0 0,0 -0.01,0 -0.01,0 -0.01,0 c -0.45,-0.44 -1.08,-0.45 -1.37,-0.45 v -0.25 c 0.17,0 0.63,0 1.01,0.2 v -3.55 c 0,-0.23 0,-0.32 -0.69,-0.32 h -0.27 v -0.25 c 0.13,0.01 0.99,0.03 1.24,0.03 0.22,0 1.1,-0.02 1.25,-0.03 v 0.25 h -0.27 c -0.69,0 -0.69,0.09 -0.69,0.32 z"
   id="path4359" />
</g>    <g
       style="font-style:normal;font-variant:normal;font-weight:normal;font-stretch:normal;letter-spacing:normal;word-spacing:normal;text-anchor:start;fill:none;stroke:#000000;stroke-linecap:butt;stroke-linejoin:miter;stroke-miterlimit:10.43299961;stroke-opacity:1;stroke-dasharray:none;stroke-dashoffset:0"
       ns0:preamble=""
       ns0:text="$ \\beta_{1,1} $"
       word-spacing="normal"
       letter-spacing="normal"
       font-size-adjust="none"
       font-stretch="normal"
       font-weight="normal"
       font-variant="normal"
       font-style="normal"
       stroke-miterlimit="10.433"
       xml:space="preserve"
       transform="matrix(2,0,0,-2,-289.64494,1743.7078)"
       id="g4442">
<path
   id="path4444"
   d="m 229.16,712.79 0,0.07 0,0.07 -0.01,0.06 -0.01,0.07 -0.02,0.07 -0.01,0.06 -0.02,0.06 -0.02,0.07 -0.03,0.06 -0.03,0.05 -0.03,0.06 -0.03,0.06 -0.04,0.05 -0.04,0.05 -0.04,0.05 -0.04,0.05 -0.05,0.04 -0.04,0.05 -0.06,0.04 -0.05,0.04 -0.05,0.03 -0.06,0.04 -0.06,0.03 -0.06,0.02 -0.06,0.03 -0.07,0.02 -0.06,0.02 -0.07,0.01 -0.07,0.02 -0.07,0 -0.08,0.01 -0.07,0 c -0.58,0 -0.86,-0.16 -1.21,-0.42 -0.55,-0.39 -1.09,-1.36 -1.28,-2.12 l -1.59,-6.32 c -0.01,-0.04 0.04,-0.1 0.12,-0.1 0.08,0 0.11,0.02 0.12,0.05 l 0.7,2.75 c 0.19,-0.6 0.63,-0.96 1.35,-0.96 l -0.03,0.21 c -0.75,0 -1.13,0.58 -1.13,1.29 0,0.1 0,0.25 0.05,0.44 l 0.63,2.51 c 0.22,0.86 0.94,2.44 2.14,2.44 0.58,0 0.93,-0.31 0.93,-0.9 h 0 c 0,-0.7 -0.38,-1.42 -0.9,-1.73 -0.27,0.11 -0.47,0.12 -0.77,0.12 -0.21,0 -0.77,0.01 -0.77,-0.31 -0.01,-0.28 0.51,-0.25 0.69,-0.25 l 0.03,0.22 c -0.14,0 -0.34,-0.01 -0.44,0.04 0.02,0.1 0.38,0.08 0.49,0.08 0.21,0 0.3,0 0.43,-0.05 h 0 c -0.13,-0.05 -0.24,-0.07 -0.48,-0.07 l -0.03,-0.22 c 0.37,0 0.52,0.01 0.82,0.13 0.38,-0.36 0.43,-0.67 0.44,-1.13 0.02,-0.57 -0.22,-1.32 -0.5,-1.71 -0.39,-0.54 -1.06,-0.9 -1.63,-0.9 l 0.03,-0.21 c 0.73,0 1.48,0.34 1.93,0.78 0.48,0.46 0.79,1.1 0.79,1.83 0,0.72 -0.36,1.24 -0.72,1.49 0.58,0.32 1.14,0.94 1.14,1.66 z"
   inkscape:connector-curvature="0"
   style="fill:#000000;stroke-width:0" />
<path
   id="path4446"
   d="m 231.4,710.05 0,0.01 0,0.01 0,0.01 0,0.01 0,0 0,0.01 0,0.01 0,0.01 0,0 0,0.01 0,0 0,0.01 0,0.01 0,0 0,0.01 -0.01,0 0,0.01 0,0 0,0.01 0,0.01 0,0.01 -0.01,0 0,0.01 -0.01,0.01 0,0 -0.01,0.01 0,0 -0.01,0 -0.01,0.01 -0.01,0 0,0 -0.01,0 -0.01,0 0,0 -0.01,0 -0.01,0.01 0,0 -0.01,0 0,0 -0.01,0 -0.01,0 0,0 -0.01,0 -0.01,0 -0.01,0 0,0 -0.01,0 -0.01,0 -0.01,0 -0.01,0 c -0.45,-0.44 -1.08,-0.45 -1.36,-0.45 v -0.25 c 0.16,0 0.62,0 1.01,0.2 v -3.55 c 0,-0.23 0,-0.32 -0.7,-0.32 h -0.26 v -0.25 c 0.12,0.01 0.98,0.03 1.24,0.03 0.21,0 1.09,-0.02 1.24,-0.03 v 0.25 h -0.26 c -0.7,0 -0.7,0.09 -0.7,0.32 z"
   inkscape:connector-curvature="0"
   style="fill:#000000;stroke-width:0" />
<path
   id="path4448"
   d="m 234.51,705.74 0,-0.07 -0.01,-0.07 0,-0.08 -0.01,-0.08 -0.01,-0.03 0,-0.04 -0.01,-0.04 -0.01,-0.04 -0.01,-0.04 -0.01,-0.04 -0.01,-0.04 -0.02,-0.04 -0.01,-0.04 -0.02,-0.04 -0.02,-0.04 -0.02,-0.04 -0.02,-0.04 -0.02,-0.04 -0.02,-0.05 -0.03,-0.04 -0.03,-0.04 -0.03,-0.04 -0.03,-0.04 -0.04,-0.04 -0.03,-0.04 -0.04,-0.05 -0.04,-0.04 -0.05,-0.04 c -0.02,-0.03 -0.05,-0.05 -0.05,-0.08 0,-0.05 0.06,-0.1 0.1,-0.1 0.1,0 0.69,0.55 0.69,1.38 0,0.43 -0.16,0.76 -0.49,0.76 -0.22,0 -0.39,-0.18 -0.39,-0.4 0,-0.22 0.16,-0.4 0.4,-0.4 0.17,0 0.28,0.11 0.29,0.11 z"
   inkscape:connector-curvature="0"
   style="fill:#000000;stroke-width:0" />
<path
   id="path4450"
   d="m 237.74,710.05 0,0.01 0,0.01 0,0.01 0,0.01 0,0 0,0.01 0,0.01 0,0.01 0,0 0,0.01 0,0 0,0.01 -0.01,0.01 0,0 0,0.01 0,0 0,0.01 0,0 0,0.01 0,0.01 -0.01,0.01 0,0 0,0.01 -0.01,0.01 0,0 -0.01,0.01 -0.01,0 0,0 -0.01,0.01 -0.01,0 -0.01,0 -0.01,0 0,0 -0.01,0 0,0 -0.01,0.01 0,0 -0.01,0 -0.01,0 0,0 -0.01,0 -0.01,0 0,0 -0.01,0 -0.01,0 -0.01,0 0,0 -0.01,0 -0.01,0 -0.01,0 c -0.45,-0.44 -1.08,-0.45 -1.37,-0.45 v -0.25 c 0.17,0 0.63,0 1.01,0.2 v -3.55 c 0,-0.23 0,-0.32 -0.69,-0.32 h -0.27 v -0.25 c 0.13,0.01 0.99,0.03 1.24,0.03 0.22,0 1.1,-0.02 1.25,-0.03 v 0.25 h -0.27 c -0.69,0 -0.69,0.09 -0.69,0.32 z"
   inkscape:connector-curvature="0"
   style="fill:#000000;stroke-width:0" />
</g>    <g
       id="g4535"
       transform="matrix(2,0,0,-2,-248.59116,1871.0312)"
       xml:space="preserve"
       stroke-miterlimit="10.433"
       font-style="normal"
       font-variant="normal"
       font-weight="normal"
       font-stretch="normal"
       font-size-adjust="none"
       letter-spacing="normal"
       word-spacing="normal"
       ns0:text="$ \\alpha_{1,1} $"
       ns0:preamble=""
       style="font-style:normal;font-variant:normal;font-weight:normal;font-stretch:normal;letter-spacing:normal;word-spacing:normal;text-anchor:start;fill:none;stroke:#000000;stroke-linecap:butt;stroke-linejoin:miter;stroke-miterlimit:10.43299961;stroke-opacity:1;stroke-dasharray:none;stroke-dashoffset:0">
<path
   style="fill:#000000;stroke-width:0"
   inkscape:connector-curvature="0"
   d="m 228.19,709.47 0,0.08 -0.01,0.07 0,0.07 0,0.06 -0.02,0.14 -0.01,0.12 -0.03,0.12 -0.02,0.11 -0.03,0.11 -0.04,0.1 -0.04,0.1 -0.04,0.09 -0.05,0.09 -0.05,0.08 -0.05,0.08 -0.05,0.07 -0.06,0.06 -0.06,0.06 -0.06,0.06 -0.06,0.05 -0.07,0.05 -0.07,0.05 -0.07,0.04 -0.06,0.03 -0.08,0.04 -0.07,0.02 -0.07,0.03 -0.07,0.02 -0.07,0.02 -0.07,0.01 -0.08,0.01 -0.07,0.01 -0.07,0 -0.07,0 c -1.36,0 -2.68,-1.42 -2.68,-2.82 0,-0.93 0.6,-1.68 1.62,-1.68 l 0.02,0.21 c -0.6,0 -0.9,0.45 -0.9,1.09 0,0.49 0.26,1.56 0.58,2.07 0.47,0.73 1,0.91 1.35,0.91 0.99,0 0.99,-1.3 0.99,-2.08 0,-0.36 0,-0.94 0.02,-1.11 h 0 c -0.88,-0.77 -1.65,-0.88 -2.04,-0.88 l -0.02,-0.21 c 0.62,0 1.34,0.22 2.1,0.83 0.13,-0.53 0.46,-0.83 0.91,-0.83 0.52,0 0.83,0.54 0.83,0.7 0,0.07 -0.06,0.1 -0.12,0.1 -0.07,0 -0.1,-0.03 -0.13,-0.1 -0.17,-0.49 -0.53,-0.49 -0.55,-0.49 -0.31,0 -0.31,0.78 -0.31,1.02 0,0.21 0,0.23 0.1,0.35 0.93,1.17 1.14,2.33 1.14,2.34 0,0.02 -0.01,0.1 -0.12,0.1 -0.1,0 -0.1,-0.03 -0.15,-0.21 -0.18,-0.63 -0.51,-1.39 -0.97,-1.97 z"
   id="path4537" />
<path
   style="fill:#000000;stroke-width:0"
   inkscape:connector-curvature="0"
   d="m 232.14,710.05 0,0.01 0,0.01 0,0.01 0,0.01 0,0 0,0.01 0,0.01 0,0.01 0,0 0,0.01 0,0 0,0.01 -0.01,0.01 0,0 0,0.01 0,0 0,0.01 0,0 0,0.01 0,0.01 -0.01,0.01 0,0 0,0.01 -0.01,0.01 0,0 -0.01,0.01 -0.01,0 0,0 -0.01,0.01 -0.01,0 -0.01,0 -0.01,0 0,0 -0.01,0 0,0 -0.01,0.01 0,0 -0.01,0 -0.01,0 0,0 -0.01,0 -0.01,0 0,0 -0.01,0 -0.01,0 -0.01,0 0,0 -0.01,0 -0.01,0 -0.01,0 c -0.45,-0.44 -1.08,-0.45 -1.37,-0.45 v -0.25 c 0.17,0 0.63,0 1.01,0.2 v -3.55 c 0,-0.23 0,-0.32 -0.69,-0.32 h -0.27 v -0.25 c 0.13,0.01 0.99,0.03 1.24,0.03 0.22,0 1.1,-0.02 1.25,-0.03 v 0.25 h -0.26 c -0.7,0 -0.7,0.09 -0.7,0.32 z"
   id="path4539" />
<path
   style="fill:#000000;stroke-width:0"
   inkscape:connector-curvature="0"
   d="m 235.25,705.74 0,-0.07 -0.01,-0.07 0,-0.08 -0.01,-0.08 -0.01,-0.03 0,-0.04 -0.01,-0.04 -0.01,-0.04 -0.01,-0.04 -0.01,-0.04 -0.01,-0.04 -0.02,-0.04 -0.01,-0.04 -0.02,-0.04 -0.02,-0.04 -0.02,-0.04 -0.02,-0.04 -0.02,-0.04 -0.03,-0.05 -0.02,-0.04 -0.03,-0.04 -0.03,-0.04 -0.03,-0.04 -0.04,-0.04 -0.04,-0.04 -0.03,-0.05 -0.04,-0.04 -0.05,-0.04 c -0.03,-0.03 -0.05,-0.05 -0.05,-0.08 0,-0.05 0.06,-0.1 0.1,-0.1 0.1,0 0.69,0.55 0.69,1.38 0,0.43 -0.17,0.76 -0.49,0.76 -0.23,0 -0.39,-0.18 -0.39,-0.4 0,-0.22 0.16,-0.4 0.4,-0.4 0.17,0 0.28,0.11 0.29,0.11 z"
   id="path4541" />
<path
   style="fill:#000000;stroke-width:0"
   inkscape:connector-curvature="0"
   d="m 238.48,710.05 0,0.01 0,0.01 0,0.01 0,0.01 0,0 0,0.01 0,0.01 0,0.01 -0.01,0 0,0.01 0,0 0,0.01 0,0.01 0,0 0,0.01 0,0 0,0.01 0,0 0,0.01 -0.01,0.01 0,0.01 0,0 -0.01,0.01 0,0.01 -0.01,0 0,0.01 -0.01,0 0,0 -0.01,0.01 -0.01,0 -0.01,0 -0.01,0 0,0 -0.01,0 0,0 -0.01,0.01 -0.01,0 0,0 -0.01,0 0,0 -0.01,0 -0.01,0 -0.01,0 0,0 -0.01,0 -0.01,0 -0.01,0 -0.01,0 0,0 -0.01,0 c -0.45,-0.44 -1.08,-0.45 -1.37,-0.45 v -0.25 c 0.17,0 0.63,0 1.01,0.2 v -3.55 c 0,-0.23 0,-0.32 -0.69,-0.32 h -0.27 v -0.25 c 0.13,0.01 0.98,0.03 1.24,0.03 0.22,0 1.09,-0.02 1.25,-0.03 v 0.25 h -0.27 c -0.69,0 -0.69,0.09 -0.69,0.32 z"
   id="path4543" />
</g>    <g
       style="font-style:normal;font-variant:normal;font-weight:normal;font-stretch:normal;letter-spacing:normal;word-spacing:normal;text-anchor:start;fill:none;stroke:#000000;stroke-linecap:butt;stroke-linejoin:miter;stroke-miterlimit:10.43299961;stroke-opacity:1;stroke-dasharray:none;stroke-dashoffset:0"
       ns0:preamble=""
       ns0:text="$ \\alpha_{2,1} $"
       text-anchor="start"
       word-spacing="normal"
       letter-spacing="normal"
       font-size-adjust="none"
       font-stretch="normal"
       font-weight="normal"
       font-variant="normal"
       font-style="normal"
       fill-opacity="1"
       fill-rule="evenodd"
       fill="none"
       stroke-opacity="1"
       stroke-dashoffset="0"
       stroke-dasharray="none"
       stroke-miterlimit="10.433"
       stroke-linejoin="miter"
       stroke-linecap="butt"
       stroke="black"
       xml:space="preserve"
       transform="matrix(2,0,0,-2,-189.26108,1841.3662)"
       id="g4632">
<path
   id="path4634"
   fill="black"
   stroke-width="0"
   d="M228.19,709.47 L228.19,709.55 L228.18,709.62 L228.18,709.69 L228.18,709.75 L228.16,709.89 L228.15,710.01 L228.12,710.13 L228.1,710.24 L228.07,710.35 L228.03,710.45 L227.99,710.55 L227.95,710.64 L227.9,710.73 L227.85,710.81 L227.8,710.89 L227.75,710.96 L227.69,711.02 L227.63,711.08 L227.57,711.14 L227.51,711.19 L227.44,711.24 L227.37,711.29 L227.3,711.33 L227.24,711.36 L227.16,711.4 L227.09,711.42 L227.02,711.45 L226.95,711.47 L226.88,711.49 L226.81,711.5 L226.73,711.51 L226.66,711.52 L226.59,711.52 L226.52,711.52 C225.16,711.52,223.84,710.1,223.84,708.7 C223.84,707.77,224.44,707.02,225.46,707.02 L225.48,707.23 C224.88,707.23,224.58,707.68,224.58,708.32 C224.58,708.81,224.84,709.88,225.16,710.39 C225.63,711.12,226.16,711.3,226.51,711.3 C227.5,711.3,227.5,710,227.5,709.22 C227.5,708.86,227.5,708.28,227.52,708.11 H227.52 C226.64,707.34,225.87,707.23,225.48,707.23 L225.46,707.02 C226.08,707.02,226.8,707.24,227.56,707.85 C227.69,707.32,228.02,707.02,228.47,707.02 C228.99,707.02,229.3,707.56,229.3,707.72 C229.3,707.79,229.24,707.82,229.18,707.82 C229.11,707.82,229.08,707.79,229.05,707.72 C228.88,707.23,228.52,707.23,228.5,707.23 C228.19,707.23,228.19,708.01,228.19,708.25 C228.19,708.46,228.19,708.48,228.29,708.6 C229.22,709.77,229.43,710.93,229.43,710.94 C229.43,710.96,229.42,711.04,229.31,711.04 C229.21,711.04,229.21,711.01,229.16,710.83 C228.98,710.2,228.65,709.44,228.19,708.86 Z " />
<path
   id="path4636"
   fill="black"
   stroke-width="0"
   d="M233.32,706.9 H233.09 C233.06,706.74,232.99,706.33,232.9,706.26 C232.85,706.22,232.31,706.22,232.21,706.22 H230.93 C231.66,706.87,231.91,707.06,232.33,707.39 C232.84,707.8,233.32,708.23,233.32,708.89 C233.32,709.73,232.58,710.25,231.69,710.25 C230.83,710.25,230.24,709.64,230.24,709 C230.24,708.65,230.54,708.61,230.61,708.61 C230.78,708.61,230.98,708.73,230.98,708.98 C230.98,709.11,230.93,709.35,230.57,709.35 C230.79,709.84,231.26,710,231.59,710 C232.28,710,232.65,709.46,232.65,708.89 C232.65,708.29,232.21,707.81,231.99,707.56 L230.31,705.9 C230.24,705.84,230.24,705.83,230.24,705.63 H233.11 Z " />
<path
   id="path4638"
   fill="black"
   stroke-width="0"
   d="M235.25,705.74 L235.25,705.67 L235.24,705.6 L235.24,705.52 L235.23,705.44 L235.22,705.41 L235.22,705.37 L235.21,705.33 L235.2,705.29 L235.19,705.25 L235.18,705.21 L235.17,705.17 L235.15,705.13 L235.14,705.09 L235.12,705.05 L235.1,705.01 L235.08,704.97 L235.06,704.93 L235.04,704.89 L235.01,704.84 L234.99,704.8 L234.96,704.76 L234.93,704.72 L234.9,704.68 L234.86,704.64 L234.82,704.6 L234.79,704.55 L234.75,704.51 L234.7,704.47 C234.67,704.44,234.65,704.42,234.65,704.39 C234.65,704.34,234.71,704.29,234.75,704.29 C234.85,704.29,235.44,704.84,235.44,705.67 C235.44,706.1,235.27,706.43,234.95,706.43 C234.72,706.43,234.56,706.25,234.56,706.03 C234.56,705.81,234.72,705.63,234.96,705.63 C235.13,705.63,235.24,705.74,235.25,705.74 Z " />
<path
   id="path4640"
   fill="black"
   stroke-width="0"
   d="M238.48,710.05 L238.48,710.06 L238.48,710.07 L238.48,710.08 L238.48,710.09 L238.48,710.09 L238.48,710.1 L238.48,710.11 L238.48,710.12 L238.47,710.12 L238.47,710.13 L238.47,710.13 L238.47,710.14 L238.47,710.15 L238.47,710.15 L238.47,710.16 L238.47,710.16 L238.47,710.17 L238.47,710.17 L238.47,710.18 L238.46,710.19 L238.46,710.2 L238.46,710.2 L238.45,710.21 L238.45,710.22 L238.44,710.22 L238.44,710.23 L238.43,710.23 L238.43,710.23 L238.42,710.24 L238.41,710.24 L238.4,710.24 L238.39,710.24 L238.39,710.24 L238.38,710.24 L238.38,710.24 L238.37,710.25 L238.36,710.25 L238.36,710.25 L238.35,710.25 L238.35,710.25 L238.34,710.25 L238.33,710.25 L238.32,710.25 L238.32,710.25 L238.31,710.25 L238.3,710.25 L238.29,710.25 L238.28,710.25 L238.28,710.25 L238.27,710.25 C237.82,709.81,237.19,709.8,236.9,709.8 V709.55 C237.07,709.55,237.53,709.55,237.91,709.75 V706.2 C237.91,705.97,237.91,705.88,237.22,705.88 H236.95 V705.63 C237.08,705.64,237.93,705.66,238.19,705.66 C238.41,705.66,239.28,705.64,239.44,705.63 V705.88 H239.17 C238.48,705.88,238.48,705.97,238.48,706.2 Z " />
</g>    <g
       id="g4733"
       transform="matrix(2,0,0,-2,-168.86638,1754.2252)"
       xml:space="preserve"
       stroke-miterlimit="10.433"
       font-style="normal"
       font-variant="normal"
       font-weight="normal"
       font-stretch="normal"
       font-size-adjust="none"
       letter-spacing="normal"
       word-spacing="normal"
       ns0:text="$ \\alpha_{2,2} $"
       ns0:preamble=""
       style="font-style:normal;font-variant:normal;font-weight:normal;font-stretch:normal;letter-spacing:normal;word-spacing:normal;text-anchor:start;fill:none;stroke:#000000;stroke-linecap:butt;stroke-linejoin:miter;stroke-miterlimit:10.43299961;stroke-opacity:1;stroke-dasharray:none;stroke-dashoffset:0">
<path
   style="fill:#000000;stroke-width:0"
   inkscape:connector-curvature="0"
   d="m 228.19,709.47 0,0.08 -0.01,0.07 0,0.07 0,0.06 -0.02,0.14 -0.01,0.12 -0.03,0.12 -0.02,0.11 -0.03,0.11 -0.04,0.1 -0.04,0.1 -0.04,0.09 -0.05,0.09 -0.05,0.08 -0.05,0.08 -0.05,0.07 -0.06,0.06 -0.06,0.06 -0.06,0.06 -0.06,0.05 -0.07,0.05 -0.07,0.05 -0.07,0.04 -0.06,0.03 -0.08,0.04 -0.07,0.02 -0.07,0.03 -0.07,0.02 -0.07,0.02 -0.07,0.01 -0.08,0.01 -0.07,0.01 -0.07,0 -0.07,0 c -1.36,0 -2.68,-1.42 -2.68,-2.82 0,-0.93 0.6,-1.68 1.62,-1.68 l 0.02,0.21 c -0.6,0 -0.9,0.45 -0.9,1.09 0,0.49 0.26,1.56 0.58,2.07 0.47,0.73 1,0.91 1.35,0.91 0.99,0 0.99,-1.3 0.99,-2.08 0,-0.36 0,-0.94 0.02,-1.11 h 0 c -0.88,-0.77 -1.65,-0.88 -2.04,-0.88 l -0.02,-0.21 c 0.62,0 1.34,0.22 2.1,0.83 0.13,-0.53 0.46,-0.83 0.91,-0.83 0.52,0 0.83,0.54 0.83,0.7 0,0.07 -0.06,0.1 -0.12,0.1 -0.07,0 -0.1,-0.03 -0.13,-0.1 -0.17,-0.49 -0.53,-0.49 -0.55,-0.49 -0.31,0 -0.31,0.78 -0.31,1.02 0,0.21 0,0.23 0.1,0.35 0.93,1.17 1.14,2.33 1.14,2.34 0,0.02 -0.01,0.1 -0.12,0.1 -0.1,0 -0.1,-0.03 -0.15,-0.21 -0.18,-0.63 -0.51,-1.39 -0.97,-1.97 z"
   id="path4735" />
<path
   style="fill:#000000;stroke-width:0"
   inkscape:connector-curvature="0"
   d="m 233.32,706.9 h -0.23 c -0.03,-0.16 -0.1,-0.57 -0.19,-0.64 -0.05,-0.04 -0.59,-0.04 -0.69,-0.04 h -1.28 c 0.73,0.65 0.98,0.84 1.4,1.17 0.51,0.41 0.99,0.84 0.99,1.5 0,0.84 -0.74,1.36 -1.63,1.36 -0.86,0 -1.45,-0.61 -1.45,-1.25 0,-0.35 0.3,-0.39 0.37,-0.39 0.17,0 0.37,0.12 0.37,0.37 0,0.13 -0.05,0.37 -0.41,0.37 0.22,0.49 0.69,0.65 1.02,0.65 0.69,0 1.06,-0.54 1.06,-1.11 0,-0.6 -0.44,-1.08 -0.66,-1.33 l -1.68,-1.66 c -0.07,-0.06 -0.07,-0.07 -0.07,-0.27 h 2.87 z"
   id="path4737" />
<path
   style="fill:#000000;stroke-width:0"
   inkscape:connector-curvature="0"
   d="m 235.25,705.74 0,-0.07 -0.01,-0.07 0,-0.08 -0.01,-0.08 -0.01,-0.03 0,-0.04 -0.01,-0.04 -0.01,-0.04 -0.01,-0.04 -0.01,-0.04 -0.01,-0.04 -0.02,-0.04 -0.01,-0.04 -0.02,-0.04 -0.02,-0.04 -0.02,-0.04 -0.02,-0.04 -0.02,-0.04 -0.03,-0.05 -0.02,-0.04 -0.03,-0.04 -0.03,-0.04 -0.03,-0.04 -0.04,-0.04 -0.04,-0.04 -0.03,-0.05 -0.04,-0.04 -0.05,-0.04 c -0.03,-0.03 -0.05,-0.05 -0.05,-0.08 0,-0.05 0.06,-0.1 0.1,-0.1 0.1,0 0.69,0.55 0.69,1.38 0,0.43 -0.17,0.76 -0.49,0.76 -0.23,0 -0.39,-0.18 -0.39,-0.4 0,-0.22 0.16,-0.4 0.4,-0.4 0.17,0 0.28,0.11 0.29,0.11 z"
   id="path4739" />
<path
   style="fill:#000000;stroke-width:0"
   inkscape:connector-curvature="0"
   d="m 239.66,706.9 h -0.24 c -0.02,-0.16 -0.09,-0.57 -0.18,-0.64 -0.05,-0.04 -0.59,-0.04 -0.69,-0.04 h -1.28 c 0.73,0.65 0.98,0.84 1.39,1.17 0.52,0.41 1,0.84 1,1.5 0,0.84 -0.74,1.36 -1.63,1.36 -0.86,0 -1.45,-0.61 -1.45,-1.25 0,-0.35 0.3,-0.39 0.37,-0.39 0.17,0 0.37,0.12 0.37,0.37 0,0.13 -0.05,0.37 -0.41,0.37 0.22,0.49 0.69,0.65 1.02,0.65 0.69,0 1.05,-0.54 1.05,-1.11 0,-0.6 -0.43,-1.08 -0.65,-1.33 l -1.68,-1.66 c -0.07,-0.06 -0.07,-0.07 -0.07,-0.27 h 2.87 z"
   id="path4741" />
</g>    <g
       style="font-style:normal;font-variant:normal;font-weight:normal;font-stretch:normal;letter-spacing:normal;word-spacing:normal;text-anchor:start;fill:none;stroke:#000000;stroke-linecap:butt;stroke-linejoin:miter;stroke-miterlimit:10.43299961;stroke-opacity:1;stroke-dasharray:none;stroke-dashoffset:0"
       ns0:preamble=""
       ns0:text="$ \\alpha_{1,2} $"
       word-spacing="normal"
       letter-spacing="normal"
       font-size-adjust="none"
       font-stretch="normal"
       font-weight="normal"
       font-variant="normal"
       font-style="normal"
       stroke-miterlimit="10.433"
       xml:space="preserve"
       transform="matrix(2,0,0,-2,-173.50154,1958.1723)"
       id="g4838">
<path
   id="path4840"
   d="m 228.19,709.47 0,0.08 -0.01,0.07 0,0.07 0,0.06 -0.02,0.14 -0.01,0.12 -0.03,0.12 -0.02,0.11 -0.03,0.11 -0.04,0.1 -0.04,0.1 -0.04,0.09 -0.05,0.09 -0.05,0.08 -0.05,0.08 -0.05,0.07 -0.06,0.06 -0.06,0.06 -0.06,0.06 -0.06,0.05 -0.07,0.05 -0.07,0.05 -0.07,0.04 -0.06,0.03 -0.08,0.04 -0.07,0.02 -0.07,0.03 -0.07,0.02 -0.07,0.02 -0.07,0.01 -0.08,0.01 -0.07,0.01 -0.07,0 -0.07,0 c -1.36,0 -2.68,-1.42 -2.68,-2.82 0,-0.93 0.6,-1.68 1.62,-1.68 l 0.02,0.21 c -0.6,0 -0.9,0.45 -0.9,1.09 0,0.49 0.26,1.56 0.58,2.07 0.47,0.73 1,0.91 1.35,0.91 0.99,0 0.99,-1.3 0.99,-2.08 0,-0.36 0,-0.94 0.02,-1.11 h 0 c -0.88,-0.77 -1.65,-0.88 -2.04,-0.88 l -0.02,-0.21 c 0.62,0 1.34,0.22 2.1,0.83 0.13,-0.53 0.46,-0.83 0.91,-0.83 0.52,0 0.83,0.54 0.83,0.7 0,0.07 -0.06,0.1 -0.12,0.1 -0.07,0 -0.1,-0.03 -0.13,-0.1 -0.17,-0.49 -0.53,-0.49 -0.55,-0.49 -0.31,0 -0.31,0.78 -0.31,1.02 0,0.21 0,0.23 0.1,0.35 0.93,1.17 1.14,2.33 1.14,2.34 0,0.02 -0.01,0.1 -0.12,0.1 -0.1,0 -0.1,-0.03 -0.15,-0.21 -0.18,-0.63 -0.51,-1.39 -0.97,-1.97 z"
   inkscape:connector-curvature="0"
   style="fill:#000000;stroke-width:0" />
<path
   id="path4842"
   d="m 232.14,710.05 0,0.01 0,0.01 0,0.01 0,0.01 0,0 0,0.01 0,0.01 0,0.01 0,0 0,0.01 0,0 0,0.01 -0.01,0.01 0,0 0,0.01 0,0 0,0.01 0,0 0,0.01 0,0.01 -0.01,0.01 0,0 0,0.01 -0.01,0.01 0,0 -0.01,0.01 -0.01,0 0,0 -0.01,0.01 -0.01,0 -0.01,0 -0.01,0 0,0 -0.01,0 0,0 -0.01,0.01 0,0 -0.01,0 -0.01,0 0,0 -0.01,0 -0.01,0 0,0 -0.01,0 -0.01,0 -0.01,0 0,0 -0.01,0 -0.01,0 -0.01,0 c -0.45,-0.44 -1.08,-0.45 -1.37,-0.45 v -0.25 c 0.17,0 0.63,0 1.01,0.2 v -3.55 c 0,-0.23 0,-0.32 -0.69,-0.32 h -0.27 v -0.25 c 0.13,0.01 0.99,0.03 1.24,0.03 0.22,0 1.1,-0.02 1.25,-0.03 v 0.25 h -0.26 c -0.7,0 -0.7,0.09 -0.7,0.32 z"
   inkscape:connector-curvature="0"
   style="fill:#000000;stroke-width:0" />
<path
   id="path4844"
   d="m 235.25,705.74 0,-0.07 -0.01,-0.07 0,-0.08 -0.01,-0.08 -0.01,-0.03 0,-0.04 -0.01,-0.04 -0.01,-0.04 -0.01,-0.04 -0.01,-0.04 -0.01,-0.04 -0.02,-0.04 -0.01,-0.04 -0.02,-0.04 -0.02,-0.04 -0.02,-0.04 -0.02,-0.04 -0.02,-0.04 -0.03,-0.05 -0.02,-0.04 -0.03,-0.04 -0.03,-0.04 -0.03,-0.04 -0.04,-0.04 -0.04,-0.04 -0.03,-0.05 -0.04,-0.04 -0.05,-0.04 c -0.03,-0.03 -0.05,-0.05 -0.05,-0.08 0,-0.05 0.06,-0.1 0.1,-0.1 0.1,0 0.69,0.55 0.69,1.38 0,0.43 -0.17,0.76 -0.49,0.76 -0.23,0 -0.39,-0.18 -0.39,-0.4 0,-0.22 0.16,-0.4 0.4,-0.4 0.17,0 0.28,0.11 0.29,0.11 z"
   inkscape:connector-curvature="0"
   style="fill:#000000;stroke-width:0" />
<path
   id="path4846"
   d="m 239.66,706.9 h -0.24 c -0.02,-0.16 -0.09,-0.57 -0.18,-0.64 -0.05,-0.04 -0.59,-0.04 -0.69,-0.04 h -1.28 c 0.73,0.65 0.98,0.84 1.39,1.17 0.52,0.41 1,0.84 1,1.5 0,0.84 -0.74,1.36 -1.63,1.36 -0.86,0 -1.45,-0.61 -1.45,-1.25 0,-0.35 0.3,-0.39 0.37,-0.39 0.17,0 0.37,0.12 0.37,0.37 0,0.13 -0.05,0.37 -0.41,0.37 0.22,0.49 0.69,0.65 1.02,0.65 0.69,0 1.05,-0.54 1.05,-1.11 0,-0.6 -0.43,-1.08 -0.65,-1.33 l -1.68,-1.66 c -0.07,-0.06 -0.07,-0.07 -0.07,-0.27 h 2.87 z"
   inkscape:connector-curvature="0"
   style="fill:#000000;stroke-width:0" />
</g>  </g>
</svg>
