<?xml version="1.0" encoding="UTF-8" standalone="no"?>
<!-- Created with Inkscape (http://www.inkscape.org/) -->

<svg
   xmlns:ns0="http://www.iki.fi/pav/software/textext/"
   xmlns:dc="http://purl.org/dc/elements/1.1/"
   xmlns:cc="http://creativecommons.org/ns#"
   xmlns:rdf="http://www.w3.org/1999/02/22-rdf-syntax-ns#"
   xmlns:svg="http://www.w3.org/2000/svg"
   xmlns="http://www.w3.org/2000/svg"
   xmlns:sodipodi="http://sodipodi.sourceforge.net/DTD/sodipodi-0.dtd"
   xmlns:inkscape="http://www.inkscape.org/namespaces/inkscape"
   width="210.875"
   height="270.90625"
   id="svg2"
   version="1.1"
   inkscape:version="0.48.1 "
   sodipodi:docname="recurring.svg">
  <sodipodi:namedview
     id="base"
     pagecolor="#ffffff"
     bordercolor="#666666"
     borderopacity="1.0"
     inkscape:pageopacity="0.0"
     inkscape:pageshadow="2"
     inkscape:zoom="1.0787109"
     inkscape:cx="90.820444"
     inkscape:cy="40.450317"
     inkscape:document-units="px"
     inkscape:current-layer="layer1"
     showgrid="false"
     fit-margin-top="0"
     fit-margin-left="0"
     fit-margin-right="0"
     fit-margin-bottom="0"
     inkscape:window-width="469"
     inkscape:window-height="455"
     inkscape:window-x="100"
     inkscape:window-y="100"
     inkscape:window-maximized="0">
    <inkscape:grid
       type="xygrid"
       id="grid2985"
       empspacing="5"
       visible="true"
       enabled="true"
       snapvisiblegridlinesonly="true" />
  </sodipodi:namedview>
  <defs
     id="defs4" />
  <metadata
     id="metadata7">
    <rdf:RDF>
      <cc:Work
         rdf:about="">
        <dc:format>image/svg+xml</dc:format>
        <dc:type
           rdf:resource="http://purl.org/dc/dcmitype/StillImage" />
        <dc:title />
      </cc:Work>
    </rdf:RDF>
  </metadata>
  <g
     inkscape:label="Layer 1"
     inkscape:groupmode="layer"
     id="layer1"
     transform="translate(-139.5625,-301.90625)">
    <path
       style="fill:none;stroke:#fabb3c;stroke-width:5;stroke-linecap:butt;stroke-linejoin:miter;stroke-miterlimit:4;stroke-opacity:1;stroke-dasharray:none"
       d="m 238.75497,536.65823 c -19.6597,6.02125 -37.49352,4.73902 -54.69491,0.92703 -18.12492,-15.34382 -18.5234,-11.10714 -21.32175,-30.59207 -1.79976,-21.75618 13.93979,-29.42451 28.73801,-34.3002 14.51359,-3.8152 29.02718,-5.41478 43.54078,-5.78892 20.71363,-0.53397 41.42727,1.42811 62.14091,3.00782 14.9946,0 16.99249,12.23442 14.83252,33.37317 -0.84757,8.29486 -23.05969,35.5756 -24.10285,32.44613 -19.77669,12.41542 -42.33447,20.95068 -61.18413,24.10285 -28.01606,4.47928 -49.84867,-0.31663 -73.23556,-2.7811"
       id="path4934"
       inkscape:connector-curvature="0"
       sodipodi:nodetypes="ccccscsccc" />
    <path
       style="fill:#4b4848;fill-opacity:1;stroke:none"
       d="m 177.02155,497.1947 120,-20 -60,50 z"
       id="path2989"
       inkscape:connector-curvature="0" />
    <path
       style="fill:#4b4848;fill-opacity:1;stroke:none"
       d="m 170,372.36218 40,60 120,-70 z"
       id="path2987"
       inkscape:connector-curvature="0" />
    <path
       style="fill:none;stroke:#000000;stroke-width:1.5;stroke-linecap:butt;stroke-linejoin:miter;stroke-miterlimit:4;stroke-opacity:1;stroke-dasharray:3,1.5;stroke-dashoffset:0"
       d="m 187.52276,301.77794 90.14953,270.44862"
       id="path3803"
       inkscape:connector-curvature="0" />
    <path
       style="fill:none;stroke:#000000;stroke-width:1.5;stroke-linecap:butt;stroke-linejoin:miter;stroke-opacity:1;stroke-miterlimit:4;stroke-dasharray:3,1.5;stroke-dashoffset:0"
       d="M 203.80687,572.53336 280.36925,302.39817"
       id="path3801"
       inkscape:connector-curvature="0" />
    <path
       sodipodi:type="arc"
       style="fill:#ff0505;fill-opacity:1;stroke:none"
       id="path3759"
       sodipodi:cx="235"
       sodipodi:cy="447.36218"
       sodipodi:rx="5"
       sodipodi:ry="5"
       d="m 240,447.36218 c 0,2.76143 -2.23858,5 -5,5 -2.76142,0 -5,-2.23857 -5,-5 0,-2.76142 2.23858,-5 5,-5 2.76142,0 5,2.23858 5,5 z"
       transform="matrix(0.5,0,0,0.5,120,228.68109)" />
    <rect
       style="fill:none;stroke:#000000;stroke-width:0.89871705px;stroke-linecap:butt;stroke-linejoin:miter;stroke-opacity:1"
       id="rect3761"
       width="210"
       height="270"
       x="140"
       y="302.36218" />
    <path
       sodipodi:type="arc"
       style="fill:#05ff28;fill-opacity:1;stroke:none"
       id="path3759-7"
       sodipodi:cx="235"
       sodipodi:cy="447.36218"
       sodipodi:rx="5"
       sodipodi:ry="5"
       d="m 240,447.36218 c 0,2.76143 -2.23858,5 -5,5 -2.76142,0 -5,-2.23857 -5,-5 0,-2.76142 2.23858,-5 5,-5 2.76142,0 5,2.23858 5,5 z"
       transform="matrix(0.5,0,0,0.5,97.571521,163.99886)" />
    <path
       sodipodi:type="arc"
       style="fill:#05ff28;fill-opacity:1;stroke:none"
       id="path3759-7-0"
       sodipodi:cx="235"
       sodipodi:cy="447.36218"
       sodipodi:rx="5"
       sodipodi:ry="5"
       d="m 240,447.36218 c 0,2.76143 -2.23858,5 -5,5 -2.76142,0 -5,-2.23857 -5,-5 0,-2.76142 2.23858,-5 5,-5 2.76142,0 5,2.23858 5,5 z"
       transform="matrix(0.5,0,0,0.5,104.98778,281.73197)" />
    <g
       style="font-style:normal;font-variant:normal;font-weight:normal;font-stretch:normal;letter-spacing:normal;word-spacing:normal;text-anchor:start;fill:none;stroke:#000000;stroke-linecap:butt;stroke-linejoin:miter;stroke-miterlimit:10.43299961;stroke-opacity:1;stroke-dasharray:none;stroke-dashoffset:0"
       id="content"
       transform="matrix(2,0,0,-2,-198.83397,1865.2508)"
       xml:space="preserve"
       stroke-miterlimit="10.433"
       font-style="normal"
       font-variant="normal"
       font-weight="normal"
       font-stretch="normal"
       font-size-adjust="none"
       letter-spacing="normal"
       word-spacing="normal"
       ns0:text="$ c $"
       ns0:preamble="">
<path
   style="fill:#000000;stroke-width:0"
   inkscape:connector-curvature="0"
   d="m 227.38,710.91 -0.03,0 -0.03,0 -0.03,0 -0.03,-0.01 -0.03,0 -0.02,0 -0.02,0 -0.01,0 -0.01,-0.01 -0.02,0 -0.01,0 -0.01,-0.01 -0.02,0 -0.01,-0.01 -0.01,0 -0.02,-0.01 -0.01,0 -0.01,-0.01 -0.02,-0.01 -0.01,-0.01 -0.01,-0.01 -0.02,-0.01 -0.01,-0.01 -0.01,-0.01 -0.02,-0.01 -0.01,-0.01 c -0.16,-0.15 -0.18,-0.32 -0.18,-0.39 0,-0.24 0.18,-0.35 0.37,-0.35 0.29,0 0.56,0.24 0.56,0.64 0,0.49 -0.47,0.85 -1.18,0.85 -1.34,0 -2.67,-1.42 -2.67,-2.82 0,-0.9 0.58,-1.68 1.62,-1.68 1.42,0 2.26,1.05 2.26,1.17 0,0.06 -0.06,0.13 -0.12,0.13 -0.05,0 -0.07,-0.02 -0.13,-0.1 -0.79,-0.99 -1.87,-0.99 -1.99,-0.99 -0.63,0 -0.9,0.49 -0.9,1.09 0,0.41 0.2,1.37 0.54,1.99 0.31,0.57 0.85,0.99 1.4,0.99 0.34,0 0.72,-0.12 0.86,-0.39 z"
   id="path3820" />
</g>    <g
       ns0:preamble=""
       ns0:text="$ b_{1} $"
       word-spacing="normal"
       letter-spacing="normal"
       font-size-adjust="none"
       font-stretch="normal"
       font-weight="normal"
       font-variant="normal"
       font-style="normal"
       stroke-miterlimit="10.433"
       xml:space="preserve"
       transform="matrix(2,0,0,-2,-279.48579,1821.6802)"
       id="g3852"
       style="font-style:normal;font-variant:normal;font-weight:normal;font-stretch:normal;letter-spacing:normal;word-spacing:normal;text-anchor:start;fill:none;stroke:#000000;stroke-linecap:butt;stroke-linejoin:miter;stroke-miterlimit:10.43299961;stroke-opacity:1;stroke-dasharray:none;stroke-dashoffset:0">
<path
   id="path3854"
   d="m 225.81,713.92 0,0 0,0 0,0.01 0,0 0,0 0,0 0,0.01 0,0 0,0 0,0.01 0,0 0,0.01 0,0 0,0.01 -0.01,0 0,0.01 0,0 -0.01,0.01 0,0 0,0.01 -0.01,0 0,0 0,0 -0.01,0.01 0,0 0,0 0,0 -0.01,0 0,0.01 0,0 -0.01,0 0,0 -0.01,0 0,0 0,0.01 -0.01,0 0,0 -0.01,0 0,0 -0.01,0 0,0 -0.01,0 0,0 -0.01,0 -0.01,0 c -0.22,0 -0.95,-0.08 -1.21,-0.1 -0.08,-0.01 -0.19,-0.02 -0.19,-0.2 0,-0.12 0.09,-0.12 0.24,-0.12 0.48,0 0.5,-0.07 0.5,-0.16 0,-0.07 -0.09,-0.41 -0.14,-0.62 l -0.82,-3.25 c -0.12,-0.49 -0.16,-0.65 -0.16,-1 0,-0.95 0.53,-1.56 1.27,-1.56 v 0.21 c -0.34,0 -0.67,0.27 -0.67,1.01 0,0.19 0,0.38 0.16,1 l 0.22,0.92 c 0.06,0.22 0.06,0.24 0.15,0.35 0.48,0.65 0.93,0.79 1.19,0.79 0.36,0 0.63,-0.29 0.63,-0.93 0,-0.59 -0.33,-1.73 -0.51,-2.11 -0.33,-0.67 -0.79,-1.03 -1.17,-1.03 v -0.21 c 1.17,0 2.4,1.48 2.4,2.91 0,0.91 -0.53,1.59 -1.33,1.59 -0.45,0 -0.86,-0.29 -1.16,-0.59 z"
   inkscape:connector-curvature="0"
   style="fill:#000000;stroke-width:0" />
<path
   id="path3856"
   d="m 230.04,710.05 0,0.01 0,0.01 0,0.01 0,0.01 0,0 0,0.01 0,0.01 0,0.01 0,0 0,0.01 0,0 0,0.01 0,0.01 0,0 0,0.01 0,0 -0.01,0.01 0,0 0,0.01 0,0.01 0,0.01 -0.01,0 0,0.01 -0.01,0.01 0,0 -0.01,0.01 0,0 -0.01,0 -0.01,0.01 0,0 -0.01,0 -0.01,0 -0.01,0 0,0 -0.01,0 0,0.01 -0.01,0 -0.01,0 0,0 -0.01,0 -0.01,0 0,0 -0.01,0 -0.01,0 -0.01,0 0,0 -0.01,0 -0.01,0 -0.01,0 -0.01,0 c -0.44,-0.44 -1.08,-0.45 -1.36,-0.45 v -0.25 c 0.16,0 0.62,0 1.01,0.2 v -3.55 c 0,-0.23 0,-0.32 -0.7,-0.32 h -0.26 v -0.25 c 0.12,0.01 0.98,0.03 1.24,0.03 0.21,0 1.09,-0.02 1.24,-0.03 v 0.25 h -0.26 c -0.7,0 -0.7,0.09 -0.7,0.32 z"
   inkscape:connector-curvature="0"
   style="fill:#000000;stroke-width:0" />
</g>    <g
       id="g3918"
       transform="matrix(2,0,0,-2,-258.78852,1937.7776)"
       xml:space="preserve"
       stroke-miterlimit="10.433"
       font-style="normal"
       font-variant="normal"
       font-weight="normal"
       font-stretch="normal"
       font-size-adjust="none"
       letter-spacing="normal"
       word-spacing="normal"
       ns0:text="$ b_{2} $"
       ns0:preamble=""
       style="font-style:normal;font-variant:normal;font-weight:normal;font-stretch:normal;letter-spacing:normal;word-spacing:normal;text-anchor:start;fill:none;stroke:#000000;stroke-linecap:butt;stroke-linejoin:miter;stroke-miterlimit:10.43299961000000000;stroke-opacity:1;stroke-dasharray:none;stroke-dashoffset:0">
<path
   style="fill:#000000;stroke:#000000;stroke-width:0;stroke-opacity:1"
   inkscape:connector-curvature="0"
   d="m 225.81,713.92 0,0 0,0 0,0.01 0,0 0,0 0,0 0,0.01 0,0 0,0 0,0.01 0,0 0,0.01 0,0 0,0.01 -0.01,0 0,0.01 0,0 -0.01,0.01 0,0 0,0.01 -0.01,0 0,0 0,0 -0.01,0.01 0,0 0,0 0,0 -0.01,0 0,0.01 0,0 -0.01,0 0,0 -0.01,0 0,0 0,0.01 -0.01,0 0,0 -0.01,0 0,0 -0.01,0 0,0 -0.01,0 0,0 -0.01,0 -0.01,0 c -0.22,0 -0.95,-0.08 -1.21,-0.1 -0.08,-0.01 -0.19,-0.02 -0.19,-0.2 0,-0.12 0.09,-0.12 0.24,-0.12 0.48,0 0.5,-0.07 0.5,-0.16 0,-0.07 -0.09,-0.41 -0.14,-0.62 l -0.82,-3.25 c -0.12,-0.49 -0.16,-0.65 -0.16,-1 0,-0.95 0.53,-1.56 1.27,-1.56 v 0.21 c -0.34,0 -0.67,0.27 -0.67,1.01 0,0.19 0,0.38 0.16,1 l 0.22,0.92 c 0.06,0.22 0.06,0.24 0.15,0.35 0.48,0.65 0.93,0.79 1.19,0.79 0.36,0 0.63,-0.29 0.63,-0.93 0,-0.59 -0.33,-1.73 -0.51,-2.11 -0.33,-0.67 -0.79,-1.03 -1.17,-1.03 v -0.21 c 1.17,0 2.4,1.48 2.4,2.91 0,0.91 -0.53,1.59 -1.33,1.59 -0.45,0 -0.86,-0.29 -1.16,-0.59 z"
   id="path3920" />
<path
   style="fill:#000000;stroke:#000000;stroke-width:0;stroke-opacity:1"
   inkscape:connector-curvature="0"
   d="m 231.23,706.9 h -0.24 c -0.02,-0.16 -0.09,-0.57 -0.18,-0.64 -0.06,-0.04 -0.6,-0.04 -0.69,-0.04 h -1.28 c 0.73,0.65 0.97,0.84 1.39,1.17 0.51,0.41 1,0.84 1,1.5 0,0.84 -0.74,1.36 -1.63,1.36 -0.87,0 -1.45,-0.61 -1.45,-1.25 0,-0.35 0.3,-0.39 0.37,-0.39 0.16,0 0.36,0.12 0.36,0.37 0,0.13 -0.04,0.37 -0.41,0.37 0.22,0.49 0.69,0.65 1.02,0.65 0.7,0 1.06,-0.54 1.06,-1.11 0,-0.6 -0.43,-1.08 -0.65,-1.33 l -1.68,-1.66 c -0.07,-0.06 -0.07,-0.07 -0.07,-0.27 h 2.87 z"
   id="path3922" />
</g>    <g
       id="g4351"
       transform="matrix(2,0,0,-2,-273.62104,1969.2967)"
       xml:space="preserve"
       stroke-miterlimit="10.433"
       font-style="normal"
       font-variant="normal"
       font-weight="normal"
       font-stretch="normal"
       font-size-adjust="none"
       letter-spacing="normal"
       word-spacing="normal"
       ns0:text="$ \\beta_{2, 1} $"
       ns0:preamble=""
       style="font-style:normal;font-variant:normal;font-weight:normal;font-stretch:normal;letter-spacing:normal;word-spacing:normal;text-anchor:start;fill:none;stroke:#000000;stroke-linecap:butt;stroke-linejoin:miter;stroke-miterlimit:10.43299961;stroke-opacity:1;stroke-dasharray:none;stroke-dashoffset:0">
<path
   style="fill:#000000;stroke-width:0"
   inkscape:connector-curvature="0"
   d="m 229.16,712.79 0,0.07 0,0.07 -0.01,0.06 -0.01,0.07 -0.02,0.07 -0.01,0.06 -0.02,0.06 -0.02,0.07 -0.03,0.06 -0.03,0.05 -0.03,0.06 -0.03,0.06 -0.04,0.05 -0.04,0.05 -0.04,0.05 -0.04,0.05 -0.05,0.04 -0.04,0.05 -0.06,0.04 -0.05,0.04 -0.05,0.03 -0.06,0.04 -0.06,0.03 -0.06,0.02 -0.06,0.03 -0.07,0.02 -0.06,0.02 -0.07,0.01 -0.07,0.02 -0.07,0 -0.08,0.01 -0.07,0 c -0.58,0 -0.86,-0.16 -1.21,-0.42 -0.55,-0.39 -1.09,-1.36 -1.28,-2.12 l -1.59,-6.32 c -0.01,-0.04 0.04,-0.1 0.12,-0.1 0.08,0 0.11,0.02 0.12,0.05 l 0.7,2.75 c 0.19,-0.6 0.63,-0.96 1.35,-0.96 l -0.03,0.21 c -0.75,0 -1.13,0.58 -1.13,1.29 0,0.1 0,0.25 0.05,0.44 l 0.63,2.51 c 0.22,0.86 0.94,2.44 2.14,2.44 0.58,0 0.93,-0.31 0.93,-0.9 h 0 c 0,-0.7 -0.38,-1.42 -0.9,-1.73 -0.27,0.11 -0.47,0.12 -0.77,0.12 -0.21,0 -0.77,0.01 -0.77,-0.31 -0.01,-0.28 0.51,-0.25 0.69,-0.25 l 0.03,0.22 c -0.14,0 -0.34,-0.01 -0.44,0.04 0.02,0.1 0.38,0.08 0.49,0.08 0.21,0 0.3,0 0.43,-0.05 h 0 c -0.13,-0.05 -0.24,-0.07 -0.48,-0.07 l -0.03,-0.22 c 0.37,0 0.52,0.01 0.82,0.13 0.38,-0.36 0.43,-0.67 0.44,-1.13 0.02,-0.57 -0.22,-1.32 -0.5,-1.71 -0.39,-0.54 -1.06,-0.9 -1.63,-0.9 l 0.03,-0.21 c 0.73,0 1.48,0.34 1.93,0.78 0.48,0.46 0.79,1.1 0.79,1.83 0,0.72 -0.36,1.24 -0.72,1.49 0.58,0.32 1.14,0.94 1.14,1.66 z"
   id="path4353" />
<path
   style="fill:#000000;stroke-width:0"
   inkscape:connector-curvature="0"
   d="m 232.58,706.9 h -0.23 c -0.02,-0.16 -0.09,-0.57 -0.18,-0.64 -0.06,-0.04 -0.6,-0.04 -0.69,-0.04 h -1.28 c 0.73,0.65 0.97,0.84 1.39,1.17 0.51,0.41 0.99,0.84 0.99,1.5 0,0.84 -0.73,1.36 -1.63,1.36 -0.86,0 -1.44,-0.61 -1.44,-1.25 0,-0.35 0.29,-0.39 0.37,-0.39 0.16,0 0.36,0.12 0.36,0.37 0,0.13 -0.04,0.37 -0.41,0.37 0.22,0.49 0.69,0.65 1.02,0.65 0.7,0 1.06,-0.54 1.06,-1.11 0,-0.6 -0.43,-1.08 -0.66,-1.33 l -1.68,-1.66 c -0.06,-0.06 -0.06,-0.07 -0.06,-0.27 h 2.87 z"
   id="path4355" />
<path
   style="fill:#000000;stroke-width:0"
   inkscape:connector-curvature="0"
   d="m 234.51,705.74 0,-0.07 -0.01,-0.07 0,-0.08 -0.01,-0.08 -0.01,-0.03 0,-0.04 -0.01,-0.04 -0.01,-0.04 -0.01,-0.04 -0.01,-0.04 -0.01,-0.04 -0.02,-0.04 -0.01,-0.04 -0.02,-0.04 -0.02,-0.04 -0.02,-0.04 -0.02,-0.04 -0.02,-0.04 -0.02,-0.05 -0.03,-0.04 -0.03,-0.04 -0.03,-0.04 -0.03,-0.04 -0.04,-0.04 -0.03,-0.04 -0.04,-0.05 -0.04,-0.04 -0.05,-0.04 c -0.02,-0.03 -0.05,-0.05 -0.05,-0.08 0,-0.05 0.06,-0.1 0.1,-0.1 0.1,0 0.69,0.55 0.69,1.38 0,0.43 -0.16,0.76 -0.49,0.76 -0.22,0 -0.39,-0.18 -0.39,-0.4 0,-0.22 0.16,-0.4 0.4,-0.4 0.17,0 0.28,0.11 0.29,0.11 z"
   id="path4357" />
<path
   style="fill:#000000;stroke-width:0"
   inkscape:connector-curvature="0"
   d="m 237.74,710.05 0,0.01 0,0.01 0,0.01 0,0.01 0,0 0,0.01 0,0.01 0,0.01 0,0 0,0.01 0,0 0,0.01 -0.01,0.01 0,0 0,0.01 0,0 0,0.01 0,0 0,0.01 0,0.01 -0.01,0.01 0,0 0,0.01 -0.01,0.01 0,0 -0.01,0.01 -0.01,0 0,0 -0.01,0.01 -0.01,0 -0.01,0 -0.01,0 0,0 -0.01,0 0,0 -0.01,0.01 0,0 -0.01,0 -0.01,0 0,0 -0.01,0 -0.01,0 0,0 -0.01,0 -0.01,0 -0.01,0 0,0 -0.01,0 -0.01,0 -0.01,0 c -0.45,-0.44 -1.08,-0.45 -1.37,-0.45 v -0.25 c 0.17,0 0.63,0 1.01,0.2 v -3.55 c 0,-0.23 0,-0.32 -0.69,-0.32 h -0.27 v -0.25 c 0.13,0.01 0.99,0.03 1.24,0.03 0.22,0 1.1,-0.02 1.25,-0.03 v 0.25 h -0.27 c -0.69,0 -0.69,0.09 -0.69,0.32 z"
   id="path4359" />
</g>    <g
       style="font-style:normal;font-variant:normal;font-weight:normal;font-stretch:normal;letter-spacing:normal;word-spacing:normal;text-anchor:start;fill:none;stroke:#000000;stroke-linecap:butt;stroke-linejoin:miter;stroke-miterlimit:10.43299961;stroke-opacity:1;stroke-dasharray:none;stroke-dashoffset:0"
       ns0:preamble=""
       ns0:text="$ \\beta_{1,1} $"
       word-spacing="normal"
       letter-spacing="normal"
       font-size-adjust="none"
       font-stretch="normal"
       font-weight="normal"
       font-variant="normal"
       font-style="normal"
       stroke-miterlimit="10.433"
       xml:space="preserve"
       transform="matrix(2,0,0,-2,-289.64494,1743.7078)"
       id="g4442">
<path
   id="path4444"
   d="m 229.16,712.79 0,0.07 0,0.07 -0.01,0.06 -0.01,0.07 -0.02,0.07 -0.01,0.06 -0.02,0.06 -0.02,0.07 -0.03,0.06 -0.03,0.05 -0.03,0.06 -0.03,0.06 -0.04,0.05 -0.04,0.05 -0.04,0.05 -0.04,0.05 -0.05,0.04 -0.04,0.05 -0.06,0.04 -0.05,0.04 -0.05,0.03 -0.06,0.04 -0.06,0.03 -0.06,0.02 -0.06,0.03 -0.07,0.02 -0.06,0.02 -0.07,0.01 -0.07,0.02 -0.07,0 -0.08,0.01 -0.07,0 c -0.58,0 -0.86,-0.16 -1.21,-0.42 -0.55,-0.39 -1.09,-1.36 -1.28,-2.12 l -1.59,-6.32 c -0.01,-0.04 0.04,-0.1 0.12,-0.1 0.08,0 0.11,0.02 0.12,0.05 l 0.7,2.75 c 0.19,-0.6 0.63,-0.96 1.35,-0.96 l -0.03,0.21 c -0.75,0 -1.13,0.58 -1.13,1.29 0,0.1 0,0.25 0.05,0.44 l 0.63,2.51 c 0.22,0.86 0.94,2.44 2.14,2.44 0.58,0 0.93,-0.31 0.93,-0.9 h 0 c 0,-0.7 -0.38,-1.42 -0.9,-1.73 -0.27,0.11 -0.47,0.12 -0.77,0.12 -0.21,0 -0.77,0.01 -0.77,-0.31 -0.01,-0.28 0.51,-0.25 0.69,-0.25 l 0.03,0.22 c -0.14,0 -0.34,-0.01 -0.44,0.04 0.02,0.1 0.38,0.08 0.49,0.08 0.21,0 0.3,0 0.43,-0.05 h 0 c -0.13,-0.05 -0.24,-0.07 -0.48,-0.07 l -0.03,-0.22 c 0.37,0 0.52,0.01 0.82,0.13 0.38,-0.36 0.43,-0.67 0.44,-1.13 0.02,-0.57 -0.22,-1.32 -0.5,-1.71 -0.39,-0.54 -1.06,-0.9 -1.63,-0.9 l 0.03,-0.21 c 0.73,0 1.48,0.34 1.93,0.78 0.48,0.46 0.79,1.1 0.79,1.83 0,0.72 -0.36,1.24 -0.72,1.49 0.58,0.32 1.14,0.94 1.14,1.66 z"
   inkscape:connector-curvature="0"
   style="fill:#000000;stroke-width:0" />
<path
   id="path4446"
   d="m 231.4,710.05 0,0.01 0,0.01 0,0.01 0,0.01 0,0 0,0.01 0,0.01 0,0.01 0,0 0,0.01 0,0 0,0.01 0,0.01 0,0 0,0.01 -0.01,0 0,0.01 0,0 0,0.01 0,0.01 0,0.01 -0.01,0 0,0.01 -0.01,0.01 0,0 -0.01,0.01 0,0 -0.01,0 -0.01,0.01 -0.01,0 0,0 -0.01,0 -0.01,0 0,0 -0.01,0 -0.01,0.01 0,0 -0.01,0 0,0 -0.01,0 -0.01,0 0,0 -0.01,0 -0.01,0 -0.01,0 0,0 -0.01,0 -0.01,0 -0.01,0 -0.01,0 c -0.45,-0.44 -1.08,-0.45 -1.36,-0.45 v -0.25 c 0.16,0 0.62,0 1.01,0.2 v -3.55 c 0,-0.23 0,-0.32 -0.7,-0.32 h -0.26 v -0.25 c 0.12,0.01 0.98,0.03 1.24,0.03 0.21,0 1.09,-0.02 1.24,-0.03 v 0.25 h -0.26 c -0.7,0 -0.7,0.09 -0.7,0.32 z"
   inkscape:connector-curvature="0"
   style="fill:#000000;stroke-width:0" />
<path
   id="path4448"
   d="m 234.51,705.74 0,-0.07 -0.01,-0.07 0,-0.08 -0.01,-0.08 -0.01,-0.03 0,-0.04 -0.01,-0.04 -0.01,-0.04 -0.01,-0.04 -0.01,-0.04 -0.01,-0.04 -0.02,-0.04 -0.01,-0.04 -0.02,-0.04 -0.02,-0.04 -0.02,-0.04 -0.02,-0.04 -0.02,-0.04 -0.02,-0.05 -0.03,-0.04 -0.03,-0.04 -0.03,-0.04 -0.03,-0.04 -0.04,-0.04 -0.03,-0.04 -0.04,-0.05 -0.04,-0.04 -0.05,-0.04 c -0.02,-0.03 -0.05,-0.05 -0.05,-0.08 0,-0.05 0.06,-0.1 0.1,-0.1 0.1,0 0.69,0.55 0.69,1.38 0,0.43 -0.16,0.76 -0.49,0.76 -0.22,0 -0.39,-0.18 -0.39,-0.4 0,-0.22 0.16,-0.4 0.4,-0.4 0.17,0 0.28,0.11 0.29,0.11 z"
   inkscape:connector-curvature="0"
   style="fill:#000000;stroke-width:0" />
<path
   id="path4450"
   d="m 237.74,710.05 0,0.01 0,0.01 0,0.01 0,0.01 0,0 0,0.01 0,0.01 0,0.01 0,0 0,0.01 0,0 0,0.01 -0.01,0.01 0,0 0,0.01 0,0 0,0.01 0,0 0,0.01 0,0.01 -0.01,0.01 0,0 0,0.01 -0.01,0.01 0,0 -0.01,0.01 -0.01,0 0,0 -0.01,0.01 -0.01,0 -0.01,0 -0.01,0 0,0 -0.01,0 0,0 -0.01,0.01 0,0 -0.01,0 -0.01,0 0,0 -0.01,0 -0.01,0 0,0 -0.01,0 -0.01,0 -0.01,0 0,0 -0.01,0 -0.01,0 -0.01,0 c -0.45,-0.44 -1.08,-0.45 -1.37,-0.45 v -0.25 c 0.17,0 0.63,0 1.01,0.2 v -3.55 c 0,-0.23 0,-0.32 -0.69,-0.32 h -0.27 v -0.25 c 0.13,0.01 0.99,0.03 1.24,0.03 0.22,0 1.1,-0.02 1.25,-0.03 v 0.25 h -0.27 c -0.69,0 -0.69,0.09 -0.69,0.32 z"
   inkscape:connector-curvature="0"
   style="fill:#000000;stroke-width:0" />
</g>    <g
       id="g4535"
       transform="matrix(2,0,0,-2,-252.29929,1859.9068)"
       xml:space="preserve"
       stroke-miterlimit="10.433"
       font-style="normal"
       font-variant="normal"
       font-weight="normal"
       font-stretch="normal"
       font-size-adjust="none"
       letter-spacing="normal"
       word-spacing="normal"
       ns0:text="$ \\alpha_{1,1} $"
       ns0:preamble=""
       style="font-style:normal;font-variant:normal;font-weight:normal;font-stretch:normal;letter-spacing:normal;word-spacing:normal;text-anchor:start;fill:none;stroke:#000000;stroke-linecap:butt;stroke-linejoin:miter;stroke-miterlimit:10.43299961;stroke-opacity:1;stroke-dasharray:none;stroke-dashoffset:0">
<path
   style="fill:#000000;stroke-width:0"
   inkscape:connector-curvature="0"
   d="m 228.19,709.47 0,0.08 -0.01,0.07 0,0.07 0,0.06 -0.02,0.14 -0.01,0.12 -0.03,0.12 -0.02,0.11 -0.03,0.11 -0.04,0.1 -0.04,0.1 -0.04,0.09 -0.05,0.09 -0.05,0.08 -0.05,0.08 -0.05,0.07 -0.06,0.06 -0.06,0.06 -0.06,0.06 -0.06,0.05 -0.07,0.05 -0.07,0.05 -0.07,0.04 -0.06,0.03 -0.08,0.04 -0.07,0.02 -0.07,0.03 -0.07,0.02 -0.07,0.02 -0.07,0.01 -0.08,0.01 -0.07,0.01 -0.07,0 -0.07,0 c -1.36,0 -2.68,-1.42 -2.68,-2.82 0,-0.93 0.6,-1.68 1.62,-1.68 l 0.02,0.21 c -0.6,0 -0.9,0.45 -0.9,1.09 0,0.49 0.26,1.56 0.58,2.07 0.47,0.73 1,0.91 1.35,0.91 0.99,0 0.99,-1.3 0.99,-2.08 0,-0.36 0,-0.94 0.02,-1.11 h 0 c -0.88,-0.77 -1.65,-0.88 -2.04,-0.88 l -0.02,-0.21 c 0.62,0 1.34,0.22 2.1,0.83 0.13,-0.53 0.46,-0.83 0.91,-0.83 0.52,0 0.83,0.54 0.83,0.7 0,0.07 -0.06,0.1 -0.12,0.1 -0.07,0 -0.1,-0.03 -0.13,-0.1 -0.17,-0.49 -0.53,-0.49 -0.55,-0.49 -0.31,0 -0.31,0.78 -0.31,1.02 0,0.21 0,0.23 0.1,0.35 0.93,1.17 1.14,2.33 1.14,2.34 0,0.02 -0.01,0.1 -0.12,0.1 -0.1,0 -0.1,-0.03 -0.15,-0.21 -0.18,-0.63 -0.51,-1.39 -0.97,-1.97 z"
   id="path4537" />
<path
   style="fill:#000000;stroke-width:0"
   inkscape:connector-curvature="0"
   d="m 232.14,710.05 0,0.01 0,0.01 0,0.01 0,0.01 0,0 0,0.01 0,0.01 0,0.01 0,0 0,0.01 0,0 0,0.01 -0.01,0.01 0,0 0,0.01 0,0 0,0.01 0,0 0,0.01 0,0.01 -0.01,0.01 0,0 0,0.01 -0.01,0.01 0,0 -0.01,0.01 -0.01,0 0,0 -0.01,0.01 -0.01,0 -0.01,0 -0.01,0 0,0 -0.01,0 0,0 -0.01,0.01 0,0 -0.01,0 -0.01,0 0,0 -0.01,0 -0.01,0 0,0 -0.01,0 -0.01,0 -0.01,0 0,0 -0.01,0 -0.01,0 -0.01,0 c -0.45,-0.44 -1.08,-0.45 -1.37,-0.45 v -0.25 c 0.17,0 0.63,0 1.01,0.2 v -3.55 c 0,-0.23 0,-0.32 -0.69,-0.32 h -0.27 v -0.25 c 0.13,0.01 0.99,0.03 1.24,0.03 0.22,0 1.1,-0.02 1.25,-0.03 v 0.25 h -0.26 c -0.7,0 -0.7,0.09 -0.7,0.32 z"
   id="path4539" />
<path
   style="fill:#000000;stroke-width:0"
   inkscape:connector-curvature="0"
   d="m 235.25,705.74 0,-0.07 -0.01,-0.07 0,-0.08 -0.01,-0.08 -0.01,-0.03 0,-0.04 -0.01,-0.04 -0.01,-0.04 -0.01,-0.04 -0.01,-0.04 -0.01,-0.04 -0.02,-0.04 -0.01,-0.04 -0.02,-0.04 -0.02,-0.04 -0.02,-0.04 -0.02,-0.04 -0.02,-0.04 -0.03,-0.05 -0.02,-0.04 -0.03,-0.04 -0.03,-0.04 -0.03,-0.04 -0.04,-0.04 -0.04,-0.04 -0.03,-0.05 -0.04,-0.04 -0.05,-0.04 c -0.03,-0.03 -0.05,-0.05 -0.05,-0.08 0,-0.05 0.06,-0.1 0.1,-0.1 0.1,0 0.69,0.55 0.69,1.38 0,0.43 -0.17,0.76 -0.49,0.76 -0.23,0 -0.39,-0.18 -0.39,-0.4 0,-0.22 0.16,-0.4 0.4,-0.4 0.17,0 0.28,0.11 0.29,0.11 z"
   id="path4541" />
<path
   style="fill:#000000;stroke-width:0"
   inkscape:connector-curvature="0"
   d="m 238.48,710.05 0,0.01 0,0.01 0,0.01 0,0.01 0,0 0,0.01 0,0.01 0,0.01 -0.01,0 0,0.01 0,0 0,0.01 0,0.01 0,0 0,0.01 0,0 0,0.01 0,0 0,0.01 -0.01,0.01 0,0.01 0,0 -0.01,0.01 0,0.01 -0.01,0 0,0.01 -0.01,0 0,0 -0.01,0.01 -0.01,0 -0.01,0 -0.01,0 0,0 -0.01,0 0,0 -0.01,0.01 -0.01,0 0,0 -0.01,0 0,0 -0.01,0 -0.01,0 -0.01,0 0,0 -0.01,0 -0.01,0 -0.01,0 -0.01,0 0,0 -0.01,0 c -0.45,-0.44 -1.08,-0.45 -1.37,-0.45 v -0.25 c 0.17,0 0.63,0 1.01,0.2 v -3.55 c 0,-0.23 0,-0.32 -0.69,-0.32 h -0.27 v -0.25 c 0.13,0.01 0.98,0.03 1.24,0.03 0.22,0 1.09,-0.02 1.25,-0.03 v 0.25 h -0.27 c -0.69,0 -0.69,0.09 -0.69,0.32 z"
   id="path4543" />
</g>    <g
       style="font-style:normal;font-variant:normal;font-weight:normal;font-stretch:normal;letter-spacing:normal;word-spacing:normal;text-anchor:start;fill:none;stroke:#000000;stroke-linecap:butt;stroke-linejoin:miter;stroke-miterlimit:10.43299961;stroke-opacity:1;stroke-dasharray:none;stroke-dashoffset:0"
       ns0:preamble=""
       ns0:text="$ \\alpha_{2,1} $"
       word-spacing="normal"
       letter-spacing="normal"
       font-size-adjust="none"
       font-stretch="normal"
       font-weight="normal"
       font-variant="normal"
       font-style="normal"
       stroke-miterlimit="10.433"
       xml:space="preserve"
       transform="matrix(2,0,0,-2,-192.04217,1833.9499)"
       id="g4632">
<path
   id="path4634"
   d="m 228.19,709.47 0,0.08 -0.01,0.07 0,0.07 0,0.06 -0.02,0.14 -0.01,0.12 -0.03,0.12 -0.02,0.11 -0.03,0.11 -0.04,0.1 -0.04,0.1 -0.04,0.09 -0.05,0.09 -0.05,0.08 -0.05,0.08 -0.05,0.07 -0.06,0.06 -0.06,0.06 -0.06,0.06 -0.06,0.05 -0.07,0.05 -0.07,0.05 -0.07,0.04 -0.06,0.03 -0.08,0.04 -0.07,0.02 -0.07,0.03 -0.07,0.02 -0.07,0.02 -0.07,0.01 -0.08,0.01 -0.07,0.01 -0.07,0 -0.07,0 c -1.36,0 -2.68,-1.42 -2.68,-2.82 0,-0.93 0.6,-1.68 1.62,-1.68 l 0.02,0.21 c -0.6,0 -0.9,0.45 -0.9,1.09 0,0.49 0.26,1.56 0.58,2.07 0.47,0.73 1,0.91 1.35,0.91 0.99,0 0.99,-1.3 0.99,-2.08 0,-0.36 0,-0.94 0.02,-1.11 h 0 c -0.88,-0.77 -1.65,-0.88 -2.04,-0.88 l -0.02,-0.21 c 0.62,0 1.34,0.22 2.1,0.83 0.13,-0.53 0.46,-0.83 0.91,-0.83 0.52,0 0.83,0.54 0.83,0.7 0,0.07 -0.06,0.1 -0.12,0.1 -0.07,0 -0.1,-0.03 -0.13,-0.1 -0.17,-0.49 -0.53,-0.49 -0.55,-0.49 -0.31,0 -0.31,0.78 -0.31,1.02 0,0.21 0,0.23 0.1,0.35 0.93,1.17 1.14,2.33 1.14,2.34 0,0.02 -0.01,0.1 -0.12,0.1 -0.1,0 -0.1,-0.03 -0.15,-0.21 -0.18,-0.63 -0.51,-1.39 -0.97,-1.97 z"
   inkscape:connector-curvature="0"
   style="fill:#000000;stroke-width:0" />
<path
   id="path4636"
   d="m 233.32,706.9 h -0.23 c -0.03,-0.16 -0.1,-0.57 -0.19,-0.64 -0.05,-0.04 -0.59,-0.04 -0.69,-0.04 h -1.28 c 0.73,0.65 0.98,0.84 1.4,1.17 0.51,0.41 0.99,0.84 0.99,1.5 0,0.84 -0.74,1.36 -1.63,1.36 -0.86,0 -1.45,-0.61 -1.45,-1.25 0,-0.35 0.3,-0.39 0.37,-0.39 0.17,0 0.37,0.12 0.37,0.37 0,0.13 -0.05,0.37 -0.41,0.37 0.22,0.49 0.69,0.65 1.02,0.65 0.69,0 1.06,-0.54 1.06,-1.11 0,-0.6 -0.44,-1.08 -0.66,-1.33 l -1.68,-1.66 c -0.07,-0.06 -0.07,-0.07 -0.07,-0.27 h 2.87 z"
   inkscape:connector-curvature="0"
   style="fill:#000000;stroke-width:0" />
<path
   id="path4638"
   d="m 235.25,705.74 0,-0.07 -0.01,-0.07 0,-0.08 -0.01,-0.08 -0.01,-0.03 0,-0.04 -0.01,-0.04 -0.01,-0.04 -0.01,-0.04 -0.01,-0.04 -0.01,-0.04 -0.02,-0.04 -0.01,-0.04 -0.02,-0.04 -0.02,-0.04 -0.02,-0.04 -0.02,-0.04 -0.02,-0.04 -0.03,-0.05 -0.02,-0.04 -0.03,-0.04 -0.03,-0.04 -0.03,-0.04 -0.04,-0.04 -0.04,-0.04 -0.03,-0.05 -0.04,-0.04 -0.05,-0.04 c -0.03,-0.03 -0.05,-0.05 -0.05,-0.08 0,-0.05 0.06,-0.1 0.1,-0.1 0.1,0 0.69,0.55 0.69,1.38 0,0.43 -0.17,0.76 -0.49,0.76 -0.23,0 -0.39,-0.18 -0.39,-0.4 0,-0.22 0.16,-0.4 0.4,-0.4 0.17,0 0.28,0.11 0.29,0.11 z"
   inkscape:connector-curvature="0"
   style="fill:#000000;stroke-width:0" />
<path
   id="path4640"
   d="m 238.48,710.05 0,0.01 0,0.01 0,0.01 0,0.01 0,0 0,0.01 0,0.01 0,0.01 -0.01,0 0,0.01 0,0 0,0.01 0,0.01 0,0 0,0.01 0,0 0,0.01 0,0 0,0.01 -0.01,0.01 0,0.01 0,0 -0.01,0.01 0,0.01 -0.01,0 0,0.01 -0.01,0 0,0 -0.01,0.01 -0.01,0 -0.01,0 -0.01,0 0,0 -0.01,0 0,0 -0.01,0.01 -0.01,0 0,0 -0.01,0 0,0 -0.01,0 -0.01,0 -0.01,0 0,0 -0.01,0 -0.01,0 -0.01,0 -0.01,0 0,0 -0.01,0 c -0.45,-0.44 -1.08,-0.45 -1.37,-0.45 v -0.25 c 0.17,0 0.63,0 1.01,0.2 v -3.55 c 0,-0.23 0,-0.32 -0.69,-0.32 h -0.27 v -0.25 c 0.13,0.01 0.98,0.03 1.24,0.03 0.22,0 1.09,-0.02 1.25,-0.03 v 0.25 h -0.27 c -0.69,0 -0.69,0.09 -0.69,0.32 z"
   inkscape:connector-curvature="0"
   style="fill:#000000;stroke-width:0" />
</g>    <g
       id="g4733"
       transform="matrix(2,0,0,-2,-168.86638,1754.2252)"
       xml:space="preserve"
       stroke-miterlimit="10.433"
       font-style="normal"
       font-variant="normal"
       font-weight="normal"
       font-stretch="normal"
       font-size-adjust="none"
       letter-spacing="normal"
       word-spacing="normal"
       ns0:text="$ \\alpha_{2,2} $"
       ns0:preamble=""
       style="font-style:normal;font-variant:normal;font-weight:normal;font-stretch:normal;letter-spacing:normal;word-spacing:normal;text-anchor:start;fill:none;stroke:#000000;stroke-linecap:butt;stroke-linejoin:miter;stroke-miterlimit:10.43299961;stroke-opacity:1;stroke-dasharray:none;stroke-dashoffset:0">
<path
   style="fill:#000000;stroke-width:0"
   inkscape:connector-curvature="0"
   d="m 228.19,709.47 0,0.08 -0.01,0.07 0,0.07 0,0.06 -0.02,0.14 -0.01,0.12 -0.03,0.12 -0.02,0.11 -0.03,0.11 -0.04,0.1 -0.04,0.1 -0.04,0.09 -0.05,0.09 -0.05,0.08 -0.05,0.08 -0.05,0.07 -0.06,0.06 -0.06,0.06 -0.06,0.06 -0.06,0.05 -0.07,0.05 -0.07,0.05 -0.07,0.04 -0.06,0.03 -0.08,0.04 -0.07,0.02 -0.07,0.03 -0.07,0.02 -0.07,0.02 -0.07,0.01 -0.08,0.01 -0.07,0.01 -0.07,0 -0.07,0 c -1.36,0 -2.68,-1.42 -2.68,-2.82 0,-0.93 0.6,-1.68 1.62,-1.68 l 0.02,0.21 c -0.6,0 -0.9,0.45 -0.9,1.09 0,0.49 0.26,1.56 0.58,2.07 0.47,0.73 1,0.91 1.35,0.91 0.99,0 0.99,-1.3 0.99,-2.08 0,-0.36 0,-0.94 0.02,-1.11 h 0 c -0.88,-0.77 -1.65,-0.88 -2.04,-0.88 l -0.02,-0.21 c 0.62,0 1.34,0.22 2.1,0.83 0.13,-0.53 0.46,-0.83 0.91,-0.83 0.52,0 0.83,0.54 0.83,0.7 0,0.07 -0.06,0.1 -0.12,0.1 -0.07,0 -0.1,-0.03 -0.13,-0.1 -0.17,-0.49 -0.53,-0.49 -0.55,-0.49 -0.31,0 -0.31,0.78 -0.31,1.02 0,0.21 0,0.23 0.1,0.35 0.93,1.17 1.14,2.33 1.14,2.34 0,0.02 -0.01,0.1 -0.12,0.1 -0.1,0 -0.1,-0.03 -0.15,-0.21 -0.18,-0.63 -0.51,-1.39 -0.97,-1.97 z"
   id="path4735" />
<path
   style="fill:#000000;stroke-width:0"
   inkscape:connector-curvature="0"
   d="m 233.32,706.9 h -0.23 c -0.03,-0.16 -0.1,-0.57 -0.19,-0.64 -0.05,-0.04 -0.59,-0.04 -0.69,-0.04 h -1.28 c 0.73,0.65 0.98,0.84 1.4,1.17 0.51,0.41 0.99,0.84 0.99,1.5 0,0.84 -0.74,1.36 -1.63,1.36 -0.86,0 -1.45,-0.61 -1.45,-1.25 0,-0.35 0.3,-0.39 0.37,-0.39 0.17,0 0.37,0.12 0.37,0.37 0,0.13 -0.05,0.37 -0.41,0.37 0.22,0.49 0.69,0.65 1.02,0.65 0.69,0 1.06,-0.54 1.06,-1.11 0,-0.6 -0.44,-1.08 -0.66,-1.33 l -1.68,-1.66 c -0.07,-0.06 -0.07,-0.07 -0.07,-0.27 h 2.87 z"
   id="path4737" />
<path
   style="fill:#000000;stroke-width:0"
   inkscape:connector-curvature="0"
   d="m 235.25,705.74 0,-0.07 -0.01,-0.07 0,-0.08 -0.01,-0.08 -0.01,-0.03 0,-0.04 -0.01,-0.04 -0.01,-0.04 -0.01,-0.04 -0.01,-0.04 -0.01,-0.04 -0.02,-0.04 -0.01,-0.04 -0.02,-0.04 -0.02,-0.04 -0.02,-0.04 -0.02,-0.04 -0.02,-0.04 -0.03,-0.05 -0.02,-0.04 -0.03,-0.04 -0.03,-0.04 -0.03,-0.04 -0.04,-0.04 -0.04,-0.04 -0.03,-0.05 -0.04,-0.04 -0.05,-0.04 c -0.03,-0.03 -0.05,-0.05 -0.05,-0.08 0,-0.05 0.06,-0.1 0.1,-0.1 0.1,0 0.69,0.55 0.69,1.38 0,0.43 -0.17,0.76 -0.49,0.76 -0.23,0 -0.39,-0.18 -0.39,-0.4 0,-0.22 0.16,-0.4 0.4,-0.4 0.17,0 0.28,0.11 0.29,0.11 z"
   id="path4739" />
<path
   style="fill:#000000;stroke-width:0"
   inkscape:connector-curvature="0"
   d="m 239.66,706.9 h -0.24 c -0.02,-0.16 -0.09,-0.57 -0.18,-0.64 -0.05,-0.04 -0.59,-0.04 -0.69,-0.04 h -1.28 c 0.73,0.65 0.98,0.84 1.39,1.17 0.52,0.41 1,0.84 1,1.5 0,0.84 -0.74,1.36 -1.63,1.36 -0.86,0 -1.45,-0.61 -1.45,-1.25 0,-0.35 0.3,-0.39 0.37,-0.39 0.17,0 0.37,0.12 0.37,0.37 0,0.13 -0.05,0.37 -0.41,0.37 0.22,0.49 0.69,0.65 1.02,0.65 0.69,0 1.05,-0.54 1.05,-1.11 0,-0.6 -0.43,-1.08 -0.65,-1.33 l -1.68,-1.66 c -0.07,-0.06 -0.07,-0.07 -0.07,-0.27 h 2.87 z"
   id="path4741" />
</g>    <g
       style="font-style:normal;font-variant:normal;font-weight:normal;font-stretch:normal;letter-spacing:normal;word-spacing:normal;text-anchor:start;fill:none;stroke:#000000;stroke-linecap:butt;stroke-linejoin:miter;stroke-miterlimit:10.43299961;stroke-opacity:1;stroke-dasharray:none;stroke-dashoffset:0"
       ns0:preamble=""
       ns0:text="$ \\alpha_{1,2} $"
       word-spacing="normal"
       letter-spacing="normal"
       font-size-adjust="none"
       font-stretch="normal"
       font-weight="normal"
       font-variant="normal"
       font-style="normal"
       stroke-miterlimit="10.433"
       xml:space="preserve"
       transform="matrix(2,0,0,-2,-167.01231,1971.1508)"
       id="g4838">
<path
   id="path4840"
   d="m 228.19,709.47 0,0.08 -0.01,0.07 0,0.07 0,0.06 -0.02,0.14 -0.01,0.12 -0.03,0.12 -0.02,0.11 -0.03,0.11 -0.04,0.1 -0.04,0.1 -0.04,0.09 -0.05,0.09 -0.05,0.08 -0.05,0.08 -0.05,0.07 -0.06,0.06 -0.06,0.06 -0.06,0.06 -0.06,0.05 -0.07,0.05 -0.07,0.05 -0.07,0.04 -0.06,0.03 -0.08,0.04 -0.07,0.02 -0.07,0.03 -0.07,0.02 -0.07,0.02 -0.07,0.01 -0.08,0.01 -0.07,0.01 -0.07,0 -0.07,0 c -1.36,0 -2.68,-1.42 -2.68,-2.82 0,-0.93 0.6,-1.68 1.62,-1.68 l 0.02,0.21 c -0.6,0 -0.9,0.45 -0.9,1.09 0,0.49 0.26,1.56 0.58,2.07 0.47,0.73 1,0.91 1.35,0.91 0.99,0 0.99,-1.3 0.99,-2.08 0,-0.36 0,-0.94 0.02,-1.11 h 0 c -0.88,-0.77 -1.65,-0.88 -2.04,-0.88 l -0.02,-0.21 c 0.62,0 1.34,0.22 2.1,0.83 0.13,-0.53 0.46,-0.83 0.91,-0.83 0.52,0 0.83,0.54 0.83,0.7 0,0.07 -0.06,0.1 -0.12,0.1 -0.07,0 -0.1,-0.03 -0.13,-0.1 -0.17,-0.49 -0.53,-0.49 -0.55,-0.49 -0.31,0 -0.31,0.78 -0.31,1.02 0,0.21 0,0.23 0.1,0.35 0.93,1.17 1.14,2.33 1.14,2.34 0,0.02 -0.01,0.1 -0.12,0.1 -0.1,0 -0.1,-0.03 -0.15,-0.21 -0.18,-0.63 -0.51,-1.39 -0.97,-1.97 z"
   inkscape:connector-curvature="0"
   style="fill:#000000;stroke-width:0" />
<path
   id="path4842"
   d="m 232.14,710.05 0,0.01 0,0.01 0,0.01 0,0.01 0,0 0,0.01 0,0.01 0,0.01 0,0 0,0.01 0,0 0,0.01 -0.01,0.01 0,0 0,0.01 0,0 0,0.01 0,0 0,0.01 0,0.01 -0.01,0.01 0,0 0,0.01 -0.01,0.01 0,0 -0.01,0.01 -0.01,0 0,0 -0.01,0.01 -0.01,0 -0.01,0 -0.01,0 0,0 -0.01,0 0,0 -0.01,0.01 0,0 -0.01,0 -0.01,0 0,0 -0.01,0 -0.01,0 0,0 -0.01,0 -0.01,0 -0.01,0 0,0 -0.01,0 -0.01,0 -0.01,0 c -0.45,-0.44 -1.08,-0.45 -1.37,-0.45 v -0.25 c 0.17,0 0.63,0 1.01,0.2 v -3.55 c 0,-0.23 0,-0.32 -0.69,-0.32 h -0.27 v -0.25 c 0.13,0.01 0.99,0.03 1.24,0.03 0.22,0 1.1,-0.02 1.25,-0.03 v 0.25 h -0.26 c -0.7,0 -0.7,0.09 -0.7,0.32 z"
   inkscape:connector-curvature="0"
   style="fill:#000000;stroke-width:0" />
<path
   id="path4844"
   d="m 235.25,705.74 0,-0.07 -0.01,-0.07 0,-0.08 -0.01,-0.08 -0.01,-0.03 0,-0.04 -0.01,-0.04 -0.01,-0.04 -0.01,-0.04 -0.01,-0.04 -0.01,-0.04 -0.02,-0.04 -0.01,-0.04 -0.02,-0.04 -0.02,-0.04 -0.02,-0.04 -0.02,-0.04 -0.02,-0.04 -0.03,-0.05 -0.02,-0.04 -0.03,-0.04 -0.03,-0.04 -0.03,-0.04 -0.04,-0.04 -0.04,-0.04 -0.03,-0.05 -0.04,-0.04 -0.05,-0.04 c -0.03,-0.03 -0.05,-0.05 -0.05,-0.08 0,-0.05 0.06,-0.1 0.1,-0.1 0.1,0 0.69,0.55 0.69,1.38 0,0.43 -0.17,0.76 -0.49,0.76 -0.23,0 -0.39,-0.18 -0.39,-0.4 0,-0.22 0.16,-0.4 0.4,-0.4 0.17,0 0.28,0.11 0.29,0.11 z"
   inkscape:connector-curvature="0"
   style="fill:#000000;stroke-width:0" />
<path
   id="path4846"
   d="m 239.66,706.9 h -0.24 c -0.02,-0.16 -0.09,-0.57 -0.18,-0.64 -0.05,-0.04 -0.59,-0.04 -0.69,-0.04 h -1.28 c 0.73,0.65 0.98,0.84 1.39,1.17 0.52,0.41 1,0.84 1,1.5 0,0.84 -0.74,1.36 -1.63,1.36 -0.86,0 -1.45,-0.61 -1.45,-1.25 0,-0.35 0.3,-0.39 0.37,-0.39 0.17,0 0.37,0.12 0.37,0.37 0,0.13 -0.05,0.37 -0.41,0.37 0.22,0.49 0.69,0.65 1.02,0.65 0.69,0 1.05,-0.54 1.05,-1.11 0,-0.6 -0.43,-1.08 -0.65,-1.33 l -1.68,-1.66 c -0.07,-0.06 -0.07,-0.07 -0.07,-0.27 h 2.87 z"
   inkscape:connector-curvature="0"
   style="fill:#000000;stroke-width:0" />
</g>    <rect
       style="fill:#167f93;fill-opacity:1;fill-rule:evenodd;stroke:none"
       id="rect4902"
       width="7.0976896"
       height="7.0976896"
       x="234.99799"
       y="532.3905" />
    <rect
       style="fill:#bc00ff;fill-opacity:1;fill-rule:evenodd;stroke:none"
       id="rect4902-3"
       width="7.0976896"
       height="7.0976896"
       x="152.70023"
       y="552.57709" />
    <g
       id="g3304"
       transform="matrix(2,0,0,-2,-258.82523,1894.0652)"
       xml:space="preserve"
       stroke="black"
       stroke-linecap="butt"
       stroke-linejoin="miter"
       stroke-miterlimit="10.433"
       stroke-dasharray="none"
       stroke-dashoffset="0"
       stroke-opacity="1"
       fill="none"
       fill-rule="evenodd"
       fill-opacity="1"
       font-style="normal"
       font-variant="normal"
       font-weight="normal"
       font-stretch="normal"
       font-size-adjust="none"
       letter-spacing="normal"
       word-spacing="normal"
       text-anchor="start"
       ns0:text="$ \\alpha_{2,0} $"
       ns0:preamble=""
       style="font-style:normal;font-variant:normal;font-weight:normal;font-stretch:normal;letter-spacing:normal;word-spacing:normal;text-anchor:start;fill:none;stroke:#000000;stroke-linecap:butt;stroke-linejoin:miter;stroke-miterlimit:10.43299961;stroke-opacity:1;stroke-dasharray:none;stroke-dashoffset:0">
<path
   d="M228.18,709.47 L228.18,709.54 L228.18,709.61 L228.17,709.68 L228.17,709.75 L228.15,709.88 L228.14,710 L228.11,710.12 L228.09,710.24 L228.06,710.34 L228.02,710.45 L227.98,710.54 L227.94,710.64 L227.9,710.72 L227.85,710.8 L227.79,710.88 L227.74,710.95 L227.68,711.02 L227.62,711.08 L227.56,711.13 L227.5,711.19 L227.43,711.24 L227.37,711.28 L227.3,711.32 L227.23,711.36 L227.16,711.39 L227.09,711.42 L227.01,711.44 L226.94,711.46 L226.87,711.48 L226.8,711.49 L226.73,711.5 L226.66,711.51 L226.59,711.51 L226.52,711.52 C225.15,711.52,223.84,710.09,223.84,708.69 C223.84,707.77,224.44,707.02,225.45,707.02 L225.47,707.23 C224.88,707.23,224.58,707.68,224.58,708.32 C224.58,708.8,224.84,709.88,225.15,710.38 C225.62,711.11,226.16,711.3,226.51,711.3 C227.49,711.3,227.49,710,227.49,709.22 C227.49,708.85,227.49,708.28,227.51,708.11 H227.51 C226.64,707.34,225.87,707.23,225.47,707.23 L225.45,707.02 C226.08,707.02,226.79,707.24,227.55,707.85 C227.68,707.32,228.01,707.02,228.46,707.02 C228.98,707.02,229.29,707.56,229.29,707.72 C229.29,707.79,229.23,707.82,229.17,707.82 C229.1,707.82,229.07,707.79,229.04,707.72 C228.86,707.23,228.51,707.23,228.49,707.23 C228.18,707.23,228.18,708.01,228.18,708.25 C228.18,708.46,228.18,708.48,228.28,708.59 C229.21,709.77,229.42,710.92,229.42,710.93 C229.42,710.95,229.41,711.03,229.3,711.03 C229.2,711.03,229.2,711,229.15,710.82 C228.97,710.2,228.65,709.44,228.18,708.85 Z "
   stroke-width="0"
   fill="black"
   id="path3306" />
<path
   d="M233.32,706.9 H233.09 C233.06,706.74,232.99,706.33,232.9,706.26 C232.85,706.22,232.31,706.22,232.21,706.22 H230.93 C231.66,706.87,231.91,707.06,232.33,707.39 C232.84,707.8,233.32,708.23,233.32,708.89 C233.32,709.73,232.58,710.25,231.69,710.25 C230.83,710.25,230.24,709.64,230.24,709 C230.24,708.65,230.54,708.61,230.61,708.61 C230.78,708.61,230.98,708.73,230.98,708.98 C230.98,709.11,230.93,709.35,230.57,709.35 C230.79,709.84,231.26,710,231.59,710 C232.28,710,232.65,709.46,232.65,708.89 C232.65,708.29,232.21,707.81,231.99,707.56 L230.31,705.9 C230.24,705.84,230.24,705.83,230.24,705.63 H233.11 Z "
   stroke-width="0"
   fill="black"
   id="path3308" />
<path
   d="M235.25,705.74 L235.25,705.67 L235.24,705.6 L235.24,705.52 L235.23,705.44 L235.22,705.41 L235.22,705.37 L235.21,705.33 L235.2,705.29 L235.19,705.25 L235.18,705.21 L235.17,705.17 L235.15,705.13 L235.14,705.09 L235.12,705.05 L235.1,705.01 L235.08,704.97 L235.06,704.93 L235.04,704.89 L235.01,704.84 L234.99,704.8 L234.96,704.76 L234.93,704.72 L234.9,704.68 L234.86,704.64 L234.82,704.6 L234.79,704.55 L234.75,704.51 L234.7,704.47 C234.67,704.44,234.65,704.42,234.65,704.39 C234.65,704.34,234.71,704.29,234.75,704.29 C234.85,704.29,235.44,704.84,235.44,705.67 C235.44,706.1,235.27,706.43,234.95,706.43 C234.72,706.43,234.56,706.25,234.56,706.03 C234.56,705.81,234.72,705.63,234.96,705.63 C235.13,705.63,235.24,705.74,235.25,705.74 Z "
   stroke-width="0"
   fill="black"
   id="path3310" />
<path
   d="M239.74,707.85 L239.74,707.99 L239.73,708.13 L239.73,708.26 L239.72,708.38 L239.71,708.51 L239.69,708.63 L239.67,708.74 L239.65,708.85 L239.63,708.96 L239.6,709.07 L239.56,709.17 L239.53,709.27 L239.48,709.37 L239.44,709.46 L239.38,709.56 L239.36,709.6 L239.33,709.65 C239.11,709.97,238.68,710.25,238.12,710.25 V710.05 C238.5,710.05,238.86,709.82,238.98,709.42 C239.1,709.04,239.1,708.54,239.1,707.94 C239.1,707.42,239.1,706.91,239.01,706.47 C238.87,705.84,238.4,705.69,238.12,705.69 H238.12 C237.8,705.69,237.38,705.87,237.24,706.45 C237.14,706.85,237.14,707.42,237.14,707.94 C237.14,708.45,237.14,708.98,237.24,709.36 C237.39,709.91,237.84,710.05,238.12,710.05 V710.25 C236.51,710.25,236.51,708.35,236.51,707.85 C236.51,707.35,236.51,705.49,238.12,705.49 C239.74,705.49,239.74,707.35,239.74,707.85 Z "
   stroke-width="0"
   fill="black"
   id="path3312" />
</g>    <g
       style="font-style:normal;font-variant:normal;font-weight:normal;font-stretch:normal;letter-spacing:normal;word-spacing:normal;text-anchor:start;fill:none;stroke:#000000;stroke-linecap:butt;stroke-linejoin:miter;stroke-miterlimit:10.43299961;stroke-opacity:1;stroke-dasharray:none;stroke-dashoffset:0"
       ns0:preamble=""
       ns0:text="$ \\alpha_{1,0} $"
       text-anchor="start"
       word-spacing="normal"
       letter-spacing="normal"
       font-size-adjust="none"
       font-stretch="normal"
       font-weight="normal"
       font-variant="normal"
       font-style="normal"
       fill-opacity="1"
       fill-rule="evenodd"
       fill="none"
       stroke-opacity="1"
       stroke-dashoffset="0"
       stroke-dasharray="none"
       stroke-miterlimit="10.433"
       stroke-linejoin="miter"
       stroke-linecap="butt"
       stroke="black"
       xml:space="preserve"
       transform="matrix(2,0,0,-2,-191.15186,1886.6489)"
       id="g3437">
<path
   id="path3439"
   fill="black"
   stroke-width="0"
   d="M228.18,709.47 L228.18,709.54 L228.18,709.61 L228.17,709.68 L228.17,709.75 L228.15,709.88 L228.14,710 L228.11,710.12 L228.09,710.24 L228.06,710.34 L228.02,710.45 L227.98,710.54 L227.94,710.64 L227.9,710.72 L227.85,710.8 L227.79,710.88 L227.74,710.95 L227.68,711.02 L227.62,711.08 L227.56,711.13 L227.5,711.19 L227.43,711.24 L227.37,711.28 L227.3,711.32 L227.23,711.36 L227.16,711.39 L227.09,711.42 L227.01,711.44 L226.94,711.46 L226.87,711.48 L226.8,711.49 L226.73,711.5 L226.66,711.51 L226.59,711.51 L226.52,711.52 C225.15,711.52,223.84,710.09,223.84,708.69 C223.84,707.77,224.44,707.02,225.45,707.02 L225.47,707.23 C224.88,707.23,224.58,707.68,224.58,708.32 C224.58,708.8,224.84,709.88,225.15,710.38 C225.62,711.11,226.16,711.3,226.51,711.3 C227.49,711.3,227.49,710,227.49,709.22 C227.49,708.85,227.49,708.28,227.51,708.11 H227.51 C226.64,707.34,225.87,707.23,225.47,707.23 L225.45,707.02 C226.08,707.02,226.79,707.24,227.55,707.85 C227.68,707.32,228.01,707.02,228.46,707.02 C228.98,707.02,229.29,707.56,229.29,707.72 C229.29,707.79,229.23,707.82,229.17,707.82 C229.1,707.82,229.07,707.79,229.04,707.72 C228.86,707.23,228.51,707.23,228.49,707.23 C228.18,707.23,228.18,708.01,228.18,708.25 C228.18,708.46,228.18,708.48,228.28,708.59 C229.21,709.77,229.42,710.92,229.42,710.93 C229.42,710.95,229.41,711.03,229.3,711.03 C229.2,711.03,229.2,711,229.15,710.82 C228.97,710.2,228.65,709.44,228.18,708.85 Z " />
<path
   id="path3441"
   fill="black"
   stroke-width="0"
   d="M232.14,710.05 L232.14,710.06 L232.14,710.07 L232.14,710.08 L232.14,710.09 L232.14,710.09 L232.14,710.1 L232.14,710.11 L232.14,710.12 L232.14,710.12 L232.14,710.13 L232.14,710.14 L232.14,710.14 L232.13,710.15 L232.13,710.15 L232.13,710.16 L232.13,710.16 L232.13,710.17 L232.13,710.17 L232.13,710.18 L232.13,710.19 L232.12,710.2 L232.12,710.2 L232.12,710.21 L232.11,710.22 L232.11,710.22 L232.1,710.23 L232.09,710.23 L232.09,710.23 L232.08,710.24 L232.07,710.24 L232.06,710.24 L232.05,710.24 L232.05,710.24 L232.04,710.24 L232.04,710.24 L232.03,710.25 L232.03,710.25 L232.02,710.25 L232.01,710.25 L232.01,710.25 L232,710.25 L231.99,710.25 L231.99,710.25 L231.98,710.25 L231.97,710.25 L231.96,710.25 L231.96,710.25 L231.95,710.25 L231.94,710.25 L231.93,710.25 C231.48,709.81,230.85,709.8,230.56,709.8 V709.55 C230.73,709.55,231.19,709.55,231.57,709.75 V706.2 C231.57,705.97,231.57,705.88,230.88,705.88 H230.61 V705.63 C230.74,705.64,231.6,705.66,231.85,705.66 C232.07,705.66,232.95,705.64,233.1,705.63 V705.88 H232.84 C232.14,705.88,232.14,705.97,232.14,706.2 Z " />
<path
   id="path3443"
   fill="black"
   stroke-width="0"
   d="M235.25,705.74 L235.25,705.67 L235.24,705.6 L235.24,705.52 L235.23,705.44 L235.22,705.41 L235.22,705.37 L235.21,705.33 L235.2,705.29 L235.19,705.25 L235.18,705.21 L235.17,705.17 L235.15,705.13 L235.14,705.09 L235.12,705.05 L235.1,705.01 L235.08,704.97 L235.06,704.93 L235.04,704.89 L235.01,704.84 L234.99,704.8 L234.96,704.76 L234.93,704.72 L234.9,704.68 L234.86,704.64 L234.82,704.6 L234.79,704.55 L234.75,704.51 L234.7,704.47 C234.67,704.44,234.65,704.42,234.65,704.39 C234.65,704.34,234.71,704.29,234.75,704.29 C234.85,704.29,235.44,704.84,235.44,705.67 C235.44,706.1,235.27,706.43,234.95,706.43 C234.72,706.43,234.56,706.25,234.56,706.03 C234.56,705.81,234.72,705.63,234.96,705.63 C235.13,705.63,235.24,705.74,235.25,705.74 Z " />
<path
   id="path3445"
   fill="black"
   stroke-width="0"
   d="M239.74,707.85 L239.74,707.99 L239.73,708.13 L239.73,708.26 L239.72,708.38 L239.71,708.51 L239.69,708.63 L239.67,708.74 L239.65,708.85 L239.63,708.96 L239.6,709.07 L239.56,709.17 L239.53,709.27 L239.48,709.37 L239.44,709.46 L239.38,709.56 L239.36,709.6 L239.33,709.65 C239.11,709.97,238.68,710.25,238.12,710.25 V710.05 C238.5,710.05,238.86,709.82,238.98,709.42 C239.1,709.04,239.1,708.54,239.1,707.94 C239.1,707.42,239.1,706.91,239.01,706.47 C238.87,705.84,238.4,705.69,238.12,705.69 H238.12 C237.8,705.69,237.38,705.87,237.24,706.45 C237.14,706.85,237.14,707.42,237.14,707.94 C237.14,708.45,237.14,708.98,237.24,709.36 C237.39,709.91,237.84,710.05,238.12,710.05 V710.25 C236.51,710.25,236.51,708.35,236.51,707.85 C236.51,707.35,236.51,705.49,238.12,705.49 C239.74,705.49,239.74,707.35,239.74,707.85 Z " />
</g>  </g>
</svg>
