<?xml version="1.0" encoding="UTF-8" standalone="no"?>
<!-- Created with Inkscape (http://www.inkscape.org/) -->

<svg
   xmlns:ns0="http://www.iki.fi/pav/software/textext/"
   xmlns:dc="http://purl.org/dc/elements/1.1/"
   xmlns:cc="http://creativecommons.org/ns#"
   xmlns:rdf="http://www.w3.org/1999/02/22-rdf-syntax-ns#"
   xmlns:svg="http://www.w3.org/2000/svg"
   xmlns="http://www.w3.org/2000/svg"
   xmlns:sodipodi="http://sodipodi.sourceforge.net/DTD/sodipodi-0.dtd"
   xmlns:inkscape="http://www.inkscape.org/namespaces/inkscape"
   width="1160.4375"
   height="449"
   id="svg2"
   version="1.1"
   inkscape:version="0.48.3.1 r9886"
   sodipodi:docname="submodular.svg">
  <sodipodi:namedview
     id="base"
     pagecolor="#ffffff"
     bordercolor="#666666"
     borderopacity="1.0"
     inkscape:pageopacity="0.0"
     inkscape:pageshadow="2"
     inkscape:zoom="0.35"
     inkscape:cx="468.08036"
     inkscape:cy="50.227103"
     inkscape:document-units="px"
     inkscape:current-layer="layer1"
     showgrid="false"
     inkscape:window-width="1215"
     inkscape:window-height="1000"
     inkscape:window-x="65"
     inkscape:window-y="24"
     inkscape:window-maximized="1"
     fit-margin-top="0"
     fit-margin-left="0"
     fit-margin-right="0"
     fit-margin-bottom="0">
    <inkscape:grid
       type="xygrid"
       id="grid3783"
       empspacing="5"
       visible="true"
       enabled="true"
       snapvisiblegridlinesonly="true"
       originx="595.9375px"
       originy="-355.48718px" />
  </sodipodi:namedview>
  <defs
     id="defs4" />
  <metadata
     id="metadata7">
    <rdf:RDF>
      <cc:Work
         rdf:about="">
        <dc:format>image/svg+xml</dc:format>
        <dc:type
           rdf:resource="http://purl.org/dc/dcmitype/StillImage" />
        <dc:title />
      </cc:Work>
    </rdf:RDF>
  </metadata>
  <g
     id="layer1"
     inkscape:groupmode="layer"
     inkscape:label="Layer 1"
     transform="translate(595.9375,-247.875)">
    <path
       style="fill:#fff56a;fill-opacity:1;stroke:#000000;stroke-width:9;stroke-linecap:butt;stroke-linejoin:miter;stroke-miterlimit:4;stroke-opacity:1;stroke-dasharray:none"
       d="m 120,252.36218 0,280 280,0 0,-280 z"
       id="path3785"
       inkscape:connector-curvature="0" />
    <path
       style="fill:#95fb81;fill-opacity:1;stroke:#000000;stroke-width:9;stroke-linecap:butt;stroke-linejoin:miter;stroke-miterlimit:4;stroke-opacity:1;stroke-dasharray:none"
       d="m 280,532.36218 0,160 280,0 0,-280 -160,0 0,120 z"
       id="path3787"
       inkscape:connector-curvature="0" />
    <path
       style="fill:#fff56a;fill-opacity:1;stroke:#000000;stroke-width:9;stroke-linecap:butt;stroke-linejoin:miter;stroke-miterlimit:4;stroke-opacity:1;stroke-dasharray:none"
       d="m -591.42857,375.21932 0,280 280,0 0,-280 z"
       id="path3785-4"
       inkscape:connector-curvature="0" />
    <path
       style="fill:#95fb81;fill-opacity:1;stroke:#000000;stroke-width:9;stroke-linecap:butt;stroke-linejoin:miter;stroke-miterlimit:4;stroke-opacity:1;stroke-dasharray:none"
       d="m -271.42857,375.21932 0,280 279.9999986,0 0,-280 z"
       id="path3785-9"
       inkscape:connector-curvature="0" />
    <path
       style="fill:none;stroke:#000000;stroke-width:9;stroke-linecap:butt;stroke-linejoin:miter;stroke-miterlimit:4;stroke-opacity:1;stroke-dasharray:18, 9;stroke-dashoffset:0"
       d="m 280,532.36218 0,-120 120,0"
       id="path3814"
       inkscape:connector-curvature="0" />
    <g
       style="font-style:normal;font-variant:normal;font-weight:normal;font-stretch:normal;letter-spacing:normal;word-spacing:normal;text-anchor:start;fill:none;stroke:#000000;stroke-linecap:butt;stroke-linejoin:miter;stroke-miterlimit:10.43299961;stroke-opacity:1;stroke-dasharray:none;stroke-dashoffset:0"
       ns0:preamble=""
       ns0:text="$ \\mathbf{f(A)} $"
       word-spacing="normal"
       letter-spacing="normal"
       font-size-adjust="none"
       font-stretch="normal"
       font-weight="normal"
       font-variant="normal"
       font-style="normal"
       stroke-miterlimit="10.433"
       xml:space="preserve"
       transform="matrix(6.1287028,0,0,-6.1287028,-1879.1887,4563.3208)"
       id="content">
<path
   id="path3862"
   d="m 224.6,661.65 h -0.75 v -0.47 h 0.75 v -3.48 h -0.69 v -0.47 c 0.35,0.01 0.8,0.04 1.25,0.04 0.38,0 1.02,0 1.38,-0.04 v 0.47 h -0.87 v 3.48 h 1.15 v 0.47 h -1.21 v 1 c 0,1.09 0.76,1.18 1.01,1.18 0.04,0 0.09,0 0.17,-0.02 -0.15,-0.11 -0.23,-0.3 -0.23,-0.49 0,-0.42 0.34,-0.61 0.6,-0.61 0.3,0 0.62,0.21 0.62,0.61 0,0.42 -0.36,0.87 -1.13,0.87 -0.98,0 -2.05,-0.42 -2.05,-1.54 z"
   inkscape:connector-curvature="0"
   style="fill:#000000;stroke-width:0" />
<path
   id="path3864"
   d="m 231.31,654.85 0,0.01 0,0 0,0 0,0.01 0,0 0,0 0,0.01 0,0 0,0 -0.01,0.01 0,0 0,0.01 -0.01,0 0,0.01 0,0 -0.01,0.01 0,0.01 -0.01,0 0,0.01 -0.01,0 0,0.01 0,0 -0.01,0 0,0.01 0,0 -0.01,0.01 0,0 -0.01,0.01 0,0 -0.01,0.01 0,0 -0.01,0.01 -0.01,0.01 0,0 -0.01,0.01 0,0.01 -0.01,0 -0.01,0.01 0,0.01 -0.01,0 -0.01,0.01 -0.01,0.01 c -1.24,1.25 -1.56,3.13 -1.56,4.65 0,1.73 0.38,3.45 1.6,4.7 0.13,0.12 0.13,0.14 0.13,0.17 0,0.07 -0.04,0.09 -0.1,0.09 -0.1,0 -0.99,-0.67 -1.58,-1.93 -0.51,-1.09 -0.63,-2.2 -0.63,-3.03 0,-0.78 0.11,-1.98 0.66,-3.1 0.6,-1.22 1.45,-1.87 1.55,-1.87 0.06,0 0.1,0.03 0.1,0.1 z"
   inkscape:connector-curvature="0"
   style="fill:#000000;stroke-width:0" />
<path
   id="path3866"
   d="m 236.61,663.91 -0.01,0.01 0,0.01 -0.01,0.02 0,0.01 -0.01,0.02 -0.01,0.02 -0.01,0.01 -0.01,0.02 -0.01,0.02 -0.02,0.01 -0.01,0.01 -0.01,0.02 -0.01,0.01 -0.01,0.01 -0.01,0.01 -0.01,0 -0.02,0.01 -0.01,0.01 -0.01,0 -0.01,0.01 -0.01,0 -0.02,0.01 -0.01,0 -0.01,0 -0.02,0 -0.01,0 -0.01,0.01 -0.02,0 -0.01,0 -0.02,0 -0.03,0 -0.03,0 c -0.28,0 -0.32,-0.08 -0.39,-0.26 l -2.46,-5.98 c -0.06,-0.15 -0.09,-0.23 -0.85,-0.23 h -0.21 v -0.47 c 0.38,0.01 0.86,0.04 1.16,0.04 0.39,0 0.95,0 1.32,-0.04 v 0.47 c -0.02,0 -0.89,0 -0.89,0.13 0,0.01 0.03,0.11 0.04,0.12 l 0.5,1.2 h 2.67 l -0.2,0.47 h -2.27 l 1.13,2.76 1.14,-2.76 0.2,-0.47 0.59,-1.45 h -0.94 v -0.47 c 0.38,0.04 1.32,0.04 1.75,0.04 0.4,0 1.27,0 1.62,-0.04 v 0.47 h -0.96 z"
   inkscape:connector-curvature="0"
   style="fill:#000000;stroke-width:0" />
<path
   id="path3868"
   d="m 243.43,659.72 0,0.07 0,0.08 0,0.08 -0.01,0.08 0,0.17 -0.02,0.17 -0.01,0.18 -0.02,0.19 -0.03,0.2 -0.03,0.2 -0.04,0.2 -0.05,0.21 -0.05,0.21 -0.06,0.21 -0.07,0.21 -0.08,0.21 -0.04,0.11 -0.05,0.11 -0.05,0.1 -0.05,0.11 c -0.59,1.22 -1.45,1.86 -1.55,1.86 -0.06,0 -0.1,-0.03 -0.1,-0.09 0,-0.03 0,-0.05 0.19,-0.23 0.98,-0.99 1.54,-2.57 1.54,-4.64 0,-1.7 -0.36,-3.45 -1.6,-4.7 -0.13,-0.12 -0.13,-0.14 -0.13,-0.17 0,-0.06 0.04,-0.1 0.1,-0.1 0.1,0 1,0.68 1.58,1.94 0.51,1.09 0.63,2.19 0.63,3.03 z"
   inkscape:connector-curvature="0"
   style="fill:#000000;stroke-width:0" />
</g>    <g
       id="g3930"
       transform="matrix(6.1287028,0,0,-6.1287028,-1566.1958,4558.4164)"
       xml:space="preserve"
       stroke-miterlimit="10.433"
       font-style="normal"
       font-variant="normal"
       font-weight="normal"
       font-stretch="normal"
       font-size-adjust="none"
       letter-spacing="normal"
       word-spacing="normal"
       ns0:text="$ \\mathbf{f(B)} $"
       ns0:preamble=""
       style="font-style:normal;font-variant:normal;font-weight:normal;font-stretch:normal;letter-spacing:normal;word-spacing:normal;text-anchor:start;fill:none;stroke:#000000;stroke-linecap:butt;stroke-linejoin:miter;stroke-miterlimit:10.43299961;stroke-opacity:1;stroke-dasharray:none;stroke-dashoffset:0">
<path
   style="fill:#000000;stroke-width:0"
   inkscape:connector-curvature="0"
   d="m 224.6,661.65 h -0.75 v -0.47 h 0.75 v -3.48 h -0.69 v -0.47 c 0.35,0.01 0.8,0.04 1.25,0.04 0.38,0 1.02,0 1.38,-0.04 v 0.47 h -0.87 v 3.48 h 1.15 v 0.47 h -1.21 v 1 c 0,1.09 0.76,1.18 1.01,1.18 0.04,0 0.09,0 0.17,-0.02 -0.15,-0.11 -0.23,-0.3 -0.23,-0.49 0,-0.42 0.34,-0.61 0.6,-0.61 0.3,0 0.62,0.21 0.62,0.61 0,0.42 -0.36,0.87 -1.13,0.87 -0.98,0 -2.05,-0.42 -2.05,-1.54 z"
   id="path3932" />
<path
   style="fill:#000000;stroke-width:0"
   inkscape:connector-curvature="0"
   d="m 231.31,654.85 0,0.01 0,0 0,0 0,0.01 0,0 0,0 0,0.01 0,0 0,0 -0.01,0.01 0,0 0,0.01 -0.01,0 0,0.01 0,0 -0.01,0.01 0,0.01 -0.01,0 0,0.01 -0.01,0 0,0.01 0,0 -0.01,0 0,0.01 0,0 -0.01,0.01 0,0 -0.01,0.01 0,0 -0.01,0.01 0,0 -0.01,0.01 -0.01,0.01 0,0 -0.01,0.01 0,0.01 -0.01,0 -0.01,0.01 0,0.01 -0.01,0 -0.01,0.01 -0.01,0.01 c -1.24,1.25 -1.56,3.13 -1.56,4.65 0,1.73 0.38,3.45 1.6,4.7 0.13,0.12 0.13,0.14 0.13,0.17 0,0.07 -0.04,0.09 -0.1,0.09 -0.1,0 -0.99,-0.67 -1.58,-1.93 -0.51,-1.09 -0.63,-2.2 -0.63,-3.03 0,-0.78 0.11,-1.98 0.66,-3.1 0.6,-1.22 1.45,-1.87 1.55,-1.87 0.06,0 0.1,0.03 0.1,0.1 z"
   id="path3934" />
<path
   style="fill:#000000;stroke-width:0"
   inkscape:connector-curvature="0"
   d="m 237.35,660.79 0.09,0.02 0.1,0.02 0.1,0.02 0.09,0.03 0.09,0.03 0.08,0.03 0.09,0.03 0.08,0.04 0.08,0.03 0.07,0.04 0.07,0.04 0.07,0.04 0.07,0.05 0.06,0.04 0.06,0.05 0.06,0.05 0.05,0.05 0.05,0.05 0.05,0.06 0.04,0.05 0.05,0.06 0.03,0.06 0.04,0.06 0.03,0.06 0.03,0.07 0.02,0.06 0.02,0.07 0.02,0.06 0.01,0.07 0.01,0.07 0,0.07 0.01,0.07 c 0,0.92 -0.87,1.71 -2.47,1.71 l -0.13,-0.47 c 1.01,0 1.18,-0.78 1.18,-1.24 0,-0.76 -0.47,-1.38 -1.44,-1.38 h -1.55 v -0.36 h 1.93 c 0.2,0 0.67,0 1,-0.43 0.33,-0.41 0.33,-0.97 0.33,-1.08 0,-0.12 0,-1.39 -1.43,-1.39 h 0 -1.83 v 2.9 0.36 2.62 h 1.81 l 0.13,0.47 h -4.32 v -0.47 h 1.08 v -5.88 h -1.08 v -0.47 h 4.62 c 1.65,0 2.48,0.88 2.48,1.85 0,0.96 -0.85,1.62 -2.03,1.71 z"
   id="path3936" />
<path
   style="fill:#000000;stroke-width:0"
   inkscape:connector-curvature="0"
   d="m 242.92,659.72 0,0.07 0,0.08 -0.01,0.08 0,0.08 -0.01,0.17 -0.01,0.17 -0.01,0.18 -0.03,0.19 -0.02,0.2 -0.03,0.2 -0.04,0.2 -0.05,0.21 -0.05,0.21 -0.06,0.21 -0.07,0.21 -0.08,0.21 -0.05,0.11 -0.04,0.11 -0.05,0.1 -0.05,0.11 c -0.6,1.22 -1.45,1.86 -1.55,1.86 -0.06,0 -0.1,-0.03 -0.1,-0.09 0,-0.03 0,-0.05 0.19,-0.23 0.97,-0.99 1.54,-2.57 1.54,-4.64 0,-1.7 -0.37,-3.45 -1.6,-4.7 -0.13,-0.12 -0.13,-0.14 -0.13,-0.17 0,-0.06 0.04,-0.1 0.1,-0.1 0.1,0 0.99,0.68 1.58,1.94 0.51,1.09 0.63,2.19 0.63,3.03 z"
   id="path3938" />
</g>    <g
       style="font-style:normal;font-variant:normal;font-weight:normal;font-stretch:normal;letter-spacing:normal;word-spacing:normal;text-anchor:start;fill:none;stroke:#000000;stroke-linecap:butt;stroke-linejoin:miter;stroke-miterlimit:10.43299961;stroke-opacity:1;stroke-dasharray:none;stroke-dashoffset:0"
       ns0:preamble=""
       ns0:text="$ \\mathbf{f(A+B)} $"
       word-spacing="normal"
       letter-spacing="normal"
       font-size-adjust="none"
       font-stretch="normal"
       font-weight="normal"
       font-variant="normal"
       font-style="normal"
       stroke-miterlimit="10.433"
       xml:space="preserve"
       transform="matrix(6.1287028,0,0,-6.1287028,-1233.2045,4384.1308)"
       id="g4010">
<path
   id="path4012"
   d="m 224.6,661.65 h -0.75 v -0.47 h 0.75 v -3.48 h -0.69 v -0.47 c 0.35,0.01 0.8,0.04 1.25,0.04 0.38,0 1.02,0 1.38,-0.04 v 0.47 h -0.87 v 3.48 h 1.15 v 0.47 h -1.21 v 1 c 0,1.09 0.76,1.18 1.01,1.18 0.04,0 0.09,0 0.17,-0.02 -0.15,-0.11 -0.23,-0.3 -0.23,-0.49 0,-0.42 0.34,-0.61 0.6,-0.61 0.3,0 0.62,0.21 0.62,0.61 0,0.42 -0.36,0.87 -1.13,0.87 -0.98,0 -2.05,-0.42 -2.05,-1.54 z"
   inkscape:connector-curvature="0"
   style="fill:#000000;stroke-width:0" />
<path
   id="path4014"
   d="m 231.31,654.85 0,0.01 0,0 0,0 0,0.01 0,0 0,0 0,0.01 0,0 0,0 -0.01,0.01 0,0 0,0.01 -0.01,0 0,0.01 0,0 -0.01,0.01 0,0.01 -0.01,0 0,0.01 -0.01,0 0,0.01 0,0 -0.01,0 0,0.01 0,0 -0.01,0.01 0,0 -0.01,0.01 0,0 -0.01,0.01 0,0 -0.01,0.01 -0.01,0.01 0,0 -0.01,0.01 0,0.01 -0.01,0 -0.01,0.01 0,0.01 -0.01,0 -0.01,0.01 -0.01,0.01 c -1.24,1.25 -1.56,3.13 -1.56,4.65 0,1.73 0.38,3.45 1.6,4.7 0.13,0.12 0.13,0.14 0.13,0.17 0,0.07 -0.04,0.09 -0.1,0.09 -0.1,0 -0.99,-0.67 -1.58,-1.93 -0.51,-1.09 -0.63,-2.2 -0.63,-3.03 0,-0.78 0.11,-1.98 0.66,-3.1 0.6,-1.22 1.45,-1.87 1.55,-1.87 0.06,0 0.1,0.03 0.1,0.1 z"
   inkscape:connector-curvature="0"
   style="fill:#000000;stroke-width:0" />
<path
   id="path4016"
   d="m 236.61,663.91 -0.01,0.01 0,0.01 -0.01,0.02 0,0.01 -0.01,0.02 -0.01,0.02 -0.01,0.01 -0.01,0.02 -0.01,0.02 -0.02,0.01 -0.01,0.01 -0.01,0.02 -0.01,0.01 -0.01,0.01 -0.01,0.01 -0.01,0 -0.02,0.01 -0.01,0.01 -0.01,0 -0.01,0.01 -0.01,0 -0.02,0.01 -0.01,0 -0.01,0 -0.02,0 -0.01,0 -0.01,0.01 -0.02,0 -0.01,0 -0.02,0 -0.03,0 -0.03,0 c -0.28,0 -0.32,-0.08 -0.39,-0.26 l -2.46,-5.98 c -0.06,-0.15 -0.09,-0.23 -0.85,-0.23 h -0.21 v -0.47 c 0.38,0.01 0.86,0.04 1.16,0.04 0.39,0 0.95,0 1.32,-0.04 v 0.47 c -0.02,0 -0.89,0 -0.89,0.13 0,0.01 0.03,0.11 0.04,0.12 l 0.5,1.2 h 2.67 l -0.2,0.47 h -2.27 l 1.13,2.76 1.14,-2.76 0.2,-0.47 0.59,-1.45 h -0.94 v -0.47 c 0.38,0.04 1.32,0.04 1.75,0.04 0.4,0 1.27,0 1.62,-0.04 v 0.47 h -0.96 z"
   inkscape:connector-curvature="0"
   style="fill:#000000;stroke-width:0" />
<path
   id="path4018"
   d="m 246.84,659.52 h 2.77 c 0.14,0 0.33,0 0.33,0.2 0,0.2 -0.19,0.2 -0.33,0.2 h -2.77 v 2.78 c 0,0.14 0,0.33 -0.2,0.33 -0.2,0 -0.2,-0.19 -0.2,-0.33 v -2.78 h -2.79 c -0.14,0 -0.32,0 -0.32,-0.2 0,-0.2 0.18,-0.2 0.32,-0.2 h 2.79 v -2.78 c 0,-0.14 0,-0.33 0.2,-0.33 0.2,0 0.2,0.19 0.2,0.33 z"
   inkscape:connector-curvature="0"
   style="fill:#000000;stroke-width:0" />
<path
   id="path4020"
   d="m 258.18,660.79 0.1,0.02 0.1,0.02 0.09,0.02 0.1,0.03 0.09,0.03 0.08,0.03 0.09,0.03 0.08,0.04 0.07,0.03 0.08,0.04 0.07,0.04 0.07,0.04 0.07,0.05 0.06,0.04 0.06,0.05 0.06,0.05 0.05,0.05 0.05,0.05 0.05,0.06 0.04,0.05 0.04,0.06 0.04,0.06 0.04,0.06 0.03,0.06 0.02,0.07 0.03,0.06 0.02,0.07 0.02,0.06 0.01,0.07 0.01,0.07 0,0.07 0,0.07 c 0,0.92 -0.86,1.71 -2.46,1.71 l -0.13,-0.47 c 1,0 1.18,-0.78 1.18,-1.24 0,-0.76 -0.47,-1.38 -1.44,-1.38 h -1.55 v -0.36 h 1.93 c 0.2,0 0.67,0 1,-0.43 0.33,-0.41 0.33,-0.97 0.33,-1.08 0,-0.12 0,-1.39 -1.43,-1.39 h 0 -1.83 v 2.9 0.36 2.62 h 1.81 l 0.13,0.47 h -4.32 v -0.47 h 1.08 v -5.88 h -1.08 v -0.47 h 4.62 c 1.65,0 2.48,0.88 2.48,1.85 0,0.96 -0.85,1.62 -2.04,1.71 z"
   inkscape:connector-curvature="0"
   style="fill:#000000;stroke-width:0" />
<path
   id="path4022"
   d="m 263.76,659.72 0,0.07 0,0.08 -0.01,0.08 0,0.08 -0.01,0.17 -0.01,0.17 -0.01,0.18 -0.03,0.19 -0.02,0.2 -0.04,0.2 -0.04,0.2 -0.04,0.21 -0.05,0.21 -0.07,0.21 -0.07,0.21 -0.07,0.21 -0.05,0.11 -0.04,0.11 -0.05,0.1 -0.05,0.11 c -0.6,1.22 -1.45,1.86 -1.55,1.86 -0.06,0 -0.1,-0.03 -0.1,-0.09 0,-0.03 0,-0.05 0.19,-0.23 0.97,-0.99 1.54,-2.57 1.54,-4.64 0,-1.7 -0.37,-3.45 -1.6,-4.7 -0.13,-0.12 -0.13,-0.14 -0.13,-0.17 0,-0.06 0.04,-0.1 0.1,-0.1 0.1,0 0.99,0.68 1.58,1.94 0.51,1.09 0.63,2.19 0.63,3.03 z"
   inkscape:connector-curvature="0"
   style="fill:#000000;stroke-width:0" />
</g>  </g>
</svg>
