<?xml version="1.0" encoding="UTF-8" standalone="no"?>
<!-- Created with Inkscape (http://www.inkscape.org/) -->

<svg
   xmlns:dc="http://purl.org/dc/elements/1.1/"
   xmlns:cc="http://creativecommons.org/ns#"
   xmlns:rdf="http://www.w3.org/1999/02/22-rdf-syntax-ns#"
   xmlns:svg="http://www.w3.org/2000/svg"
   xmlns="http://www.w3.org/2000/svg"
   xmlns:sodipodi="http://sodipodi.sourceforge.net/DTD/sodipodi-0.dtd"
   xmlns:inkscape="http://www.inkscape.org/namespaces/inkscape"
   width="746.258"
   height="635.04559"
   id="svg2"
   version="1.1"
   inkscape:version="0.48.3.1 r9886"
   sodipodi:docname="wingman.svg">
  <sodipodi:namedview
     id="base"
     pagecolor="#ffffff"
     bordercolor="#666666"
     borderopacity="1.0"
     inkscape:pageopacity="0.0"
     inkscape:pageshadow="2"
     inkscape:zoom="0.52160037"
     inkscape:cx="-199.44077"
     inkscape:cy="251.47949"
     inkscape:document-units="px"
     inkscape:current-layer="layer1"
     showgrid="false"
     inkscape:window-width="1215"
     inkscape:window-height="1000"
     inkscape:window-x="65"
     inkscape:window-y="24"
     inkscape:window-maximized="1"
     fit-margin-top="0"
     fit-margin-left="0"
     fit-margin-right="0"
     fit-margin-bottom="0">
    <inkscape:grid
       type="xygrid"
       id="grid2985"
       empspacing="5"
       visible="true"
       enabled="true"
       snapvisiblegridlinesonly="true"
       originx="-235.81271px"
       originy="-306.74819px" />
  </sodipodi:namedview>
  <defs
     id="defs4">
    <marker
       inkscape:stockid="Arrow2Mend"
       orient="auto"
       refY="0"
       refX="0"
       id="Arrow2Mend"
       style="overflow:visible">
      <path
         id="path3903"
         style="font-size:12px;fill-rule:evenodd;stroke-width:0.625;stroke-linejoin:round"
         d="M 8.7185878,4.0337352 -2.2072895,0.01601326 8.7185884,-4.0017078 c -1.7454984,2.3720609 -1.7354408,5.6174519 -6e-7,8.035443 z"
         transform="scale(-0.6,-0.6)"
         inkscape:connector-curvature="0" />
    </marker>
    <marker
       inkscape:stockid="Arrow2Lend"
       orient="auto"
       refY="0"
       refX="0"
       id="Arrow2Lend"
       style="overflow:visible">
      <path
         id="path3897"
         style="font-size:12px;fill-rule:evenodd;stroke-width:0.625;stroke-linejoin:round"
         d="M 8.7185878,4.0337352 -2.2072895,0.01601326 8.7185884,-4.0017078 c -1.7454984,2.3720609 -1.7354408,5.6174519 -6e-7,8.035443 z"
         transform="matrix(-1.1,0,0,-1.1,-1.1,0)"
         inkscape:connector-curvature="0" />
    </marker>
    <marker
       inkscape:stockid="Arrow2Mend"
       orient="auto"
       refY="0"
       refX="0"
       id="Arrow2Mend-8"
       style="overflow:visible">
      <path
         inkscape:connector-curvature="0"
         id="path3903-8"
         style="font-size:12px;fill-rule:evenodd;stroke-width:0.625;stroke-linejoin:round"
         d="M 8.7185878,4.0337352 -2.2072895,0.01601326 8.7185884,-4.0017078 c -1.7454984,2.3720609 -1.7354408,5.6174519 -6e-7,8.035443 z"
         transform="scale(-0.6,-0.6)" />
    </marker>
  </defs>
  <metadata
     id="metadata7">
    <rdf:RDF>
      <cc:Work
         rdf:about="">
        <dc:format>image/svg+xml</dc:format>
        <dc:type
           rdf:resource="http://purl.org/dc/dcmitype/StillImage" />
        <dc:title />
      </cc:Work>
    </rdf:RDF>
  </metadata>
  <g
     inkscape:label="Layer 1"
     inkscape:groupmode="layer"
     id="layer1"
     transform="translate(-581.44099,204.38608)">
    <path
       sodipodi:type="arc"
       style="opacity:0.5;fill:#82eb1b;fill-opacity:1;stroke:none"
       id="path3833-9"
       sodipodi:cx="307.70685"
       sodipodi:cy="232.28992"
       sodipodi:rx="79.562828"
       sodipodi:ry="81.00071"
       d="m 387.26968,232.28992 c 0,44.73545 -35.6215,81.00071 -79.56283,81.00071 -43.94134,0 -79.56283,-36.26526 -79.56283,-81.00071 0,-44.73546 35.62149,-81.00071 79.56283,-81.00071 43.94133,0 79.56283,36.26525 79.56283,81.00071 z"
       transform="matrix(1.96,0,0,1.96,134.27871,-286.83394)" />
    <path
       sodipodi:type="arc"
       style="opacity:0.5;fill:#ebb419;fill-opacity:1;stroke:none"
       id="path3833-4"
       sodipodi:cx="307.70685"
       sodipodi:cy="232.28992"
       sodipodi:rx="79.562828"
       sodipodi:ry="81.00071"
       d="m 387.26968,232.28992 c 0,44.73545 -35.6215,81.00071 -79.56283,81.00071 -43.94134,0 -79.56283,-36.26526 -79.56283,-81.00071 0,-44.73546 35.62149,-81.00071 79.56283,-81.00071 43.94133,0 79.56283,36.26525 79.56283,81.00071 z"
       transform="matrix(3.92,0,0,3.92,-190.39813,-797.43977)" />
    <path
       sodipodi:type="arc"
       style="opacity:0.5;fill:#3787f7;fill-opacity:1;stroke:none"
       id="path3833"
       sodipodi:cx="307.70685"
       sodipodi:cy="232.28992"
       sodipodi:rx="79.562828"
       sodipodi:ry="81.00071"
       d="m 387.26968,232.28992 c 0,44.73545 -35.6215,81.00071 -79.56283,81.00071 -43.94134,0 -79.56283,-36.26526 -79.56283,-81.00071 0,-44.73546 35.62149,-81.00071 79.56283,-81.00071 43.94133,0 79.56283,36.26525 79.56283,81.00071 z"
       transform="matrix(1.96,0,0,1.96,411.96256,-338.23343)" />
    <g
       id="g3777"
       transform="matrix(0.36,0,0,0.36,651.60965,10.43911)">
      <rect
         y="412.36218"
         x="160"
         height="80"
         width="120"
         id="rect2987"
         style="fill:#d1c7c7;fill-opacity:1;fill-rule:evenodd;stroke:#000000;stroke-width:1px;stroke-linecap:butt;stroke-linejoin:miter;stroke-opacity:1" />
      <rect
         y="429.75909"
         x="137.07812"
         height="50.80518"
         width="20.609648"
         id="rect3757"
         style="fill:#000000;fill-opacity:1" />
      <rect
         y="429.14041"
         x="282.61212"
         height="50.80518"
         width="20.609648"
         id="rect3757-1"
         style="fill:#000000;fill-opacity:1" />
    </g>
    <g
       id="g3827"
       transform="matrix(0.36,0,0,0.36,819.54309,20.67617)">
      <path
         d="m 582.92886,264.73038 c 0,21.71241 -17.60139,39.31381 -39.31381,39.31381 -21.71242,0 -39.31381,-17.6014 -39.31381,-39.31381 0,-21.71242 17.60139,-39.31381 39.31381,-39.31381 21.71242,0 39.31381,17.60139 39.31381,39.31381 z"
         sodipodi:ry="39.313808"
         sodipodi:rx="39.313808"
         sodipodi:cy="264.73038"
         sodipodi:cx="543.61505"
         id="path3782-7"
         style="fill:#a0c1ee;fill-opacity:1;stroke:#000000;stroke-width:0.66666669;stroke-miterlimit:4;stroke-opacity:1;stroke-dasharray:none"
         sodipodi:type="arc"
         transform="matrix(1.5,0,0,1.5,-272.23534,-131.93736)" />
      <path
         d="m 582.92886,264.73038 c 0,21.71241 -17.60139,39.31381 -39.31381,39.31381 -21.71242,0 -39.31381,-17.6014 -39.31381,-39.31381 0,-21.71242 17.60139,-39.31381 39.31381,-39.31381 21.71242,0 39.31381,17.60139 39.31381,39.31381 z"
         sodipodi:ry="39.313808"
         sodipodi:rx="39.313808"
         sodipodi:cy="264.73038"
         sodipodi:cx="543.61505"
         id="path3782"
         style="fill:#eec6a0;fill-opacity:1;stroke:#000000;stroke-opacity:1"
         sodipodi:type="arc" />
      <path
         d="m 582.92886,264.73038 c 0,21.71241 -17.60139,39.31381 -39.31381,39.31381 -21.71242,0 -39.31381,-17.6014 -39.31381,-39.31381 0,-21.71242 17.60139,-39.31381 39.31381,-39.31381 21.71242,0 39.31381,17.60139 39.31381,39.31381 z"
         sodipodi:ry="39.313808"
         sodipodi:rx="39.313808"
         sodipodi:cy="264.73038"
         sodipodi:cx="543.61505"
         id="path3782-4"
         style="fill:#a0c1ee;fill-opacity:1;stroke:#000000;stroke-width:3.33333325;stroke-miterlimit:4;stroke-opacity:1;stroke-dasharray:none"
         sodipodi:type="arc"
         transform="matrix(0.3,0,0,0.3,319.08007,147.27579)" />
      <path
         d="m 582.92886,264.73038 c 0,21.71241 -17.60139,39.31381 -39.31381,39.31381 -21.71242,0 -39.31381,-17.6014 -39.31381,-39.31381 0,-21.71242 17.60139,-39.31381 39.31381,-39.31381 21.71242,0 39.31381,17.60139 39.31381,39.31381 z"
         sodipodi:ry="39.313808"
         sodipodi:rx="39.313808"
         sodipodi:cy="264.73038"
         sodipodi:cx="543.61505"
         id="path3782-4-0"
         style="fill:#a0c1ee;fill-opacity:1;stroke:#000000;stroke-width:3.33333325;stroke-miterlimit:4;stroke-opacity:1;stroke-dasharray:none"
         sodipodi:type="arc"
         transform="matrix(0.3,0,0,0.3,437.65846,227.11547)" />
    </g>
    <path
       style="fill:#000000;fill-opacity:1;stroke:#646464;stroke-width:2;stroke-linecap:butt;stroke-linejoin:miter;stroke-miterlimit:4;stroke-opacity:1;stroke-dasharray:none;stroke-dashoffset:0;marker-end:url(#Arrow2Mend)"
       d="M 730.62442,174.88589 635.72903,47.45493"
       id="path3871"
       inkscape:connector-curvature="0" />
    <path
       style="fill:#323232;fill-opacity:1;stroke:#646464;stroke-width:2;stroke-linecap:butt;stroke-linejoin:miter;stroke-miterlimit:4;stroke-opacity:1;stroke-dasharray:none;marker-end:url(#Arrow2Mend)"
       d="m 1013.955,115.23736 210.1255,234.52719"
       id="path4317"
       inkscape:connector-curvature="0" />
    <path
       style="fill:#323232;fill-opacity:1;stroke:#646464;stroke-width:2;stroke-linecap:butt;stroke-linejoin:miter;stroke-miterlimit:4;stroke-opacity:1;stroke-dasharray:none;marker-end:url(#Arrow2Mend)"
       d="m 1014.2419,115.99674 80.8572,-134.5849"
       id="path4317-2"
       inkscape:connector-curvature="0"
       sodipodi:nodetypes="cc" />
    <text
       xml:space="preserve"
       style="font-size:25px;font-style:normal;font-weight:normal;line-height:125%;letter-spacing:0px;word-spacing:0px;fill:#000000;fill-opacity:1;stroke:none;font-family:Sans"
       x="926.53278"
       y="-25.62858"
       id="text5435"
       sodipodi:linespacing="125%"><tspan
         sodipodi:role="line"
         id="tspan5437"
         x="926.53278"
         y="-25.62858">Human</tspan><tspan
         sodipodi:role="line"
         x="926.53278"
         y="5.6214199"
         id="tspan5439">observation</tspan><tspan
         sodipodi:role="line"
         x="926.53278"
         y="36.871422"
         id="tspan5441">range</tspan></text>
    <text
       xml:space="preserve"
       style="font-size:40px;font-style:normal;font-weight:normal;line-height:125%;letter-spacing:0px;word-spacing:0px;fill:#000000;fill-opacity:1;stroke:none;font-family:Sans"
       x="1131.6707"
       y="164.17192"
       id="text5443"
       sodipodi:linespacing="125%"><tspan
         sodipodi:role="line"
         id="tspan5445"
         x="1131.6707"
         y="164.17192"
         style="font-size:25px">Flank</tspan><tspan
         sodipodi:role="line"
         x="1131.6707"
         y="195.42192"
         id="tspan5447"
         style="font-size:25px">support</tspan><tspan
         sodipodi:role="line"
         x="1131.6707"
         y="226.67192"
         id="tspan5449"
         style="font-size:25px">range</tspan></text>
    <text
       xml:space="preserve"
       style="font-size:40px;font-style:normal;font-weight:normal;line-height:125%;letter-spacing:0px;word-spacing:0px;fill:#000000;fill-opacity:1;stroke:none;font-family:Sans"
       x="681.13416"
       y="35.721088"
       id="text5451"
       sodipodi:linespacing="125%"><tspan
         sodipodi:role="line"
         id="tspan5453"
         x="681.13416"
         y="35.721088"
         style="font-size:25px">Robot</tspan><tspan
         sodipodi:role="line"
         x="681.13416"
         y="66.971085"
         id="tspan5455"
         style="font-size:25px">observation</tspan><tspan
         sodipodi:role="line"
         x="681.13416"
         y="98.221085"
         id="tspan5457"
         style="font-size:25px">range</tspan></text>
  </g>
</svg>
